<?xml version="1.0" encoding="UTF-8"?><svg id="a" xmlns="http://www.w3.org/2000/svg" width="20.2847mm" height="20.2847mm" viewBox="0 0 57.4999 57.4999"><defs><style>.cls-1{fill:none;}.cls-2{fill:#231f20;}.cls-3{fill:#151514;}</style></defs><path class="cls-2" d="M16.6931,37.3478c.4056-.2341,.8112-.4682,1.2168-.7023,.8232,1.1268,1.8155,2.1191,2.9423,2.9423-.2343,.4056-.4686,.8115-.7028,1.2172,.8194,.473,1.6388,.9458,2.4583,1.4188,.2326-.4029,.4651-.8056,.6977-1.2086,1.2537,.5592,2.6046,.9374,4.0245,1.0872v1.3864h2.8382v-1.3864c1.4198-.1498,2.7706-.528,4.0244-1.0868,.2324,.4027,.4648,.8054,.6972,1.2081,.8196-.473,1.6393-.9458,2.4589-1.4188-.2343-.4058-.4687-.8116-.7028-1.2172,1.1268-.8232,2.1185-1.8155,2.9423-2.9423,.4054,.2341,.8108,.4682,1.2161,.7023l1.4199-2.4584c-.4029-.2325-.8058-.4651-1.2086-.6977,.5581-1.2537,.9364-2.6035,1.0863-4.0229h1.3873v-2.8397h-1.3873c-.1498-1.4194-.5282-2.7697-1.0868-4.0235,.403-.2325,.806-.4652,1.2091-.6977-.4733-.8196-.9466-1.6392-1.4199-2.4588-.4056,.2343-.8111,.4685-1.2167,.7028-.8232-1.1268-1.8149-2.1186-2.9417-2.9419,.2341-.4057,.4685-.8115,.7028-1.2172-.8196-.4729-1.6393-.9458-2.4589-1.4188-.2325,.4028-.4648,.8054-.6972,1.2081-1.2538-.5586-2.6046-.937-4.0244-1.0868v-1.3863h-2.8382v1.3863c-1.4199,.1498-2.7707,.5282-4.0245,1.0873-.2327-.4029-.4651-.8057-.6977-1.2086-.8195,.473-1.6389,.9459-2.4583,1.4188,.2342,.4058,.4685,.8115,.7028,1.2172-1.1268,.8233-2.1186,1.815-2.9418,2.9419-.4058-.2343-.8116-.4685-1.2173-.7028-.4731,.8196-.9462,1.6392-1.4193,2.4588,.4028,.2325,.8056,.4652,1.2086,.6977-.5586,1.2538-.9365,2.604-1.0862,4.0235h-1.3874v2.8397h1.3874c.1497,1.4193,.5276,2.7692,1.0862,4.0229-.4029,.2326-.8058,.4652-1.2086,.6977,.4731,.8194,.9462,1.639,1.4193,2.4584Zm11.1827,1.9455c-.1828-.0173-.3652-.0356-.5459-.0599-.9065-.1219-1.7784-.3524-2.5976-.6896-.8855-.3642-1.7067-.8496-2.4533-1.428-.7099-.5505-1.3467-1.1873-1.8972-1.8972-.1116-.1447-.2173-.294-.3219-.4438,2.0331-1.174,4.0662-2.3479,6.0995-3.5218l.031,.0533c.5413,.3125,1.0827,.625,1.624,.9375h.0615v7.0495Zm9.2403-4.0748c-.5505,.7099-1.1874,1.3467-1.8978,1.8972-.7465,.5784-1.5676,1.0639-2.4527,1.4286-.8192,.3367-1.691,.5672-2.5974,.6891-.1803,.0244-.3631,.0426-.5454,.0599v-7.0495h.0599c.5413-.3125,1.0827-.625,1.6239-.9375l.0311-.0533c2.0331,1.1739,4.0665,2.3478,6.0998,3.5218-.1046,.1498-.2096,.2991-.3213,.4438Zm1.2019-10.9846c.0783,.1644,.1565,.329,.2261,.4987,.3371,.8186,.5672,1.6905,.6896,2.5965,.0629,.4656,.1066,.9375,.1066,1.4198s-.0437,.9542-.1066,1.42c-.1224,.906-.3525,1.7773-.6891,2.596-.0701,.1694-.1483,.335-.2271,.5001-2.0354-1.1752-4.0707-2.3505-6.106-3.5257l.0315-.0544v-1.8718l-.0315-.0537c2.0355-1.1751,4.0711-2.3502,6.1065-3.5253Zm-8.6953-6.0292c.1823,.0172,.3651,.0354,.5454,.0599,.9065,.1219,1.7783,.3524,2.5974,.6891,.8851,.3647,1.7063,.85,2.4527,1.4285,.7104,.55,1.3473,1.1868,1.8973,1.8966,.1122,.1448,.2178,.2945,.3224,.4449-2.0335,1.174-4.0669,2.3481-6.1003,3.5222l-.0326-.0569c-.5399-.3116-1.0797-.6233-1.6195-.9349h-.0629v-7.0495Zm-.4931,9.1244l.6576,.3798,.3809,.6597v.7606l-.3804,.6586-.6597,.381h-.7586l-.6597-.381-.3798-.6581v-.7617l.3804-.6592,.6575-.3798h.7618Zm-8.7472-5.0503c.5499-.7099,1.1867-1.3462,1.8966-1.8966,.7465-.5785,1.5677-1.0638,2.4533-1.4279,.8192-.3373,1.6911-.5678,2.5976-.6897,.1807-.0245,.3631-.0426,.5459-.0599v7.0495h-.065c-.5397,.3116-1.0793,.6232-1.619,.9349l-.0324,.0564c-2.0333-1.1739-4.0664-2.3479-6.0995-3.5217,.1046-.1504,.2103-.3001,.3225-.4449Zm-2.1181,5.0503c.1219-.906,.3524-1.7774,.6896-2.5965,.0696-.1696,.1478-.3342,.226-.4987,2.0351,1.1749,4.0703,2.3498,6.1055,3.5248l-.0305,.0528v1.8748l.031,.0533c-2.0351,1.1751-4.0704,2.3501-6.1055,3.5252-.0787-.1651-.1569-.3306-.227-.5001-.3367-.8188-.5672-1.6901-.6891-2.596-.063-.4657-.1067-.9375-.1067-1.42s.0437-.9542,.1067-1.4198Z"/><g><path class="cls-2" d="M12.4975,7.3809c.1465,.1807,.209,.3867,.1875,.6182s-.125,.4229-.3115,.5732c-.1816,.1484-.3887,.2109-.6201,.1875-.2314-.0225-.4219-.126-.5713-.3105-.1445-.1777-.2051-.3848-.1816-.6191,.0234-.2354,.125-.4258,.3057-.5723,.1816-.1475,.3906-.208,.626-.1797s.4238,.1289,.5654,.3027Zm-.3672,.8916c.0996-.0811,.1543-.1865,.1641-.3154s-.0225-.2402-.0977-.332c-.0762-.0938-.1797-.1475-.3105-.1611-.1299-.0137-.2441,.0195-.3428,.0986-.0898,.0732-.1416,.1748-.1562,.3047s.0176,.2422,.0957,.3379c.0811,.1006,.1846,.1562,.3105,.1689,.126,.0117,.2383-.0215,.3369-.1016Zm.8584,.2783l5.2588,2.6895-.8555,.6953-1.2637-.667-1.8643,1.5137,.4238,1.3506-.8496,.6895-1.6777-5.5977,.8281-.6738Zm1.0215,3.416l1.3535-1.0996-2.0566-1.084,.7031,2.1836Z"/><path class="cls-2" d="M18.4955,5.1973l2.3877,1.4111,.9561-2.6035,.8779-.3135,1.8154,5.0889-.9834,.3506-1.2754-3.5732-.0283,.0107-.833,2.3174-.1377,.0488-2.1113-1.2666-.0293,.0098,1.2754,3.5732-.9844,.3516-1.8154-5.0889,.8857-.3164Z"/><path class="cls-2" d="M27.8666,3.0693c.5254-.0195,1.0371,.0947,1.5332,.3398l.0332,.9277c-.5713-.3174-1.0732-.4688-1.5059-.4531-.2637,.0088-.4668,.0674-.6113,.1748-.1445,.1064-.2139,.2451-.208,.415,.0078,.2041,.1523,.3867,.4336,.5498,.0791,.0488,.3828,.1826,.9092,.4014,.4502,.1924,.7783,.4131,.9834,.6611,.2041,.248,.3135,.5508,.3262,.9092,.0166,.4639-.1367,.8438-.46,1.1406-.3242,.2969-.751,.4551-1.2822,.4736-.3447,.0127-.6436-.0146-.8945-.082s-.5352-.1875-.8506-.3623l-.0371-1.0283c.5947,.459,1.1465,.6787,1.6572,.6602,.2549-.0088,.459-.0713,.6123-.1875,.1533-.1172,.2266-.2666,.2197-.4492-.0088-.25-.1523-.4492-.4316-.5967-.2314-.1152-.5283-.2529-.8936-.4131-.4316-.1777-.7568-.3916-.9766-.6416-.2188-.25-.335-.5459-.3467-.8857-.0166-.4531,.1396-.8213,.4668-1.1025,.3281-.2812,.7695-.4316,1.3232-.4512Z"/><path class="cls-2" d="M35.9809,4.0947l-.1729,.7979-2.3926-.5205-.3018,1.3877,2.29,.4971-.1729,.7979-2.291-.498-.3262,1.5,2.4453,.5322-.1729,.7969-3.4658-.7529,1.1484-5.2793,3.4121,.7412Z"/><path class="cls-2" d="M39.8578,5.6504l-2.085,4.0859,2.335,1.1914-.3711,.7275-3.2656-1.667,2.4561-4.8125,.9307,.4746Z"/><path class="cls-2" d="M47.0111,10.7021l-.5391,.6123-1.8379-1.6182-.9375,1.0654,1.7588,1.5488-.5391,.6123-1.7588-1.5488-1.0146,1.1523,1.8779,1.6543-.54,.6123-2.6611-2.3438,3.5703-4.0557,2.6211,2.3086Z"/></g><path class="cls-1" d="M24.2055,49.5559c-.2125-.0432-.4248-.0864-.6371-.1296-.1006,.4912-.2012,.9824-.3018,1.4736,.2173,.0445,.4345,.0889,.6517,.1334,.0933,.0192,.1814,.0288,.264,.0288,.1547,0,.2908-.0336,.4079-.1003,.1809-.1025,.2939-.2698,.3424-.5028,.0492-.2427,.0106-.439-.1161-.5898-.1276-.1509-.3306-.2552-.611-.3133Z"/><path class="cls-1" d="M30.0456,51.2547c.1548-.1373,.2281-.3231,.2194-.5579-.0076-.2089-.0869-.3713-.2387-.4882-.1405-.1089-.3203-.1635-.537-.1635l-.049,.0009c-.2502,.009-.5003,.0181-.7504,.0271,.0174,.4755,.0348,.9509,.0523,1.4263,.2189-.0078,.4377-.0156,.6565-.0233,.2766-.0107,.4911-.0841,.6469-.2214Z"/><path class="cls-1" d="M37.2305,49.3652c-.2416-.2232-.5269-.3635-.8536-.4224-.1118-.0202-.2247-.0303-.339-.0303-.2199,0-.4444,.0374-.6734,.1124-.3481,.1132-.6373,.2911-.8664,.5328-.2281,.2416-.3731,.522-.4351,.8422-.0609,.3191-.0348,.6508,.0764,.994,.1112,.3403,.2891,.6218,.5318,.8431,.2437,.2224,.5269,.3625,.8518,.4216,.1121,.0207,.2256,.0309,.3405,.0309,.218,0,.441-.0372,.669-.1113,.5269-.1722,.9059-.4796,1.137-.9215,.232-.4409,.262-.9233,.0919-1.4455-.1112-.3403-.2882-.6226-.5309-.8461Z"/><path class="cls-1" d="M29.828,52.2782c-.0245,0-.0492,.0005-.0745,.0015-.3271,.0118-.6543,.0239-.9814,.0357,.0183,.509,.0366,1.0178,.0551,1.5267,.3004-.0109,.6008-.0219,.9012-.0328,.353-.0135,.6168-.089,.7928-.2282,.175-.1393,.2582-.3384,.2484-.5957-.0076-.2292-.1044-.407-.2881-.5336-.1683-.1151-.3862-.1736-.6536-.1736Z"/><polygon class="cls-1" points="7.5411 39.563 9.0928 37.8312 6.8033 37.9821 7.5411 39.563"/><path class="cls-1" d="M18.8629,43.411c.9451,.6387,1.952,1.1858,3.0026,1.6302,1.0685,.452,2.1821,.7976,3.3187,1.0301,1.1719,.2398,2.3682,.3592,3.5646,.3592s2.3928-.1194,3.5648-.3592c1.1365-.2325,2.2502-.5781,3.3188-1.0301,1.0506-.4444,2.0576-.9915,3.0027-1.6302,.9384-.6342,1.8158-1.3585,2.6168-2.1594,.8008-.8008,1.5253-1.6781,2.1594-2.6165,.6387-.9451,1.1859-1.952,1.6303-3.0025,.4521-1.0685,.7977-2.1821,1.0303-3.3187,.2397-1.1719,.359-2.3684,.359-3.5646s-.1193-2.3928-.359-3.5647c-.2326-1.1367-.5782-2.2502-1.0303-3.3187-.4445-1.0506-.9916-2.0577-1.6303-3.0027-.6342-.9384-1.3586-1.8158-2.1594-2.6166-.801-.8009-1.6785-1.5253-2.6169-2.1594-.945-.6386-1.952-1.1858-3.0026-1.6302-1.0685-.452-2.1823-.7977-3.3188-1.0302-1.1721-.2397-2.3684-.3592-3.5648-.3592s-2.3928,.1194-3.5646,.3592c-1.1367,.2325-2.2502,.5781-3.3187,1.0302-1.0505,.4444-2.0575,.9916-3.0026,1.6302-.9383,.6342-1.8156,1.3585-2.6165,2.1594s-1.5251,1.6782-2.1593,2.6166c-.6386,.945-1.1857,1.9521-1.6301,3.0026-.452,1.0686-.7977,2.1822-1.0302,3.3188-.2397,1.1719-.3592,2.3682-.3592,3.5647s.1194,2.3928,.3592,3.5646c.2325,1.1367,.5781,2.2502,1.0302,3.3187,.4443,1.0505,.9915,2.0574,1.6301,3.0026,.6342,.9383,1.3585,1.8156,2.1593,2.6165,.8009,.8008,1.6782,1.5251,2.6165,2.1592Z"/><path class="cls-1" d="M28.7494,56.5336c15.3203,0,27.7845-12.4641,27.7845-27.7849S44.0697,.9642,28.7494,.9642,.964,13.4284,.964,28.7487s12.4651,27.7849,27.7854,27.7849Zm-15.6429-7.1402l-.819-.6478,2.8447-3.5978-1.5046-1.1903,.5057-.6402,3.8289,3.0275-.5067,.6401-1.5045-1.1903-2.8447,3.5989Zm7.5969,.6855l-.3452,.7397-2.1233-.9911-.6498,1.3913,2.2673,1.0588-.345,.7386-3.2141-1.4996,2.2857-4.8964,3.1648,1.4775-.3454,.7397-2.218-1.0356-.6004,1.286,2.1233,.991Zm5.2899,.5773c-.0619,.3007-.1925,.5472-.3935,.7387-.2012,.1923-.468,.321-.8006,.3877,.1508,.1248,.2756,.2794,.3752,.4631,.0995,.1837,.2088,.4806,.3268,.8916,.1924,.7086,.3413,1.1987,.4487,1.4735-.3803-.0777-.7606-.1554-1.1409-.2332-.0543-.1323-.1219-.3392-.2042-.6215-.1778-.6237-.3141-1.0472-.4108-1.2706-.0967-.2242-.1993-.3896-.3085-.4979-.1102-.1074-.2465-.179-.411-.2118l-.3712-.0764-.4574,2.2355c-.341-.0696-.682-.1393-1.0229-.2089,.3609-1.7646,.7219-3.5292,1.0829-5.2937,.6353,.1299,1.2705,.2597,1.9058,.3896,.4979,.1025,.8751,.3229,1.1322,.6623,.2563,.3394,.3404,.7301,.2495,1.172Zm5.6535,3.1888c-.1441,.2418-.3501,.4264-.6179,.5549-.2679,.1286-.5859,.1992-.9543,.2128-.7535,.0277-1.5071,.0555-2.2606,.0831-.0659-1.8-.1316-3.6001-.1973-5.4001,.6597-.0239,1.3195-.0477,1.9794-.0716,.0341-.0013,.0679-.002,.1011-.002,.449,0,.8232,.1147,1.1219,.3442,.3221,.2457,.4893,.5627,.5038,.9486,.0087,.2475-.0483,.4678-.1722,.6603-.1227,.1934-.3063,.349-.5491,.4689l.001,.0464c.38,.0716,.6787,.2292,.8983,.4728,.2184,.2438,.3344,.5338,.347,.8712,.0106,.2987-.0561,.5696-.201,.8104Zm7.2034-2.5101c-.1122,.4913-.3461,.9206-.703,1.2869-.3557,.3676-.8034,.6391-1.343,.815-.3519,.1154-.6994,.1729-1.0422,.1729-.175,0-.3487-.015-.5214-.0451-.5095-.0881-.9524-.2939-1.3266-.6179-.3741-.325-.6411-.7301-.8005-1.2183-.1528-.4708-.1761-.9524-.0687-1.4456,.1073-.494,.3364-.9244,.6884-1.2927,.3519-.3684,.8044-.6431,1.3585-.8237,.3636-.1191,.7191-.1783,1.0664-.1783,.1607,0,.3195,.0127,.4767,.038,.4971,.0803,.9389,.2863,1.3266,.6169,.3869,.3306,.6614,.7426,.822,1.2347,.1566,.4806,.1789,.9659,.0667,1.4571Zm3.9488-.8257l-2.5671-3.8008-1.5897,1.0743-.4573-.6769,4.0444-2.7315,.4575,.6758-1.5896,1.0742,2.5671,3.801-.8654,.5839Zm5.082-4.3027l-3.4489-3.0244-1.2646,1.4426-.6141-.5377,3.2178-3.6703,.6131,.5376-1.2637,1.4426,3.4489,3.0243-.6885,.7852Zm2.8659-21.8871c.1701-.2379,.4022-.3829,.6971-.4323,.0667-.0115,.1321-.0172,.196-.0172,.2161,0,.4166,.0654,.6016,.1953,.2389,.1682,.3839,.4011,.4341,.699,.0493,.2891-.0096,.5549-.1779,.7948-.1683,.2407-.4003,.3859-.6952,.436-.0655,.0111-.1298,.0166-.1927,.0166-.2161,0-.4178-.0654-.605-.1965-.2416-.1692-.3877-.4003-.4369-.6921-.0513-.2978,.0087-.5658,.1788-.8036Zm-2.3756,10.5774l4.3868-2.2964-3.6771-.8348,.2263-.9958,5.2686,1.1949-.1982,.8755-4.4516,2.3023,3.737,.8469-.2253,.9959-5.2695-1.1942,.2031-.8943Zm.0609,2.2267l-1.1487,2.162,1.2531,.6662,1.1003-2.0702,.7203,.3839-1.1003,2.0692,1.3556,.7203,1.1747-2.2093,.7204,.3829-1.6639,3.1318-4.7707-2.5362,1.6389-3.0834,.7203,.3828ZM28.7489,10.5062c10.0751,0,18.2434,8.1678,18.2434,18.243s-8.1683,18.2424-18.2434,18.2424S10.5065,38.8243,10.5065,28.7492,18.6738,10.5062,28.7489,10.5062ZM11.9577,37.989c-.0492,.1382-.1352,.2368-.259,.2938-.069,.0322-.1392,.0483-.2106,.0483-.0597,0-.1204-.0112-.1821-.0337-.1354-.0494-.2321-.1364-.291-.2631-.0582-.1238-.0639-.2532-.0175-.3887,.0464-.1353,.1345-.2339,.2658-.2949,.0685-.0321,.1384-.0482,.2098-.0482,.0597,0,.1202,.0112,.1819,.0338,.1354,.0493,.2331,.1373,.292,.2629,.0562,.1218,.06,.2513,.0106,.3898Zm-1.7684-2.079c.0464-.1382,.1334-.2368,.2621-.2968,.0671-.0312,.1357-.0471,.2056-.0471,.0619,0,.1249,.0124,.1889,.0374,.1373,.0523,.2349,.1412,.293,.265,.0589,.1257,.0627,.2573,.0135,.3945-.0502,.1374-.1373,.2349-.261,.2919-.0651,.0308-.1331,.0462-.2039,.0462-.0587,0-.1194-.0105-.1819-.0315-.1382-.0464-.2379-.1355-.2987-.2659-.058-.1238-.0638-.2554-.0175-.3936Zm-4.9117-11.9629c.1837-.131,.3842-.1965,.6011-.1965,.065,0,.1315,.0059,.1995,.0176,.29,.0502,.5202,.1964,.6913,.436,.1721,.2408,.2321,.5068,.1818,.7996-.0523,.297-.1984,.529-.4381,.6973-.1835,.128-.3829,.1921-.5987,.1921-.066,0-.1337-.006-.2029-.018-.2919-.0503-.522-.1953-.6912-.4341-.1693-.2387-.2283-.5067-.1769-.8035,.0501-.29,.1953-.5201,.4341-.6904Zm-2.0402,9.6472l4.9002-3.4649,.2108,1.082-3.1135,2.1635,3.6898,.7978,.2098,1.0742-5.8285-1.2957-.0687-.3568Zm2.775,7.6772l.9543-1.0646-1.0162-2.1765-1.4126,.0831-.4632-.992,5.8381-.2669,.4515,.967-3.8859,4.4478-.4661-.9979Zm2.5072,3.7554c-.2177-.2688-.3742-.524-.471-.7657-.0966-.2417-.17-.5405-.2194-.8983,.2672-.2149,.5344-.4299,.8016-.6449-.0116,.7502,.1431,1.3246,.4631,1.722,.1604,.1991,.3326,.3248,.5183,.3781,.058,.0164,.1139,.0247,.1677,.0247,.1176,0,.2253-.0392,.3235-.1176,.1943-.1575,.2678-.3916,.2185-.703-.0454-.2542-.1141-.5752-.204-.963-.116-.4525-.1402-.8412-.0706-1.1671,.0687-.3248,.236-.5946,.5009-.8083,.2651-.2134,.5497-.3206,.8538-.3206,.1008,0,.2036,.0118,.3086,.0353,.4214,.0939,.8064,.3569,1.1544,.7881,.3297,.4099,.5453,.8875,.6458,1.4319-.2411,.1941-.4821,.388-.723,.5821-.0872-.6478-.267-1.14-.5386-1.4775-.1653-.2049-.3336-.3334-.5067-.3847-.0562-.0167-.1101-.0251-.1619-.0251-.1071,0-.2052,.0359-.2946,.1082-.1594,.1276-.2194,.353-.1808,.6758,.0088,.0929,.0833,.4149,.2234,.968,.115,.4756,.1353,.8712,.0588,1.1835-.0753,.3123-.2533,.5811-.5327,.8064-.2818,.2274-.5853,.3408-.9108,.3408-.0911,0-.184-.0089-.2785-.0267-.4312-.0811-.813-.3286-1.1457-.7426Z"/><path d="M5.7116,25.8751c.0692,.012,.1368,.018,.2029,.018,.2158,0,.4152-.0641,.5987-.1921,.2397-.1683,.3858-.4003,.4381-.6973,.0502-.2928-.0098-.5588-.1818-.7996-.1711-.2396-.4013-.3857-.6913-.436-.0679-.0118-.1345-.0176-.1995-.0176-.2169,0-.4174,.0656-.6011,.1965-.2388,.1702-.384,.4003-.4341,.6904-.0513,.2969,.0077,.5648,.1769,.8035,.1692,.2388,.3994,.3839,.6912,.4341Z"/><polygon points="8.9247 34.1726 5.2349 33.3748 8.3484 31.2114 8.1376 30.1294 3.2373 33.5943 3.306 33.9511 9.1345 35.2468 8.9247 34.1726"/><path d="M11.6552,37.3363c-.0617-.0225-.1223-.0338-.1819-.0338-.0714,0-.1412,.0161-.2098,.0482-.1313,.061-.2194,.1596-.2658,.2949-.0464,.1354-.0407,.2649,.0175,.3887,.0589,.1267,.1556,.2137,.291,.2631,.0617,.0225,.1224,.0337,.1821,.0337,.0714,0,.1416-.0161,.2106-.0483,.1238-.0569,.2098-.1556,.259-.2938,.0494-.1385,.0456-.268-.0106-.3898-.0589-.1256-.1566-.2137-.292-.2629Z"/><path d="M9.9128,36.8546l-5.8381,.2669,.4632,.992,1.4126-.0831,1.0162,2.1765-.9543,1.0646,.4661,.9979,3.8859-4.4478-.4515-.967Zm-2.3717,2.7084l-.7377-1.5809,2.2895-.1509-1.5518,1.7318Z"/><path d="M10.5055,36.5695c.0626,.021,.1233,.0315,.1819,.0315,.0709,0,.1388-.0154,.2039-.0462,.1238-.057,.2108-.1545,.261-.2919,.0492-.1373,.0454-.2688-.0135-.3945-.058-.1238-.1557-.2126-.293-.265-.064-.025-.127-.0374-.1889-.0374-.0699,0-.1385,.0159-.2056,.0471-.1287,.06-.2156,.1586-.2621,.2968-.0464,.1382-.0405,.2698,.0175,.3936,.0609,.1304,.1605,.2195,.2987,.2659Z"/><path d="M9.9438,45.7961c.3255,0,.629-.1135,.9108-.3408,.2794-.2253,.4573-.4941,.5327-.8064,.0764-.3123,.0562-.7078-.0588-1.1835-.1402-.5531-.2147-.8751-.2234-.968-.0386-.3229,.0214-.5482,.1808-.6758,.0894-.0723,.1875-.1082,.2946-.1082,.0518,0,.1058,.0084,.1619,.0251,.173,.0513,.3413,.1798,.5067,.3847,.2717,.3375,.4515,.8297,.5386,1.4775,.241-.1941,.4819-.388,.723-.5821-.1005-.5444-.316-1.022-.6458-1.4319-.348-.4313-.733-.6943-1.1544-.7881-.105-.0236-.2078-.0353-.3086-.0353-.304,0-.5887,.1072-.8538,.3206-.2649,.2137-.4321,.4835-.5009,.8083-.0696,.3259-.0453,.7146,.0706,1.1671,.09,.3878,.1586,.7088,.204,.963,.0493,.3114-.0242,.5455-.2185,.703-.0981,.0783-.2059,.1176-.3235,.1176-.0538,0-.1097-.0082-.1677-.0247-.1857-.0533-.3579-.179-.5183-.3781-.3201-.3974-.4747-.9718-.4631-1.722-.2672,.215-.5344,.43-.8016,.6449,.0494,.3578,.1228,.6566,.2194,.8983,.0968,.2417,.2534,.4969,.471,.7657,.3326,.4139,.7145,.6614,1.1457,.7426,.0945,.0178,.1874,.0267,.2785,.0267Z"/><polygon points="17.9623 46.3448 14.1333 43.3173 13.6276 43.9575 15.1322 45.1478 12.2875 48.7456 13.1065 49.3934 15.9511 45.7946 17.4556 46.9849 17.9623 46.3448"/><polygon points="21.3985 48.8375 21.7439 48.0978 18.5791 46.6203 16.2934 51.5167 19.5074 53.0162 19.8524 52.2777 17.5851 51.2189 18.2349 49.8276 20.3582 50.8187 20.7034 50.0789 18.5801 49.0879 19.1805 47.8019 21.3985 48.8375"/><path d="M24.6116,48.8219c-.6353-.1299-1.2705-.2597-1.9058-.3896-.361,1.7645-.722,3.5291-1.0829,5.2937,.3409,.0696,.6819,.1393,1.0229,.2089l.4574-2.2355,.3712,.0764c.1645,.0328,.3008,.1044,.411,.2118,.1093,.1083,.2118,.2736,.3085,.4979,.0967,.2234,.233,.6469,.4108,1.2706,.0823,.2823,.15,.4892,.2042,.6215,.3802,.0778,.7606,.1555,1.1409,.2332-.1074-.2748-.2562-.7649-.4487-1.4735-.118-.411-.2272-.7079-.3268-.8916-.0996-.1838-.2244-.3384-.3752-.4631,.3326-.0667,.5994-.1954,.8006-.3877,.201-.1915,.3316-.438,.3935-.7387,.0909-.4419,.0068-.8326-.2495-1.172-.2571-.3394-.6343-.5598-1.1322-.6623Zm.3211,1.637c-.0485,.233-.1615,.4003-.3424,.5028-.1171,.0667-.2532,.1003-.4079,.1003-.0826,0-.1708-.0096-.264-.0288-.2172-.0445-.4344-.0889-.6517-.1334,.1005-.4912,.2011-.9824,.3018-1.4736,.2123,.0432,.4247,.0864,.6371,.1296,.2804,.0581,.4834,.1624,.611,.3133,.1268,.1508,.1653,.347,.1161,.5898Z"/><path d="M30.6025,51.6907l-.001-.0464c.2428-.1199,.4265-.2755,.5491-.4689,.1239-.1925,.1808-.4128,.1722-.6603-.0145-.3859-.1816-.7029-.5038-.9486-.2987-.2295-.6729-.3442-1.1219-.3442-.0333,0-.067,.0007-.1011,.002-.6599,.0239-1.3196,.0477-1.9794,.0716,.0657,1.8,.1315,3.6001,.1973,5.4001,.7535-.0276,1.5071-.0554,2.2606-.0831,.3684-.0135,.6865-.0842,.9543-.2128,.2678-.1285,.4738-.3132,.6179-.5549,.145-.2407,.2117-.5117,.201-.8104-.0126-.3373-.1286-.6274-.347-.8712-.2196-.2436-.5183-.4012-.8983-.4728Zm-1.9126-1.6177c.2501-.009,.5002-.0181,.7504-.0271l.049-.0009c.2167,0,.3965,.0546,.537,.1635,.1518,.1169,.2311,.2794,.2387,.4882,.0088,.2349-.0646,.4206-.2194,.5579-.1557,.1373-.3703,.2107-.6469,.2214-.2188,.0076-.4376,.0155-.6565,.0233-.0175-.4755-.0349-.9508-.0523-1.4263Zm1.8314,3.508c-.176,.1392-.4399,.2147-.7928,.2282-.3004,.011-.6008,.0219-.9012,.0328-.0184-.5089-.0367-1.0178-.0551-1.5267,.3271-.0118,.6542-.0239,.9814-.0357,.0253-.001,.05-.0015,.0745-.0015,.2673,0,.4852,.0585,.6536,.1736,.1837,.1266,.2805,.3044,.2881,.5336,.0098,.2573-.0734,.4564-.2484,.5957Z"/><path d="M37.9615,48.6431c-.3877-.3307-.8295-.5366-1.3266-.6169-.1572-.0253-.316-.038-.4767-.038-.3474,0-.7028,.0593-1.0664,.1783-.554,.1807-1.0065,.4553-1.3585,.8237-.352,.3683-.5811,.7986-.6884,1.2927-.1075,.4932-.0842,.9747,.0687,1.4456,.1594,.4882,.4264,.8934,.8005,1.2183,.3742,.3239,.8171,.5298,1.3266,.6179,.1727,.0301,.3464,.0451,.5214,.0451,.3428,0,.6902-.0576,1.0422-.1729,.5396-.1759,.9872-.4474,1.343-.815,.3569-.3663,.5908-.7957,.703-1.2869,.1122-.4912,.0899-.9765-.0667-1.4571-.1605-.4921-.4351-.9041-.822-1.2347Zm-.2919,3.0137c-.2311,.4419-.6101,.7493-1.137,.9215-.228,.074-.451,.1113-.669,.1113-.1149,0-.2284-.0103-.3405-.0309-.325-.0591-.6082-.1992-.8518-.4216-.2427-.2214-.4206-.5029-.5318-.8431-.1112-.3432-.1373-.6749-.0764-.994,.062-.3201,.207-.6005,.4351-.8422,.2291-.2418,.5183-.4196,.8664-.5328,.229-.0751,.4535-.1124,.6734-.1124,.1143,0,.2272,.0101,.339,.0303,.3267,.0589,.612,.1992,.8536,.4224,.2427,.2235,.4197,.5058,.5309,.8461,.1701,.5222,.1401,1.0046-.0919,1.4455Z"/><polygon points="42.6868 45.0501 42.2294 44.3743 38.1849 47.1058 38.6422 47.7827 40.2319 46.7084 42.7989 50.5092 43.6643 49.9252 41.0972 46.1243 42.6868 45.0501"/><polygon points="46.3842 40.9544 45.7711 40.4168 42.5533 44.0871 43.1674 44.6247 44.4321 43.1821 47.8809 46.2065 48.5694 45.4213 45.1205 42.397 46.3842 40.9544"/><polygon points="50.8436 42.3602 52.5075 39.2285 51.7871 38.8455 50.6124 41.0548 49.2568 40.3345 50.3571 38.2653 49.6368 37.8815 48.5365 39.9517 47.2834 39.2855 48.4321 37.1234 47.7118 36.7406 46.0729 39.824 50.8436 42.3602"/><polygon points="53.6629 35.9893 49.9259 35.1424 54.3775 32.8401 54.5757 31.9646 49.3071 30.7696 49.0809 31.7655 52.758 32.6003 48.3712 34.8967 48.1681 35.7911 53.4376 36.9852 53.6629 35.9893"/><path d="M51.61,26.0116c.063,0,.1273-.0055,.1927-.0166,.2949-.0502,.5269-.1953,.6952-.436,.1682-.2399,.2272-.5057,.1779-.7948-.0502-.2979-.1953-.5309-.4341-.699-.185-.1298-.3855-.1953-.6016-.1953-.064,0-.1293,.0057-.196,.0172-.2949,.0494-.527,.1943-.6971,.4323-.1701,.2378-.2301,.5058-.1788,.8036,.0492,.2919,.1953,.5229,.4369,.6921,.1873,.1311,.3889,.1965,.605,.1965Z"/><path d="M28.7489,46.9916c10.0751,0,18.2434-8.1673,18.2434-18.2424S38.824,10.5062,28.7489,10.5062,10.5065,18.6741,10.5065,28.7492s8.1674,18.2424,18.2424,18.2424Zm-16.2919-11.359c-.452-1.0685-.7977-2.1821-1.0302-3.3187-.2397-1.1719-.3592-2.3683-.3592-3.5646s.1194-2.3928,.3592-3.5647c.2325-1.1367,.5781-2.2502,1.0302-3.3188,.4443-1.0505,.9915-2.0576,1.6301-3.0026,.6342-.9384,1.3585-1.8159,2.1593-2.6166s1.6782-1.5253,2.6165-2.1594c.9451-.6386,1.9521-1.1858,3.0026-1.6302,1.0685-.4521,2.1821-.7977,3.3187-1.0302,1.1719-.2397,2.3683-.3592,3.5646-.3592s2.3927,.1194,3.5648,.3592c1.1365,.2325,2.2502,.5782,3.3188,1.0302,1.0506,.4444,2.0576,.9916,3.0026,1.6302,.9384,.6342,1.8159,1.3585,2.6169,2.1594,.8008,.8008,1.5253,1.6782,2.1594,2.6166,.6387,.945,1.1859,1.9521,1.6303,3.0027,.4521,1.0685,.7977,2.1821,1.0303,3.3187,.2397,1.1719,.359,2.3684,.359,3.5647s-.1193,2.3928-.359,3.5646c-.2326,1.1367-.5782,2.2502-1.0303,3.3187-.4445,1.0505-.9916,2.0574-1.6303,3.0025-.6342,.9384-1.3586,1.8157-2.1594,2.6165-.801,.8009-1.6783,1.5252-2.6168,2.1594-.9451,.6387-1.9521,1.1858-3.0027,1.6302-1.0685,.452-2.1823,.7976-3.3188,1.0301-1.172,.2398-2.3684,.3592-3.5648,.3592s-2.3928-.1194-3.5646-.3592c-1.1367-.2325-2.2502-.5781-3.3187-1.0301-1.0506-.4444-2.0575-.9915-3.0026-1.6302-.9383-.6342-1.8156-1.3585-2.6165-2.1592-.8008-.8009-1.5251-1.6782-2.1593-2.6165-.6386-.9452-1.1857-1.9521-1.6301-3.0026Z"/><path class="cls-3" d="M28.7494,57.0954c15.6298,0,28.3453-12.7165,28.3453-28.3467S44.3792,.4025,28.7494,.4025,.4032,13.1185,.4032,28.7487s12.7155,28.3467,28.3462,28.3467ZM28.7494,.9642c15.3203,0,27.7845,12.4642,27.7845,27.7845s-12.4642,27.7849-27.7845,27.7849S.964,44.0695,.964,28.7487,13.4291,.9642,28.7494,.9642Z"/></svg>