<?xml version="1.0" encoding="UTF-8"?><svg id="Lager_1" xmlns="http://www.w3.org/2000/svg" width="20.2847mm" height="20.2847mm" viewBox="0 0 57.5 57.5"><defs><style>.cls-1{fill:none;}</style></defs><path d="M11.007,10.2777c.3555-.3438,.7354-.5322,1.1387-.5645s.7393,.0908,1.0088,.3682c.1719,.1777,.2773,.3799,.3145,.6055,.0381,.2256,.0059,.4648-.0947,.7168l.0322,.0332c.3301-.2012,.6572-.2842,.9834-.25s.6064,.1729,.8418,.415c.208,.2148,.3389,.46,.3936,.7363,.0537,.2764,.0244,.5518-.0889,.8262-.1123,.2744-.3008,.54-.5664,.7969l-1.624,1.5742-3.7607-3.8789,1.4219-1.3789Zm1.3613,1.8047c.1982-.1914,.3086-.3906,.332-.5967,.0234-.2051-.0469-.3926-.21-.5605-.1455-.1504-.3135-.2178-.5039-.2041-.1914,.0146-.3721,.1055-.5449,.2725l-.5381,.5215,.9932,1.0254,.4717-.458Zm1.8066,1.5137c.2529-.2461,.3984-.4795,.4355-.7002,.0371-.2217-.0332-.4238-.2129-.6094-.1602-.165-.3506-.2324-.5713-.2031-.2217,.0293-.4404,.1494-.6562,.3594l-.7061,.6836,1.0635,1.0967,.6475-.627Z"/><path d="M17.3401,5.7279c.5-.249,1.002-.3701,1.5059-.3633,.5029,.0068,.9707,.1455,1.4023,.416,.4307,.2705,.7627,.6377,.9932,1.1016,.2256,.4521,.3193,.9297,.2793,1.4316-.0391,.502-.208,.9609-.5068,1.376s-.7021,.749-1.209,1.002c-.501,.25-1.0107,.3682-1.5283,.3555s-.9854-.1523-1.4033-.418c-.417-.2656-.7402-.6279-.9688-1.0879-.2217-.4424-.3145-.916-.2803-1.4199s.1982-.9639,.4922-1.3799,.7021-.7539,1.2236-1.0137Zm-.4707,3.333c.1602,.3203,.377,.5723,.6494,.7568,.2734,.1836,.5752,.2812,.9043,.292,.3301,.0117,.6592-.0645,.9863-.2275,.4961-.2471,.8262-.6064,.9912-1.0771,.1641-.4707,.124-.9521-.1211-1.4434-.1602-.3213-.376-.5742-.6484-.7598s-.5752-.2832-.9072-.293c-.332-.0107-.6611,.0664-.9893,.2295s-.5869,.3809-.7783,.6533-.2939,.5713-.3076,.8965,.0605,.6494,.2207,.9727Z"/><path d="M25.5061,3.3275c.5586-.0664,1.0684-.0117,1.5312,.165,.4619,.1758,.8379,.4561,1.1279,.8389,.2891,.3838,.4648,.833,.5264,1.3477,.0625,.5254-.0039,1.0049-.1973,1.4395s-.5,.7891-.9189,1.0654c-.4189,.2754-.917,.4473-1.4932,.5156l-2.1846,.2598-.6377-5.3652,2.2461-.2666Zm.4346,4.5674c.5732-.0684,1.0127-.2949,1.3184-.6807,.3066-.3857,.4268-.8574,.3604-1.415-.0693-.5791-.2979-1.0156-.6875-1.3096-.3896-.293-.8799-.4053-1.4717-.335l-1.0674,.127,.4453,3.7441,1.1025-.1309Z"/><path d="M33.3625,3.5394c.4873,.0869,.8613,.2852,1.124,.5938,.2617,.3086,.3584,.6533,.29,1.0342-.043,.2432-.1455,.4463-.3066,.6094-.1611,.1621-.374,.2764-.6367,.3418l-.0078,.0459c.3555,.1494,.6143,.3672,.7773,.6514,.1621,.2842,.2139,.5928,.1543,.9248-.0518,.2949-.1748,.5449-.3672,.75s-.4326,.3428-.7217,.4111c-.2891,.0693-.6143,.0713-.9775,.0068l-2.2275-.3984,.9502-5.3184,1.9492,.3477Zm-.8408,4.5098c.3477,.0615,.6221,.0439,.8232-.0557,.2012-.0986,.3242-.2754,.3701-.5293,.04-.2256-.0166-.4199-.1699-.582-.1523-.1621-.3779-.2695-.6748-.3223l-.9668-.1729-.2686,1.5039,.8867,.1582Zm.1729-2.3506c.2715,.0488,.4971,.0225,.6777-.0791s.291-.2676,.332-.498c.0371-.2061-.0059-.3818-.1289-.5283s-.3027-.2402-.5391-.2822l-.7383-.1328-.251,1.4053,.6475,.1152Z"/><path d="M38.3772,4.9633l.4199,2.1895,1.9629-1.0762,1.124,.5254-3.0039,1.6055-1.1328,2.4248-.9463-.4414,1.1367-2.4326-.71-3.332,1.1494,.5371Z"/><path d="M44.8654,8.7699l-.1963,4.9482,2.5566-2.7715,.75,.6924-3.6631,3.9717-.6592-.6084,.2246-5.0068-2.5986,2.8174-.751-.6924,3.6631-3.9717,.6738,.6211Z"/><path d="M5.7116,25.8751c.0692,.012,.1368,.018,.2029,.018,.2158,0,.4152-.064,.5987-.192,.2397-.1683,.3858-.4003,.4381-.6973,.0502-.2928-.0098-.5588-.1818-.7996-.1711-.2397-.4013-.3857-.6913-.436-.068-.0118-.1345-.0176-.1995-.0176-.217,0-.4174,.0656-.6011,.1966-.2388,.1702-.384,.4003-.4341,.6904-.0513,.2968,.0078,.5648,.1769,.8035,.1693,.2388,.3994,.3839,.6913,.4341Z"/><polygon points="8.9247 34.1726 5.2349 33.3749 8.3483 31.2113 8.1376 30.1294 3.2373 33.5943 3.306 33.951 9.1345 35.2467 8.9247 34.1726"/><path d="M11.6552,37.3362c-.0617-.0225-.1223-.0337-.182-.0337-.0713,0-.1412,.0161-.2097,.0482-.1314,.061-.2194,.1596-.2659,.2948-.0464,.1354-.0406,.265,.0175,.3887,.059,.1267,.1556,.2137,.291,.2631,.0617,.0225,.1224,.0336,.1821,.0336,.0714,0,.1416-.016,.2106-.0482,.1237-.057,.2098-.1556,.259-.2938,.0494-.1384,.0456-.2679-.0106-.3897-.059-.1256-.1567-.2137-.292-.263Z"/><path d="M9.9128,36.8547l-5.8381,.2668,.4632,.9921,1.4127-.0832,1.0162,2.1766-.9543,1.0645,.4661,.9979,3.8859-4.4477-.4515-.967Zm-2.3718,2.7083l-.7377-1.5809,2.2895-.1509-1.5518,1.7318Z"/><path d="M10.5055,36.5696c.0626,.0209,.1233,.0314,.1819,.0314,.0709,0,.1388-.0153,.204-.0461,.1237-.0571,.2108-.1545,.261-.2919,.0492-.1373,.0454-.2688-.0135-.3946-.058-.1237-.1556-.2126-.293-.2649-.064-.025-.127-.0374-.1888-.0374-.0699,0-.1385,.0158-.2056,.047-.1287,.06-.2156,.1586-.2621,.2969-.0464,.1382-.0406,.2698,.0175,.3936,.0609,.1305,.1605,.2195,.2987,.266Z"/><path d="M13.5106,43.0186c-.1005-.5443-.316-1.0219-.6458-1.4318-.348-.4313-.733-.6943-1.1544-.7881-.105-.0236-.2078-.0353-.3087-.0353-.304,0-.5886,.1071-.8537,.3206-.265,.2137-.4321,.4835-.5009,.8083-.0696,.3258-.0454,.7146,.0706,1.1671,.09,.3877,.1586,.7088,.2041,.963,.0493,.3114-.0242,.5455-.2185,.703-.0981,.0783-.2059,.1176-.3235,.1176-.0538,0-.1097-.0082-.1677-.0247-.1856-.0533-.3578-.179-.5182-.3781-.3201-.3974-.4747-.9718-.4631-1.722-.2672,.2149-.5344,.4299-.8016,.6449,.0494,.3577,.1228,.6565,.2194,.8983,.0969,.2416,.2534,.4969,.471,.7657,.3327,.414,.7145,.6614,1.1458,.7426,.0945,.0178,.1874,.0266,.2785,.0266,.3255,0,.629-.1135,.9108-.3408,.2794-.2253,.4573-.4941,.5327-.8064,.0764-.3123,.0561-.7078-.0589-1.1835-.1401-.553-.2147-.8751-.2234-.9679-.0386-.3229,.0213-.5483,.1808-.6759,.0894-.0723,.1874-.1082,.2946-.1082,.0518,0,.1058,.0085,.1619,.0252,.1731,.0513,.3414,.1798,.5067,.3847,.2717,.3375,.4515,.8297,.5386,1.4775,.241-.1941,.4819-.388,.7231-.5822Z"/><polygon points="17.9623 46.3448 14.1334 43.3173 13.6276 43.9576 15.1322 45.1479 12.2876 48.7456 13.1065 49.3934 15.9512 45.7946 17.4556 46.9849 17.9623 46.3448"/><polygon points="21.3985 48.8374 21.7438 48.0978 18.5791 46.6203 16.2934 51.5167 19.5075 53.0163 19.8524 52.2777 17.5851 51.2189 18.2349 49.8276 20.3582 50.8187 20.7034 50.079 18.58 49.0879 19.1805 47.8019 21.3985 48.8374"/><path d="M24.6116,48.8219c-.6353-.1299-1.2705-.2598-1.9058-.3896-.361,1.7645-.722,3.5291-1.0829,5.2937,.3409,.0695,.6819,.1393,1.0229,.2089l.4574-2.2354,.3712,.0763c.1645,.0329,.3008,.1044,.411,.2118,.1093,.1083,.2118,.2737,.3085,.4979,.0966,.2233,.233,.6469,.4108,1.2706,.0823,.2823,.1499,.4892,.2042,.6215,.3803,.0778,.7606,.1555,1.1409,.2332-.1073-.2748-.2562-.7649-.4486-1.4736-.118-.411-.2272-.7078-.3268-.8916-.0995-.1838-.2244-.3383-.3751-.4631,.3326-.0667,.5994-.1954,.8006-.3878,.201-.1915,.3315-.438,.3934-.7387,.0909-.4418,.0068-.8325-.2495-1.172-.2571-.3393-.6342-.5598-1.1321-.6622Zm.3211,1.637c-.0485,.233-.1616,.4002-.3424,.5027-.1171,.0667-.2532,.1003-.4079,.1003-.0827,0-.1708-.0096-.2641-.0288-.2172-.0445-.4344-.0889-.6517-.1334,.1005-.4912,.2011-.9824,.3017-1.4736,.2124,.0432,.4247,.0864,.6372,.1296,.2803,.058,.4834,.1624,.611,.3132,.1267,.1509,.1653,.3471,.1161,.5898Z"/><path d="M30.6025,51.6908l-.001-.0464c.2428-.1199,.4265-.2755,.5491-.4689,.1238-.1924,.1808-.4128,.1721-.6603-.0144-.3859-.1816-.7029-.5037-.9486-.2987-.2295-.673-.3443-1.1219-.3443-.0333,0-.067,.0007-.1012,.002-.6599,.0239-1.3196,.0477-1.9794,.0715,.0658,1.8,.1315,3.6002,.1974,5.4001,.7535-.0277,1.507-.0554,2.2606-.0832,.3684-.0135,.6864-.0842,.9543-.2128,.2678-.1285,.4738-.3131,.6178-.5549,.145-.2407,.2117-.5116,.201-.8103-.0125-.3374-.1285-.6274-.347-.8712-.2196-.2437-.5183-.4012-.8983-.4728Zm-1.9125-1.6177c.2501-.009,.5002-.0181,.7504-.0272l.049-.0008c.2167,0,.3965,.0546,.537,.1635,.1518,.1169,.2311,.2794,.2387,.4882,.0087,.2348-.0646,.4206-.2194,.5579-.1557,.1374-.3704,.2108-.6469,.2214-.2189,.0077-.4377,.0156-.6565,.0233-.0175-.4755-.0349-.9508-.0523-1.4263Zm1.8314,3.5079c-.176,.1393-.4399,.2147-.7928,.2282l-.9012,.0329c-.0184-.5089-.0367-1.0178-.0551-1.5267,.3271-.0118,.6543-.0239,.9814-.0357,.0253-.001,.05-.0015,.0745-.0015,.2673,0,.4853,.0584,.6536,.1735,.1838,.1267,.2805,.3045,.2881,.5337,.0097,.2573-.0734,.4564-.2484,.5956Z"/><path d="M37.9615,48.6431c-.3877-.3307-.8295-.5366-1.3267-.6169-.1571-.0253-.316-.038-.4767-.038-.3474,0-.7028,.0593-1.0663,.1783-.554,.1807-1.0065,.4554-1.3585,.8237-.3521,.3683-.5811,.7986-.6885,1.2927-.1074,.4932-.0842,.9747,.0687,1.4456,.1594,.4882,.4263,.8934,.8005,1.2183,.3742,.3239,.817,.5298,1.3266,.6179,.1726,.0301,.3464,.0452,.5213,.0452,.3428,0,.6902-.0576,1.0422-.1729,.5395-.1759,.9872-.4475,1.343-.815,.3568-.3663,.5908-.7957,.703-1.287,.1121-.4911,.0899-.9765-.0667-1.457-.1605-.4921-.4351-.9041-.822-1.2347Zm-.2919,3.0138c-.2311,.4418-.6101,.7493-1.1371,.9215-.228,.074-.451,.1112-.6689,.1112-.1149,0-.2285-.0103-.3405-.0309-.325-.0591-.6082-.1992-.8518-.4216-.2427-.2214-.4206-.5029-.5318-.8431-.1113-.3432-.1373-.6749-.0764-.994,.062-.3201,.207-.6005,.4351-.8422,.2292-.2417,.5183-.4196,.8664-.5328,.2291-.0751,.4535-.1125,.6734-.1125,.1143,0,.2272,.0101,.3391,.0303,.3267,.0589,.6119,.1992,.8536,.4225,.2427,.2234,.4197,.5057,.5309,.8461,.1701,.5222,.1401,1.0046-.0919,1.4456Z"/><polygon points="42.6868 45.0502 42.2294 44.3743 38.185 47.1058 38.6422 47.7826 40.2318 46.7084 42.799 50.5092 43.6643 49.9252 41.0972 46.1243 42.6868 45.0502"/><polygon points="46.3842 40.9543 45.7711 40.4167 42.5533 44.087 43.1674 44.6247 44.432 43.1821 47.8809 46.2065 48.5694 45.4213 45.1205 42.397 46.3842 40.9543"/><polygon points="50.6124 41.0549 49.2568 40.3346 50.3571 38.2654 49.6369 37.8815 48.5365 39.9517 47.2833 39.2855 48.432 37.1235 47.7117 36.7406 46.0729 39.8241 50.8435 42.3602 52.5075 39.2284 51.7871 38.8456 50.6124 41.0549"/><polygon points="49.0809 31.7654 52.758 32.6003 48.3712 34.8968 48.168 35.7911 53.4376 36.9853 53.663 35.9894 49.926 35.1424 54.3775 32.8401 54.5758 31.9646 49.3071 30.7696 49.0809 31.7654"/><path d="M51.64,23.8699c-.064,0-.1293,.0057-.196,.0172-.295,.0494-.5271,.1943-.6971,.4323-.1701,.2378-.2301,.5057-.1788,.8035,.0492,.2919,.1953,.523,.437,.6922,.1872,.1311,.3889,.1965,.605,.1965,.0629,0,.1273-.0055,.1927-.0166,.2949-.0502,.5269-.1953,.6952-.436,.1683-.2399,.2272-.5057,.1779-.7949-.0502-.2979-.1953-.5309-.4341-.699-.1849-.1298-.3855-.1953-.6016-.1953Z"/><path d="M28.7489,46.9916c10.0751,0,18.2434-8.1674,18.2434-18.2424S38.824,10.5062,28.7489,10.5062,10.5065,18.6741,10.5065,28.7492s8.1674,18.2424,18.2424,18.2424Zm-16.2919-11.3591c-.452-1.0685-.7976-2.1821-1.0301-3.3187-.2398-1.1719-.3592-2.3684-.3592-3.5647s.1194-2.3928,.3592-3.5647c.2325-1.1367,.5781-2.2502,1.0301-3.3188,.4444-1.0505,.9915-2.0576,1.6301-3.0026,.6342-.9385,1.3586-1.8159,2.1594-2.6167,.8009-.8009,1.6782-1.5252,2.6165-2.1594,.9451-.6387,1.9521-1.1859,3.0026-1.6302,1.0685-.4521,2.1821-.7978,3.3188-1.0302,1.1719-.2397,2.3683-.3593,3.5646-.3593s2.3927,.1195,3.5647,.3593c1.1366,.2324,2.2503,.5782,3.3188,1.0302,1.0506,.4443,2.0576,.9915,3.0026,1.6302,.9384,.6342,1.8159,1.3585,2.6168,2.1594,.8009,.8009,1.5253,1.6782,2.1595,2.6167,.6387,.945,1.1858,1.9521,1.6303,3.0027,.452,1.0685,.7977,2.182,1.0303,3.3187,.2397,1.1719,.359,2.3684,.359,3.5647s-.1193,2.3928-.359,3.5647c-.2326,1.1366-.5782,2.2502-1.0303,3.3187-.4445,1.0505-.9916,2.0574-1.6303,3.0025-.6342,.9385-1.3586,1.8158-2.1595,2.6166-.801,.8009-1.6783,1.5252-2.6167,2.1593-.9451,.6387-1.9521,1.1859-3.0027,1.6302-1.0685,.452-2.1823,.7976-3.3188,1.0301-1.172,.2398-2.3684,.3593-3.5648,.3593s-2.3928-.1194-3.5646-.3593c-1.1367-.2325-2.2502-.5781-3.3188-1.0301-1.0506-.4443-2.0575-.9915-3.0026-1.6302-.9383-.6341-1.8156-1.3584-2.6165-2.1592-.8008-.8009-1.5252-1.6782-2.1594-2.6166-.6385-.9452-1.1857-1.9521-1.6301-3.0026Z"/><path d="M17.4514,2.758c-.1616,.0706-.3214,.1445-.4814,.218-.3807,.1747-.7567,.3577-1.1281,.5486-.1409,.0724-.2833,.1422-.4227,.2169-.4857,.2599-.9641,.5319-1.4324,.8188-.1027,.0629-.202,.1308-.3038,.1949-.3764,.2372-.7469,.4827-1.1111,.7368-.1453,.1014-.2897,.204-.433,.3081-.3595,.2609-.7123,.5302-1.0588,.8073-.0931,.0745-.189,.1454-.2811,.2211-.4236,.3475-.8358,.7085-1.2385,1.0796-.1137,.1048-.2237,.2135-.3357,.3201-.3023,.2877-.5984,.5818-.8879,.8826-.1183,.123-.2372,.2455-.3534,.3706-.3639,.3919-.72,.7912-1.0615,1.2032l-.0735,.0891c-.3394,.4128-.664,.838-.9801,1.2698-.1017,.139-.2004,.2803-.2997,.4211-.2402,.3409-.4728,.6874-.6981,1.0391-.0845,.1319-.1714,.2621-.2537,.3955-.2889,.4678-.5662,.9435-.8282,1.4287-.057,.1056-.1088,.2143-.1645,.3207-.2072,.3959-.4055,.7971-.5943,1.2036-.0754,.1622-.1492,.3253-.2215,.4892-.181,.41-.3522,.8252-.5141,1.2451-.0442,.1146-.0925,.2271-.1352,.3424-.1932,.5215-.3695,1.051-.5323,1.5862-.0469,.1542-.0883,.3108-.1327,.4661-.1166,.4086-.2245,.8209-.3229,1.2367-.0413,.1744-.0833,.3486-.1213,.5242-.1158,.5344-.2203,1.0729-.3054,1.6179-.2233,1.4308-.3411,2.8962-.3411,4.3887,0,15.6302,12.7155,28.3467,28.3462,28.3467l.0202-.0005c.6667-.0005,1.3261-.032,1.9814-.078,.1574-.011,.3148-.0223,.4715-.036,.6484-.0563,1.2921-.1293,1.9274-.2288,.0803-.0126,.1592-.0296,.2393-.0428,.5797-.0959,1.1527-.2116,1.7201-.3423,.1382-.0318,.277-.062,.4144-.0959,.6164-.1519,1.2257-.3218,1.8256-.5134,.1064-.0339,.2108-.0722,.3166-.1074,.5384-.179,1.0696-.3736,1.5932-.5836,.1047-.0419,.2108-.0812,.3148-.1243,.5829-.2419,1.1555-.5035,1.7181-.7825,.109-.054,.2162-.111,.3244-.1664,.5256-.2692,1.0433-.5518,1.5494-.8522,.0526-.0312,.1066-.06,.1589-.0915,.5473-.3297,1.0804-.6804,1.6029-1.0452,.0967-.0675,.1923-.1364,.2882-.2051,1.051-.7533,2.0488-1.5756,2.986-2.462,.076-.0719,.152-.144,.2272-.2167,.9413-.9101,1.8198-1.8843,2.6287-2.9162,.0519-.0663,.1047-.1318,.1561-.1985,.4026-.5231,.7894-1.0591,1.1555-1.6102,.0202-.0304,.0391-.0617,.0591-.0922,.355-.5387,.6911-1.0908,1.0095-1.6542,.0274-.0485,.0562-.096,.0833-.1447,.3248-.5827,.6292-1.1783,.9131-1.7852,.0269-.0576,.0521-.116,.0787-.1738,.2765-.6014,.5351-1.2126,.7698-1.8356,.0067-.0179,.0144-.0354,.0211-.0533,.0562-.1506,.1099-.3023,.1635-.4541l.0193-.057c.2574-.7301,.4869-1.4733,.6852-2.2289,.1866-.7111,.3401-1.4352,.4717-2.1667,.017-.095,.035-.1898,.0511-.2852,.1184-.6998,.2104-1.4084,.2762-2.1246,.0112-.1235,.0187-.2482,.0284-.3722,.0566-.7197,.093-1.4449,.0941-2.1788l.001-.0409c0-.5279-.0172-1.0517-.0458-1.5726-.0278-.5067-.0704-1.0095-.1247-1.5089-.0205-.1887-.0476-.3753-.0718-.5629-.0459-.3563-.0968-.7109-.1559-1.0629-.0341-.2028-.0703-.4049-.1086-.6063-.0666-.3496-.1411-.6963-.2204-1.0413-.0416-.1808-.0804-.3629-.1255-.5424-.1188-.4737-.2485-.9431-.3909-1.4071-.0157-.0512-.03-.103-.046-.1541-.2169-.6913-.4653-1.3682-.7325-2.0355l-.0144-.0364c-.5056-1.2587-1.0985-2.472-1.7722-3.6344l-.027-.0469c-.1697-.2914-.3437-.5798-.5232-.8644l-.0309-.0481c-.3194-.5042-.6535-.998-1.0032-1.48l-.0372-.0522c-.1227-.1685-.2465-.3362-.3727-.5018-.0151-.0197-.0309-.0388-.046-.0585-.2967-.3868-.6038-.7651-.9196-1.1359-.0478-.0561-.0965-.1113-.1447-.167-.2899-.3352-.5876-.6635-.8927-.9846-.0572-.0602-.1142-.1205-.1719-.1802-.3162-.3271-.6401-.6465-.9715-.9582-.0422-.0397-.0833-.0804-.1257-.1199-1.1373-1.0568-2.3615-2.0209-3.66-2.8817-.0809-.0536-.1638-.1046-.2454-.1574-.3409-.221-.6865-.4354-1.0372-.6419-.1174-.0691-.2357-.1365-.3542-.2039-.324-.1846-.6524-.3624-.9842-.5345-.1312-.0679-.2621-.1363-.3944-.2023-.3405-.1698-.6859-.331-1.0339-.4873-.1198-.0537-.238-.1103-.3586-.1624-.4379-.1893-.8812-.3683-1.3301-.5358-.0302-.0112-.0594-.0243-.0897-.0355-.4822-.1781-.9714-.3418-1.4655-.4939-.1302-.04-.2631-.0739-.394-.1121-.3573-.1043-.7164-.2044-1.0793-.2949-.1837-.0457-.3696-.0862-.5547-.1284-.3168-.0721-.6351-.1403-.9558-.2017-.2031-.0388-.407-.0751-.6116-.1095-.3121-.0526-.6262-.0989-.9415-.1412-.2073-.0278-.4144-.0563-.6232-.0795-.3329-.0372-.6686-.0648-1.005-.0901-.1907-.0144-.3802-.033-.5719-.0436-.4694-.0259-.9421-.0395-1.4173-.0422-.0545-.0003-.1082-.0042-.1628-.0042-.0286,0-.0568,.0021-.0854,.0021-.5554,.0017-1.1061,.0226-1.6533,.0563-.1602,.0098-.3191,.0241-.4785,.0365-.4584,.0361-.9141,.0815-1.366,.1395-.1182,.015-.2369,.0287-.3547,.0452-1.1924,.1682-2.3625,.4074-3.5035,.7183l-.0427,.0121c-.752,.2059-1.4939,.4366-2.2197,.7017-.0352,.0129-.0698,.0266-.1049,.0396-.5039,.1865-.9993,.3903-1.4893,.6042Zm16.8903-1.2291c.5325,.1093,1.058,.2372,1.5789,.3766,.1349,.0361,.2671,.0782,.4011,.1162,.0384,.0109,.0767,.0223,.115,.0333,.1345,.0388,.2693,.0759,.4029,.1167,.2249,.0686,.4484,.1402,.6709,.2144,.1713,.0571,.3409,.1172,.5107,.1776,.257,.0912,.5132,.1833,.7667,.2819,.1143,.0445,.2268,.0919,.3405,.1378,.1513,.0612,.3027,.1217,.4526,.1854,.4003,.1702,.7949,.3508,1.1854,.5389,.0922,.0444,.187,.0839,.2785,.1293l.0723,.0354c.4726,.236,.937,.486,1.3939,.7476,.0992,.0568,.195,.1187,.2935,.1767,.0438,.0258,.087,.0526,.1306,.0787,.1249,.0745,.2497,.1484,.3734,.2248,.1962,.1213,.3914,.2438,.5843,.3698,.1484,.0969,.294,.1972,.4404,.2968,.2211,.1505,.4423,.3004,.6588,.457,.0915,.0662,.1804,.1353,.271,.2026,.1393,.1034,.2781,.2069,.4155,.3127,.3142,.2422,.6216,.4924,.925,.7476,.0935,.0786,.191,.1523,.2835,.2322,.0284,.0246,.0562,.0499,.0846,.0745,.3943,.3434,.7795,.6968,1.1539,1.0615,.0543,.0529,.1052,.1091,.1591,.1624,.0562,.0555,.1101,.1132,.1658,.1693,.1068,.1075,.2128,.2153,.3179,.3246,.1595,.1659,.3187,.3318,.4741,.5016,.1179,.1289,.2317,.2613,.3472,.3924,.1767,.2005,.3545,.3998,.5255,.6053,.0672,.0809,.1306,.1645,.1969,.2461,.1166,.1435,.2319,.2878,.3458,.4336,.2305,.2953,.4535,.5962,.6721,.9009,.0776,.1082,.1606,.2121,.2368,.3215,.0278,.04,.0537,.0814,.0814,.1215,.297,.4315,.5849,.8696,.8577,1.3181,.08,.1315,.154,.2669,.2306,.4006,.078,.1331,.1533,.2674,.2291,.4019,.0848,.1472,.1712,.2932,.252,.4427,.1989,.3685,.3815,.7466,.564,1.1248,.0588,.1219,.1246,.2396,.1818,.3625,.2827,.6083,.5369,1.232,.7758,1.8631,.0808,.2136,.1552,.4297,.2308,.6458,.1718,.4902,.3293,.9864,.4739,1.4885,.0555,.1927,.1158,.3829,.1671,.5773,.1769,.6688,.3301,1.3468,.4572,2.0342,.0319,.1726,.0542,.3482,.0828,.5219,.0917,.555,.1667,1.1151,.2248,1.6805,.0222,.2159,.0444,.4311,.0615,.6484,.0562,.7095,.0938,1.4241,.0953,2.1475,0,.0192,.0025,.0378,.0025,.0571,0,.5532-.0209,1.1014-.0529,1.6467-.0089,.151-.0231,.3004-.0344,.4507-.0297,.3958-.0665,.7894-.1127,1.1804-.0202,.1708-.0418,.341-.0651,.5109-.0534,.3898-.1159,.7765-.1854,1.1609-.0261,.1441-.0491,.289-.0774,.4323-.2062,1.0465-.4712,2.0717-.7917,3.0728-.0439,.1372-.0925,.2722-.1385,.4084-.1229,.3641-.252,.7251-.3895,1.0823-.0593,.1541-.1198,.3075-.1818,.4603-.1437,.3542-.2952,.7042-.4529,1.051-.0589,.1295-.1152,.2603-.176,.3887-.4446,.9395-.9402,1.8499-1.4836,2.7283-.0736,.119-.151,.2349-.2263,.3527-.2043,.3195-.414,.6349-.6309,.9453-.0929,.1329-.1868,.2649-.2819,.3962-.2219,.3062-.4506,.6069-.6846,.9035-.0864,.1096-.1706,.2207-.2586,.329-.649,.7982-1.3413,1.5594-2.0734,2.2809-.0999,.0984-.2029,.1932-.3043,.2902-.2723,.2604-.5491,.5159-.8318,.7653-.1214,.1071-.2435,.213-.3668,.3179-.2878,.2451-.5812,.4834-.879,.7168-.0767,.0601-.1491,.1254-.2265,.1848-.033,.0253-.0682,.0479-.1013,.073-.8881,.675-1.8193,1.295-2.7862,1.8611-.1172,.0686-.2346,.1362-.3528,.2031-1.0499,.5942-2.1414,1.1216-3.2702,1.5775-.1288,.0521-.2579,.103-.3876,.1531-1.1351,.4386-2.3055,.8041-3.5065,1.092-.1391,.0333-.2783,.0655-.4181,.0967-1.2061,.2693-2.441,.4595-3.7001,.5658-.1479,.0125-.2959,.0237-.4445,.0339-.6326,.0433-1.2687,.0732-1.912,.0732-.5939,0-1.1818-.0251-1.7666-.0621-.1588-.01-.3163-.0235-.4743-.0362-.4582-.0368-.9131-.0846-1.3648-.1434-.136-.0177-.2728-.0323-.4082-.0521-.5687-.0826-1.1322-.1806-1.6892-.2973-.0947-.0198-.1874-.0444-.2818-.0652-.468-.1031-.9313-.2185-1.3902-.345-.1523-.042-.3039-.0851-.4551-.1296-.463-.1362-.9211-.2833-1.3737-.4427-.0809-.0284-.1631-.0533-.2437-.0826-.5283-.1916-1.0479-.4006-1.5609-.6229-.1209-.0524-.2394-.1088-.3594-.1628-.4047-.1823-.804-.3737-1.1982-.5744-.1295-.066-.2594-.1309-.3878-.1989-.9869-.5225-1.938-1.1024-2.8503-1.7357-.1163-.0807-.2307-.1636-.3456-.246-.3667-.2629-.7265-.5343-1.0797-.8143-.0905-.0718-.1828-.1412-.2724-.2141-.4329-.3521-.8558-.7157-1.2665-1.0927-.0591-.0543-.1156-.1113-.1743-.1661-.3511-.3278-.6929-.6652-1.0267-1.0106-.0958-.0991-.1909-.1985-.2852-.299-.3453-.3681-.6822-.744-1.0074-1.1304-.0333-.0395-.0683-.0773-.1013-.1169-.3605-.4333-.706-.8792-1.0401-1.334-.0671-.0915-.1313-.1851-.1974-.2774-.269-.3757-.5286-.7582-.7791-1.1475-.0677-.1053-.1364-.2098-.2028-.316-.5735-.9185-1.0955-1.8718-1.5605-2.8577-.0546-.1158-.1055-.2336-.1586-.3503-.1641-.3607-.3212-.725-.47-1.0937-.0564-.1397-.1119-.2797-.1661-.4205-.1445-.3754-.28-.7548-.4084-1.1378-.0399-.1188-.0823-.2364-.1207-.356-.3218-1.005-.5873-2.0344-.7939-3.0852-.0275-.14-.0502-.2816-.0756-.4222-.0699-.3871-.1326-.7766-.1862-1.1691-.0228-.1669-.0441-.334-.0639-.5018-.0463-.392-.083-.7867-.1127-1.1835-.0112-.1496-.0253-.2982-.0342-.4485-.0319-.5443-.0527-1.0914-.0527-1.6435,0-.6548,.0298-1.3025,.0747-1.9461,.0127-.1828,.0319-.3635,.0481-.5454,.0421-.4696,.095-.9358,.1603-1.3984,.0274-.1946,.0544-.389,.0858-.5823,.0829-.5092,.1802-1.0133,.2905-1.5128,.0256-.1161,.0454-.2341,.0725-.3497,.1406-.5997,.3024-1.1909,.4813-1.775,.0145-.0472,.0242-.0964,.0389-.1436,.0383-.123,.0886-.2405,.1287-.3629,.1439-.4393,.2972-.874,.4622-1.3033,.047-.1225,.0861-.2487,.1348-.3702,.0396-.099,.0864-.1941,.1271-.2925,.1758-.4244,.3637-.8423,.5597-1.2559,.0637-.1343,.1207-.2722,.1865-.4053,.0609-.1236,.1283-.243,.191-.3655,.2144-.4184,.4366-.8319,.6713-1.2378,.0502-.0869,.0986-.1748,.1498-.2611,.0993-.1677,.2061-.33,.3088-.4954,.1804-.2903,.3664-.5762,.5571-.8593,.0932-.1382,.1819-.2794,.2775-.4158,.0808-.1156,.1611-.2311,.2437-.3453,.2512-.3475,.5142-.6856,.7807-1.0209,.0598-.0751,.1149-.1537,.1754-.2281,.0314-.0387,.0646-.0757,.0963-.1143,.1739-.2121,.356-.4163,.5361-.623,.1891-.217,.3783-.4336,.5739-.6446,.0837-.0903,.1672-.1802,.252-.2693,.1647-.1732,.3307-.3444,.4998-.5133,.2001-.1998,.4071-.3923,.6132-.5861,.1304-.1226,.2592-.2466,.392-.3667,.2692-.2436,.5452-.4783,.8237-.7113,.2025-.1694,.4005-.344,.6078-.5077,.0571-.0451,.1194-.0838,.1769-.1285,.4219-.3278,.8564-.6383,1.297-.9418,.1741-.12,.3449-.2435,.5218-.3596,.4451-.2919,.9025-.5646,1.3647-.8311,.1884-.1088,.3731-.2227,.5643-.3271,.459-.2505,.9299-.48,1.4041-.7049,.2086-.0991,.413-.2049,.6244-.2989,.4644-.2062,.9401-.3894,1.4174-.5704,.2336-.0887,.4625-.186,.699-.2686,.4651-.162,.941-.2991,1.417-.4366,.2589-.075,.5128-.1606,.7747-.2283,.4664-.1201,.9429-.2128,1.4185-.3089,.2805-.0568,.556-.1266,.8394-.1749,.4824-.082,.9742-.1334,1.4647-.1899,.2838-.0328,.5627-.0812,.849-.1054,.6186-.0521,1.2463-.07,1.8757-.0807,.1597-.0027,.3157-.0205,.476-.0205,.5745,0,1.1435,.0232,1.7095,.0577,.1509,.0092,.3005,.0228,.4508,.0344,.4259,.033,.849,.0751,1.2693,.1272,.1558,.0193,.3116,.0376,.4666,.0594,.5027,.0709,1.0016,.1533,1.4953,.2507,.0464,.0092,.0936,.0157,.14,.0251,.0203,.0041,.0411,.0068,.0613,.011Z"/><path d="M50.1149,11.0104c-.171-.2056-.3488-.4048-.5255-.6053,.106,.1203,.2073,.2448,.3113,.3669,.0693,.0814,.1458,.1563,.2142,.2385Z"/><g><polygon class="cls-1" points="40.2115 23.556 40.2682 23.3715 40.203 23.5531 40.2115 23.556"/><polygon class="cls-1" points="18.7938 23.7742 19.3107 23.6455 18.7916 23.7674 18.7938 23.7742"/><polygon points="14.0128 24.3748 28.7705 14.2303 28.7774 14.2361 43.505 24.5099 43.6713 24.3332 28.763 13.9289 13.8777 24.1981 14.0128 24.3748"/><polygon points="14.4823 25.2582 28.7767 15.1566 42.8691 25.2757 43.3799 24.738 28.7913 14.6045 14.097 24.6967 14.4823 25.2582"/><polygon points="39.7207 34.1919 39.7572 33.5693 32.417 33.5693 32.3929 33.6676 25.1631 33.6468 25.1576 33.5693 17.766 33.5693 17.8042 34.2074 16.7676 34.2074 16.7676 34.1939 16.7302 33.5693 16.3322 33.5693 16.4634 35.0576 16.811 35.0576 16.7736 34.3086 17.8095 34.3086 17.8095 34.3221 17.8477 35.0576 39.6764 35.0576 39.7138 34.3086 40.7496 34.3086 40.7487 34.324 40.7122 35.0576 41.0598 35.0576 41.192 33.5693 40.7931 33.5693 40.7557 34.2074 39.7199 34.2074 39.7207 34.1919"/><polygon points="18.0356 22.9073 17.2194 23.5553 17.2568 24.0574 25.1576 24.0574 25.1735 23.9183 32.3668 23.9183 32.417 24.0574 40.2673 24.0574 40.3038 23.5553 39.485 22.9397 39.4858 23.4645 38.4381 23.43 38.4381 22.7929 19.086 22.7929 19.1176 23.4616 18.0493 23.43 18.0356 22.9073"/><path d="M31.6991,24.7425l.0012,8.0749,.0667,.7042,.5149-.0049-.0141-9.4952-.4643,.0052-.1043,.7158Zm-5.9055-.7008l-.4799,.0104-.015,9.4277,.579,.0104,.0855-.6677-.0721-8.0541-.0975-.7268Zm.1832,.6206l5.6284-.0183,.1148-.579-5.8097,.0352,.0665,.5621Zm5.6284,8.1663l-5.5397-.006-.0782,.6312,5.6851,.0071-.0672-.6322Z"/><polygon points="39.6225 36.1459 39.659 35.4123 17.8642 35.4123 17.9024 36.1001 16.8666 36.1614 16.8666 36.1479 16.8284 35.4123 16.4303 35.4123 16.5616 36.9006 16.9101 36.9006 16.8718 36.2635 17.9077 36.2635 17.9077 36.277 17.9459 36.9006 39.5782 36.9006 39.6156 36.328 40.6514 36.2635 40.6505 36.279 40.614 36.9006 40.9616 36.9006 41.0938 35.4123 40.6949 35.4123 40.6575 36.0943 39.6217 36.1614 39.6225 36.1459"/><polygon points="20.6433 20.9832 19.0843 22.0859 19.086 22.4382 38.4381 22.4382 38.4381 22.1021 36.8791 20.9994 36.8635 21.6743 35.8268 21.6743 35.8424 20.894 21.6808 20.894 21.6808 21.643 20.6287 21.6593 20.6433 20.9832"/><polygon points="28.2685 15.6892 26.713 16.8855 26.713 17.085 28.7873 17.0831 30.8615 17.085 30.8615 16.8855 29.3052 15.6892 29.3052 16.4072 28.2685 16.3457 28.2685 15.6892"/><polygon points="25.6645 17.5418 24.2142 18.5249 24.2261 18.8663 33.399 18.8663 33.3998 18.5523 31.8974 17.6808 31.8974 18.3046 30.831 18.3351 30.8615 17.4388 28.7873 17.4369 26.713 17.4388 26.713 18.3046 25.6763 18.3529 25.6645 17.5418"/><polygon points="23.1677 19.3294 21.6592 20.206 21.6808 20.5392 35.8424 20.5392 35.8367 20.2384 34.4348 19.3295 34.4348 19.8591 33.3944 19.8984 33.399 19.221 24.2261 19.221 24.2261 19.8591 23.1894 19.906 23.1677 19.3294"/><polygon points="28.3537 16.2646 29.2061 16.3262 29.2061 15.6344 28.7803 15.3067 28.3537 15.6344 28.3537 16.2646"/><polygon points="39.5235 37.989 39.5608 37.2554 17.9633 37.2554 18.0006 37.9512 16.9648 38.0044 16.9648 37.9909 16.9274 37.2554 16.579 37.2554 16.6573 38.2653 40.9105 38.2653 40.9947 37.2554 40.5967 37.2554 40.5584 38.0044 39.5226 38.0044 39.5235 37.989"/><polygon points="36.787 20.985 35.9345 20.3295 35.9296 21.567 36.7864 21.5788 36.787 20.985"/><polygon points="39.918 30.4499 39.9545 29.8283 32.417 29.8283 32.417 31.3166 39.8737 31.3166 39.911 30.5666 40.9469 30.5666 40.946 30.582 40.9095 31.3166 41.2571 31.3166 41.3892 29.8283 40.9903 29.8283 40.9529 30.438 39.9171 30.4654 39.918 30.4499"/><polygon points="40.1144 26.8208 40.1517 26.1422 32.417 26.1422 32.417 27.6865 40.0701 27.6865 40.1083 26.9375 41.1441 26.9375 41.1433 26.9529 41.1059 27.6865 41.4543 27.6865 41.5856 26.1422 41.1876 26.1422 41.1493 26.8363 40.1135 26.8363 40.1144 26.8208"/><polygon points="40.0162 28.7198 40.0527 27.9853 32.417 27.9853 32.417 29.4735 39.9719 29.4735 40.0092 28.9069 41.0451 28.8365 41.0442 28.8519 41.0077 29.4735 41.3562 29.4735 41.4874 27.9853 41.0885 27.9853 41.0511 28.7352 40.0153 28.7352 40.0162 28.7198"/><polygon points="39.8189 32.3489 39.8563 31.6153 32.417 31.6153 32.417 33.2146 39.7746 33.2146 39.8128 32.4656 40.8487 32.4656 40.8478 32.481 40.8104 33.2146 41.1589 33.2146 41.2902 31.6153 40.8921 31.6153 40.8539 32.3644 39.8181 32.3644 39.8189 32.3489"/><polygon points="40.2134 25.1457 40.2499 24.4111 32.417 24.4111 32.417 25.7875 40.1691 25.7875 40.2065 25.3286 41.2423 25.2581 41.205 25.7875 41.5525 25.7875 41.6847 24.5881 41.2858 24.5881 41.2484 25.1611 40.2126 25.1611 40.2134 25.1457"/><polygon points="39.3818 22.8851 38.5294 22.2296 38.5195 23.3236 39.3997 23.3236 39.3818 22.8851"/><polygon points="34.3427 19.2989 33.4902 18.6434 33.4857 19.7711 34.3427 19.7318 34.3427 19.2989"/><polygon points="31.8052 17.5448 30.9528 16.8893 30.9223 18.2078 31.8052 18.1773 31.8052 17.5448"/><polygon points="41.3092 24.3594 41.304 24.4606 41.499 24.4606 41.3651 24.3594 41.3092 24.3594"/><polygon points="40.4245 23.6043 40.3784 23.6043 40.309 25.0348 41.1624 25.0348 41.2013 24.2 40.4245 23.6043"/><polygon points="21.5887 20.3131 20.7362 20.9686 20.7199 21.533 21.5887 21.5167 21.5887 20.3131"/><polygon points="16.6146 31.3166 16.5764 30.5666 17.6122 30.5666 17.6122 30.5801 17.6504 31.3166 25.1576 31.3166 25.1576 29.8283 17.5688 29.8283 17.607 30.4654 16.5712 30.4654 16.5712 30.4519 16.5329 29.8283 16.1349 29.8283 16.2662 31.3166 16.6146 31.3166"/><polygon points="16.4174 27.6865 16.38 27.004 17.4158 26.9375 17.4158 26.951 17.4532 27.6865 25.1576 27.6865 25.1576 26.1422 17.3724 26.1422 17.4097 26.8363 16.3739 26.8363 16.3739 26.8228 16.3365 26.1422 15.9376 26.1422 16.0698 27.6865 16.4174 27.6865"/><polygon points="16.5156 29.4735 16.4782 28.8365 17.514 28.9069 17.514 28.9204 17.5514 29.4735 25.1576 29.4735 25.1576 27.9853 17.4706 27.9853 17.5088 28.7352 16.4721 28.7 16.4721 28.6865 16.4347 27.9853 16.0367 27.9853 16.168 29.4735 16.5156 29.4735"/><polygon points="16.7128 33.2146 16.6754 32.4656 17.7113 32.4656 17.7113 32.4791 17.7486 33.2146 25.1576 33.2146 25.1576 31.6153 17.6678 31.6153 17.7052 32.3233 16.6694 32.3644 16.6694 32.3509 16.632 31.6153 16.2331 31.6153 16.3652 33.2146 16.7128 33.2146"/><polygon points="16.3192 25.7875 16.2809 25.2416 17.3168 25.2902 17.355 25.7875 25.1576 25.7875 25.1576 24.4111 17.2733 24.4111 17.3115 25.1611 16.2757 25.1611 16.2757 25.1476 16.2372 24.4877 15.8002 24.4968 15.9707 25.7875 16.3192 25.7875"/><polygon points="18.9939 22.2285 18.1414 22.8841 18.1414 23.3037 19.0255 23.3353 18.9939 22.2285"/><polygon points="24.1339 18.6063 23.2815 19.3088 23.2815 19.7788 24.1339 19.7318 24.1339 18.6063"/><polygon points="26.6209 16.88 25.7684 17.5355 25.7684 18.2256 26.6209 18.1773 26.6209 16.88"/><polygon points="16.1089 24.2841 15.9701 24.3317 16.2239 24.3317 16.2227 24.2841 16.1089 24.2841"/><polygon points="17.0873 23.5686 16.3105 24.1643 16.3683 25.0763 17.2369 25.045 17.1412 23.5295 17.0873 23.5686"/><polygon points="39.9962 30.6938 39.9154 32.2381 40.7687 32.2381 40.8495 30.6938 39.9962 30.6938"/><polygon points="40.1352 28.9534 40.0175 30.3845 40.8708 30.3845 40.949 28.8908 40.1352 28.9534"/><polygon points="40.1935 27.0638 40.1126 28.608 40.966 28.608 41.0468 27.0638 40.1935 27.0638"/><polygon points="39.898 32.5928 39.8172 34.0801 40.6705 34.0801 40.7513 32.5928 39.898 32.5928"/><polygon points="40.2917 25.4558 40.2108 26.709 41.0642 26.709 41.145 25.3854 40.2917 25.4558"/><polygon points="39.7007 36.3984 39.6199 37.8781 40.4733 37.8781 40.5541 36.3339 39.7007 36.3984"/><polygon points="39.7998 34.4349 39.7181 36.0351 40.5715 35.968 40.6532 34.4349 39.7998 34.4349"/><polygon points="17.6359 32.2338 17.5264 30.6356 16.6698 30.6664 16.7165 32.2709 17.6359 32.2338"/><polygon points="17.5253 30.3605 17.4289 29.0042 16.5755 28.9338 16.6719 30.3605 17.5253 30.3605"/><polygon points="17.4115 28.6443 17.3151 27.0637 16.4764 27.1303 16.5581 28.6091 17.4115 28.6443"/><polygon points="17.7069 34.0801 17.6359 32.5448 16.7478 32.5605 16.83 34.1058 17.7069 34.0801"/><polygon points="17.3133 26.7403 17.2316 25.3871 16.3783 25.3384 16.4599 26.7403 17.3133 26.7403"/><polygon points="16.9692 36.3339 17.0517 37.9137 17.9098 37.8831 17.8225 36.3339 16.9692 36.3339"/><polygon points="16.8378 34.3953 16.9591 36.0658 17.808 36.0202 17.7298 34.3875 16.8378 34.3953"/></g></svg>