<?xml version="1.0" encoding="UTF-8"?><svg id="a" xmlns="http://www.w3.org/2000/svg" width="20.2847mm" height="20.2847mm" viewBox="0 0 57.4999 57.4999"><path d="M50.7458,24.3205c-.1696,.2379-.2296,.5057-.1788,.8035,.0498,.2921,.1953,.5231,.4376,.6923,.1871,.131,.3887,.1965,.6049,.1965,.063,0,.1274-.0056,.1928-.0167,.2948-.0502,.5264-.1953,.6946-.4361,.1682-.2397,.2277-.5056,.1782-.7947-.0507-.2978-.1952-.5308-.4345-.6992-.1846-.1296-.385-.1949-.6012-.1949-.0639,0-.1293,.0057-.196,.0172-.2949,.0493-.5275,.1943-.6976,.4321Z"/><path d="M5.7121,25.8761c.069,.012,.1365,.0181,.2026,.0181,.2156,0,.4153-.064,.5989-.1921,.2399-.1682,.3859-.4004,.4376-.6971,.0507-.293-.0096-.5588-.1813-.7996-.1714-.2398-.4017-.3858-.6912-.4362-.0681-.0118-.1346-.0177-.1996-.0177-.217,0-.4173,.0657-.601,.1967-.2393,.1701-.3838,.4003-.4342,.6903-.0516,.2969,.0073,.5647,.1766,.8035,.1692,.2388,.3998,.3838,.6918,.4341Z"/><path d="M28.7489,.4028C13.1188,.4028,.4025,13.1192,.4025,28.7487s12.7163,28.3465,28.3464,28.3465,28.3465-12.7155,28.3465-28.3465S44.379,.4028,28.7489,.4028Zm0,56.1315C13.4284,56.5343,.9643,44.0695,.9643,28.7487S13.4284,.9645,28.7489,.9645s27.7847,12.4641,27.7847,27.7842-12.464,27.7856-27.7847,27.7856Z"/><polygon points="8.9251 34.1734 5.2355 33.3757 8.3483 31.2124 8.1376 30.1305 3.2374 33.5953 3.3066 33.952 9.1344 35.2476 8.9251 34.1734"/><path d="M11.306,38.2981c.0616,.0225,.1224,.0338,.1822,.0338,.0714,0,.1417-.0161,.2103-.0482,.1238-.057,.2103-.1557,.2595-.294,.0494-.1382,.0455-.2678-.011-.3896-.059-.1256-.1562-.2137-.2915-.2629-.0616-.0225-.1221-.0337-.1819-.0337-.0714,0-.1415,.0161-.2102,.0482-.131,.0609-.2194,.1595-.2658,.2949-.0464,.1354-.0407,.2649,.0173,.3888,.059,.1265,.1556,.2137,.2911,.2629Z"/><path d="M9.9133,36.8556l-5.838,.2669,.4631,.9919,1.4122-.0831,1.016,2.1765-.9543,1.0645,.4666,.9979,3.8859-4.4476-.4515-.9669Zm-2.3723,2.7082l-.7377-1.5808,2.2894-.1508-1.5518,1.7316Z"/><path d="M11.1523,36.2638c.0498-.1373,.0453-.2688-.0135-.3945-.0581-.1238-.1552-.2128-.2926-.2649-.0642-.0251-.1274-.0375-.1894-.0375-.0698,0-.1382,.0157-.205,.0471-.1287,.0599-.216,.1585-.2625,.2969-.0464,.1382-.0406,.2697,.0175,.3935,.0608,.1306,.1604,.2195,.2987,.2658,.0629,.0211,.1237,.0316,.1824,.0316,.0709,0,.1389-.0153,.2039-.046,.1238-.0571,.2109-.1548,.2607-.292Z"/><path d="M13.511,43.0194c-.1011-.5443-.3162-1.022-.6465-1.4319-.3474-.4313-.7324-.6943-1.1538-.788-.105-.0236-.2078-.0353-.3087-.0353-.304,0-.5887,.1071-.8541,.3206-.2649,.2137-.4323,.4835-.5008,.8083-.0692,.3258-.0455,.7144,.0706,1.167,.0904,.3878,.1585,.7087,.2045,.963,.0487,.3114-.0243,.5453-.219,.7029-.098,.0783-.2057,.1174-.3235,.1174-.0538,0-.1098-.0081-.1677-.0245-.1852-.0532-.3578-.179-.5178-.3781-.3206-.3973-.4747-.9717-.4637-1.722-.267,.215-.534,.4299-.8011,.6448,.0494,.3578,.1224,.6566,.2196,.8983,.0967,.2416,.2533,.4969,.4704,.7657,.3331,.4139,.715,.6614,1.1462,.7426,.0944,.0178,.1869,.0267,.278,.0267,.3253,0,.6292-.1134,.9112-.3408,.2794-.2253,.4568-.4941,.5328-.8065,.0758-.3123,.0561-.7076-.0594-1.1834-.1403-.5531-.2148-.8751-.223-.968-.0386-.3229,.0214-.5482,.1804-.6758,.0894-.0724,.1876-.1082,.295-.1082,.0518,0,.1058,.0083,.1619,.025,.1725,.0513,.3412,.1799,.5061,.3849,.2718,.3375,.4516,.8296,.5391,1.4774l.7233-.582Z"/><polygon points="17.962 46.3454 14.1332 43.3182 13.6274 43.9582 15.1319 45.1485 12.2873 48.7461 13.1064 49.394 15.9514 45.7953 17.4558 46.9855 17.962 46.3454"/><polygon points="21.3988 48.8381 21.7439 48.0983 18.5792 46.621 16.2936 51.5173 19.5076 53.017 19.8526 52.2781 17.5852 51.2195 18.2346 49.8281 20.3584 50.8191 20.7036 50.0795 18.5798 49.0885 19.1802 47.8026 21.3988 48.8381"/><path d="M24.6116,48.8227c-.6353-.1299-1.2704-.2599-1.9057-.3898-.3611,1.7646-.7222,3.5291-1.0833,5.2938,.3409,.0695,.6819,.1392,1.0228,.2087,.1526-.7451,.3052-1.4902,.4578-2.2354l.3713,.0764c.164,.0328,.3007,.1045,.4105,.2118,.1093,.1083,.2122,.2736,.3085,.4979,.0967,.2234,.2335,.6469,.4113,1.2705,.0818,.2823,.1498,.4892,.2041,.6218,.3801,.0776,.7603,.1553,1.1405,.2329-.107-.2745-.2563-.7648-.4482-1.4736-.1184-.4108-.2276-.7078-.3268-.8913-.0996-.1838-.2242-.3386-.3751-.4632,.3322-.0667,.599-.1953,.8002-.3878,.201-.1914,.332-.438,.3935-.7387,.0909-.4418,.0072-.8325-.2496-1.1718-.2567-.3394-.6342-.5599-1.1317-.6622Zm.3205,1.6369c-.0477,.233-.1614,.4001-.3417,.5026-.1176,.0668-.2536,.1004-.4082,.1004-.0826,0-.1705-.0096-.2638-.0288l-.6517-.1334c.1005-.4912,.2011-.9824,.3017-1.4737l.6367,.1298c.2803,.0579,.4838,.1624,.6111,.3132,.1267,.1509,.1653,.3472,.1159,.5899Z"/><path d="M30.6024,51.6913l-.0014-.0464c.2432-.12,.4263-.2756,.5497-.4691,.1232-.1922,.1801-.4127,.1716-.6602-.0145-.3859-.1818-.703-.5033-.9485-.2986-.2294-.6727-.3442-1.1218-.3442-.0335,0-.0674,.0007-.1017,.002l-1.9793,.0716c.0657,1.7999,.1315,3.6,.1974,5.4l2.2609-.0833c.3684-.0135,.6864-.084,.9539-.2126,.2677-.1287,.4738-.3132,.6182-.555,.1451-.2407,.2117-.5115,.2007-.8102-.0121-.3375-.1281-.6276-.3472-.8713-.2189-.2435-.5181-.4012-.8977-.4727Zm-1.9125-1.6176l.75-.027,.049-.001c.217,0,.3964,.0544,.5374,.1633,.1514,.1171,.2305,.2794,.2382,.4883,.0087,.2349-.0647,.4206-.2194,.5578-.1552,.1373-.3704,.2109-.6464,.2215-.219,.0078-.438,.0154-.657,.0231-.0173-.4753-.0345-.9507-.0518-1.4261Zm1.8308,3.5078c-.1754,.1392-.4398,.2146-.7928,.2281-.3002,.011-.6004,.0219-.9006,.0329-.0186-.5089-.0371-1.0178-.0557-1.5267,.3273-.0119,.6546-.0239,.9819-.0357,.0251-.001,.0496-.0015,.0739-.0015,.2671,0,.4853,.0583,.6542,.1736,.1837,.1267,.28,.3046,.2881,.5338,.0097,.2571-.0734,.4564-.249,.5956Z"/><path d="M37.9608,48.6437c-.3872-.3307-.8295-.5367-1.3259-.6169-.1573-.0254-.3163-.0381-.4771-.0381-.3472,0-.7025,.0594-1.0662,.1783-.554,.1808-1.007,.4553-1.3585,.8238-.3519,.3683-.5814,.7987-.6888,1.2927-.1074,.4932-.0842,.9747,.0691,1.4456,.1595,.4883,.4263,.8934,.8005,1.2184,.3742,.3239,.8165,.5298,1.3266,.6177,.1726,.0302,.3465,.0452,.5216,.0452,.3427,0,.6899-.0576,1.0418-.1728,.5391-.176,.9866-.4476,1.343-.8151,.3563-.3664,.5904-.7957,.7029-1.2869,.1122-.4912,.09-.9766-.0671-1.4572-.1605-.4921-.4346-.9039-.8219-1.2346Zm-.2915,3.0137c-.2314,.4418-.6105,.7494-1.1375,.9214-.228,.0741-.4509,.1112-.6688,.1112-.1147,0-.2282-.0103-.3401-.031-.3248-.0589-.6087-.199-.8518-.4214-.2432-.2215-.4206-.5029-.5317-.8432-.1117-.3432-.1374-.6748-.0764-.994,.0613-.3199,.2065-.6005,.4351-.8421,.2291-.2418,.5178-.4197,.8658-.5328,.229-.075,.4534-.1125,.6732-.1125,.1143,0,.2274,.0101,.3391,.0303,.3274,.059,.6122,.1991,.8544,.4225,.2422,.2234,.4191,.5055,.5303,.8459,.1707,.5222,.1402,1.0046-.0914,1.4455Z"/><polygon points="42.6861 45.0508 42.2292 44.3749 38.1847 47.1064 38.6415 47.7831 40.2312 46.709 42.7986 50.5097 43.6639 49.9258 41.0965 46.1249 42.6861 45.0508"/><polygon points="46.3838 40.9551 45.7704 40.4175 42.5525 44.0878 43.1664 44.6253 44.4311 43.1827 47.88 46.2073 48.5685 45.4221 45.1196 42.3977 46.3838 40.9551"/><polygon points="50.612 41.0556 49.2565 40.3353 50.3562 38.2662 49.6358 37.8823 48.5357 39.9524 47.2826 39.2863 48.4316 37.1243 47.7108 36.7414 46.0721 39.8248 50.8426 42.3609 52.5071 39.2292 51.7868 38.8463 50.612 41.0556"/><polygon points="49.0804 31.7663 52.7575 32.6014 48.3703 34.8976 48.1676 35.792 53.4367 36.9861 53.6624 35.9902 49.925 35.1432 54.3766 32.841 54.5752 31.9656 49.3063 30.7705 49.0804 31.7663"/><path d="M28.7494,46.9923c10.0748,0,18.2425-8.1672,18.2425-18.2426S38.8243,10.5072,28.7494,10.5072,10.5069,18.6748,10.5069,28.7497s8.1677,18.2426,18.2426,18.2426Zm-16.292-11.359c-.452-1.0686-.7977-2.1822-1.0302-3.3188-.2398-1.1719-.3592-2.3685-.3592-3.5648s.1194-2.3927,.3592-3.5646c.2325-1.1366,.5781-2.2501,1.0302-3.3187,.4444-1.0505,.9915-2.0575,1.6302-3.0026,.6342-.9384,1.3585-1.8157,2.1594-2.6165,.8008-.8009,1.6782-1.5253,2.6166-2.1594,.9449-.6386,1.952-1.1858,3.0026-1.6301,1.0684-.4521,2.182-.7977,3.3185-1.0302,1.1719-.2397,2.3683-.3592,3.5646-.3592s2.3926,.1195,3.5646,.3592c1.1365,.2325,2.2502,.5782,3.3186,1.0302,1.0505,.4443,2.0576,.9915,3.0026,1.6301,.9384,.6342,1.8157,1.3585,2.6166,2.1594,.8009,.8008,1.5253,1.6781,2.1594,2.6165,.6385,.9451,1.1857,1.9521,1.6301,3.0026,.452,1.0685,.7977,2.1821,1.0302,3.3187,.2397,1.1719,.359,2.3684,.359,3.5646s-.1193,2.3928-.359,3.5648c-.2325,1.1366-.5782,2.2502-1.0302,3.3188-.4445,1.0505-.9916,2.0574-1.6301,3.0025-.6342,.9384-1.3585,1.8157-2.1594,2.6166s-1.6782,1.5251-2.6166,2.1593c-.945,.6386-1.952,1.1858-3.0026,1.6301-1.0684,.452-2.1819,.7976-3.3186,1.0301-1.1719,.2399-2.3683,.3592-3.5646,.3592s-2.3927-.1194-3.5646-.3592c-1.1366-.2325-2.2502-.5781-3.3187-1.0301-1.0506-.4443-2.0576-.9915-3.0025-1.6301-.9384-.6342-1.8158-1.3585-2.6166-2.1593s-1.5252-1.6782-2.1594-2.6166c-.6387-.9451-1.1858-1.952-1.6302-3.0025Z"/><path d="M11.7957,17.7515c.1949-.3133,.3137-.616,.3568-.9099,.0435-.2939,.0052-.5676-.1141-.8228-.119-.2552-.3055-.4612-.5593-.6198-.2867-.1788-.5923-.2445-.9167-.199-.3248,.0454-.6226,.2049-.8938,.4794l-.0392-.0241c.0367-.2689,.0097-.5087-.0812-.7184s-.2417-.3809-.4515-.5115c-.3282-.204-.6846-.2426-1.0684-.1141-.3834,.1286-.7062,.4031-.9683,.8228-.3489,.5605-.6978,1.121-1.0466,1.6815,1.5286,.9521,3.0571,1.9042,4.5858,2.8563,.3988-.6401,.7976-1.2802,1.1965-1.9203Zm-2.979-1.1951c-.1158,.1862-.2317,.3726-.3475,.5588-.4037-.2516-.8074-.5034-1.211-.7551,.1321-.212,.2642-.4241,.3964-.6362,.1266-.204,.2814-.3354,.4626-.3954,.1818-.0599,.3611-.0348,.5385,.0754,.1992,.1238,.3124,.2891,.3394,.494,.027,.205-.0324,.4244-.1785,.6585Zm.3453,.9901l.5197-.8344c.1591-.2552,.3428-.4244,.5501-.5066,.2075-.0822,.4085-.0619,.6034,.0589,.219,.1364,.3369,.3162,.3543,.5396,.0175,.2234-.0676,.4854-.2542,.7851-.1588,.2549-.3175,.5099-.4763,.7648-.4324-.2691-.8647-.5383-1.297-.8074Z"/><path d="M11.5317,13.3542c.3361,.3877,.7393,.6583,1.2096,.8121,.4704,.1537,.9582,.1721,1.4628,.0551,.5048-.116,.9684-.3568,1.3914-.7232,.4288-.3713,.7363-.7948,.9224-1.2715,.1861-.4766,.2354-.963,.1489-1.459-.087-.496-.2953-.9349-.6265-1.3179-.3389-.3915-.7513-.6642-1.2361-.8188-.4854-.1548-.9727-.1731-1.462-.0552-.4892,.1189-.9451,.3607-1.3681,.7271-.4409,.3819-.7518,.8102-.933,1.2859-.1813,.4758-.2258,.9621-.1339,1.4591,.0923,.496,.3007,.9311,.6246,1.3063Zm.4347-2.5381c.1174-.3113,.3147-.5869,.5916-.8266,.2766-.2398,.5773-.3955,.9012-.469,.3243-.0724,.6414-.0522,.9513,.059,.3099,.1122,.5826,.3035,.817,.5743,.3592,.4158,.5183,.8712,.4758,1.3681-.0421,.497-.2726,.9272-.6918,1.2898-.2766,.2397-.5764,.3955-.8983,.466-.3224,.0706-.6386,.0513-.949-.0589-.3098-.1103-.582-.3007-.817-.5715-.2358-.2727-.3881-.5685-.4553-.8867-.0677-.3181-.0431-.6332,.0745-.9446Z"/><polygon points="18.3666 6.2128 20.2065 10.4139 21.1633 9.9952 19.3229 5.7931 21.0802 5.0235 20.7529 4.276 16.282 6.235 16.6093 6.9823 18.3666 6.2128"/><path d="M23.6129,5.9624c.248,.2214,.597,.3945,1.0476,.5192,.3809,.1141,.6932,.2147,.9369,.3017,.2944,.1122,.4612,.292,.5008,.5385,.0286,.1808-.026,.3384-.1638,.4728-.1383,.1344-.3331,.2214-.5854,.261-.5042,.0803-1.0791-.0715-1.7244-.4544,.0536,.3387,.1074,.6775,.161,1.0162,.335,.1344,.6309,.2205,.8885,.2562,.2578,.0357,.5574,.027,.8983-.0271,.5249-.0831,.9296-.2921,1.2148-.6256,.2847-.3335,.3911-.73,.3187-1.1883-.0566-.3538-.2011-.641-.4347-.8624-.2339-.2214-.5859-.4003-1.0568-.5375-.5487-.1528-.8658-.2485-.9499-.2872-.2998-.1276-.4656-.2919-.4976-.493-.0265-.1683,.0251-.3143,.1558-.438,.1305-.1238,.3258-.206,.5854-.2476,.4278-.0677,.9442,.0213,1.5499,.2668l-.1456-.9166c-.5225-.1837-1.0433-.234-1.5629-.1518-.5477,.087-.9669,.2901-1.2584,.6092-.291,.319-.4012,.7029-.3302,1.1515,.0532,.3356,.2041,.6149,.4521,.8364Z"/><polygon points="30.1866 4.716 30.2176 4.72 31.5224 6.8074 31.668 6.8267 33.4625 5.1405 33.493 5.1444 33.0052 8.9075 34.0407 9.0418 34.7354 3.6834 33.811 3.5635 31.7767 5.4489 30.2901 3.1072 29.3581 2.9863 28.6633 8.3437 29.6988 8.4782 30.1866 4.716"/><path d="M37.0713,8.8456l2.1576,1.0549-.0745,1.4281,.9906,.4835,.2301-5.9019-.9586-.4689-4.3751,3.8752,.9833,.4805,1.0466-.9514Zm2.3201-2.129l-.1199,2.3224-1.5668-.7667,1.6868-1.5557Z"/><path d="M43.2129,11.5006c.0933,.0851,.1866,.1702,.2799,.2552,.1238,.1132,.205,.2437,.2441,.3925,.0388,.149,.0421,.3443,.0103,.585-.0319,.2418-.131,.6759-.2979,1.3025-.0745,.2842-.1223,.4969-.1431,.6391,.2866,.2614,.5732,.5228,.86,.7841,.0489-.2911,.1722-.7889,.3694-1.4948,.1088-.4139,.1677-.7252,.1764-.934,.0088-.2078-.0192-.4051-.0845-.5898,.319,.1132,.614,.1384,.8852,.0775,.2707-.0619,.5095-.2059,.7164-.4332,.3042-.3327,.4327-.7117,.3864-1.1342-.0469-.4235-.2578-.8064-.6334-1.1486-.4789-.4371-.9578-.8741-1.4367-1.3111-1.2139,1.3303-2.4279,2.6608-3.6418,3.9912,.2571,.2346,.5144,.4693,.7716,.7039,.5126-.5618,1.0253-1.1235,1.5378-1.6853Zm1.5639-1.7142c.16,.1461,.3199,.292,.4801,.438,.2112,.1924,.333,.3868,.365,.5811,.0314,.1943-.0358,.3839-.2031,.5665-.1595,.175-.3432,.2611-.5507,.2562-.2073-.0039-.4119-.0986-.6139-.2823-.1638-.1495-.3276-.2991-.4913-.4487,.338-.3703,.6758-.7406,1.0138-1.1109Z"/><polygon points="45.328 17.152 47.5784 15.7462 46.6246 19.2279 47.3333 20.363 48.3771 16.6377 51.6006 16.9953 50.9717 15.9888 47.8071 15.6301 47.7945 15.6108 49.9105 14.289 49.3575 13.4034 44.7749 16.2654 45.328 17.152"/><path d="M16.9574,31.1708l.0953-.0663c.3437-.3964,.8198-.4476,1.27-.5699,.4883-.1334,.9858-.2427,1.4638-.4172,.4144-.1508,.805-.379,1.212-.5608l.1818,.1006c-.042,.3181-.0811,.6401-.1594,.9456-.0619,.2407-.1683,.4641-.2678,.6869-.2655,.5933-.2292,1.185,.0154,1.8231,.2804,.73,.5173,1.4774,1.0471,2.0363,.1098,.116,.2534,.2513,.2819,.3983,.0884,.4594,.4042,.4855,.6662,.4932,.8619,.0261,1.723-.0068,2.5844-.0377l.248-.0899c.2079-.1286,.2165-.29,.0444-.4854-.1044-.1189-.2083-.2416-.2963-.377-.1929-.296-.6599-.498-.9384-.3626-.1832,.088-.3161,.0319-.4448-.1199-.1392-.1644-.2925-.3171-.4109-.4999-.2064-.3192-.4854-.6285-.3698-1.0761,.0676-.264,.157-.5328,.2905-.7543,.2997-.4989,.6415-.9634,.9504-1.4584,.2272-.3641,.4394-.7441,.6387-1.1323,.1213-.2369,.189-.5134,.3099-.7512,.1479-.2901,.3089-.5759,.4964-.8316,.236-.3209,.3172-.7836,.8558-.7991,.4147-.0121,.7865,.1281,1.1669,.1987,.454,.0845,.8944,.9398,1.3324,1.0732,.4699,.1426,.7678,.3625,.9809,.8156-.0701,.1271-.1537,.2437-.2045,.377-.16,.4172-.2939,.8485-.465,1.2584-.1368,.3279-.3592,.6131-.4626,.951-.2036,.6642-.2626,1.664-.6299,2.2664-.1108,.1817-.0624,.4882-.116,.728-.0489,.2195-.1484,.4234-.2059,.6411-.0716,.2726-.1267,.5521-.1818,.8304-.077,.3859,.0416,.5792,.3857,.643,.5729,.1064,1.1206,.3424,1.7269,.2805,.3262-.033,.5835-.1355,.8251-.352,.1877-.1683,.1843-.3946,.0063-.5453-.2393-.2021-.5091-.3558-.7895-.5472,.1122-.5695,.3365-1.142,.6503-1.6863,.3819-.6633,.8175-1.5432,1.3396-2.0624l.1252-.1416c.332-.572,.8754-.804,1.3468-1.1461,.2944-.2138,.6817-.2698,.9427-.5212,.2258-.2166,.4427-.3785,.7097-.4916,.2494-.1064,.4936-.3254,.6425,.1199l.1508,.161c.1171,.0831,.2393,.1566,.3622,.2287,.1121,.0657,.2281,.1246,.3423,.1865l.0556-.0532,.2141,.2393c.2344-.0246,.2727,.1712,.3563,.3356,.1025,.2016,.1736,.4553,.4645,.3713l.2064,.1377c.1484,.2762,.2983,.5555,.407,.8563,.0731,.2011,.148,.3307,.3476,.3674,.4236,.0793,.7373,.3142,.8795,.8266,.0338,.1219,.2349,.1664,.3587,.2466,.0938,.06,.2693,.1208,.2659,.1827-.0174,.294,.1973,.3007,.3118,.4323,.1058,.1208,.2567,.1605,.3157,.379,.0676,.2524,.1093,.583,.4404,.6149,.9175,.089,1.6605,.1208,2.5869-.0706,.3017-.0619,.2007-.29,.5106-.4196,.1605-.2061,.2243-.5125,.0681-.6121-.1498-.0967-.1977-.2195-.363-.2842-.5172-.2041-.7179,.0541-1.2333-.2582-.3785-.2291-.7686-.434-1.0466-.8083-.3317-.4476-.6043-.9572-.9258-1.4189-.4245-.6096-.6831-1.251-.7339-2.0208-.0402-.6024-.219-1.301-.2402-1.8292,.0155-.0909-.0038-.0909,.1364-.2007,.0856-.0673,.1687-.1518,.2296-.2422,.2074-.3104,.4037-.5482,.3983-.9944l.2509-.0566,.1339,.0846c.162,.0241,.3412,.1262,.4529,.0439,.2979-.2185,.5633-.5124,.8277-.7963,.1121-.1203,.1799-.2982,.2861-.4297,.15-.1857,.2509-.3578,.0566-.541-.2427-.2292-.3761-.5333-.4071-.9118-.0131-.1595-.0067-.3297-.0507-.4738-.0546-.1808-.1514-.3398-.1905-.4244-.1349-.0513-.2287-.0552-.2775-.1127-.1176-.1373-.1871-.3954-.323-.4327-.2871-.0798-.2663-.3099-.277-.5627-.0106-.2476,.0199-.538-.0748-.7272-.09-.1788-.2307-.4254-.3848-.5907-.1436-.1537-.2094-.19-.2331-.222-.0502-.0666-.1348-.1783-.1087-.0521,.0106,.0513,.1117,.1827,.2253,.3582,.2108,.3268-.0159,.6865-.2224,.9457-.0767,.0901-.1534,.1805-.2301,.2707-.2069-.2659-.1678-.4699-.4781-.5951-.1519-.0615-.2654-.2349-.3578-.3398-.1715-.1954-.3446-.3152-.3379-.2548,.0212,.1924,.0904,.2311,.1373,.3171,.0832,.1533,.246,.3495,.2093,.4722-.0986,.3297-.2615,.6508-.4471,.9321-.0812,.1224-.2785,.1635-.4279,.1997-.4974,.1214-.9963,.2524-1.4973,.3152-.4457,.0556-1.2913,.1063-1.4792,.0449-.1885-.0614-.5202-.3461-.8209-.3089-.3534,.0435-.7146,.0189-1.067-.0247-.1774-.0217-.409,.0348-.5106-.0237-.4094-.2354-.8248-.2968-1.2714-.2567-.1547,.014-.3181,.0209-.4661-.0217-.4365-.1263-.862-.306-1.3014-.4211-.61-.1605-1.2313-.5492-1.8428-.7145-.515-.1392-1.0211-.6062-1.5326-.7697-.7444-.2384-1.4879-.4882-2.2359-.7208-.262-.0817-.5375-.1247-.8068-.1382-.4409-.0218-.8818-.0048-1.3223-.0116-.1677-.0029-.3528-.0715-.5013-.0174-.4491,.1644-.8901,.3539-1.2391,.7411-.19,.2108-.3945,.3409-.6899,.0981-.1494-.1227-.3669-.3026-.5569-.0212-.0459,.0682-.2137,.0411-.3229,.0208-.4346-.0788-.8809,.319-.8113,.7391,.058,.3514,.6334,.9563,.9495,.9969,.2881,.0363,.5758,.072,.8576,.1058-.1832,.5217-.3649,.9746-.5023,1.4489-.1209,.4152-.1659,.8673-.2915,1.2797-.1668,.5473-.4307,1.0389-.7344,1.4818-.2964,.4316-.6487,.8073-.9828,1.1979-.0817,.0947-.1804,.1783-.2852,.2339-.4438,.2346-.9113,.4187-1.3334,.6889-.2673,.1712-.4592,.483-.7048,.702-.3491,.3119-.6009,.6971-.7388,1.2009-.1005,.3679-.2049,.7393-.3519,1.0776-.1731,.3983-.3929,.7634-.598,1.1375l-.1169,.0552-.16,.1672c-.1049,.4071-.2079,.8162-.2785,1.2367-.0164,.0995,.0677,.2852,.1489,.3655,.3649,.3567,.9746,.3848,1.3256,.0078,.6579-.7087,1.4542-1.2811,1.7931-2.3481,.3147-.1813,.2547-.8653,.7715-.7831Z"/></svg>