<?xml version="1.0" encoding="UTF-8"?><svg id="Lager_1" xmlns="http://www.w3.org/2000/svg" width="20.2847mm" height="20.2847mm" viewBox="0 0 57.5 57.5"><defs><style>.cls-1{fill:none;}</style></defs><path class="cls-1" d="M29.8282,52.2779c-.0244,0-.0491,.0005-.0743,.0015-.3273,.0118-.6547,.0237-.9819,.0356,.0185,.509,.037,1.0178,.0556,1.5268,.3002-.011,.6004-.022,.9006-.0329,.353-.0134,.6174-.0888,.7928-.2281,.1755-.1392,.2586-.3383,.2489-.5956-.0081-.2291-.1044-.407-.2881-.5337-.1688-.1151-.3867-.1735-.6537-.1735Z"/><path class="cls-1" d="M37.2308,49.3652c-.2422-.2234-.527-.3636-.8544-.4226-.1118-.0201-.2247-.0303-.3391-.0303-.2198,0-.4442,.0374-.6732,.1125-.348,.1131-.6367,.291-.8658,.5327-.2286,.2417-.3738,.5222-.4351,.8422-.061,.3191-.0353,.6506,.0764,.994,.1111,.3403,.2886,.6216,.5317,.8431,.2431,.2224,.527,.3625,.8518,.4216,.1119,.0207,.2253,.031,.3401,.031,.2178,0,.4409-.0371,.6688-.1113,.527-.1721,.9061-.4796,1.1375-.9215,.2316-.4409,.2621-.9234,.0914-1.4456-.1111-.3401-.2881-.6226-.5303-.8459Z"/><path class="cls-1" d="M30.0455,51.2545c.1546-.1374,.228-.323,.2194-.5579-.0078-.2088-.0869-.3713-.2383-.4882-.1409-.1089-.3204-.1635-.5375-.1635l-.0489,.0009-.75,.0272c.0172,.4755,.0344,.9508,.0518,1.4262,.2191-.0077,.438-.0156,.657-.0233,.276-.0106,.4912-.0842,.6465-.2214Z"/><polygon class="cls-1" points="37.4759 5.8876 35.9288 7.5825 37.5556 8.211 37.4759 5.8876"/><polygon class="cls-1" points="17.9003 9.2166 16.0091 7.8639 16.4103 10.1225 17.9003 9.2166"/><path class="cls-1" d="M11.5208,11.9248c-.1818-.1672-.3704-.2369-.5652-.206-.1948,.031-.3897,.1509-.584,.3607-.147,.1592-.2939,.3184-.4409,.4776,.3683,.3404,.7368,.6807,1.1052,1.0211,.1505-.1628,.301-.3256,.4516-.4883,.1852-.2011,.2809-.4052,.2862-.6121,.0057-.2078-.0788-.3916-.2528-.553Z"/><path class="cls-1" d="M24.2054,49.5556c-.2123-.0432-.4244-.0862-.6366-.1295-.1006,.4911-.2012,.9823-.3018,1.4734,.2172,.0445,.4345,.0889,.6517,.1334,.0933,.0192,.1812,.0288,.2639,.0288,.1545,0,.2905-.0336,.4081-.1003,.1803-.1026,.294-.2698,.3417-.5028,.0494-.2427,.0108-.439-.1159-.5898-.1273-.1509-.3307-.2553-.6111-.3133Z"/><path class="cls-1" d="M18.8634,43.4113c.9451,.6387,1.952,1.1858,3.0026,1.6301,1.0685,.452,2.1821,.7977,3.3187,1.0302,1.1718,.2397,2.3682,.3591,3.5646,.3592,1.1964,0,2.3929-.1194,3.5649-.3592,1.1365-.2325,2.2502-.5782,3.3187-1.0302,1.0505-.4443,2.0575-.9915,3.0026-1.6301,.9384-.6342,1.8158-1.3585,2.6166-2.1593,.8008-.8009,1.5252-1.6782,2.1594-2.6166,.6385-.945,1.1857-1.952,1.63-3.0026,.4521-1.0686,.7977-2.1821,1.0302-3.3188,.2397-1.172,.3591-2.3685,.3591-3.5649s-.1194-2.3927-.3591-3.5647c-.2325-1.1365-.5781-2.2501-1.0302-3.3185-.4443-1.0507-.9915-2.0577-1.6301-3.0027-.6341-.9384-1.3585-1.8157-2.1592-2.6166-.8009-.8009-1.6783-1.5252-2.6168-2.1594-.945-.6386-1.9519-1.1858-3.0025-1.6302-1.0685-.452-2.1822-.7977-3.3188-1.0302-1.172-.2397-2.3683-.3592-3.5648-.3592s-2.3928,.1195-3.5646,.3592c-1.1367,.2325-2.2502,.5781-3.3187,1.0302-1.0505,.4445-2.0575,.9916-3.0026,1.6302-.9383,.6342-1.8156,1.3585-2.6165,2.1594-.8008,.8008-1.5251,1.6782-2.1593,2.6166-.6385,.945-1.1857,1.952-1.6301,3.0026-.452,1.0686-.7976,2.1821-1.0301,3.3188-.2398,1.1719-.3592,2.3682-.3592,3.5646s.1194,2.3929,.3592,3.5649c.2325,1.1367,.5781,2.2502,1.0301,3.3188,.4443,1.0505,.9915,2.0576,1.6301,3.0027,.6342,.9383,1.3585,1.8156,2.1593,2.6165,.8009,.8008,1.6782,1.5251,2.6165,2.1593Zm4.1955-26.0507c1.0952-2.2946,5.4705,1.2435,5.9821-.0748,.2342-.6035-1.3664-.4904-1.5587-1.0961-.1422-.448,.151-.8721,.3226-1.2534,.2346-.521,.4417-1.3689,.4661-1.6161,.0266,.5334-.4186,1.4627-.6244,2.2393-.2783,1.0499,.5147,.6893,1.1149,.9806,.6312,.3063,.572,.9843-.004,1.2666-.895,.4387-2.4055-.4859-3.2925-.6578-.7418-.1438-2.0063-.2551-2.2676,.7029-.3073,1.1269,.933,1.0203,1.627,.9078,1.9656-.3189,3.9575-.9297,5.9681-.7136,1.199,.1289,4.0618,1.0687,3.3312,2.7956-.5555,1.3131-2.7194-.04-3.6384-.3131-1.4652-.4355-3.0118-.5854-4.5302-.3985-.6397,.0788-2.0029,.1487-1.8821,1.1032,.1354,1.0701,1.6212,.9671,2.3484,.75,1.2209-.3644,2.393-1.2397,3.7198-1.0974,.8215,.0881,2.1975,.7444,1.8179,1.8181-.6384,1.8054-4.7161-1.5703-4.5464,.9112l-.0493,.0021c-.0707-2.1887,2.4871-.6271,3.5965-.6772,.6429-.0291,1.0931-.4429,.6097-.9884-.7435-.8389-2.0834-.6481-3.0111-.3271-1.0047,.3477-2.0856,1.0446-3.1925,.9199-.8356-.0942-1.7349-.8615-1.3965-1.7885,.4279-1.1724,2.9717-.9139,4.0336-.8447,.9316,.0608,1.858,.223,2.7576,.472,.6724,.186,1.417,.6057,2.1094,.6841,1.0189,.1154,1.4443-.6424,.7473-1.3969-.612-.6624-1.6118-.9628-2.482-1.0874-1.7186-.246-3.4465,.2031-5.1243,.5344-.6705,.1324-1.6953,.5279-2.3538,.2937-.7808-.2776-.9162-1.3845-.5985-2.0502Zm-6.3427,19.6555c5.6192,.1492,10.8528,.1532,10.8215,.1443-1.0538-.298-3.4033-.0363-3.7398-.6512-.0762-.1391-.2841-.5031-.355-.6461-.0706-.1425-.1286-.2923-.1871-.4421-.1193-.3054-.4893-1.7055-.5202-1.8671-.0137-.0718-.1373-.7549-.1591-.9078-.0223-.1566-.1024-.7828-.1136-.9409-.023-.326-.1143-1.296-.128-1.4576-.0145-.1703-.0374-.3404-.0546-.5104-.0346-.3407-.0666-.6824-.1168-1.0205-.0474-.3192-.1267-.6309-.1706-.9497-.0215-.1565-.0659-.3108-.102-.4633-.0376-.1589-.0837-.3149-.1261-.472-.0836-.3098-.1821-.6097-.2985-.9045-.0585-.1479-.1235-.2917-.1891-.4354-.0629-.1379-.1434-.2719-.1952-.4158-.0415-.1153-.0974-.2575-.082-.3852,.0132-.1085,.0641-.2246,.1454-.2822,.1139-.0807,.2475-.0897,.3763-.0897,.1465,0,3.0477,.0663,6.6498,.0663,3.9341,0,7.2952-.0675,7.4415-.0675,.128,0,.2579-.0073,.3788,.0524,.2239,.1105,.2255,.3139,.2255,.3139,.0154,.1276-.0405,.2699-.082,.3852-.0518,.1439-.1323,.278-.1952,.4158-.0655,.1437-.1306,.2875-.189,.4354l-.049,.1155,.4337-.2256c1.5347-.7012,3.2917,.1254,3.855,1.7756,.2639,.7729,.2297,1.6091-.0964,2.3545-.1729,.3953-.4124,.7455-.716,1.0186-.778,.6996-.6767,.2111-1.1879,.4579,0,0-3.3364,1.1166-3.16,2.1122,.0515,.2905,.2062,.3818,.4883,.5476,.5295,.3112,.3872,1.0123-.0362,1.1724-.2821,.1067-.6567,.0635-.9882-.3163-.0427-.05-.077-.104-.1113-.1426l-.2215,.6241c-.0585,.1498-.1165,.2996-.1871,.4421-.0709,.143-.2624,.507-.3385,.6461-.3365,.6149-2.8539,.3904-3.7562,.6512-.0312,.009,4.7085-.05,10.8871-.1409,.1363-.002,.2538-.0094,.3819,.0568,.1129,.0583,.1075,.2086,.0559,.3232-.0273,.0608-.061,.1219-.1129,.1594-.5707,.4111-2.1384,1.3364-3.0781,2.0289-.2349,.173-.4528,.3542-.6942,.5044-.1193,.0742-.235,.1551-.3596,.2167-.1296,.0641-.2615,.123-.3934,.1798-.2545,.1094-.5145,.1847-.7825,.2295-.1371,.0229-.2761,.0317-.4136,.0521-.1383,.0206-.2757,.0508-.4146,.0635-.1374,.0126-.2712,.0541-.4032,.0989-.0961,.0326-.1981,.0735-.2338,.1965-.0324,.1113-.0433,.2419-.117,.3288-.074,.0874-.1791,.1069-.2783,.1224-.2846,.0446-2.8514,.1661-5.3466,.1517-2.3275-.0135-4.7684-.1279-4.9056-.15-.0854-.0138-.1755-.0378-.2429-.1057-.1361-.1374-.0934-.3941-.2625-.499-.0443-.0275-.0922-.0369-.14-.0519-.0625-.0198-.1223-.0441-.1864-.0565-.1381-.0267-.2769-.046-.4146-.0757-.1403-.0303-.2821-.0427-.4243-.0538-.1359-.0106-.2741-.0428-.4081-.0715-.0697-.015-.139-.0367-.2071-.0599-.0587-.0201-.1166-.0316-.176-.0479-.0563-.0154-.1028-.0598-.1568-.0721-.0582-.0132-.1086-.0321-.1629-.0609-.1151-.061-.2321-.1114-.3452-.1785-.1228-.0728-.2458-.1451-.3658-.2242-.2335-.1539-.4645-.3344-.6762-.5272-.2189-.1996-1.9889-1.2906-2.9026-1.84-.1163-.0699-.1694-.1953-.2168-.334-.1138-.3322,.3709-.3047,.5331-.3004Z"/><path class="cls-1" d="M38.8347,28.0344c-.3131-.9173-1.2644-1.3902-2.1248-1.0564-.8603,.3339-1.3039,1.3481-.9908,2.2654l.1492,.3842c.4292,.869-.6292,1.3392-.991,.6707,0,0-.1151,1.3314-.1793,1.8059,.2389-.2209,1.0801-1.0086,3.1458-1.8045,.8826-.3401,1.3039-1.3481,.9908-2.2653Z"/><path class="cls-1" d="M23.7917,27.6521c.0017-.5906-.483-.6271-.5985-.0315-.0461,.5746,.0015,2.9426,.4986,5.5281,.3213,1.8045,1.4394,4.1926,.8607,2.4366-1.2121-3.3627-.6828-7.5111-.7607-7.9332Z"/><path class="cls-1" d="M10.5181,17.8548c-.0305-.2224-.1586-.3954-.3849-.5182-.2015-.1103-.4036-.118-.6057-.0241-.2026,.0938-.3756,.2736-.5201,.5385-.1567,.2875-.3133,.575-.4699,.8625,.4473,.2437,.8946,.4873,1.342,.731,.1436-.264,.2872-.528,.4307-.7919,.1687-.3094,.2384-.5764,.2079-.7977Z"/><path class="cls-1" d="M7.907,16.6046c-.1833-.1006-.364-.1151-.542-.0444-.1779,.0706-.3239,.2118-.4385,.4216l-.3591,.6594c.4178,.2275,.8357,.4551,1.2535,.6826,.1048-.1927,.2095-.3854,.3143-.5781,.132-.2418,.1783-.4642,.1397-.6682-.0392-.203-.162-.3606-.3679-.4728Z"/><path class="cls-1" d="M28.7486,56.5337c15.321,0,27.785-12.4642,27.785-27.785S44.0696,.9642,28.7486,.9642,.9643,13.4284,.9643,28.7487s12.4642,27.785,27.7844,27.785Zm-15.6421-7.1404l-.8192-.6478,2.8447-3.5979-1.5045-1.1902,.5057-.6401,3.8289,3.0273-.5062,.6401-1.5045-1.1902-2.845,3.5988Zm-2.1089-11.7478c.0465-.1353,.1349-.2339,.2659-.2949,.0687-.032,.1387-.0481,.2101-.0481,.0598,0,.1204,.0112,.182,.0337,.1353,.0492,.2325,.1372,.2915,.263,.0566,.1218,.0605,.2513,.011,.3897-.0492,.1382-.1357,.2368-.2595,.2938-.0688,.0322-.139,.0483-.2106,.0483-.0597,0-.1204-.0112-.1819-.0337-.1354-.0493-.2321-.1365-.2911-.2629-.058-.1238-.0638-.2534-.0174-.3888Zm-.1059-1.0906c-.0651,.0306-.1331,.046-.2041,.046-.0586,0-.1193-.0104-.1821-.0315-.1383-.0464-.2379-.1354-.2987-.2659-.0581-.1237-.0638-.2552-.0175-.3936,.0464-.1382,.1339-.2368,.2625-.2967,.0669-.0313,.1353-.0471,.2052-.0471,.062,0,.1251,.0124,.1892,.0374,.1374,.0522,.2345,.1411,.2926,.265,.0589,.1257,.0634,.2571,.0135,.3945-.0498,.1373-.1369,.2349-.2607,.292Zm-.3848-7.8058c0-10.075,8.1673-18.2427,18.2422-18.2427s18.2427,8.1678,18.2427,18.2427-8.1674,18.2429-18.2427,18.2429S10.507,38.8247,10.507,28.7491Zm10.1968,21.3295l-.3452,.7397-2.1238-.9911-.6494,1.3915,2.2675,1.0586-.3452,.7388-3.2139-1.4996,2.2856-4.8964,3.1648,1.4775-.3452,.7396-2.2186-1.0355-.6004,1.2859,2.1238,.991Zm5.2894,.5773c-.0615,.3007-.1924,.5472-.3934,.7387-.2012,.1924-.4681,.321-.8002,.3877,.1508,.1248,.2755,.2794,.3751,.4631,.0992,.1838,.2084,.4805,.3269,.8914,.1918,.7088,.3412,1.199,.4482,1.4737-.3802-.0778-.7604-.1555-1.1405-.2332-.0543-.1324-.1223-.3392-.204-.6216-.1779-.6237-.3146-1.0471-.4114-1.2706-.0963-.2242-.1992-.3896-.3084-.4979-.1098-.1074-.2465-.1789-.4105-.2118l-.3713-.0763c-.1526,.7451-.3052,1.4903-.4578,2.2354-.3409-.0695-.6819-.1392-1.0228-.2087,.361-1.7646,.7222-3.5292,1.0833-5.2937,.6353,.1298,1.2705,.2598,1.9058,.3896,.4975,.1024,.875,.3229,1.1317,.6623,.2568,.3394,.3404,.73,.2495,1.1719Zm5.6538,3.1888c-.1444,.2417-.3505,.4264-.6182,.5549-.2676,.1286-.5855,.1992-.954,.2128-.7537,.0278-1.5073,.0554-2.2609,.0832-.0659-1.8-.1317-3.6001-.1974-5.4001,.6597-.0239,1.3195-.0477,1.9793-.0715,.0342-.0013,.0679-.002,.1013-.002,.4492,0,.8234,.1147,1.1223,.3442,.3215,.2455,.4888,.5627,.5032,.9484,.0086,.2476-.0484,.468-.1716,.6605-.1234,.1933-.3065,.349-.5497,.469l.0013,.0463c.3796,.0715,.6788,.2292,.8977,.4728,.2191,.2438,.3351,.5337,.3472,.8713,.011,.2987-.0555,.5694-.2007,.8102Zm7.2033-2.5101c-.1125,.4911-.3466,.9206-.7029,1.2869-.3563,.3674-.8038,.6391-1.3429,.8151-.3519,.1151-.6992,.1728-1.0419,.1728-.1751,0-.3489-.0151-.5216-.0452-.5101-.088-.9524-.294-1.3267-.6179-.3741-.3249-.6409-.73-.8005-1.2183-.1533-.4709-.1765-.9524-.0691-1.4454,.1073-.4942,.3369-.9244,.6888-1.2928,.3514-.3684,.8044-.643,1.3585-.8239,.3636-.1189,.719-.1783,1.0662-.1783,.1607,0,.3198,.0128,.4771,.0381,.4965,.0803,.9387,.2863,1.326,.6169,.3873,.3307,.6614,.7426,.8218,1.2347,.1572,.4806,.1794,.9658,.0672,1.457Zm3.9489-.8257l-2.5675-3.8008-1.5897,1.0742-.4568-.6768,4.0446-2.7315,.4569,.6759-1.5896,1.0742,2.5675,3.8008-.8653,.584Zm5.0814-4.3026l-3.4489-3.0244-1.2647,1.4426-.614-.5375,3.2179-3.6703,.6135,.5376-1.2643,1.4426,3.449,3.0244-.6885,.7851Zm2.9626-3.8463l-4.7706-2.5361,1.6388-3.0834,.7208,.3829-1.149,2.1619,1.2531,.6663,1.1002-2.0702,.7204,.3839-1.0999,2.0692,1.3556,.7203,1.1748-2.2093,.7203,.3829-1.6644,3.1318Zm3.534-9.52l-4.4517,2.3021,3.7375,.847-.2258,.996-5.269-1.1942,.2026-.8943,4.3872-2.2964-3.6771-.8344,.2259-.9958,5.2689,1.1949-.1985,.8751Zm-1.8797-7.2806c-.1683,.2407-.3998,.3857-.6946,.436-.0654,.0111-.1298,.0166-.1927,.0166-.2162,0-.4178-.0654-.605-.1965-.2422-.1692-.3878-.4003-.4376-.6921-.0508-.2978,.0092-.5657,.1788-.8035,.1702-.2379,.4028-.3829,.6976-.4323,.0667-.0115,.1321-.0172,.196-.0172,.2162,0,.4166,.0654,.6012,.1953,.2393,.1682,.3839,.4012,.4346,.699,.0494,.2891-.0101,.555-.1783,.7948Zm-2.3897-11.1449l2.324,4.2921-.7175,.3886-.9138-1.6872-4.0333,2.1843-.4974-.9185,4.0339-2.1833-.9133-1.6872,.7175-.3887Zm-1.184-1.5432l-.6042,.5483-1.6456-1.812-1.0511,.9543,1.5756,1.7347-.6043,.5491-1.5756-1.7355-1.1367,1.0317,1.682,1.8525-.6044,.5492-2.3839-2.6261,4.0005-3.6316,2.3476,2.5854Zm-8.1672-1.3024c.2084,.147,.4085,.2214,.6008,.2224,.1925,0,.3419-.0744,.4478-.2233,.1445-.204,.1512-.4496,.0193-.7358-.1136-.232-.2664-.5221-.4588-.8702-.235-.4041-.3635-.7724-.3857-1.1041-.0223-.3317,.0652-.6362,.262-.9138,.2626-.3702,.6097-.5675,1.041-.5917,.4312-.0242,.873,.1238,1.3251,.4448,.4293,.3036,.7662,.7039,1.0114,1.2009-.1788,.2524-.3578,.5047-.5366,.757-.261-.5994-.568-1.0239-.9214-1.2752-.2147-.1519-.4119-.2292-.5917-.2321-.1799-.0029-.3186,.0658-.4172,.204-.118,.1664-.1146,.3995,.0106,.7001,.0334,.087,.1925,.377,.4781,.8702,.2408,.4274,.3674,.8015,.3795,1.1226,.0121,.322-.0855,.6294-.293,.9213-.2688,.3781-.6216,.587-1.0587,.6266-.437,.0387-.8722-.0948-1.3054-.4022-.2818-.2002-.5022-.4032-.6613-.6091-.1591-.2061-.3109-.4739-.4554-.8045,.1983-.2798,.3967-.5595,.5952-.8393,.1934,.7251,.4984,1.2356,.9147,1.5316Zm-2.047-7.5311c.0498-.1295,.1407-.2234,.2727-.2823,.1315-.058,.2626-.0619,.3926-.0115,.1248,.0483,.2175,.1392,.2775,.2735,.0604,.1335,.0657,.264,.0164,.3916-.0503,.1296-.1412,.2244-.2726,.2823-.132,.058-.2626,.0619-.3926,.0117-.1276-.0493-.2214-.1382-.2819-.2689-.0604-.1295-.0642-.262-.0121-.3964Zm-1.7891-.6913c.0502-.1306,.1425-.2233,.278-.2804,.1354-.0571,.2668-.0609,.3945-.0116,.1296,.0502,.2244,.1421,.2833,.2756,.059,.1334,.0638,.2639,.0146,.3915-.0475,.1218-.1373,.2147-.2693,.2775-.132,.0619-.265,.0667-.3998,.0145-.1276-.0493-.2224-.1393-.2847-.2717-.0624-.1315-.0677-.264-.0164-.3954Zm.4713,1.2685l.9954,.3849,.2766,5.9-1.0278-.3975-.0489-1.429-2.2397-.8663-.9616,1.0385-1.0205-.3954,4.0266-4.235Zm-9.4243-1.6078l.9143,.0628,2.9421,3.9835,.2601-3.7611,1.0186,.0696-.3727,5.3904-.8954-.0619-2.9572-4.0464-.2644,3.8231-1.0186-.0696,.3731-5.3903Zm-7.0538,1.284l4.0305,2.8774-.9172-3.6577,.9906-.2485,1.3141,5.2406-.8702,.2185-4.0648-2.9326,.9326,3.7177-.9906,.2484-1.314-5.2405,.889-.2233Zm-5.6771,1.079c.0344-.1402,.1107-.2465,.2296-.3181,.1146-.0696,.2432-.0879,.3864-.054,.1425,.0338,.2494,.1092,.3204,.2262,.0726,.119,.0919,.2484,.0576,.3878-.0339,.1402-.1107,.2465-.2296,.319-.1166,.0706-.2452,.0909-.3843,.0591-.1397-.0309-.247-.1084-.3225-.2311-.072-.1189-.0914-.2485-.0575-.3887Zm.6241,1.2299l4.8466,3.3754-.9418,.5734-1.1621-.8325-2.0522,1.2482,.2379,1.3953-.9355,.5685-.905-5.7732,.9122-.5551Zm-2.2578-.236c.0373-.142,.1141-.2484,.2311-.319,.1189-.0726,.2495-.0919,.3911-.057,.1417,.0347,.248,.1102,.3192,.2271,.0681,.1121,.087,.2397,.056,.382-.0309,.1421-.1082,.2514-.2314,.3268-.1171,.0707-.2467,.0909-.3892,.06-.1427-.0309-.2504-.1074-.3245-.2283-.072-.1189-.0899-.2494-.0522-.3916Zm-3.6485,4.9872c.3447-.3722,.7286-.5811,1.152-.6255,.4235-.0435,.8011,.087,1.1323,.3936,.2252,.2078,.3679,.4476,.4278,.7193,.06,.2717,.0324,.5667-.0827,.8848,.1857-.0639,.3824-.0909,.5909-.0812,.2083,.0106,.5192,.0705,.9321,.1827,.7053,.2021,1.2028,.3278,1.4928,.379-.2634,.2849-.5266,.5698-.7899,.8547-.1412-.0222-.3539-.0706-.6382-.1469-.625-.1712-1.0582-.2726-1.2995-.3065-.2411-.0328-.4365-.0309-.5854,.0067-.1489,.0377-.2804,.119-.3939,.2418l-.2578,.2784c.5587,.516,1.1174,1.032,1.6761,1.548-.2362,.2559-.4725,.5117-.7087,.7677-1.3228-1.2225-2.6454-2.4449-3.9681-3.6674,.4401-.4764,.8802-.9528,1.3203-1.4291Zm-3.6558,5.0771c.2363-.4351,.5429-.7271,.9185-.8779,.3757-.1508,.7333-.1334,1.0728,.0513,.2175,.118,.3775,.2794,.4806,.4844,.1034,.204,.144,.4419,.1232,.7116l.0406,.0223c.2548-.29,.5428-.467,.8638-.5309,.3215-.0648,.6305-.0164,.9273,.145,.2625,.1432,.4608,.3384,.5946,.5859,.134,.2476,.1876,.5192,.1619,.8152-.0261,.2958-.1271,.6052-.3035,.9291-.3607,.6624-.7214,1.3246-1.082,1.9871-1.5817-.8612-3.1633-1.7224-4.7451-2.5836,.3156-.5798,.6314-1.1596,.9471-1.7394Zm-1.0206,7.519c.1837-.131,.3842-.1967,.6011-.1967,.0651,0,.1315,.0059,.1995,.0177,.2896,.0504,.5198,.1962,.6913,.4361,.1716,.2407,.2321,.5067,.1813,.7996-.0517,.2969-.1976,.5289-.4375,.6971-.1836,.128-.3833,.1921-.5988,.1921-.0662,0-.1337-.006-.2027-.018-.292-.0503-.5226-.1953-.6918-.4341-.1692-.2388-.2281-.5067-.1765-.8035,.0504-.29,.1949-.5201,.4342-.6903Zm-2.0406,9.6466l4.9001-3.4644,.2108,1.082-3.1129,2.163,3.6896,.7977,.2094,1.0742-5.828-1.2956-.0691-.3568Zm2.7748,7.6771l.9543-1.0646-1.016-2.1764-1.4123,.083-.4631-.9919,5.8381-.2669,.4515,.9669-3.886,4.4477-.4666-.9978Zm2.5073,3.7553c-.2172-.2688-.3738-.524-.4704-.7657-.0972-.2417-.1702-.5405-.2196-.8982,.267-.215,.534-.4301,.801-.645-.011,.7504,.1432,1.3247,.4637,1.7221,.16,.1991,.3326,.3249,.5178,.3781,.0579,.0163,.1139,.0245,.1677,.0245,.1177,0,.2255-.0391,.3235-.1174,.1947-.1575,.2677-.3915,.219-.7028-.046-.2543-.1141-.5754-.2045-.9631-.116-.4523-.1397-.8412-.0706-1.167,.0686-.3248,.236-.5945,.5009-.8083,.2654-.2134,.5501-.3206,.8541-.3206,.1008,0,.2037,.0118,.3087,.0353,.4214,.0939,.8064,.3569,1.1538,.7881,.3303,.41,.5455,.8875,.6465,1.4319-.2411,.194-.4822,.388-.7233,.5821-.0875-.6478-.2673-1.14-.5391-1.4775-.1649-.205-.3336-.3336-.5061-.3848-.0561-.0167-.1101-.0251-.162-.0251-.1074,0-.2055,.0359-.2949,.1082-.159,.1276-.219,.353-.1804,.6759,.0082,.0928,.0826,.4149,.223,.9679,.1155,.4757,.1353,.8712,.0594,1.1834-.0759,.3123-.2534,.5811-.5328,.8065-.282,.2274-.5858,.3408-.9111,.3408-.0911,0-.1838-.0089-.2781-.0267-.4313-.0812-.8132-.3287-1.1462-.7426Z"/><polygon class="cls-1" points="7.5411 39.5629 9.0929 37.8311 6.8034 37.9821 7.5411 39.5629"/><path d="M23.6574,19.4108c.6586,.2342,1.6833-.1613,2.3538-.2937,1.6778-.3312,3.4056-.7804,5.1243-.5344,.8702,.1246,1.87,.425,2.482,1.0874,.6971,.7545,.2716,1.5123-.7473,1.3969-.6924-.0784-1.4371-.498-2.1094-.6841-.8996-.249-1.826-.4112-2.7576-.472-1.0619-.0693-3.6057-.3277-4.0336,.8447-.3384,.9271,.561,1.6943,1.3965,1.7885,1.1069,.1248,2.1878-.5722,3.1925-.9199,.9277-.321,2.2676-.5117,3.0111,.3271,.4835,.5455,.0333,.9593-.6097,.9884-1.1094,.0502-3.6672-1.5115-3.5965,.6772l.0493-.0021c-.1697-2.4815,3.908,.8942,4.5464-.9112,.3796-1.0737-.9965-1.73-1.8179-1.8181-1.3268-.1423-2.499,.733-3.7198,1.0974-.7272,.2171-2.213,.3201-2.3484-.75-.1208-.9545,1.2424-1.0244,1.8821-1.1032,1.5184-.187,3.065-.037,4.5302,.3985,.9189,.2731,3.0829,1.6262,3.6384,.3131,.7305-1.7269-2.1322-2.6667-3.3312-2.7956-2.0107-.2161-4.0025,.3947-5.9681,.7136-.694,.1125-1.9343,.2191-1.627-.9078,.2612-.958,1.5258-.8467,2.2676-.7029,.887,.1719,2.3975,1.0965,3.2925,.6578,.576-.2823,.6353-.9603,.004-1.2666-.6002-.2913-1.3931,.0693-1.1149-.9806,.2058-.7766,.6509-1.7059,.6244-2.2393-.0244,.2472-.2316,1.0951-.4661,1.6161-.1716,.3813-.4648,.8054-.3226,1.2534,.1923,.6057,1.7928,.4926,1.5587,1.0961-.5116,1.3184-4.8869-2.2198-5.9821,.0748-.3177,.6658-.1823,1.7726,.5985,2.0502Z"/><path d="M28.7486,57.0954c15.6304,0,28.3468-12.7166,28.3468-28.3467S44.379,.4025,28.7486,.4025,.4025,13.1185,.4025,28.7487s12.7161,28.3467,28.3461,28.3467ZM28.7486,.9642c15.321,0,27.785,12.4642,27.785,27.7845s-12.4641,27.785-27.785,27.785S.9643,44.0695,.9643,28.7487,13.4285,.9642,28.7486,.9642Z"/><path d="M5.7122,25.8756c.069,.012,.1365,.018,.2027,.018,.2155,0,.4152-.0641,.5988-.1921,.2399-.1682,.3858-.4003,.4375-.6971,.0508-.293-.0096-.5589-.1813-.7996-.1715-.2399-.4017-.3857-.6913-.4361-.0681-.0118-.1345-.0177-.1995-.0177-.2169,0-.4174,.0656-.6011,.1967-.2393,.1702-.3838,.4003-.4342,.6903-.0516,.2969,.0073,.5647,.1765,.8035,.1693,.2388,.3998,.3839,.6918,.4341Z"/><polygon points="8.9252 34.1724 5.2356 33.3748 8.3484 31.2118 8.1376 30.1298 3.2375 33.5943 3.3066 33.951 9.1346 35.2466 8.9252 34.1724"/><path d="M11.3061,38.2972c.0616,.0225,.1223,.0337,.1819,.0337,.0716,0,.1418-.0161,.2106-.0483,.1237-.0569,.2103-.1556,.2595-.2938,.0494-.1384,.0456-.2679-.011-.3897-.059-.1258-.1562-.2138-.2915-.263-.0616-.0225-.1223-.0337-.182-.0337-.0714,0-.1414,.0161-.2101,.0481-.131,.061-.2194,.1596-.2659,.2949-.0464,.1354-.0406,.265,.0174,.3888,.059,.1265,.1556,.2136,.2911,.2629Z"/><path d="M9.9134,36.8546l-5.8381,.2669,.4631,.9919,1.4123-.083,1.016,2.1764-.9543,1.0646,.4666,.9978,3.886-4.4477-.4515-.9669Zm-2.3723,2.7083l-.7377-1.5808,2.2895-.1509-1.5518,1.7318Z"/><path d="M11.1524,36.2629c.0498-.1374,.0453-.2688-.0135-.3945-.0581-.1238-.1552-.2128-.2926-.265-.0641-.025-.1272-.0374-.1892-.0374-.0699,0-.1383,.0158-.2052,.0471-.1287,.0599-.2161,.1585-.2625,.2967-.0464,.1384-.0406,.2699,.0175,.3936,.0608,.1305,.1604,.2195,.2987,.2659,.0628,.0211,.1235,.0315,.1821,.0315,.071,0,.139-.0153,.2041-.046,.1238-.0571,.2109-.1547,.2607-.292Z"/><path d="M9.944,45.7959c.3253,0,.629-.1134,.9111-.3408,.2794-.2253,.4568-.4941,.5328-.8065,.0759-.3123,.0562-.7077-.0594-1.1834-.1403-.553-.2148-.8751-.223-.9679-.0386-.3229,.0214-.5483,.1804-.6759,.0894-.0723,.1875-.1082,.2949-.1082,.0519,0,.1059,.0084,.162,.0251,.1725,.0512,.3412,.1798,.5061,.3848,.2718,.3375,.4516,.8297,.5391,1.4775,.2411-.1941,.4822-.3881,.7233-.5821-.1011-.5445-.3162-1.022-.6465-1.4319-.3474-.4313-.7324-.6943-1.1538-.7881-.105-.0236-.2078-.0353-.3087-.0353-.304,0-.5887,.1071-.8541,.3206-.2649,.2138-.4323,.4835-.5009,.8083-.0691,.3258-.0454,.7147,.0706,1.167,.0904,.3878,.1585,.7088,.2045,.9631,.0487,.3113-.0243,.5453-.219,.7028-.098,.0783-.2057,.1174-.3235,.1174-.0538,0-.1098-.0082-.1677-.0245-.1852-.0532-.3578-.179-.5178-.3781-.3205-.3974-.4747-.9717-.4637-1.7221-.267,.215-.534,.4301-.801,.645,.0494,.3577,.1224,.6565,.2196,.8982,.0966,.2417,.2532,.4969,.4704,.7657,.333,.4138,.7149,.6613,1.1462,.7426,.0943,.0178,.187,.0267,.2781,.0267Z"/><polygon points="17.9621 46.3446 14.1333 43.3173 13.6275 43.9574 15.1321 45.1475 12.2874 48.7454 13.1066 49.3933 15.9515 45.7945 17.456 46.9847 17.9621 46.3446"/><polygon points="21.399 48.8372 21.7442 48.0976 18.5794 46.6201 16.2938 51.5166 19.5077 53.0161 19.8529 52.2773 17.5854 51.2187 18.2348 49.8272 20.3586 50.8184 20.7038 50.0786 18.58 49.0877 19.1804 47.8017 21.399 48.8372"/><path d="M24.6119,48.8218c-.6353-.1299-1.2705-.2598-1.9058-.3896-.3611,1.7645-.7222,3.5291-1.0833,5.2937,.3409,.0696,.6819,.1392,1.0228,.2087,.1526-.7451,.3052-1.4902,.4578-2.2354l.3713,.0763c.164,.0329,.3007,.1044,.4105,.2118,.1092,.1083,.2122,.2737,.3084,.4979,.0967,.2234,.2335,.6469,.4114,1.2706,.0818,.2823,.1498,.4891,.204,.6216,.3801,.0777,.7603,.1555,1.1405,.2332-.1069-.2747-.2563-.7649-.4482-1.4737-.1185-.4109-.2277-.7076-.3269-.8914-.0995-.1837-.2242-.3384-.3751-.4631,.3321-.0667,.599-.1953,.8002-.3877,.201-.1915,.332-.438,.3934-.7387,.0909-.4419,.0073-.8325-.2495-1.1719-.2567-.3394-.6342-.5599-1.1317-.6623Zm.3204,1.6369c-.0477,.233-.1614,.4002-.3417,.5028-.1176,.0667-.2535,.1003-.4081,.1003-.0827,0-.1706-.0096-.2639-.0288-.2172-.0445-.4344-.0889-.6517-.1334,.1005-.4911,.2011-.9823,.3018-1.4734,.2122,.0432,.4243,.0863,.6366,.1295,.2803,.058,.4838,.1624,.6111,.3133,.1267,.1508,.1653,.3471,.1159,.5898Z"/><path d="M30.6027,51.6904l-.0013-.0463c.2432-.12,.4263-.2757,.5497-.469,.1232-.1924,.1802-.4129,.1716-.6605-.0144-.3857-.1818-.7029-.5032-.9484-.2988-.2296-.6731-.3442-1.1223-.3442-.0334,0-.0671,.0006-.1013,.002-.6598,.0238-1.3196,.0477-1.9793,.0715,.0657,1.8,.1315,3.6001,.1974,5.4001,.7536-.0278,1.5073-.0554,2.2609-.0832,.3685-.0135,.6864-.0842,.954-.2128,.2677-.1285,.4738-.3132,.6182-.5549,.1451-.2408,.2117-.5115,.2007-.8102-.0121-.3376-.1281-.6275-.3472-.8713-.2189-.2436-.5181-.4013-.8977-.4728Zm-1.9125-1.6176l.75-.0272,.0489-.0009c.2171,0,.3965,.0545,.5375,.1635,.1514,.1169,.2305,.2794,.2383,.4882,.0087,.2349-.0648,.4205-.2194,.5579-.1553,.1372-.3705,.2108-.6465,.2214-.219,.0077-.438,.0156-.657,.0233-.0173-.4754-.0345-.9507-.0518-1.4262Zm1.8309,3.5079c-.1754,.1393-.4399,.2147-.7928,.2281-.3002,.0109-.6004,.0219-.9006,.0329-.0186-.509-.0371-1.0178-.0556-1.5268,.3272-.0118,.6545-.0237,.9819-.0356,.0252-.001,.05-.0015,.0743-.0015,.267,0,.4849,.0584,.6537,.1735,.1837,.1267,.28,.3046,.2881,.5337,.0097,.2573-.0734,.4564-.2489,.5956Z"/><path d="M37.9612,48.6429c-.3873-.3307-.8295-.5366-1.326-.6169-.1573-.0253-.3163-.0381-.4771-.0381-.3472,0-.7026,.0594-1.0662,.1783-.554,.1808-1.007,.4554-1.3585,.8239-.3519,.3683-.5815,.7986-.6888,1.2928-.1074,.493-.0842,.9745,.0691,1.4454,.1595,.4883,.4263,.8934,.8005,1.2183,.3743,.3239,.8166,.5298,1.3267,.6179,.1727,.0301,.3465,.0452,.5216,.0452,.3427,0,.6899-.0577,1.0419-.1728,.5391-.176,.9866-.4477,1.3429-.8151,.3563-.3663,.5905-.7958,.7029-1.2869,.1122-.4912,.09-.9764-.0672-1.457-.1605-.4922-.4345-.9041-.8218-1.2347Zm-.2915,3.0137c-.2314,.442-.6105,.7494-1.1375,.9215-.2279,.0742-.451,.1113-.6688,.1113-.1148,0-.2282-.0103-.3401-.031-.3248-.059-.6087-.1992-.8518-.4216-.2432-.2215-.4206-.5028-.5317-.8431-.1117-.3434-.1374-.6749-.0764-.994,.0613-.3201,.2065-.6005,.4351-.8422,.2291-.2416,.5178-.4196,.8658-.5327,.229-.0751,.4534-.1125,.6732-.1125,.1144,0,.2274,.0102,.3391,.0303,.3273,.059,.6122,.1992,.8544,.4226,.2422,.2233,.4191,.5057,.5303,.8459,.1707,.5222,.1402,1.0046-.0914,1.4456Z"/><polygon points="42.6865 45.0499 42.2296 44.374 38.185 47.1055 38.6419 47.7824 40.2316 46.7081 42.7991 50.5089 43.6644 49.9249 41.0969 46.1241 42.6865 45.0499"/><polygon points="46.3843 40.9542 45.7709 40.4166 42.553 44.087 43.1669 44.6245 44.4316 43.1819 47.8805 46.2063 48.5691 45.4212 45.12 42.3968 46.3843 40.9542"/><polygon points="50.6125 41.0547 49.2569 40.3344 50.3568 38.2652 49.6364 37.8814 48.5362 39.9516 47.2831 39.2853 48.4321 37.1234 47.7113 36.7405 46.0726 39.8239 50.8432 42.3601 52.5076 39.2283 51.7873 38.8454 50.6125 41.0547"/><polygon points="49.0809 31.7659 52.758 32.6003 48.3708 34.8967 48.1682 35.791 53.4372 36.9851 53.663 35.9891 49.9255 35.1422 54.3772 32.84 54.5757 31.965 49.3068 30.77 49.0809 31.7659"/><path d="M51.64,23.8704c-.0639,0-.1293,.0057-.196,.0172-.2949,.0494-.5275,.1944-.6976,.4323-.1696,.2378-.2296,.5057-.1788,.8035,.0498,.2919,.1953,.5229,.4376,.6921,.1872,.1311,.3888,.1965,.605,.1965,.063,0,.1273-.0055,.1927-.0166,.2948-.0503,.5264-.1953,.6946-.436,.1682-.2398,.2277-.5057,.1783-.7948-.0507-.2978-.1953-.5309-.4346-.699-.1846-.1299-.385-.1953-.6012-.1953Z"/><path d="M11.1785,18.7645c.1765-.3239,.2775-.6332,.3035-.9291,.0257-.296-.028-.5676-.1619-.8152-.1339-.2475-.3321-.4427-.5946-.5859-.2968-.1614-.6058-.2098-.9273-.145-.321,.0639-.6091,.2408-.8638,.5309l-.0406-.0223c.0208-.2697-.0198-.5076-.1232-.7116-.1031-.205-.2631-.3664-.4806-.4844-.3394-.1847-.6971-.2021-1.0728-.0513-.3756,.1508-.6822,.4428-.9185,.8779-.3157,.5798-.6315,1.1596-.9471,1.7394,1.5817,.8611,3.1633,1.7224,4.7451,2.5836,.3606-.6624,.7213-1.3246,1.082-1.9871Zm-3.0433-1.019c-.1047,.1927-.2095,.3854-.3143,.5781-.4178-.2275-.8358-.4551-1.2535-.6826l.3591-.6594c.1146-.2098,.2606-.351,.4385-.4216,.178-.0706,.3587-.0562,.542,.0444,.2059,.1122,.3287,.2698,.3679,.4728,.0386,.204-.0078,.4265-.1397,.6682Zm.4022,.9678c.1566-.2875,.3132-.575,.4699-.8625,.1445-.265,.3176-.4448,.5201-.5385,.2021-.0939,.4042-.0862,.6057,.0241,.2263,.1228,.3544,.2959,.3849,.5182,.0305,.2214-.0392,.4883-.2079,.7977-.1435,.2639-.2871,.5279-.4307,.7919-.4474-.2437-.8948-.4873-1.342-.731Z"/><path d="M13.311,15.6803c-.5587-.5161-1.1174-1.032-1.6761-1.548l.2578-.2784c.1135-.1227,.2451-.204,.3939-.2418,.1489-.0377,.3443-.0396,.5854-.0067,.2413,.0339,.6745,.1353,1.2995,.3065,.2843,.0763,.4971,.1247,.6382,.1469,.2632-.285,.5265-.5698,.7899-.8547-.29-.0512-.7875-.1769-1.4928-.379-.4129-.1122-.7238-.1721-.9321-.1827-.2084-.0096-.4052,.0173-.5909,.0812,.1151-.3181,.1427-.6131,.0827-.8848-.0599-.2717-.2026-.5115-.4278-.7193-.3312-.3065-.7087-.4371-1.1323-.3936-.4235,.0444-.8073,.2534-1.152,.6255-.44,.4763-.8801,.9527-1.3203,1.4291,1.3227,1.2225,2.6453,2.4449,3.9681,3.6674,.2363-.256,.4725-.5118,.7087-.7677Zm-2.2751-2.102c-.3683-.3405-.7368-.6807-1.1052-1.0211,.147-.1592,.2939-.3184,.4409-.4776,.1943-.2098,.3892-.3297,.584-.3607,.1948-.0309,.3834,.0388,.5652,.206,.174,.1614,.2585,.3452,.2528,.553-.0053,.2069-.101,.411-.2862,.6121-.1506,.1627-.3011,.3255-.4516,.4883Z"/><path d="M13.9796,6.9841c.1425,.0309,.2722,.0107,.3892-.06,.1232-.0754,.2006-.1847,.2314-.3268,.031-.1422,.0121-.2698-.056-.382-.0711-.1169-.1774-.1924-.3192-.2271-.1415-.0349-.2722-.0156-.3911,.057-.117,.0706-.1938,.1769-.2311,.319-.0377,.1422-.0197,.2727,.0522,.3916,.074,.1209,.1818,.1973,.3245,.2283Z"/><path d="M16.7889,12.3599l-.2379-1.3953,2.0522-1.2482,1.1621,.8325,.9418-.5734-4.8466-3.3754-.9122,.5551,.905,5.7732,.9355-.5685Zm1.1114-3.1433l-1.4899,.9059-.4012-2.2586,1.8912,1.3527Z"/><path d="M15.6165,5.9901c.1392,.0318,.2678,.0115,.3843-.0591,.119-.0724,.1957-.1788,.2296-.319,.0344-.1393,.015-.2688-.0576-.3878-.071-.117-.1779-.1924-.3204-.2262-.1431-.0339-.2717-.0156-.3864,.054-.119,.0717-.1953,.1779-.2296,.3181-.0339,.1402-.0145,.2698,.0575,.3887,.0755,.1227,.1828,.2002,.3225,.2311Z"/><polygon points="22.3291 9.5067 21.3966 5.789 25.4613 8.7216 26.3316 8.5031 25.0175 3.2625 24.0269 3.511 24.9441 7.1687 20.9136 4.2913 20.0246 4.5146 21.3385 9.7551 22.3291 9.5067"/><polygon points="28.8774 4.6441 31.8346 8.6906 32.73 8.7525 33.1026 3.3621 32.084 3.2925 31.8239 7.0536 28.8818 3.0701 27.9675 3.0073 27.5943 8.3976 28.613 8.4672 28.8774 4.6441"/><path d="M35.3473,8.2072l2.2397,.8663,.0489,1.429,1.0278,.3975-.2766-5.9-.9954-.3849-4.0266,4.235,1.0205,.3954,.9616-1.0385Zm2.1286-2.3196l.0798,2.3234-1.6268-.6285,1.5471-1.6949Z"/><path d="M37.2216,4.0138c.1348,.0521,.2678,.0474,.3998-.0145,.132-.0629,.2218-.1558,.2693-.2775,.0493-.1276,.0444-.2582-.0146-.3915-.0589-.1335-.1537-.2253-.2833-.2756-.1276-.0493-.2591-.0455-.3945,.0116-.1354,.0571-.2277,.1498-.278,.2804-.0513,.1315-.046,.264,.0164,.3954,.0624,.1324,.1571,.2224,.2847,.2717Z"/><path d="M39.0036,4.7032c.13,.0502,.2606,.0464,.3926-.0117,.1315-.058,.2224-.1528,.2726-.2823,.0493-.1276,.044-.2581-.0164-.3916-.06-.1343-.1528-.2252-.2775-.2735-.13-.0504-.2611-.0465-.3926,.0115-.132,.0589-.2229,.1528-.2727,.2823-.0521,.1345-.0483,.2669,.0121,.3964,.0605,.1306,.1543,.2195,.2819,.2689Z"/><path d="M39.7022,11.6813c.1591,.2059,.3795,.4089,.6613,.6091,.4332,.3074,.8683,.4409,1.3054,.4022,.4371-.0396,.7899-.2485,1.0587-.6266,.2075-.2919,.3051-.5994,.293-.9213-.0121-.3211-.1387-.6952-.3795-1.1226-.2856-.4932-.4447-.7832-.4781-.8702-.1251-.3006-.1286-.5337-.0106-.7001,.0986-.1382,.2373-.2069,.4172-.204,.1798,.0029,.377,.0802,.5917,.2321,.3535,.2513,.6604,.6758,.9214,1.2752,.1788-.2523,.3578-.5046,.5366-.757-.2451-.497-.582-.8973-1.0114-1.2009-.4521-.321-.8939-.4689-1.3251-.4448-.4313,.0242-.7784,.2214-1.041,.5917-.1967,.2776-.2842,.5821-.262,.9138,.0222,.3317,.1508,.7,.3857,1.1041,.1924,.3481,.3452,.6382,.4588,.8702,.132,.2863,.1252,.5318-.0193,.7358-.1059,.1489-.2552,.2233-.4478,.2233-.1923-.0009-.3925-.0754-.6008-.2224-.4163-.296-.7213-.8065-.9147-1.5316-.1984,.2798-.3969,.5594-.5952,.8393,.1446,.3306,.2963,.5984,.4554,.8045Z"/><polygon points="44.9596 16.5437 45.5639 15.9945 43.8819 14.1419 45.0186 13.1102 46.5942 14.8458 47.1985 14.2967 45.6228 12.562 46.6739 11.6077 48.3196 13.4197 48.9238 12.8714 46.5762 10.286 42.5757 13.9176 44.9596 16.5437"/><polygon points="46.2698 18.6738 46.7672 19.5923 50.8005 17.408 51.7143 19.0952 52.4317 18.7066 50.1078 14.4146 49.3903 14.8033 50.3036 16.4905 46.2698 18.6738"/><path d="M28.7493,46.992c10.0754,0,18.2427-8.1673,18.2427-18.2429S38.8246,10.5064,28.7493,10.5064,10.507,18.6741,10.507,28.7491s8.1673,18.2429,18.2422,18.2429Zm-16.2917-11.3592c-.452-1.0686-.7976-2.1821-1.0301-3.3188-.2398-1.172-.3592-2.3685-.3592-3.5649s.1194-2.3927,.3592-3.5646c.2325-1.1367,.5781-2.2502,1.0301-3.3188,.4443-1.0505,.9915-2.0576,1.6301-3.0026,.6342-.9384,1.3585-1.8158,2.1593-2.6166,.8009-.8009,1.6782-1.5252,2.6165-2.1594,.9451-.6386,1.9521-1.1858,3.0026-1.6302,1.0685-.4521,2.1821-.7977,3.3187-1.0302,1.1718-.2397,2.3682-.3592,3.5646-.3592s2.3928,.1195,3.5648,.3592c1.1366,.2325,2.2503,.5782,3.3188,1.0302,1.0506,.4445,2.0575,.9916,3.0025,1.6302,.9385,.6342,1.8159,1.3585,2.6168,2.1594,.8007,.8009,1.5251,1.6782,2.1592,2.6166,.6387,.945,1.1858,1.952,1.6301,3.0027,.4521,1.0685,.7977,2.182,1.0302,3.3185,.2397,1.172,.3591,2.3685,.3591,3.5647s-.1194,2.3929-.3591,3.5649c-.2325,1.1367-.5781,2.2502-1.0302,3.3188-.4443,1.0505-.9915,2.0576-1.63,3.0026-.6342,.9384-1.3586,1.8157-2.1594,2.6166-.8008,.8008-1.6782,1.5251-2.6166,2.1593-.9451,.6387-1.9521,1.1858-3.0026,1.6301-1.0685,.452-2.1822,.7977-3.3187,1.0302-1.172,.2397-2.3685,.3592-3.5649,.3592-1.1964-.0001-2.3928-.1194-3.5646-.3592-1.1367-.2325-2.2502-.5782-3.3187-1.0302-1.0506-.4443-2.0575-.9915-3.0026-1.6301-.9383-.6342-1.8156-1.3585-2.6165-2.1593-.8008-.8009-1.5251-1.6782-2.1593-2.6165-.6385-.9451-1.1857-1.9521-1.6301-3.0027Z"/><path d="M19.3025,39.4905c.2117,.1929,.4427,.3733,.6762,.5272,.12,.0791,.243,.1515,.3658,.2242,.1131,.0671,.2301,.1174,.3452,.1785,.0543,.0287,.1047,.0476,.1629,.0609,.054,.0123,.1005,.0567,.1568,.0721,.0594,.0162,.1172,.0278,.176,.0479,.0681,.0232,.1374,.045,.2071,.0599,.134,.0287,.2723,.0609,.4081,.0715,.1422,.011,.284,.0235,.4243,.0538,.1376,.0297,.2765,.049,.4146,.0757,.0641,.0125,.1239,.0367,.1864,.0565,.0477,.0151,.0956,.0245,.14,.0519,.1691,.1049,.1264,.3616,.2625,.499,.0674,.0679,.1575,.0919,.2429,.1057,.1372,.022,2.5781,.1365,4.9056,.15,2.4952,.0144,5.062-.1071,5.3466-.1517,.0992-.0156,.2042-.035,.2783-.1224,.0737-.0869,.0846-.2175,.117-.3288,.0358-.1229,.1377-.1639,.2338-.1965,.132-.0448,.2658-.0862,.4032-.0989,.1389-.0128,.2762-.043,.4146-.0635,.1375-.0204,.2766-.0292,.4136-.0521,.268-.0448,.528-.1201,.7825-.2295,.1319-.0568,.2638-.1157,.3934-.1798,.1246-.0616,.2404-.1425,.3596-.2167,.2414-.1501,.4593-.3314,.6942-.5044,.9398-.6924,2.5074-1.6178,3.0781-2.0289,.0519-.0374,.0856-.0986,.1129-.1594,.0516-.1146,.0569-.2649-.0559-.3232-.1281-.0662-.2456-.0588-.3819-.0568-6.1786,.0908-10.9183,.1499-10.8871,.1409,.9023-.2608,3.4197-.0363,3.7562-.6512,.0761-.1391,.2676-.5031,.3385-.6461,.0707-.1425,.1286-.2923,.1871-.4421l.2215-.6241c.0344,.0386,.0687,.0925,.1113,.1426,.3315,.3799,.7061,.423,.9882,.3163,.4234-.1601,.5657-.8611,.0362-1.1724-.2822-.1658-.4369-.2571-.4883-.5476-.1764-.9956,3.16-2.1122,3.16-2.1122,.5112-.2468,.4099,.2417,1.1879-.4579,.3036-.273,.5431-.6232,.716-1.0186,.326-.7454,.3603-1.5816,.0964-2.3545-.5633-1.6502-2.3203-2.4769-3.855-1.7756l-.4337,.2256,.049-.1155c.0585-.1479,.1235-.2917,.189-.4354,.0629-.1379,.1434-.272,.1952-.4158,.0415-.1153,.0974-.2576,.082-.3852,0,0-.0016-.2034-.2255-.3139-.1209-.0596-.2509-.0524-.3788-.0524-.1463,0-3.5074,.0675-7.4415,.0675-3.6021,0-6.5032-.0663-6.6498-.0663-.1288,0-.2624,.009-.3763,.0897-.0812,.0576-.1322,.1737-.1454,.2822-.0154,.1277,.0405,.2699,.082,.3852,.0518,.1439,.1323,.278,.1952,.4158,.0656,.1437,.1306,.2875,.1891,.4354,.1165,.2947,.215,.5947,.2985,.9045,.0424,.1572,.0885,.3131,.1261,.472,.0361,.1525,.0805,.3068,.102,.4633,.0439,.3188,.1232,.6305,.1706,.9497,.0502,.3381,.0822,.6798,.1168,1.0205,.0172,.17,.0401,.3401,.0546,.5104,.0137,.1616,.105,1.1316,.128,1.4576,.0112,.158,.0912,.7842,.1136,.9409,.0218,.153,.1453,.836,.1591,.9078,.0309,.1616,.4009,1.5618,.5202,1.8671,.0585,.1498,.1165,.2996,.1871,.4421,.0709,.143,.2788,.507,.355,.6461,.3365,.6149,2.686,.3532,3.7398,.6512,.0312,.0089-5.2023,.0049-10.8215-.1443-.1622-.0043-.6469-.0318-.5331,.3004,.0474,.1387,.1005,.264,.2168,.334,.9137,.5494,2.6837,1.6404,2.9026,1.84Zm15.575-9.1921c.3618,.6685,1.4202,.1983,.991-.6707l-.1492-.3842c-.3131-.9173,.1305-1.9315,.9908-2.2654,.8604-.3338,1.8116,.1391,2.1248,1.0564,.3131,.9172-.1082,1.9252-.9908,2.2653-2.0657,.7959-2.9069,1.5836-3.1458,1.8045,.0642-.4745,.1793-1.8059,.1793-1.8059Zm-11.1856,2.8503c-.4971-2.5854-.5447-4.9534-.4986-5.5281,.1155-.5956,.6002-.5591,.5985,.0315,.0779,.4221-.4514,4.5706,.7607,7.9332,.5787,1.7559-.5394-.6321-.8607-2.4366Z"/></svg>