<?xml version="1.0" encoding="UTF-8"?><svg id="Lager_1" xmlns="http://www.w3.org/2000/svg" width="20.2847mm" height="20.2847mm" viewBox="0 0 57.5 57.5"><defs><style>.cls-1{fill:none;}.cls-2{stroke:#1c1541;stroke-linecap:round;stroke-linejoin:round;stroke-width:.0075px;}.cls-3{fill:#151514;}</style></defs><path class="cls-2" d="M14.3621,34.464c.8111,1.2697,2.2605,1.9837,3.7615,1.853,.0244-.0021,.049,.0018,.0716,.0114,.0764,.0324,.1121,.1205,.0796,.1969l-.0293,.0709-.0281,.072-.0269,.0729-.0256,.0738-.0243,.0748-.023,.0756-.0216,.0765-.0202,.0774-.0188,.0781-.0173,.0788-.0158,.0795-.0143,.0802-.0126,.0808-.0111,.0814-.0095,.0819-.0078,.0824-.0062,.0828-.0045,.0832-.0028,.0835-.0011,.0838,.0007,.084,.0024,.0842,.0042,.0843,.0059,.0844,.0077,.0844,.0095,.0843,.0113,.0842,.0131,.0841,.0148,.0838,.0166,.0835,.0184,.0832,.0202,.0828,.0219,.0824,.0236,.0819,.0253,.0814,.027,.0807,.0287,.0801,.0303,.0794,.0319,.0786,.0335,.0778,.0351,.0769,.0366,.0761,.0381,.0751,.0395,.0741,.0409,.0731,.0424,.072,.0437,.0709,.0449,.0698,.0463,.0686,.0474,.0674,.0486,.0662,.0498,.0649,.0509,.0636,.0519,.0623,.0528,.061,.0538,.0596,.0547,.0583,.0556,.0568,.0564,.0555,.0571,.0541,.0578,.0526,.0585,.0512,.0591,.0498,.0596,.0484,.0462,.0361,.0467,.0354,.0472,.0347,.0478,.0339,.0495,.034,.0499,.0332,.0505,.0325,.0509,.0316,.0525,.0315,.053,.0307,.0534,.0299,.0539,.0291,.0553,.0287,.0558,.0278,.0561,.027,.0566,.0262,.0578,.0256,.0581,.0247,.0586,.0238,.0589,.0229,.0599,.0223,.0602,.0213,.0605,.0204,.0608,.0195,.0616,.0186,.0619,.0177,.0621,.0168,.0624,.0158,.0628,.0149,.0631,.0139,.0632,.0129,.0635,.012,.0636,.011,.0638,.01,.0639,.0091,.0641,.008,.0639,.0071,.0641,.0061,.0641,.0051,.0642,.0041,.0638,.0031,.0638,.0021,.0639,.0011h.0639l.0632-.0008,.0631-.0018,.0632-.0028,.0631-.0038,.0621-.0046,.0621-.0056,.0619-.0066,.0619-.0076,.0606-.0084,.0605-.0093,.0604-.0102,.0602-.0112,.0588-.0118,.0586-.0128,.0584-.0136,.0582-.0145,.0566-.0151,.0564-.0159,.0561-.0168,.0559-.0176,.0751-.0252,.0747-.0267,.0742-.0282,.0737-.0297,.0732-.0311,.0726-.0326,.072-.034,.0713-.0355,.0706-.0368,.0698-.0382,.0691-.0396,.0682-.0409,.0674-.0422,.0664-.0435,.0655-.0447,.0645-.0459,.0486-.0359,.0481-.0367,.0474-.0375,.0468-.0382c.0172-.0142,.0373-.0245,.0589-.03,.0804-.0205,.1621,.0281,.1826,.1085,.5623,2.1632,2.7717,3.461,4.9349,2.8987,1.4583-.3791,2.5852-1.5368,2.9247-3.0047,.0055-.0239,.0168-.0461,.0329-.0646,.0544-.0626,.1492-.0693,.2118-.0149l.0585,.0498,.0598,.049,.061,.0481,.0624,.0472,.0636,.0462,.0649,.0452,.0661,.0442,.0673,.0431,.0685,.042,.0696,.0408,.0708,.0396,.0718,.0384,.0729,.0371,.0739,.0357,.0749,.0343,.0759,.0329,.0768,.0315,.0777,.0299,.0785,.0285,.0794,.0269,.0801,.0253,.0808,.0237,.0815,.0221,.0821,.0204,.0826,.0187,.0831,.017,.0835,.0152,.0839,.0135,.0844,.0118,.0846,.01,.0848,.0082,.085,.0065,.0851,.0046,.0852,.0028,.0852,.0011,.0851-.0007,.085-.0025,.0848-.0043,.0846-.0061,.0844-.0078,.084-.0096,.0836-.0113,.0832-.013,.0827-.0147,.0822-.0164,.0816-.018,.0809-.0196,.0803-.0212,.0795-.0228,.0788-.0243,.0779-.0258,.0771-.0272,.0762-.0287,.0753-.0301,.0743-.0314,.0734-.0328,.0723-.0341,.0712-.0352,.0702-.0365,.0691-.0376,.0679-.0387,.0668-.0398,.0656-.0408,.0644-.0418,.0486-.0327,.0481-.0335,.0476-.0342,.0471-.0349,.0476-.0365,.047-.0372,.0465-.038,.0459-.0386,.0462-.0402,.0455-.0409,.0449-.0416,.0443-.0422,.0444-.0437,.0437-.0444,.0431-.0451,.0423-.0457,.0422-.0471,.0415-.0476,.0408-.0483,.04-.0489,.0396-.0501,.0389-.0507,.0381-.0513,.0374-.0518,.0368-.0528,.0359-.0534,.0352-.0539,.0343-.0544,.0336-.0552,.0327-.0557,.0319-.0562,.031-.0566,.0301-.0572,.0292-.0576,.0284-.058,.0275-.0585,.0265-.0587,.0255-.0591,.0246-.0594,.0237-.0598,.0226-.0598,.0217-.0601,.0208-.0604,.0199-.0608,.0187-.0604,.0178-.0606,.0168-.0609,.0159-.0612,.0147-.0605,.0138-.0608,.0129-.0609,.0119-.0612,.0108-.0602,.0099-.0605,.0089-.0605,.008-.0607,.0069-.0596,.006-.0597,.0051-.0598,.0041-.0598,.0032-.0585,.0023-.0586,.0014-.0586,.0005-.0586-.0008-.0792-.0024-.0792-.0039-.0793-.0055-.0793-.007-.0792-.0086-.0791-.0101-.079-.0116-.0788-.0132-.0785-.0148-.0782-.0163-.0779-.0178-.0775-.0194-.0771-.0208-.0766-.0222-.0761-.0238-.0755-.0191-.0574-.0201-.057-.021-.0567-.0219-.0563c-.0082-.0208-.0118-.0431-.0103-.0653,.0054-.0828,.0768-.1455,.1595-.1401,2.2311,.1337,4.1481-1.5666,4.2818-3.7977,.0901-1.504-.6627-2.9335-1.9539-3.7101-.021-.0126-.0386-.0302-.0513-.0512-.0427-.0711-.0198-.1634,.0513-.2061l.0654-.0402,.0651-.0417,.0646-.0432,.0641-.0447,.0636-.0462,.0631-.0477,.0625-.0492,.0618-.0506,.0611-.0522,.0603-.0536,.0595-.0551,.0587-.0565,.0578-.0579,.0568-.0593,.0558-.0607,.0548-.062,.0536-.0634,.0525-.0646,.0514-.0659,.0501-.0672,.0488-.0684,.0475-.0695,.0462-.0706,.0448-.0718,.0433-.0728,.0419-.0738,.0403-.0748,.0388-.0756,.0372-.0765,.0356-.0774,.0341-.0781,.0324-.0788,.0307-.0795,.029-.0801,.0274-.0806,.0256-.0812,.0239-.0816,.0221-.082,.0204-.0824,.0186-.0826,.0169-.0829,.0151-.083,.0134-.0831,.0116-.0832,.0098-.0832,.0081-.0832,.0064-.0831,.0046-.0829,.0029-.0827,.0012-.0824-.0004-.0821-.0021-.0818-.0038-.0814-.0054-.0809-.0069-.0804-.0085-.0799-.01-.0793-.0115-.0786-.013-.078-.0144-.0773-.0158-.0766-.0172-.0758-.0185-.075-.0198-.0742-.0161-.0564-.017-.0561-.0178-.0558-.0187-.0556-.02-.0565-.0209-.0562-.0218-.0559-.0226-.0556-.0239-.0564-.0248-.0559-.0257-.0556-.0265-.0552-.0278-.0558-.0287-.0553-.0295-.0548-.0304-.0544-.0317-.0546-.0325-.0542-.0334-.0536-.0342-.0532-.0354-.0532-.0362-.0527-.037-.0521-.0378-.0515-.0389-.0513-.0396-.0507-.0404-.0501-.0412-.0495-.0421-.0489-.0428-.0484-.0436-.0477-.0443-.0469-.0451-.0464-.0457-.0456-.0464-.0449-.0472-.0442-.0476-.0433-.0483-.0426-.0489-.0418-.0496-.0411-.0498-.04-.0504-.0392-.0511-.0384-.0516-.0376-.0516-.0364-.0522-.0356-.0528-.0349-.0532-.034-.053-.0327-.0535-.0319-.054-.0311-.0545-.0302-.054-.0289-.0544-.0281-.0548-.0272-.0553-.0264-.0545-.025-.0549-.0242-.0553-.0233-.0556-.0224-.0547-.0211-.055-.0202-.0553-.0194-.0556-.0186-.0756-.0237-.0761-.0223-.0766-.0208-.0771-.0193-.0775-.0178-.0779-.0163-.0782-.0148-.0785-.0132-.0788-.0117-.0789-.0101-.0792-.0085-.0792-.0071-.0793-.0054-.0793-.0039-.0793-.0024-.0792-.0008-.0605,.0005-.0604,.0015-.0604,.0025-.0604,.0034c-.0222,.0014-.0445-.0021-.0652-.0104-.0771-.0306-.1146-.118-.084-.1951,.8166-2.0806-.2081-4.4291-2.2886-5.2457-1.4025-.5505-2.9947-.2762-4.1323,.7118-.0185,.0161-.0407,.0274-.0646,.0329-.0808,.0187-.1615-.0316-.1802-.1124l-.018-.0746-.0196-.0748-.0211-.0748-.0226-.0749-.0243-.0748-.0258-.0748-.0275-.0746-.0291-.0744-.0307-.0742-.0323-.0739-.034-.0736-.0356-.0732-.0372-.0728-.0389-.0724-.0404-.0718-.0421-.0712-.0437-.0706-.0452-.0699-.0468-.0692-.0484-.0684-.0499-.0676-.0515-.0666-.0529-.0657-.0544-.0648-.0558-.0637-.0572-.0626-.0586-.0615-.0599-.0603-.0613-.0591-.0625-.0578-.0638-.0565-.0649-.0552-.0661-.0538-.0672-.0524-.0683-.0509-.0693-.0494-.0702-.0479-.0712-.0464-.072-.0449-.0729-.0432-.0736-.0416-.0743-.0401-.0749-.0384-.0755-.0367-.0761-.0351-.0766-.0334-.077-.0316-.0774-.03-.0778-.0284-.078-.0266-.0782-.0249-.0784-.0232-.0785-.0216-.0786-.0199-.0786-.0183-.0786-.0166-.0785-.015-.0784-.0134-.0782-.0117-.0779-.0102-.0778-.0086-.0774-.0071-.0771-.0055-.0766-.0041-.0586-.0021-.0586-.0012-.0586-.0003-.0586,.0006-.0599,.0016-.0599,.0025-.0599,.0034-.0598,.0044-.061,.0054-.0609,.0063-.0608,.0072-.0607,.0082-.0616,.0092-.0615,.0102-.0613,.0112-.0611,.0121-.0618,.0132-.0616,.0142-.0614,.0151-.0611,.0161-.0615,.0172-.0613,.0182-.0609,.0191-.0607,.02-.0608,.0211-.0605,.0221-.0601,.0229-.0598,.0239-.0596,.0249-.0592,.0258-.0588,.0267-.0584,.0276-.0579,.0285-.0575,.0294-.0571,.0303-.0566,.0312-.0559,.0319-.0554,.0328-.0549,.0336-.0544,.0345-.0534,.0351-.0529,.0358-.0524,.0366-.0518,.0375-.0506,.0378-.0501,.0386-.0494,.0394-.0488,.0402-.0475,.0403-.0469,.041-.0462,.0418-.0456,.0425-.0441,.0424-.0435,.0431-.0428,.0437-.0422,.0444-.0406,.0442-.0399,.0447-.0392,.0454-.0385,.0459-.0369,.0455-.0363,.0461-.0355,.0466-.0348,.0472-.0459,.0645-.0447,.0655-.0435,.0665-.0422,.0674-.0409,.0682-.0396,.069-.0382,.0699-.0368,.0706-.0355,.0713-.0341,.0719-.0326,.0726-.0311,.0732-.0297,.0737-.0282,.0742-.0267,.0746-.0252,.0751-.0182,.0576-.0172,.0579-.0164,.0582-.0154,.0584c-.0055,.0216-.0158,.0417-.03,.0589-.053,.0638-.1476,.0726-.2115,.0196-1.7263-1.4196-4.2767-1.1708-5.6962,.5556-.9569,1.1638-1.1882,2.7628-.6001,4.15,.0096,.0226,.0135,.0472,.0114,.0716-.0072,.0826-.08,.1438-.1626,.1366l-.0766-.0059-.0771-.0045-.0776-.003-.0782-.0016h-.0786l-.0791,.0015-.0795,.0031-.0798,.0046-.0801,.0062-.0804,.0079-.0805,.0095-.0806,.0112-.0808,.0129-.0808,.0146-.0808,.0163-.0808,.018-.0806,.0197-.0805,.0214-.0802,.0232-.08,.0249-.0797,.0266-.0793,.0284-.0789,.03-.0784,.0318-.0778,.0334-.0772,.0351-.0766,.0368-.0759,.0384-.0751,.0401-.0743,.0416-.0735,.0432-.0725,.0448-.0716,.0462-.0706,.0478-.0695,.0492-.0684,.0506-.0673,.052-.0661,.0534-.0649,.0546-.0636,.0559-.0623,.0571-.0611,.0584-.0596,.0594-.0582,.0605-.0569,.0616-.0554,.0625-.0539,.0634-.0525,.0644-.0509,.0652-.0494,.066-.0479,.0667-.0464,.0674-.0448,.0681-.0432,.0686-.0416,.0691-.0401,.0696-.0385,.0701-.0369,.0704-.0354,.0707-.0338,.0711-.0322,.0712-.0306,.0714-.0291,.0716-.0276,.0717-.0201,.0551-.0192,.0554-.0184,.0556-.0175,.0559-.0171,.0575-.0162,.0578-.0152,.058-.0144,.0582-.0138,.0596-.0128,.0599-.0119,.0601-.011,.0602-.0102,.0615-.0093,.0616-.0083,.0618-.0074,.0618-.0065,.0629-.0056,.0629-.0045,.0631-.0036,.0631-.0027,.0638-.0016,.0639-.0007,.0639,.0003,.0639,.0013,.0644,.0023,.0643,.0032,.0643,.0042,.0642,.0053,.0644,.0062,.0643,.0072,.0642,.0082,.0641,.0092,.0639,.0102,.0638,.0112,.0636,.0121,.0634,.0131,.063,.014,.0628,.0151,.0626,.0159,.0624,.0168,.0616,.0178,.0614,.0187,.0611,.0196,.0608,.0204,.0598,.0213,.0595,.0222,.0592,.0231,.0588,.0236,.0576,.0246,.0572,.0254,.0569,.0263,.0565,.0266,.0551,.0275,.0547,.0284,.0542,.0292,.0538,.0295,.0523,.0302,.0518,.0311,.0514,.0318,.0509,.0318,.0492,.0326,.0487,.0334,.0482,.0341,.0476,.0472,.0636,.0485,.0628,.0498,.0619,.051,.0609,.0522,.0599,.0535,.059,.0546,.0579,.0558,.0568,.0568,.0558,.0579,.0546,.059,.0534,.0599,.0522,.061,.051,.0618,.0498,.0628,.0485,.0636,.0472,.0492,.0352,.0498,.0343,.0503,.0335,.0508,.0327c.0188,.0119,.0348,.0279,.0467,.0467,.0443,.0701,.0234,.1629-.0467,.2072-1.8836,1.2032-2.4351,3.7056-1.2319,5.5891Zm1.6594-6.0369c-.0476-.0754-.1115-.1392-.1869-.1869-1.1273-.7211-1.761-2.0085-1.6449-3.3416,.1723-1.9788,1.916-3.4433,3.8948-3.271,.3305,.0288,.6217-.2159,.6505-.5463,.0085-.0978-.0071-.1961-.0454-.2864-.5223-1.232-.3175-2.6522,.5318-3.6864,1.2606-1.535,3.5269-1.7575,5.0619-.4969,.2552,.2119,.6339,.1769,.8458-.0783,.0569-.0686,.0979-.1491,.1199-.2355,.3375-1.2949,1.366-2.2955,2.6697-2.597,1.9352-.4476,3.8668,.7583,4.3145,2.6934,.0748,.3232,.3974,.5246,.7206,.4498,.0956-.0222,.1844-.0674,.2584-.1317,1.0103-.8775,2.4243-1.1215,3.6703-.6333,1.8494,.7245,2.7613,2.8112,2.0367,4.6605-.1227,.3082,.0277,.6575,.3359,.7802,.0829,.033,.1721,.0471,.2611,.0414,1.3358-.0792,2.6052,.5898,3.2949,1.7366,1.0238,1.7021,.4738,3.9119-1.2284,4.9356-.2842,.171-.3761,.5401-.2051,.8243,.0506,.0841,.121,.1545,.2051,.2051,1.1468,.6897,1.8158,1.959,1.7366,3.2949-.1176,1.9828-1.8203,3.4949-3.8031,3.3773-.3311-.0215-.6168,.2295-.6382,.5605-.0058,.089,.0084,.1782,.0413,.261,.4882,1.246,.2442,2.66-.6333,3.6703-1.3025,1.4996-3.574,1.6594-5.0737,.3569-.2505-.2175-.6298-.1908-.8473,.0596-.0643,.0741-.1095,.1628-.1316,.2584-.3016,1.3038-1.3021,2.3323-2.597,2.6697-1.9221,.5009-3.8863-.6512-4.3872-2.5733-.0819-.3214-.4088-.5156-.7303-.4338-.0864,.022-.1669,.063-.2355,.12-1.0342,.8493-2.4543,1.0542-3.6864,.5318-1.8287-.7753-2.6826-2.8863-1.9073-4.7151,.1295-.3054-.0132-.6579-.3186-.7874-.0904-.0383-.1887-.0539-.2865-.0454-1.3332,.1161-2.6205-.5176-3.3416-1.6449-1.0703-1.6733-.5815-3.8973,1.0917-4.9677,.2804-.1772,.3641-.5482,.1869-.8286Z"/><path class="cls-2" d="M28.9152,28.2717l8.7106-6.3286c.6022-.4382,1.0199-1.0846,1.1722-1.8137l.0011-.0054-1.6737-.5438,1.5916-1.1563c-.0942-.2951-.2294-.5755-.4018-.8329l-2.0529-.6671,.6852-.4978c-.4023-.1845-.8376-.2862-1.28-.2992l.2194,.6751-1.4566-.4733-.0019,.0007c-.3748,.1382-.7213,.3432-1.0229,.6051-.0654,.0568-.1386,.1038-.2175,.1395l-.0049,.0022,.4443,1.3675-2.7472-.8926,1.1632-.8451-.0026-.0047c-.0428-.0752-.0745-.1563-.094-.2407-.09-.3891-.2499-.7587-.4719-1.0908l-.0012-.0017-1.4566-.4733,.5742-.4172c-.3655-.2495-.7775-.4231-1.2114-.5103l.2617,.8055-2.0529-.6671c-.2907,.107-.5649,.2543-.8146,.4377l.6079,1.871-1.6737-.5439-.0022,.005c-.3054,.6792-.3473,1.4478-.1178,2.1563l3.3271,10.2399Zm-2.4397-7.5281l1.8764-1.3633,.7655,2.356-2.6419-.9927Zm2.7394,1.293l.7655,2.356-2.6419-.9927,1.8763-1.3633Zm-1.0133,4.0196l1.8763-1.3632,.7168,2.2057-2.5931-.8425Zm2.1318-1.5489l2.0041-1.456,.7168,2.2058-2.7209-.7498Zm2.2596-1.6416l2.0041-1.4561,.7168,2.2058-2.7209-.7497Zm4.9804-.892l-2.7209-.7497,2.0041-1.456,.7168,2.2057Zm-1.5798-4.8621l.7655,2.356-2.7696-.8999,2.0041-1.4561Zm-2.2596,1.6417l.7655,2.356-2.7696-.8999,2.0041-1.456Zm-1.494,3.9976l-2.7696-.8999,2.0041-1.456,.7655,2.3559Zm-.8631-2.6563l-2.7696-.8999,2.0041-1.456,.7655,2.3559Zm-1.6286-5.0122l.7655,2.356-2.7696-.8999,2.0041-1.4561Zm-2.2596,1.6417l.7655,2.356-2.6419-.9927,1.8763-1.3633Z"/><path class="cls-2" d="M15.5702,29.8242l1.0345,1.4238h-1.9673c-.0973,.2941-.1526,.6004-.1646,.9099l1.2688,1.7463h-.847c.2171,.3858,.5094,.7239,.8597,.9945l.2194-.6751,.9002,1.239,.002,.0006c.3844,.1085,.7853,.1464,1.1832,.1117,.0862-.0075,.1731-.0024,.2579,.015l.0053,.0011,.4443-1.3675,1.6979,2.3369h-1.4378l-.0006,.0053c-.0096,.0861-.0316,.1703-.0654,.25-.1559,.3678-.2438,.7607-.2594,1.1599v.0021l.9001,1.239h-.7098c.149,.4167,.3803,.7993,.6801,1.1249l.2617-.8055,1.2688,1.7463c.2981,.0844,.6065,.1264,.9162,.1247l.6079-1.871,1.0345,1.4238,.0047-.0027c.6463-.3701,1.132-.9671,1.3628-1.6753l3.3271-10.2399h-10.7668c-.7448,.0006-1.4628,.278-2.0144,.7784l-.0041,.0036Zm4.3588,9.3987l.7655-2.356,1.7117,2.356h-2.4772Zm.8631-2.6563l.7655-2.356,1.7117,2.356h-2.4772Zm1.9299,2.6563l.7655-2.356,1.5538,2.356h-2.3193Zm.8631-2.6563l.7655-2.356,1.5538,2.356h-2.3193Zm2.4429-7.5184l1.6026,2.2058h-2.3193l.7167-2.2058Zm.7395,4.8621h-2.3193l.7655-2.3559,1.5538,2.3559Zm-3.5325-4.8621l1.7605,2.2058h-2.4772l.7167-2.2058Zm.8974,4.8621h-2.4772l.7655-2.3559,1.7117,2.3559Zm-3.6904-4.8621l1.7605,2.2058h-2.4772l.7167-2.2058Zm.8974,4.8621h-2.4772l.7655-2.3559,1.7117,2.3559Zm-3.6904-4.8621l1.7605,2.2058h-2.4772l.7167-2.2058Zm.8974,4.8621h-2.4772l.7655-2.3559,1.7117,2.3559Z"/><path class="cls-2" d="M28.3554,28.4536l-3.3271-10.2399c-.2307-.7081-.7164-1.3052-1.3628-1.6752l-.0047-.0028-1.0345,1.4238-.6079-1.871c-.3098-.0016-.6182,.0404-.9162,.1246l-1.2688,1.7463-.2617-.8055c-.2998,.3256-.5311,.7081-.6801,1.1249h.7098l-.9002,1.239v.0021c.0157,.3991,.1036,.7921,.2595,1.1599,.0338,.0797,.0558,.1639,.0654,.25l.0006,.0053h1.4378l-1.6979,2.3369-.4443-1.3675-.0053,.0011c-.0848,.0174-.1717,.0225-.2579,.015-.3979-.0346-.7988,.0032-1.1832,.1117l-.002,.0006-.9002,1.239-.2194-.6751c-.3503,.2705-.6426,.6087-.8597,.9944h.847l-1.2688,1.7463c.0119,.3096,.0673,.6159,.1646,.91h1.9673l-1.0345,1.4238,.0041,.0036c.5516,.5003,1.2696,.7778,2.0144,.7784h10.7668Zm-7.9135-.0061l-.7167-2.2057h2.4772l-1.7605,2.2057Zm1.2132-4.8621h2.4772l-1.7117,2.356-.7655-2.356Zm1.5798,4.8621l-.7167-2.2057h2.4772l-1.7605,2.2057Zm2.793,0l-.7167-2.2057h2.3193l-1.6026,2.2057Zm-.8143-2.5061l-.7655-2.356h2.3193l-1.5538,2.356Zm-.8631-2.6563l-.7655-2.356h2.3193l-1.5538,2.356Zm.6907-5.0122l-1.5538,2.356-.7655-2.356h2.3193Zm-1.772,2.6563l-1.7117,2.356-.7655-2.356h2.4772Zm-3.3403-2.6563h2.4772l-1.7117,2.356-.7655-2.356Zm1.4103,5.3125l-1.7117,2.356-.7655-2.356h2.4772Zm-5.2701,0h2.4772l-1.7117,2.356-.7655-2.356Zm3.3403,2.6563l-1.7605,2.2057-.7167-2.2057h2.4772Z"/><path class="cls-2" d="M38.798,37.3664c-.1522-.7291-.57-1.3755-1.1722-1.8137l-8.7106-6.3285-3.3271,10.2399c-.2296,.7085-.1876,1.477,.1178,2.1563l.0022,.005,1.6737-.5439-.6079,1.871c.2496,.1834,.5239,.3307,.8146,.4377l2.0529-.6671-.2617,.8055c.4339-.0872,.8459-.2608,1.2114-.5103l-.5742-.4172,1.4566-.4733,.0012-.0017c.2219-.3321,.3819-.7016,.4719-1.0908,.0195-.0844,.0512-.1654,.094-.2407l.0026-.0046-1.1632-.8451,2.7472-.8926-.4443,1.3675,.0049,.0022c.0789,.0357,.1521,.0827,.2175,.1395,.3016,.2619,.6482,.4669,1.0229,.6051l.0019,.0008,1.4566-.4733-.2194,.6751c.4424-.013,.8777-.1148,1.28-.2992l-.6852-.4978,2.0529-.6671c.1724-.2574,.3076-.5378,.4018-.8329l-1.5916-1.1563,1.6737-.5439-.0011-.0053Zm-3.484-3.486l-.7168,2.2058-2.0041-1.4561,2.7209-.7497Zm-2.9763,.5641l-2.0041-1.456,2.7209-.7498-.7168,2.2058Zm-1.5428-3.8475l-.7168,2.2058-1.8763-1.3632,2.5931-.8426Zm-.8143,2.5062l-.7655,2.3559-1.8763-1.3632,2.6419-.9927Zm-.8631,2.6563l-.7655,2.356-1.8764-1.3633,2.6419-.9927Zm-1.6286,5.0122l-1.8763-1.3633,2.6419-.9927-.7655,2.356Zm2.2596,1.6416l-2.0041-1.456,2.7696-.8999-.7655,2.3559Zm.8631-2.6563l-2.0041-1.456,2.7696-.8999-.7655,2.3559Zm-1.141-4.1123l2.7696-.8999-.7655,2.356-2.0041-1.456Zm2.2596,1.6416l2.7696-.8999-.7655,2.356-2.0041-1.4561Zm4.2637,3.0977l-2.0041-1.456,2.7696-.8999-.7655,2.3559Zm.8631-2.6563l-2.0041-1.456,2.7209-.7498-.7168,2.2058Z"/><path class="cls-2" d="M29.2612,28.7479l8.7106,6.3286c.6029,.4373,1.3468,.6348,2.0872,.5543l.0054-.0005v-1.7599l1.5916,1.1563c.2516-.1808,.4764-.396,.668-.6395v-2.1586l.6852,.4978c.0511-.4396,.0134-.8851-.111-1.3098l-.5742,.4172v-1.5315l-.0013-.0016c-.2472-.3137-.5493-.58-.8916-.7859-.0742-.0446-.1415-.0998-.1999-.1638l-.0036-.0039-1.1632,.8451v-2.8886l1.1632,.8451,.0036-.0039c.0584-.064,.1257-.1192,.1999-.1638,.3423-.2059,.6443-.4722,.8916-.7859l.0013-.0016v-1.5316l.5742,.4172c.1244-.4248,.1621-.8702,.111-1.3098l-.6852,.4978v-2.1586c-.1916-.2434-.4164-.4586-.668-.6394l-1.5916,1.1563v-1.7599l-.0054-.0005c-.7404-.0806-1.4843,.117-2.0872,.5543l-8.7106,6.3286Zm1.8866,1.3633v-2.7266l1.8764,1.3633-1.8764,1.3633Zm2.2596,1.6416l-.1277-2.8193,2.0041,1.4561-1.8764,1.3632Zm-.1277-3.1905l.1277-2.8193,1.8764,1.3632-2.0041,1.4561Zm2.3873,4.8322l-.1277-2.8193,2.0041,1.456-1.8764,1.3633Zm-.1277-3.1906v-2.9121l2.0041,1.456-2.0041,1.456Zm0-3.2833l.1277-2.8193,1.8764,1.3633-2.0041,1.456Zm2.3873,8.1155l-.1277-2.8193,2.0041,1.456-1.8764,1.3632Zm-.1277-3.1905v-2.9122l2.0041,1.4561-2.0041,1.456Zm0-3.2833v-2.9122l2.0041,1.456-2.0041,1.4561Zm2.2596-4.5538l2.0041,1.4561-2.0041,1.456v-2.9122Zm0,6.5667l2.0041,1.456-2.0041,1.4561v-2.9122Zm-.2555-6.7523l-2.0041,1.456,.1277-2.8193,1.8764,1.3633Z"/><g><path d="M6.2409,16.5353c.2344-.4365,.5391-.7305,.9141-.8828s.7334-.1367,1.0732,.0459c.2178,.1172,.3789,.2783,.4834,.4824,.1035,.2031,.1455,.4404,.126,.7109l.041,.0225c.2529-.291,.541-.4697,.8613-.5352,.3213-.0664,.6309-.0195,.9277,.1406,.2637,.1426,.4629,.3369,.5977,.583,.1348,.2471,.1904,.5186,.166,.8145-.0254,.2959-.125,.6055-.2998,.9307l-1.0723,1.9922-4.7568-2.5615,.9385-1.7432Zm1.8428,1.3086c.1309-.2432,.1768-.4668,.1367-.6699-.04-.2021-.1631-.3594-.3701-.4707-.1836-.0996-.3643-.1133-.542-.042s-.3232,.2129-.4365,.4238l-.3564,.6611,1.2568,.6758,.3115-.5781Zm2.1797,.8965c.167-.3115,.2354-.5781,.2041-.7998s-.1611-.3936-.3877-.5156c-.2021-.1094-.4043-.1162-.6064-.0215-.2012,.0947-.374,.2754-.5166,.541l-.4658,.8643,1.3447,.7246,.4277-.793Z"/><path d="M9.5749,11.7726c.3359-.3809,.7158-.5977,1.1377-.6504,.4229-.0537,.8027,.0693,1.1406,.3682,.2305,.2031,.3779,.4395,.4443,.71,.0654,.2695,.0439,.5654-.0635,.8857,.1836-.0674,.3799-.0986,.5889-.0938,.208,.0059,.5205,.0596,.9355,.1621,.709,.1865,1.21,.3018,1.501,.3457l-.7715,.8721c-.1416-.0186-.3555-.0625-.6406-.1328-.6289-.1572-1.0645-.249-1.3066-.2773-.2412-.0283-.4365-.0215-.585,.0195s-.2773,.124-.3887,.25l-.251,.2832,1.709,1.5117-.6914,.7822-4.0479-3.5791,1.2891-1.457Zm1.5703,1.7041c.1816-.2051,.2725-.4111,.2734-.6182,.001-.208-.0879-.3896-.2656-.5469-.1855-.1641-.375-.2285-.5693-.1943-.1943,.0352-.3857,.1592-.5752,.374l-.4307,.4863,1.127,.9971,.4404-.498Z"/><path d="M13.6599,6.8c.0723,.1094,.0957,.2363,.0713,.3799-.0254,.1436-.0986,.2559-.2188,.3359-.1143,.0752-.2422,.1006-.3867,.0752-.1436-.0254-.2539-.0967-.333-.2148-.0771-.1162-.0996-.2461-.0674-.3896,.0312-.1426,.1035-.252,.2178-.3281,.1162-.0771,.2451-.1006,.3887-.0723,.1426,.0293,.252,.1006,.3281,.2139Zm1.3301,.333l4.9775,3.1797-.918,.6104-1.1953-.7852-2,1.3291,.293,1.3838-.9121,.6055-1.1338-5.7324,.8887-.5908Zm.2578-1.3877c.0771,.1162,.1016,.2441,.0723,.3857-.0283,.1416-.1006,.25-.2158,.3271-.1143,.0762-.2412,.1006-.3828,.0752-.1406-.0254-.251-.0986-.3311-.2188-.0771-.1162-.1006-.2451-.0723-.3857,.0283-.1416,.1006-.251,.2168-.3271,.1113-.0742,.2393-.0977,.3828-.0693,.1445,.0283,.2539,.0986,.3301,.2129Zm.4316,4.8857l1.4531-.9658-1.9443-1.2764,.4912,2.2422Z"/><path d="M19.5124,4.7873l4.1924,2.6357-1.1299-3.5977,.9736-.3057,1.6191,5.1553-.8564,.2686-4.2295-2.6895,1.1484,3.6572-.9736,.3057-1.6191-5.1543,.875-.2754Z"/><path d="M26.8864,3.1457l3.2568,3.7305-.0479-3.7705,1.0215-.0137,.0684,5.4023-.8975,.0117-3.2773-3.792,.0479,3.833-1.0205,.0127-.0684-5.4023,.917-.0117Z"/><path d="M34.3484,3.7345l-1.0967,4.4541,2.5469,.627-.1953,.792-3.5605-.876,1.292-5.2471,1.0137,.25Z"/><path d="M41.0944,6.2931l-.4189,5.8916-.9746-.5156,.1201-1.4248-2.123-1.123-1.0762,.918-.9678-.5127,4.4971-3.7324,.9434,.499Zm-2.7451,2.2754l1.542,.8164,.1934-2.3174-1.7354,1.501Z"/><path d="M45.2966,9.1301l-.3018,4.9424,2.6152-2.7168,.7354,.708-3.7471,3.8936-.6465-.623,.3311-5.001-2.6572,2.7617-.7363-.708,3.7471-3.8926,.6602,.6357Z"/><path d="M50.9509,15.9885c.2764,.4893,.4219,.9814,.4375,1.4756,.0156,.4951-.0977,.9492-.3398,1.3643s-.5889,.75-1.041,1.0049c-.46,.2598-.9277,.3848-1.4033,.373s-.9219-.1572-1.3379-.4375c-.415-.2803-.7656-.6729-1.0508-1.1787l-1.082-1.916,4.7051-2.6562,1.1123,1.9707Zm-4.0479,2.1602c.2842,.5029,.6621,.8213,1.1367,.9551,.4736,.1338,.9551,.0625,1.4443-.2139,.5078-.2861,.8223-.666,.9434-1.1387,.1211-.4717,.0352-.9678-.2578-1.4863l-.5283-.9365-3.2842,1.8535,.5459,.9668Z"/></g><path class="cls-1" d="M28.7495,.9643C13.4292,.9643,.9641,13.4284,.9641,28.7487s12.4651,27.785,27.7854,27.785,27.7844-12.4642,27.7844-27.785S44.0698,.9643,28.7495,.9643Zm-.0005,9.5419c10.0751,0,18.2434,8.1679,18.2434,18.243s-8.1683,18.2424-18.2434,18.2424S10.5065,38.8243,10.5065,28.7492,18.6739,10.5062,28.7489,10.5062ZM11.9578,37.9889c-.0492,.1382-.1353,.2368-.259,.2938-.069,.0322-.1392,.0482-.2106,.0482-.0597,0-.1204-.0112-.1821-.0336-.1354-.0494-.2321-.1364-.291-.2631-.0581-.1238-.0638-.2533-.0175-.3887,.0465-.1353,.1345-.2338,.2659-.2948,.0685-.0321,.1384-.0483,.2097-.0483,.0598,0,.1203,.0113,.182,.0338,.1353,.0493,.233,.1373,.292,.263,.0562,.1218,.06,.2513,.0106,.3897Zm-1.7684-2.0789c.0464-.1382,.1334-.2369,.2621-.2969,.0671-.0312,.1357-.047,.2056-.047,.0619,0,.1249,.0124,.1888,.0374,.1373,.0522,.235,.1412,.293,.2649,.059,.1258,.0627,.2573,.0135,.3946-.0503,.1373-.1373,.2348-.261,.2919-.0652,.0308-.1331,.0461-.204,.0461-.0586,0-.1193-.0105-.1819-.0314-.1382-.0465-.2379-.1355-.2987-.266-.058-.1238-.0639-.2554-.0175-.3936Zm-4.9118-11.9629c.1838-.131,.3842-.1966,.6011-.1966,.065,0,.1315,.0059,.1995,.0176,.29,.0503,.5202,.1964,.6913,.436,.1721,.2408,.2321,.5068,.1818,.7996-.0523,.2969-.1984,.5289-.4381,.6973-.1835,.128-.383,.192-.5987,.192-.066,0-.1337-.006-.2029-.018-.2919-.0503-.522-.1953-.6913-.4341-.1692-.2387-.2282-.5067-.1769-.8035,.0502-.2901,.1953-.5202,.4341-.6904Zm-2.0402,9.6472l4.9003-3.465,.2108,1.082-3.1135,2.1635,3.6898,.7977,.2098,1.0742-5.8284-1.2957-.0687-.3567Zm2.7751,7.6771l.9542-1.0645-1.0161-2.1766-1.4127,.0832-.4632-.9921,5.8381-.2668,.4515,.9669-3.8859,4.4478-.466-.9979Zm5.7298,.4671c-.0561-.0167-.1101-.0252-.1619-.0252-.1071,0-.2053,.0359-.2946,.1082-.1595,.1276-.2194,.353-.1808,.6759,.0087,.0928,.0833,.4149,.2234,.9679,.115,.4756,.1353,.8712,.0588,1.1835-.0753,.3123-.2532,.5811-.5326,.8064-.2818,.2274-.5853,.3408-.9108,.3408-.0911,0-.184-.0088-.2785-.0266-.4313-.0812-.813-.3286-1.1458-.7426-.2176-.2688-.3742-.524-.471-.7657-.0966-.2418-.17-.5405-.2194-.8983,.2672-.215,.5344-.43,.8016-.6449-.0116,.7502,.1431,1.3246,.4631,1.722,.1604,.1992,.3326,.3248,.5182,.3781,.058,.0164,.114,.0247,.1677,.0247,.1176,0,.2253-.0392,.3235-.1176,.1943-.1575,.2678-.3916,.2185-.703-.0455-.2542-.1141-.5753-.2041-.963-.116-.4525-.1402-.8412-.0706-1.1671,.0687-.3248,.2359-.5947,.5009-.8083,.2651-.2134,.5497-.3206,.8537-.3206,.1008,0,.2037,.0118,.3087,.0353,.4214,.0939,.8063,.3568,1.1544,.7881,.3297,.4099,.5453,.8875,.6458,1.4318-.2411,.1942-.4821,.3881-.7231,.5822-.0872-.6478-.2669-1.14-.5386-1.4775-.1653-.2049-.3336-.3334-.5067-.3847Zm1.3643,7.6548l-.819-.6478,2.8447-3.5977-1.5046-1.1903,.5057-.6403,3.8289,3.0275-.5067,.6401-1.5045-1.1903-2.8447,3.5988Zm7.5969,.6855l-.3452,.7397-2.1232-.9911-.6498,1.3913,2.2673,1.0588-.345,.7386-3.2141-1.4996,2.2857-4.8964,3.1647,1.4775-.3453,.7397-2.218-1.0355-.6005,1.2859,2.1234,.9911Zm5.2899,.5772c-.0619,.3007-.1924,.5472-.3934,.7387-.2012,.1924-.468,.321-.8006,.3878,.1508,.1247,.2756,.2793,.3751,.4631,.0996,.1838,.2088,.4806,.3268,.8916,.1924,.7087,.3413,1.1988,.4486,1.4736-.3802-.0778-.7606-.1555-1.1409-.2332-.0543-.1323-.1219-.3392-.2042-.6215-.1778-.6237-.3141-1.0473-.4108-1.2706-.0967-.2242-.1993-.3896-.3085-.4979-.1102-.1074-.2465-.1789-.411-.2118l-.3712-.0763c-.1525,.7451-.3049,1.4902-.4574,2.2354-.3411-.0696-.6821-.1393-1.0229-.2089,.3609-1.7646,.7219-3.5292,1.0829-5.2937,.6353,.1298,1.2705,.2596,1.9058,.3896,.4979,.1025,.8751,.3229,1.1321,.6622,.2563,.3395,.3404,.7302,.2495,1.172Zm5.6535,3.1888c-.144,.2418-.35,.4264-.6178,.5549-.2679,.1286-.586,.1993-.9543,.2128-.7536,.0278-1.5071,.0555-2.2606,.0832-.0659-1.8-.1316-3.6002-.1974-5.4001,.6597-.0239,1.3195-.0477,1.9794-.0715,.0342-.0013,.0679-.002,.1012-.002,.4489,0,.8232,.1147,1.1219,.3443,.3221,.2457,.4893,.5627,.5037,.9486,.0087,.2474-.0483,.4678-.1721,.6603-.1227,.1934-.3063,.349-.5491,.4689l.001,.0464c.38,.0715,.6787,.2291,.8983,.4728,.2184,.2438,.3344,.5338,.347,.8712,.0107,.2987-.056,.5696-.201,.8103Zm7.2034-2.5101c-.1122,.4913-.3462,.9206-.703,1.2869-.3557,.3676-.8035,.6392-1.343,.8151-.352,.1153-.6995,.1729-1.0422,.1729-.1749,0-.3487-.0151-.5213-.0452-.5096-.0881-.9524-.2939-1.3266-.6179-.3741-.325-.6411-.73-.8005-1.2183-.1529-.4708-.1761-.9524-.0687-1.4456,.1074-.4941,.3364-.9244,.6885-1.2927,.3519-.3683,.8044-.643,1.3585-.8237,.3636-.119,.719-.1783,1.0663-.1783,.1607,0,.3196,.0127,.4767,.038,.4972,.0803,.939,.2863,1.3267,.6169,.3869,.3307,.6614,.7426,.8219,1.2347,.1567,.4805,.1789,.9659,.0668,1.457Zm3.9488-.8257l-2.5671-3.8008-1.5896,1.0743-.4573-.6768,4.0445-2.7316,.4574,.6759-1.5895,1.0742,2.5671,3.8009-.8654,.5839Zm5.0819-4.3027l-3.4489-3.0244-1.2646,1.4426-.6141-.5377,3.2178-3.6703,.6131,.5376-1.2637,1.4426,3.4489,3.0244-.6885,.7852Zm2.9626-3.8463l-4.7706-2.5361,1.6389-3.0834,.7203,.3828-1.1487,2.162,1.2532,.6662,1.1003-2.0702,.7203,.3839-1.1003,2.0692,1.3557,.7203,1.1747-2.2093,.7204,.3829-1.664,3.1318Zm-.0967-18.0408c.17-.2379,.4022-.3829,.6971-.4323,.0667-.0115,.132-.0172,.196-.0172,.2161,0,.4166,.0654,.6016,.1953,.2389,.1681,.3839,.4011,.4341,.699,.0494,.2891-.0096,.5549-.1779,.7949-.1683,.2407-.4003,.3859-.6952,.436-.0654,.0112-.1298,.0167-.1927,.0167-.2161,0-.4178-.0655-.605-.1965-.2417-.1692-.3878-.4003-.437-.6922-.0513-.2978,.0087-.5657,.1788-.8035Zm-1.4397,6.4502l5.2686,1.195-.1982,.8755-4.4515,2.3023,3.7369,.847-.2253,.9958-5.2695-1.1942,.2031-.8943,4.3868-2.2964-3.6771-.8349,.2263-.9958Z"/><path class="cls-1" d="M29.828,52.2782c-.0245,0-.0492,.0005-.0745,.0015-.3271,.0119-.6542,.0239-.9814,.0358,.0183,.5089,.0366,1.0178,.0551,1.5267l.9012-.0329c.353-.0135,.6168-.0889,.7928-.2282,.175-.1393,.2581-.3384,.2484-.5956-.0076-.2292-.1044-.407-.2881-.5337-.1683-.1151-.3862-.1735-.6536-.1735Z"/><path class="cls-1" d="M30.0456,51.2547c.1547-.1373,.2281-.3231,.2194-.5579-.0076-.2089-.0869-.3713-.2387-.4882-.1405-.1089-.3203-.1635-.537-.1635l-.049,.0009c-.2502,.0091-.5003,.0181-.7504,.0272,.0174,.4755,.0348,.9508,.0523,1.4263,.2188-.0077,.4376-.0156,.6565-.0233,.2765-.0107,.4911-.084,.6469-.2214Z"/><path class="cls-1" d="M37.2306,49.3653c-.2417-.2233-.5269-.3636-.8536-.4225-.1118-.0202-.2248-.0303-.3391-.0303-.2199,0-.4443,.0374-.6734,.1125-.3481,.1132-.6372,.2911-.8664,.5328-.2281,.2417-.3731,.5221-.4351,.8422-.0609,.3191-.0349,.6508,.0764,.994,.1112,.3403,.2891,.6218,.5318,.8431,.2437,.2224,.5269,.3625,.8517,.4216,.1121,.0207,.2257,.0309,.3406,.0309,.218,0,.4409-.0372,.6689-.1112,.527-.1722,.906-.4797,1.1371-.9215,.232-.4409,.262-.9233,.0919-1.4456-.1112-.3403-.2882-.6226-.5309-.8461Z"/><path class="cls-1" d="M24.2055,49.5559c-.2125-.0432-.4248-.0864-.6372-.1296-.1006,.4911-.2012,.9824-.3017,1.4735,.2172,.0445,.4345,.0889,.6517,.1334,.0933,.0192,.1814,.0288,.2641,.0288,.1547,0,.2908-.0336,.4079-.1003,.1808-.1025,.2939-.2698,.3424-.5027,.0492-.2428,.0106-.439-.1161-.5898-.1276-.1509-.3307-.2552-.611-.3132Z"/><polygon class="cls-1" points="7.5411 39.563 9.0928 37.8312 6.8033 37.9821 7.5411 39.563"/><path d="M51.61,26.0116c.0629,0,.1273-.0055,.1927-.0167,.2949-.0501,.5269-.1953,.6952-.436,.1683-.2399,.2272-.5057,.1779-.7949-.0502-.2979-.1953-.5309-.4341-.699-.1849-.1298-.3855-.1953-.6016-.1953-.064,0-.1293,.0057-.196,.0172-.295,.0494-.5271,.1943-.6971,.4323-.1701,.2378-.2301,.5057-.1788,.8035,.0492,.2919,.1953,.523,.437,.6922,.1872,.131,.3889,.1965,.605,.1965Z"/><path d="M5.7117,25.8751c.0692,.012,.1368,.018,.2029,.018,.2157,0,.4152-.064,.5987-.192,.2397-.1683,.3858-.4003,.4381-.6973,.0502-.2928-.0098-.5588-.1818-.7996-.1711-.2397-.4013-.3857-.6913-.436-.068-.0118-.1345-.0176-.1995-.0176-.217,0-.4174,.0656-.6011,.1966-.2388,.1702-.384,.4003-.4341,.6904-.0513,.2968,.0078,.5648,.1769,.8035,.1693,.2388,.3994,.3839,.6913,.4341Z"/><polygon points="8.9247 34.1726 5.2349 33.3749 8.3484 31.2113 8.1376 30.1294 3.2373 33.5943 3.3061 33.951 9.1345 35.2467 8.9247 34.1726"/><path d="M11.6553,37.3362c-.0617-.0225-.1223-.0338-.182-.0338-.0713,0-.1412,.0162-.2097,.0483-.1314,.061-.2194,.1595-.2659,.2948-.0464,.1354-.0406,.265,.0175,.3887,.059,.1267,.1556,.2137,.291,.2631,.0617,.0225,.1224,.0336,.1821,.0336,.0714,0,.1416-.016,.2106-.0482,.1238-.057,.2098-.1556,.259-.2938,.0494-.1384,.0456-.2679-.0106-.3897-.059-.1257-.1567-.2137-.292-.263Z"/><path d="M9.9128,36.8547l-5.8381,.2668,.4632,.9921,1.4127-.0832,1.0161,2.1766-.9542,1.0645,.466,.9979,3.8859-4.4478-.4515-.9669Zm-2.3718,2.7083l-.7377-1.5809,2.2895-.1509-1.5518,1.7318Z"/><path d="M10.5055,36.5696c.0626,.0209,.1233,.0314,.1819,.0314,.0709,0,.1388-.0153,.204-.0461,.1237-.0571,.2108-.1545,.261-.2919,.0492-.1373,.0454-.2688-.0135-.3946-.058-.1237-.1556-.2126-.293-.2649-.064-.025-.127-.0374-.1888-.0374-.0699,0-.1385,.0158-.2056,.047-.1287,.06-.2156,.1586-.2621,.2969-.0464,.1382-.0406,.2698,.0175,.3936,.0609,.1305,.1605,.2195,.2987,.266Z"/><path d="M13.5106,43.0186c-.1005-.5444-.3161-1.0219-.6458-1.4318-.348-.4313-.7329-.6943-1.1544-.7881-.105-.0236-.2078-.0353-.3087-.0353-.304,0-.5886,.1071-.8537,.3206-.265,.2137-.4321,.4835-.5009,.8083-.0696,.3258-.0454,.7146,.0706,1.1671,.09,.3877,.1586,.7088,.2041,.963,.0493,.3114-.0242,.5455-.2185,.703-.0981,.0783-.2059,.1176-.3235,.1176-.0538,0-.1097-.0082-.1677-.0247-.1856-.0533-.3578-.179-.5182-.3781-.3201-.3973-.4747-.9717-.4631-1.722-.2672,.2149-.5345,.4299-.8016,.6449,.0494,.3577,.1228,.6565,.2194,.8983,.0968,.2416,.2534,.4969,.471,.7657,.3327,.414,.7145,.6614,1.1458,.7426,.0945,.0178,.1874,.0266,.2785,.0266,.3255,0,.629-.1135,.9108-.3408,.2794-.2253,.4573-.4941,.5326-.8064,.0765-.3123,.0562-.7078-.0588-1.1835-.1401-.553-.2147-.8751-.2234-.9679-.0386-.3229,.0213-.5483,.1808-.6759,.0893-.0723,.1874-.1082,.2946-.1082,.0518,0,.1058,.0085,.1619,.0252,.1731,.0513,.3413,.1798,.5067,.3847,.2717,.3375,.4515,.8297,.5386,1.4775,.241-.1941,.4819-.388,.7231-.5822Z"/><polygon points="17.9623 46.3448 14.1334 43.3173 13.6277 43.9576 15.1322 45.1479 12.2876 48.7456 13.1066 49.3934 15.9512 45.7946 17.4557 46.9849 17.9623 46.3448"/><polygon points="21.3985 48.8374 21.7439 48.0978 18.5791 46.6203 16.2934 51.5166 19.5075 53.0163 19.8525 52.2777 17.5851 51.2189 18.235 49.8276 20.3582 50.8187 20.7034 50.079 18.5801 49.0879 19.1805 47.8019 21.3985 48.8374"/><path d="M24.6116,48.8219c-.6353-.1299-1.2705-.2598-1.9058-.3896-.361,1.7645-.722,3.5291-1.0829,5.2937,.3409,.0695,.6819,.1393,1.0229,.2089,.1525-.7452,.3049-1.4904,.4574-2.2354l.3712,.0763c.1645,.0329,.3008,.1044,.411,.2118,.1093,.1083,.2118,.2737,.3085,.4979,.0966,.2233,.233,.6469,.4108,1.2706,.0823,.2823,.1499,.4892,.2042,.6215,.3803,.0778,.7606,.1555,1.1409,.2332-.1073-.2748-.2562-.7649-.4486-1.4736-.118-.411-.2272-.7078-.3268-.8916-.0995-.1838-.2244-.3384-.3751-.4631,.3326-.0667,.5994-.1954,.8006-.3878,.201-.1915,.3315-.438,.3934-.7387,.0909-.4418,.0068-.8325-.2495-1.172-.2571-.3393-.6342-.5598-1.1321-.6622Zm.3211,1.637c-.0485,.233-.1616,.4002-.3424,.5027-.1171,.0667-.2532,.1003-.4079,.1003-.0827,0-.1708-.0096-.2641-.0288-.2172-.0445-.4344-.0889-.6517-.1334,.1005-.4911,.2011-.9824,.3017-1.4735,.2124,.0432,.4247,.0864,.6372,.1296,.2803,.058,.4834,.1624,.611,.3132,.1267,.1509,.1653,.347,.1161,.5898Z"/><path d="M30.6025,51.6908l-.001-.0464c.2428-.1199,.4265-.2755,.5491-.4689,.1238-.1924,.1808-.4128,.1721-.6603-.0144-.3859-.1816-.7029-.5037-.9486-.2987-.2296-.673-.3443-1.1219-.3443-.0333,0-.067,.0007-.1012,.002-.6599,.0239-1.3196,.0477-1.9794,.0715,.0658,1.8,.1315,3.6002,.1974,5.4001,.7535-.0277,1.507-.0554,2.2606-.0832,.3683-.0135,.6864-.0842,.9543-.2128,.2678-.1285,.4738-.3131,.6178-.5549,.145-.2407,.2117-.5116,.201-.8103-.0126-.3374-.1286-.6274-.347-.8712-.2196-.2437-.5183-.4012-.8983-.4728Zm-1.9125-1.6177c.2501-.009,.5002-.0181,.7504-.0272l.049-.0009c.2167,0,.3965,.0546,.537,.1635,.1518,.1169,.2311,.2794,.2387,.4882,.0087,.2348-.0646,.4206-.2194,.5579-.1557,.1374-.3704,.2108-.6469,.2214-.2189,.0077-.4377,.0156-.6565,.0233-.0175-.4755-.0349-.9508-.0523-1.4263Zm1.8314,3.5079c-.1761,.1393-.4399,.2147-.7928,.2282l-.9012,.0329c-.0184-.5089-.0367-1.0178-.0551-1.5267,.3271-.0118,.6543-.0239,.9814-.0358,.0253-.001,.05-.0015,.0745-.0015,.2673,0,.4853,.0584,.6536,.1735,.1838,.1267,.2805,.3044,.2881,.5337,.0097,.2573-.0734,.4564-.2484,.5956Z"/><path d="M37.9615,48.6431c-.3877-.3307-.8295-.5366-1.3267-.6169-.1571-.0253-.316-.038-.4767-.038-.3474,0-.7028,.0593-1.0663,.1783-.554,.1807-1.0065,.4554-1.3585,.8237-.3521,.3683-.5811,.7986-.6885,1.2927-.1074,.4932-.0842,.9747,.0687,1.4456,.1594,.4882,.4263,.8933,.8005,1.2183,.3742,.3239,.817,.5298,1.3266,.6179,.1726,.0301,.3464,.0452,.5213,.0452,.3428,0,.6902-.0576,1.0422-.1729,.5395-.1759,.9872-.4475,1.343-.8151,.3568-.3663,.5908-.7956,.703-1.2869,.1121-.4911,.0899-.9765-.0668-1.457-.1605-.4922-.435-.9041-.8219-1.2347Zm-.2919,3.0138c-.2311,.4418-.6101,.7493-1.1371,.9215-.228,.074-.451,.1112-.6689,.1112-.1149,0-.2285-.0103-.3406-.0309-.3249-.0591-.6081-.1992-.8517-.4216-.2427-.2213-.4206-.5028-.5318-.8431-.1113-.3432-.1373-.6749-.0764-.994,.062-.3201,.207-.6005,.4351-.8422,.2292-.2417,.5183-.4196,.8664-.5328,.2291-.0751,.4535-.1125,.6734-.1125,.1143,0,.2272,.0101,.3391,.0303,.3267,.0589,.6119,.1992,.8536,.4225,.2427,.2234,.4197,.5057,.5309,.8461,.1701,.5222,.1401,1.0046-.0919,1.4456Z"/><polygon points="42.6868 45.0502 42.2294 44.3743 38.1849 47.1058 38.6423 47.7826 40.2319 46.7084 42.799 50.5091 43.6644 49.9252 41.0973 46.1243 42.6868 45.0502"/><polygon points="46.3843 40.9543 45.7712 40.4167 42.5533 44.087 43.1674 44.6247 44.4321 43.1821 47.8809 46.2065 48.5694 45.4213 45.1205 42.397 46.3843 40.9543"/><polygon points="50.6125 41.0549 49.2568 40.3346 50.3572 38.2654 49.6369 37.8815 48.5365 39.9517 47.2834 39.2855 48.4321 37.1235 47.7118 36.7406 46.0729 39.8241 50.8436 42.3602 52.5076 39.2284 51.7872 38.8456 50.6125 41.0549"/><polygon points="48.3712 34.8968 48.1681 35.7911 53.4376 36.9852 53.6629 35.9894 49.926 35.1424 54.3775 32.8401 54.5758 31.9646 49.3072 30.7696 49.0809 31.7654 52.758 32.6003 48.3712 34.8968"/><path d="M28.7489,46.9916c10.0751,0,18.2434-8.1674,18.2434-18.2424S38.8241,10.5062,28.7489,10.5062,10.5065,18.6741,10.5065,28.7492s8.1674,18.2424,18.2424,18.2424Zm-16.2919-11.3591c-.452-1.0685-.7976-2.1821-1.0301-3.3187-.2398-1.1719-.3592-2.3684-.3592-3.5647s.1194-2.3928,.3592-3.5647c.2325-1.1367,.5781-2.2502,1.0301-3.3188,.4443-1.0505,.9915-2.0576,1.6301-3.0026,.6342-.9385,1.3586-1.8159,2.1594-2.6167,.8008-.8009,1.6782-1.5252,2.6165-2.1594,.9451-.6387,1.9521-1.1859,3.0026-1.6302,1.0685-.4521,2.1821-.7978,3.3188-1.0302,1.1719-.2397,2.3683-.3593,3.5646-.3593s2.3927,.1195,3.5647,.3593c1.1366,.2324,2.2503,.5782,3.3188,1.0302,1.0505,.4443,2.0576,.9915,3.0026,1.6302,.9384,.6342,1.8159,1.3585,2.6168,2.1594,.8009,.8009,1.5253,1.6782,2.1594,2.6167,.6387,.945,1.1859,1.9521,1.6303,3.0027,.4521,1.0685,.7977,2.182,1.0303,3.3187,.2396,1.1719,.359,2.3684,.359,3.5647s-.1194,2.3928-.359,3.5647c-.2326,1.1366-.5782,2.2502-1.0303,3.3187-.4445,1.0505-.9916,2.0574-1.6303,3.0025-.6342,.9385-1.3585,1.8158-2.1594,2.6166-.801,.8009-1.6783,1.5252-2.6167,2.1593-.9451,.6387-1.9522,1.1859-3.0027,1.6302-1.0685,.452-2.1823,.7976-3.3188,1.0301-1.172,.2398-2.3684,.3593-3.5648,.3593s-2.3928-.1194-3.5646-.3593c-1.1367-.2325-2.2502-.5781-3.3188-1.0301-1.0506-.4443-2.0575-.9915-3.0026-1.6302-.9383-.6341-1.8157-1.3584-2.6165-2.1592-.8008-.8009-1.5252-1.6782-2.1594-2.6166-.6385-.9452-1.1857-1.9521-1.6301-3.0026Z"/><path class="cls-3" d="M28.7495,.4025C13.1188,.4025,.4032,13.1185,.4032,28.7487s12.7156,28.3467,28.3463,28.3467,28.3452-12.7165,28.3452-28.3467S44.3792,.4025,28.7495,.4025Zm0,56.1312C13.4292,56.5337,.9641,44.0695,.9641,28.7487S13.4292,.9643,28.7495,.9643s27.7844,12.4641,27.7844,27.7844-12.4641,27.785-27.7844,27.785Z"/></svg>