<?xml version="1.0" encoding="utf-8"?>
<!-- Generator: Adobe Illustrator 26.2.1, SVG Export Plug-In . SVG Version: 6.00 Build 0)  -->
<svg version="1.1" id="Lager_1" xmlns="http://www.w3.org/2000/svg" xmlns:xlink="http://www.w3.org/1999/xlink" x="0px" y="0px"
	 viewBox="0 0 57.5 57.5" style="enable-background:new 0 0 57.5 57.5;" xml:space="preserve">
<style type="text/css">
	.st0{stroke:#2C2F67;stroke-width:7.508005e-03;stroke-linecap:round;stroke-linejoin:round;stroke-miterlimit:10;}
</style>
<g>
	<path d="M6.2,16.5c0.2-0.4,0.5-0.7,0.9-0.9c0.4-0.2,0.7-0.1,1.1,0c0.2,0.1,0.4,0.3,0.5,0.5c0.1,0.2,0.1,0.4,0.1,0.7l0,0
		c0.3-0.3,0.5-0.5,0.9-0.5c0.3-0.1,0.6,0,0.9,0.1c0.3,0.1,0.5,0.3,0.6,0.6c0.1,0.2,0.2,0.5,0.2,0.8c0,0.3-0.1,0.6-0.3,0.9l-1.1,2
		l-4.8-2.6L6.2,16.5z M8.1,17.8c0.1-0.2,0.2-0.5,0.1-0.7c0-0.2-0.2-0.4-0.4-0.5c-0.2-0.1-0.4-0.1-0.5,0S7,16.9,6.9,17.1l-0.4,0.7
		l1.3,0.7L8.1,17.8z M10.3,18.7c0.2-0.3,0.2-0.6,0.2-0.8c0-0.2-0.2-0.4-0.4-0.5c-0.2-0.1-0.4-0.1-0.6,0c-0.2,0.1-0.4,0.3-0.5,0.5
		l-0.5,0.9l1.3,0.7L10.3,18.7z"/>
	<g>
		<g>
			<path class="st0" d="M14.4,34.5c0.8,1.3,2.3,2,3.8,1.9c0,0,0,0,0.1,0c0.1,0,0.1,0.1,0.1,0.2l0,0.1l0,0.1l0,0.1l0,0.1l0,0.1l0,0.1
				l0,0.1l0,0.1l0,0.1l0,0.1l0,0.1l0,0.1l0,0.1l0,0.1l0,0.1l0,0.1l0,0.1l0,0.1l0,0.1l0,0.1l0,0.1l0,0.1l0,0.1l0,0.1l0,0.1l0,0.1
				l0,0.1l0,0.1l0,0.1l0,0.1l0,0.1l0,0.1l0,0.1l0,0.1l0,0.1l0,0.1l0,0.1l0,0.1l0,0.1l0,0.1l0,0.1l0,0.1l0,0.1l0,0.1l0,0.1l0,0.1
				l0,0.1l0,0.1l0,0.1l0,0.1l0,0.1l0,0.1l0.1,0.1l0.1,0.1l0.1,0.1l0.1,0.1l0.1,0.1l0.1,0.1l0.1,0.1l0.1,0.1l0.1,0.1l0.1,0.1l0.1,0
				l0.1,0l0,0l0,0l0,0l0,0l0,0l0,0l0.1,0l0.1,0l0.1,0l0.1,0l0.1,0l0.1,0l0.1,0l0.1,0l0.1,0l0.1,0l0.1,0l0.1,0l0.1,0l0.1,0l0.1,0
				l0.1,0l0.1,0l0.1,0l0.1,0l0.1,0l0.1,0l0.1,0l0.1,0l0.1,0l0.1,0l0.1,0l0.1,0l0.1,0l0.1,0l0.1,0l0.1,0l0.1,0l0.1,0l0.1,0l0.1,0
				l0.1,0l0.1,0l0.1,0l0.1,0l0.1,0l0.1,0l0.1,0l0.1,0l0.1,0l0.1,0l0.1,0l0.1,0l0.1,0l0.1,0l0.1,0l0.1,0l0.1,0l0.1,0l0.1,0l0.1,0
				l0.1,0l0.1,0l0.1,0l0.1,0l0.1,0l0.1,0l0.1,0l0.1,0l0.1,0l0.1,0l0.1,0l0.1,0l0.1,0l0.1,0l0.1,0l0.1,0l0.1,0l0.1,0l0.1,0l0,0l0,0
				l0,0l0,0c0,0,0,0,0.1,0c0.1,0,0.2,0,0.2,0.1c0.6,2.2,2.8,3.5,4.9,2.9c1.5-0.4,2.6-1.5,2.9-3c0,0,0,0,0-0.1c0.1-0.1,0.1-0.1,0.2,0
				l0.1,0l0.1,0l0.1,0l0.1,0l0.1,0l0.1,0l0.1,0l0.1,0l0.1,0l0.1,0l0.1,0l0.1,0l0.1,0l0.1,0l0.1,0l0.1,0l0.1,0l0.1,0l0.1,0l0.1,0
				l0.1,0l0.1,0l0.1,0l0.1,0l0.1,0l0.1,0l0.1,0l0.1,0l0.1,0l0.1,0l0.1,0l0.1,0l0.1,0l0.1,0l0.1,0l0.1,0l0.1,0l0.1,0l0.1,0l0.1,0
				l0.1,0l0.1,0l0.1,0l0.1,0l0.1,0l0.1,0l0.1,0l0.1,0l0.1,0l0.1,0l0.1,0l0.1,0l0.1,0l0.1,0l0.1,0l0.1,0l0.1,0l0.1,0l0.1,0l0.1,0
				l0.1,0l0.1,0l0.1,0l0.1,0l0,0l0,0l0,0l0,0l0,0l0,0l0,0l0,0l0,0l0,0l0,0l0,0l0,0l0,0l0,0l0,0l0,0l0,0l0,0l0,0l0-0.1l0-0.1l0-0.1
				l0-0.1l0-0.1l0-0.1l0-0.1l0-0.1l0-0.1l0-0.1l0-0.1l0-0.1l0-0.1l0-0.1l0-0.1l0-0.1l0-0.1l0-0.1l0-0.1l0-0.1l0-0.1l0-0.1l0-0.1
				l0-0.1l0-0.1l0-0.1l0-0.1l0-0.1l0-0.1l0-0.1l0-0.1l0-0.1l0-0.1l0-0.1l0-0.1l0-0.1l0-0.1l0-0.1l0-0.1l0-0.1l0-0.1l0-0.1l0-0.1
				l0-0.1l0-0.1l0-0.1l0-0.1l0-0.1l0-0.1l0-0.1l0-0.1l0-0.1l0-0.1l0-0.1l0-0.1l0-0.1l0-0.1l0-0.1l0-0.1l0-0.1l0-0.1l0-0.1l0-0.1
				l0-0.1c0,0,0,0,0-0.1c0-0.1,0.1-0.1,0.2-0.1c2.2,0.1,4.1-1.6,4.3-3.8c0.1-1.5-0.7-2.9-2-3.7c0,0,0,0-0.1-0.1c0-0.1,0-0.2,0.1-0.2
				l0.1,0l0.1,0l0.1,0l0.1,0l0.1,0l0.1,0l0.1,0l0.1-0.1l0.1-0.1l0.1-0.1l0.1-0.1l0.1-0.1l0.1-0.1l0.1-0.1l0.1-0.1l0.1-0.1l0.1-0.1
				l0.1-0.1l0.1-0.1l0.1-0.1l0-0.1l0-0.1l0-0.1l0-0.1l0-0.1l0-0.1l0-0.1l0-0.1l0-0.1l0-0.1l0-0.1l0-0.1l0-0.1l0-0.1l0-0.1l0-0.1
				l0-0.1l0-0.1l0-0.1l0-0.1l0-0.1l0-0.1l0-0.1l0-0.1l0-0.1l0-0.1l0-0.1l0-0.1l0-0.1l0-0.1l0-0.1l0-0.1l0-0.1l0-0.1l0-0.1l0-0.1
				l0-0.1l0-0.1l0-0.1l0-0.1l0-0.1l0-0.1l0-0.1l0-0.1l0-0.1l0-0.1l0-0.1l0-0.1l0-0.1l0-0.1l0-0.1l0-0.1l0-0.1l0-0.1l0-0.1l0-0.1
				l0-0.1l0-0.1l0-0.1l0-0.1l0-0.1l0-0.1l0-0.1l0-0.1l0-0.1l0-0.1l0-0.1l0-0.1l0-0.1l0-0.1l0-0.1l0,0l0,0l0,0l0,0l0,0l0,0l0,0l0,0
				l0,0l0,0l0,0l0,0l0,0l0,0l-0.1,0l-0.1,0l-0.1,0l-0.1,0l-0.1,0l-0.1,0l-0.1,0l-0.1,0l-0.1,0l-0.1,0l-0.1,0l-0.1,0l-0.1,0l-0.1,0
				l-0.1,0l-0.1,0l-0.1,0l-0.1,0l-0.1,0l-0.1,0l-0.1,0l-0.1,0l-0.1,0l-0.1,0l-0.1,0l-0.1,0l-0.1,0l-0.1,0l-0.1,0l-0.1,0l-0.1,0
				l-0.1,0l-0.1,0l-0.1,0l-0.1,0l-0.1,0l-0.1,0l-0.1,0l-0.1,0l-0.1,0l-0.1,0l-0.1,0l-0.1,0c0,0,0,0-0.1,0c-0.1,0-0.1-0.1-0.1-0.2
				c0.8-2.1-0.2-4.4-2.3-5.2c-1.4-0.6-3-0.3-4.1,0.7c0,0,0,0-0.1,0c-0.1,0-0.2,0-0.2-0.1l0-0.1l0-0.1l0-0.1l0-0.1l0-0.1l0-0.1l0-0.1
				l0-0.1l0-0.1l0-0.1l0-0.1l0-0.1l0-0.1l0-0.1l0-0.1l0-0.1l0-0.1l0-0.1l0-0.1l0-0.1l0-0.1l-0.1-0.1l-0.1-0.1l-0.1-0.1l-0.1-0.1
				l-0.1-0.1l-0.1-0.1l-0.1-0.1l-0.1-0.1l-0.1-0.1l-0.1-0.1l-0.1-0.1L31.2,14L31.2,14l-0.1-0.1l-0.1,0l-0.1,0l-0.1,0l-0.1,0l-0.1,0
				l-0.1,0l-0.1,0l-0.1,0l-0.1,0l-0.1,0l-0.1,0l-0.1,0l-0.1,0l-0.1,0l-0.1,0l-0.1,0l-0.1,0l-0.1,0l-0.1,0l-0.1,0l-0.1,0l-0.1,0
				l-0.1,0l-0.1,0l-0.1,0l-0.1,0l-0.1,0l-0.1,0l-0.1,0l-0.1,0l-0.1,0l-0.1,0l-0.1,0l-0.1,0l-0.1,0l-0.1,0l-0.1,0l-0.1,0l-0.1,0
				l-0.1,0l-0.1,0l-0.1,0l-0.1,0l-0.1,0l-0.1,0l-0.1,0l-0.1,0l-0.1,0l-0.1,0l-0.1,0l-0.1,0l-0.1,0l-0.1,0l-0.1,0l-0.1,0l-0.1,0
				l-0.1,0l-0.1,0l-0.1,0l-0.1,0l-0.1,0l-0.1,0l-0.1,0l-0.1,0l-0.1,0l-0.1,0l-0.1,0l-0.1,0l-0.1,0l-0.1,0l-0.1,0l-0.1,0l-0.1,0
				l-0.1,0l-0.1,0l0,0l0,0l0,0l0,0l0,0l0,0l0,0l0,0l0,0l0,0l0,0l0,0l0,0l0,0l0,0l0,0l0,0l0,0l0,0.1l0,0.1l0,0.1l0,0.1l0,0.1l0,0.1
				l0,0.1l0,0.1l0,0.1l0,0.1l0,0.1l0,0.1l0,0.1l0,0.1l0,0.1l0,0.1l0,0.1l0,0.1l0,0.1l0,0.1c0,0,0,0,0,0.1c-0.1,0.1-0.1,0.1-0.2,0
				c-1.7-1.4-4.3-1.2-5.7,0.6c-1,1.2-1.2,2.8-0.6,4.1c0,0,0,0,0,0.1c0,0.1-0.1,0.1-0.2,0.1l-0.1,0l-0.1,0l-0.1,0l-0.1,0h-0.1l-0.1,0
				l-0.1,0l-0.1,0l-0.1,0l-0.1,0l-0.1,0l-0.1,0l-0.1,0l-0.1,0l-0.1,0l-0.1,0l-0.1,0l-0.1,0l-0.1,0l-0.1,0l-0.1,0l-0.1,0l-0.1,0
				l-0.1,0l-0.1,0l-0.1,0l-0.1,0l-0.1,0l-0.1,0l-0.1,0l-0.1,0l-0.1,0l-0.1,0l-0.1,0l-0.1,0L15.3,22L15.3,22l-0.1,0.1l-0.1,0.1
				l-0.1,0.1L15,22.3l-0.1,0.1l-0.1,0.1l-0.1,0.1l-0.1,0.1l-0.1,0.1l-0.1,0.1l-0.1,0.1l-0.1,0.1l0,0.1l0,0.1l0,0.1l0,0.1l0,0.1
				l0,0.1l0,0.1l0,0.1l0,0.1l0,0.1l0,0.1l0,0.1l0,0.1l0,0.1l0,0.1l0,0.1l0,0.1l0,0.1l0,0.1l0,0.1l0,0.1l0,0.1l0,0.1l0,0.1l0,0.1
				l0,0.1l0,0.1l0,0.1l0,0.1l0,0.1l0,0.1l0,0.1l0,0.1l0,0.1l0,0.1l0,0.1l0,0.1l0,0.1l0,0.1l0,0.1l0,0.1l0,0.1l0,0.1l0,0.1l0,0.1
				l0,0.1l0,0.1l0,0.1l0,0.1l0,0.1l0,0.1l0,0.1l0,0.1l0,0.1l0,0.1l0,0.1l0,0.1l0,0.1l0,0.1l0,0.1l0,0.1l0,0.1l0,0.1l0,0.1l0,0.1
				l0,0.1l0,0.1l0,0.1l0,0.1l0,0.1l0,0.1l0,0.1l0,0.1l0,0.1l0,0.1l0,0l0,0l0,0l0,0l0,0.1l0,0.1l0,0.1l0.1,0.1l0.1,0.1l0.1,0.1
				l0.1,0.1l0.1,0.1l0.1,0.1l0.1,0.1l0.1,0.1l0.1,0.1l0.1,0.1l0.1,0l0.1,0l0.1,0l0,0l0,0l0.1,0l0.1,0c0,0,0,0,0,0c0,0.1,0,0.2,0,0.2
				C13.7,30.1,13.2,32.6,14.4,34.5z M16,28.4c0-0.1-0.1-0.1-0.2-0.2c-1.1-0.7-1.8-2-1.6-3.3c0.2-2,1.9-3.4,3.9-3.3
				c0.3,0,0.6-0.2,0.7-0.5c0-0.1,0-0.2,0-0.3c-0.5-1.2-0.3-2.7,0.5-3.7c1.3-1.5,3.5-1.8,5.1-0.5c0.3,0.2,0.6,0.2,0.8-0.1
				c0.1-0.1,0.1-0.1,0.1-0.2c0.3-1.3,1.4-2.3,2.7-2.6c1.9-0.4,3.9,0.8,4.3,2.7c0.1,0.3,0.4,0.5,0.7,0.4c0.1,0,0.2-0.1,0.3-0.1
				c1-0.9,2.4-1.1,3.7-0.6c1.8,0.7,2.8,2.8,2,4.7c-0.1,0.3,0,0.7,0.3,0.8c0.1,0,0.2,0,0.3,0c1.3-0.1,2.6,0.6,3.3,1.7
				c1,1.7,0.5,3.9-1.2,4.9c-0.3,0.2-0.4,0.5-0.2,0.8c0.1,0.1,0.1,0.2,0.2,0.2c1.1,0.7,1.8,2,1.7,3.3c-0.1,2-1.8,3.5-3.8,3.4
				c-0.3,0-0.6,0.2-0.6,0.6c0,0.1,0,0.2,0,0.3c0.5,1.2,0.2,2.7-0.6,3.7c-1.3,1.5-3.6,1.7-5.1,0.4c-0.3-0.2-0.6-0.2-0.8,0.1
				c-0.1,0.1-0.1,0.2-0.1,0.3c-0.3,1.3-1.3,2.3-2.6,2.7c-1.9,0.5-3.9-0.7-4.4-2.6c-0.1-0.3-0.4-0.5-0.7-0.4c-0.1,0-0.2,0.1-0.2,0.1
				c-1,0.8-2.5,1.1-3.7,0.5c-1.8-0.8-2.7-2.9-1.9-4.7c0.1-0.3,0-0.7-0.3-0.8c-0.1,0-0.2-0.1-0.3,0c-1.3,0.1-2.6-0.5-3.3-1.6
				c-1.1-1.7-0.6-3.9,1.1-5C16.1,29.1,16.2,28.7,16,28.4z"/>
			<path class="st0" d="M28.9,28.3l8.7-6.3c0.6-0.4,1-1.1,1.2-1.8l0,0l-1.7-0.5l1.6-1.2c-0.1-0.3-0.2-0.6-0.4-0.8l-2.1-0.7l0.7-0.5
				c-0.4-0.2-0.8-0.3-1.3-0.3l0.2,0.7l-1.5-0.5l0,0c-0.4,0.1-0.7,0.3-1,0.6c-0.1,0.1-0.1,0.1-0.2,0.1l0,0l0.4,1.4l-2.7-0.9l1.2-0.8
				l0,0c0-0.1-0.1-0.2-0.1-0.2c-0.1-0.4-0.2-0.8-0.5-1.1l0,0L30,14.9l0.6-0.4c-0.4-0.2-0.8-0.4-1.2-0.5l0.3,0.8l-2.1-0.7
				c-0.3,0.1-0.6,0.3-0.8,0.4l0.6,1.9l-1.7-0.5l0,0c-0.3,0.7-0.3,1.4-0.1,2.2L28.9,28.3z M26.5,20.7l1.9-1.4l0.8,2.4L26.5,20.7z
				 M29.2,22l0.8,2.4l-2.6-1L29.2,22z M28.2,26.1l1.9-1.4l0.7,2.2L28.2,26.1z M30.3,24.5l2-1.5l0.7,2.2L30.3,24.5z M32.6,22.9l2-1.5
				l0.7,2.2L32.6,22.9z M37.6,22l-2.7-0.7l2-1.5L37.6,22z M36,17.1l0.8,2.4L34,18.6L36,17.1z M33.7,18.8l0.8,2.4l-2.8-0.9L33.7,18.8
				z M32.2,22.8l-2.8-0.9l2-1.5L32.2,22.8z M31.4,20.1l-2.8-0.9l2-1.5L31.4,20.1z M29.7,15.1l0.8,2.4l-2.8-0.9L29.7,15.1z
				 M27.5,16.7l0.8,2.4l-2.6-1L27.5,16.7z"/>
			<path class="st0" d="M15.6,29.8l1,1.4h-2c-0.1,0.3-0.2,0.6-0.2,0.9l1.3,1.7h-0.8c0.2,0.4,0.5,0.7,0.9,1l0.2-0.7l0.9,1.2l0,0
				c0.4,0.1,0.8,0.1,1.2,0.1c0.1,0,0.2,0,0.3,0l0,0l0.4-1.4l1.7,2.3H19l0,0c0,0.1,0,0.2-0.1,0.2c-0.2,0.4-0.2,0.8-0.3,1.2l0,0
				l0.9,1.2h-0.7c0.1,0.4,0.4,0.8,0.7,1.1l0.3-0.8l1.3,1.7c0.3,0.1,0.6,0.1,0.9,0.1l0.6-1.9l1,1.4l0,0c0.6-0.4,1.1-1,1.4-1.7
				L28.4,29H17.6C16.8,29,16.1,29.3,15.6,29.8L15.6,29.8z M19.9,39.2l0.8-2.4l1.7,2.4H19.9z M20.8,36.6l0.8-2.4l1.7,2.4H20.8z
				 M22.7,39.2l0.8-2.4l1.6,2.4H22.7z M23.6,36.6l0.8-2.4l1.6,2.4H23.6z M26,29l1.6,2.2h-2.3L26,29z M26.8,33.9h-2.3l0.8-2.4
				L26.8,33.9z M23.2,29l1.8,2.2h-2.5L23.2,29z M24.1,33.9h-2.5l0.8-2.4L24.1,33.9z M20.4,29l1.8,2.2h-2.5L20.4,29z M21.3,33.9h-2.5
				l0.8-2.4L21.3,33.9z M17.6,29l1.8,2.2h-2.5L17.6,29z M18.5,33.9h-2.5l0.8-2.4L18.5,33.9z"/>
			<path class="st0" d="M28.4,28.5L25,18.2c-0.2-0.7-0.7-1.3-1.4-1.7l0,0l-1,1.4L22,16.1c-0.3,0-0.6,0-0.9,0.1L19.8,18l-0.3-0.8
				c-0.3,0.3-0.5,0.7-0.7,1.1h0.7l-0.9,1.2l0,0c0,0.4,0.1,0.8,0.3,1.2c0,0.1,0.1,0.2,0.1,0.2l0,0h1.4l-1.7,2.3l-0.4-1.4l0,0
				c-0.1,0-0.2,0-0.3,0c-0.4,0-0.8,0-1.2,0.1l0,0L16,23.3l-0.2-0.7c-0.4,0.3-0.6,0.6-0.9,1h0.8l-1.3,1.7c0,0.3,0.1,0.6,0.2,0.9h2
				l-1,1.4l0,0c0.6,0.5,1.3,0.8,2,0.8H28.4z M20.4,28.4l-0.7-2.2h2.5L20.4,28.4z M21.7,23.6h2.5l-1.7,2.4L21.7,23.6z M23.2,28.4
				l-0.7-2.2H25L23.2,28.4z M26,28.4l-0.7-2.2h2.3L26,28.4z M25.2,25.9l-0.8-2.4h2.3L25.2,25.9z M24.4,23.3l-0.8-2.4h2.3L24.4,23.3z
				 M25,18.3l-1.6,2.4l-0.8-2.4H25z M23.3,20.9l-1.7,2.4l-0.8-2.4H23.3z M19.9,18.3h2.5l-1.7,2.4L19.9,18.3z M21.3,23.6l-1.7,2.4
				l-0.8-2.4H21.3z M16.1,23.6h2.5l-1.7,2.4L16.1,23.6z M19.4,26.2l-1.8,2.2l-0.7-2.2H19.4z"/>
			<path class="st0" d="M38.8,37.4c-0.2-0.7-0.6-1.4-1.2-1.8l-8.7-6.3l-3.3,10.2c-0.2,0.7-0.2,1.5,0.1,2.2l0,0l1.7-0.5L26.8,43
				c0.2,0.2,0.5,0.3,0.8,0.4l2.1-0.7l-0.3,0.8c0.4-0.1,0.8-0.3,1.2-0.5L30,42.6l1.5-0.5l0,0c0.2-0.3,0.4-0.7,0.5-1.1
				c0-0.1,0.1-0.2,0.1-0.2l0,0l-1.2-0.8l2.7-0.9l-0.4,1.4l0,0c0.1,0,0.2,0.1,0.2,0.1c0.3,0.3,0.6,0.5,1,0.6l0,0l1.5-0.5l-0.2,0.7
				c0.4,0,0.9-0.1,1.3-0.3l-0.7-0.5l2.1-0.7c0.2-0.3,0.3-0.5,0.4-0.8l-1.6-1.2L38.8,37.4L38.8,37.4z M35.3,33.9l-0.7,2.2l-2-1.5
				L35.3,33.9z M32.3,34.4l-2-1.5l2.7-0.7L32.3,34.4z M30.8,30.6l-0.7,2.2l-1.9-1.4L30.8,30.6z M30,33.1l-0.8,2.4l-1.9-1.4L30,33.1z
				 M29.1,35.8l-0.8,2.4l-1.9-1.4L29.1,35.8z M27.5,40.8l-1.9-1.4l2.6-1L27.5,40.8z M29.7,42.4l-2-1.5l2.8-0.9L29.7,42.4z
				 M30.6,39.8l-2-1.5l2.8-0.9L30.6,39.8z M29.5,35.6l2.8-0.9l-0.8,2.4L29.5,35.6z M31.7,37.3l2.8-0.9l-0.8,2.4L31.7,37.3z M36,40.4
				l-2-1.5l2.8-0.9L36,40.4z M36.9,37.7l-2-1.5l2.7-0.7L36.9,37.7z"/>
			<path class="st0" d="M29.3,28.7l8.7,6.3c0.6,0.4,1.3,0.6,2.1,0.6l0,0v-1.8l1.6,1.2c0.3-0.2,0.5-0.4,0.7-0.6v-2.2l0.7,0.5
				c0.1-0.4,0-0.9-0.1-1.3l-0.6,0.4v-1.5l0,0c-0.2-0.3-0.5-0.6-0.9-0.8c-0.1,0-0.1-0.1-0.2-0.2l0,0l-1.2,0.8v-2.9l1.2,0.8l0,0
				c0.1-0.1,0.1-0.1,0.2-0.2c0.3-0.2,0.6-0.5,0.9-0.8l0,0v-1.5l0.6,0.4c0.1-0.4,0.2-0.9,0.1-1.3l-0.7,0.5v-2.2
				c-0.2-0.2-0.4-0.5-0.7-0.6l-1.6,1.2v-1.8l0,0c-0.7-0.1-1.5,0.1-2.1,0.6L29.3,28.7z M31.1,30.1v-2.7l1.9,1.4L31.1,30.1z
				 M33.4,31.8l-0.1-2.8l2,1.5L33.4,31.8z M33.3,28.6l0.1-2.8l1.9,1.4L33.3,28.6z M35.7,33.4l-0.1-2.8l2,1.5L35.7,33.4z M35.5,30.2
				v-2.9l2,1.5L35.5,30.2z M35.5,26.9l0.1-2.8l1.9,1.4L35.5,26.9z M37.9,35l-0.1-2.8l2,1.5L37.9,35z M37.8,31.8v-2.9l2,1.5
				L37.8,31.8z M37.8,28.6v-2.9l2,1.5L37.8,28.6z M40.1,24l2,1.5l-2,1.5V24z M40.1,30.6l2,1.5l-2,1.5V30.6z M39.8,23.8l-2,1.5
				l0.1-2.8L39.8,23.8z"/>
		</g>
		<path d="M9.6,11.8c0.3-0.4,0.7-0.6,1.1-0.7c0.4-0.1,0.8,0.1,1.1,0.4c0.2,0.2,0.4,0.4,0.4,0.7c0.1,0.3,0,0.6-0.1,0.9
			c0.2-0.1,0.4-0.1,0.6-0.1c0.2,0,0.5,0.1,0.9,0.2c0.7,0.2,1.2,0.3,1.5,0.3l-0.8,0.9c-0.1,0-0.4-0.1-0.6-0.1
			c-0.6-0.2-1.1-0.2-1.3-0.3c-0.2,0-0.4,0-0.6,0c-0.1,0-0.3,0.1-0.4,0.2l-0.3,0.3L13,16l-0.7,0.8l-4-3.6L9.6,11.8z M11.1,13.5
			c0.2-0.2,0.3-0.4,0.3-0.6c0-0.2-0.1-0.4-0.3-0.5c-0.2-0.2-0.4-0.2-0.6-0.2s-0.4,0.2-0.6,0.4L9.6,13l1.1,1L11.1,13.5z"/>
		<path d="M13.7,6.8c0.1,0.1,0.1,0.2,0.1,0.4c0,0.1-0.1,0.3-0.2,0.3c-0.1,0.1-0.2,0.1-0.4,0.1c-0.1,0-0.3-0.1-0.3-0.2
			c-0.1-0.1-0.1-0.2-0.1-0.4c0-0.1,0.1-0.3,0.2-0.3c0.1-0.1,0.2-0.1,0.4-0.1C13.5,6.6,13.6,6.7,13.7,6.8z M15,7.1l5,3.2l-0.9,0.6
			l-1.2-0.8l-2,1.3l0.3,1.4l-0.9,0.6l-1.1-5.7L15,7.1z M15.2,5.7c0.1,0.1,0.1,0.2,0.1,0.4c0,0.1-0.1,0.3-0.2,0.3
			c-0.1,0.1-0.2,0.1-0.4,0.1c-0.1,0-0.3-0.1-0.3-0.2c-0.1-0.1-0.1-0.2-0.1-0.4s0.1-0.3,0.2-0.3c0.1-0.1,0.2-0.1,0.4-0.1
			C15.1,5.6,15.2,5.6,15.2,5.7z M15.7,10.6l1.5-1l-1.9-1.3L15.7,10.6z"/>
		<path d="M19.5,4.8l4.2,2.6l-1.1-3.6l1-0.3l1.6,5.2l-0.9,0.3l-4.2-2.7l1.1,3.7l-1,0.3l-1.6-5.2L19.5,4.8z"/>
		<path d="M26.9,3.1l3.3,3.7l0-3.8l1,0l0.1,5.4l-0.9,0L27,4.7l0,3.8l-1,0L26,3.2L26.9,3.1z"/>
		<path d="M34.3,3.7l-1.1,4.5l2.5,0.6l-0.2,0.8L32,8.7l1.3-5.2L34.3,3.7z"/>
		<path d="M41.1,6.3l-0.4,5.9l-1-0.5l0.1-1.4l-2.1-1.1L36.6,10l-1-0.5l4.5-3.7L41.1,6.3z M38.3,8.6l1.5,0.8l0.2-2.3L38.3,8.6z"/>
		<path d="M45.3,9.1L45,14.1l2.6-2.7l0.7,0.7L44.6,16L44,15.3l0.3-5l-2.7,2.8l-0.7-0.7l3.7-3.9L45.3,9.1z"/>
		<path d="M51,16c0.3,0.5,0.4,1,0.4,1.5c0,0.5-0.1,0.9-0.3,1.4c-0.2,0.4-0.6,0.8-1,1c-0.5,0.3-0.9,0.4-1.4,0.4
			c-0.5,0-0.9-0.2-1.3-0.4s-0.8-0.7-1.1-1.2l-1.1-1.9l4.7-2.7L51,16z M46.9,18.1c0.3,0.5,0.7,0.8,1.1,1c0.5,0.1,1,0.1,1.4-0.2
			c0.5-0.3,0.8-0.7,0.9-1.1c0.1-0.5,0-1-0.3-1.5l-0.5-0.9l-3.3,1.9L46.9,18.1z"/>
		<path d="M51.6,26c0.1,0,0.1,0,0.2,0c0.3-0.1,0.5-0.2,0.7-0.4c0.2-0.2,0.2-0.5,0.2-0.8c-0.1-0.3-0.2-0.5-0.4-0.7
			c-0.2-0.1-0.4-0.2-0.6-0.2c-0.1,0-0.1,0-0.2,0c-0.3,0-0.5,0.2-0.7,0.4c-0.2,0.2-0.2,0.5-0.2,0.8c0,0.3,0.2,0.5,0.4,0.7
			C51.2,25.9,51.4,26,51.6,26z"/>
		<path d="M5.7,25.9c0.1,0,0.1,0,0.2,0c0.2,0,0.4-0.1,0.6-0.2C6.8,25.5,6.9,25.3,7,25c0.1-0.3,0-0.6-0.2-0.8
			c-0.2-0.2-0.4-0.4-0.7-0.4c-0.1,0-0.1,0-0.2,0c-0.2,0-0.4,0.1-0.6,0.2c-0.2,0.2-0.4,0.4-0.4,0.7c-0.1,0.3,0,0.6,0.2,0.8
			C5.2,25.7,5.4,25.8,5.7,25.9z"/>
		<polygon points="8.9,34.2 5.2,33.4 8.3,31.2 8.1,30.1 3.2,33.6 3.3,34 9.1,35.2 		"/>
		<path d="M11.7,37.3c-0.1,0-0.1,0-0.2,0c-0.1,0-0.1,0-0.2,0c-0.1,0.1-0.2,0.2-0.3,0.3c0,0.1,0,0.3,0,0.4c0.1,0.1,0.2,0.2,0.3,0.3
			c0.1,0,0.1,0,0.2,0c0.1,0,0.1,0,0.2,0c0.1-0.1,0.2-0.2,0.3-0.3c0-0.1,0-0.3,0-0.4C11.9,37.5,11.8,37.4,11.7,37.3z"/>
		<path d="M9.9,36.9l-5.8,0.3l0.5,1L6,38l1,2.2l-1,1.1l0.5,1l3.9-4.4L9.9,36.9z M7.5,39.6L6.8,38l2.3-0.2L7.5,39.6z"/>
		<path d="M10.5,36.6c0.1,0,0.1,0,0.2,0c0.1,0,0.1,0,0.2,0c0.1-0.1,0.2-0.2,0.3-0.3c0-0.1,0-0.3,0-0.4c-0.1-0.1-0.2-0.2-0.3-0.3
			c-0.1,0-0.1,0-0.2,0c-0.1,0-0.1,0-0.2,0c-0.1,0.1-0.2,0.2-0.3,0.3c0,0.1,0,0.3,0,0.4C10.3,36.4,10.4,36.5,10.5,36.6z"/>
		<path d="M13.5,43c-0.1-0.5-0.3-1-0.6-1.4c-0.3-0.4-0.7-0.7-1.2-0.8c-0.1,0-0.2,0-0.3,0c-0.3,0-0.6,0.1-0.9,0.3
			c-0.3,0.2-0.4,0.5-0.5,0.8c-0.1,0.3,0,0.7,0.1,1.2c0.1,0.4,0.2,0.7,0.2,1c0,0.3,0,0.5-0.2,0.7c-0.1,0.1-0.2,0.1-0.3,0.1
			c-0.1,0-0.1,0-0.2,0c-0.2-0.1-0.4-0.2-0.5-0.4c-0.3-0.4-0.5-1-0.5-1.7c-0.3,0.2-0.5,0.4-0.8,0.6C7.9,43.7,8,44,8,44.3
			c0.1,0.2,0.3,0.5,0.5,0.8c0.3,0.4,0.7,0.7,1.1,0.7c0.1,0,0.2,0,0.3,0c0.3,0,0.6-0.1,0.9-0.3c0.3-0.2,0.5-0.5,0.5-0.8
			c0.1-0.3,0.1-0.7-0.1-1.2c-0.1-0.6-0.2-0.9-0.2-1c0-0.3,0-0.5,0.2-0.7c0.1-0.1,0.2-0.1,0.3-0.1c0.1,0,0.1,0,0.2,0
			c0.2,0.1,0.3,0.2,0.5,0.4c0.3,0.3,0.5,0.8,0.5,1.5C13,43.4,13.3,43.2,13.5,43z"/>
		<polygon points="18,46.3 14.1,43.3 13.6,44 15.1,45.1 12.3,48.7 13.1,49.4 16,45.8 17.5,47 		"/>
		<polygon points="21.4,48.8 21.7,48.1 18.6,46.6 16.3,51.5 19.5,53 19.9,52.3 17.6,51.2 18.2,49.8 20.4,50.8 20.7,50.1 18.6,49.1 
			19.2,47.8 		"/>
		<path d="M24.6,48.8c-0.6-0.1-1.3-0.3-1.9-0.4c-0.4,1.8-0.7,3.5-1.1,5.3c0.3,0.1,0.7,0.1,1,0.2c0.2-0.7,0.3-1.5,0.5-2.2
			c0.1,0,0.2,0.1,0.4,0.1c0.2,0,0.3,0.1,0.4,0.2c0.1,0.1,0.2,0.3,0.3,0.5c0.1,0.2,0.2,0.6,0.4,1.3c0.1,0.3,0.1,0.5,0.2,0.6
			c0.4,0.1,0.8,0.2,1.1,0.2c-0.1-0.3-0.3-0.8-0.4-1.5c-0.1-0.4-0.2-0.7-0.3-0.9c-0.1-0.2-0.2-0.3-0.4-0.5c0.3-0.1,0.6-0.2,0.8-0.4
			c0.2-0.2,0.3-0.4,0.4-0.7c0.1-0.4,0-0.8-0.2-1.2C25.5,49.1,25.1,48.9,24.6,48.8z M24.9,50.5c0,0.2-0.2,0.4-0.3,0.5
			c-0.1,0.1-0.3,0.1-0.4,0.1c-0.1,0-0.2,0-0.3,0c-0.2,0-0.4-0.1-0.7-0.1c0.1-0.5,0.2-1,0.3-1.5c0.2,0,0.4,0.1,0.6,0.1
			c0.3,0.1,0.5,0.2,0.6,0.3C24.9,50,25,50.2,24.9,50.5z"/>
		<path d="M30.6,51.7C30.6,51.7,30.6,51.7,30.6,51.7c0.2-0.2,0.4-0.3,0.5-0.5c0.1-0.2,0.2-0.4,0.2-0.7c0-0.4-0.2-0.7-0.5-0.9
			c-0.3-0.2-0.7-0.3-1.1-0.3c0,0-0.1,0-0.1,0c-0.7,0-1.3,0-2,0.1c0.1,1.8,0.1,3.6,0.2,5.4c0.8,0,1.5-0.1,2.3-0.1
			c0.4,0,0.7-0.1,1-0.2c0.3-0.1,0.5-0.3,0.6-0.6c0.1-0.2,0.2-0.5,0.2-0.8c0-0.3-0.1-0.6-0.3-0.9C31.3,51.9,31,51.8,30.6,51.7z
			 M28.7,50.1c0.3,0,0.5,0,0.8,0c0,0,0,0,0,0c0.2,0,0.4,0.1,0.5,0.2c0.2,0.1,0.2,0.3,0.2,0.5c0,0.2-0.1,0.4-0.2,0.6
			c-0.2,0.1-0.4,0.2-0.6,0.2c-0.2,0-0.4,0-0.7,0C28.7,51,28.7,50.5,28.7,50.1z M30.5,53.6c-0.2,0.1-0.4,0.2-0.8,0.2
			c-0.3,0-0.6,0-0.9,0c0-0.5,0-1-0.1-1.5c0.3,0,0.7,0,1,0c0,0,0,0,0.1,0c0.3,0,0.5,0.1,0.7,0.2c0.2,0.1,0.3,0.3,0.3,0.5
			C30.8,53.2,30.7,53.4,30.5,53.6z"/>
		<path d="M38,48.6c-0.4-0.3-0.8-0.5-1.3-0.6c-0.2,0-0.3,0-0.5,0c-0.3,0-0.7,0.1-1.1,0.2c-0.6,0.2-1,0.5-1.4,0.8
			c-0.4,0.4-0.6,0.8-0.7,1.3c-0.1,0.5-0.1,1,0.1,1.4c0.2,0.5,0.4,0.9,0.8,1.2c0.4,0.3,0.8,0.5,1.3,0.6c0.2,0,0.3,0,0.5,0
			c0.3,0,0.7-0.1,1-0.2c0.5-0.2,1-0.4,1.3-0.8c0.4-0.4,0.6-0.8,0.7-1.3c0.1-0.5,0.1-1-0.1-1.5C38.6,49.4,38.3,49,38,48.6z
			 M37.7,51.7c-0.2,0.4-0.6,0.7-1.1,0.9c-0.2,0.1-0.5,0.1-0.7,0.1c-0.1,0-0.2,0-0.3,0c-0.3-0.1-0.6-0.2-0.9-0.4
			c-0.2-0.2-0.4-0.5-0.5-0.8c-0.1-0.3-0.1-0.7-0.1-1c0.1-0.3,0.2-0.6,0.4-0.8c0.2-0.2,0.5-0.4,0.9-0.5c0.2-0.1,0.5-0.1,0.7-0.1
			c0.1,0,0.2,0,0.3,0c0.3,0.1,0.6,0.2,0.9,0.4c0.2,0.2,0.4,0.5,0.5,0.8C37.9,50.7,37.9,51.2,37.7,51.7z"/>
		<polygon points="42.7,45.1 42.2,44.4 38.2,47.1 38.6,47.8 40.2,46.7 42.8,50.5 43.7,49.9 41.1,46.1 		"/>
		<polygon points="46.4,41 45.8,40.4 42.6,44.1 43.2,44.6 44.4,43.2 47.9,46.2 48.6,45.4 45.1,42.4 		"/>
		<polygon points="50.6,41.1 49.3,40.3 50.4,38.3 49.6,37.9 48.5,40 47.3,39.3 48.4,37.1 47.7,36.7 46.1,39.8 50.8,42.4 52.5,39.2 
			51.8,38.8 		"/>
		<polygon points="48.4,34.9 48.2,35.8 53.4,37 53.7,36 49.9,35.1 54.4,32.8 54.6,32 49.3,30.8 49.1,31.8 52.8,32.6 		"/>
		<path d="M28.7,47C38.8,47,47,38.8,47,28.7s-8.2-18.2-18.2-18.2c-10.1,0-18.2,8.2-18.2,18.2S18.7,47,28.7,47z M12.5,35.6
			c-0.5-1.1-0.8-2.2-1-3.3c-0.2-1.2-0.4-2.4-0.4-3.6c0-1.2,0.1-2.4,0.4-3.6c0.2-1.1,0.6-2.3,1-3.3c0.4-1.1,1-2.1,1.6-3
			c0.6-0.9,1.4-1.8,2.2-2.6c0.8-0.8,1.7-1.5,2.6-2.2c0.9-0.6,2-1.2,3-1.6c1.1-0.5,2.2-0.8,3.3-1c1.2-0.2,2.4-0.4,3.6-0.4
			s2.4,0.1,3.6,0.4c1.1,0.2,2.3,0.6,3.3,1c1.1,0.4,2.1,1,3,1.6c0.9,0.6,1.8,1.4,2.6,2.2c0.8,0.8,1.5,1.7,2.2,2.6
			c0.6,0.9,1.2,2,1.6,3c0.5,1.1,0.8,2.2,1,3.3c0.2,1.2,0.4,2.4,0.4,3.6c0,1.2-0.1,2.4-0.4,3.6c-0.2,1.1-0.6,2.3-1,3.3
			c-0.4,1.1-1,2.1-1.6,3c-0.6,0.9-1.4,1.8-2.2,2.6c-0.8,0.8-1.7,1.5-2.6,2.2c-0.9,0.6-2,1.2-3,1.6c-1.1,0.5-2.2,0.8-3.3,1
			c-1.2,0.2-2.4,0.4-3.6,0.4c-1.2,0-2.4-0.1-3.6-0.4c-1.1-0.2-2.3-0.6-3.3-1c-1.1-0.4-2.1-1-3-1.6c-0.9-0.6-1.8-1.4-2.6-2.2
			c-0.8-0.8-1.5-1.7-2.2-2.6C13.4,37.7,12.9,36.7,12.5,35.6z"/>
		<path d="M28.7,0.4C13.1,0.4,0.4,13.1,0.4,28.7c0,15.6,12.7,28.3,28.3,28.3c15.6,0,28.3-12.7,28.3-28.3
			C57.1,13.1,44.4,0.4,28.7,0.4z M28.7,56.5C13.4,56.5,1,44.1,1,28.7C1,13.4,13.4,1,28.7,1s27.8,12.5,27.8,27.8
			C56.5,44.1,44.1,56.5,28.7,56.5z"/>
	</g>
</g>
</svg>
