<?xml version="1.0" encoding="UTF-8"?><svg id="a" xmlns="http://www.w3.org/2000/svg" width="20.2847mm" height="20.2847mm" viewBox="0 0 57.4999 57.4999"><defs><style>.cls-1{fill:none;}.cls-2{fill:#151514;}</style></defs><g><path d="M6.4616,16.1388c.2422-.4316,.5518-.7197,.9297-.8652,.377-.1465,.7344-.125,1.0723,.0645,.2158,.1211,.374,.2852,.4736,.4902,.1006,.2061,.1387,.4434,.1143,.7148l.041,.0215c.2578-.2861,.5479-.459,.8701-.5195s.6309-.0078,.9248,.1582c.2607,.1465,.457,.3438,.5879,.5928,.1299,.249,.1807,.5225,.1514,.8174-.0303,.2949-.1357,.6035-.3154,.9248l-1.1074,1.9727-4.7119-2.6445,.9697-1.7275Zm1.8193,1.3418c.1348-.2402,.1846-.4629,.1484-.666-.0371-.2051-.1572-.3633-.3623-.4785-.1816-.1025-.3623-.1191-.541-.0508s-.3262,.207-.4443,.416l-.3672,.6543,1.2451,.6982,.3213-.5732Zm2.1631,.9346c.1729-.3076,.2461-.5732,.2178-.7959-.0273-.2227-.1533-.3965-.3779-.5225-.2002-.1123-.4023-.123-.6055-.0322-.2031,.0918-.3789,.2695-.5264,.5322l-.4814,.8564,1.332,.748,.4414-.7861Z"/><path d="M9.1022,12.2717l2.2129,.2715-.4238-2.1982,.8447-.9102,.6084,3.3525,1.9619,1.8203-.7109,.7656-1.9668-1.8262-3.3896-.3457,.8633-.9297Z"/><path d="M15.3737,6.8127c.5615-.3564,1.1973-.585,1.9092-.6855l.5127,.8057c-.7314,.0703-1.3643,.2764-1.9004,.6162-.333,.2109-.5859,.4658-.7607,.7627-.1748,.2979-.2549,.6162-.2383,.9561,.0156,.3398,.1211,.6621,.3154,.9697,.2959,.4658,.6895,.7422,1.1797,.8291s.9893-.0312,1.4961-.3525c.1396-.0889,.2656-.1855,.3779-.29,.1113-.1055,.2344-.2471,.3682-.4258l-.4814-.7578-.7539,.4785-.4375-.6885,1.6357-1.0391,1.1943,1.8799c-.125,.2998-.3164,.5938-.5752,.8809-.2578,.2881-.5576,.54-.8965,.7559-.4814,.3047-.9805,.4824-1.4961,.5332-.5166,.0498-.998-.0332-1.4434-.252-.4453-.2178-.8076-.5469-1.0869-.9863-.2832-.4463-.4297-.9199-.4385-1.4219-.0078-.502,.1211-.9785,.3896-1.4297,.2676-.4512,.6445-.8301,1.1299-1.1387Z"/><path d="M22.028,4.0168c.5439-.1436,1.0566-.1592,1.5391-.0488s.8936,.335,1.2334,.6748,.5762,.7617,.708,1.2617c.1338,.5117,.1357,.9961,.0039,1.4531s-.3857,.8516-.7627,1.1816c-.377,.332-.8457,.5703-1.4072,.7188l-2.1279,.5596-1.374-5.2256,2.1875-.5752Zm1.0625,4.4639c.5586-.1465,.9619-.4326,1.2119-.8574,.25-.4238,.3037-.9082,.1602-1.4512-.1484-.5635-.4355-.9639-.8613-1.2012-.4268-.2373-.9277-.2793-1.5039-.1289l-1.04,.2734,.959,3.6475,1.0742-.2822Z"/><path d="M28.8893,3.0549c.5264,.0078,1.0312,.1445,1.5156,.4141l-.0117,.9277c-.5557-.3438-1.0498-.5195-1.4824-.5254-.2637-.0029-.4697,.0449-.6191,.1455s-.2256,.2354-.2275,.4053c-.0029,.2031,.1328,.3936,.4062,.5703,.0771,.0518,.373,.2002,.8887,.4434,.4404,.2148,.7568,.4512,.9502,.709,.1924,.2578,.2861,.5654,.2822,.9238-.0059,.4639-.1777,.8359-.5156,1.1172-.3369,.2803-.7715,.418-1.3027,.4102-.3457-.0039-.6416-.0449-.8896-.125-.248-.0791-.5254-.2129-.832-.4023l.0127-1.0293c.5713,.4863,1.1123,.7334,1.623,.7402,.2549,.0029,.4619-.0498,.6211-.1582,.1582-.1094,.2383-.2559,.2412-.4385,.0029-.25-.1309-.4561-.4023-.6162-.2256-.127-.5166-.2783-.8721-.4551-.4229-.1992-.7383-.4287-.9453-.6895-.207-.2598-.3076-.5605-.3037-.9014,.0059-.4541,.1797-.8135,.5205-1.0781s.7891-.3936,1.3428-.3877Z"/><path d="M33.4577,3.5519l-.8828,5.3311-1.0303-.1709,.8828-5.3311,1.0303,.1709Z"/><path d="M36.6101,4.3498l-1.5039,4.334,2.4775,.8594-.2676,.7705-3.4639-1.2021,1.7715-5.1035,.9863,.3418Z"/><path d="M41.4411,6.4855l-2.4883,4.5635c-.2773,.5068-.6338,.8379-1.0723,.9941-.4375,.1562-.8799,.1133-1.3281-.1318-.0322-.0166-.0615-.0342-.0898-.0488-.0283-.0156-.0576-.0342-.0869-.0557l.3672-.8262c.543,.2959,.9883,.126,1.335-.5098l2.4473-4.4854,.916,.5Z"/><path d="M44.3376,8.3713l-2.0508,2.3838c-.21,.2441-.3408,.4697-.3916,.6787-.0508,.207-.0342,.4297,.0518,.666,.085,.2363,.2383,.4502,.459,.6406,.2422,.208,.4863,.3398,.7324,.3965,.2451,.0566,.4727,.043,.6836-.0439,.21-.0859,.4316-.2646,.665-.5361l2.0059-2.332,.791,.6816-2.0928,2.4336c-.4746,.5508-1.0039,.832-1.5889,.8447-.5859,.0117-1.1797-.2422-1.7842-.7617-.3789-.3262-.6494-.6768-.8125-1.0518-.1621-.373-.207-.752-.1348-1.1328,.0732-.3809,.2578-.7441,.5537-1.0879l2.1191-2.4629,.7939,.6836Z"/><path d="M49.7419,13.9748l-.9033,2.623,2.7422,.415,.4824,.7979-4.6221,2.7969-.541-.8926,3.2461-1.9648-.0156-.0273-2.4375-.3506-.0762-.126,.8193-2.3223-.0166-.0254-3.2461,1.9639-.54-.8936,4.6221-2.7969,.4863,.8027Z"/></g><polygon class="cls-1" points="7.541 39.563 9.0928 37.8312 6.8033 37.9821 7.541 39.563"/><path d="M5.7116,25.8751c.0692,.012,.1368,.018,.2029,.018,.2158,0,.4152-.064,.5987-.192,.2397-.1683,.3858-.4003,.4381-.6973,.0502-.2928-.0098-.5588-.1818-.7996-.1711-.2397-.4013-.3857-.6913-.436-.068-.0118-.1345-.0176-.1995-.0176-.217,0-.4174,.0656-.6011,.1966-.2388,.1702-.384,.4003-.4341,.6904-.0513,.2968,.0078,.5648,.1769,.8035,.1693,.2388,.3994,.3839,.6913,.4341Z"/><polygon points="8.9247 34.1726 5.2349 33.3749 8.3483 31.2113 8.1376 30.1294 3.2373 33.5943 3.306 33.951 9.1345 35.2467 8.9247 34.1726"/><path d="M11.6552,37.3362c-.0617-.0225-.1223-.0337-.182-.0337-.0713,0-.1412,.0161-.2097,.0482-.1314,.061-.2194,.1596-.2659,.2948-.0464,.1354-.0406,.265,.0175,.3887,.059,.1267,.1556,.2137,.291,.2631,.0617,.0225,.1224,.0336,.1821,.0336,.0714,0,.1416-.016,.2106-.0482,.1237-.057,.2098-.1556,.259-.2938,.0494-.1384,.0456-.2679-.0106-.3897-.059-.1256-.1567-.2137-.292-.263Z"/><path d="M9.9128,36.8547l-5.8381,.2668,.4632,.9921,1.4127-.0832,1.0162,2.1766-.9543,1.0645,.4661,.9979,3.8859-4.4477-.4515-.967Zm-2.3718,2.7083l-.7377-1.5809,2.2895-.1509-1.5518,1.7318Z"/><path d="M10.5055,36.5696c.0626,.0209,.1233,.0314,.1819,.0314,.0709,0,.1388-.0153,.204-.0461,.1237-.0571,.2108-.1545,.261-.2919,.0492-.1373,.0454-.2688-.0135-.3946-.058-.1237-.1556-.2126-.293-.2649-.064-.025-.127-.0374-.1888-.0374-.0699,0-.1385,.0158-.2056,.047-.1287,.06-.2156,.1586-.2621,.2969-.0464,.1382-.0406,.2698,.0175,.3936,.0609,.1305,.1605,.2195,.2987,.266Z"/><path d="M13.5106,43.0186c-.1005-.5443-.316-1.0219-.6458-1.4318-.348-.4313-.733-.6943-1.1544-.7881-.105-.0236-.2078-.0353-.3087-.0353-.304,0-.5886,.1071-.8537,.3206-.265,.2137-.4321,.4835-.5009,.8083-.0696,.3258-.0454,.7146,.0706,1.1671,.09,.3877,.1586,.7088,.2041,.963,.0493,.3114-.0242,.5455-.2185,.703-.0981,.0783-.2059,.1176-.3235,.1176-.0538,0-.1097-.0082-.1677-.0247-.1856-.0533-.3578-.179-.5182-.3781-.3201-.3974-.4747-.9718-.4631-1.722-.2672,.2149-.5344,.4299-.8016,.6449,.0494,.3577,.1228,.6565,.2194,.8983,.0969,.2416,.2534,.4969,.471,.7657,.3327,.414,.7145,.6614,1.1458,.7426,.0945,.0178,.1874,.0266,.2785,.0266,.3255,0,.629-.1135,.9108-.3408,.2794-.2253,.4573-.4941,.5327-.8064,.0764-.3123,.0561-.7078-.0589-1.1835-.1401-.553-.2147-.8751-.2234-.9679-.0386-.3229,.0213-.5483,.1808-.6759,.0894-.0723,.1874-.1082,.2946-.1082,.0518,0,.1058,.0085,.1619,.0252,.1731,.0513,.3414,.1798,.5067,.3847,.2717,.3375,.4515,.8297,.5386,1.4775,.241-.1941,.4819-.388,.7231-.5822Z"/><polygon points="17.9623 46.3448 14.1334 43.3173 13.6276 43.9576 15.1322 45.1479 12.2876 48.7456 13.1065 49.3934 15.9512 45.7946 17.4556 46.9849 17.9623 46.3448"/><polygon points="21.3985 48.8374 21.7438 48.0978 18.5791 46.6203 16.2934 51.5167 19.5075 53.0163 19.8524 52.2777 17.5851 51.2189 18.2349 49.8276 20.3582 50.8187 20.7034 50.079 18.58 49.0879 19.1805 47.8019 21.3985 48.8374"/><path d="M24.6116,48.8219c-.6353-.1299-1.2705-.2598-1.9058-.3896-.361,1.7645-.722,3.5291-1.0829,5.2937,.3409,.0695,.6819,.1393,1.0229,.2089l.4574-2.2354,.3712,.0763c.1645,.0329,.3008,.1044,.411,.2118,.1093,.1083,.2118,.2737,.3085,.4979,.0966,.2233,.233,.6469,.4108,1.2706,.0823,.2823,.1499,.4892,.2042,.6215,.3803,.0778,.7606,.1555,1.1409,.2332-.1073-.2748-.2562-.7649-.4486-1.4736-.118-.411-.2272-.7078-.3268-.8916-.0995-.1838-.2244-.3383-.3751-.4631,.3326-.0667,.5994-.1954,.8006-.3878,.201-.1915,.3315-.438,.3934-.7387,.0909-.4418,.0068-.8325-.2495-1.172-.2571-.3393-.6342-.5598-1.1321-.6622Zm.3211,1.637c-.0485,.233-.1616,.4002-.3424,.5027-.1171,.0667-.2532,.1003-.4079,.1003-.0827,0-.1708-.0096-.2641-.0288-.2172-.0445-.4344-.0889-.6517-.1334,.1005-.4912,.2011-.9824,.3017-1.4736,.2124,.0432,.4247,.0864,.6372,.1296,.2803,.058,.4834,.1624,.611,.3132,.1267,.1509,.1653,.3471,.1161,.5898Z"/><path d="M30.6025,51.6908l-.001-.0464c.2428-.1199,.4265-.2755,.5491-.4689,.1238-.1924,.1808-.4128,.1721-.6603-.0144-.3859-.1816-.7029-.5037-.9486-.2987-.2295-.673-.3443-1.1219-.3443-.0333,0-.067,.0007-.1012,.002-.6599,.0239-1.3196,.0477-1.9794,.0715,.0658,1.8,.1315,3.6002,.1974,5.4001,.7535-.0277,1.507-.0554,2.2606-.0832,.3684-.0135,.6864-.0842,.9543-.2128,.2678-.1285,.4738-.3131,.6178-.5549,.145-.2407,.2117-.5116,.201-.8103-.0125-.3374-.1285-.6274-.347-.8712-.2196-.2437-.5183-.4012-.8983-.4728Zm-1.9125-1.6177c.2501-.009,.5002-.0181,.7504-.0272l.049-.0008c.2167,0,.3965,.0546,.537,.1635,.1518,.1169,.2311,.2794,.2387,.4882,.0087,.2348-.0646,.4206-.2194,.5579-.1557,.1374-.3704,.2108-.6469,.2214-.2189,.0077-.4377,.0156-.6565,.0233-.0175-.4755-.0349-.9508-.0523-1.4263Zm1.8314,3.5079c-.176,.1393-.4399,.2147-.7928,.2282l-.9012,.0329c-.0184-.5089-.0367-1.0178-.0551-1.5267,.3271-.0118,.6543-.0239,.9814-.0357,.0253-.001,.05-.0015,.0745-.0015,.2673,0,.4853,.0584,.6536,.1735,.1838,.1267,.2805,.3045,.2881,.5337,.0097,.2573-.0734,.4564-.2484,.5956Z"/><path d="M37.9615,48.6431c-.3877-.3307-.8295-.5366-1.3267-.6169-.1571-.0253-.316-.038-.4767-.038-.3474,0-.7028,.0593-1.0663,.1783-.554,.1807-1.0065,.4554-1.3585,.8237-.3521,.3683-.5811,.7986-.6885,1.2927-.1074,.4932-.0842,.9747,.0687,1.4456,.1594,.4882,.4263,.8934,.8005,1.2183,.3742,.3239,.817,.5298,1.3266,.6179,.1726,.0301,.3464,.0452,.5213,.0452,.3428,0,.6902-.0576,1.0422-.1729,.5395-.1759,.9872-.4475,1.343-.815,.3568-.3663,.5908-.7957,.703-1.287,.1121-.4911,.0899-.9765-.0667-1.457-.1605-.4921-.4351-.9041-.822-1.2347Zm-.2919,3.0138c-.2311,.4418-.6101,.7493-1.1371,.9215-.228,.074-.451,.1112-.6689,.1112-.1149,0-.2285-.0103-.3405-.0309-.325-.0591-.6082-.1992-.8518-.4216-.2427-.2214-.4206-.5029-.5318-.8431-.1113-.3432-.1373-.6749-.0764-.994,.062-.3201,.207-.6005,.4351-.8422,.2292-.2417,.5183-.4196,.8664-.5328,.2291-.0751,.4535-.1125,.6734-.1125,.1143,0,.2272,.0101,.3391,.0303,.3267,.0589,.6119,.1992,.8536,.4225,.2427,.2234,.4197,.5057,.5309,.8461,.1701,.5222,.1401,1.0046-.0919,1.4456Z"/><polygon points="42.6868 45.0502 42.2294 44.3743 38.185 47.1058 38.6422 47.7826 40.2318 46.7084 42.799 50.5092 43.6643 49.9252 41.0972 46.1243 42.6868 45.0502"/><polygon points="46.3842 40.9543 45.7711 40.4167 42.5533 44.087 43.1674 44.6247 44.432 43.1821 47.8809 46.2065 48.5694 45.4213 45.1205 42.397 46.3842 40.9543"/><polygon points="50.6124 41.0549 49.2568 40.3346 50.3571 38.2654 49.6369 37.8815 48.5365 39.9517 47.2833 39.2855 48.432 37.1235 47.7117 36.7406 46.0729 39.8241 50.8435 42.3602 52.5075 39.2284 51.7871 38.8456 50.6124 41.0549"/><polygon points="49.0809 31.7654 52.758 32.6003 48.3712 34.8968 48.168 35.7911 53.4376 36.9853 53.663 35.9894 49.926 35.1424 54.3775 32.8401 54.5758 31.9646 49.3071 30.7696 49.0809 31.7654"/><path d="M51.64,23.8699c-.064,0-.1293,.0057-.196,.0172-.295,.0494-.5271,.1943-.6971,.4323-.1701,.2378-.2301,.5057-.1788,.8035,.0492,.2919,.1953,.523,.437,.6922,.1872,.1311,.3889,.1965,.605,.1965,.0629,0,.1273-.0055,.1927-.0166,.2949-.0502,.5269-.1953,.6952-.436,.1683-.2399,.2272-.5057,.1779-.7949-.0502-.2979-.1953-.5309-.4341-.699-.1849-.1298-.3855-.1953-.6016-.1953Z"/><path d="M28.7489,46.9916c10.0751,0,18.2434-8.1674,18.2434-18.2424S38.824,10.5062,28.7489,10.5062,10.5065,18.6741,10.5065,28.7492s8.1674,18.2424,18.2424,18.2424Zm-16.2919-11.3591c-.452-1.0685-.7976-2.1821-1.0301-3.3187-.2398-1.1719-.3592-2.3684-.3592-3.5647s.1194-2.3928,.3592-3.5647c.2325-1.1367,.5781-2.2502,1.0301-3.3188,.4444-1.0505,.9915-2.0576,1.6301-3.0026,.6342-.9385,1.3586-1.8159,2.1594-2.6167,.8009-.8009,1.6782-1.5252,2.6165-2.1594,.9451-.6387,1.9521-1.1859,3.0026-1.6302,1.0685-.4521,2.1821-.7978,3.3188-1.0302,1.1719-.2397,2.3683-.3593,3.5646-.3593s2.3927,.1195,3.5647,.3593c1.1366,.2324,2.2503,.5782,3.3188,1.0302,1.0506,.4443,2.0576,.9915,3.0026,1.6302,.9384,.6342,1.8159,1.3585,2.6168,2.1594,.8009,.8009,1.5253,1.6782,2.1595,2.6167,.6387,.945,1.1858,1.9521,1.6303,3.0027,.452,1.0685,.7977,2.182,1.0303,3.3187,.2397,1.1719,.359,2.3684,.359,3.5647s-.1193,2.3928-.359,3.5647c-.2326,1.1366-.5782,2.2502-1.0303,3.3187-.4445,1.0505-.9916,2.0574-1.6303,3.0025-.6342,.9385-1.3586,1.8158-2.1595,2.6166-.801,.8009-1.6783,1.5252-2.6167,2.1593-.9451,.6387-1.9521,1.1859-3.0027,1.6302-1.0685,.452-2.1823,.7976-3.3188,1.0301-1.172,.2398-2.3684,.3593-3.5648,.3593s-2.3928-.1194-3.5646-.3593c-1.1367-.2325-2.2502-.5781-3.3188-1.0301-1.0506-.4443-2.0575-.9915-3.0026-1.6302-.9383-.6341-1.8156-1.3584-2.6165-2.1592-.8008-.8009-1.5252-1.6782-2.1594-2.6166-.6385-.9452-1.1857-1.9521-1.6301-3.0026Z"/><path class="cls-2" d="M17.4514,2.758c-.1616,.0706-.3214,.1445-.4814,.218-.3807,.1747-.7567,.3577-1.1281,.5486-.1409,.0724-.2833,.1422-.4227,.2169-.4857,.2599-.9641,.5319-1.4324,.8188-.1027,.0629-.202,.1308-.3038,.1949-.3764,.2372-.7469,.4827-1.1111,.7368-.1453,.1014-.2897,.204-.433,.3081-.3595,.2609-.7123,.5302-1.0588,.8073-.0931,.0745-.189,.1454-.2811,.2211-.4236,.3475-.8358,.7085-1.2385,1.0796-.1137,.1048-.2237,.2135-.3357,.3201-.3023,.2877-.5984,.5818-.8879,.8826-.1183,.123-.2372,.2455-.3534,.3706-.3639,.3919-.72,.7912-1.0615,1.2032l-.0735,.0891c-.3394,.4128-.664,.838-.9801,1.2698-.1017,.139-.2004,.2803-.2997,.4211-.2402,.3409-.4728,.6874-.6981,1.0391-.0845,.1319-.1714,.2621-.2537,.3955-.2889,.4678-.5662,.9435-.8282,1.4287-.057,.1056-.1088,.2143-.1645,.3207-.2072,.3959-.4055,.7971-.5943,1.2036-.0754,.1622-.1492,.3253-.2215,.4892-.181,.41-.3522,.8252-.5141,1.2451-.0442,.1146-.0925,.2271-.1352,.3424-.1932,.5215-.3695,1.051-.5323,1.5862-.0469,.1542-.0883,.3108-.1327,.4661-.1166,.4086-.2245,.8209-.3229,1.2367-.0413,.1744-.0833,.3486-.1213,.5242-.1158,.5344-.2203,1.0729-.3054,1.6179-.2233,1.4308-.3411,2.8962-.3411,4.3887,0,15.6302,12.7155,28.3467,28.3462,28.3467l.0202-.0005c.6667-.0005,1.3261-.032,1.9814-.078,.1574-.011,.3148-.0223,.4715-.036,.6484-.0563,1.2921-.1293,1.9274-.2288,.0803-.0126,.1592-.0296,.2393-.0428,.5797-.0959,1.1527-.2116,1.7201-.3423,.1382-.0318,.277-.062,.4144-.0959,.6164-.1519,1.2257-.3218,1.8256-.5134,.1064-.0339,.2108-.0722,.3166-.1074,.5384-.179,1.0696-.3736,1.5932-.5836,.1047-.0419,.2108-.0812,.3148-.1243,.5829-.2419,1.1555-.5035,1.7181-.7825,.109-.054,.2162-.111,.3244-.1664,.5256-.2692,1.0433-.5518,1.5494-.8522,.0526-.0312,.1066-.06,.1589-.0915,.5473-.3297,1.0804-.6804,1.6029-1.0452,.0967-.0675,.1923-.1364,.2882-.2051,1.051-.7533,2.0488-1.5756,2.986-2.462,.076-.0719,.152-.144,.2272-.2167,.9413-.9101,1.8198-1.8843,2.6287-2.9162,.0519-.0663,.1047-.1318,.1561-.1985,.4026-.5231,.7894-1.0591,1.1555-1.6102,.0202-.0304,.0391-.0617,.0591-.0922,.355-.5387,.6911-1.0908,1.0095-1.6542,.0274-.0485,.0562-.096,.0833-.1447,.3248-.5827,.6292-1.1783,.9131-1.7852,.0269-.0576,.0521-.116,.0787-.1738,.2765-.6014,.5351-1.2126,.7698-1.8356,.0067-.0179,.0144-.0354,.0211-.0533,.0562-.1506,.1099-.3023,.1635-.4541l.0193-.057c.2574-.7301,.4869-1.4733,.6852-2.2289,.1866-.7111,.3401-1.4352,.4717-2.1667,.017-.095,.035-.1898,.0511-.2852,.1184-.6998,.2104-1.4084,.2762-2.1246,.0112-.1235,.0187-.2482,.0284-.3722,.0566-.7197,.093-1.4449,.0941-2.1788l.001-.0409c0-.5279-.0172-1.0517-.0458-1.5726-.0278-.5067-.0704-1.0095-.1247-1.5089-.0205-.1887-.0476-.3753-.0718-.5629-.0459-.3563-.0968-.7109-.1559-1.0629-.0341-.2028-.0703-.4049-.1086-.6063-.0666-.3496-.1411-.6963-.2204-1.0413-.0416-.1808-.0804-.3629-.1255-.5424-.1188-.4737-.2485-.9431-.3909-1.4071-.0157-.0512-.03-.103-.046-.1541-.2169-.6913-.4653-1.3682-.7325-2.0355l-.0144-.0364c-.5056-1.2587-1.0985-2.472-1.7722-3.6344l-.027-.0469c-.1697-.2914-.3437-.5798-.5232-.8644l-.0309-.0481c-.3194-.5042-.6535-.998-1.0032-1.48l-.0372-.0522c-.1227-.1685-.2465-.3362-.3727-.5018-.0151-.0197-.0309-.0388-.046-.0585-.2967-.3868-.6038-.7651-.9196-1.1359-.0478-.0561-.0965-.1113-.1447-.167-.2899-.3352-.5876-.6635-.8927-.9846-.0572-.0602-.1142-.1205-.1719-.1802-.3162-.3271-.6401-.6465-.9715-.9582-.0422-.0397-.0833-.0804-.1257-.1199-1.1373-1.0568-2.3615-2.0209-3.66-2.8817-.0809-.0536-.1638-.1046-.2454-.1574-.3409-.221-.6865-.4354-1.0372-.6419-.1174-.0691-.2357-.1365-.3542-.2039-.324-.1846-.6524-.3624-.9842-.5345-.1312-.0679-.2621-.1363-.3944-.2023-.3405-.1698-.6859-.331-1.0339-.4873-.1198-.0537-.238-.1103-.3586-.1624-.4379-.1893-.8812-.3683-1.3301-.5358-.0302-.0112-.0594-.0243-.0897-.0355-.4822-.1781-.9714-.3418-1.4655-.4939-.1302-.04-.2631-.0739-.394-.1121-.3573-.1043-.7164-.2044-1.0793-.2949-.1837-.0457-.3696-.0862-.5547-.1284-.3168-.0721-.6351-.1403-.9558-.2017-.2031-.0388-.407-.0751-.6116-.1095-.3121-.0526-.6262-.0989-.9415-.1412-.2073-.0278-.4144-.0563-.6232-.0795-.3329-.0372-.6686-.0648-1.005-.0901-.1907-.0144-.3802-.033-.5719-.0436-.4694-.0259-.9421-.0395-1.4173-.0422-.0545-.0003-.1082-.0042-.1628-.0042-.0286,0-.0568,.0021-.0854,.0021-.5554,.0017-1.1061,.0226-1.6533,.0563-.1602,.0098-.3191,.0241-.4785,.0365-.4584,.0361-.9141,.0815-1.366,.1395-.1182,.015-.2369,.0287-.3547,.0452-1.1924,.1682-2.3625,.4074-3.5035,.7183l-.0427,.0121c-.752,.2059-1.4939,.4366-2.2197,.7017-.0352,.0129-.0698,.0266-.1049,.0396-.5039,.1865-.9993,.3903-1.4893,.6042Zm16.8903-1.2291c.5325,.1093,1.058,.2372,1.5789,.3766,.1349,.0361,.2671,.0782,.4011,.1162,.0384,.0109,.0767,.0223,.115,.0333,.1345,.0388,.2693,.0759,.4029,.1167,.2249,.0686,.4484,.1402,.6709,.2144,.1713,.0571,.3409,.1172,.5107,.1776,.257,.0912,.5132,.1833,.7667,.2819,.1143,.0445,.2268,.0919,.3405,.1378,.1513,.0612,.3027,.1217,.4526,.1854,.4003,.1702,.7949,.3508,1.1854,.5389,.0922,.0444,.187,.0839,.2785,.1293l.0723,.0354c.4726,.236,.937,.486,1.3939,.7476,.0992,.0568,.195,.1187,.2935,.1767,.0438,.0258,.087,.0526,.1306,.0787,.1249,.0745,.2497,.1484,.3734,.2248,.1962,.1213,.3914,.2438,.5843,.3698,.1484,.0969,.294,.1972,.4404,.2968,.2211,.1505,.4423,.3004,.6588,.457,.0915,.0662,.1804,.1353,.271,.2026,.1393,.1034,.2781,.2069,.4155,.3127,.3142,.2422,.6216,.4924,.925,.7476,.0935,.0786,.191,.1523,.2835,.2322,.0284,.0246,.0562,.0499,.0846,.0745,.3943,.3434,.7795,.6968,1.1539,1.0615,.0543,.0529,.1052,.1091,.1591,.1624,.0562,.0555,.1101,.1132,.1658,.1693,.1068,.1075,.2128,.2153,.3179,.3246,.1595,.1659,.3187,.3318,.4741,.5016,.1179,.1289,.2317,.2613,.3472,.3924,.1767,.2005,.3545,.3998,.5255,.6053,.0672,.0809,.1306,.1645,.1969,.2461,.1166,.1435,.2319,.2878,.3458,.4336,.2305,.2953,.4535,.5962,.6721,.9009,.0776,.1082,.1606,.2121,.2368,.3215,.0278,.04,.0537,.0814,.0814,.1215,.297,.4315,.5849,.8696,.8577,1.3181,.08,.1315,.154,.2669,.2306,.4006,.078,.1331,.1533,.2674,.2291,.4019,.0848,.1472,.1712,.2932,.252,.4427,.1989,.3685,.3815,.7466,.564,1.1248,.0588,.1219,.1246,.2396,.1818,.3625,.2827,.6083,.5369,1.232,.7758,1.8631,.0808,.2136,.1552,.4297,.2308,.6458,.1718,.4902,.3293,.9864,.4739,1.4885,.0555,.1927,.1158,.3829,.1671,.5773,.1769,.6688,.3301,1.3468,.4572,2.0342,.0319,.1726,.0542,.3482,.0828,.5219,.0917,.555,.1667,1.1151,.2248,1.6805,.0222,.2159,.0444,.4311,.0615,.6484,.0562,.7095,.0938,1.4241,.0953,2.1475,0,.0192,.0025,.0378,.0025,.0571,0,.5532-.0209,1.1014-.0529,1.6467-.0089,.151-.0231,.3004-.0344,.4507-.0297,.3958-.0665,.7894-.1127,1.1804-.0202,.1708-.0418,.341-.0651,.5109-.0534,.3898-.1159,.7765-.1854,1.1609-.0261,.1441-.0491,.289-.0774,.4323-.2062,1.0465-.4712,2.0717-.7917,3.0728-.0439,.1372-.0925,.2722-.1385,.4084-.1229,.3641-.252,.7251-.3895,1.0823-.0593,.1541-.1198,.3075-.1818,.4603-.1437,.3542-.2952,.7042-.4529,1.051-.0589,.1295-.1152,.2603-.176,.3887-.4446,.9395-.9402,1.8499-1.4836,2.7283-.0736,.119-.151,.2349-.2263,.3527-.2043,.3195-.414,.6349-.6309,.9453-.0929,.1329-.1868,.2649-.2819,.3962-.2219,.3062-.4506,.6069-.6846,.9035-.0864,.1096-.1706,.2207-.2586,.329-.649,.7982-1.3413,1.5594-2.0734,2.2809-.0999,.0984-.2029,.1932-.3043,.2902-.2723,.2604-.5491,.5159-.8318,.7653-.1214,.1071-.2435,.213-.3668,.3179-.2878,.2451-.5812,.4834-.879,.7168-.0767,.0601-.1491,.1254-.2265,.1848-.033,.0253-.0682,.0479-.1013,.073-.8881,.675-1.8193,1.295-2.7862,1.8611-.1172,.0686-.2346,.1362-.3528,.2031-1.0499,.5942-2.1414,1.1216-3.2702,1.5775-.1288,.0521-.2579,.103-.3876,.1531-1.1351,.4386-2.3055,.8041-3.5065,1.092-.1391,.0333-.2783,.0655-.4181,.0967-1.2061,.2693-2.441,.4595-3.7001,.5658-.1479,.0125-.2959,.0237-.4445,.0339-.6326,.0433-1.2687,.0732-1.912,.0732-.5939,0-1.1818-.0251-1.7666-.0621-.1588-.01-.3163-.0235-.4743-.0362-.4582-.0368-.9131-.0846-1.3648-.1434-.136-.0177-.2728-.0323-.4082-.0521-.5687-.0826-1.1322-.1806-1.6892-.2973-.0947-.0198-.1874-.0444-.2818-.0652-.468-.1031-.9313-.2185-1.3902-.345-.1523-.042-.3039-.0851-.4551-.1296-.463-.1362-.9211-.2833-1.3737-.4427-.0809-.0284-.1631-.0533-.2437-.0826-.5283-.1916-1.0479-.4006-1.5609-.6229-.1209-.0524-.2394-.1088-.3594-.1628-.4047-.1823-.804-.3737-1.1982-.5744-.1295-.066-.2594-.1309-.3878-.1989-.9869-.5225-1.938-1.1024-2.8503-1.7357-.1163-.0807-.2307-.1636-.3456-.246-.3667-.2629-.7265-.5343-1.0797-.8143-.0905-.0718-.1828-.1412-.2724-.2141-.4329-.3521-.8558-.7157-1.2665-1.0927-.0591-.0543-.1156-.1113-.1743-.1661-.3511-.3278-.6929-.6652-1.0267-1.0106-.0958-.0991-.1909-.1985-.2852-.299-.3453-.3681-.6822-.744-1.0074-1.1304-.0333-.0395-.0683-.0773-.1013-.1169-.3605-.4333-.706-.8792-1.0401-1.334-.0671-.0915-.1313-.1851-.1974-.2774-.269-.3757-.5286-.7582-.7791-1.1475-.0677-.1053-.1364-.2098-.2028-.316-.5735-.9185-1.0955-1.8718-1.5605-2.8577-.0546-.1158-.1055-.2336-.1586-.3503-.1641-.3607-.3212-.725-.47-1.0937-.0564-.1397-.1119-.2797-.1661-.4205-.1445-.3754-.28-.7548-.4084-1.1378-.0399-.1188-.0823-.2364-.1207-.356-.3218-1.005-.5873-2.0344-.7939-3.0852-.0275-.14-.0502-.2816-.0756-.4222-.0699-.3871-.1326-.7766-.1862-1.1691-.0228-.1669-.0441-.334-.0639-.5018-.0463-.392-.083-.7867-.1127-1.1835-.0112-.1496-.0253-.2982-.0342-.4485-.0319-.5443-.0527-1.0914-.0527-1.6435,0-.6548,.0298-1.3025,.0747-1.9461,.0127-.1828,.0319-.3635,.0481-.5454,.0421-.4696,.095-.9358,.1603-1.3984,.0274-.1946,.0544-.389,.0858-.5823,.0829-.5092,.1802-1.0133,.2905-1.5128,.0256-.1161,.0454-.2341,.0725-.3497,.1406-.5997,.3024-1.1909,.4813-1.775,.0145-.0472,.0242-.0964,.0389-.1436,.0383-.123,.0886-.2405,.1287-.3629,.1439-.4393,.2972-.874,.4622-1.3033,.047-.1225,.0861-.2487,.1348-.3702,.0396-.099,.0864-.1941,.1271-.2925,.1758-.4244,.3637-.8423,.5597-1.2559,.0637-.1343,.1207-.2722,.1865-.4053,.0609-.1236,.1283-.243,.191-.3655,.2144-.4184,.4366-.8319,.6713-1.2378,.0502-.0869,.0986-.1748,.1498-.2611,.0993-.1677,.2061-.33,.3088-.4954,.1804-.2903,.3664-.5762,.5571-.8593,.0932-.1382,.1819-.2794,.2775-.4158,.0808-.1156,.1611-.2311,.2437-.3453,.2512-.3475,.5142-.6856,.7807-1.0209,.0598-.0751,.1149-.1537,.1754-.2281,.0314-.0387,.0646-.0757,.0963-.1143,.1739-.2121,.356-.4163,.5361-.623,.1891-.217,.3783-.4336,.5739-.6446,.0837-.0903,.1672-.1802,.252-.2693,.1647-.1732,.3307-.3444,.4998-.5133,.2001-.1998,.4071-.3923,.6132-.5861,.1304-.1226,.2592-.2466,.392-.3667,.2692-.2436,.5452-.4783,.8237-.7113,.2025-.1694,.4005-.344,.6078-.5077,.0571-.0451,.1194-.0838,.1769-.1285,.4219-.3278,.8564-.6383,1.297-.9418,.1741-.12,.3449-.2435,.5218-.3596,.4451-.2919,.9025-.5646,1.3647-.8311,.1884-.1088,.3731-.2227,.5643-.3271,.459-.2505,.9299-.48,1.4041-.7049,.2086-.0991,.413-.2049,.6244-.2989,.4644-.2062,.9401-.3894,1.4174-.5704,.2336-.0887,.4625-.186,.699-.2686,.4651-.162,.941-.2991,1.417-.4366,.2589-.075,.5128-.1606,.7747-.2283,.4664-.1201,.9429-.2128,1.4185-.3089,.2805-.0568,.556-.1266,.8394-.1749,.4824-.082,.9742-.1334,1.4647-.1899,.2838-.0328,.5627-.0812,.849-.1054,.6186-.0521,1.2463-.07,1.8757-.0807,.1597-.0027,.3157-.0205,.476-.0205,.5745,0,1.1435,.0232,1.7095,.0577,.1509,.0092,.3005,.0228,.4508,.0344,.4259,.033,.849,.0751,1.2693,.1272,.1558,.0193,.3116,.0376,.4666,.0594,.5027,.0709,1.0016,.1533,1.4953,.2507,.0464,.0092,.0936,.0157,.14,.0251,.0203,.0041,.0411,.0068,.0613,.011Z"/><path class="cls-2" d="M50.1149,11.0104c-.171-.2056-.3488-.4048-.5255-.6053,.106,.1203,.2073,.2448,.3113,.3669,.0693,.0814,.1458,.1563,.2142,.2385Z"/><path class="cls-1" d="M18.8641,43.4113c.9451,.6387,1.952,1.1858,3.0026,1.6301,1.0685,.452,2.1821,.7977,3.3187,1.0302,1.1718,.2397,2.3682,.3591,3.5646,.3592,1.1964,0,2.3929-.1194,3.5649-.3592,1.1365-.2325,2.2502-.5782,3.3187-1.0302,1.0505-.4443,2.0575-.9915,3.0026-1.6301,.9384-.6342,1.8158-1.3585,2.6166-2.1593,.8008-.8009,1.5252-1.6782,2.1594-2.6166,.6385-.945,1.1857-1.952,1.63-3.0026,.4521-1.0686,.7977-2.1821,1.0302-3.3188,.2397-1.172,.3591-2.3685,.3591-3.5649s-.1194-2.3927-.3591-3.5647c-.2325-1.1365-.5781-2.2501-1.0302-3.3185-.4443-1.0507-.9915-2.0577-1.6301-3.0027-.6341-.9384-1.3585-1.8157-2.1592-2.6166-.8009-.8009-1.6783-1.5252-2.6168-2.1594-.945-.6386-1.9519-1.1858-3.0025-1.6302-1.0685-.452-2.1822-.7977-3.3188-1.0302-1.172-.2397-2.3683-.3592-3.5648-.3592s-2.3928,.1195-3.5646,.3592c-1.1367,.2325-2.2502,.5781-3.3187,1.0302-1.0505,.4445-2.0575,.9916-3.0026,1.6302-.9383,.6342-1.8156,1.3585-2.6165,2.1594-.8008,.8008-1.5251,1.6782-2.1593,2.6166-.6385,.945-1.1857,1.952-1.6301,3.0026-.452,1.0686-.7976,2.1821-1.0301,3.3188-.2398,1.1719-.3592,2.3682-.3592,3.5646s.1194,2.3929,.3592,3.5649c.2325,1.1367,.5781,2.2502,1.0301,3.3188,.4443,1.0505,.9915,2.0576,1.6301,3.0027,.6342,.9383,1.3585,1.8156,2.1593,2.6165,.8009,.8008,1.6782,1.5251,2.6165,2.1593Zm4.1955-26.0507c1.0952-2.2946,5.4705,1.2435,5.9821-.0748,.2342-.6035-1.3664-.4904-1.5587-1.0961-.1422-.448,.151-.8721,.3226-1.2534,.2346-.521,.4417-1.3689,.4661-1.6161,.0266,.5334-.4186,1.4627-.6244,2.2393-.2783,1.0499,.5147,.6893,1.1149,.9806,.6312,.3063,.572,.9843-.004,1.2666-.895,.4387-2.4055-.4859-3.2925-.6578-.7418-.1438-2.0063-.2551-2.2676,.7029-.3073,1.1269,.933,1.0203,1.627,.9078,1.9656-.3189,3.9575-.9297,5.9681-.7136,1.199,.1289,4.0618,1.0687,3.3312,2.7956-.5555,1.3131-2.7194-.04-3.6384-.3131-1.4652-.4355-3.0118-.5854-4.5302-.3985-.6397,.0788-2.0029,.1487-1.8821,1.1032,.1354,1.0701,1.6212,.9671,2.3484,.75,1.2209-.3644,2.393-1.2397,3.7198-1.0974,.8215,.0881,2.1975,.7444,1.8179,1.8181-.6384,1.8054-4.7161-1.5703-4.5464,.9112l-.0493,.0021c-.0707-2.1887,2.4871-.6271,3.5965-.6772,.6429-.0291,1.0931-.4429,.6097-.9884-.7435-.8389-2.0834-.6481-3.0111-.3271-1.0047,.3477-2.0856,1.0446-3.1925,.9199-.8356-.0942-1.7349-.8615-1.3965-1.7885,.4279-1.1724,2.9717-.9139,4.0336-.8447,.9316,.0608,1.858,.223,2.7576,.472,.6724,.186,1.417,.6057,2.1094,.6841,1.0189,.1154,1.4443-.6424,.7473-1.3969-.612-.6624-1.6118-.9628-2.482-1.0874-1.7186-.246-3.4465,.2031-5.1243,.5344-.6705,.1324-1.6953,.5279-2.3538,.2937-.7808-.2776-.9162-1.3845-.5985-2.0502Zm-6.3427,19.6555c5.6192,.1492,10.8528,.1532,10.8215,.1443-1.0538-.298-3.4033-.0363-3.7398-.6512-.0762-.1391-.2841-.5031-.355-.6461-.0706-.1425-.1286-.2923-.1871-.4421-.1193-.3054-.4893-1.7055-.5202-1.8671-.0137-.0718-.1373-.7549-.1591-.9078-.0223-.1566-.1024-.7828-.1136-.9409-.023-.326-.1143-1.296-.128-1.4576-.0145-.1703-.0374-.3404-.0546-.5104-.0346-.3407-.0666-.6824-.1168-1.0205-.0474-.3192-.1267-.6309-.1706-.9497-.0215-.1565-.0659-.3108-.102-.4633-.0376-.1589-.0837-.3149-.1261-.472-.0836-.3098-.1821-.6097-.2985-.9045-.0585-.1479-.1235-.2917-.1891-.4354-.0629-.1379-.1434-.2719-.1952-.4158-.0415-.1153-.0974-.2575-.082-.3852,.0132-.1085,.0641-.2246,.1454-.2822,.1139-.0807,.2475-.0897,.3763-.0897,.1465,0,3.0477,.0663,6.6498,.0663,3.9341,0,7.2952-.0675,7.4415-.0675,.128,0,.2579-.0073,.3788,.0524,.2239,.1105,.2255,.3139,.2255,.3139,.0154,.1276-.0405,.2699-.082,.3852-.0518,.1439-.1323,.278-.1952,.4158-.0655,.1437-.1306,.2875-.189,.4354l-.049,.1155,.4337-.2256c1.5347-.7012,3.2917,.1254,3.855,1.7756,.2639,.7729,.2297,1.6091-.0964,2.3545-.1729,.3953-.4124,.7455-.716,1.0186-.778,.6996-.6767,.2111-1.1879,.4579,0,0-3.3364,1.1166-3.16,2.1122,.0515,.2905,.2062,.3818,.4883,.5476,.5295,.3112,.3872,1.0123-.0362,1.1724-.2821,.1067-.6567,.0635-.9882-.3163-.0427-.05-.077-.104-.1113-.1426l-.2215,.6241c-.0585,.1498-.1165,.2996-.1871,.4421-.0709,.143-.2624,.507-.3385,.6461-.3365,.6149-2.8539,.3904-3.7562,.6512-.0312,.009,4.7085-.05,10.8871-.1409,.1363-.002,.2538-.0094,.3819,.0568,.1129,.0583,.1075,.2086,.0559,.3232-.0273,.0608-.061,.1219-.1129,.1594-.5707,.4111-2.1384,1.3364-3.0781,2.0289-.2349,.173-.4528,.3542-.6942,.5044-.1193,.0742-.235,.1551-.3596,.2167-.1296,.0641-.2615,.123-.3934,.1798-.2545,.1094-.5145,.1847-.7825,.2295-.1371,.0229-.2761,.0317-.4136,.0521-.1383,.0206-.2757,.0508-.4146,.0635-.1374,.0126-.2712,.0541-.4032,.0989-.0961,.0326-.1981,.0735-.2338,.1965-.0324,.1113-.0433,.2419-.117,.3288-.074,.0874-.1791,.1069-.2783,.1224-.2846,.0446-2.8514,.1661-5.3466,.1517-2.3275-.0135-4.7684-.1279-4.9056-.15-.0854-.0138-.1755-.0378-.2429-.1057-.1361-.1374-.0934-.3941-.2625-.499-.0443-.0275-.0922-.0369-.14-.0519-.0625-.0198-.1223-.0441-.1864-.0565-.1381-.0267-.2769-.046-.4146-.0757-.1403-.0303-.2821-.0427-.4243-.0538-.1359-.0106-.2741-.0428-.4081-.0715-.0697-.015-.139-.0367-.2071-.0599-.0587-.0201-.1166-.0316-.176-.0479-.0563-.0154-.1028-.0598-.1568-.0721-.0582-.0132-.1086-.0321-.1629-.0609-.1151-.061-.2321-.1114-.3452-.1785-.1228-.0728-.2458-.1451-.3658-.2242-.2335-.1539-.4645-.3344-.6762-.5272-.2189-.1996-1.9889-1.2906-2.9026-1.84-.1163-.0699-.1694-.1953-.2168-.334-.1138-.3322,.3709-.3047,.5331-.3004Z"/><path class="cls-1" d="M23.7925,27.6521c.0017-.5906-.483-.6271-.5985-.0315-.0461,.5746,.0015,2.9426,.4986,5.5281,.3213,1.8045,1.4394,4.1926,.8607,2.4366-1.2121-3.3627-.6828-7.5111-.7607-7.9332Z"/><path d="M23.6582,19.4108c.6586,.2342,1.6833-.1613,2.3538-.2937,1.6778-.3312,3.4056-.7804,5.1243-.5344,.8702,.1246,1.87,.425,2.482,1.0874,.6971,.7545,.2716,1.5123-.7473,1.3969-.6924-.0784-1.4371-.498-2.1094-.6841-.8996-.249-1.826-.4112-2.7576-.472-1.0619-.0693-3.6057-.3277-4.0336,.8447-.3384,.9271,.561,1.6943,1.3965,1.7885,1.1069,.1248,2.1878-.5722,3.1925-.9199,.9277-.321,2.2676-.5117,3.0111,.3271,.4835,.5455,.0333,.9593-.6097,.9884-1.1094,.0502-3.6672-1.5115-3.5965,.6772l.0493-.0021c-.1697-2.4815,3.908,.8942,4.5464-.9112,.3796-1.0737-.9965-1.73-1.8179-1.8181-1.3268-.1423-2.499,.733-3.7198,1.0974-.7272,.2171-2.213,.3201-2.3484-.75-.1208-.9545,1.2424-1.0244,1.8821-1.1032,1.5184-.187,3.065-.037,4.5302,.3985,.9189,.2731,3.0829,1.6262,3.6384,.3131,.7305-1.7269-2.1322-2.6667-3.3312-2.7956-2.0107-.2161-4.0025,.3947-5.9681,.7136-.694,.1125-1.9343,.2191-1.627-.9078,.2612-.958,1.5258-.8467,2.2676-.7029,.887,.1719,2.3975,1.0965,3.2925,.6578,.576-.2823,.6353-.9603,.004-1.2666-.6002-.2913-1.3931,.0693-1.1149-.9806,.2058-.7766,.6509-1.7059,.6244-2.2393-.0244,.2472-.2316,1.0951-.4661,1.6161-.1716,.3813-.4648,.8054-.3226,1.2534,.1923,.6057,1.7928,.4926,1.5587,1.0961-.5116,1.3184-4.8869-2.2198-5.9821,.0748-.3177,.6658-.1823,1.7726,.5985,2.0502Z"/><path d="M19.3032,39.4905c.2117,.1929,.4427,.3733,.6762,.5272,.12,.0791,.243,.1515,.3658,.2242,.1131,.0671,.2301,.1174,.3452,.1785,.0543,.0287,.1047,.0476,.1629,.0609,.054,.0123,.1005,.0567,.1568,.0721,.0594,.0162,.1172,.0278,.176,.0479,.0681,.0232,.1374,.045,.2071,.0599,.134,.0287,.2723,.0609,.4081,.0715,.1422,.011,.284,.0235,.4243,.0538,.1376,.0297,.2765,.049,.4146,.0757,.0641,.0125,.1239,.0367,.1864,.0565,.0477,.0151,.0956,.0245,.14,.0519,.1691,.1049,.1264,.3616,.2625,.499,.0674,.0679,.1575,.0919,.2429,.1057,.1372,.022,2.5781,.1365,4.9056,.15,2.4952,.0144,5.062-.1071,5.3466-.1517,.0992-.0156,.2042-.035,.2783-.1224,.0737-.0869,.0846-.2175,.117-.3288,.0358-.1229,.1377-.1639,.2338-.1965,.132-.0448,.2658-.0862,.4032-.0989,.1389-.0128,.2762-.043,.4146-.0635,.1375-.0204,.2766-.0292,.4136-.0521,.268-.0448,.528-.1201,.7825-.2295,.1319-.0568,.2638-.1157,.3934-.1798,.1246-.0616,.2404-.1425,.3596-.2167,.2414-.1501,.4593-.3314,.6942-.5044,.9398-.6924,2.5074-1.6178,3.0781-2.0289,.0519-.0374,.0856-.0986,.1129-.1594,.0516-.1146,.0569-.2649-.0559-.3232-.1281-.0662-.2456-.0588-.3819-.0568-6.1786,.0908-10.9183,.1499-10.8871,.1409,.9023-.2608,3.4197-.0363,3.7562-.6512,.0761-.1391,.2676-.5031,.3385-.6461,.0707-.1425,.1286-.2923,.1871-.4421l.2215-.6241c.0344,.0386,.0687,.0925,.1113,.1426,.3315,.3799,.7061,.423,.9882,.3163,.4234-.1601,.5657-.8611,.0362-1.1724-.2822-.1658-.4369-.2571-.4883-.5476-.1764-.9956,3.16-2.1122,3.16-2.1122,.5112-.2468,.4099,.2417,1.1879-.4579,.3036-.273,.5431-.6232,.716-1.0186,.326-.7454,.3603-1.5816,.0964-2.3545-.5633-1.6502-2.3203-2.4769-3.855-1.7756l-.4337,.2256,.049-.1155c.0585-.1479,.1235-.2917,.189-.4354,.0629-.1379,.1434-.272,.1952-.4158,.0415-.1153,.0974-.2576,.082-.3852,0,0-.0016-.2034-.2255-.3139-.1209-.0596-.2509-.0524-.3788-.0524-.1463,0-3.5074,.0675-7.4415,.0675-3.6021,0-6.5032-.0663-6.6498-.0663-.1288,0-.2624,.009-.3763,.0897-.0812,.0576-.1322,.1737-.1454,.2822-.0154,.1277,.0405,.2699,.082,.3852,.0518,.1439,.1323,.278,.1952,.4158,.0656,.1437,.1306,.2875,.1891,.4354,.1165,.2947,.215,.5947,.2985,.9045,.0424,.1572,.0885,.3131,.1261,.472,.0361,.1525,.0805,.3068,.102,.4633,.0439,.3188,.1232,.6305,.1706,.9497,.0502,.3381,.0822,.6798,.1168,1.0205,.0172,.17,.0401,.3401,.0546,.5104,.0137,.1616,.105,1.1316,.128,1.4576,.0112,.158,.0912,.7842,.1136,.9409,.0218,.153,.1453,.836,.1591,.9078,.0309,.1616,.4009,1.5618,.5202,1.8671,.0585,.1498,.1165,.2996,.1871,.4421,.0709,.143,.2788,.507,.355,.6461,.3365,.6149,2.686,.3532,3.7398,.6512,.0312,.0089-5.2023,.0049-10.8215-.1443-.1622-.0043-.6469-.0318-.5331,.3004,.0474,.1387,.1005,.264,.2168,.334,.9137,.5494,2.6837,1.6404,2.9026,1.84Zm15.575-9.1921c.3618,.6685,1.4202,.1983,.991-.6707l-.1492-.3842c-.3131-.9173,.1305-1.9315,.9908-2.2654,.8604-.3338,1.8116,.1391,2.1248,1.0564,.3131,.9172-.1082,1.9252-.9908,2.2653-2.0657,.7959-2.9069,1.5836-3.1458,1.8045,.0642-.4745,.1793-1.8059,.1793-1.8059Zm-11.1856,2.8503c-.4971-2.5854-.5447-4.9534-.4986-5.5281,.1155-.5956,.6002-.5591,.5985,.0315,.0779,.4221-.4514,4.5706,.7607,7.9332,.5787,1.7559-.5394-.6321-.8607-2.4366Z"/></svg>