<?xml version="1.0" encoding="UTF-8"?>
<svg id="Lager_1" data-name="Lager 1" xmlns="http://www.w3.org/2000/svg" width="6mm" height="6mm" viewBox="0 0 17.0079 17.0079">
  <defs>
    <style>
      .cls-1 {
        fill: #f3ea4d;
      }

      .cls-1, .cls-2 {
        stroke-width: 0px;
      }

      .cls-2 {
        fill: #000;
      }
    </style>
  </defs>
  <path class="cls-1" d="M15.7579,4.0723c-1.1834-1.938-3.0507-3.2988-5.2582-3.8322C9.832.0788,9.157-.0011,8.487-.0011,6.9423-.0011,5.4229.423,4.0713,1.2484,2.1333,2.4321.7722,4.2997.2387,6.5073c-1.1008,4.5562,1.7106,9.1589,6.2672,10.2607,2.2079.5331,4.4901.1757,6.4284-1.009,1.9383-1.1834,3.2994-3.0513,3.8326-5.2582.5331-2.2075.1751-4.4904-1.009-6.4284Z"/>
  <g>
    <path class="cls-2" d="M10.9497,13.4637l-.0009-.0129-.0012-.013-.0016-.013-.002-.013-.0024-.013-.0028-.013-.0032-.0131-.0036-.0131-.004-.0131-.0043-.0131-.0047-.0131-.0052-.0131-.0056-.0131-.0059-.0131-.0064-.0131-.0068-.0131-.0072-.0131-.0076-.0131-.2639-.4363-.2682-.4323-.2714-.4288-.2798-.4356-.0067-.0094-.007-.0093-.0073-.0091-.0075-.0089-.0078-.0087-.0081-.0085-.0083-.0083-.0086-.0081-.0089-.0079-.0091-.0077-.0093-.0075-.0096-.0073-.0098-.0071-.01-.0069-.0103-.0066-.0105-.0064-.0107-.0062-.0109-.0059-.0111-.0057-.0113-.0054-.0115-.0052-.0116-.0049-.0118-.0046-.012-.0044-.0121-.0041-.0123-.0038-.0125-.0035-.0126-.0033-.0127-.003-.0129-.0027-.013-.0024-.0131-.0021-.0133-.0018-.0134-.0015-.0135-.0012-.0136-.0008-.0137-.0005-.0138-.0002h-.0139s-.0139.0006-.0139.0006l-.014.0008-.0141.0011-.0142.0015-.0142.0019-.0143.0022-.0143.0026-.0144.0029-.0144.0033-.0144.0037-.0145.0041-.0145.0045-.0145.0048-.0145.0052-.0145.0056-.0145.006-.0145.0065-.0145.0068-.0145.0073-.0145.0077-.0145.0081-.0144.0085-.0144.009-.0143.0094c-.4216.2661-1.0643.6691-1.1526.7211-.053.0321-.0939.0264-.1262-.0013-.0449-.0385-.1451-.134-.1451-.134l-.1902-.1838-.1846-.1869-.1789-.1901-.1732-.1934-.1673-.1968-.1613-.2003-.1553-.2038-.1492-.2074-.143-.2111-.1367-.2149-.1303-.2188-.1238-.2228-.1172-.2268-.1106-.2309-.1038-.2351-.066-.162-.0622-.1636-.1165-.3303-.1119-.3317-.1142-.33c-.0023-.0052-.004-.0107-.006-.0161-.0271-.0719.0228-.1256.0888-.1641l1.1187-.6785.0136-.0085.0133-.0087.0131-.0088.0128-.009.0125-.0091.0122-.0093.012-.0094.0117-.0096.0114-.0097.0111-.0098.0108-.01.0105-.0101.0102-.0102.01-.0103.0096-.0105.0093-.0106.009-.0107.0088-.0108.0084-.0109.0082-.011.0078-.0111.0075-.0112.0072-.0113.0069-.0114.0066-.0115.0063-.0115.0059-.0116.0056-.0117.0053-.0117.005-.0118.0047-.0119.0043-.0119.004-.012.0037-.012.0033-.0121.003-.0121.0027-.0122.0023-.0122.002-.0122.0017-.0123.0013-.0123.001-.0123.0006-.0124.0003-.0124v-.0124s-.0005-.0124-.0005-.0124l-.0008-.0124-.0011-.0124-.0015-.0124-.0018-.0124-.0022-.0124-.0026-.0124-.0029-.0124-.0033-.0124-.0036-.0123-.004-.0123-.0044-.0123-.0048-.0122-.0051-.0122-.0055-.0121-.0059-.0121-.0063-.0121-.0067-.012-.2578-.4235-.253-.4088-.2552-.4061-.2633-.4122-.006-.0088-.0061-.0085-.0062-.0084-.0063-.0082-.0064-.008-.0065-.0078-.0067-.0076-.0068-.0075-.0069-.0072-.007-.0071-.0071-.0069-.0071-.0067-.0073-.0065-.0073-.0063-.0075-.0062-.0075-.006-.0077-.0058-.0077-.0056-.0078-.0054-.0079-.0052-.008-.005-.0081-.0048-.0082-.0047-.0082-.0045-.0083-.0043-.0084-.0041-.0085-.0039-.0086-.0038-.0087-.0035-.0087-.0034-.0088-.0032-.0089-.003-.0089-.0028-.009-.0026-.0091-.0025-.0091-.0022-.0092-.0021-.0092-.0019-.0093-.0017-.0094-.0015-.0094-.0013-.0095-.0011-.0095-.001-.0096-.0008-.0096-.0006-.0097-.0004-.0097-.0002h-.0098s-.0098.0001-.0098.0001l-.0099.0003-.0099.0005-.01.0007-.01.0009-.01.0011-.0101.0013-.0202.0031-.0204.0038-.0205.0045-.0206.0053-.0122.0035-.0123.0038-.0123.004-.0123.0043-.0123.0045-.0124.0048-.0124.0051-.0124.0053-.0248.0114-.0248.0124-.0248.0135-2.0083,1.2253-.0398.0255-.0386.0266-.0372.0276-.0359.0286-.0346.0296-.0168.0151-.0164.0153-.0161.0156-.0157.0158-.0154.016-.015.0162-.0146.0164-.0143.0166-.014.0168-.0136.0169-.0132.0171-.0129.0173-.0125.0175-.0121.0176-.0118.0178-.0114.0179-.011.0181-.0106.0182-.0103.0184-.0099.0185-.0095.0186-.0091.0188-.0087.0189-.0083.019-.0079.0191-.0075.0192-.0071.0193-.0067.0194-.0063.0195-.0059.0196-.0055.0197-.0051.0197-.0047.0198-.0043.0199-.0039.0199-.0035.02-.0031.0201-.0027.0201-.0022.0201-.0018.0202-.0014.0202-.0009.0202-.0005.0203v.0203s.0003.0203.0003.0203l.0008.0203.0012.0203.0017.0203.0021.0203.0026.0203.003.0203.0035.0202.0039.0202.0044.0202.0728.3013.0803.2989.0876.2965.0947.2942.1017.2919.1084.2898.115.2877.1214.2856.113.2527.117.2507.1211.2487.1251.2468.1292.2447.1332.2427.1373.2407.1414.2387.1455.2366.1496.2346.1537.2325.1578.2304.1619.2284.1661.2263.1702.2242.1744.2221.2556.3123.1308.1538.133.1521.1352.1504.1375.1486.1399.1467.1423.1447.1448.1427.1475.1405.1501.1383.1529.1361.1556.1337.1586.1314.1615.1288.1646.1263.0444.0324.0441.0303.044.0283.0438.0262.0219.0123.0218.0118.0218.0113.0218.0107.0218.0102.0218.0097.0218.0092.0218.0087.0218.0081.0218.0076.0218.0071.0218.0066.0219.0061.0219.0055.0219.005.0219.0045.022.004.022.0035.0221.0029.0221.0024.0222.0019.0222.0014.0223.0009.0224.0004.0224-.0002.0225-.0007.0226-.0012.0227-.0017.0228-.0022.0228-.0028.0229-.0033.023-.0038.0231-.0043.0232-.0048.0234-.0054.0235-.0059.0236-.0064.0237-.0069.0238-.0074.024-.0079.0483-.0174.0489-.0195.0495-.0215.0501-.0236.0508-.0256.0515-.0277.0522-.0298,1.7401-1.0723.029-.0185.0278-.0191.0266-.0196.0129-.01.0125-.0101.0122-.0102.0119-.0103.0116-.0104.0113-.0105.011-.0106.0107-.0107.0104-.0108.01-.0109.0097-.011.0094-.0112.009-.0112.0087-.0113.0084-.0114.0081-.0115.0077-.0116.0074-.0117.007-.0118.0067-.0118.0064-.0119.006-.012.0057-.012.0053-.0121.005-.0122.0046-.0122.0043-.0123.0039-.0124.0036-.0124.0032-.0125.0028-.0125.0025-.0126.0021-.0126.0018-.0127.0014-.0127.001-.0128.0007-.0128.0003-.0128v-.0129s-.0006-.0129-.0006-.0129h.0002Z"/>
    <g>
      <path class="cls-2" d="M12.1882,3.3142c-.6156-.3381-1.3023-.566-1.9966-.6714-.0692-.0092-.1408-.0017-.2069.0208-.1874.0591-.3318.2632-.2789.4606.0182.0679.0628.1277.1209.1669.0848.0607.2803.085.3797.1033,1.8278.3343,3.3709,1.7183,3.7777,3.5491.1364.6214.1381,1.2775.0146,1.9011-.0062.0699-.1604.6458-.1351.704.0098.1198.082.2325.1886.2888.2056.1162.4803-.0151.5542-.2308.8238-2.4079-.1873-5.06-2.4183-6.2924h0Z"/>
      <path class="cls-2" d="M9.799,4.3057h-.0003c-.2544-.0508-.4532-.0032-.5713.2119-.0619.1202-.0612.2808.0421.378.0515.0512.1192.0838.1887.1028.2724.0502.5598.1267.8143.2365.6196.2516,1.1823.6781,1.524,1.2599.3335.5746.5042,1.2623.4499,1.9262-.0148.1536-.0436.3185-.0789.4687-.0485.1998-.1688.4714.0404.6213.1819.1297.4653.0836.5936-.1004.8517-2.3375-.5815-4.6597-3.0026-5.1048h0Z"/>
      <path class="cls-2" d="M9.4945,6.0051c-.2398-.0688-.5404-.1336-.7237.085-.1311.1533-.1462.4104.0498.5168.0333.0198.0703.0351.1074.0463.6778.097,1.2524.5574,1.4386,1.2247.2231.5774-.3035,1.2569.1963,1.3943.1474.0457.3176.0085.4216-.1085.1434-.1573.1721-.3837.2082-.5854.1035-.6839-.1192-1.4075-.5959-1.9097-.2962-.3172-.6847-.547-1.1022-.6634h0Z"/>
    </g>
  </g>
</svg>