<?xml version="1.0" encoding="UTF-8"?><svg preserveAspectRatio="xMidYMid meet" id="a" xmlns="http://www.w3.org/2000/svg" width="30.1mm" height="6.5mm" viewBox="0 0 85.3228 18.4252"><defs><style>.b{fill:#231f20;}</style></defs><g><path class="b" d="M2.6747,11.2278c-1.525,0-2.533-1.069-2.533-2.4978V2.8668C.1417,1.4338,1.1497,.3646,2.6747,.3646c1.5512,0,2.3838,1.0123,2.3838,2.4103v1.5118h-1.481v-1.5426c0-.5083-.2806-.8676-.8678-.8676-.5783,0-.8677,.3593-.8677,.85v6.144c0,.4819,.2893,.85,.8677,.85,.5873,0,.8678-.3681,.8678-.8676v-1.56h1.481v1.5294c0,1.3978-.8326,2.4056-2.3838,2.4056Z"/><path class="b" d="M9.7562,6.8195v4.2243h-1.6741V6.8195L6.198,.5532h1.7l1.1219,4.3907L10.098,.5532h1.6565l-1.9982,6.2663Z"/><path class="b" d="M16.6536,11.0438l-1.1656-4.3645-.561,1.5118v2.8527h-1.6739V.5532h1.6739V5.4829l1.7266-4.9297h1.6565l-1.6826,4.4565,1.744,6.0342h-1.7178Z"/><path class="b" d="M20.0277,11.0438V.5532h4.1895v1.481h-2.5154v2.9009h1.744v1.3803h-1.744v3.1989h2.5154v1.5294h-4.1895Z"/><path class="b" d="M26.0489,11.0438V.5532h1.6652V9.5277h2.4188v1.5161h-4.084Z"/><path class="b" d="M31.7806,11.0438V.5532h1.6741V11.0438h-1.6741Z"/><path class="b" d="M39.4406,11.0438l-1.7618-4.7589-.5871-1.604v6.3629h-1.5163V.5532h1.4899l1.6301,4.8027,.5346,1.6257V.5532h1.4987V11.0438h-1.2882Z"/><path class="b" d="M45.6632,2.0822V11.0438h-1.6741V2.0822h-1.6214V.5532h4.8906v1.5291h-1.5951Z"/><path class="b" d="M53.0074,11.0878c-.6483,0-.9027-.6268-.9027-1.4462v-2.2524c0-.4252-.2192-.7712-.675-.7712h-.8237v4.4259h-1.6652V.5532h2.6732c1.1656,0,2.0683,.6485,2.0683,2.0594v1.8669c0,.7054-.3156,1.2268-.9906,1.4768,.675,.2322,1.0169,.8018,1.0169,1.4503v2.1386c0,.4732,.1139,.8018,.3241,1.0692v.4734h-1.0254Zm-.9638-8.4225c0-.4382-.1665-.6792-.5696-.6792h-.8678v3.3261h.8062c.412,0,.6312-.2368,.6312-.7451v-1.9018Z"/><path class="b" d="M55.7333,11.0438V.5532h4.1893v1.481h-2.5241v2.9009h1.7527v1.3803h-1.7527v3.1989h2.5241v1.5294h-4.1893Z"/><path class="b" d="M63.9717,11.2278c-1.5076,0-2.454-.929-2.454-2.4056v-.9292h1.5246v.8985c0,.6573,.2982,1.0341,.8856,1.0341,.5956,0,.8764-.3592,.8764-.9377,0-.9203-.4558-1.5951-1.341-2.5241-.8589-.8677-1.8669-2.0947-1.8669-3.4311,0-1.4199,.8151-2.5681,2.4366-2.5681,1.4022,0,2.3138,.9772,2.3138,2.4103v.9422h-1.5076v-.9422c0-.5828-.2718-.9773-.8062-.9773-.4907,0-.8152,.3154-.8152,.8502,0,1.0253,.4473,1.5293,1.429,2.5679,1.0251,1.0603,1.7787,2.1121,1.7787,3.4355,0,1.6652-1.0867,2.5766-2.4537,2.5766Z"/><path class="b" d="M70.4307,11.2278c-1.5072,0-2.4536-.929-2.4536-2.4056v-.9292h1.525v.8985c0,.6573,.2978,1.0341,.8849,1.0341,.596,0,.8767-.3592,.8767-.9377,0-.9203-.4558-1.5951-1.341-2.5241-.859-.8677-1.8755-2.0947-1.8755-3.4311,0-1.4199,.8237-2.5681,2.454-2.5681,1.3933,0,2.3046,.9772,2.3046,2.4103v.9422h-1.5072v-.9422c0-.5828-.2718-.9773-.7973-.9773-.491,0-.8241,.3154-.8241,.8502,0,1.0253,.4558,1.5293,1.4286,2.5679,1.0255,1.0603,1.7791,2.1121,1.7791,3.4355,0,1.6652-1.0777,2.5766-2.454,2.5766Z"/><path class="b" d="M74.699,11.0438V.5532h4.1982v1.481h-2.5241v2.9009h1.7438v1.3803h-1.7438v3.1989h2.5241v1.5294h-4.1982Z"/><path class="b" d="M83.586,2.0822V11.0438h-1.6652V2.0822h-1.6214V.5532h4.8817v1.5291h-1.5951Z"/></g><g><path class="b" d="M.8504,16.5425v-3.6844h.9231c.3727,0,.6681,.0923,.8879,.2769,.218,.1846,.3279,.4343,.3279,.749,0,.2145-.0536,.4-.1609,.5565s-.2611,.2734-.4615,.3508c.1178,.0774,.233,.1829,.3455,.3165s.2708,.3666,.4747,.6989c.1284,.2092,.2312,.3666,.3086,.4721l.1952,.2637h-.6277l-.1609-.2426c-.0053-.0088-.0158-.0237-.0316-.0448l-.1029-.1451-.1626-.269-.1767-.2883c-.109-.1512-.2083-.2716-.2998-.3604-.0905-.0897-.1723-.1547-.2453-.1943s-.196-.0589-.3683-.0589h-.1371v1.6035H.8504Zm.6857-3.236h-.1582v1.1631h.2004c.2673,0,.4501-.0229,.5503-.0686,.0985-.0457,.1758-.1143,.2321-.2075,.0545-.0914,.0826-.1969,.0826-.3147,0-.116-.0308-.2207-.0923-.3147s-.1486-.1609-.2593-.1996c-.1125-.0387-.2971-.058-.5556-.058Z"/><path class="b" d="M6.0187,15.084v1.0312c0,.0826,.0281,.124,.0844,.124,.058,0,.1486-.0431,.2716-.1292v.2927c-.109,.0703-.1969,.1187-.262,.1433-.0668,.0255-.1354,.0387-.2075,.0387-.2057,0-.327-.0809-.364-.2426-.204,.1582-.4211,.2374-.6514,.2374-.1688,0-.3094-.0554-.422-.167s-.1688-.2523-.1688-.4211c0-.153,.0545-.2892,.1644-.4105,.1099-.1196,.2664-.2154,.4686-.2857l.6145-.211v-.1292c0-.2919-.1459-.4378-.4378-.4378-.262,0-.5169,.1354-.7648,.4061v-.5248c.1864-.2198,.4545-.3297,.8044-.3297,.262,0,.4721,.0686,.6303,.2057,.0527,.044,.1002,.1029,.1424,.1758s.0686,.1459,.0809,.218c.0105,.0738,.0167,.2119,.0167,.4158Zm-.4721,.9785v-.72l-.3218,.124c-.1635,.0651-.2796,.1301-.3464,.1969-.0686,.0651-.102,.1477-.102,.2462,0,.1002,.0316,.182,.0967,.2453,.0633,.0633,.1468,.0949,.2488,.0949,.153,0,.2945-.0624,.4246-.1873Z"/><path class="b" d="M7.696,14.1161v.3086c.2145-.2374,.458-.356,.7305-.356,.1512,0,.2919,.0396,.422,.1178s.2286,.1855,.2971,.3218c.0668,.1363,.1011,.3516,.1011,.647v1.3872h-.48v-1.382c0-.2479-.0378-.4246-.1134-.531s-.2022-.16-.3798-.16c-.2268,0-.4193,.1134-.5776,.3402v1.7327h-.4905v-2.4264h.4905Z"/><path class="b" d="M11.9211,12.8581h.4826v3.6844h-1.0259c-.3587,0-.6444-.1134-.8589-.3402-.2127-.2268-.32-.531-.32-.9125,0-.3569,.1125-.6505,.3358-.8809,.2251-.2303,.5108-.3455,.8589-.3455,.1618,0,.3376,.0343,.5275,.1029v-1.3081Zm0,3.2729v-1.5376c-.1494-.0756-.3007-.1134-.4536-.1134-.2391,0-.4299,.0782-.5705,.2347-.1424,.1565-.2127,.3675-.2127,.633,0,.2497,.0615,.4422,.1846,.5776,.0738,.0809,.1521,.1354,.2347,.1635s.2312,.0422,.4457,.0422h.3719Z"/><path class="b" d="M14.6331,14.1108c.3692,0,.676,.1196,.9204,.3569,.2444,.2391,.3666,.538,.3666,.8985,0,.3499-.124,.6409-.3719,.8721s-.56,.3464-.9363,.3464c-.364,0-.6681-.1178-.9125-.3516-.2444-.2356-.3666-.5283-.3666-.88,0-.3552,.1231-.6505,.371-.887,.2462-.2365,.5565-.3552,.9292-.3552Zm-.0264,.4325c-.2303,0-.4193,.0756-.567,.2268s-.2215,.3437-.2215,.5776c0,.2321,.0756,.422,.2268,.5688s.3455,.2198,.5829,.2198c.2356,0,.4281-.0738,.5793-.2233,.1494-.1477,.2251-.3385,.2251-.5705,0-.2303-.0782-.4211-.2347-.5723s-.3534-.2268-.5908-.2268Z"/><path class="b" d="M17.3381,14.1161v.3086c.2145-.2374,.458-.356,.7305-.356,.1512,0,.2919,.0396,.422,.1178s.2286,.1855,.2971,.3218c.0668,.1363,.1011,.3516,.1011,.647v1.3872h-.48v-1.382c0-.2479-.0378-.4246-.1134-.531s-.2022-.16-.3798-.16c-.2268,0-.4193,.1134-.5776,.3402v1.7327h-.4905v-2.4264h.4905Z"/><path class="b" d="M20.4441,14.1161v.3086c.2145-.2374,.458-.356,.7305-.356,.1512,0,.2919,.0396,.422,.1178s.2286,.1855,.2971,.3218c.0668,.1363,.1011,.3516,.1011,.647v1.3872h-.48v-1.382c0-.2479-.0378-.4246-.1134-.531s-.2022-.16-.3798-.16c-.2268,0-.4193,.1134-.5776,.3402v1.7327h-.4905v-2.4264h.4905Z"/><path class="b" d="M25.1306,15.3715h-1.7064c.0123,.2321,.0897,.4167,.2338,.5538,.1424,.1371,.3279,.2057,.5547,.2057,.3165,0,.6083-.0985,.8756-.2954v.4694c-.1477,.0985-.2945,.1688-.4387,.211-.1459,.0422-.3156,.0633-.5108,.0633-.2673,0-.4835-.0554-.6488-.1662s-.298-.2593-.3965-.4475c-.1002-.1864-.1494-.4035-.1494-.6497,0-.3692,.1046-.669,.3138-.9011,.2092-.2303,.4809-.3464,.8149-.3464,.3218,0,.5785,.1125,.7701,.3376s.2875,.5266,.2875,.9046v.0607Zm-1.6958-.2875h1.2211c-.0123-.1916-.0694-.3393-.1714-.4431s-.2391-.1556-.4114-.1556-.3138,.0519-.4237,.1556-.1811,.2514-.2145,.4431Zm1.1736-2.2839l-.596,.7912h-.2954l.356-.7912h.5354Z"/><path class="b" d="M28.1486,15.3715h-1.7064c.0123,.2321,.0897,.4167,.2338,.5538,.1424,.1371,.3279,.2057,.5547,.2057,.3165,0,.6083-.0985,.8756-.2954v.4694c-.1477,.0985-.2945,.1688-.4387,.211-.1459,.0422-.3156,.0633-.5108,.0633-.2673,0-.4835-.0554-.6488-.1662s-.298-.2593-.3965-.4475c-.1002-.1864-.1494-.4035-.1494-.6497,0-.3692,.1046-.669,.3138-.9011,.2092-.2303,.4809-.3464,.8149-.3464,.3218,0,.5785,.1125,.7701,.3376s.2875,.5266,.2875,.9046v.0607Zm-1.6958-.2875h1.2211c-.0123-.1916-.0694-.3393-.1714-.4431s-.2391-.1556-.4114-.1556-.3138,.0519-.4237,.1556-.1811,.2514-.2145,.4431Z"/><path class="b" d="M30.9257,15.9754v.4747c-.2409,.0897-.4765,.1345-.7068,.1345-.3798,0-.6831-.1125-.9081-.3376-.2268-.2251-.3393-.5266-.3393-.9046,0-.3815,.1099-.6892,.3297-.9231s.509-.3508,.8677-.3508c.1248,0,.2365,.0123,.3358,.0352,.0993,.0246,.2224,.0686,.3683,.1336v.5116c-.2426-.1547-.4677-.2321-.6752-.2321-.2163,0-.3938,.0765-.5327,.2286s-.2083,.3455-.2083,.5811c0,.2479,.0756,.4448,.2251,.5908,.1512,.1459,.3534,.2189,.6083,.2189,.1846,0,.3965-.0536,.6356-.1609Z"/><path class="b" d="M33.4171,14.1161h.5389l-1.7195,3.6633h-.5354l.8237-1.7582-.9371-1.905h.5468l.6549,1.3705,.6277-1.3705Z"/><path class="b" d="M34.7244,12.8581h.48v3.6844h-.48v-3.6844Zm1.5798,1.258h.5697l-1.0356,1.1868,1.2466,1.2395h-.6435l-1.2158-1.2378,1.0787-1.1886Z"/><path class="b" d="M37.7968,12.8581h.48v3.6844h-.48v-3.6844Z"/><path class="b" d="M39.6149,13.0955c.0791,0,.1468,.0273,.2031,.0818s.0844,.1213,.0844,.2004c0,.0774-.0281,.1442-.0844,.2004s-.124,.0844-.2031,.0844c-.0738,0-.1389-.0281-.1952-.0862-.0563-.0563-.0844-.1231-.0844-.1987,0-.0738,.0281-.1389,.0844-.1969,.0563-.0563,.1213-.0853,.1952-.0853Zm-.2374,1.0206h.48v2.4264h-.48v-2.4264Z"/><path class="b" d="M41.4346,14.1161v.3086c.2145-.2374,.458-.356,.7305-.356,.1512,0,.2919,.0396,.422,.1178s.2286,.1855,.2971,.3218c.0668,.1363,.1011,.3516,.1011,.647v1.3872h-.48v-1.382c0-.2479-.0378-.4246-.1134-.531s-.2022-.16-.3798-.16c-.2268,0-.4193,.1134-.5776,.3402v1.7327h-.4905v-2.4264h.4905Z"/><path class="b" d="M43.926,14.9548c0-.2585,.0941-.4624,.2831-.6136,.189-.1494,.4475-.2251,.7745-.2251h.9996v.3745h-.4905c.0949,.0967,.1609,.1846,.1978,.2637s.0554,.1697,.0554,.2716c0,.1266-.036,.2514-.1081,.3736s-.1644,.2154-.2787,.2804c-.1125,.0651-.2989,.1169-.5574,.1556-.1811,.0264-.2716,.0888-.2716,.1873,0,.0563,.0334,.1029,.1011,.138,.0677,.0369,.1908,.0738,.3683,.1125,.2971,.0651,.4879,.116,.5741,.153,.0844,.0369,.1618,.0897,.2303,.1582,.116,.116,.1741,.262,.1741,.4378,0,.2303-.1029,.4141-.3077,.5512s-.4782,.2057-.8211,.2057c-.3464,0-.6233-.0694-.8299-.2066-.2066-.1389-.3094-.3235-.3094-.5556,0-.3288,.2031-.5407,.6092-.6356-.1618-.1037-.2426-.2066-.2426-.3086,0-.0774,.0343-.1477,.1046-.211,.0686-.0633,.1626-.1099,.2804-.1398-.3569-.1582-.5354-.4141-.5354-.7675Zm.7886,1.7011c-.1618,0-.2945,.0343-.3965,.1029-.1037,.0686-.1547,.1565-.1547,.2637,0,.2497,.2251,.3745,.6752,.3745,.2127,0,.3771-.0316,.4941-.0932,.1169-.0633,.1758-.1512,.1758-.2655,0-.1125-.0738-.204-.2215-.276-.1477-.0703-.3385-.1064-.5723-.1064Zm.1134-2.1231c-.1301,0-.2409,.044-.3323,.1319s-.1371,.1934-.1371,.3165c0,.1248,.0448,.2286,.1345,.3094,.0897,.0826,.2031,.1231,.3402,.1231,.1354,0,.2479-.0413,.3393-.1248,.0897-.0835,.1354-.1881,.1354-.313,0-.1266-.0457-.2321-.1371-.3165s-.2057-.1266-.3429-.1266Z"/><path class="b" d="M48.6442,13.0955c.0791,0,.1468,.0273,.2031,.0818s.0844,.1213,.0844,.2004c0,.0774-.0281,.1442-.0844,.2004s-.124,.0844-.2031,.0844c-.0738,0-.1389-.0281-.1952-.0862-.0563-.0563-.0844-.1231-.0844-.1987,0-.0738,.0281-.1389,.0844-.1969,.0563-.0563,.1213-.0853,.1952-.0853Zm-.2374,1.0206h.48v2.4264h-.48v-2.4264Z"/><path class="b" d="M54.02,12.8581h.5257l-1.5578,3.7002h-.1196l-1.5877-3.7002h.531l1.1077,2.5872,1.1006-2.5872Z"/><path class="b" d="M56.8024,15.084v1.0312c0,.0826,.0281,.124,.0844,.124,.058,0,.1486-.0431,.2716-.1292v.2927c-.109,.0703-.1969,.1187-.262,.1433-.0668,.0255-.1354,.0387-.2075,.0387-.2057,0-.327-.0809-.364-.2426-.204,.1582-.4211,.2374-.6514,.2374-.1688,0-.3094-.0554-.422-.167s-.1688-.2523-.1688-.4211c0-.153,.0545-.2892,.1644-.4105,.1099-.1196,.2664-.2154,.4686-.2857l.6145-.211v-.1292c0-.2919-.1459-.4378-.4378-.4378-.262,0-.5169,.1354-.7648,.4061v-.5248c.1864-.2198,.4545-.3297,.8044-.3297,.262,0,.4721,.0686,.6303,.2057,.0527,.044,.1002,.1029,.1424,.1758s.0686,.1459,.0809,.218c.0105,.0738,.0167,.2119,.0167,.4158Zm-1.2184-2.1442c.0686,0,.1275,.0246,.1785,.0738,.0492,.0492,.0747,.109,.0747,.1793s-.0237,.1301-.0712,.1776c-.0475,.0492-.1055,.073-.1741,.073-.0703,0-.1301-.0255-.1793-.0747-.0492-.051-.0738-.1099-.0738-.1785,0-.0703,.0237-.1292,.0721-.1785,.0484-.0475,.1064-.0721,.1732-.0721Zm.7464,3.1226v-.72l-.3218,.124c-.1635,.0651-.2796,.1301-.3464,.1969-.0686,.0651-.102,.1477-.102,.2462,0,.1002,.0316,.182,.0967,.2453,.0633,.0633,.1468,.0949,.2488,.0949,.153,0,.2945-.0624,.4246-.1873Zm.269-3.1226c.0686,0,.1284,.0246,.1776,.0738,.051,.0492,.0756,.109,.0756,.1793s-.0237,.1301-.0712,.1776c-.0475,.0492-.1055,.073-.1741,.073-.0703,0-.1301-.0255-.1793-.0747-.0492-.051-.0738-.1099-.0738-.1785,0-.0703,.0237-.1292,.073-.1785,.0475-.0475,.1055-.0721,.1723-.0721Z"/><path class="b" d="M57.9083,16.3684v-.5169c.1354,.0949,.2734,.1723,.4149,.2303,.1415,.0598,.2611,.0888,.3578,.0888,.1002,0,.1864-.0246,.2585-.0738s.1081-.1081,.1081-.1767c0-.0703-.0237-.1284-.0703-.1758-.0466-.0457-.1468-.1134-.3015-.2013-.3094-.1723-.5125-.3191-.6075-.4422-.0967-.1213-.1442-.2549-.1442-.3991,0-.1864,.0721-.3385,.218-.4563,.1442-.1178,.3314-.1767,.56-.1767,.2374,0,.4809,.0668,.7305,.2004v.4747c-.2848-.1723-.5178-.2585-.6989-.2585-.0932,0-.1688,.0202-.2259,.0598s-.0853,.0914-.0853,.1565c0,.0563,.0255,.1099,.0774,.1618,.0519,.051,.1433,.1125,.2734,.1846l.1714,.0967c.4044,.2286,.6066,.4818,.6066,.7596,0,.1987-.0782,.3622-.233,.4897-.1565,.1275-.356,.1908-.6004,.1908-.1442,0-.2725-.0158-.3851-.0457-.1125-.0308-.2541-.0879-.4246-.1705Z"/><path class="b" d="M60.1966,14.5012l.902-.8861v.5011h.7675v.4325h-.7675v1.1877c0,.2769,.1152,.4158,.3455,.4158,.1723,0,.3543-.0571,.5459-.1714v.4483c-.1846,.1037-.3859,.1556-.604,.1556-.2198,0-.4026-.0642-.5486-.1925-.0457-.0387-.0835-.0818-.1134-.131-.0299-.0475-.0554-.1108-.0756-.1899-.0202-.0774-.0299-.2268-.0299-.4466v-1.076h-.422v-.0475Z"/><path class="b" d="M64.8348,15.3715h-1.7064c.0123,.2321,.0897,.4167,.2338,.5538,.1424,.1371,.3279,.2057,.5547,.2057,.3165,0,.6083-.0985,.8756-.2954v.4694c-.1477,.0985-.2945,.1688-.4387,.211-.1459,.0422-.3156,.0633-.5108,.0633-.2673,0-.4835-.0554-.6488-.1662s-.298-.2593-.3965-.4475c-.1002-.1864-.1494-.4035-.1494-.6497,0-.3692,.1046-.669,.3138-.9011,.2092-.2303,.4809-.3464,.8149-.3464,.3218,0,.5785,.1125,.7701,.3376s.2875,.5266,.2875,.9046v.0607Zm-1.6958-.2875h1.2211c-.0123-.1916-.0694-.3393-.1714-.4431s-.2391-.1556-.4114-.1556-.3138,.0519-.4237,.1556-.1811,.2514-.2145,.4431Z"/><path class="b" d="M66.3003,14.1161v.5565l.0264-.0422c.2321-.3745,.4642-.5618,.6963-.5618,.1811,0,.3701,.0914,.567,.2743l-.2532,.422c-.167-.1582-.3218-.2374-.4642-.2374-.1547,0-.2892,.0738-.4018,.2215-.1143,.1477-.1705,.3226-.1705,.5248v1.2686h-.4826v-2.4264h.4826Z"/><path class="b" d="M68.3425,12.8581h.48v1.4321c.2075-.1512,.429-.2268,.6646-.2268,.3077,0,.5591,.116,.7543,.3481s.2927,.5301,.2927,.8941c0,.3903-.1169,.7015-.3499,.9327s-.5442,.3464-.9345,.3464c-.1565,0-.3218-.0167-.4949-.0501s-.3103-.0756-.4123-.1266v-3.5499Zm.48,1.891v1.3134c.1635,.0492,.3314,.0738,.5037,.0738,.2127,0,.3868-.0756,.5204-.2268,.1354-.1512,.2022-.3455,.2022-.5829,0-.2409-.0633-.4369-.1881-.5881-.1266-.1512-.2901-.2268-.4923-.2268-.1793,0-.3613,.0791-.5459,.2374Z"/><path class="b" d="M72.6396,14.1108c.3692,0,.676,.1196,.9204,.3569,.2444,.2391,.3666,.538,.3666,.8985,0,.3499-.124,.6409-.3719,.8721s-.56,.3464-.9363,.3464c-.364,0-.6681-.1178-.9125-.3516-.2444-.2356-.3666-.5283-.3666-.88,0-.3552,.1231-.6505,.371-.887,.2462-.2365,.5565-.3552,.9292-.3552Zm-.0264,.4325c-.2303,0-.4193,.0756-.567,.2268s-.2215,.3437-.2215,.5776c0,.2321,.0756,.422,.2268,.5688s.3455,.2198,.5829,.2198c.2356,0,.4281-.0738,.5793-.2233,.1494-.1477,.2251-.3385,.2251-.5705,0-.2303-.0782-.4211-.2347-.5723s-.3534-.2268-.5908-.2268Z"/><path class="b" d="M74.52,14.5012l.902-.8861v.5011h.7675v.4325h-.7675v1.1877c0,.2769,.1152,.4158,.3455,.4158,.1723,0,.3543-.0571,.5459-.1714v.4483c-.1846,.1037-.3859,.1556-.604,.1556-.2198,0-.4026-.0642-.5486-.1925-.0457-.0387-.0835-.0818-.1134-.131-.0299-.0475-.0554-.1108-.0756-.1899-.0202-.0774-.0299-.2268-.0299-.4466v-1.076h-.422v-.0475Z"/><path class="b" d="M76.8417,14.5012l.902-.8861v.5011h.7675v.4325h-.7675v1.1877c0,.2769,.1152,.4158,.3455,.4158,.1723,0,.3543-.0571,.5459-.1714v.4483c-.1846,.1037-.3859,.1556-.604,.1556-.2198,0-.4026-.0642-.5486-.1925-.0457-.0387-.0835-.0818-.1134-.131-.0299-.0475-.0554-.1108-.0756-.1899-.0202-.0774-.0299-.2268-.0299-.4466v-1.076h-.422v-.0475Z"/><path class="b" d="M81.4773,15.3715h-1.7064c.0123,.2321,.0897,.4167,.2338,.5538,.1424,.1371,.3279,.2057,.5547,.2057,.3165,0,.6083-.0985,.8756-.2954v.4694c-.1477,.0985-.2945,.1688-.4387,.211-.1459,.0422-.3156,.0633-.5108,.0633-.2673,0-.4835-.0554-.6488-.1662s-.298-.2593-.3965-.4475c-.1002-.1864-.1494-.4035-.1494-.6497,0-.3692,.1046-.669,.3138-.9011,.2092-.2303,.4809-.3464,.8149-.3464,.3218,0,.5785,.1125,.7701,.3376s.2875,.5266,.2875,.9046v.0607Zm-1.6958-.2875h1.2211c-.0123-.1916-.0694-.3393-.1714-.4431s-.2391-.1556-.4114-.1556-.3138,.0519-.4237,.1556-.1811,.2514-.2145,.4431Z"/><path class="b" d="M82.9217,14.1161v.3086c.2145-.2374,.458-.356,.7305-.356,.1512,0,.2919,.0396,.422,.1178s.2286,.1855,.2971,.3218c.0668,.1363,.1011,.3516,.1011,.647v1.3872h-.48v-1.382c0-.2479-.0378-.4246-.1134-.531s-.2022-.16-.3798-.16c-.2268,0-.4193,.1134-.5776,.3402v1.7327h-.4905v-2.4264h.4905Z"/></g></svg>
