<?xml version="1.0" encoding="UTF-8"?>
<svg xmlns="http://www.w3.org/2000/svg" xmlns:xlink="http://www.w3.org/1999/xlink" width="100px" height="22px" viewBox="0 0 102 22" version="1.1">
<g id="surface1">
<path style=" stroke:none;fill-rule:nonzero;fill:rgb(13.72549%,12.156863%,12.54902%);fill-opacity:1;" d="M 3.1875 13.425781 C 1.371094 13.425781 0.167969 12.144531 0.167969 10.4375 L 0.167969 3.425781 C 0.167969 1.714844 1.371094 0.4375 3.1875 0.4375 C 5.035156 0.4375 6.027344 1.644531 6.027344 3.316406 L 6.027344 5.125 L 4.261719 5.125 L 4.261719 3.28125 C 4.261719 2.671875 3.929688 2.242188 3.230469 2.242188 C 2.539062 2.242188 2.195312 2.671875 2.195312 3.261719 L 2.195312 10.605469 C 2.195312 11.183594 2.539062 11.621094 3.230469 11.621094 C 3.929688 11.621094 4.261719 11.183594 4.261719 10.585938 L 4.261719 8.71875 L 6.027344 8.71875 L 6.027344 10.546875 C 6.027344 12.21875 5.035156 13.425781 3.1875 13.425781 Z M 3.1875 13.425781 "/>
<path style=" stroke:none;fill-rule:nonzero;fill:rgb(13.72549%,12.156863%,12.54902%);fill-opacity:1;" d="M 11.625 8.152344 L 11.625 13.203125 L 9.628906 13.203125 L 9.628906 8.152344 L 7.386719 0.660156 L 9.410156 0.660156 L 10.746094 5.910156 L 12.03125 0.660156 L 14.007812 0.660156 Z M 11.625 8.152344 "/>
<path style=" stroke:none;fill-rule:nonzero;fill:rgb(13.72549%,12.156863%,12.54902%);fill-opacity:1;" d="M 19.84375 13.203125 L 18.457031 7.984375 L 17.785156 9.792969 L 17.785156 13.203125 L 15.792969 13.203125 L 15.792969 0.660156 L 17.785156 0.660156 L 17.785156 6.554688 L 19.84375 0.660156 L 21.816406 0.660156 L 19.8125 5.988281 L 21.890625 13.203125 Z M 19.84375 13.203125 "/>
<path style=" stroke:none;fill-rule:nonzero;fill:rgb(13.72549%,12.156863%,12.54902%);fill-opacity:1;" d="M 23.863281 13.203125 L 23.863281 0.660156 L 28.855469 0.660156 L 28.855469 2.433594 L 25.859375 2.433594 L 25.859375 5.902344 L 27.9375 5.902344 L 27.9375 7.550781 L 25.859375 7.550781 L 25.859375 11.375 L 28.855469 11.375 L 28.855469 13.203125 Z M 23.863281 13.203125 "/>
<path style=" stroke:none;fill-rule:nonzero;fill:rgb(13.72549%,12.156863%,12.54902%);fill-opacity:1;" d="M 31.039062 13.203125 L 31.039062 0.660156 L 33.023438 0.660156 L 33.023438 11.390625 L 35.90625 11.390625 L 35.90625 13.203125 Z M 31.039062 13.203125 "/>
<path style=" stroke:none;fill-rule:nonzero;fill:rgb(13.72549%,12.156863%,12.54902%);fill-opacity:1;" d="M 37.871094 13.203125 L 37.871094 0.660156 L 39.863281 0.660156 L 39.863281 13.203125 Z M 37.871094 13.203125 "/>
<path style=" stroke:none;fill-rule:nonzero;fill:rgb(13.72549%,12.156863%,12.54902%);fill-opacity:1;" d="M 46.996094 13.203125 L 44.898438 7.515625 L 44.199219 5.597656 L 44.199219 13.203125 L 42.390625 13.203125 L 42.390625 0.660156 L 44.167969 0.660156 L 46.109375 6.402344 L 46.746094 8.347656 L 46.746094 0.660156 L 48.53125 0.660156 L 48.53125 13.203125 Z M 46.996094 13.203125 "/>
<path style=" stroke:none;fill-rule:nonzero;fill:rgb(13.72549%,12.156863%,12.54902%);fill-opacity:1;" d="M 54.410156 2.488281 L 54.410156 13.203125 L 52.417969 13.203125 L 52.417969 2.488281 L 50.484375 2.488281 L 50.484375 0.660156 L 56.3125 0.660156 L 56.3125 2.488281 Z M 54.410156 2.488281 "/>
<path style=" stroke:none;fill-rule:nonzero;fill:rgb(13.72549%,12.156863%,12.54902%);fill-opacity:1;" d="M 63.164062 13.257812 C 62.390625 13.257812 62.085938 12.507812 62.085938 11.527344 L 62.085938 8.835938 C 62.085938 8.328125 61.828125 7.914062 61.28125 7.914062 L 60.300781 7.914062 L 60.300781 13.203125 L 58.316406 13.203125 L 58.316406 0.660156 L 61.503906 0.660156 C 62.890625 0.660156 63.96875 1.4375 63.96875 3.125 L 63.96875 5.355469 C 63.96875 6.199219 63.589844 6.824219 62.785156 7.121094 C 63.589844 7.398438 64 8.082031 64 8.855469 L 64 11.414062 C 64 11.980469 64.132812 12.371094 64.386719 12.691406 L 64.386719 13.257812 Z M 62.015625 3.1875 C 62.015625 2.664062 61.816406 2.375 61.335938 2.375 L 60.300781 2.375 L 60.300781 6.351562 L 61.261719 6.351562 C 61.753906 6.351562 62.015625 6.070312 62.015625 5.460938 Z M 62.015625 3.1875 "/>
<path style=" stroke:none;fill-rule:nonzero;fill:rgb(13.72549%,12.156863%,12.54902%);fill-opacity:1;" d="M 66.410156 13.203125 L 66.410156 0.660156 L 71.402344 0.660156 L 71.402344 2.433594 L 68.394531 2.433594 L 68.394531 5.902344 L 70.484375 5.902344 L 70.484375 7.550781 L 68.394531 7.550781 L 68.394531 11.375 L 71.402344 11.375 L 71.402344 13.203125 Z M 66.410156 13.203125 "/>
<path style=" stroke:none;fill-rule:nonzero;fill:rgb(13.72549%,12.156863%,12.54902%);fill-opacity:1;" d="M 76.226562 13.425781 C 74.429688 13.425781 73.304688 12.3125 73.304688 10.546875 L 73.304688 9.4375 L 75.121094 9.4375 L 75.121094 10.511719 C 75.121094 11.296875 75.476562 11.746094 76.175781 11.746094 C 76.886719 11.746094 77.21875 11.320312 77.21875 10.625 C 77.21875 9.527344 76.675781 8.71875 75.621094 7.609375 C 74.597656 6.570312 73.398438 5.105469 73.398438 3.507812 C 73.398438 1.808594 74.367188 0.4375 76.300781 0.4375 C 77.972656 0.4375 79.058594 1.605469 79.058594 3.316406 L 79.058594 4.445312 L 77.261719 4.445312 L 77.261719 3.316406 C 77.261719 2.621094 76.9375 2.148438 76.300781 2.148438 C 75.714844 2.148438 75.328125 2.527344 75.328125 3.164062 C 75.328125 4.390625 75.863281 4.996094 77.03125 6.234375 C 78.253906 7.503906 79.152344 8.761719 79.152344 10.34375 C 79.152344 12.335938 77.855469 13.425781 76.226562 13.425781 Z M 76.226562 13.425781 "/>
<path style=" stroke:none;fill-rule:nonzero;fill:rgb(13.72549%,12.156863%,12.54902%);fill-opacity:1;" d="M 83.925781 13.425781 C 82.128906 13.425781 81 12.3125 81 10.546875 L 81 9.4375 L 82.816406 9.4375 L 82.816406 10.511719 C 82.816406 11.296875 83.171875 11.746094 83.871094 11.746094 C 84.582031 11.746094 84.917969 11.320312 84.917969 10.625 C 84.917969 9.527344 84.375 8.71875 83.320312 7.609375 C 82.296875 6.570312 81.085938 5.105469 81.085938 3.507812 C 81.085938 1.808594 82.066406 0.4375 84.007812 0.4375 C 85.667969 0.4375 86.753906 1.605469 86.753906 3.316406 L 86.753906 4.445312 L 84.957031 4.445312 L 84.957031 3.316406 C 84.957031 2.621094 84.632812 2.148438 84.007812 2.148438 C 83.421875 2.148438 83.027344 2.527344 83.027344 3.164062 C 83.027344 4.390625 83.570312 4.996094 84.730469 6.234375 C 85.949219 7.503906 86.847656 8.761719 86.847656 10.34375 C 86.847656 12.335938 85.566406 13.425781 83.925781 13.425781 Z M 83.925781 13.425781 "/>
<path style=" stroke:none;fill-rule:nonzero;fill:rgb(13.72549%,12.156863%,12.54902%);fill-opacity:1;" d="M 89.011719 13.203125 L 89.011719 0.660156 L 94.011719 0.660156 L 94.011719 2.433594 L 91.003906 2.433594 L 91.003906 5.902344 L 93.082031 5.902344 L 93.082031 7.550781 L 91.003906 7.550781 L 91.003906 11.375 L 94.011719 11.375 L 94.011719 13.203125 Z M 89.011719 13.203125 "/>
<path style=" stroke:none;fill-rule:nonzero;fill:rgb(13.72549%,12.156863%,12.54902%);fill-opacity:1;" d="M 99.601562 2.488281 L 99.601562 13.203125 L 97.617188 13.203125 L 97.617188 2.488281 L 95.683594 2.488281 L 95.683594 0.660156 L 101.5 0.660156 L 101.5 2.488281 Z M 99.601562 2.488281 "/>
<path style=" stroke:none;fill-rule:nonzero;fill:rgb(13.72549%,12.156863%,12.54902%);fill-opacity:1;" d="M 1.011719 19.777344 L 1.011719 15.375 L 2.113281 15.375 C 2.558594 15.375 2.910156 15.484375 3.171875 15.703125 C 3.429688 15.925781 3.5625 16.222656 3.5625 16.601562 C 3.5625 16.855469 3.5 17.078125 3.371094 17.265625 C 3.242188 17.453125 3.058594 17.59375 2.820312 17.683594 C 2.960938 17.777344 3.097656 17.902344 3.230469 18.0625 C 3.367188 18.222656 3.554688 18.503906 3.796875 18.898438 C 3.949219 19.148438 4.074219 19.335938 4.164062 19.464844 L 4.398438 19.777344 L 3.648438 19.777344 L 3.457031 19.488281 C 3.453125 19.476562 3.441406 19.460938 3.421875 19.433594 L 3.296875 19.261719 L 3.105469 18.941406 L 2.894531 18.59375 C 2.765625 18.414062 2.644531 18.269531 2.535156 18.164062 C 2.429688 18.058594 2.332031 17.980469 2.246094 17.933594 C 2.15625 17.886719 2.011719 17.863281 1.804688 17.863281 L 1.640625 17.863281 L 1.640625 19.777344 Z M 1.832031 15.910156 L 1.640625 15.910156 L 1.640625 17.300781 L 1.878906 17.300781 C 2.199219 17.300781 2.417969 17.273438 2.535156 17.21875 C 2.652344 17.164062 2.746094 17.082031 2.8125 16.96875 C 2.878906 16.859375 2.910156 16.734375 2.910156 16.59375 C 2.910156 16.457031 2.875 16.332031 2.800781 16.21875 C 2.726562 16.105469 2.625 16.027344 2.492188 15.980469 C 2.359375 15.933594 2.136719 15.910156 1.832031 15.910156 Z M 1.832031 15.910156 "/>
<path style=" stroke:none;fill-rule:nonzero;fill:rgb(13.72549%,12.156863%,12.54902%);fill-opacity:1;" d="M 7.171875 18.035156 L 7.171875 19.269531 C 7.171875 19.367188 7.207031 19.417969 7.273438 19.417969 C 7.339844 19.417969 7.449219 19.363281 7.597656 19.261719 L 7.597656 19.613281 C 7.464844 19.695312 7.363281 19.753906 7.285156 19.785156 C 7.203125 19.8125 7.121094 19.828125 7.035156 19.828125 C 6.792969 19.828125 6.648438 19.734375 6.601562 19.539062 C 6.359375 19.730469 6.101562 19.824219 5.828125 19.824219 C 5.625 19.824219 5.457031 19.757812 5.324219 19.625 C 5.191406 19.488281 5.121094 19.320312 5.121094 19.121094 C 5.121094 18.9375 5.1875 18.773438 5.320312 18.628906 C 5.449219 18.488281 5.636719 18.371094 5.875 18.289062 L 6.609375 18.035156 L 6.609375 17.882812 C 6.609375 17.53125 6.433594 17.359375 6.085938 17.359375 C 5.773438 17.359375 5.472656 17.519531 5.175781 17.84375 L 5.175781 17.214844 C 5.398438 16.953125 5.71875 16.820312 6.132812 16.820312 C 6.445312 16.820312 6.695312 16.902344 6.886719 17.066406 C 6.949219 17.121094 7.003906 17.191406 7.054688 17.277344 C 7.105469 17.363281 7.136719 17.453125 7.152344 17.539062 C 7.164062 17.625 7.171875 17.792969 7.171875 18.035156 Z M 6.609375 19.207031 L 6.609375 18.34375 L 6.226562 18.492188 C 6.03125 18.570312 5.894531 18.648438 5.8125 18.726562 C 5.730469 18.804688 5.691406 18.90625 5.691406 19.023438 C 5.691406 19.140625 5.730469 19.238281 5.808594 19.316406 C 5.882812 19.390625 5.980469 19.429688 6.101562 19.429688 C 6.285156 19.429688 6.453125 19.355469 6.609375 19.207031 Z M 6.609375 19.207031 "/>
<path style=" stroke:none;fill-rule:nonzero;fill:rgb(13.72549%,12.156863%,12.54902%);fill-opacity:1;" d="M 9.171875 16.878906 L 9.171875 17.246094 C 9.425781 16.964844 9.714844 16.820312 10.039062 16.820312 C 10.222656 16.820312 10.390625 16.867188 10.542969 16.960938 C 10.699219 17.054688 10.816406 17.183594 10.898438 17.347656 C 10.976562 17.511719 11.019531 17.765625 11.019531 18.121094 L 11.019531 19.777344 L 10.445312 19.777344 L 10.445312 18.125 C 10.445312 17.832031 10.402344 17.617188 10.3125 17.492188 C 10.222656 17.363281 10.070312 17.300781 9.859375 17.300781 C 9.589844 17.300781 9.359375 17.4375 9.171875 17.707031 L 9.171875 19.777344 L 8.585938 19.777344 L 8.585938 16.878906 Z M 9.171875 16.878906 "/>
<path style=" stroke:none;fill-rule:nonzero;fill:rgb(13.72549%,12.156863%,12.54902%);fill-opacity:1;" d="M 14.203125 15.375 L 14.78125 15.375 L 14.78125 19.777344 L 13.558594 19.777344 C 13.128906 19.777344 12.789062 19.644531 12.535156 19.371094 C 12.28125 19.101562 12.152344 18.738281 12.152344 18.28125 C 12.152344 17.855469 12.285156 17.503906 12.554688 17.226562 C 12.820312 16.953125 13.160156 16.816406 13.578125 16.816406 C 13.769531 16.816406 13.980469 16.855469 14.203125 16.9375 Z M 14.203125 19.285156 L 14.203125 17.449219 C 14.027344 17.359375 13.847656 17.3125 13.664062 17.3125 C 13.378906 17.3125 13.152344 17.40625 12.984375 17.59375 C 12.816406 17.78125 12.730469 18.03125 12.730469 18.351562 C 12.730469 18.648438 12.804688 18.878906 12.953125 19.042969 C 13.039062 19.136719 13.132812 19.203125 13.230469 19.238281 C 13.328125 19.269531 13.507812 19.285156 13.761719 19.285156 L 14.207031 19.285156 Z M 14.203125 19.285156 "/>
<path style=" stroke:none;fill-rule:nonzero;fill:rgb(13.72549%,12.156863%,12.54902%);fill-opacity:1;" d="M 17.4375 16.871094 C 17.875 16.871094 18.242188 17.015625 18.535156 17.296875 C 18.824219 17.585938 18.96875 17.941406 18.96875 18.371094 C 18.96875 18.789062 18.824219 19.140625 18.527344 19.414062 C 18.230469 19.691406 17.859375 19.828125 17.410156 19.828125 C 16.976562 19.828125 16.617188 19.6875 16.324219 19.410156 C 16.03125 19.128906 15.886719 18.777344 15.886719 18.355469 C 15.886719 17.933594 16.035156 17.578125 16.328125 17.296875 C 16.621094 17.011719 16.992188 16.871094 17.4375 16.871094 Z M 17.40625 17.390625 C 17.128906 17.390625 16.90625 17.480469 16.730469 17.660156 C 16.554688 17.839844 16.464844 18.070312 16.464844 18.351562 C 16.464844 18.628906 16.554688 18.855469 16.734375 19.03125 C 16.917969 19.207031 17.148438 19.292969 17.429688 19.292969 C 17.710938 19.292969 17.941406 19.207031 18.121094 19.027344 C 18.296875 18.851562 18.390625 18.621094 18.390625 18.34375 C 18.390625 18.070312 18.296875 17.839844 18.109375 17.660156 C 17.921875 17.480469 17.6875 17.390625 17.40625 17.390625 Z M 17.40625 17.390625 "/>
<path style=" stroke:none;fill-rule:nonzero;fill:rgb(13.72549%,12.156863%,12.54902%);fill-opacity:1;" d="M 20.660156 16.878906 L 20.660156 17.246094 C 20.914062 16.964844 21.207031 16.820312 21.53125 16.820312 C 21.710938 16.820312 21.878906 16.867188 22.035156 16.960938 C 22.1875 17.054688 22.304688 17.183594 22.386719 17.347656 C 22.46875 17.511719 22.507812 17.765625 22.507812 18.121094 L 22.507812 19.777344 L 21.9375 19.777344 L 21.9375 18.125 C 21.9375 17.832031 21.890625 17.617188 21.800781 17.492188 C 21.710938 17.363281 21.558594 17.300781 21.347656 17.300781 C 21.078125 17.300781 20.847656 17.4375 20.660156 17.707031 L 20.660156 19.777344 L 20.074219 19.777344 L 20.074219 16.878906 Z M 20.660156 16.878906 "/>
<path style=" stroke:none;fill-rule:nonzero;fill:rgb(13.72549%,12.156863%,12.54902%);fill-opacity:1;" d="M 24.359375 16.878906 L 24.359375 17.246094 C 24.617188 16.964844 24.90625 16.820312 25.230469 16.820312 C 25.410156 16.820312 25.578125 16.867188 25.734375 16.960938 C 25.890625 17.054688 26.007812 17.183594 26.089844 17.347656 C 26.167969 17.511719 26.207031 17.765625 26.207031 18.121094 L 26.207031 19.777344 L 25.636719 19.777344 L 25.636719 18.125 C 25.636719 17.832031 25.589844 17.617188 25.5 17.492188 C 25.410156 17.363281 25.261719 17.300781 25.050781 17.300781 C 24.777344 17.300781 24.550781 17.4375 24.359375 17.707031 L 24.359375 19.777344 L 23.777344 19.777344 L 23.777344 16.878906 Z M 24.359375 16.878906 "/>
<path style=" stroke:none;fill-rule:nonzero;fill:rgb(13.72549%,12.156863%,12.54902%);fill-opacity:1;" d="M 29.945312 18.378906 L 27.910156 18.378906 C 27.925781 18.65625 28.019531 18.878906 28.191406 19.042969 C 28.359375 19.203125 28.582031 19.285156 28.851562 19.285156 C 29.230469 19.285156 29.578125 19.167969 29.894531 18.933594 L 29.894531 19.496094 C 29.71875 19.613281 29.542969 19.695312 29.371094 19.746094 C 29.199219 19.796875 28.996094 19.824219 28.761719 19.824219 C 28.445312 19.824219 28.1875 19.757812 27.992188 19.625 C 27.792969 19.492188 27.636719 19.3125 27.519531 19.089844 C 27.398438 18.867188 27.339844 18.605469 27.339844 18.3125 C 27.339844 17.871094 27.464844 17.511719 27.714844 17.234375 C 27.964844 16.960938 28.285156 16.820312 28.683594 16.820312 C 29.066406 16.820312 29.375 16.957031 29.601562 17.222656 C 29.832031 17.492188 29.945312 17.855469 29.945312 18.304688 Z M 27.925781 18.035156 L 29.378906 18.035156 C 29.363281 17.804688 29.296875 17.628906 29.175781 17.503906 C 29.054688 17.382812 28.890625 17.320312 28.683594 17.320312 C 28.480469 17.320312 28.3125 17.382812 28.179688 17.503906 C 28.050781 17.628906 27.964844 17.804688 27.925781 18.035156 Z M 29.324219 15.304688 L 28.613281 16.25 L 28.261719 16.25 L 28.683594 15.304688 Z M 29.324219 15.304688 "/>
<path style=" stroke:none;fill-rule:nonzero;fill:rgb(13.72549%,12.156863%,12.54902%);fill-opacity:1;" d="M 33.542969 18.378906 L 31.507812 18.378906 C 31.523438 18.65625 31.613281 18.878906 31.785156 19.042969 C 31.957031 19.203125 32.175781 19.285156 32.449219 19.285156 C 32.824219 19.285156 33.171875 19.167969 33.492188 18.933594 L 33.492188 19.496094 C 33.316406 19.613281 33.140625 19.695312 32.96875 19.746094 C 32.792969 19.796875 32.59375 19.824219 32.359375 19.824219 C 32.042969 19.824219 31.785156 19.757812 31.585938 19.625 C 31.390625 19.492188 31.230469 19.3125 31.113281 19.089844 C 30.996094 18.867188 30.9375 18.605469 30.9375 18.3125 C 30.9375 17.871094 31.0625 17.511719 31.308594 17.234375 C 31.558594 16.960938 31.882812 16.820312 32.28125 16.820312 C 32.664062 16.820312 32.96875 16.957031 33.199219 17.222656 C 33.425781 17.492188 33.542969 17.855469 33.542969 18.304688 Z M 31.519531 18.035156 L 32.976562 18.035156 C 32.960938 17.804688 32.894531 17.628906 32.773438 17.503906 C 32.648438 17.382812 32.488281 17.320312 32.28125 17.320312 C 32.074219 17.320312 31.90625 17.382812 31.777344 17.503906 C 31.644531 17.628906 31.5625 17.804688 31.519531 18.035156 Z M 31.519531 18.035156 "/>
<path style=" stroke:none;fill-rule:nonzero;fill:rgb(13.72549%,12.156863%,12.54902%);fill-opacity:1;" d="M 36.851562 19.101562 L 36.851562 19.667969 C 36.5625 19.777344 36.28125 19.828125 36.007812 19.828125 C 35.554688 19.828125 35.195312 19.695312 34.925781 19.425781 C 34.65625 19.15625 34.523438 18.796875 34.523438 18.34375 C 34.523438 17.886719 34.652344 17.519531 34.914062 17.242188 C 35.175781 16.960938 35.523438 16.820312 35.949219 16.820312 C 36.097656 16.820312 36.230469 16.835938 36.347656 16.863281 C 36.46875 16.890625 36.613281 16.945312 36.789062 17.023438 L 36.789062 17.632812 C 36.5 17.449219 36.230469 17.355469 35.984375 17.355469 C 35.726562 17.355469 35.515625 17.449219 35.347656 17.628906 C 35.183594 17.8125 35.101562 18.042969 35.101562 18.324219 C 35.101562 18.621094 35.191406 18.855469 35.367188 19.03125 C 35.546875 19.207031 35.789062 19.292969 36.09375 19.292969 C 36.3125 19.292969 36.566406 19.230469 36.851562 19.101562 Z M 36.851562 19.101562 "/>
<path style=" stroke:none;fill-rule:nonzero;fill:rgb(13.72549%,12.156863%,12.54902%);fill-opacity:1;" d="M 39.820312 16.878906 L 40.460938 16.878906 L 38.414062 21.257812 L 37.773438 21.257812 L 38.757812 19.15625 L 37.640625 16.878906 L 38.292969 16.878906 L 39.070312 18.515625 Z M 39.820312 16.878906 "/>
<path style=" stroke:none;fill-rule:nonzero;fill:rgb(13.72549%,12.156863%,12.54902%);fill-opacity:1;" d="M 41.378906 15.375 L 41.949219 15.375 L 41.949219 19.777344 L 41.378906 19.777344 Z M 43.257812 16.878906 L 43.9375 16.878906 L 42.703125 18.296875 L 44.191406 19.777344 L 43.421875 19.777344 L 41.972656 18.300781 L 43.261719 16.878906 Z M 43.257812 16.878906 "/>
<path style=" stroke:none;fill-rule:nonzero;fill:rgb(13.72549%,12.156863%,12.54902%);fill-opacity:1;" d="M 45.039062 15.375 L 45.609375 15.375 L 45.609375 19.777344 L 45.039062 19.777344 Z M 45.039062 15.375 "/>
<path style=" stroke:none;fill-rule:nonzero;fill:rgb(13.72549%,12.156863%,12.54902%);fill-opacity:1;" d="M 47.203125 15.65625 C 47.300781 15.65625 47.378906 15.691406 47.445312 15.753906 C 47.515625 15.820312 47.546875 15.902344 47.546875 15.996094 C 47.546875 16.085938 47.515625 16.167969 47.445312 16.234375 C 47.378906 16.300781 47.300781 16.335938 47.203125 16.335938 C 47.117188 16.335938 47.039062 16.300781 46.972656 16.234375 C 46.90625 16.164062 46.871094 16.085938 46.871094 15.996094 C 46.871094 15.90625 46.90625 15.828125 46.972656 15.757812 C 47.039062 15.691406 47.117188 15.65625 47.203125 15.65625 Z M 46.921875 16.878906 L 47.492188 16.878906 L 47.492188 19.777344 L 46.921875 19.777344 Z M 46.921875 16.878906 "/>
<path style=" stroke:none;fill-rule:nonzero;fill:rgb(13.72549%,12.156863%,12.54902%);fill-opacity:1;" d="M 49.371094 16.878906 L 49.371094 17.246094 C 49.628906 16.964844 49.917969 16.820312 50.242188 16.820312 C 50.421875 16.820312 50.589844 16.867188 50.746094 16.960938 C 50.902344 17.054688 51.019531 17.183594 51.101562 17.347656 C 51.179688 17.511719 51.222656 17.765625 51.222656 18.121094 L 51.222656 19.777344 L 50.648438 19.777344 L 50.648438 18.125 C 50.648438 17.832031 50.605469 17.617188 50.515625 17.492188 C 50.421875 17.363281 50.273438 17.300781 50.0625 17.300781 C 49.789062 17.300781 49.5625 17.4375 49.371094 17.707031 L 49.371094 19.777344 L 48.789062 19.777344 L 48.789062 16.878906 Z M 49.371094 16.878906 "/>
<path style=" stroke:none;fill-rule:nonzero;fill:rgb(13.72549%,12.156863%,12.54902%);fill-opacity:1;" d="M 52.339844 17.878906 C 52.339844 17.570312 52.453125 17.328125 52.679688 17.148438 C 52.90625 16.96875 53.210938 16.878906 53.601562 16.878906 L 54.792969 16.878906 L 54.792969 17.324219 L 54.207031 17.324219 C 54.320312 17.441406 54.398438 17.546875 54.445312 17.640625 C 54.488281 17.734375 54.511719 17.84375 54.511719 17.964844 C 54.511719 18.117188 54.46875 18.265625 54.382812 18.414062 C 54.296875 18.558594 54.1875 18.671875 54.050781 18.746094 C 53.914062 18.824219 53.691406 18.886719 53.386719 18.933594 C 53.167969 18.964844 53.0625 19.039062 53.0625 19.15625 C 53.0625 19.226562 53.101562 19.28125 53.183594 19.324219 C 53.261719 19.367188 53.410156 19.410156 53.621094 19.457031 C 53.976562 19.535156 54.203125 19.597656 54.304688 19.640625 C 54.40625 19.683594 54.496094 19.746094 54.578125 19.828125 C 54.71875 19.96875 54.785156 20.140625 54.785156 20.351562 C 54.785156 20.628906 54.664062 20.847656 54.421875 21.011719 C 54.175781 21.175781 53.851562 21.257812 53.441406 21.257812 C 53.027344 21.257812 52.699219 21.175781 52.453125 21.011719 C 52.207031 20.84375 52.085938 20.625 52.085938 20.347656 C 52.085938 19.953125 52.328125 19.699219 52.808594 19.585938 C 52.617188 19.460938 52.519531 19.339844 52.519531 19.21875 C 52.519531 19.125 52.5625 19.039062 52.644531 18.964844 C 52.726562 18.890625 52.839844 18.832031 52.980469 18.796875 C 52.554688 18.609375 52.34375 18.304688 52.34375 17.878906 Z M 53.28125 19.914062 C 53.089844 19.914062 52.929688 19.957031 52.808594 20.039062 C 52.683594 20.121094 52.625 20.226562 52.625 20.351562 C 52.625 20.652344 52.894531 20.800781 53.429688 20.800781 C 53.683594 20.800781 53.878906 20.761719 54.019531 20.6875 C 54.15625 20.613281 54.226562 20.507812 54.226562 20.371094 C 54.226562 20.238281 54.140625 20.128906 53.964844 20.042969 C 53.789062 19.957031 53.558594 19.914062 53.28125 19.914062 Z M 53.417969 17.375 C 53.261719 17.375 53.128906 17.429688 53.019531 17.535156 C 52.910156 17.640625 52.855469 17.765625 52.855469 17.914062 C 52.855469 18.0625 52.910156 18.1875 53.015625 18.28125 C 53.125 18.382812 53.257812 18.429688 53.421875 18.429688 C 53.585938 18.429688 53.71875 18.378906 53.828125 18.28125 C 53.933594 18.179688 53.988281 18.054688 53.988281 17.90625 C 53.988281 17.753906 53.933594 17.628906 53.824219 17.527344 C 53.714844 17.425781 53.578125 17.375 53.417969 17.375 Z M 53.417969 17.375 "/>
<path style=" stroke:none;fill-rule:nonzero;fill:rgb(13.72549%,12.156863%,12.54902%);fill-opacity:1;" d="M 57.964844 15.65625 C 58.058594 15.65625 58.140625 15.691406 58.207031 15.753906 C 58.273438 15.820312 58.304688 15.902344 58.304688 15.996094 C 58.304688 16.085938 58.273438 16.167969 58.207031 16.234375 C 58.140625 16.300781 58.058594 16.335938 57.964844 16.335938 C 57.875 16.335938 57.796875 16.300781 57.730469 16.234375 C 57.664062 16.164062 57.628906 16.085938 57.628906 15.996094 C 57.628906 15.90625 57.664062 15.828125 57.730469 15.757812 C 57.796875 15.691406 57.875 15.65625 57.964844 15.65625 Z M 57.679688 16.878906 L 58.253906 16.878906 L 58.253906 19.777344 L 57.679688 19.777344 Z M 57.679688 16.878906 "/>
<path style=" stroke:none;fill-rule:nonzero;fill:rgb(13.72549%,12.156863%,12.54902%);fill-opacity:1;" d="M 64.371094 15.375 L 64.996094 15.375 L 63.140625 19.796875 L 62.996094 19.796875 L 61.105469 15.375 L 61.738281 15.375 L 63.058594 18.46875 Z M 64.371094 15.375 "/>
<path style=" stroke:none;fill-rule:nonzero;fill:rgb(13.72549%,12.156863%,12.54902%);fill-opacity:1;" d="M 67.683594 18.035156 L 67.683594 19.269531 C 67.683594 19.367188 67.71875 19.417969 67.785156 19.417969 C 67.855469 19.417969 67.960938 19.363281 68.109375 19.261719 L 68.109375 19.613281 C 67.980469 19.695312 67.875 19.753906 67.796875 19.785156 C 67.71875 19.8125 67.636719 19.828125 67.550781 19.828125 C 67.304688 19.828125 67.160156 19.734375 67.117188 19.539062 C 66.875 19.730469 66.613281 19.824219 66.339844 19.824219 C 66.140625 19.824219 65.972656 19.757812 65.835938 19.625 C 65.703125 19.488281 65.636719 19.320312 65.636719 19.121094 C 65.636719 18.9375 65.699219 18.773438 65.832031 18.628906 C 65.960938 18.488281 66.148438 18.371094 66.390625 18.289062 L 67.121094 18.035156 L 67.121094 17.882812 C 67.121094 17.53125 66.949219 17.359375 66.601562 17.359375 C 66.289062 17.359375 65.984375 17.519531 65.6875 17.84375 L 65.6875 17.214844 C 65.910156 16.953125 66.230469 16.820312 66.648438 16.820312 C 66.960938 16.820312 67.210938 16.902344 67.398438 17.066406 C 67.460938 17.121094 67.519531 17.191406 67.570312 17.277344 C 67.617188 17.363281 67.652344 17.453125 67.664062 17.539062 C 67.675781 17.625 67.683594 17.792969 67.683594 18.035156 Z M 66.234375 15.472656 C 66.316406 15.472656 66.386719 15.5 66.445312 15.558594 C 66.503906 15.617188 66.535156 15.691406 66.535156 15.773438 C 66.535156 15.859375 66.507812 15.929688 66.449219 15.988281 C 66.394531 16.046875 66.324219 16.074219 66.242188 16.074219 C 66.160156 16.074219 66.085938 16.042969 66.027344 15.984375 C 65.96875 15.921875 65.941406 15.851562 65.941406 15.769531 C 65.941406 15.6875 65.96875 15.617188 66.027344 15.558594 C 66.085938 15.5 66.152344 15.472656 66.234375 15.472656 Z M 67.121094 19.203125 L 67.121094 18.34375 L 66.738281 18.492188 C 66.542969 18.570312 66.40625 18.648438 66.328125 18.726562 C 66.246094 18.804688 66.203125 18.90625 66.203125 19.023438 C 66.203125 19.140625 66.242188 19.238281 66.320312 19.316406 C 66.394531 19.390625 66.496094 19.429688 66.617188 19.429688 C 66.800781 19.429688 66.96875 19.355469 67.121094 19.203125 Z M 67.441406 15.472656 C 67.523438 15.472656 67.597656 15.5 67.65625 15.558594 C 67.714844 15.617188 67.746094 15.691406 67.746094 15.773438 C 67.746094 15.859375 67.714844 15.929688 67.660156 15.988281 C 67.601562 16.046875 67.535156 16.074219 67.453125 16.074219 C 67.367188 16.074219 67.296875 16.042969 67.238281 15.984375 C 67.179688 15.921875 67.152344 15.851562 67.152344 15.769531 C 67.152344 15.6875 67.179688 15.617188 67.238281 15.558594 C 67.292969 15.5 67.363281 15.472656 67.441406 15.472656 Z M 67.441406 15.472656 "/>
<path style=" stroke:none;fill-rule:nonzero;fill:rgb(13.72549%,12.156863%,12.54902%);fill-opacity:1;" d="M 69.003906 19.570312 L 69.003906 18.953125 C 69.164062 19.066406 69.328125 19.160156 69.496094 19.226562 C 69.664062 19.300781 69.808594 19.335938 69.921875 19.335938 C 70.042969 19.335938 70.144531 19.304688 70.230469 19.246094 C 70.316406 19.1875 70.359375 19.117188 70.359375 19.035156 C 70.359375 18.949219 70.332031 18.882812 70.277344 18.824219 C 70.222656 18.769531 70.101562 18.6875 69.917969 18.585938 C 69.546875 18.378906 69.308594 18.203125 69.195312 18.054688 C 69.078125 17.910156 69.023438 17.75 69.023438 17.578125 C 69.023438 17.355469 69.109375 17.171875 69.28125 17.03125 C 69.453125 16.890625 69.675781 16.820312 69.949219 16.820312 C 70.230469 16.820312 70.523438 16.902344 70.820312 17.0625 L 70.820312 17.628906 C 70.480469 17.421875 70.203125 17.320312 69.988281 17.320312 C 69.875 17.320312 69.785156 17.34375 69.71875 17.390625 C 69.648438 17.4375 69.617188 17.5 69.617188 17.578125 C 69.617188 17.644531 69.644531 17.710938 69.707031 17.769531 C 69.769531 17.832031 69.878906 17.90625 70.035156 17.992188 L 70.238281 18.109375 C 70.71875 18.382812 70.960938 18.683594 70.960938 19.015625 C 70.960938 19.253906 70.867188 19.449219 70.683594 19.601562 C 70.496094 19.753906 70.257812 19.828125 69.96875 19.828125 C 69.796875 19.828125 69.644531 19.8125 69.507812 19.773438 C 69.375 19.738281 69.207031 19.667969 69.003906 19.570312 Z M 69.003906 19.570312 "/>
<path style=" stroke:none;fill-rule:nonzero;fill:rgb(13.72549%,12.156863%,12.54902%);fill-opacity:1;" d="M 71.730469 17.339844 L 72.804688 16.277344 L 72.804688 16.878906 L 73.71875 16.878906 L 73.71875 17.394531 L 72.804688 17.394531 L 72.804688 18.816406 C 72.804688 19.144531 72.941406 19.3125 73.214844 19.3125 C 73.421875 19.3125 73.636719 19.242188 73.867188 19.109375 L 73.867188 19.644531 C 73.648438 19.765625 73.40625 19.828125 73.148438 19.828125 C 72.886719 19.828125 72.667969 19.753906 72.492188 19.597656 C 72.4375 19.554688 72.394531 19.5 72.359375 19.441406 C 72.324219 19.386719 72.292969 19.308594 72.269531 19.214844 C 72.242188 19.125 72.230469 18.945312 72.230469 18.683594 L 72.230469 17.394531 L 71.730469 17.394531 Z M 71.730469 17.339844 "/>
<path style=" stroke:none;fill-rule:nonzero;fill:rgb(13.72549%,12.156863%,12.54902%);fill-opacity:1;" d="M 77.257812 18.378906 L 75.222656 18.378906 C 75.238281 18.65625 75.328125 18.878906 75.5 19.042969 C 75.671875 19.203125 75.890625 19.285156 76.164062 19.285156 C 76.539062 19.285156 76.886719 19.167969 77.207031 18.933594 L 77.207031 19.496094 C 77.03125 19.613281 76.855469 19.695312 76.683594 19.746094 C 76.507812 19.796875 76.308594 19.824219 76.074219 19.824219 C 75.757812 19.824219 75.5 19.757812 75.300781 19.625 C 75.105469 19.492188 74.945312 19.3125 74.828125 19.089844 C 74.710938 18.867188 74.652344 18.605469 74.652344 18.3125 C 74.652344 17.871094 74.777344 17.511719 75.023438 17.234375 C 75.273438 16.960938 75.597656 16.820312 75.996094 16.820312 C 76.378906 16.820312 76.683594 16.957031 76.914062 17.222656 C 77.140625 17.492188 77.257812 17.855469 77.257812 18.304688 Z M 75.234375 18.035156 L 76.691406 18.035156 C 76.675781 17.804688 76.609375 17.628906 76.488281 17.503906 C 76.363281 17.382812 76.203125 17.320312 75.996094 17.320312 C 75.792969 17.320312 75.621094 17.382812 75.492188 17.503906 C 75.359375 17.628906 75.277344 17.804688 75.234375 18.035156 Z M 75.234375 18.035156 "/>
<path style=" stroke:none;fill-rule:nonzero;fill:rgb(13.72549%,12.156863%,12.54902%);fill-opacity:1;" d="M 79.003906 16.878906 L 79.003906 17.542969 L 79.035156 17.492188 C 79.3125 17.046875 79.585938 16.820312 79.863281 16.820312 C 80.078125 16.820312 80.304688 16.929688 80.539062 17.148438 L 80.238281 17.652344 C 80.039062 17.464844 79.855469 17.371094 79.683594 17.371094 C 79.5 17.371094 79.339844 17.457031 79.207031 17.632812 C 79.070312 17.8125 79.003906 18.019531 79.003906 18.261719 L 79.003906 19.777344 L 78.425781 19.777344 L 78.425781 16.878906 Z M 79.003906 16.878906 "/>
<path style=" stroke:none;fill-rule:nonzero;fill:rgb(13.72549%,12.156863%,12.54902%);fill-opacity:1;" d="M 81.4375 15.375 L 82.007812 15.375 L 82.007812 17.085938 C 82.253906 16.90625 82.519531 16.816406 82.800781 16.816406 C 83.167969 16.816406 83.464844 16.953125 83.699219 17.230469 C 83.929688 17.507812 84.046875 17.863281 84.046875 18.300781 C 84.046875 18.765625 83.910156 19.140625 83.628906 19.414062 C 83.351562 19.691406 82.980469 19.828125 82.515625 19.828125 C 82.332031 19.828125 82.132812 19.808594 81.925781 19.769531 C 81.722656 19.730469 81.558594 19.679688 81.4375 19.617188 Z M 82.007812 17.636719 L 82.007812 19.207031 C 82.203125 19.265625 82.402344 19.292969 82.609375 19.292969 C 82.863281 19.292969 83.070312 19.203125 83.226562 19.023438 C 83.390625 18.839844 83.46875 18.609375 83.46875 18.324219 C 83.46875 18.039062 83.394531 17.804688 83.246094 17.621094 C 83.09375 17.441406 82.898438 17.351562 82.660156 17.351562 C 82.445312 17.351562 82.226562 17.445312 82.007812 17.636719 Z M 82.007812 17.636719 "/>
<path style=" stroke:none;fill-rule:nonzero;fill:rgb(13.72549%,12.156863%,12.54902%);fill-opacity:1;" d="M 86.554688 16.871094 C 86.996094 16.871094 87.363281 17.015625 87.652344 17.296875 C 87.945312 17.585938 88.089844 17.941406 88.089844 18.371094 C 88.089844 18.789062 87.941406 19.140625 87.648438 19.414062 C 87.351562 19.691406 86.980469 19.828125 86.53125 19.828125 C 86.097656 19.828125 85.734375 19.6875 85.445312 19.410156 C 85.152344 19.128906 85.007812 18.777344 85.007812 18.355469 C 85.007812 17.933594 85.152344 17.578125 85.449219 17.296875 C 85.742188 17.011719 86.113281 16.871094 86.554688 16.871094 Z M 86.523438 17.390625 C 86.25 17.390625 86.027344 17.480469 85.847656 17.660156 C 85.671875 17.839844 85.585938 18.070312 85.585938 18.351562 C 85.585938 18.628906 85.675781 18.855469 85.855469 19.03125 C 86.035156 19.207031 86.265625 19.292969 86.550781 19.292969 C 86.832031 19.292969 87.058594 19.207031 87.242188 19.027344 C 87.417969 18.851562 87.507812 18.621094 87.507812 18.34375 C 87.507812 18.070312 87.414062 17.839844 87.230469 17.660156 C 87.042969 17.480469 86.808594 17.390625 86.523438 17.390625 Z M 86.523438 17.390625 "/>
<path style=" stroke:none;fill-rule:nonzero;fill:rgb(13.72549%,12.156863%,12.54902%);fill-opacity:1;" d="M 88.796875 17.339844 L 89.871094 16.277344 L 89.871094 16.878906 L 90.785156 16.878906 L 90.785156 17.394531 L 89.871094 17.394531 L 89.871094 18.816406 C 89.871094 19.144531 90.007812 19.3125 90.285156 19.3125 C 90.488281 19.3125 90.707031 19.242188 90.933594 19.109375 L 90.933594 19.644531 C 90.714844 19.765625 90.472656 19.828125 90.214844 19.828125 C 89.953125 19.828125 89.734375 19.753906 89.5625 19.597656 C 89.507812 19.554688 89.460938 19.5 89.425781 19.441406 C 89.390625 19.386719 89.359375 19.308594 89.335938 19.214844 C 89.3125 19.125 89.300781 18.945312 89.300781 18.683594 L 89.300781 17.394531 L 88.796875 17.394531 Z M 88.796875 17.339844 "/>
<path style=" stroke:none;fill-rule:nonzero;fill:rgb(13.72549%,12.156863%,12.54902%);fill-opacity:1;" d="M 91.5625 17.339844 L 92.636719 16.277344 L 92.636719 16.878906 L 93.554688 16.878906 L 93.554688 17.394531 L 92.636719 17.394531 L 92.636719 18.816406 C 92.636719 19.144531 92.777344 19.3125 93.050781 19.3125 C 93.253906 19.3125 93.472656 19.242188 93.699219 19.109375 L 93.699219 19.644531 C 93.480469 19.765625 93.242188 19.828125 92.980469 19.828125 C 92.71875 19.828125 92.5 19.753906 92.328125 19.597656 C 92.273438 19.554688 92.226562 19.5 92.191406 19.441406 C 92.15625 19.386719 92.125 19.308594 92.101562 19.214844 C 92.078125 19.125 92.066406 18.945312 92.066406 18.683594 L 92.066406 17.394531 L 91.5625 17.394531 Z M 91.5625 17.339844 "/>
<path style=" stroke:none;fill-rule:nonzero;fill:rgb(13.72549%,12.156863%,12.54902%);fill-opacity:1;" d="M 97.085938 18.378906 L 95.054688 18.378906 C 95.070312 18.65625 95.160156 18.878906 95.332031 19.042969 C 95.503906 19.203125 95.722656 19.285156 95.992188 19.285156 C 96.371094 19.285156 96.71875 19.167969 97.035156 18.933594 L 97.035156 19.496094 C 96.859375 19.613281 96.6875 19.695312 96.515625 19.746094 C 96.339844 19.796875 96.136719 19.824219 95.90625 19.824219 C 95.585938 19.824219 95.328125 19.757812 95.132812 19.625 C 94.9375 19.492188 94.777344 19.3125 94.660156 19.089844 C 94.539062 18.867188 94.480469 18.605469 94.480469 18.3125 C 94.480469 17.871094 94.605469 17.511719 94.855469 17.234375 C 95.105469 16.960938 95.429688 16.820312 95.828125 16.820312 C 96.210938 16.820312 96.515625 16.957031 96.746094 17.222656 C 96.972656 17.492188 97.085938 17.855469 97.085938 18.304688 Z M 95.066406 18.035156 L 96.523438 18.035156 C 96.507812 17.804688 96.4375 17.628906 96.316406 17.503906 C 96.195312 17.382812 96.03125 17.320312 95.828125 17.320312 C 95.621094 17.320312 95.453125 17.382812 95.324219 17.503906 C 95.191406 17.628906 95.105469 17.804688 95.066406 18.035156 Z M 95.066406 18.035156 "/>
<path style=" stroke:none;fill-rule:nonzero;fill:rgb(13.72549%,12.156863%,12.54902%);fill-opacity:1;" d="M 98.808594 16.878906 L 98.808594 17.246094 C 99.0625 16.964844 99.355469 16.820312 99.679688 16.820312 C 99.859375 16.820312 100.027344 16.867188 100.183594 16.960938 C 100.335938 17.054688 100.453125 17.183594 100.535156 17.347656 C 100.617188 17.511719 100.65625 17.765625 100.65625 18.121094 L 100.65625 19.777344 L 100.085938 19.777344 L 100.085938 18.125 C 100.085938 17.832031 100.039062 17.617188 99.949219 17.492188 C 99.859375 17.363281 99.707031 17.300781 99.496094 17.300781 C 99.226562 17.300781 98.996094 17.4375 98.808594 17.707031 L 98.808594 19.777344 L 98.222656 19.777344 L 98.222656 16.878906 Z M 98.808594 16.878906 "/>
</g>
</svg>
