<?xml version="1.0" encoding="UTF-8"?>
<svg id="Lager_1" data-name="Lager 1" xmlns="http://www.w3.org/2000/svg" width="10mm" height="6mm" viewBox="0 0 28.3465 17.0079">
  <defs>
    <style>
      .cls-1 {
        fill: #da3832;
      }

      .cls-1, .cls-2 {
        stroke-width: 0px;
      }

      .cls-2 {
        fill: #fff;
      }
    </style>
  </defs>
  <rect class="cls-1" width="28.3465" height="17.0079" rx=".8504" ry=".8504"/>
  <g>
    <path class="cls-2" d="M2.8936,12.8379v-7.8735h2.7124c.6123,0,1.0796.0376,1.4019.1128.4512.104.8359.292,1.1548.564.4155.3511.7261.7993.9321,1.3457.2056.5459.3086,1.1699.3086,1.8716,0,.5981-.0698,1.1279-.2095,1.5898s-.3188.8438-.5371,1.1465-.4575.541-.7173.7139c-.2593.1738-.5728.3057-.9395.3955-.3672.0889-.7891.1338-1.2651.1338h-2.8413ZM3.9355,11.9092h1.6812c.519,0,.9263-.0488,1.2222-.1455.2949-.0967.5308-.2324.7061-.4082.2471-.2471.4395-.5791.5771-.9961.1382-.417.207-.9229.207-1.5171,0-.8237-.1353-1.4565-.4053-1.8984-.2705-.4424-.5991-.7388-.9858-.8892-.2793-.1074-.7285-.1611-1.3481-.1611h-1.6543v6.0156Z"/>
    <path class="cls-2" d="M11.6519,12.8379v-7.8735h1.0688l4.1357,6.1821v-6.1821h.999v7.8735h-1.0684l-4.1362-6.187v6.187h-.999Z"/>
    <path class="cls-2" d="M20.4854,12.8379v-7.8735h5.3115v.9292h-4.2695v2.4385h3.6953v.9292h-3.6953v3.5767h-1.042Z"/>
  </g>
</svg>