<?xml version="1.0" encoding="UTF-8"?>
<svg id="Lager_1" data-name="Lager 1" xmlns="http://www.w3.org/2000/svg" width="10mm" height="6mm" viewBox="0 0 28.3465 17.0079">
  <defs>
    <style>
      .cls-1 {
        fill: #333;
      }

      .cls-1, .cls-2 {
        stroke-width: 0px;
      }

      .cls-2 {
        fill: #fff;
      }
    </style>
  </defs>
  <rect class="cls-1" x="0" y="0" width="28.3465" height="17.0079" rx=".8504" ry=".8504"/>
  <g>
    <path class="cls-2" d="M2.584,12.8386v-7.874h2.7124c.6123,0,1.0796.0376,1.4019.1128.4512.104.8359.292,1.1548.564.4155.3511.7261.7993.9321,1.3457.2056.5459.3086,1.1699.3086,1.8716,0,.5981-.0698,1.1279-.2095,1.5898s-.3188.8442-.5371,1.147c-.2183.3022-.4575.5405-.7173.7139-.2593.1738-.5728.3057-.9395.395-.3672.0894-.7891.1343-1.2651.1343h-2.8413ZM3.626,11.9094h1.6812c.519,0,.9263-.0483,1.2222-.145.2949-.0967.5308-.2329.7061-.4082.2471-.2471.4395-.5791.5771-.9961.1382-.4175.207-.9233.207-1.5176,0-.8237-.1353-1.4565-.4053-1.8984-.2705-.4424-.5991-.7388-.9858-.8892-.2793-.1074-.7285-.1611-1.3481-.1611h-1.6543v6.0156Z"/>
    <path class="cls-2" d="M11.3423,12.8386v-7.874h1.0688l4.1357,6.1821v-6.1821h.999v7.874h-1.0688l-4.1357-6.1875v6.1875h-.999Z"/>
    <path class="cls-2" d="M19.7671,10.3088l.9829-.0859c.0464.394.1548.7173.3247.9692.1704.2529.4346.457.7925.6123.3579.1562.7607.2339,1.2085.2339.3975,0,.7485-.0591,1.0527-.1772s.5308-.2803.6797-.4863c.1484-.2056.2227-.4302.2227-.6738,0-.2471-.0718-.4629-.2148-.6475-.1431-.1841-.3794-.3389-.709-.4644-.2114-.0825-.6787-.2104-1.4019-.3843-.7231-.1733-1.23-.3374-1.52-.4912-.376-.1968-.6562-.4414-.8408-.7334-.1841-.2915-.2764-.6182-.2764-.98,0-.3975.1128-.769.3384-1.1147.2256-.3452.5552-.6074.9883-.7866s.915-.2686,1.4448-.2686c.5835,0,1.0986.0942,1.5439.2817.4463.1885.7891.4648,1.0288.8301s.3687.7788.3867,1.2407l-.999.0752c-.0537-.4976-.2354-.8735-.5454-1.1279-.3096-.2544-.7671-.3813-1.3721-.3813-.6304,0-1.0894.1152-1.3779.3467-.2881.2305-.4321.5093-.4321.835,0,.2827.1021.5156.3062.6982.2007.1826.7241.3696,1.5713.5615.8467.1914,1.4277.3589,1.7427.502.4585.2114.7969.479,1.0151.8027.2183.3242.3276.6978.3276,1.1201,0,.4189-.1201.8135-.3599,1.1846-.2397.3701-.5845.6587-1.0342.8643-.4492.2061-.9551.3091-1.5171.3091-.7124,0-1.3096-.104-1.7915-.3115-.4814-.2075-.8594-.52-1.1328-.937-.2744-.4175-.4185-.8892-.4326-1.4155Z"/>
  </g>
</svg>