<?xml version="1.0" encoding="UTF-8"?>
<svg id="a" xmlns="http://www.w3.org/2000/svg" width="30mm" height="30mm" viewBox="0 0 85.0394 85.0394">
  <defs>
    <style>
      .cls-1, .cls-2, .cls-3, .cls-4, .cls-5, .cls-6, .cls-7 {
        stroke-width: 0px;
      }

      .cls-1, .cls-4 {
        fill: #f3ea4d;
      }

      .cls-1, .cls-5, .cls-8 {
        opacity: .6;
      }

      .cls-2 {
        fill: none;
      }

      .cls-3 {
        fill: #0081b9;
      }

      .cls-4 {
        opacity: .3;
      }

      .cls-5 {
        fill: #000;
      }

      .cls-6 {
        fill: #f4cb4f;
      }

      .cls-7 {
        fill: #e02c19;
      }
    </style>
  </defs>
  <path class="cls-4" d="M38.9697,13.0846c0,4.5598-3.0439,8.4172-7.2048,9.6599l-11.2283,34.2161-.1113.4467-.0633.4269-.02.4083.0111.2922.0386.3246.0624.3017.1149.3691.1005.2318.0438.1008.059.1071.0725.1315.1641.246.1803.2244.261.2656.2817.2303.2403.1609.2604.1447.2739.1246.3857.1341.2934.0743,28.4096,5.3656.3239.0427.3331.0246.1695.0043.4087-.0165.4859-.0646.4923-.1133.3967-.1287.4547-.192.4456-.2395.3542-.2322.4082-.3221.3612-.3452.1466-.1661.1294-.1466.2589-.3448.2678-.4307.2228-.447.182-.4725.0298-.0919,15.3412-52.9835.0456-.3171h0l.0027-.0981-.022-.2816-.076-.2966-.1396-.2993-.1682-.2392-.218-.2226-.2906-.2104-.3079-.1536-.3377-.1088-.2529-.0487-30.2038-4.46-.5347-.0375-.4624.0357-.4107.0926-.4413.1668-.3806.2078-.157.1059-.2362.2004-.1646.1398-.3133.3677-.2268.3723-.1241.2881-.4633,1.4119c1.2777,1.6899,2.0452,3.7859,2.0452,6.0629Z"/>
  <path class="cls-5" d="M54.233,43.6953l-.0021-.0307-.0029-.0308-.0039-.0308-.0048-.0309-.0057-.0309-.0066-.0309-.0075-.031-.0085-.031-.0094-.0311-.0103-.0311-.0113-.0311-.0122-.0311-.0132-.0311-.0141-.0311-.0151-.0311-.016-.0311-.017-.0311-.018-.031-.6261-1.0353-.6363-1.0257-.6439-1.0175-.6639-1.0336-.0159-.0223-.0165-.022-.0173-.0216-.0179-.0211-.0185-.0207-.0192-.0202-.0198-.0198-.0204-.0193-.021-.0188-.0216-.0183-.0222-.0179-.0227-.0173-.0233-.0168-.0238-.0163-.0243-.0157-.0248-.0152-.0253-.0146-.0258-.014-.0263-.0134-.0267-.0129-.0272-.0123-.0276-.0117-.028-.011-.0284-.0104-.0288-.0097-.0292-.0091-.0295-.0084-.0299-.0078-.0302-.0071-.0306-.0064-.0309-.0057-.0311-.005-.0315-.0042-.0317-.0035-.032-.0028-.0323-.002-.0325-.0012-.0327-.0005-.0329.0003-.0331.0012-.0333.0019-.0334.0027-.0336.0036-.0337.0044-.0339.0053-.034.0061-.0341.007-.0342.0079-.0342.0088-.0343.0097-.0344.0106-.0344.0115-.0345.0124-.0345.0134-.0345.0143-.0345.0153-.0345.0162-.0344.0173-.0343.0182-.0343.0193-.0342.0202-.0341.0213-.034.0223c-1.0004.6313-2.5253,1.5877-2.7348,1.7111-.1256.0761-.2228.0627-.2996-.0032-.1065-.0914-.3442-.318-.3442-.318l-.4512-.4362-.438-.4436-.4245-.4512-.4109-.459-.397-.467-.3828-.4752-.3685-.4836-.354-.4922-.3392-.501-.3243-.51-.3091-.5191-.2938-.5286-.2782-.5381-.2624-.5479-.2464-.5578-.1567-.3843-.1476-.3881-.2764-.7836-.2655-.7871-.271-.7831c-.0056-.0124-.0094-.0255-.0142-.0383-.0644-.1707.0541-.2981.2107-.3894l2.6544-1.61.0323-.0202.0317-.0205.031-.0209.0303-.0213.0297-.0216.0291-.022.0284-.0223.0277-.0227.027-.023.0264-.0233.0256-.0237.025-.024.0243-.0243.0236-.0245.0229-.0248.0222-.0251.0214-.0254.0208-.0256.02-.0259.0194-.0261.0186-.0263.0179-.0265.0171-.0268.0163-.0269.0157-.0272.0149-.0274.0141-.0276.0134-.0277.0126-.0279.0118-.028.0111-.0282.0103-.0283.0096-.0285.0087-.0286.0079-.0287.0072-.0288.0064-.0289.0056-.029.0048-.0291.0039-.0291.0032-.0292.0024-.0292.0015-.0293.0007-.0294v-.0294l-.0011-.0294-.0018-.0294-.0026-.0294-.0035-.0294-.0044-.0294-.0052-.0294-.0061-.0294-.0069-.0293-.0078-.0293-.0087-.0292-.0096-.0292-.0104-.0291-.0113-.029-.0122-.0289-.0131-.0288-.014-.0288-.0149-.0286-.0158-.0285-.6118-1.0048-.6003-.97-.6056-.9635-.6248-.9781-.0142-.0208-.0144-.0203-.0148-.0199-.015-.0194-.0153-.019-.0155-.0185-.0158-.0181-.016-.0177-.0163-.0172-.0165-.0168-.0168-.0163-.017-.0159-.0173-.0154-.0174-.015-.0177-.0146-.0179-.0142-.0182-.0137-.0183-.0133-.0186-.0128-.0188-.0124-.019-.0119-.0192-.0115-.0194-.0111-.0196-.0107-.0198-.0102-.02-.0098-.0202-.0093-.0203-.0089-.0205-.0084-.0207-.008-.0209-.0076-.021-.0071-.0212-.0067-.0213-.0062-.0215-.0058-.0217-.0053-.0218-.0049-.0219-.0045-.0222-.0041-.0222-.0036-.0224-.0031-.0225-.0027-.0226-.0023-.0228-.0019-.0228-.0014-.023-.001-.0231-.0005h-.0232l-.0233.0002-.0234.0008-.0236.0012-.0236.0017-.0237.0021-.0238.0025-.0239.003-.048.0073-.0483.009-.0486.0108-.0489.0125-.029.0083-.0291.0089-.0291.0095-.0292.0101-.0292.0107-.0293.0113-.0294.012-.0294.0126-.0589.0271-.0589.0295-.0589.032-4.7652,2.9074-.0945.0606-.0915.0632-.0883.0656-.0851.0679-.082.0701-.0398.0359-.0389.0364-.0381.0369-.0373.0374-.0365.0379-.0357.0384-.0348.0389-.034.0393-.0331.0398-.0323.0402-.0314.0406-.0306.0411-.0296.0414-.0288.0418-.0279.0422-.027.0426-.0261.0429-.0252.0432-.0243.0436-.0234.0439-.0225.0442-.0216.0445-.0206.0448-.0197.0451-.0188.0454-.0179.0456-.017.0458-.016.046-.015.0463-.0141.0464-.0131.0467-.0121.0468-.0112.047-.0102.0472-.0093.0473-.0082.0474-.0073.0476-.0063.0477-.0052.0478-.0042.0479-.0033.048-.0022.048-.0012.0481-.0002.0481.0008.0481.0019.0481.0029.0482.004.0481.005.0481.0061.0481.0071.0481.0082.048.0093.048.0104.0479.1726.715.1905.7092.2078.7036.2248.6981.2412.6927.2572.6876.2729.6826.2881.6777.2682.5997.2777.5949.2873.5902.2969.5855.3065.5807.3161.5759.3258.5711.3355.5663.3452.5615.3549.5566.3647.5517.3745.5468.3842.5419.394.5369.4038.532.4137.5269.6064.7409.3105.3649.3155.3609.3209.3568.3263.3525.3319.348.3376.3433.3436.3385.3499.3335.3561.3283.3627.3229.3693.3174.3762.3117.3832.3057.3905.2997.1052.0769.1048.072.1043.067.104.0621.0519.0292.0518.028.0518.0267.0518.0255.0518.0243.0517.023.0517.0218.0517.0206.0517.0193.0518.0181.0518.0168.0518.0156.0519.0144.052.0131.052.0119.0521.0107.0522.0094.0523.0082.0524.007.0525.0058.0526.0045.0527.0033.0529.0021.0531.0009.0532-.0004.0534-.0016.0536-.0028.0538-.0041.054-.0053.0542-.0065.0544-.0078.0547-.009.0549-.0102.0552-.0114.0554-.0127.0557-.0139.056-.0151.0563-.0163.0566-.0176.0569-.0188.1147-.0413.116-.0462.1174-.0511.1189-.056.1206-.0609.1222-.0658.1239-.0706,4.1288-2.5443.0688-.044.066-.0452.0632-.0464.0305-.0237.0297-.0239.0291-.0242.0283-.0245.0276-.0248.0268-.025.026-.0253.0253-.0255.0246-.0257.0238-.026.023-.0262.0223-.0265.0214-.0266.0207-.0269.0199-.0271.0191-.0273.0183-.0275.0176-.0277.0167-.0279.0159-.0281.0151-.0283.0143-.0284.0134-.0286.0127-.0288.0118-.0289.011-.0291.0101-.0292.0093-.0294.0085-.0295.0076-.0296.0067-.0297.0059-.0299.005-.03.0042-.0301.0033-.0302.0024-.0303.0016-.0304.0006-.0305-.0002-.0305-.0012-.0306.0005.0003v.0006Z"/>
  <path class="cls-5" d="M57.1719,19.6127c-1.4608-.8021-3.0901-1.343-4.7375-1.5932-.1643-.0219-.3341-.0041-.4908.0494-.4448.1401-.7873.6245-.6617,1.0928.0432.1611.1489.3031.2868.396.2013.1441.6651.2016.901.2451,4.337.7932,7.9986,4.0772,8.9637,8.4213.3236,1.4744.3278,3.0312.0346,4.511-.0147.1658-.3807,1.5322-.3205,1.6705.0233.2842.1946.5516.4475.6853.4878.2758,1.1396-.0358,1.3149-.5476,1.9546-5.7135-.4443-12.0063-5.738-14.9307h0Z"/>
  <path class="cls-5" d="M51.5027,21.9652h-.0007c-.6037-.1204-1.0752-.0076-1.3555.5028-.147.2851-.1453.6662.1.8969.1222.1216.2828.1987.4477.2438.6463.119,1.3283.3005,1.9323.5611,1.4702.5971,2.8053,1.609,3.6162,2.9894.7913,1.3635,1.1964,2.9953,1.0674,4.5705-.0352.3645-.1034.7556-.1871,1.1122-.1151.474-.4006,1.1186.0959,1.4743.4316.3077,1.1039.1984,1.4085-.2383,2.0209-5.5463-1.3797-11.0566-7.1245-12.1127h-.0002Z"/>
  <path class="cls-5" d="M50.7802,25.9976c-.5689-.1632-1.2822-.3169-1.7173.2016-.3111.3637-.3468.9738.1181,1.2263.0791.0469.1669.0832.2547.1099,1.6082.23,2.9717,1.3226,3.4135,2.906.5293,1.37-.72,2.9823.4658,3.3083.3498.1083.7536.0203,1.0003-.2575.3402-.3731.4084-.9105.4941-1.3891.2455-1.6226-.2828-3.3398-1.414-4.5314-.7027-.7526-1.6248-1.298-2.6153-1.5741h0Z"/>
  <path class="cls-5" d="M14.9208,78.4339H6.8922c0,.5783.2168,1.3498.6749,1.8079.2413.2413.7234.5307,1.5911.5307.0966,0,.7715-.024,1.2536-.2894.2413-.1447.5067-.386.6754-.7234h3.6888c-.1687.6028-.5067,1.4469-1.3022,2.2184s-2.0492,1.4945-4.3878,1.4945c-1.4224,0-3.1341-.3134-4.4604-1.6392-.6994-.6994-1.5911-2.0252-1.5911-4.0749,0-1.8079.6749-3.2548,1.6151-4.171.8922-.8677,2.2906-1.5671,4.4123-1.5671,1.2536,0,2.8688.2653,4.147,1.471,1.5185,1.4464,1.7118,3.3269,1.7118,4.5325v.4101h.0001ZM11.3766,76.2155c-.0966-.4095-.3379-.8677-.6268-1.1571-.5067-.5062-1.2056-.5788-1.5916-.5788-.6509,0-1.1571.1687-1.5671.5788-.2653.2894-.5062.6749-.5788,1.1571h4.3643Z"/>
  <path class="cls-5" d="M16.641,83.1111v-16.0813h6.2202c1.1575,0,2.5319.1687,3.5201,1.2536.5547.6028.9883,1.5911.9883,3.0135,0,.6994-.1201,1.3022-.4581,1.9771-.3375.6268-.6989.9888-1.3017,1.2536.8441.0966,1.6877.4821,2.1939.9648.6509.6268,1.0849,1.6632,1.0849,2.9414,0,1.519-.5783,2.5554-1.1811,3.1582-.8682.8922-2.3871,1.519-4.3643,1.519h-6.7023.0001ZM20.812,73.3708h.7715c.434,0,1.1571-.0481,1.5911-.5062.2653-.2653.386-.6994.386-1.0609,0-.4101-.1447-.8201-.386-1.0849-.2649-.2653-.7715-.4821-1.5911-.4821h-.7715v3.1341h0ZM20.812,79.8563h.9403c1.1575,0,2.1218-.1207,2.5799-.6509.1927-.2173.3375-.5788.3375-1.0369,0-.5062-.1687-.9162-.4101-1.1575-.5062-.5062-1.543-.5302-2.5794-.5302h-.8682v3.3755h0Z"/>
  <path class="cls-5" d="M29.4613,72.3339h3.8576v1.7603c.3855-.7234.9403-1.2056,1.5185-1.495.5788-.3134,1.2782-.434,2.0012-.434.0966,0,.2653.024.7715.0481v3.6408c-.1927-.0966-.7229-.386-1.6632-.386-.5067,0-1.2056.0726-1.7603.5788-.8196.7475-.8677,1.8805-.8677,2.4593v4.6051h-3.8576v-10.7772h0v-.0002Z"/>
  <path class="cls-5" d="M49.4619,78.4339h-8.0286c0,.5783.2168,1.3498.6749,1.8079.2413.2413.7234.5307,1.5911.5307.0966,0,.7715-.024,1.2536-.2894.2413-.1447.5067-.386.6754-.7234h3.6888c-.1687.6028-.5067,1.4469-1.3022,2.2184s-2.0492,1.4945-4.3878,1.4945c-1.4224,0-3.1341-.3134-4.4604-1.6392-.6994-.6994-1.5911-2.0252-1.5911-4.0749,0-1.8079.6749-3.2548,1.6151-4.171.8922-.8677,2.2906-1.5671,4.4123-1.5671,1.2536,0,2.8688.2653,4.147,1.471,1.5185,1.4464,1.7118,3.3269,1.7118,4.5325v.4101h0ZM45.9178,76.2155c-.0966-.4095-.3375-.8677-.6268-1.1571-.5067-.5062-1.2056-.5788-1.5916-.5788-.6509,0-1.1571.1687-1.5671.5788-.2653.2894-.5062.6749-.5788,1.1571h4.3643Z"/>
  <path class="cls-5" d="M72.1985,78.4339h-8.0286c0,.5783.2168,1.3498.6749,1.8079.2413.2413.7234.5307,1.5911.5307.0966,0,.7715-.024,1.2536-.2894.2413-.1447.5067-.386.6754-.7234h3.6888c-.1687.6028-.5067,1.4469-1.3022,2.2184s-2.0492,1.4945-4.3878,1.4945c-1.4224,0-3.1341-.3134-4.4604-1.6392-.6994-.6994-1.5911-2.0252-1.5911-4.0749,0-1.8079.6749-3.2548,1.6151-4.171.8922-.8677,2.2906-1.5671,4.4123-1.5671,1.2536,0,2.8688.2653,4.147,1.471,1.5185,1.4464,1.7118,3.3269,1.7118,4.5325v.4101h0ZM68.6543,76.2155c-.0966-.4095-.3379-.8677-.6268-1.1571-.5067-.5062-1.2056-.5788-1.5916-.5788-.6509,0-1.1571.1687-1.5671.5788-.2653.2894-.5062.6749-.5788,1.1571h4.3643Z"/>
  <path class="cls-5" d="M77.9103,75.4925v7.6186h-3.8576v-7.6186h-2.0879l1.0299-3.1586h1.058v-3.5442h3.8576v3.5442h3.9104l-1.0299,3.1586h-2.8805Z"/>
  <polygon class="cls-5" points="54.846 77.8552 52.2661 72.3338 47.9503 72.3338 53.5197 83.1111 55.9761 83.1111 61.8238 72.3338 57.7629 72.3338 54.846 77.8552"/>
  <g class="cls-8">
    <path class="cls-3" d="M30.8492,4.5165v6.6042h6.6042c-.7507-3.2744-3.3297-5.8535-6.6042-6.6042Z"/>
    <path class="cls-3" d="M26.9214,21.6526v-6.6041h-6.604c.7506,3.2745,3.3297,5.8534,6.604,6.6041Z"/>
    <path class="cls-3" d="M20.3174,11.1207h6.604v-6.6042c-3.2744.7506-5.8534,3.3297-6.604,6.6042Z"/>
    <path class="cls-3" d="M37.4535,15.0485h-6.6042v6.604c3.2744-.7507,5.8535-3.3297,6.6042-6.604Z"/>
    <path class="cls-6" d="M30.8493,15.0485h6.6042c.145-.6325.2289-1.288.2289-1.9638s-.0839-1.3314-.2289-1.964h-6.6042v-6.6042c-.6326-.145-1.2881-.2289-1.9639-.2289s-1.3314.0838-1.9639.2288v6.6042h-6.604c-.145.6326-.2288,1.2881-.2288,1.964s.0838,1.3313.2288,1.9638h6.6041v6.6041c.6325.145,1.288.2288,1.9639.2288s1.3314-.0838,1.9639-.2288v-6.6041h0Z"/>
  </g>
  <polygon class="cls-2" points="72.8078 10.4063 57.4666 63.3898 72.8079 10.4063 72.8534 10.0892 72.8534 10.0892 72.8078 10.4063"/>
  <polygon class="cls-2" points="71.2962 8.179 71.0433 8.1302 40.8395 3.6703 71.0433 8.1303 71.2962 8.179"/>
  <polygon class="cls-2" points="72.6185 9.1136 72.4505 8.8744 72.2324 8.6518 72.4504 8.8744 72.6185 9.1136"/>
  <polygon class="cls-2" points="57.2548 63.9542 57.032 64.4012 56.7642 64.8319 57.0321 64.4012 57.2549 63.9541 57.4369 63.4817 57.4666 63.3898 57.4368 63.4817 57.2548 63.9542"/>
  <polygon class="cls-2" points="20.6696 59.7619 20.7133 59.8626 20.7724 59.9698 20.7134 59.8627 20.6696 59.7619"/>
  <path class="cls-2" d="M33.6882,7.9998s.0004-.0014.0004-.0014l.6035-1.828c-.9987-.7826-2.1649-1.3608-3.4429-1.6538-.6325-.145-1.288-.2289-1.9639-.2289s-1.3314.0838-1.9639.2288c-3.2744.7506-5.8534,3.3296-6.604,6.6042-.145.6326-.2288,1.2881-.2288,1.964s.0838,1.3313.2288,1.9638c.7506,3.2746,3.3296,5.8534,6.604,6.6041.6325.1449,1.288.2288,1.9639.2288.0859,0,.1686-.0126.2538-.0153l4.5486-13.8652s.0003-.0007.0004-.0011Z"/>
  <rect class="cls-2" x="34.3463" y="8.2496" width="0" height="13.2571"/>
  <polygon class="cls-2" points="20.4254 57.4073 20.5367 56.9606 31.765 22.7444 31.765 22.7444 20.5367 56.9603 20.4254 57.4071 20.3621 57.834 20.3421 58.2423 20.3421 58.2425 20.3621 57.8342 20.4254 57.4073"/>
  <polygon class="cls-2" points="56.3759 65.3233 56.5053 65.1768 56.7642 64.8319 56.5053 65.1767 56.3759 65.3233"/>
  <polygon class="cls-2" points="39.8424 3.6685 39.4317 3.761 38.9904 3.9279 39.4317 3.7611 39.8424 3.6685"/>
  <polygon class="cls-2" points="37.3878 5.6098 36.9245 7.0217 36.9245 7.0217 37.3878 5.6098"/>
  <polygon class="cls-2" points="38.2166 4.442 38.0519 4.5818 37.7387 4.9494 38.052 4.5817 38.2166 4.442"/>
  <path class="cls-5" d="M75.6191,9.8901v-.001c-.0002-.012-.0005-.024-.0011-.036l-.0033-.0857c-.0005-.0122-.0011-.0243-.0019-.0366l-.0056-.0848c-.0008-.0133-.0019-.0266-.0032-.04l-.0079-.0838c-.0011-.0117-.0024-.0236-.0038-.0353l-.0099-.0828c-.0015-.012-.0031-.0241-.0048-.0362l-.012-.0817c-.0021-.0133-.0041-.0265-.0065-.0398l-.0166-.0939c-.0025-.0144-.0054-.0286-.0082-.0429l-.0193-.092c-.0031-.0138-.0061-.0276-.0094-.0412l-.0219-.0903c-.0032-.0128-.0064-.0255-.0098-.0381l-.0241-.0884c-.0038-.0137-.0078-.0274-.0119-.041l-.0265-.0866c-.0038-.0123-.0078-.0246-.0119-.0369l-.0286-.0847c-.0043-.0127-.0087-.0253-.0133-.0378l-.0306-.0828c-.0048-.0128-.0097-.0256-.0149-.0383l-.0327-.0808c-.0043-.0107-.0087-.0213-.0132-.0319l-.0343-.079c-.0056-.0128-.0114-.0255-.0172-.038l-.0362-.077c-.0052-.011-.0105-.0219-.016-.0328l-.0378-.0751c-.0054-.0109-.0111-.0217-.0168-.0325l-.0392-.0731c-.0057-.0107-.0116-.0213-.0176-.0319l-.0406-.0712c-.0059-.0103-.0119-.0205-.0181-.0307l-.0419-.0692c-.0061-.01-.0122-.0199-.0186-.0297l-.043-.0672c-.0057-.009-.0116-.0179-.0176-.0269l-.044-.0652c-.0074-.0111-.0151-.022-.023-.033l-.0541-.0754c-.0073-.0103-.0149-.0204-.0225-.0306l-.0557-.0733c-.0082-.0108-.0165-.0214-.0251-.032l-.0575-.0712c-.0081-.0099-.0162-.0199-.0246-.0296l-.059-.0691c-.0081-.0096-.0165-.0191-.0251-.0285l-.0605-.067c-.0089-.01-.0181-.0197-.0273-.0295l-.0621-.0649c-.0078-.0081-.0157-.0161-.0237-.024l-.0632-.0629c-.0094-.0093-.0187-.0184-.0283-.0274l-.0646-.0607c-.0087-.0081-.0174-.0161-.0263-.024l-.0657-.0587c-.009-.0082-.0184-.0163-.0278-.0242l-.0668-.0565c-.009-.0076-.0181-.0151-.0273-.0225l-.0679-.0545c-.0092-.0073-.0184-.0145-.0278-.0217l-.0688-.0524c-.009-.0069-.0182-.0136-.0274-.0203l-.0697-.0504c-.0094-.0068-.0189-.0136-.0286-.0202l-.0706-.0484c-.0089-.0061-.0178-.012-.0266-.0178l-.0711-.0463c-.0103-.0067-.0207-.0133-.0311-.0197l-.0721-.0443c-.009-.0056-.0182-.0111-.0274-.0165l-.0803-.0468c-.011-.0063-.022-.0126-.0332-.0187l-.0816-.0445c-.0102-.0056-.0205-.011-.0308-.0163l-.0825-.0424c-.0107-.0055-.0213-.0108-.032-.016l-.0835-.0402c-.0103-.0049-.0205-.0096-.0308-.0143l-.0844-.0381c-.011-.0049-.0219-.0097-.033-.0144l-.0854-.0359c-.0108-.0045-.0216-.0089-.0324-.0131l-.0863-.0338c-.0107-.0041-.0213-.0082-.0319-.012l-.0871-.0317c-.0107-.0039-.0214-.0076-.032-.0112l-.0879-.0295c-.0108-.0036-.0216-.0071-.0324-.0105l-.0887-.0274c-.0103-.0031-.0205-.0062-.0308-.0091l-.0894-.0253c-.011-.003-.0217-.0059-.0327-.0088l-.0902-.0233c-.0105-.0027-.0211-.0052-.0317-.0077l-.0906-.021c-.0107-.0025-.0214-.0049-.0322-.0071l-.0913-.0189c-.0103-.0021-.0205-.0041-.0308-.0059l-.0917-.0168c-.0105-.0019-.0208-.0038-.0312-.0054l-.0923-.0148c-.0039-.0005-.0078-.0007-.0117-.0013-.0038-.0005-.0073-.0016-.011-.0021-.0011-.0002-.0025-.0004-.004-.0005L41.9986,1.0451l-.7891-.1135c-.0156-.0023-.0312-.0043-.047-.0059l-.2007-.0219c-.013-.0015-.0262-.0027-.0394-.0038l-.2019-.0162c-.0119-.001-.0238-.0018-.0358-.0025l-.1012-.0054c-.0089-.0005-.0179-.0008-.027-.0012l-.1012-.0035c-.0102-.0003-.0202-.0005-.0303-.0007l-.1015-.0013c-.0105-.0002-.0213-.0002-.0312,0l-.1015.001c-.0098,0-.0197.0003-.0295.0006l-.0808.0025c-.0087.0002-.0176.0006-.0265.001l-.0814.0041c-.0087.0005-.0176.001-.0263.0016l-.0817.0057c-.0082.0006-.0165.0013-.0248.002l-.082.0072c-.0089.0008-.0178.0017-.0266.0026l-.0827.0089c-.0086.0009-.017.002-.0256.0029l-.0828.0105c-.0087.001-.0173.0022-.026.0035l-.0833.0121c-.0086.0013-.0171.0026-.0257.0041l-.0836.0138c-.0087.0013-.0173.0029-.0259.0044l-.0838.0155c-.0086.0017-.0171.0033-.0257.0051l-.0843.0172c-.0087.0018-.0176.0036-.0262.0056l-.0844.019c-.0082.0019-.0165.0038-.0246.0058l-.0846.0206c-.0094.0022-.0186.0046-.0278.0071l-.0848.0225c-.0081.0021-.0162.0044-.0241.0067l-.0851.0243c-.0087.0025-.0174.0051-.0262.0077l-.0851.0261c-.0089.0027-.0179.0056-.0268.0085l-.0851.028c-.0074.0025-.0151.0051-.0227.0077l-.076.0265c-.0078.0027-.0157.0056-.0235.0084l-.0764.0282c-.0076.0028-.0153.0057-.0228.0087l-.0767.0299c-.0076.003-.0154.0061-.023.0092l-.0768.0315c-.0073.0031-.0144.0061-.0216.0091l-.0771.0332c-.0081.0034-.0161.0069-.024.0105l-.0771.0349c-.0074.0034-.0149.0068-.0224.0103l-.0773.0366c-.0076.0036-.0153.0073-.0227.011l-.0773.0384c-.0078.0039-.0154.0078-.0232.0118l-.0773.0402c-.0074.0039-.0151.0079-.0225.012l-.0771.042c-.0076.0041-.0153.0084-.0227.0126l-.0771.0439c-.0078.0045-.0156.0089-.0232.0135l-.077.0458c-.0076.0045-.0151.0091-.0227.0138l-.0767.0475c-.0073.0046-.0144.0092-.0217.0139l-.0765.0495c-.0077.005-.0154.0101-.0229.0153l-.0762.0515c-.0076.0051-.0153.0103-.0227.0156l-.0757.0534c-.0102.0071-.0202.0144-.0302.0218l-.1281.0956c-.0094.0071-.0187.0143-.0281.0215l-.0638.0502c-.0067.0052-.0132.0105-.0199.0159l-.0633.0519c-.0064.0051-.0125.0102-.0187.0155l-.0633.0537-.0176.0153-.063.0552c-.0071.0063-.0141.0125-.0211.0189l-.0624.057c-.0057.0053-.0114.0105-.0171.0159l-.0621.0586c-.0067.0063-.0132.0126-.0197.019l-.0614.0604c-.0062.0061-.0124.0122-.0184.0184l-.0609.0621c-.0065.0067-.013.0135-.0195.0204l-.06.0638c-.0057.0061-.0114.0122-.017.0184l-.0593.0655c-.0067.0074-.0133.0148-.0199.0224l-.0584.0673c-.0057.0066-.0114.0132-.017.0199l-.0576.069c-.0062.0074-.0122.0149-.0182.0225l-.0567.0708c-.0062.0077-.0125.0154-.0182.0233l-.0555.0725c-.0056.0071-.0111.0144-.0163.0217l-.0478.065c-.0052.0069-.0102.0139-.0151.0209l-.0468.066c-.0052.0074-.0105.0148-.0156.0223l-.0454.067c-.0048.0073-.0097.0145-.0144.0219l-.0443.0681c-.0044.0069-.0089.0138-.0132.0207l-.0432.069c-.0052.0082-.0103.0165-.0153.0248l-.0417.07c-.0046.0079-.0092.0158-.0138.0237l-.0404.071c-.0048.0084-.0094.0168-.014.0253l-.0391.072c-.0041.0074-.0082.0151-.0122.0228l-.0378.0728c-.0041.0079-.0081.0159-.0121.024l-.0365.0739c-.0044.009-.0089.0182-.0132.0274l-.0349.0747c-.0043.0091-.0084.0183-.0124.0276l-.0333.0756c-.0035.0079-.007.0157-.0102.0237l-.032.0766c-.0043.01-.0082.02-.0122.03l-.0303.0774c-.0033.0085-.0065.017-.0097.0256l-.0289.0783c-.0056.0149-.0108.0299-.0157.045l-.0505.153c.8407.5992,1.5826,1.3243,2.2047,2.1472l.4633-1.4119.1241-.2881.2268-.3723.3132-.3676.1647-.1398.2362-.2004.157-.1059.3806-.2077.4413-.1669.4107-.0925.4624-.0357.5347.0375,30.2038,4.4599.2529.0488.3377.1088.3079.1536.2906.2104.2181.2226.168.2392.1396.2993.0761.2966.022.2816-.0028.0981h0s-.0455.3172-.0455.3172l-15.3413,52.9835-.0297.0919-.182.4724-.2228.4471-.2679.4307-.2589.3449-.1294.1465-.1465.1661-.3612.3452-.4082.3221-.3543.2322-.4456.2395-.4546.192-.3968.1287-.4923.1133-.4859.0646-.4087.0165-.1695-.0043-.3331-.0246-.3239-.0426-28.4095-5.3657-.2935-.0742-.3856-.1341-.2739-.1246-.2604-.1447-.2403-.161-.2816-.2302-.2612-.2657-.1802-.2244-.1641-.246-.0725-.1316-.0591-.1072-.0437-.1007-.1005-.2316-.115-.3692-.0623-.3016-.0386-.3246-.0111-.2923h0v-.0003l.02-.4083.0633-.4269.1113-.4468,11.2283-34.2159c-.9134.2728-1.8788.4243-2.8796.4243-.0576,0-.1133-.0077-.1707-.0087l-10.769,32.8262c-.0019.0061-.0038.0119-.0057.0179l-.0457.1455c-.0035.011-.0067.0219-.0098.0329l-.0416.1449c-.003.0102-.0057.0205-.0084.0308l-.0378.1441c-.0031.0111-.0057.0222-.0084.0335l-.0338.1435c-.0024.0103-.0048.0208-.007.0311l-.0302.1427c-.0024.0111-.0044.0222-.0065.0333l-.0263.1417c-.0022.0114-.0041.0228-.0061.0343l-.0225.1409c-.0018.0111-.0033.022-.0049.0332l-.0189.1398c-.0015.011-.0027.0219-.004.033l-.0154.139c-.0013.0116-.0024.0233-.0035.0349l-.0117.1379c-.0008.0108-.0016.0216-.0024.0325l-.0084.1368c-.0006.0114-.0013.023-.0016.0348l-.0049.1355c-.0005.0113-.0008.0225-.0008.0338l-.0016.1344c-.0002.012-.0002.0241,0,.036l.0019.1333c.0002.0113.0005.0224.0008.0334l.0051.1321c.0005.0113.0011.0227.0018.034l.0082.1306c.0008.0121.0018.0245.0028.0365l.0135.1501c.0013.0135.0025.027.0043.0405l.0176.1473c.0015.013.0031.0259.0051.0387l.0214.1444c.0021.0132.0041.0263.0065.0394l.0253.1417c.0022.0127.0046.0253.0071.0378l.0289.1388c.0025.013.0056.026.0085.0389l.0322.1358c.0028.0121.0061.0245.0092.0365l.0354.133c.0033.0125.0068.0249.0105.0373l.0386.1301c.0036.0124.0074.0248.0114.037l.0416.1271c.004.0122.0082.0243.0125.0362l.0444.1241c.004.0113.0081.0224.0124.0335l.047.1212c.0046.0117.0094.0235.0143.0352l.0494.1181c.0048.0113.0097.0225.0148.0337l.0519.1151c.0049.0111.0102.022.0154.033l.0541.112c.0049.0103.01.0204.0153.0306l.056.109c.0057.0111.0116.0222.0176.0332l.0581.1058c.0061.0111.0124.0222.0189.0333l.0719.1229c.0068.0116.0138.0232.021.0348l.0747.1195c.0073.0116.0148.023.0224.0345l.0774.116c.0074.0113.0153.0225.0232.0337l.0802.1127c.0079.0113.0161.0224.0245.0333l.0827.1092c.0082.011.0167.0217.0252.0324l.0852.1058c.0079.0098.016.0195.0243.0292l.0873.1025c.0086.0102.0173.0201.0262.03l.0895.0992c.009.01.0182.0199.0274.0295l.0916.0957c.0087.009.0174.0181.0263.0268l.0935.0925c.0094.0092.0187.0182.0283.0271l.0954.0892c.0089.0082.0178.0165.0268.0245l.0969.086c.0095.0084.0192.0168.0289.0249l.0986.0827c.0094.0078.0187.0156.0283.0232l.0998.0793c.0097.0076.0194.0151.0292.0225l.1012.0762c.01.0074.0202.0149.0303.0222l.1025.0728c.0099.007.0202.014.0303.0208l.1149.0771c.0103.007.0208.0138.0312.0205l.1167.0738c.0114.0071.0228.0143.0345.0211l.1184.0701c.0108.0064.0217.0127.0329.0187l.1201.0668c.011.0062.022.0122.0332.0179l.1219.0635c.0111.0057.022.0114.0332.0168l.1235.0601c.0113.0054.0225.0107.0338.0159l.1247.0567c.0108.0049.0217.0097.0327.0143l.1263.0535c.0117.0049.0233.0097.0352.0143l.1278.05c.0107.0043.0214.0082.0322.0122l.129.0468c.0116.0041.0232.0082.0348.012l.1301.0433c.0105.0035.0208.0068.0312.01l.1314.0403c.0113.0035.0225.0068.034.01l.1324.037c.0113.003.0225.0061.0337.0089l.1335.0337c.0108.0027.0216.0052.0324.0078l.1344.0305c.016.0036.0322.007.0484.0099l28.4676,5.3764c.0174.0034.0351.0062.0527.0089l.2032.0299c.0128.0019.0259.0035.0389.0051l.2058.0243c.013.0016.026.0028.0392.0041l.2082.0186c.014.0013.0281.0022.0422.003l.2096.0122c.0154.001.0308.0016.0462.0019l.2107.0052c.0114.0003.0228.0005.0345.0005h.0019l.1057-.0002c.0082,0,.0166-.0002.0249-.0003l.1057-.0021c.0082-.0002.0166-.0003.0249-.0006l.1055-.004c.0097-.0002.0192-.0008.0289-.0015l.1057-.0062c.0081-.0005.0162-.001.0245-.0016l.1206-.0092c.0087-.0006.0174-.0015.0262-.0022l.1212-.0116c.0081-.0008.0162-.0018.0241-.0025l.1219-.0138c.009-.0011.0182-.0022.0273-.0033l.1225-.0163c.0079-.0011.0159-.0022.0238-.0035l.1229-.0186c.0081-.0013.0163-.0025.0246-.004l.1235-.021c.0089-.0015.0178-.003.0266-.0048l.1237-.0235c.0086-.0016.017-.0034.0254-.0051l.1243-.026c.0092-.0019.0184-.004.0276-.0061l.1244-.0287c.0078-.0019.0157-.0036.0235-.0057l.1247-.0311c.0089-.0022.0178-.0044.0266-.0068l.1249-.0338c.0086-.0024.0171-.0048.0257-.0073l.1252-.0365c.0087-.0025.0174-.0052.0262-.0079l.1252-.0392c.0089-.0027.0178-.0056.0265-.0086l.1253-.0421c.0084-.0028.0168-.0057.0253-.0087l.1253-.0447c.009-.0032.0182-.0067.0273-.0102l.1253-.0478c.0079-.003.0159-.0061.0238-.0092l.1112-.0447c.0071-.0028.0143-.0059.0214-.0089l.1117-.0471c.0084-.0035.0166-.0071.0251-.0108l.1119-.0498c.0071-.0032.0143-.0065.0214-.0098l.112-.0522c.0082-.0038.0163-.0078.0245-.0117l.1124-.055c.0073-.0035.0144-.0071.0217-.0108l.1122-.0576c.0079-.0041.0159-.0082.0237-.0124l.1124-.0603c.0078-.0041.0154-.0084.0233-.0127l.1122-.063c.0079-.0044.0157-.009.0237-.0136l.112-.0659c.0074-.0044.0151-.0089.0224-.0135l.1117-.0685c.0078-.0048.0154-.0095.023-.0144l.1114-.0714c.0079-.0051.0157-.0102.0235-.0154l.1111-.0744c.0071-.0048.0141-.0095.0213-.0144l.1107-.0771c.0079-.0056.0159-.0113.0237-.017l.1101-.0803c.0076-.0054.0151-.011.0224-.0166l.1094-.0831c.0071-.0054.0143-.0108.0213-.0163l.1089-.0862c.0074-.0059.0148-.0119.022-.0179l.0928-.0767c.0061-.0049.0119-.0098.0178-.0149l.0925-.079c.0067-.0057.0133-.0114.02-.0173l.092-.0817c.0061-.0056.012-.011.0181-.0165l.0914-.0841c.0059-.0054.0117-.011.0176-.0163l.0908-.0865.0195-.019.09-.0892c.006-.0061.012-.012.0179-.0181l.0892-.0919c.0062-.0062.0122-.0125.0182-.0189l.0882-.0943c.0061-.0065.012-.0132.0181-.0199l.0873-.0969c.0062-.0068.0125-.0139.0184-.0208l.086-.0995c.0054-.0064.0108-.0125.016-.0189l.0851-.102c.0061-.0073.0119-.0144.0178-.0217l.0836-.1046c.0057-.0071.0114-.0143.0168-.0216l.0824-.1073c.0061-.0078.0119-.0156.0176-.0235l.0808-.11c.0052-.0071.0105-.0143.0156-.0215l.0793-.1125c.0057-.0081.0113-.016.0166-.0241l.0778-.1154c.0046-.007.0094-.014.0139-.021l.0675-.1041c.0051-.0076.0098-.0154.0148-.0232l.0655-.1057c.0046-.0074.009-.0149.0136-.0224l.0636-.1071.0124-.0214.0619-.1086c.0038-.0068.0078-.0135.0116-.0207l.0601-.1098c.0043-.0081.0087-.0162.0128-.0243l.0581-.1112c.004-.0076.0079-.0153.0117-.0228l.0562-.1127c.0041-.0082.0081-.0163.0119-.0245l.0541-.1141c.0035-.0073.0068-.0146.0102-.0219l.0522-.1152c.0036-.0081.0073-.0163.0108-.0246l.0501-.1166c.0035-.0079.0068-.0159.0099-.024l.0482-.1179c.0035-.0084.0068-.017.0102-.0256l.0458-.1192c.0028-.0073.0056-.0146.0082-.0219l.044-.1203c.0033-.0092.0067-.0184.0098-.0276l.0416-.1217c.0025-.0078.0052-.0157.0078-.0235l.0395-.1229c.004-.0128.0079-.0256.0117-.0384l15.3445-52.9873c.0054-.0187.0105-.0375.0151-.0565l.0227-.0931c.003-.0125.0059-.025.0086-.0376l.0199-.0926c.0027-.0128.0052-.0256.0076-.0386l.017-.092c.0024-.0124.0044-.0248.0063-.0372l.0143-.0913c.0021-.0128.0038-.0256.0056-.0384l.0116-.0906c.0016-.0131.0032-.0262.0045-.0394l.0089-.0899c.0011-.0117.0022-.0235.0031-.0353l.0065-.0891c.001-.0136.0018-.0274.0024-.0411l.0038-.0883c.0005-.0123.001-.0246.0011-.037l.0015-.0875c.0002-.0134.0002-.0268,0-.0402l-.0011-.0867Z"/>
  <polygon class="cls-1" points="20.4542 59.161 20.3918 58.8593 20.3532 58.5347 20.3421 58.2425 20.3421 58.2426 20.3532 58.5349 20.3918 58.8595 20.4541 59.1611 20.5691 59.5303 20.6696 59.7619 20.5691 59.5301 20.4542 59.161"/>
  <polygon class="cls-5" points="20.4542 59.161 20.3918 58.8593 20.3532 58.5347 20.3421 58.2425 20.3421 58.2426 20.3532 58.5349 20.3918 58.8595 20.4541 59.1611 20.5691 59.5303 20.6696 59.7619 20.5691 59.5301 20.4542 59.161"/>
  <polygon class="cls-1" points="38.6098 4.1357 38.9904 3.9279 38.6098 4.1356 38.4528 4.2415 38.2166 4.442 38.4528 4.2416 38.6098 4.1357"/>
  <polygon class="cls-5" points="38.6098 4.1357 38.9904 3.9279 38.6098 4.1356 38.4528 4.2415 38.2166 4.442 38.4528 4.2416 38.6098 4.1357"/>
  <polygon class="cls-1" points="72.8561 9.991 72.8533 10.0892 72.8534 10.0892 72.8534 10.0891 72.8562 9.991 72.8342 9.7095 72.7581 9.4129 72.8341 9.7095 72.8561 9.991"/>
  <polygon class="cls-5" points="72.8561 9.991 72.8533 10.0892 72.8534 10.0892 72.8534 10.0891 72.8562 9.991 72.8342 9.7095 72.7581 9.4129 72.8341 9.7095 72.8561 9.991"/>
  <polygon class="cls-1" points="55.8681 65.8346 55.4599 66.1567 55.1057 66.3889 55.46 66.1567 55.8682 65.8346 56.2294 65.4894 56.3759 65.3233 56.2293 65.4894 55.8681 65.8346"/>
  <polygon class="cls-5" points="55.8681 65.8346 55.4599 66.1567 55.1057 66.3889 55.46 66.1567 55.8682 65.8346 56.2294 65.4894 56.3759 65.3233 56.2293 65.4894 55.8681 65.8346"/>
  <polygon class="cls-1" points="72.2324 8.6518 71.9418 8.4414 71.6339 8.2878 71.9418 8.4414 72.2324 8.6518"/>
  <polygon class="cls-5" points="72.2324 8.6518 71.9418 8.4414 71.6339 8.2878 71.9418 8.4414 72.2324 8.6518"/>
  <polygon class="cls-1" points="23.1857 61.7063 51.5953 67.072 51.9192 67.1146 51.5953 67.0719 23.1857 61.7063"/>
  <polygon class="cls-5" points="23.1857 61.7063 51.5953 67.072 51.9192 67.1146 51.5953 67.0719 23.1857 61.7063"/>
  <polygon class="cls-1" points="53.8087 66.9491 54.2055 66.8204 54.6601 66.6284 54.2054 66.8204 53.8087 66.9491"/>
  <polygon class="cls-5" points="53.8087 66.9491 54.2055 66.8204 54.6601 66.6284 54.2054 66.8204 53.8087 66.9491"/>
  <polygon class="cls-1" points="22.5066 61.4979 22.2327 61.3733 21.9723 61.2286 21.732 61.0676 21.4503 60.8373 21.1893 60.5717 21.009 60.3473 20.8449 60.1013 20.7724 59.9698 20.8449 60.1014 21.009 60.3474 21.1892 60.5718 21.4504 60.8375 21.732 61.0677 21.9723 61.2287 22.2327 61.3734 22.5066 61.498 22.8922 61.6321 23.1857 61.7063 22.8923 61.632 22.5066 61.4979"/>
  <polygon class="cls-5" points="22.5066 61.4979 22.2327 61.3733 21.9723 61.2286 21.732 61.0676 21.4503 60.8373 21.1893 60.5717 21.009 60.3473 20.8449 60.1013 20.7724 59.9698 20.8449 60.1014 21.009 60.3474 21.1892 60.5718 21.4504 60.8375 21.732 61.0677 21.9723 61.2287 22.2327 61.3734 22.5066 61.498 22.8922 61.6321 23.1857 61.7063 22.8923 61.632 22.5066 61.4979"/>
  <g>
    <path class="cls-7" d="M14.3203,53.6339c1.5916-1.5924,3.5096-3.0391,6.4221-3.0932,2.0988-.0366,4.1792.7054,6.0606,2.5868,1.8997,1.8997,2.6235,3.9252,2.6235,5.9157.0175,3.3472-1.9364,5.5543-2.9491,6.567l-3.9077,3.9077-12.0663-12.0671,3.8169-3.8169ZM23.0044,64.3793l.7412-.7412c.5788-.5788,1.7906-1.8989,1.9355-3.5646.1091-1.1935-.3981-2.7484-1.7365-4.0876-1.3017-1.3026-2.6593-1.6107-3.6004-1.6107-1.8089,0-3.1115,1.0494-3.961,1.9006l-.7421.7412,7.3632,7.3624Z"/>
    <path class="cls-7" d="M33.8772,38.7809l-4.0351,4.0343,2.3345,2.3345,3.8353-3.8353,2.352,2.3511-3.8361,3.8353,2.6776,2.6776,4.0351-4.0351,2.352,2.352-6.821,6.821-12.0663-12.0671,6.8202-6.8202,2.352,2.352Z"/>
    <path class="cls-7" d="M47.102,44.9856l-10.1308-14.0023,2.3153-2.3153,10.2207,4.215-4.215-10.2211,2.3162-2.3157,14.0018,10.1308-2.785,2.7859-8.1594-6.2409,4.1784,10.2211-.9761.9769-10.2215-4.1788,6.2414,8.1586-2.7859,2.7859Z"/>
    <path class="cls-7" d="M65.6087,5.3129c2.2437-.0366,4.5773.8137,6.4404,2.6768,1.6107,1.6103,2.6776,3.8353,2.641,6.4046-.0358,2.207-.8678,4.4141-2.8941,6.44-2.2612,2.2616-4.7031,2.8946-6.4762,2.9308-2.2437.072-4.5957-.832-6.368-2.6051-1.7373-1.7365-2.7134-4.2692-2.7134-6.4404,0-1.6278.5422-4.088,2.9483-6.4945,1.8822-1.8814,4.0343-2.8762,6.4221-2.9121ZM60.1277,14.4846c-.0183,1.0311.3256,2.4598,1.664,3.7986,1.1044,1.1035,2.352,1.6286,3.8169,1.6103,1.5199-.0362,2.641-.6517,3.5821-1.5924,1.2293-1.2297,1.6465-2.5502,1.6474-3.7083.0175-.9224-.254-2.3515-1.6474-3.7449-1.2476-1.248-2.6768-1.6644-3.7628-1.6644-1.176.0183-2.5868.5251-3.6904,1.6286-1.0486,1.049-1.6099,2.3699-1.6099,3.6724Z"/>
  </g>
  <path class="cls-5" d="M28.8853,3.0002c-5.5604,0-10.0841,4.5241-10.0841,10.0844s4.5238,10.0841,10.0841,10.0841,10.0844-4.5234,10.0844-10.0841-4.5241-10.0844-10.0844-10.0844ZM28.8853,21.8814c-.6759,0-1.3314-.0839-1.9639-.2288h0c-3.2744-.7507-5.8534-3.3295-6.604-6.6041-.145-.6325-.2288-1.288-.2288-1.9638s.0838-1.3314.2288-1.964c.7506-3.2746,3.3296-5.8536,6.604-6.6042h0c.6325-.145,1.288-.2288,1.9639-.2288s1.3314.0839,1.9639.2289c3.2746.7507,5.8535,3.3298,6.6042,6.6042.145.6326.2289,1.2881.2289,1.964s-.0839,1.3313-.2289,1.9638c-.7507,3.2743-3.3298,5.8533-6.6042,6.604h0c-.6326.145-1.2881.2288-1.9639.2288Z"/>
</svg>