<?xml version="1.0" encoding="UTF-8"?><svg id="a" xmlns="http://www.w3.org/2000/svg" width="20.2847mm" height="20.2847mm" viewBox="0 0 57.5 57.5"><defs><style>.cls-1{fill:none;}.cls-2{fill:#151514;}</style></defs><g><path class="cls-2" d="M28.7495,57.0954C13.1188,57.0954,.4032,44.3789,.4032,28.7487S13.1188,.4025,28.7495,.4025s28.3452,12.716,28.3452,28.3462-12.7155,28.3467-28.3452,28.3467ZM28.7495,.9643C13.4291,.9643,.964,13.4284,.964,28.7487s12.4651,27.7849,27.7854,27.7849,27.7845-12.4641,27.7845-27.7849S44.0698,.9643,28.7495,.9643Z"/><path d="M16.9023,29.2447c-.1159-.2638-.5723-.3566-.6959-.638,.0232-.0133,.4856-.0647,.5954,.0363-.0996-.5862-.5128-.6161-1.0487-.9494,.3305-.1056,.6544,.1074,.9394-.0141-.2276-.292-.6206-.3197-.8849-.6588,.2198,.1038,.5556-.0801,.7408,.0074-.0342-.117-.0462-.2061-.0861-.2818-.0451-.0856-.2107-.0694-.2748-.1443-.0467-.0546-.3616-.1638-.4145-.2135,.0691-.0372,.4895-.0173,.5907-.0717,.0009-.0071-.3844-.1639-.3384-.392,.0925,.0401,.6118,.0954,.7473,.1541-.0465-.2241-.368-.0976-.4028-.2651-.1036-.0496-.2575-.2423-.3692-.2958,.0035-.013,.6024-.0337,.8018-.0338-.0801-.0509-.1531-.0934-.2214-.1419-.0593-.0421-.1224-.0848-.1645-.1407-.0145-.0193,.2138-.12,.2951-.12,.0939-.2692-.2002-.3084-.2894-.5197l.3172-.0262c-.0457-.0539-.1108-.1123-.1497-.1837-.0221-.0406-.175-.1682-.1584-.173,.1684-.0488,.1653-.1085,.1638-.2482-.0005-.044,.0259-.2142,.0637-.3017,.1131,.0989,.2881,.3579,.5654,.3084-.0001-.242-.3172-.3857-.2285-.7542,.1383,.0671,.4043,.1598,.5135,.2127-.1234-.2252-.3673-.739-.1557-.9801,.0257,.0517,.1423,.2191,.4077,.2719,.1572-.5182-.0559-.6965,.1371-1.3978,.1024,.425,.5659,.5161,.566,.6435,.0134,.001-.0935-.3817,.0922-.4488,.0505-.1316,.1841-.424,.0878-.7109,.238,.0106,.277,.5739,.3432,.6613,.171-.3147,.3258-1.0209,.2079-1.3213,.6245,.1236,.4589,.6022,.6507,.7106,.0731-.0713-.0553-.3526,.1238-.4121,.2115-.0702-.0731-.3769-.025-.7347,.2534-.0809,.5132,.3488,.622,.7411,.2786-.4261-.2271-.4223,.1926-.8427,.0964-.2424,.0481-.3117-.0003-.5771,.2415,.1614,.6186,.4594,.5676,.646,.3317-.0969,.0054-.6422,.256-.7735,.0561,.3554,.2257,.5254,.2703,.5275,.1065-.1451-.0168-.4324,.2094-.6749,.1087,.1904,.124,.564,.1543,.6491,.0182,.0032,.1175-.2944,.1446-.4589,.1821-.3092,.5218-.2744,.3887-.9322,.3018,.1152,.5253,.4296,.6068,.5681,.4609-.4089,.1396-.665,.3476-.9941,.0906,.199,.364,.4026,.3092,.566-.0235,.0702,.068,.2235,.0944,.3065,.0633-.0186,.1832-.1362,.2413-.1646,.0833-.0407,.088-.1908,.202-.2598,.0364,.303-.2415,.5465-.2348,.9697,.1571-.1552,.1115-.1453,.199-.2858,.0587-.0943,.2536-.141,.371-.2599,.0635,.1471-.1987,.4224-.1354,.5801,.0164-.0029,.3002-.3002,.3166-.3032,.1447-.3031,.1951-.5354,.2169-.5455,.0402,.0676,.0769,.3098,.1089,.3808,.0391,.0869-.0086,.1858,.0364,.3116,.0886-.1188,.1326-.3377,.2894-.3897,.0203,.1903-.1976,.5426-.1806,.7013,.1288-.2287,.2017-.1775,.3196-.3868,.1691,.225,.2231-.2483,.3438-.2541,.1,.5023-.1185,.4625-.2559,.987-.0542,.1962,.0724-.0953,.1268,.0951,.169,.0461,.2865-.1704,.4554-.3206,.1691,.2423-.3919,.5283,.1874,.5106,.1378,.382-.4554,.5176-.4282,.9296,.1482,.0574,.4756,.0219,.5374-.0468,.0829,.0762-.1359,.3378-.1898,.4676-.0769,.185-.2954,.563-.3664,.7502,.0182,.0072,.205-.1014,.2801-.1629,.102-.0395,.2414-.0813,.2558-.0656-.0738,.1126-.1381,.4497-.3165,.4936-.1635,.0402-.2487,.462-.286,.5627,.2777,.1412,.54-.159,.724-.2168,.0002,.3693-.4172,.559-.4462,.6582-.0943,.3224-.2644,.2757-.3859,.5889-.1385,.3571-.5593,1.1878-1.7024,2.2166-.7902,.9386-.7148,2.4144-.5819,3.218,.7274-1.3579,.75-1.317,1.6627-2.2931,.3533-.317,.7029-.649,1.16-.8516,.9402-.4165,1.1123-.2915,2.5033-1.0827,.1643-.1065,.3331-.2154,.4689-.3514,.2397-.2401,.2981-1.4049,.5072-1.6698,.1007-.1275,.1505-.2928,.2175-.4433,.1408-.3162,.4496-.7169,.6669-.973,.2164-.255,.2234-.3023-.003-.4978-.1055-.0906-.1576-.2476-.0939-.3651,.3965,.2504,.0783-.1148,.1304-.2712,.1669,.0574,.3014,.2454,.3504,.1676-.0883-.2952-.2669-.2511-.2513-.7206,.2161,.0069,.2139,.1513,.3912,.2034,.1959,.0576-.0117-.1341-.0313-.1565-.1917-.2191-.2634-.2191-.3182-.5086,.3338,.0391,.5132,.0591,.3286-.133-.0898-.0934-.1721-.3365-.1643-.5321,.3286,.0704,.4392,.1984,.512,.2226,.0308-.0988-.2605-.405-.2256-.574,.1227,.013,.2011,.1009,.3461,.13-.0001-.1769-.0137-.3218,.0043-.463,.0127-.0994,.0472-.2086,.1083-.2877,.2871-.3718,.1162-.5868,.0141-1.0693,.0163-.0111,.1792,.0993,.2432,.1666,.0662,.0698,.1309,.1409,.1963,.2115,.0326-.0885-.0401-.2087-.0133-.2988,.0427-.1431-.0448-.2199-.0021-.3793,.2934,.1171,.2198,.4553,.4547,.6243-.0242-.1319,.012-.2881-.0055-.3833,.0234-.0084,.2019,.2133,.2374,.3371,.0842,.2941,.1103,.3704,.176,.6689,.0459,.2087,.124,.4189,.1936,.6188,.1156,.3321,.0779,.4929,.1041,.8266,.0049,.0624,.0513,.1219,.0661,.155,.2587-.0548,.4001,.0462,.4996,.0287,.0672-.0118,.1242-.1931,.1294-.2766,.0104-.1774-.0625-.3169,.0036-.5039,.0486-.036,.2105,.1131,.2599,.1231-.0646-.1767-.073-.2087-.1043-.4199,.0784-.0019,.1418,.0288,.2569,.0928,.0039-.2024-.2045-.3047-.2726-.4815-.0774-.2009,.1427,.0302,.242-.1853,.0658-.1428-.0005-.3423-.0132-.516-.0026-.0356,.2085,.1299,.3066,.265,.0781-.4803-.1103-.3328,.0361-.8042,.1245,.0944,.6388,.5418,.6614,.8287-.0092,.1595,.1257,.062,.1772-.1922,.2715,.2678,.1437,.2412,.2692,.511,.0464,.0998,.0475,.2266,.1131,.3093,.2328,.294,.2248,.1954,.3523,.5158,.0283,.0711,.0825,.2279,.1242,.2941,.0202-.0077,.2953,.569,.2311,.8309,.0045,.0492-.0915,.3514-.1128,.3924-.1604,.3091,.0699,.5762,.2781,.8262,.0379,.0455,.0491,.1105,.0765,.1648,.0761,.1507,.2117,.2431,.3352,.3558,.2217,.2023,.387,.467,.5501,.7208,.2414,.3756,.2691,.7913,.248,1.2265-.0089,.1847,.0916,.4008,.2077,.5587,.2356,.3207,.3801,.4495,.4444,.8239,.0214,.1244,.0871,.246,.0867,.3688-.0017,.4857-.1131,.6095-.5724,.7306-.0798,.0211-.1534,.0674-.2265,.1075-.1582,.0867-.3171,.1727-.4699,.2675-.0797,.0495-.1382,.1351-.2219,.1724-.142,.0633-.2976,.071-.4455,.1496s-1.5699,.1591-1.6421,.3652c-.097,.2771-.4572,1.3163,.1524,1.2332,1.616-.2204,2.5935-.4459,3.0344-.8868,.3187-.3187,.941-.2803,1.0214-.3169,.1448-.0174,.2764-.2289,.367-.0559,.1765,.0388,.3666,.195,.2805,.5359,.0819,.1525,.1288,.0758,.3031,.1134,.1065,.023,.2063,.2374,.1537,.3289-.0849,.1477-.0398,.2259,.1101,.2781,.0947,.033,.2125,.1086,.2409,.1903,.0522,.1502-.0054,.221-.172,.3019-.1745,.0848-.3406,.2482-.5287,.3015-.1398,.0396-.1337,.1143-.0951,.2123,.0215,.0546-.0011,.1025-.0539,.1872-.0817,.088-.1585,.0249-.3093,.0445,.0131,.2055-.174,.229-.4221,.2149-.5024,.0529-.3294,.2706-.8272,.323-.4418,.2915-.9035,.0284-.9198,.0638-.6589-.0351-1.0654,.4028-.9915,.6196,.1436,.421-.2217,.1624-.2286,.4053,.0071,.1331,.054,.2087-.0294,.4017-.023,.0532-.0735-.0033-.1982-.1904-.291-.291-.0291,.2328-.1226,.4095-.0492,.0608-.1795-.109-.2243-.1043-.075,.0229-.0558,.1481-.0558,.2167,.0036,.2293-.1192,.0815-.1766,.0416-.1344-.0936-.1503-.125-.3015-.187-.0788-.0323-.2178,.1219-.2615,.1347-.385,.1127,.4303,.2269,0,.3365-.3052,.1095,.0768,.2853,.1441,.4997-.324,.1732-.2145,.2828-.4962,.2749-.2827-.0079-.313,.4929,.0214,.4865,.2197-.0042-.3187,.5933,.0861,.6502,.0175,.0249,.0123,.079-.004,.1089-.1726,.317-.0846,.6311-.0039,.9495,.0349,.1379,.0542,.2822-.1078,.3841-.0445,.028-.0693,.1079-.0741,.1662-.0145,.173-.1872,.1031-.1939,.3047,.0305,.0961,.0122,.2193-.0601,.3809-.251-.0711-.2411,.103-.2313,.2972,.0022,.0441-.0385,.1099-.0796,.1331-.3091,.1749-.3828,.1086-.7001,.2695-.7339,.3748-1.3762,1.0762-1.3159,1.1508,.2615,.3231,1.6416-.0974,1.9181-.1319,.3206-.0399,.6418-.0784,.9639-.1037,.207-.0163,.4162-.0092,.6244-.0098,.2581-.0008,.425,.1344,.4966,.3561,.0367,.1136,.1027,.1196,.1956,.135,.2572,.0427,.5149,.0793,.7215,.2623,.1277,.1131,.2488,.2149,.2275,.4027-.0049,.0433,.0111,.1098,.0431,.1324,.2314,.1631,.2941,.392,.297,.6796l-.4164-.1235c.0022-.0085-.0112,.0197-.0054,.0239,.2617,.1929,.2121,.1756,.3466,.4302,.0438,.0829,.0995,.1636,.1222,.2518,.0164,.0637,.0095,.154-.0286,.2028-.0296,.0379-.5509-.1717-.6055-.1777-.0895-.0099-.181-.0026-.2921-.0025,.028,.1458,.1788,.3359,.1717,.485-.0071,.1503-.0371,.2775-.097,.485-.0799-.1025-.2777-.1878-.3246-.2644-.1368-.2236-.276-.2521-.515-.137-.1463,.0705-.3116,.1232-.4737,.1418-.3958,.0455-.776-.0118-1.1433-.1806-.2959-.136-.6071-.2454-.9198-.3421-.1497-.0463-.3183-.0393-.4788-.0503-.3991-.0272-.9484,.015-1.2634,.061-.0447,.0065-.0904,.0087-.1357,.0102-.4216,.0132-1.3679-.0074-2.1738,.2558-.1393,.0392-.2769,.1098-.4173,.1148-.458,.0163-.7683-.2812-.7849-.7293-.0054-.1449-.001-.2901-.0011-.4587-.1452,.0972-.282,.1595-.3775,.2584-.2511,.2598-.5866,.3854-.9028,.5375-.0793,.0382-.2108-.0235-.3185-.038-.081-.0109-.1621-.027-.2434-.0282-.2562-.0035-.5166,.1466-.8222,.1468,.0744-.0923,.1142-.2842,.1561-.3362-.4058-.0948-.6422,.2914-1.0564,.3305,.0781-.0886,.0823-.1747,.154-.2561-.4245,.0399-1.1836,.1858-1.1877,.1695,.1419-.0962,.2715-.299,.4133-.3952l-.0371-.0626-.2182,.095-.8897-.1227c.0117-.044,.1437-.1492,.2067-.1901-.0768-.0268-.153-.0557-.2306-.0801-.2131-.0669-.3828,.001-.5975-.0609-.1273-.0367-.2832-.0401-.4676-.0843,.2089-.1389,.3525-.4046,.538-.5279-.0833-.0196-.2367-.0813-.251-.0975l.2253-.1068c-.5892-.0931-1.1953,.3105-1.7476,.065,.0801-.0298,.2723-.1165,.3279-.1413,.0571-.0255,.0432-.1507,.0943-.2254-.1262-.0106-.3786,.0386-.5485,.0243,.0904-.0964,.2843-.2286,.3806-.3313-.1228,.0199-.53,.0965-.7556,.0298,.0149-.0557,.2144-.1559,.3607-.2396,.0485-.0862,.1258-.078,.2056-.1931-.4679-.0143-1.0907,.2847-1.4245-.0975,.1374,0,.4397-.2167,.5682-.2168-.0936-.1198-.5173-.252-.4988-.3187,.0251-.0902,.37-.0272,.5498-.1973,.0184-.0174,.109-.1605,.1372-.2131-.0559-.0209-.1102-.0535-.1679-.0607-.2476-.0309-.4431-.1331-.5715-.3446-.0162-.0266-.0606-.0406-.0948-.0537-.1901-.073-.3918-.1255-.5686-.2207-.1743-.0938-.3235-.2301-.468-.369l.6805,.1405,.0352-.0446-.579-.3912c.1634-.0272,.2746-.041,.3829-.0663,.0351-.0082,.0626-.0465,.0935-.071-.0313-.0259-.0587-.0607-.095-.0751-.0338-.0134-.0881,.0091-.114-.0092-.0751-.0531-.5748-.1539-.6585-.3654,.2174,.074,.2491-.0004,.4516-.0027,.0376-.0338,.1965-.0452,.2269-.0836,.0596-.0752,.1363-.1163,.1903-.1956-.0893-.0226-.1857-.0317-.2664-.0706-.152-.0733-.2795,.0147-.3737-.106-.0743-.0951-.1787-.0882-.2776-.118-.1584-.0478-.2363-.0727-.3771-.157l-.4788-.2469c.3258-.0591,.3618-.2516,.5886-.2047l.032-.0434-.5779-.3949c.1654-.0265,.2772-.041,.387-.064,.0321-.0067,.0773-.0342,.0823-.0586,.0048-.0234-.0368-.0807-.0545-.0794-.2619,.0193-.3498-.2063-.5099-.3272-.1461-.1104-.2835-.2313-.4247-.3476,.016-.0132,.5205,.0157,.7572,.0434,.0152-.124-.0797-.177-.255-.2862-.2152-.134-.3978-.3158-.5784-.5055,.3804,.0261,.7384,.1688,1.1472,.0648l-.3181-.1906c.0019-.0167,.1504-.063,.2202-.0792,.0439-.0102,.0832-.0386,.1246-.0589-.0325-.0401-.0563-.0963-.099-.1172-.1466-.0717-.299-.133-.4508-.1946-.2155-.0875-.4308-.1758-.6493-.2559-.1111-.0407-.2289-.0644-.3427-.0955,.1045-.1869,.2656-.2996,.9381-.2909-.0931-.0842-.7186-.1091-.7715-.3616,.0427-.0185,.5342-.0748,.5758-.0928-.0436-.3366-.2922-.1243-.4319-.2928-.0693-.0836-.2068-.0676-.2977-.1277-.1122-.0742-.1491-.1863-.1731-.3232,.4519-.1039,.9367-.0494,.9367-.0494Z"/></g><g><path d="M7.2309,14.7504l.7139,.3945-1.1865,2.1416,1.2422,.6885,1.1348-2.0508,.7139,.3955-1.1348,2.0498,1.3428,.7441,1.2129-2.1895,.7139,.3955-1.7188,3.1025-4.7266-2.6172,1.6924-3.0547Z"/><path d="M9.7192,11.5785l1.7842,1.7441,.0166-.0166-.4004-3.1602,.8301-.8486,.4141,3.2168,3.8662,.1338-.9355,.957-3.6084-.1045,1.8975,1.8545-.7305,.7471-3.8633-3.7764,.7295-.7471Z"/><path d="M16.5854,6.1186c.4922-.2656,.9902-.4043,1.4941-.4131,.5029-.0098,.9746,.1133,1.415,.3691,.4395,.2559,.7832,.6113,1.0293,1.0674,.2402,.4443,.3496,.9189,.3271,1.4219s-.1768,.9668-.4609,1.3916c-.2852,.4258-.6768,.7725-1.1758,1.042-.4922,.2666-.9971,.4014-1.5146,.4062-.5186,.0039-.9902-.1191-1.417-.3711-.4258-.252-.7607-.6035-1.0049-1.0547-.2354-.4355-.3447-.9053-.3271-1.4102s.166-.9697,.4463-1.3955,.6768-.7764,1.1885-1.0537Zm-.3584,3.3457c.1709,.3154,.3955,.5605,.6738,.7354,.2793,.1748,.584,.2617,.9141,.2627,.3301,0,.6553-.0869,.9775-.2607,.4883-.2637,.8057-.6338,.9551-1.1094,.1484-.4766,.0918-.9561-.1689-1.4385-.1709-.3154-.3955-.5615-.6738-.7373-.2783-.1768-.583-.2646-.916-.2637-.332,.001-.6592,.0879-.9814,.2627-.3223,.1738-.5742,.4004-.7559,.6787s-.2744,.5811-.2773,.9062,.0811,.6465,.2529,.9639Z"/><path d="M24.2104,3.5258c.5-.0889,.9326-.0234,1.2969,.1963,.3643,.2207,.5859,.5527,.666,.9971,.0537,.3018,.0225,.5791-.0928,.8311-.1162,.2529-.3164,.4717-.5996,.6562,.1865,.0605,.3594,.1582,.5195,.292s.3711,.3691,.6338,.707c.4404,.5869,.7607,.9873,.9619,1.2031l-1.1455,.2051c-.0996-.1025-.2402-.2695-.4199-.502-.3965-.5137-.6807-.8564-.8525-1.0283s-.3291-.2881-.4707-.3477-.2949-.0752-.46-.0449l-.373,.0664,.4023,2.2461-1.0283,.1846-.9521-5.3184,1.9141-.3438Zm.1748,2.3105c.2686-.0479,.4678-.1533,.5977-.3145,.1289-.1621,.1729-.3604,.1309-.5938-.043-.2432-.1523-.4121-.3262-.5049-.1738-.0938-.4014-.1152-.6826-.0645l-.6396,.1143,.2646,1.4814,.6553-.1182Z"/><path d="M31.1538,3.2358c.5059,.0479,.9043,.2266,1.1963,.5361s.417,.6885,.375,1.1377c-.0283,.3057-.1328,.5645-.3115,.7773-.1797,.2119-.4307,.3691-.7539,.4707,.1641,.1084,.3047,.249,.4229,.4209,.1191,.1719,.2588,.4551,.4219,.8516,.2666,.6826,.4688,1.1543,.6045,1.416l-1.1592-.1084c-.0684-.126-.1582-.3242-.2695-.5967-.2441-.6006-.4268-1.0068-.5469-1.2188-.1191-.2119-.2402-.3652-.3604-.4609s-.2637-.1514-.4307-.167l-.3779-.0352-.2129,2.2715-1.04-.0977,.5049-5.3789,1.9375,.1816Zm-.4502,2.2734c.2715,.0254,.4922-.0225,.6602-.1445,.168-.1211,.2627-.2998,.2852-.5361,.0234-.2461-.0361-.4375-.1787-.5742s-.3564-.2178-.6416-.2451l-.6475-.0605-.1406,1.498,.6631,.0625Z"/><path d="M37.5434,4.6039c.4941,.1797,.9258,.4756,1.2939,.8896l-.3174,.8721c-.4102-.5078-.8193-.8369-1.2266-.9844-.2471-.0898-.457-.1123-.6318-.0674-.1738,.0459-.29,.1484-.3477,.3076-.0703,.1914-.0049,.416,.1963,.6729,.0547,.0742,.2852,.3115,.6914,.7119,.3457,.3477,.5664,.6748,.6641,.9814,.0967,.3066,.084,.6289-.0381,.9658-.1582,.4355-.4434,.7314-.8545,.8848-.4111,.1543-.8662,.1396-1.3652-.041-.3252-.1182-.5908-.2559-.7988-.4121s-.4258-.374-.6533-.6543l.3516-.9668c.3789,.6475,.8086,1.0586,1.2881,1.2334,.2402,.0869,.4531,.1055,.6387,.0547s.3096-.1621,.3721-.334c.085-.2354,.0264-.4736-.1768-.7148-.1709-.1934-.3955-.4326-.6729-.7178-.334-.3262-.5557-.6475-.665-.9609-.1104-.3145-.1064-.6309,.0098-.9512,.1543-.4268,.4365-.709,.8467-.8467,.4092-.1377,.874-.1123,1.3955,.0771Z"/><path d="M44.5034,8.4682l-.4551,.6777-2.0332-1.3643-.79,1.1787,1.9463,1.3057-.4551,.6777-1.9463-1.3057-.8555,1.2754,2.0781,1.3936-.4551,.6777-2.9453-1.9756,3.0107-4.4863,2.9004,1.9453Z"/><path d="M47.3472,11.1323l-3.3994,3.0791,1.7598,1.9434-.6045,.5479-2.4619-2.7178,4.0049-3.627,.7012,.7744Z"/><path d="M52.1411,18.1674l-.7168,.3877-1.166-2.1523-1.248,.6758,1.1162,2.0605-.7178,.3887-1.1162-2.0605-1.3506,.7314,1.1914,2.2002-.7168,.3887-1.6895-3.1191,4.752-2.5723,1.6621,3.0713Z"/></g><polygon class="cls-1" points="7.541 39.563 9.0928 37.8312 6.8033 37.9821 7.541 39.563"/><path d="M5.7116,25.8751c.0692,.012,.1368,.018,.2029,.018,.2158,0,.4152-.064,.5987-.192,.2397-.1683,.3858-.4003,.4381-.6973,.0502-.2928-.0098-.5588-.1818-.7996-.1711-.2397-.4013-.3857-.6913-.436-.068-.0118-.1345-.0176-.1995-.0176-.217,0-.4174,.0656-.6011,.1966-.2388,.1702-.384,.4003-.4341,.6904-.0513,.2968,.0078,.5648,.1769,.8035,.1693,.2388,.3994,.3839,.6913,.4341Z"/><polygon points="8.9247 34.1726 5.2348 33.3749 8.3483 31.2114 8.1376 30.1294 3.2373 33.5944 3.306 33.951 9.1345 35.2468 8.9247 34.1726"/><path d="M11.6552,37.3362c-.0617-.0225-.1223-.0337-.182-.0337-.0713,0-.1412,.0161-.2097,.0482-.1314,.061-.2194,.1596-.2659,.2948-.0464,.1354-.0406,.265,.0175,.3887,.059,.1267,.1556,.2137,.291,.2631,.0617,.0225,.1224,.0336,.1821,.0336,.0714,0,.1416-.016,.2106-.0482,.1237-.057,.2098-.1556,.259-.2938,.0494-.1384,.0456-.2679-.0106-.3897-.059-.1256-.1567-.2137-.292-.263Z"/><path d="M9.9128,36.8547l-5.8381,.2668,.4632,.9921,1.4127-.0832,1.0162,2.1766-.9543,1.0645,.4661,.9979,3.8859-4.4477-.4515-.967Zm-2.3718,2.7083l-.7377-1.5809,2.2895-.1509-1.5518,1.7318Z"/><path d="M10.5055,36.5696c.0626,.0209,.1233,.0314,.1819,.0314,.0709,0,.1388-.0153,.204-.0461,.1237-.0571,.2108-.1545,.261-.2919,.0492-.1373,.0454-.2688-.0135-.3946-.058-.1237-.1556-.2126-.293-.2649-.064-.025-.127-.0374-.1888-.0374-.0699,0-.1385,.0158-.2056,.047-.1287,.06-.2156,.1586-.2621,.2969-.0464,.1382-.0406,.2698,.0175,.3936,.0609,.1305,.1605,.2195,.2987,.266Z"/><path d="M13.5105,43.0186c-.1005-.5443-.316-1.0219-.6458-1.4318-.348-.4313-.733-.6943-1.1544-.7881-.105-.0236-.2078-.0353-.3087-.0353-.304,0-.5886,.1071-.8537,.3206-.265,.2137-.4321,.4835-.5009,.8083-.0696,.3258-.0454,.7146,.0706,1.1671,.09,.3877,.1586,.7088,.2041,.963,.0493,.3114-.0242,.5455-.2185,.703-.0981,.0783-.2059,.1176-.3235,.1176-.0538,0-.1097-.0082-.1677-.0247-.1856-.0533-.3578-.179-.5182-.3781-.3201-.3974-.4747-.9718-.4631-1.722-.2672,.2149-.5344,.4299-.8016,.6449,.0494,.3577,.1228,.6565,.2194,.8983,.0969,.2416,.2534,.4969,.471,.7657,.3327,.414,.7145,.6614,1.1458,.7426,.0945,.0178,.1874,.0266,.2785,.0266,.3255,0,.629-.1135,.9108-.3408,.2794-.2253,.4573-.4941,.5327-.8064,.0764-.3123,.0561-.7078-.0589-1.1835-.1401-.553-.2147-.8751-.2234-.9679-.0386-.3229,.0213-.5483,.1808-.6759,.0894-.0723,.1874-.1082,.2946-.1082,.0518,0,.1058,.0085,.1619,.0252,.1731,.0513,.3414,.1798,.5067,.3847,.2717,.3375,.4515,.8297,.5386,1.4775,.241-.1941,.4819-.388,.7231-.5822Z"/><polygon points="17.9623 46.3448 14.1333 43.3173 13.6276 43.9576 15.1322 45.1479 12.2875 48.7456 13.1065 49.3934 15.9512 45.7946 17.4556 46.9849 17.9623 46.3448"/><polygon points="21.3985 48.8375 21.7438 48.0978 18.5791 46.6203 16.2934 51.5167 19.5074 53.0163 19.8524 52.2777 17.5851 51.2189 18.2349 49.8276 20.3581 50.8187 20.7034 50.079 18.58 49.0879 19.1805 47.8019 21.3985 48.8375"/><path d="M24.6116,48.822c-.6353-.1299-1.2705-.2598-1.9058-.3896-.361,1.7645-.722,3.5291-1.0829,5.2937,.3409,.0695,.6819,.1393,1.0229,.2089l.4574-2.2354,.3712,.0763c.1645,.0329,.3008,.1044,.411,.2118,.1093,.1083,.2118,.2737,.3085,.4979,.0966,.2233,.233,.6469,.4108,1.2706,.0823,.2823,.1499,.4892,.2042,.6215,.3803,.0778,.7606,.1555,1.1409,.2332-.1073-.2748-.2562-.7649-.4486-1.4736-.118-.411-.2272-.7078-.3268-.8916-.0995-.1838-.2244-.3383-.3751-.4631,.3326-.0667,.5994-.1954,.8006-.3878,.201-.1915,.3315-.438,.3934-.7387,.0909-.4418,.0068-.8325-.2495-1.172-.2571-.3393-.6342-.5598-1.1321-.6622Zm.3211,1.637c-.0485,.233-.1616,.4002-.3424,.5027-.1171,.0667-.2532,.1003-.4079,.1003-.0827,0-.1708-.0096-.2641-.0288-.2172-.0445-.4344-.0889-.6517-.1334,.1005-.4912,.2011-.9824,.3017-1.4736,.2124,.0432,.4247,.0864,.6372,.1296,.2803,.058,.4834,.1624,.611,.3132,.1267,.1509,.1653,.3471,.1161,.5898Z"/><path d="M30.6025,51.6908l-.001-.0464c.2428-.1199,.4265-.2755,.5491-.4689,.1238-.1924,.1808-.4128,.1721-.6603-.0144-.3859-.1816-.7029-.5037-.9486-.2987-.2295-.673-.3443-1.1219-.3443-.0333,0-.067,.0007-.1012,.002-.6599,.0239-1.3196,.0477-1.9794,.0715,.0658,1.8,.1315,3.6002,.1974,5.4001,.7535-.0277,1.507-.0554,2.2606-.0832,.3684-.0135,.6864-.0842,.9543-.2128,.2678-.1285,.4738-.3131,.6178-.5549,.145-.2407,.2117-.5116,.201-.8103-.0125-.3374-.1285-.6274-.347-.8712-.2196-.2437-.5183-.4012-.8983-.4728Zm-1.9125-1.6177c.2501-.009,.5002-.0181,.7504-.0272l.049-.0008c.2167,0,.3965,.0546,.537,.1635,.1518,.1169,.2311,.2794,.2387,.4882,.0087,.2348-.0646,.4206-.2194,.5579-.1557,.1374-.3704,.2108-.6469,.2214-.2189,.0077-.4377,.0156-.6565,.0233-.0175-.4755-.0349-.9508-.0523-1.4263Zm1.8314,3.5079c-.176,.1393-.4399,.2147-.7928,.2282l-.9012,.0329c-.0184-.5089-.0367-1.0178-.0551-1.5267,.3271-.0118,.6543-.0239,.9814-.0357,.0253-.001,.05-.0015,.0745-.0015,.2673,0,.4853,.0584,.6536,.1735,.1838,.1267,.2805,.3045,.2881,.5337,.0097,.2573-.0734,.4564-.2484,.5956Z"/><path d="M37.9615,48.6431c-.3877-.3307-.8295-.5366-1.3267-.6169-.1571-.0253-.316-.038-.4767-.038-.3474,0-.7028,.0593-1.0663,.1783-.554,.1807-1.0065,.4554-1.3585,.8237-.3521,.3683-.5811,.7986-.6885,1.2927-.1074,.4932-.0842,.9747,.0687,1.4456,.1594,.4882,.4263,.8934,.8005,1.2183,.3742,.3239,.817,.5298,1.3266,.6179,.1726,.0301,.3464,.0452,.5213,.0452,.3428,0,.6902-.0576,1.0422-.1729,.5395-.1759,.9872-.4475,1.343-.815,.3568-.3663,.5908-.7957,.703-1.287,.1121-.4911,.0899-.9765-.0667-1.457-.1605-.4921-.4351-.9041-.822-1.2347Zm-.2919,3.0138c-.2311,.4418-.6101,.7493-1.1371,.9215-.228,.074-.451,.1112-.6689,.1112-.1149,0-.2285-.0103-.3405-.0309-.325-.0591-.6082-.1992-.8518-.4216-.2427-.2214-.4206-.5029-.5318-.8431-.1113-.3432-.1373-.6749-.0764-.994,.062-.3201,.207-.6005,.4351-.8422,.2292-.2417,.5183-.4196,.8664-.5328,.2291-.0751,.4535-.1125,.6734-.1125,.1143,0,.2272,.0101,.3391,.0303,.3267,.0589,.6119,.1992,.8536,.4225,.2427,.2234,.4197,.5057,.5309,.8461,.1701,.5222,.1401,1.0046-.0919,1.4456Z"/><polygon points="42.6868 45.0502 42.2294 44.3743 38.1849 47.1058 38.6422 47.7826 40.2318 46.7084 42.7989 50.5092 43.6643 49.9252 41.0972 46.1243 42.6868 45.0502"/><polygon points="46.3842 40.9543 45.7711 40.4167 42.5533 44.087 43.1674 44.6247 44.432 43.1821 47.8809 46.2065 48.5694 45.4213 45.1205 42.397 46.3842 40.9543"/><polygon points="50.6124 41.0549 49.2568 40.3346 50.3571 38.2654 49.6368 37.8815 48.5365 39.9517 47.2833 39.2855 48.432 37.1235 47.7117 36.7407 46.0729 39.8241 50.8435 42.3602 52.5075 39.2284 51.7871 38.8456 50.6124 41.0549"/><polygon points="49.0809 31.7654 52.758 32.6003 48.3711 34.8968 48.168 35.7911 53.4375 36.9853 53.6629 35.9894 49.9259 35.1424 54.3775 32.8401 54.5757 31.9646 49.3071 30.7696 49.0809 31.7654"/><path d="M51.64,23.8699c-.064,0-.1293,.0057-.196,.0172-.295,.0494-.5271,.1943-.6971,.4323-.1701,.2378-.2301,.5057-.1788,.8035,.0492,.2919,.1953,.523,.437,.6922,.1872,.1311,.3889,.1965,.605,.1965,.0629,0,.1273-.0055,.1927-.0166,.2949-.0502,.5269-.1953,.6952-.436,.1683-.2399,.2272-.5057,.1779-.7949-.0502-.2979-.1953-.5309-.4341-.699-.1849-.1298-.3855-.1953-.6016-.1953Z"/><path d="M28.7489,46.9916c10.0751,0,18.2434-8.1674,18.2434-18.2424S38.824,10.5062,28.7489,10.5062,10.5065,18.6741,10.5065,28.7492s8.1674,18.2424,18.2424,18.2424Zm-16.2919-11.3591c-.452-1.0685-.7976-2.1821-1.0301-3.3187-.2398-1.1719-.3592-2.3684-.3592-3.5647s.1194-2.3928,.3592-3.5647c.2325-1.1367,.5781-2.2502,1.0301-3.3188,.4444-1.0505,.9915-2.0576,1.6301-3.0026,.6342-.9385,1.3586-1.8159,2.1594-2.6167,.8009-.8009,1.6782-1.5252,2.6165-2.1594,.9451-.6387,1.9521-1.1859,3.0026-1.6302,1.0685-.4521,2.1821-.7978,3.3188-1.0302,1.1719-.2397,2.3683-.3593,3.5646-.3593s2.3927,.1195,3.5647,.3593c1.1366,.2324,2.2503,.5782,3.3188,1.0302,1.0506,.4443,2.0576,.9915,3.0026,1.6302,.9384,.6342,1.8159,1.3585,2.6168,2.1594,.8009,.8009,1.5253,1.6782,2.1595,2.6167,.6387,.945,1.1858,1.9521,1.6303,3.0027,.452,1.0685,.7977,2.182,1.0303,3.3187,.2397,1.1719,.359,2.3684,.359,3.5647s-.1193,2.3928-.359,3.5647c-.2326,1.1366-.5782,2.2502-1.0303,3.3187-.4445,1.0505-.9916,2.0574-1.6303,3.0025-.6342,.9385-1.3586,1.8158-2.1595,2.6166-.801,.8009-1.6783,1.5252-2.6167,2.1593-.9451,.6387-1.9521,1.1859-3.0027,1.6302-1.0685,.452-2.1823,.7976-3.3188,1.0301-1.172,.2398-2.3684,.3593-3.5648,.3593s-2.3928-.1194-3.5646-.3593c-1.1367-.2325-2.2502-.5781-3.3188-1.0301-1.0506-.4443-2.0575-.9915-3.0026-1.6302-.9383-.6341-1.8156-1.3584-2.6165-2.1592-.8008-.8009-1.5252-1.6782-2.1594-2.6166-.6385-.9452-1.1857-1.9521-1.6301-3.0026Z"/><path class="cls-2" d="M50.1149,11.0104c-.171-.2056-.3488-.4048-.5255-.6053,.106,.1203,.2073,.2448,.3113,.3669,.0693,.0814,.1458,.1563,.2142,.2385Z"/></svg>