<?xml version="1.0" encoding="UTF-8"?><svg id="a" xmlns="http://www.w3.org/2000/svg" width="20.2847mm" height="20.2847mm" viewBox="0 0 57.4999 57.4999"><defs><style>.cls-1{fill:none;}.cls-2{fill:#151514;}</style></defs><path d="M18.0534,36.5382c.3644,.2427,.522,.5009,.5521,.9321,.0348,.5076,.1276,1.024,.2852,1.5065,.0861,.2639,.3268,.5095,.5579,.6816,.1827,.1354,.5096,.3277,.585-.1595l.1053-.0938c.4661-.206,.8644-.5927,1.4417-.5018,.176,.028,.3654-.0397,.5482-.0358,.1373,.0038,.2969,.0154,.408,.0851,.8799,.5569,1.7665,1.1071,2.6203,1.7017,.905,.6305,1.7733,1.3121,2.6648,1.9628,.1943,.1421,.4167,.2455,.6265,.3665-.0977-.6419,.5028-1.1835,.1179-1.7046,.0657-.0661,.1315-.1323,.1973-.1982,.2021-.6574,.174-1.3052-.0667-1.9474l.0619-.1769c-.032-.5937,.293-.9427,.7745-1.2164,.2156-.1219,.4496-.2814,.5705-.4854,.3848-.6459,.7203-1.3208,1.0906-2.0122-.377-.2968-.8266-.3625-1.2723-.3161-.7784,.0802-1.5587,.1789-2.3235,.3394-1.5828,.3336-3.1627,.5473-4.7068,.2292-.0493-.2175-.0657-.4119-.1392-.5822-.0793-.1875-.2108-.3528-.3404-.5618-.5549-.1082-1.1912-.1479-1.6515-.6584,.1558-.264,.3027-.5153,.4496-.7639,.3752,.1074,.7232,.2069,1.0927,.3132-.0784,.3675,.1653,.5279,.437,.704,.4457,.2872,.4921,.2987,.7968-.1451,.6459-.9398,.965-1.998,1.1186-3.1178,.0184-.1359,.0977-.3375,.1992-.3755,.9041-.3409,1.8148-.6639,2.7344-.9592,.1577-.0513,.3751,.0256,.5482,.0894,.3076,.1136,.5947,.2839,.9031,.3912,.4893,.1696,.9872,.3162,1.4861,.453,.1769,.0483,.3694,.0406,.5541,.0585,.0416,.1165,.0521,.351,.1731,.4482,.4825,.3887,.962,.2103,1.1196-.3882,.0299-.1161,.0397-.2411,.0377-.3616-.0126-.7808-.1256-1.538-.5637-2.2302,.1055-.0468,.1924-.0894,.2814-.1246,.499-.1964,1.0076-.4156,1.1665-.5804-.6942,.0706-1.7494-.0348-2.3704-.7624-1.2382-1.4509-1.3862-2.4404-.0764-3.5583,.1638-.1398,.6872-.3353,.8524-.2938-.9046,.3671-1.4907,1.1664-1.4631,1.8813,.0276,.7148,.5796,1.5566,1.031,2.0758,.5677,.653,2.3833,.5652,2.7897,.4413,1.3135-.5673,2.5956-1.1984,3.7904-2.0207,1.1516-.7924,2.1755-1.7081,3.1425-2.702,.3393-.3495,.4167-.7643,.2272-1.2207-.1519-.363-.2863-.38-.5415-.0797-.173,.203-.3191,.48-.5414,.5781-.5415,.2384-1.1198,.3912-1.6824,.5788l-.058-.1074c.2997-.6217,.5985-1.2401,1.1776-1.6776,.1722-.1301,.3268-.2978,.4516-.4752,.1857-.2664,.0898-.5778-.2156-.6851-.1769-.0624-.3839-.0807-.5714-.0629-2.6223,.2452-5.2416,.5236-7.8648,.7441-1.4512,.1218-2.9171,.0842-4.3635,.2383-1.5064,.161-3.0129,.3954-4.4187,1.0336-.1084,.0488-.3007-.0068-.4188-.075-.7077-.4099-1.3846-.8813-2.1165-1.2401-.3423-.1672-.7842-.146-1.1826-.1693-.0967-.0057-.3036,.1765-.2901,.2264,.1866,.6932-.3316,1.1834-.5366,1.7438-.1519,.4152-.3201,.8044-.3259,1.2477-.0019,.1833,.0502,.3699,.0281,.5487-.0174,.1422-.1112,.2747-.1838,.4419,.2292,.0924,.4158,.1678,.6363,.2568-.3452,.3867-.6769,.7575-1.0085,1.1284-1.8371,2.0503-2.4144,4.4761-2.015,7.138,.2775,1.8464,1.3411,3.2396,2.8765,4.2616Z"/><g><path d="M8.9767,12.3797l.6631,.4756-1.3125,1.8291,1.1338,.8135,1.3125-1.8291,.6699,.4805-1.3125,1.8291,1.9229,1.3799-.6084,.8486-4.3896-3.1504,1.9209-2.6768Z"/><path d="M11.4025,9.8983l3.7451,3.8945-.7529,.7236-3.7441-3.8945,.752-.7236Z"/><path d="M14.4094,7.4559l4.6748,1.6318-1.9053-3.2539,.8809-.5156,2.7305,4.6621-.7744,.4531-4.7236-1.6758,1.9375,3.3076-.8818,.5166-2.7295-4.6631,.791-.4629Z"/><path d="M22.3205,3.8846l3.8574,3.1045-.7041-3.7041,1.0029-.1914,1.0098,5.3086-.8818,.167-3.8887-3.1621,.7158,3.7656-1.0029,.1904-1.0088-5.3076,.9004-.1709Z"/><path d="M33.0168,3.4178l-.0791,.8115-2.2402-.2188-.1357,1.3896,2.2402,.2188-.0801,.8203-2.2402-.2188-.2305,2.3555-1.0391-.1016,.5254-5.377,3.2793,.3203Z"/><path d="M38.506,4.9774c.5176,.2129,.9385,.5117,1.2646,.8955,.3252,.3848,.5273,.8281,.6074,1.3311s.0215,.9932-.1768,1.4727c-.1924,.4668-.4912,.8506-.8955,1.1514-.4033,.3008-.8604,.4746-1.3701,.5225-.5088,.0479-1.0254-.0361-1.5498-.2529-.5176-.2129-.9414-.5186-1.2725-.917-.3301-.3994-.5332-.8428-.6074-1.332-.0742-.4902-.0127-.9717,.1826-1.4463,.1885-.457,.4844-.8389,.8857-1.1445,.4023-.3057,.8574-.4844,1.3633-.5361,.5068-.0518,1.0293,.0342,1.5684,.2559Zm-2.8203,1.8369c-.1367,.3311-.1846,.6602-.1436,.9863s.166,.6182,.374,.874,.4814,.4531,.8203,.5928c.5127,.2119,1,.2246,1.4629,.0391s.7988-.5322,1.0088-1.04c.1357-.3311,.1846-.6602,.1455-.9873s-.1641-.6201-.375-.877c-.21-.2568-.4854-.4551-.8232-.5947-.3389-.1396-.6738-.1914-1.0039-.1572-.3311,.0352-.624,.1543-.8779,.3584-.2539,.2031-.4502,.4717-.5879,.8057Z"/><path d="M45.339,9.2342c.3857,.3301,.6094,.7051,.6699,1.127,.0605,.4209-.0557,.8037-.3486,1.1465-.1992,.2334-.4336,.3848-.7021,.4561-.2686,.0703-.5645,.0537-.8867-.0488,.0703,.1826,.1055,.3789,.1035,.5869-.002,.209-.0508,.5215-.1455,.9395-.1748,.7119-.2812,1.2139-.3203,1.5059l-.8857-.7559c.0166-.1416,.0576-.3564,.1221-.6436,.1465-.6309,.2314-1.0684,.2549-1.3105,.0244-.2422,.0146-.4375-.0293-.585-.043-.1475-.1289-.2754-.2559-.3838l-.2891-.2461-1.4814,1.7344-.7939-.6777,3.5088-4.1084,1.4795,1.2637Zm-1.6768,1.5996c.208,.1768,.415,.2646,.623,.2617,.207-.002,.3877-.0938,.542-.2744,.1611-.1875,.2217-.3789,.1836-.5723s-.166-.3838-.3828-.5693l-.4941-.4219-.9775,1.1436,.5059,.4326Z"/><path d="M49.7746,14.0087c.3027,.4307,.4863,.9209,.5518,1.4707l-.7588,.5332c-.0459-.6514-.1934-1.1543-.4424-1.5088-.1514-.2148-.3115-.3545-.4795-.417-.1689-.0625-.3232-.0449-.4619,.0527-.167,.1172-.2412,.3389-.2236,.6641,.002,.0928,.0557,.4189,.1592,.9795,.085,.4834,.0791,.8779-.0176,1.1855-.0957,.3066-.29,.5635-.583,.7695-.3799,.2676-.7822,.3457-1.207,.2373-.4258-.1094-.791-.3818-1.0967-.8154-.1982-.2832-.3389-.5479-.4199-.7949s-.1338-.5508-.1602-.9111l.8418-.5918c-.0605,.748,.0566,1.3311,.3506,1.749,.1465,.209,.3105,.3457,.4912,.4102,.1816,.0654,.3467,.0449,.4971-.0605,.2041-.1436,.292-.373,.2637-.6865-.0293-.2568-.0762-.582-.1416-.9746-.0859-.459-.085-.8486,.0049-1.1689,.0908-.3203,.2744-.5781,.5527-.7744,.3711-.2607,.7646-.3311,1.1787-.209,.415,.1211,.7822,.4082,1.1006,.8613Z"/></g><polygon class="cls-1" points="7.541 39.563 9.0928 37.8312 6.8033 37.9821 7.541 39.563"/><path d="M5.7116,25.8751c.0692,.012,.1368,.018,.2029,.018,.2158,0,.4152-.064,.5987-.192,.2397-.1683,.3858-.4003,.4381-.6973,.0502-.2928-.0098-.5588-.1818-.7996-.1711-.2397-.4013-.3857-.6913-.436-.068-.0118-.1345-.0176-.1995-.0176-.217,0-.4174,.0656-.6011,.1966-.2388,.1702-.384,.4003-.4341,.6904-.0513,.2968,.0078,.5648,.1769,.8035,.1693,.2388,.3994,.3839,.6913,.4341Z"/><polygon points="8.9247 34.1726 5.2349 33.3749 8.3483 31.2113 8.1376 30.1294 3.2373 33.5943 3.306 33.951 9.1345 35.2467 8.9247 34.1726"/><path d="M11.6552,37.3362c-.0617-.0225-.1223-.0337-.182-.0337-.0713,0-.1412,.0161-.2097,.0482-.1314,.061-.2194,.1596-.2659,.2948-.0464,.1354-.0406,.265,.0175,.3887,.059,.1267,.1556,.2137,.291,.2631,.0617,.0225,.1224,.0336,.1821,.0336,.0714,0,.1416-.016,.2106-.0482,.1237-.057,.2098-.1556,.259-.2938,.0494-.1384,.0456-.2679-.0106-.3897-.059-.1256-.1567-.2137-.292-.263Z"/><path d="M9.9128,36.8547l-5.8381,.2668,.4632,.9921,1.4127-.0832,1.0162,2.1766-.9543,1.0645,.4661,.9979,3.8859-4.4477-.4515-.967Zm-2.3718,2.7083l-.7377-1.5809,2.2895-.1509-1.5518,1.7318Z"/><path d="M10.5055,36.5696c.0626,.0209,.1233,.0314,.1819,.0314,.0709,0,.1388-.0153,.204-.0461,.1237-.0571,.2108-.1545,.261-.2919,.0492-.1373,.0454-.2688-.0135-.3946-.058-.1237-.1556-.2126-.293-.2649-.064-.025-.127-.0374-.1888-.0374-.0699,0-.1385,.0158-.2056,.047-.1287,.06-.2156,.1586-.2621,.2969-.0464,.1382-.0406,.2698,.0175,.3936,.0609,.1305,.1605,.2195,.2987,.266Z"/><path d="M13.5106,43.0186c-.1005-.5443-.316-1.0219-.6458-1.4318-.348-.4313-.733-.6943-1.1544-.7881-.105-.0236-.2078-.0353-.3087-.0353-.304,0-.5886,.1071-.8537,.3206-.265,.2137-.4321,.4835-.5009,.8083-.0696,.3258-.0454,.7146,.0706,1.1671,.09,.3877,.1586,.7088,.2041,.963,.0493,.3114-.0242,.5455-.2185,.703-.0981,.0783-.2059,.1176-.3235,.1176-.0538,0-.1097-.0082-.1677-.0247-.1856-.0533-.3578-.179-.5182-.3781-.3201-.3974-.4747-.9718-.4631-1.722-.2672,.2149-.5344,.4299-.8016,.6449,.0494,.3577,.1228,.6565,.2194,.8983,.0969,.2416,.2534,.4969,.471,.7657,.3327,.414,.7145,.6614,1.1458,.7426,.0945,.0178,.1874,.0266,.2785,.0266,.3255,0,.629-.1135,.9108-.3408,.2794-.2253,.4573-.4941,.5327-.8064,.0764-.3123,.0561-.7078-.0589-1.1835-.1401-.553-.2147-.8751-.2234-.9679-.0386-.3229,.0213-.5483,.1808-.6759,.0894-.0723,.1874-.1082,.2946-.1082,.0518,0,.1058,.0085,.1619,.0252,.1731,.0513,.3414,.1798,.5067,.3847,.2717,.3375,.4515,.8297,.5386,1.4775,.241-.1941,.4819-.388,.7231-.5822Z"/><polygon points="17.9623 46.3448 14.1334 43.3173 13.6276 43.9576 15.1322 45.1479 12.2876 48.7456 13.1065 49.3934 15.9512 45.7946 17.4556 46.9849 17.9623 46.3448"/><polygon points="21.3985 48.8374 21.7438 48.0978 18.5791 46.6203 16.2934 51.5167 19.5075 53.0163 19.8524 52.2777 17.5851 51.2189 18.2349 49.8276 20.3582 50.8187 20.7034 50.079 18.58 49.0879 19.1805 47.8019 21.3985 48.8374"/><path d="M24.6116,48.8219c-.6353-.1299-1.2705-.2598-1.9058-.3896-.361,1.7645-.722,3.5291-1.0829,5.2937,.3409,.0695,.6819,.1393,1.0229,.2089l.4574-2.2354,.3712,.0763c.1645,.0329,.3008,.1044,.411,.2118,.1093,.1083,.2118,.2737,.3085,.4979,.0966,.2233,.233,.6469,.4108,1.2706,.0823,.2823,.1499,.4892,.2042,.6215,.3803,.0778,.7606,.1555,1.1409,.2332-.1073-.2748-.2562-.7649-.4486-1.4736-.118-.411-.2272-.7078-.3268-.8916-.0995-.1838-.2244-.3383-.3751-.4631,.3326-.0667,.5994-.1954,.8006-.3878,.201-.1915,.3315-.438,.3934-.7387,.0909-.4418,.0068-.8325-.2495-1.172-.2571-.3393-.6342-.5598-1.1321-.6622Zm.3211,1.637c-.0485,.233-.1616,.4002-.3424,.5027-.1171,.0667-.2532,.1003-.4079,.1003-.0827,0-.1708-.0096-.2641-.0288-.2172-.0445-.4344-.0889-.6517-.1334,.1005-.4912,.2011-.9824,.3017-1.4736,.2124,.0432,.4247,.0864,.6372,.1296,.2803,.058,.4834,.1624,.611,.3132,.1267,.1509,.1653,.3471,.1161,.5898Z"/><path d="M30.6025,51.6908l-.001-.0464c.2428-.1199,.4265-.2755,.5491-.4689,.1238-.1924,.1808-.4128,.1721-.6603-.0144-.3859-.1816-.7029-.5037-.9486-.2987-.2295-.673-.3443-1.1219-.3443-.0333,0-.067,.0007-.1012,.002-.6599,.0239-1.3196,.0477-1.9794,.0715,.0658,1.8,.1315,3.6002,.1974,5.4001,.7535-.0277,1.507-.0554,2.2606-.0832,.3684-.0135,.6864-.0842,.9543-.2128,.2678-.1285,.4738-.3131,.6178-.5549,.145-.2407,.2117-.5116,.201-.8103-.0125-.3374-.1285-.6274-.347-.8712-.2196-.2437-.5183-.4012-.8983-.4728Zm-1.9125-1.6177c.2501-.009,.5002-.0181,.7504-.0272l.049-.0008c.2167,0,.3965,.0546,.537,.1635,.1518,.1169,.2311,.2794,.2387,.4882,.0087,.2348-.0646,.4206-.2194,.5579-.1557,.1374-.3704,.2108-.6469,.2214-.2189,.0077-.4377,.0156-.6565,.0233-.0175-.4755-.0349-.9508-.0523-1.4263Zm1.8314,3.5079c-.176,.1393-.4399,.2147-.7928,.2282l-.9012,.0329c-.0184-.5089-.0367-1.0178-.0551-1.5267,.3271-.0118,.6543-.0239,.9814-.0357,.0253-.001,.05-.0015,.0745-.0015,.2673,0,.4853,.0584,.6536,.1735,.1838,.1267,.2805,.3045,.2881,.5337,.0097,.2573-.0734,.4564-.2484,.5956Z"/><path d="M37.9615,48.6431c-.3877-.3307-.8295-.5366-1.3267-.6169-.1571-.0253-.316-.038-.4767-.038-.3474,0-.7028,.0593-1.0663,.1783-.554,.1807-1.0065,.4554-1.3585,.8237-.3521,.3683-.5811,.7986-.6885,1.2927-.1074,.4932-.0842,.9747,.0687,1.4456,.1594,.4882,.4263,.8934,.8005,1.2183,.3742,.3239,.817,.5298,1.3266,.6179,.1726,.0301,.3464,.0452,.5213,.0452,.3428,0,.6902-.0576,1.0422-.1729,.5395-.1759,.9872-.4475,1.343-.815,.3568-.3663,.5908-.7957,.703-1.287,.1121-.4911,.0899-.9765-.0667-1.457-.1605-.4921-.4351-.9041-.822-1.2347Zm-.2919,3.0138c-.2311,.4418-.6101,.7493-1.1371,.9215-.228,.074-.451,.1112-.6689,.1112-.1149,0-.2285-.0103-.3405-.0309-.325-.0591-.6082-.1992-.8518-.4216-.2427-.2214-.4206-.5029-.5318-.8431-.1113-.3432-.1373-.6749-.0764-.994,.062-.3201,.207-.6005,.4351-.8422,.2292-.2417,.5183-.4196,.8664-.5328,.2291-.0751,.4535-.1125,.6734-.1125,.1143,0,.2272,.0101,.3391,.0303,.3267,.0589,.6119,.1992,.8536,.4225,.2427,.2234,.4197,.5057,.5309,.8461,.1701,.5222,.1401,1.0046-.0919,1.4456Z"/><polygon points="42.6868 45.0502 42.2294 44.3743 38.185 47.1058 38.6422 47.7826 40.2318 46.7084 42.799 50.5092 43.6643 49.9252 41.0972 46.1243 42.6868 45.0502"/><polygon points="46.3842 40.9543 45.7711 40.4167 42.5533 44.087 43.1674 44.6247 44.432 43.1821 47.8809 46.2065 48.5694 45.4213 45.1205 42.397 46.3842 40.9543"/><polygon points="50.6124 41.0549 49.2568 40.3346 50.3571 38.2654 49.6369 37.8815 48.5365 39.9517 47.2833 39.2855 48.432 37.1235 47.7117 36.7406 46.0729 39.8241 50.8435 42.3602 52.5075 39.2284 51.7871 38.8456 50.6124 41.0549"/><polygon points="49.0809 31.7654 52.758 32.6003 48.3712 34.8968 48.168 35.7911 53.4376 36.9853 53.663 35.9894 49.926 35.1424 54.3775 32.8401 54.5758 31.9646 49.3071 30.7696 49.0809 31.7654"/><path d="M51.64,23.8699c-.064,0-.1293,.0057-.196,.0172-.295,.0494-.5271,.1943-.6971,.4323-.1701,.2378-.2301,.5057-.1788,.8035,.0492,.2919,.1953,.523,.437,.6922,.1872,.1311,.3889,.1965,.605,.1965,.0629,0,.1273-.0055,.1927-.0166,.2949-.0502,.5269-.1953,.6952-.436,.1683-.2399,.2272-.5057,.1779-.7949-.0502-.2979-.1953-.5309-.4341-.699-.1849-.1298-.3855-.1953-.6016-.1953Z"/><path d="M28.7489,46.9916c10.0751,0,18.2434-8.1674,18.2434-18.2424S38.824,10.5062,28.7489,10.5062,10.5065,18.6741,10.5065,28.7492s8.1674,18.2424,18.2424,18.2424Zm-16.2919-11.3591c-.452-1.0685-.7976-2.1821-1.0301-3.3187-.2398-1.1719-.3592-2.3684-.3592-3.5647s.1194-2.3928,.3592-3.5647c.2325-1.1367,.5781-2.2502,1.0301-3.3188,.4444-1.0505,.9915-2.0576,1.6301-3.0026,.6342-.9385,1.3586-1.8159,2.1594-2.6167,.8009-.8009,1.6782-1.5252,2.6165-2.1594,.9451-.6387,1.9521-1.1859,3.0026-1.6302,1.0685-.4521,2.1821-.7978,3.3188-1.0302,1.1719-.2397,2.3683-.3593,3.5646-.3593s2.3927,.1195,3.5647,.3593c1.1366,.2324,2.2503,.5782,3.3188,1.0302,1.0506,.4443,2.0576,.9915,3.0026,1.6302,.9384,.6342,1.8159,1.3585,2.6168,2.1594,.8009,.8009,1.5253,1.6782,2.1595,2.6167,.6387,.945,1.1858,1.9521,1.6303,3.0027,.452,1.0685,.7977,2.182,1.0303,3.3187,.2397,1.1719,.359,2.3684,.359,3.5647s-.1193,2.3928-.359,3.5647c-.2326,1.1366-.5782,2.2502-1.0303,3.3187-.4445,1.0505-.9916,2.0574-1.6303,3.0025-.6342,.9385-1.3586,1.8158-2.1595,2.6166-.801,.8009-1.6783,1.5252-2.6167,2.1593-.9451,.6387-1.9521,1.1859-3.0027,1.6302-1.0685,.452-2.1823,.7976-3.3188,1.0301-1.172,.2398-2.3684,.3593-3.5648,.3593s-2.3928-.1194-3.5646-.3593c-1.1367-.2325-2.2502-.5781-3.3188-1.0301-1.0506-.4443-2.0575-.9915-3.0026-1.6302-.9383-.6341-1.8156-1.3584-2.6165-2.1592-.8008-.8009-1.5252-1.6782-2.1594-2.6166-.6385-.9452-1.1857-1.9521-1.6301-3.0026Z"/><path class="cls-2" d="M17.4514,2.758c-.1616,.0706-.3214,.1445-.4814,.218-.3807,.1747-.7567,.3577-1.1281,.5486-.1409,.0724-.2833,.1422-.4227,.2169-.4857,.2599-.9641,.5319-1.4324,.8188-.1027,.0629-.202,.1308-.3038,.1949-.3764,.2372-.7469,.4827-1.1111,.7368-.1453,.1014-.2897,.204-.433,.3081-.3595,.2609-.7123,.5302-1.0588,.8073-.0931,.0745-.189,.1454-.2811,.2211-.4236,.3475-.8358,.7085-1.2385,1.0796-.1137,.1048-.2237,.2135-.3357,.3201-.3023,.2877-.5984,.5818-.8879,.8826-.1183,.123-.2372,.2455-.3534,.3706-.3639,.3919-.72,.7912-1.0615,1.2032l-.0735,.0891c-.3394,.4128-.664,.838-.9801,1.2698-.1017,.139-.2004,.2803-.2997,.4211-.2402,.3409-.4728,.6874-.6981,1.0391-.0845,.1319-.1714,.2621-.2537,.3955-.2889,.4678-.5662,.9435-.8282,1.4287-.057,.1056-.1088,.2143-.1645,.3207-.2072,.3959-.4055,.7971-.5943,1.2036-.0754,.1622-.1492,.3253-.2215,.4892-.181,.41-.3522,.8252-.5141,1.2451-.0442,.1146-.0925,.2271-.1352,.3424-.1932,.5215-.3695,1.051-.5323,1.5862-.0469,.1542-.0883,.3108-.1327,.4661-.1166,.4086-.2245,.8209-.3229,1.2367-.0413,.1744-.0833,.3486-.1213,.5242-.1158,.5344-.2203,1.0729-.3054,1.6179-.2233,1.4308-.3411,2.8962-.3411,4.3887,0,15.6302,12.7155,28.3467,28.3462,28.3467l.0202-.0005c.6667-.0005,1.3261-.032,1.9814-.078,.1574-.011,.3148-.0223,.4715-.036,.6484-.0563,1.2921-.1293,1.9274-.2288,.0803-.0126,.1592-.0296,.2393-.0428,.5797-.0959,1.1527-.2116,1.7201-.3423,.1382-.0318,.277-.062,.4144-.0959,.6164-.1519,1.2257-.3218,1.8256-.5134,.1064-.0339,.2108-.0722,.3166-.1074,.5384-.179,1.0696-.3736,1.5932-.5836,.1047-.0419,.2108-.0812,.3148-.1243,.5829-.2419,1.1555-.5035,1.7181-.7825,.109-.054,.2162-.111,.3244-.1664,.5256-.2692,1.0433-.5518,1.5494-.8522,.0526-.0312,.1066-.06,.1589-.0915,.5473-.3297,1.0804-.6804,1.6029-1.0452,.0967-.0675,.1923-.1364,.2882-.2051,1.051-.7533,2.0488-1.5756,2.986-2.462,.076-.0719,.152-.144,.2272-.2167,.9413-.9101,1.8198-1.8843,2.6287-2.9162,.0519-.0663,.1047-.1318,.1561-.1985,.4026-.5231,.7894-1.0591,1.1555-1.6102,.0202-.0304,.0391-.0617,.0591-.0922,.355-.5387,.6911-1.0908,1.0095-1.6542,.0274-.0485,.0562-.096,.0833-.1447,.3248-.5827,.6292-1.1783,.9131-1.7852,.0269-.0576,.0521-.116,.0787-.1738,.2765-.6014,.5351-1.2126,.7698-1.8356,.0067-.0179,.0144-.0354,.0211-.0533,.0562-.1506,.1099-.3023,.1635-.4541l.0193-.057c.2574-.7301,.4869-1.4733,.6852-2.2289,.1866-.7111,.3401-1.4352,.4717-2.1667,.017-.095,.035-.1898,.0511-.2852,.1184-.6998,.2104-1.4084,.2762-2.1246,.0112-.1235,.0187-.2482,.0284-.3722,.0566-.7197,.093-1.4449,.0941-2.1788l.001-.0409c0-.5279-.0172-1.0517-.0458-1.5726-.0278-.5067-.0704-1.0095-.1247-1.5089-.0205-.1887-.0476-.3753-.0718-.5629-.0459-.3563-.0968-.7109-.1559-1.0629-.0341-.2028-.0703-.4049-.1086-.6063-.0666-.3496-.1411-.6963-.2204-1.0413-.0416-.1808-.0804-.3629-.1255-.5424-.1188-.4737-.2485-.9431-.3909-1.4071-.0157-.0512-.03-.103-.046-.1541-.2169-.6913-.4653-1.3682-.7325-2.0355l-.0144-.0364c-.5056-1.2587-1.0985-2.472-1.7722-3.6344l-.027-.0469c-.1697-.2914-.3437-.5798-.5232-.8644l-.0309-.0481c-.3194-.5042-.6535-.998-1.0032-1.48l-.0372-.0522c-.1227-.1685-.2465-.3362-.3727-.5018-.0151-.0197-.0309-.0388-.046-.0585-.2967-.3868-.6038-.7651-.9196-1.1359-.0478-.0561-.0965-.1113-.1447-.167-.2899-.3352-.5876-.6635-.8927-.9846-.0572-.0602-.1142-.1205-.1719-.1802-.3162-.3271-.6401-.6465-.9715-.9582-.0422-.0397-.0833-.0804-.1257-.1199-1.1373-1.0568-2.3615-2.0209-3.66-2.8817-.0809-.0536-.1638-.1046-.2454-.1574-.3409-.221-.6865-.4354-1.0372-.6419-.1174-.0691-.2357-.1365-.3542-.2039-.324-.1846-.6524-.3624-.9842-.5345-.1312-.0679-.2621-.1363-.3944-.2023-.3405-.1698-.6859-.331-1.0339-.4873-.1198-.0537-.238-.1103-.3586-.1624-.4379-.1893-.8812-.3683-1.3301-.5358-.0302-.0112-.0594-.0243-.0897-.0355-.4822-.1781-.9714-.3418-1.4655-.4939-.1302-.04-.2631-.0739-.394-.1121-.3573-.1043-.7164-.2044-1.0793-.2949-.1837-.0457-.3696-.0862-.5547-.1284-.3168-.0721-.6351-.1403-.9558-.2017-.2031-.0388-.407-.0751-.6116-.1095-.3121-.0526-.6262-.0989-.9415-.1412-.2073-.0278-.4144-.0563-.6232-.0795-.3329-.0372-.6686-.0648-1.005-.0901-.1907-.0144-.3802-.033-.5719-.0436-.4694-.0259-.9421-.0395-1.4173-.0422-.0545-.0003-.1082-.0042-.1628-.0042-.0286,0-.0568,.0021-.0854,.0021-.5554,.0017-1.1061,.0226-1.6533,.0563-.1602,.0098-.3191,.0241-.4785,.0365-.4584,.0361-.9141,.0815-1.366,.1395-.1182,.015-.2369,.0287-.3547,.0452-1.1924,.1682-2.3625,.4074-3.5035,.7183l-.0427,.0121c-.752,.2059-1.4939,.4366-2.2197,.7017-.0352,.0129-.0698,.0266-.1049,.0396-.5039,.1865-.9993,.3903-1.4893,.6042Zm16.8903-1.2291c.5325,.1093,1.058,.2372,1.5789,.3766,.1349,.0361,.2671,.0782,.4011,.1162,.0384,.0109,.0767,.0223,.115,.0333,.1345,.0388,.2693,.0759,.4029,.1167,.2249,.0686,.4484,.1402,.6709,.2144,.1713,.0571,.3409,.1172,.5107,.1776,.257,.0912,.5132,.1833,.7667,.2819,.1143,.0445,.2268,.0919,.3405,.1378,.1513,.0612,.3027,.1217,.4526,.1854,.4003,.1702,.7949,.3508,1.1854,.5389,.0922,.0444,.187,.0839,.2785,.1293l.0723,.0354c.4726,.236,.937,.486,1.3939,.7476,.0992,.0568,.195,.1187,.2935,.1767,.0438,.0258,.087,.0526,.1306,.0787,.1249,.0745,.2497,.1484,.3734,.2248,.1962,.1213,.3914,.2438,.5843,.3698,.1484,.0969,.294,.1972,.4404,.2968,.2211,.1505,.4423,.3004,.6588,.457,.0915,.0662,.1804,.1353,.271,.2026,.1393,.1034,.2781,.2069,.4155,.3127,.3142,.2422,.6216,.4924,.925,.7476,.0935,.0786,.191,.1523,.2835,.2322,.0284,.0246,.0562,.0499,.0846,.0745,.3943,.3434,.7795,.6968,1.1539,1.0615,.0543,.0529,.1052,.1091,.1591,.1624,.0562,.0555,.1101,.1132,.1658,.1693,.1068,.1075,.2128,.2153,.3179,.3246,.1595,.1659,.3187,.3318,.4741,.5016,.1179,.1289,.2317,.2613,.3472,.3924,.1767,.2005,.3545,.3998,.5255,.6053,.0672,.0809,.1306,.1645,.1969,.2461,.1166,.1435,.2319,.2878,.3458,.4336,.2305,.2953,.4535,.5962,.6721,.9009,.0776,.1082,.1606,.2121,.2368,.3215,.0278,.04,.0537,.0814,.0814,.1215,.297,.4315,.5849,.8696,.8577,1.3181,.08,.1315,.154,.2669,.2306,.4006,.078,.1331,.1533,.2674,.2291,.4019,.0848,.1472,.1712,.2932,.252,.4427,.1989,.3685,.3815,.7466,.564,1.1248,.0588,.1219,.1246,.2396,.1818,.3625,.2827,.6083,.5369,1.232,.7758,1.8631,.0808,.2136,.1552,.4297,.2308,.6458,.1718,.4902,.3293,.9864,.4739,1.4885,.0555,.1927,.1158,.3829,.1671,.5773,.1769,.6688,.3301,1.3468,.4572,2.0342,.0319,.1726,.0542,.3482,.0828,.5219,.0917,.555,.1667,1.1151,.2248,1.6805,.0222,.2159,.0444,.4311,.0615,.6484,.0562,.7095,.0938,1.4241,.0953,2.1475,0,.0192,.0025,.0378,.0025,.0571,0,.5532-.0209,1.1014-.0529,1.6467-.0089,.151-.0231,.3004-.0344,.4507-.0297,.3958-.0665,.7894-.1127,1.1804-.0202,.1708-.0418,.341-.0651,.5109-.0534,.3898-.1159,.7765-.1854,1.1609-.0261,.1441-.0491,.289-.0774,.4323-.2062,1.0465-.4712,2.0717-.7917,3.0728-.0439,.1372-.0925,.2722-.1385,.4084-.1229,.3641-.252,.7251-.3895,1.0823-.0593,.1541-.1198,.3075-.1818,.4603-.1437,.3542-.2952,.7042-.4529,1.051-.0589,.1295-.1152,.2603-.176,.3887-.4446,.9395-.9402,1.8499-1.4836,2.7283-.0736,.119-.151,.2349-.2263,.3527-.2043,.3195-.414,.6349-.6309,.9453-.0929,.1329-.1868,.2649-.2819,.3962-.2219,.3062-.4506,.6069-.6846,.9035-.0864,.1096-.1706,.2207-.2586,.329-.649,.7982-1.3413,1.5594-2.0734,2.2809-.0999,.0984-.2029,.1932-.3043,.2902-.2723,.2604-.5491,.5159-.8318,.7653-.1214,.1071-.2435,.213-.3668,.3179-.2878,.2451-.5812,.4834-.879,.7168-.0767,.0601-.1491,.1254-.2265,.1848-.033,.0253-.0682,.0479-.1013,.073-.8881,.675-1.8193,1.295-2.7862,1.8611-.1172,.0686-.2346,.1362-.3528,.2031-1.0499,.5942-2.1414,1.1216-3.2702,1.5775-.1288,.0521-.2579,.103-.3876,.1531-1.1351,.4386-2.3055,.8041-3.5065,1.092-.1391,.0333-.2783,.0655-.4181,.0967-1.2061,.2693-2.441,.4595-3.7001,.5658-.1479,.0125-.2959,.0237-.4445,.0339-.6326,.0433-1.2687,.0732-1.912,.0732-.5939,0-1.1818-.0251-1.7666-.0621-.1588-.01-.3163-.0235-.4743-.0362-.4582-.0368-.9131-.0846-1.3648-.1434-.136-.0177-.2728-.0323-.4082-.0521-.5687-.0826-1.1322-.1806-1.6892-.2973-.0947-.0198-.1874-.0444-.2818-.0652-.468-.1031-.9313-.2185-1.3902-.345-.1523-.042-.3039-.0851-.4551-.1296-.463-.1362-.9211-.2833-1.3737-.4427-.0809-.0284-.1631-.0533-.2437-.0826-.5283-.1916-1.0479-.4006-1.5609-.6229-.1209-.0524-.2394-.1088-.3594-.1628-.4047-.1823-.804-.3737-1.1982-.5744-.1295-.066-.2594-.1309-.3878-.1989-.9869-.5225-1.938-1.1024-2.8503-1.7357-.1163-.0807-.2307-.1636-.3456-.246-.3667-.2629-.7265-.5343-1.0797-.8143-.0905-.0718-.1828-.1412-.2724-.2141-.4329-.3521-.8558-.7157-1.2665-1.0927-.0591-.0543-.1156-.1113-.1743-.1661-.3511-.3278-.6929-.6652-1.0267-1.0106-.0958-.0991-.1909-.1985-.2852-.299-.3453-.3681-.6822-.744-1.0074-1.1304-.0333-.0395-.0683-.0773-.1013-.1169-.3605-.4333-.706-.8792-1.0401-1.334-.0671-.0915-.1313-.1851-.1974-.2774-.269-.3757-.5286-.7582-.7791-1.1475-.0677-.1053-.1364-.2098-.2028-.316-.5735-.9185-1.0955-1.8718-1.5605-2.8577-.0546-.1158-.1055-.2336-.1586-.3503-.1641-.3607-.3212-.725-.47-1.0937-.0564-.1397-.1119-.2797-.1661-.4205-.1445-.3754-.28-.7548-.4084-1.1378-.0399-.1188-.0823-.2364-.1207-.356-.3218-1.005-.5873-2.0344-.7939-3.0852-.0275-.14-.0502-.2816-.0756-.4222-.0699-.3871-.1326-.7766-.1862-1.1691-.0228-.1669-.0441-.334-.0639-.5018-.0463-.392-.083-.7867-.1127-1.1835-.0112-.1496-.0253-.2982-.0342-.4485-.0319-.5443-.0527-1.0914-.0527-1.6435,0-.6548,.0298-1.3025,.0747-1.9461,.0127-.1828,.0319-.3635,.0481-.5454,.0421-.4696,.095-.9358,.1603-1.3984,.0274-.1946,.0544-.389,.0858-.5823,.0829-.5092,.1802-1.0133,.2905-1.5128,.0256-.1161,.0454-.2341,.0725-.3497,.1406-.5997,.3024-1.1909,.4813-1.775,.0145-.0472,.0242-.0964,.0389-.1436,.0383-.123,.0886-.2405,.1287-.3629,.1439-.4393,.2972-.874,.4622-1.3033,.047-.1225,.0861-.2487,.1348-.3702,.0396-.099,.0864-.1941,.1271-.2925,.1758-.4244,.3637-.8423,.5597-1.2559,.0637-.1343,.1207-.2722,.1865-.4053,.0609-.1236,.1283-.243,.191-.3655,.2144-.4184,.4366-.8319,.6713-1.2378,.0502-.0869,.0986-.1748,.1498-.2611,.0993-.1677,.2061-.33,.3088-.4954,.1804-.2903,.3664-.5762,.5571-.8593,.0932-.1382,.1819-.2794,.2775-.4158,.0808-.1156,.1611-.2311,.2437-.3453,.2512-.3475,.5142-.6856,.7807-1.0209,.0598-.0751,.1149-.1537,.1754-.2281,.0314-.0387,.0646-.0757,.0963-.1143,.1739-.2121,.356-.4163,.5361-.623,.1891-.217,.3783-.4336,.5739-.6446,.0837-.0903,.1672-.1802,.252-.2693,.1647-.1732,.3307-.3444,.4998-.5133,.2001-.1998,.4071-.3923,.6132-.5861,.1304-.1226,.2592-.2466,.392-.3667,.2692-.2436,.5452-.4783,.8237-.7113,.2025-.1694,.4005-.344,.6078-.5077,.0571-.0451,.1194-.0838,.1769-.1285,.4219-.3278,.8564-.6383,1.297-.9418,.1741-.12,.3449-.2435,.5218-.3596,.4451-.2919,.9025-.5646,1.3647-.8311,.1884-.1088,.3731-.2227,.5643-.3271,.459-.2505,.9299-.48,1.4041-.7049,.2086-.0991,.413-.2049,.6244-.2989,.4644-.2062,.9401-.3894,1.4174-.5704,.2336-.0887,.4625-.186,.699-.2686,.4651-.162,.941-.2991,1.417-.4366,.2589-.075,.5128-.1606,.7747-.2283,.4664-.1201,.9429-.2128,1.4185-.3089,.2805-.0568,.556-.1266,.8394-.1749,.4824-.082,.9742-.1334,1.4647-.1899,.2838-.0328,.5627-.0812,.849-.1054,.6186-.0521,1.2463-.07,1.8757-.0807,.1597-.0027,.3157-.0205,.476-.0205,.5745,0,1.1435,.0232,1.7095,.0577,.1509,.0092,.3005,.0228,.4508,.0344,.4259,.033,.849,.0751,1.2693,.1272,.1558,.0193,.3116,.0376,.4666,.0594,.5027,.0709,1.0016,.1533,1.4953,.2507,.0464,.0092,.0936,.0157,.14,.0251,.0203,.0041,.0411,.0068,.0613,.011Z"/><path class="cls-2" d="M50.1149,11.0104c-.171-.2056-.3488-.4048-.5255-.6053,.106,.1203,.2073,.2448,.3113,.3669,.0693,.0814,.1458,.1563,.2142,.2385Z"/></svg>