<?xml version="1.0" encoding="utf-8"?>
<!-- Generator: Adobe Illustrator 26.0.3, SVG Export Plug-In . SVG Version: 6.00 Build 0)  -->
<svg version="1.1" id="Lager_1" xmlns="http://www.w3.org/2000/svg" xmlns:xlink="http://www.w3.org/1999/xlink" x="0px" y="0px"
	 viewBox="0 0 198.43 566.93" style="enable-background:new 0 0 198.43 566.93;" xml:space="preserve">
<style type="text/css">
	.st0{fill:url(#SVGID_1_);}
	.st1{opacity:0.9;}
	.st2{fill:#A7CCDF;}
	.st3{opacity:0.8;}
	.st4{opacity:0.8;fill:#A7CCDF;}
	.st5{fill:url(#SVGID_00000137098311399121596280000011593064880325809053_);}
	.st6{fill:#0D87BD;}
	.st7{fill:#F4E8CA;}
	.st8{fill:#D1DDE6;}
	.st9{fill:#0285BA;}
	.st10{fill-rule:evenodd;clip-rule:evenodd;fill:#0285BA;}
</style>
<linearGradient id="SVGID_1_" gradientUnits="userSpaceOnUse" x1="99.2126" y1="-159.3925" x2="99.2126" y2="566.9291">
	<stop  offset="0.2362" style="stop-color:#D1263A"/>
	<stop  offset="0.2549" style="stop-color:#D53B3A"/>
	<stop  offset="0.3087" style="stop-color:#E06538"/>
	<stop  offset="0.3564" style="stop-color:#E97E35"/>
	<stop  offset="0.3957" style="stop-color:#F08D33"/>
	<stop  offset="0.4216" style="stop-color:#F39333"/>
	<stop  offset="0.4694" style="stop-color:#D09153"/>
	<stop  offset="0.539" style="stop-color:#A08E79"/>
	<stop  offset="0.6027" style="stop-color:#778C94"/>
	<stop  offset="0.6585" style="stop-color:#508BA7"/>
	<stop  offset="0.7041" style="stop-color:#2A8AB3"/>
	<stop  offset="0.7339" style="stop-color:#0D8AB7"/>
	<stop  offset="0.7671" style="stop-color:#1481AD"/>
	<stop  offset="0.8275" style="stop-color:#1D6D97"/>
	<stop  offset="0.9076" style="stop-color:#22507B"/>
	<stop  offset="0.9216" style="stop-color:#224B76"/>
</linearGradient>
<polygon class="st0" points="0,566.93 198.43,566.92 198.43,0 0,0 "/>
<g>
	<g class="st1">
		<path class="st2" d="M53.82,260.01c0.25,0,0.49,0.06,0.71,0.19v0.44c-0.26-0.16-0.5-0.24-0.7-0.24c-0.12,0-0.22,0.02-0.29,0.07
			c-0.07,0.05-0.1,0.11-0.1,0.19c0,0.1,0.06,0.18,0.19,0.27c0.04,0.02,0.18,0.09,0.42,0.2c0.21,0.1,0.36,0.21,0.45,0.33
			c0.09,0.12,0.14,0.26,0.14,0.43c0,0.22-0.08,0.39-0.24,0.53c-0.16,0.13-0.36,0.2-0.61,0.2c-0.16,0-0.3-0.02-0.42-0.05
			c-0.12-0.04-0.25-0.1-0.39-0.18v-0.48c0.27,0.23,0.53,0.34,0.77,0.34c0.12,0,0.22-0.03,0.29-0.08c0.07-0.05,0.11-0.12,0.11-0.21
			c0-0.12-0.06-0.21-0.19-0.29c-0.11-0.06-0.24-0.13-0.41-0.21c-0.2-0.09-0.35-0.2-0.45-0.32c-0.1-0.12-0.15-0.26-0.15-0.42
			c0-0.21,0.08-0.38,0.24-0.51C53.35,260.07,53.56,260.01,53.82,260.01z"/>
		<path class="st2" d="M56,260.88v1.05c0,0.11,0.03,0.19,0.08,0.25c0.06,0.06,0.13,0.09,0.22,0.09c0.08,0,0.15-0.02,0.22-0.07
			c0.07-0.05,0.12-0.11,0.17-0.19v-1.12h0.45v1.7h-0.45v-0.23c-0.16,0.18-0.34,0.26-0.52,0.26c-0.18,0-0.33-0.06-0.44-0.18
			c-0.11-0.12-0.17-0.27-0.17-0.47v-1.09H56z"/>
		<path class="st2" d="M59.08,260.85c0.13,0,0.24,0.03,0.33,0.09c0.09,0.06,0.16,0.14,0.2,0.25c0.1-0.12,0.19-0.2,0.29-0.26
			c0.1-0.05,0.2-0.08,0.31-0.08c0.18,0,0.32,0.06,0.43,0.18c0.11,0.12,0.17,0.27,0.17,0.47v1.09h-0.45v-1.01
			c0-0.12-0.03-0.21-0.08-0.28c-0.05-0.07-0.12-0.1-0.22-0.1c-0.14,0-0.27,0.09-0.39,0.26v1.13h-0.45v-1.02
			c0-0.12-0.03-0.21-0.08-0.27c-0.05-0.07-0.12-0.1-0.21-0.1c-0.07,0-0.14,0.02-0.2,0.06c-0.06,0.04-0.13,0.11-0.19,0.2v1.13h-0.45
			v-1.7h0.45v0.24c0.08-0.09,0.16-0.16,0.25-0.2S58.97,260.85,59.08,260.85z"/>
		<path class="st2" d="M62.75,260.85c0.13,0,0.24,0.03,0.33,0.09c0.09,0.06,0.16,0.14,0.2,0.25c0.1-0.12,0.19-0.2,0.29-0.26
			s0.2-0.08,0.31-0.08c0.18,0,0.32,0.06,0.43,0.18c0.11,0.12,0.17,0.27,0.17,0.47v1.09h-0.45v-1.01c0-0.12-0.03-0.21-0.08-0.28
			c-0.05-0.07-0.12-0.1-0.22-0.1c-0.14,0-0.27,0.09-0.39,0.26v1.13H62.9v-1.02c0-0.12-0.03-0.21-0.08-0.27
			c-0.05-0.07-0.12-0.1-0.21-0.1c-0.07,0-0.14,0.02-0.2,0.06c-0.06,0.04-0.13,0.11-0.19,0.2v1.13h-0.45v-1.7h0.45v0.24
			c0.08-0.09,0.16-0.16,0.25-0.2C62.55,260.87,62.64,260.85,62.75,260.85z"/>
		<path class="st2" d="M66.2,260.85c0.25,0,0.45,0.08,0.59,0.24c0.15,0.16,0.22,0.38,0.22,0.66v0.07h-1.2
			c0.02,0.15,0.07,0.27,0.17,0.35c0.1,0.08,0.23,0.12,0.39,0.12c0.11,0,0.21-0.02,0.31-0.06c0.1-0.04,0.2-0.09,0.31-0.17v0.33
			c-0.2,0.14-0.44,0.21-0.72,0.21c-0.27,0-0.49-0.08-0.66-0.24c-0.17-0.16-0.25-0.38-0.25-0.64c0-0.26,0.08-0.47,0.24-0.63
			C65.75,260.93,65.95,260.85,66.2,260.85z M66.59,261.55c-0.01-0.12-0.05-0.22-0.11-0.29c-0.06-0.07-0.15-0.1-0.26-0.1
			c-0.11,0-0.2,0.03-0.27,0.1c-0.07,0.07-0.11,0.16-0.13,0.29H66.59z"/>
		<path class="st2" d="M68.88,260.85c0.06,0,0.12,0.01,0.18,0.04c0.06,0.03,0.12,0.07,0.2,0.13l-0.16,0.39
			c-0.13-0.1-0.23-0.15-0.31-0.15c-0.07,0-0.14,0.03-0.2,0.08c-0.07,0.05-0.12,0.12-0.16,0.2c-0.04,0.08-0.06,0.17-0.06,0.25v0.77
			h-0.45v-1.7h0.45v0.43h0.01c0.08-0.16,0.16-0.28,0.25-0.36C68.69,260.88,68.78,260.85,68.88,260.85z"/>
		<path class="st2" d="M72.16,260.85c0.09,0,0.18,0.01,0.26,0.03c0.08,0.02,0.17,0.05,0.26,0.1v0.36c-0.08-0.05-0.18-0.1-0.27-0.13
			c-0.1-0.03-0.18-0.05-0.26-0.05c-0.06,0-0.11,0.01-0.15,0.04c-0.04,0.02-0.05,0.06-0.05,0.1c0,0.03,0.02,0.05,0.05,0.08
			c0.03,0.03,0.11,0.07,0.25,0.14c0.19,0.1,0.33,0.19,0.41,0.27c0.08,0.08,0.12,0.18,0.12,0.3c0,0.16-0.06,0.29-0.17,0.39
			c-0.11,0.09-0.27,0.14-0.46,0.14c-0.12,0-0.23-0.01-0.34-0.04c-0.1-0.03-0.19-0.06-0.26-0.1v-0.37c0.22,0.12,0.4,0.18,0.55,0.18
			c0.08,0,0.14-0.01,0.19-0.04c0.05-0.03,0.07-0.06,0.07-0.11c0-0.03-0.01-0.05-0.03-0.07c-0.02-0.02-0.04-0.04-0.08-0.07
			c-0.03-0.02-0.14-0.08-0.32-0.17c-0.14-0.07-0.24-0.14-0.3-0.21c-0.07-0.08-0.1-0.17-0.1-0.27c0-0.15,0.06-0.27,0.18-0.36
			C71.82,260.89,71.97,260.85,72.16,260.85z"/>
		<path class="st2" d="M74.47,260.85c0.18,0,0.34,0.04,0.48,0.11c0.14,0.07,0.26,0.18,0.33,0.31c0.08,0.13,0.12,0.28,0.12,0.45
			c0,0.18-0.04,0.33-0.11,0.46c-0.08,0.13-0.19,0.24-0.33,0.31c-0.15,0.08-0.31,0.11-0.49,0.11c-0.18,0-0.34-0.04-0.49-0.11
			c-0.15-0.08-0.26-0.18-0.33-0.31c-0.08-0.13-0.11-0.29-0.11-0.46c0-0.17,0.04-0.32,0.12-0.46c0.08-0.13,0.19-0.24,0.33-0.31
			C74.13,260.88,74.29,260.85,74.47,260.85z M74.01,261.72c0,0.17,0.04,0.3,0.12,0.41c0.08,0.1,0.19,0.15,0.33,0.15
			c0.15,0,0.26-0.05,0.34-0.15c0.08-0.1,0.13-0.24,0.13-0.42c0-0.17-0.04-0.3-0.13-0.4c-0.08-0.09-0.2-0.14-0.34-0.14
			c-0.14,0-0.25,0.05-0.33,0.15C74.05,261.43,74.01,261.56,74.01,261.72z"/>
		<path class="st2" d="M76.74,260.04v2.54h-0.45v-2.54H76.74z"/>
		<path class="st2" d="M78.28,260.85c0.09,0,0.18,0.01,0.26,0.03c0.08,0.02,0.17,0.05,0.26,0.1v0.36c-0.08-0.05-0.18-0.1-0.27-0.13
			c-0.1-0.03-0.18-0.05-0.26-0.05c-0.06,0-0.11,0.01-0.15,0.04c-0.04,0.02-0.05,0.06-0.05,0.1c0,0.03,0.02,0.05,0.05,0.08
			c0.03,0.03,0.11,0.07,0.25,0.14c0.19,0.1,0.33,0.19,0.41,0.27c0.08,0.08,0.12,0.18,0.12,0.3c0,0.16-0.06,0.29-0.17,0.39
			c-0.11,0.09-0.27,0.14-0.46,0.14c-0.12,0-0.23-0.01-0.34-0.04c-0.1-0.03-0.19-0.06-0.26-0.1v-0.37c0.22,0.12,0.4,0.18,0.55,0.18
			c0.08,0,0.14-0.01,0.19-0.04c0.05-0.03,0.07-0.06,0.07-0.11c0-0.03-0.01-0.05-0.03-0.07c-0.02-0.02-0.04-0.04-0.08-0.07
			c-0.03-0.02-0.14-0.08-0.32-0.17c-0.14-0.07-0.24-0.14-0.3-0.21c-0.07-0.08-0.1-0.17-0.1-0.27c0-0.15,0.06-0.27,0.18-0.36
			C77.94,260.89,78.09,260.85,78.28,260.85z"/>
		<path class="st2" d="M80.25,260.43h0.04v0.45h0.58v0.34h-0.58V262c0,0.08,0.02,0.14,0.07,0.19c0.05,0.05,0.11,0.07,0.19,0.07
			c0.1,0,0.22-0.04,0.36-0.11v0.36c-0.16,0.07-0.31,0.11-0.45,0.11c-0.19,0-0.34-0.05-0.45-0.16c-0.11-0.1-0.16-0.25-0.16-0.42
			v-0.81h-0.27v-0.07L80.25,260.43z"/>
		<path class="st2" d="M81.94,260.09c0.07,0,0.13,0.02,0.18,0.07c0.05,0.05,0.07,0.11,0.07,0.18c0,0.07-0.02,0.13-0.07,0.18
			c-0.05,0.05-0.11,0.08-0.18,0.08c-0.07,0-0.13-0.03-0.18-0.08c-0.05-0.05-0.08-0.11-0.08-0.18c0-0.07,0.03-0.13,0.08-0.18
			C81.81,260.12,81.87,260.09,81.94,260.09z M82.16,260.88v1.7h-0.45v-1.7H82.16z"/>
		<path class="st2" d="M83.95,260.85c0.2,0,0.38,0.04,0.54,0.11v0.38c-0.16-0.09-0.31-0.14-0.45-0.14c-0.15,0-0.28,0.05-0.37,0.14
			c-0.1,0.1-0.15,0.22-0.15,0.39c0,0.16,0.05,0.29,0.15,0.38c0.1,0.1,0.23,0.15,0.39,0.15c0.12,0,0.28-0.04,0.47-0.12v0.36
			c-0.18,0.07-0.36,0.11-0.54,0.11c-0.27,0-0.5-0.08-0.67-0.24c-0.17-0.16-0.26-0.37-0.26-0.63c0-0.27,0.08-0.49,0.25-0.65
			C83.46,260.93,83.68,260.85,83.95,260.85z"/>
		<path class="st2" d="M86.12,260.85c0.25,0,0.45,0.08,0.59,0.24c0.15,0.16,0.22,0.38,0.22,0.66v0.07h-1.2
			c0.02,0.15,0.07,0.27,0.17,0.35c0.1,0.08,0.23,0.12,0.39,0.12c0.11,0,0.21-0.02,0.31-0.06c0.1-0.04,0.2-0.09,0.31-0.17v0.33
			c-0.2,0.14-0.44,0.21-0.72,0.21c-0.27,0-0.49-0.08-0.66-0.24c-0.17-0.16-0.25-0.38-0.25-0.64c0-0.26,0.08-0.47,0.24-0.63
			C85.67,260.93,85.87,260.85,86.12,260.85z M86.51,261.55c-0.01-0.12-0.05-0.22-0.11-0.29c-0.06-0.07-0.15-0.1-0.26-0.1
			c-0.11,0-0.2,0.03-0.27,0.1c-0.07,0.07-0.11,0.16-0.13,0.29H86.51z"/>
		<path class="st2" d="M90.07,260.01c0.24,0,0.43,0.07,0.57,0.21c0.14,0.14,0.21,0.32,0.21,0.55c0,0.17-0.05,0.36-0.16,0.57
			c-0.11,0.2-0.29,0.47-0.56,0.81h0.87v0.44h-1.64v-0.05c0.19-0.24,0.36-0.45,0.49-0.64s0.24-0.34,0.32-0.47
			c0.08-0.12,0.13-0.23,0.16-0.32c0.03-0.09,0.05-0.18,0.05-0.27c0-0.12-0.04-0.21-0.11-0.29c-0.07-0.08-0.17-0.12-0.27-0.12
			c-0.19,0-0.39,0.11-0.6,0.33v-0.5C89.62,260.09,89.84,260.01,90.07,260.01z"/>
		<path class="st2" d="M92.69,260.04v2.54h-0.47v-2.54H92.69z"/>
		<path class="st2" d="M96.37,260.04v2.44c0,0.27-0.07,0.49-0.22,0.65c-0.15,0.16-0.34,0.24-0.58,0.24c-0.02,0-0.03,0-0.05,0
			c-0.02,0-0.03,0-0.05,0l-0.03-0.42c0.29,0,0.44-0.17,0.44-0.51v-2.4H96.37z"/>
		<path class="st2" d="M97.86,260.88v1.05c0,0.11,0.03,0.19,0.08,0.25c0.06,0.06,0.13,0.09,0.22,0.09c0.08,0,0.15-0.02,0.22-0.07
			c0.07-0.05,0.12-0.11,0.17-0.19v-1.12h0.45v1.7h-0.45v-0.23c-0.16,0.18-0.34,0.26-0.52,0.26c-0.18,0-0.33-0.06-0.44-0.18
			c-0.11-0.12-0.17-0.27-0.17-0.47v-1.09H97.86z"/>
		<path class="st2" d="M100.94,260.85c0.18,0,0.33,0.06,0.44,0.18c0.11,0.12,0.16,0.28,0.16,0.47v1.08h-0.45v-1.03
			c0-0.11-0.03-0.2-0.08-0.26c-0.05-0.06-0.12-0.1-0.22-0.1c-0.07,0-0.13,0.02-0.19,0.06c-0.06,0.04-0.13,0.11-0.2,0.2v1.13h-0.45
			v-1.7h0.45v0.24c0.08-0.1,0.17-0.17,0.25-0.21C100.75,260.87,100.84,260.85,100.94,260.85z"/>
		<path class="st2" d="M103.26,260.85c0.25,0,0.45,0.08,0.59,0.24c0.15,0.16,0.22,0.38,0.22,0.66v0.07h-1.2
			c0.02,0.15,0.07,0.27,0.17,0.35c0.1,0.08,0.23,0.12,0.39,0.12c0.11,0,0.21-0.02,0.31-0.06c0.1-0.04,0.2-0.09,0.31-0.17v0.33
			c-0.2,0.14-0.44,0.21-0.72,0.21c-0.27,0-0.49-0.08-0.66-0.24c-0.17-0.16-0.25-0.38-0.25-0.64c0-0.26,0.08-0.47,0.24-0.63
			C102.8,260.93,103,260.85,103.26,260.85z M103.65,261.55c-0.01-0.12-0.05-0.22-0.11-0.29c-0.06-0.07-0.15-0.1-0.26-0.1
			c-0.11,0-0.2,0.03-0.27,0.1c-0.07,0.07-0.11,0.16-0.13,0.29H103.65z"/>
		<path class="st2" d="M107.33,260.01c0.26,0,0.46,0.12,0.61,0.35c0.15,0.23,0.23,0.55,0.23,0.95c0,0.4-0.07,0.72-0.22,0.96
			c-0.15,0.23-0.35,0.35-0.61,0.35c-0.26,0-0.47-0.12-0.62-0.35c-0.15-0.23-0.23-0.55-0.23-0.95c0-0.4,0.08-0.72,0.23-0.95
			C106.86,260.12,107.07,260.01,107.33,260.01z M106.96,261.32c0,0.58,0.12,0.87,0.37,0.87c0.24,0,0.36-0.31,0.36-0.92
			c0-0.57-0.12-0.86-0.37-0.86C107.08,260.42,106.96,260.72,106.96,261.32z"/>
		<path class="st2" d="M109.81,260.01c0.16,0,0.3,0.04,0.43,0.11c0.13,0.08,0.23,0.18,0.29,0.32c0.07,0.14,0.1,0.29,0.1,0.47
			c0,0.27-0.08,0.55-0.24,0.86c-0.16,0.31-0.38,0.59-0.65,0.84h-0.55c0.14-0.12,0.3-0.29,0.46-0.51c0.16-0.21,0.27-0.4,0.34-0.57
			c-0.09,0.04-0.19,0.06-0.29,0.06c-0.2,0-0.37-0.07-0.5-0.22c-0.13-0.14-0.2-0.33-0.2-0.55c0-0.15,0.03-0.28,0.1-0.41
			c0.07-0.13,0.17-0.22,0.29-0.3C109.52,260.04,109.66,260.01,109.81,260.01z M109.47,260.82c0,0.11,0.03,0.21,0.1,0.28
			c0.06,0.07,0.15,0.11,0.25,0.11c0.1,0,0.18-0.04,0.25-0.11c0.07-0.07,0.1-0.16,0.1-0.26c0-0.12-0.03-0.22-0.1-0.3
			c-0.07-0.08-0.15-0.11-0.26-0.11c-0.1,0-0.18,0.04-0.25,0.11C109.5,260.6,109.47,260.7,109.47,260.82z"/>
		<path class="st2" d="M111.78,260.88c0.08,0,0.14,0.03,0.2,0.08c0.06,0.05,0.08,0.12,0.08,0.2c0,0.08-0.03,0.14-0.08,0.19
			c-0.06,0.05-0.12,0.08-0.2,0.08c-0.08,0-0.14-0.03-0.2-0.08c-0.06-0.06-0.08-0.12-0.08-0.2c0-0.08,0.03-0.14,0.08-0.2
			C111.63,260.91,111.7,260.88,111.78,260.88z M111.78,262.05c0.08,0,0.14,0.03,0.2,0.08c0.06,0.06,0.08,0.12,0.08,0.19
			c0,0.08-0.03,0.15-0.08,0.2c-0.06,0.05-0.12,0.08-0.2,0.08c-0.08,0-0.14-0.03-0.2-0.08c-0.06-0.06-0.08-0.12-0.08-0.2
			c0-0.08,0.03-0.14,0.08-0.2C111.63,262.08,111.7,262.05,111.78,262.05z"/>
		<path class="st2" d="M113.79,260.04v2.54h-0.47v-2.54H113.79z"/>
		<path class="st2" d="M115.64,260.01c0.23,0,0.42,0.06,0.57,0.18c0.14,0.12,0.22,0.27,0.22,0.46c0,0.26-0.12,0.45-0.35,0.58
			c0.14,0.05,0.24,0.13,0.31,0.24c0.07,0.11,0.1,0.24,0.1,0.39c0,0.23-0.08,0.41-0.24,0.55c-0.16,0.14-0.36,0.21-0.62,0.21
			c-0.2,0-0.4-0.05-0.58-0.14v-0.45c0.1,0.07,0.2,0.12,0.28,0.15c0.09,0.03,0.17,0.05,0.26,0.05c0.12,0,0.22-0.03,0.29-0.1
			c0.08-0.07,0.11-0.15,0.11-0.26c0-0.12-0.04-0.21-0.13-0.28c-0.08-0.07-0.2-0.11-0.34-0.11h-0.03v-0.39h0.02
			c0.14,0,0.24-0.03,0.32-0.09c0.08-0.06,0.11-0.14,0.11-0.24c0-0.1-0.04-0.18-0.11-0.24c-0.07-0.06-0.17-0.09-0.28-0.09
			c-0.14,0-0.29,0.04-0.45,0.11v-0.4C115.27,260.04,115.44,260.01,115.64,260.01z"/>
		<path class="st2" d="M117.74,260.88c0.08,0,0.14,0.03,0.2,0.08c0.06,0.05,0.08,0.12,0.08,0.2c0,0.08-0.03,0.14-0.08,0.19
			c-0.06,0.05-0.12,0.08-0.2,0.08c-0.08,0-0.14-0.03-0.2-0.08c-0.06-0.06-0.08-0.12-0.08-0.2c0-0.08,0.03-0.14,0.08-0.2
			C117.59,260.91,117.66,260.88,117.74,260.88z M117.74,262.05c0.08,0,0.14,0.03,0.2,0.08c0.06,0.06,0.08,0.12,0.08,0.19
			c0,0.08-0.03,0.15-0.08,0.2c-0.06,0.05-0.12,0.08-0.2,0.08c-0.08,0-0.14-0.03-0.2-0.08c-0.06-0.06-0.08-0.12-0.08-0.2
			c0-0.08,0.03-0.14,0.08-0.2C117.59,262.08,117.66,262.05,117.74,262.05z"/>
		<path class="st2" d="M120.31,260.01v1.48h0.22v0.37h-0.22v0.72h-0.47v-0.72h-1.04v-0.3l1.24-1.56H120.31z M119.84,260.78
			l-0.56,0.71h0.57v-0.71H119.84z"/>
		<path class="st2" d="M122.15,260.01c0.16,0,0.3,0.04,0.43,0.11c0.13,0.08,0.23,0.18,0.29,0.32c0.07,0.14,0.1,0.29,0.1,0.47
			c0,0.27-0.08,0.55-0.24,0.86c-0.16,0.31-0.38,0.59-0.65,0.84h-0.55c0.14-0.12,0.3-0.29,0.46-0.51c0.16-0.21,0.27-0.4,0.34-0.57
			c-0.09,0.04-0.19,0.06-0.29,0.06c-0.2,0-0.37-0.07-0.5-0.22c-0.13-0.14-0.2-0.33-0.2-0.55c0-0.15,0.03-0.28,0.1-0.41
			c0.07-0.13,0.17-0.22,0.29-0.3C121.87,260.04,122,260.01,122.15,260.01z M121.81,260.82c0,0.11,0.03,0.21,0.1,0.28
			c0.06,0.07,0.15,0.11,0.25,0.11c0.1,0,0.18-0.04,0.25-0.11c0.07-0.07,0.1-0.16,0.1-0.26c0-0.12-0.03-0.22-0.1-0.3
			c-0.07-0.08-0.15-0.11-0.26-0.11c-0.1,0-0.18,0.04-0.25,0.11S121.81,260.7,121.81,260.82z"/>
		<path class="st2" d="M126.59,260.01c-0.2,0.23-0.35,0.49-0.45,0.77s-0.15,0.59-0.15,0.94c0,0.34,0.05,0.65,0.15,0.94
			c0.1,0.28,0.25,0.54,0.45,0.78h-0.3c-0.25-0.22-0.44-0.48-0.58-0.79c-0.14-0.31-0.21-0.62-0.21-0.92c0-0.31,0.07-0.62,0.21-0.93
			c0.14-0.31,0.34-0.57,0.58-0.78H126.59z"/>
		<path class="st2" d="M127.92,260.04v1.48c0,0.15,0.02,0.27,0.07,0.36c0.05,0.09,0.12,0.16,0.22,0.22c0.1,0.06,0.22,0.09,0.36,0.09
			c0.15,0,0.28-0.03,0.38-0.08c0.1-0.06,0.18-0.13,0.23-0.23c0.05-0.1,0.07-0.23,0.07-0.4v-1.44h0.49v1.51c0,0.34-0.1,0.6-0.31,0.79
			c-0.2,0.18-0.49,0.28-0.87,0.28c-0.23,0-0.44-0.04-0.61-0.13c-0.17-0.08-0.3-0.2-0.4-0.36c-0.09-0.16-0.14-0.34-0.14-0.56v-1.53
			H127.92z"/>
		<path class="st2" d="M132.91,260.04v0.38h-0.9v2.15h-0.49v-2.15h-0.9v-0.38H132.91z"/>
		<path class="st2" d="M135.03,260.01c0.14,0,0.29,0.02,0.42,0.05c0.14,0.03,0.29,0.09,0.45,0.17v0.46
			c-0.16-0.09-0.3-0.15-0.43-0.19c-0.13-0.04-0.27-0.06-0.42-0.06c-0.18,0-0.34,0.04-0.49,0.11c-0.15,0.07-0.26,0.18-0.34,0.32
			c-0.08,0.14-0.12,0.29-0.12,0.45c0,0.17,0.04,0.32,0.12,0.46c0.08,0.13,0.19,0.24,0.34,0.31c0.15,0.07,0.31,0.11,0.49,0.11
			c0.14,0,0.27-0.02,0.4-0.06c0.13-0.04,0.29-0.11,0.48-0.22v0.46c-0.16,0.09-0.32,0.15-0.45,0.18c-0.14,0.04-0.3,0.05-0.48,0.05
			c-0.27,0-0.51-0.05-0.72-0.16c-0.21-0.11-0.38-0.26-0.5-0.46c-0.12-0.2-0.18-0.42-0.18-0.66c0-0.26,0.06-0.49,0.19-0.69
			c0.12-0.2,0.29-0.36,0.51-0.47C134.51,260.06,134.75,260.01,135.03,260.01z"/>
		<path class="st2" d="M137.85,260.35v0.71h0.71v0.4h-0.71v0.71h-0.4v-0.71h-0.71v-0.4h0.71v-0.71H137.85z"/>
		<path class="st2" d="M140.31,260.01c0.26,0,0.46,0.12,0.61,0.35c0.15,0.23,0.23,0.55,0.23,0.95c0,0.4-0.07,0.72-0.22,0.96
			c-0.15,0.23-0.35,0.35-0.61,0.35c-0.26,0-0.47-0.12-0.62-0.35c-0.15-0.23-0.23-0.55-0.23-0.95c0-0.4,0.08-0.72,0.23-0.95
			C139.84,260.12,140.05,260.01,140.31,260.01z M139.93,261.32c0,0.58,0.12,0.87,0.37,0.87c0.24,0,0.36-0.31,0.36-0.92
			c0-0.57-0.12-0.86-0.37-0.86C140.06,260.42,139.93,260.72,139.93,261.32z"/>
		<path class="st2" d="M142.9,260.01c0.26,0,0.46,0.12,0.61,0.35c0.15,0.23,0.23,0.55,0.23,0.95c0,0.4-0.07,0.72-0.22,0.96
			c-0.15,0.23-0.35,0.35-0.61,0.35c-0.26,0-0.47-0.12-0.62-0.35c-0.15-0.23-0.23-0.55-0.23-0.95c0-0.4,0.08-0.72,0.23-0.95
			C142.43,260.12,142.64,260.01,142.9,260.01z M142.52,261.32c0,0.58,0.12,0.87,0.37,0.87c0.24,0,0.36-0.31,0.36-0.92
			c0-0.57-0.12-0.86-0.37-0.86C142.65,260.42,142.52,260.72,142.52,261.32z"/>
		<path class="st2" d="M144.67,260.01c0.24,0.2,0.43,0.46,0.58,0.77c0.15,0.31,0.22,0.62,0.22,0.94c0,0.31-0.07,0.62-0.21,0.92
			s-0.34,0.57-0.58,0.79h-0.3c0.21-0.25,0.36-0.51,0.46-0.79c0.1-0.28,0.15-0.59,0.15-0.93c0-0.35-0.05-0.66-0.15-0.94
			c-0.1-0.28-0.25-0.54-0.45-0.77H144.67z"/>
	</g>
	<g class="st3">
		<path class="st4" d="M82.24,274.85v4.65c0,0.48,0.07,0.86,0.21,1.14c0.14,0.28,0.38,0.51,0.7,0.7c0.32,0.18,0.7,0.27,1.13,0.27
			c0.47,0,0.87-0.09,1.2-0.26c0.33-0.17,0.57-0.41,0.72-0.71c0.15-0.3,0.23-0.71,0.23-1.24v-4.55h1.54v4.75
			c0,1.08-0.32,1.9-0.97,2.48c-0.64,0.58-1.56,0.87-2.73,0.87c-0.74,0-1.38-0.13-1.93-0.39c-0.54-0.26-0.96-0.64-1.24-1.14
			s-0.43-1.08-0.43-1.75v-4.81H82.24z"/>
		<path class="st4" d="M92.81,274.85l2.63,3.15l2.63-3.15h1.38v7.99h-1.54v-5.61h-0.05l-2.31,2.81h-0.22l-2.31-2.81h-0.05v5.61
			h-1.54v-7.99H92.81z"/>
		<path class="st4" d="M108.08,274.85v1.21h-3.62v2.1h3.47v1.21h-3.47v2.27h3.7v1.21h-5.25v-7.99H108.08z"/>
		<path class="st4" d="M115.47,274.85l3.53,7.99h-1.63l-0.83-1.95h-3.55l-0.77,1.95h-1.62l3.3-7.99H115.47z M113.45,279.72h2.58
			l-1.35-3.16L113.45,279.72z M115.99,273.04c0,0.34-0.12,0.64-0.36,0.88s-0.54,0.37-0.89,0.37c-0.35,0-0.64-0.12-0.89-0.36
			c-0.24-0.24-0.37-0.54-0.37-0.89c0-0.34,0.12-0.63,0.37-0.88c0.25-0.25,0.54-0.37,0.88-0.37c0.35,0,0.64,0.13,0.89,0.38
			C115.87,272.42,115.99,272.71,115.99,273.04z M114.74,273.73c0.19,0,0.35-0.07,0.48-0.21c0.13-0.14,0.2-0.3,0.2-0.47
			c0-0.18-0.07-0.34-0.21-0.47s-0.3-0.21-0.49-0.21c-0.17,0-0.33,0.07-0.46,0.2c-0.14,0.14-0.21,0.29-0.21,0.48
			c0,0.19,0.07,0.35,0.2,0.48C114.39,273.66,114.55,273.73,114.74,273.73z"/>
		<path class="st4" d="M68.73,291.78v6.78h3.88v1.21h-5.42v-7.99H68.73z"/>
		<path class="st4" d="M75.06,291.78l1.93,2.67l1.96-2.67h1.84l-3.02,4.03v3.96h-1.54v-3.97l-3.04-4.02H75.06z"/>
		<path class="st4" d="M86.73,291.68c0.45,0,0.9,0.05,1.33,0.15c0.43,0.1,0.9,0.28,1.41,0.53v1.45c-0.49-0.28-0.95-0.49-1.36-0.61
			s-0.85-0.19-1.31-0.19c-0.57,0-1.08,0.12-1.54,0.35c-0.46,0.23-0.81,0.57-1.07,0.99c-0.25,0.43-0.38,0.9-0.38,1.42
			c0,0.53,0.13,1.01,0.38,1.44c0.25,0.42,0.61,0.75,1.06,0.98c0.46,0.23,0.97,0.35,1.54,0.35c0.44,0,0.86-0.06,1.26-0.19
			c0.4-0.13,0.9-0.35,1.51-0.68v1.45c-0.52,0.27-1,0.46-1.43,0.58c-0.43,0.11-0.94,0.17-1.52,0.17c-0.84,0-1.6-0.17-2.26-0.5
			c-0.66-0.34-1.19-0.82-1.56-1.45c-0.38-0.63-0.57-1.32-0.57-2.07c0-0.8,0.2-1.53,0.59-2.17c0.39-0.64,0.93-1.13,1.61-1.48
			C85.1,291.85,85.87,291.68,86.73,291.68z"/>
		<path class="st4" d="M94.29,291.78v3.69h0.03l2.93-3.69h1.76l-2.97,3.76l3.86,4.23h-1.98l-3.62-3.92v3.92h-1.54v-7.99H94.29z"/>
		<path class="st4" d="M104.67,291.68c0.78,0,1.53,0.19,2.25,0.58v1.37c-0.83-0.5-1.56-0.75-2.2-0.75c-0.39,0-0.69,0.08-0.91,0.23
			c-0.22,0.15-0.33,0.35-0.33,0.6c0,0.3,0.2,0.58,0.61,0.84c0.11,0.08,0.55,0.29,1.32,0.64c0.66,0.31,1.13,0.65,1.42,1.03
			c0.29,0.38,0.43,0.83,0.43,1.36c0,0.69-0.25,1.24-0.74,1.66c-0.49,0.42-1.13,0.63-1.92,0.63c-0.51,0-0.95-0.06-1.32-0.17
			c-0.37-0.11-0.78-0.31-1.24-0.58v-1.52c0.85,0.71,1.66,1.06,2.41,1.06c0.38,0,0.68-0.08,0.92-0.25c0.23-0.16,0.35-0.38,0.35-0.65
			c0-0.37-0.2-0.67-0.61-0.9c-0.34-0.18-0.77-0.4-1.3-0.66c-0.63-0.29-1.1-0.62-1.41-1c-0.31-0.38-0.47-0.82-0.47-1.33
			c0-0.67,0.25-1.21,0.75-1.6C103.19,291.88,103.85,291.68,104.67,291.68z"/>
		<path class="st4" d="M115.52,291.78v1.21h-3.62v2.1h3.47v1.21h-3.47v2.27h3.7v1.21h-5.25v-7.99H115.52z"/>
		<path class="st4" d="M120.32,291.78v6.78h3.88v1.21h-5.42v-7.99H120.32z"/>
		<path class="st4" d="M131.99,291.78v1.21h-3.62v2.1h3.47v1.21h-3.47v2.27h3.7v1.21h-5.25v-7.99H131.99z"/>
		<path class="st4" d="M63.21,308.62c0.78,0,1.53,0.19,2.25,0.58v1.37c-0.83-0.5-1.56-0.75-2.2-0.75c-0.39,0-0.69,0.08-0.91,0.23
			c-0.22,0.15-0.33,0.35-0.33,0.6c0,0.3,0.2,0.58,0.61,0.84c0.11,0.08,0.55,0.29,1.32,0.64c0.66,0.31,1.13,0.65,1.42,1.03
			c0.29,0.38,0.43,0.83,0.43,1.36c0,0.69-0.25,1.24-0.74,1.66c-0.49,0.42-1.13,0.63-1.92,0.63c-0.51,0-0.95-0.06-1.32-0.17
			c-0.37-0.11-0.78-0.31-1.24-0.58v-1.52c0.85,0.71,1.66,1.06,2.41,1.06c0.38,0,0.68-0.08,0.92-0.25c0.23-0.16,0.35-0.38,0.35-0.65
			c0-0.37-0.2-0.67-0.61-0.9c-0.34-0.18-0.77-0.4-1.3-0.66c-0.63-0.29-1.1-0.62-1.41-1c-0.31-0.38-0.47-0.82-0.47-1.33
			c0-0.67,0.25-1.21,0.75-1.6C61.73,308.82,62.39,308.62,63.21,308.62z"/>
		<path class="st4" d="M75.33,308.72v1.21h-2.84v6.78h-1.54v-6.78h-2.84v-1.21H75.33z"/>
		<path class="st4" d="M81.78,308.62c0.83,0,1.57,0.17,2.23,0.51c0.66,0.34,1.19,0.83,1.58,1.48c0.39,0.64,0.59,1.35,0.59,2.11
			c0,0.75-0.19,1.44-0.57,2.08c-0.38,0.64-0.91,1.13-1.58,1.49c-0.67,0.35-1.42,0.53-2.26,0.53c-0.83,0-1.58-0.18-2.26-0.54
			c-0.68-0.36-1.2-0.85-1.58-1.48c-0.38-0.63-0.57-1.32-0.57-2.08c0-0.73,0.19-1.42,0.57-2.07c0.38-0.64,0.9-1.15,1.56-1.5
			C80.16,308.8,80.92,308.62,81.78,308.62z M78.96,312.72c0,0.53,0.12,1.01,0.36,1.43s0.57,0.75,1,0.98
			c0.43,0.23,0.91,0.35,1.46,0.35c0.82,0,1.49-0.26,2.02-0.77c0.53-0.51,0.79-1.18,0.79-1.99c0-0.53-0.12-1.01-0.36-1.43
			c-0.24-0.43-0.57-0.75-1.01-0.99c-0.43-0.23-0.92-0.35-1.46-0.35c-0.54,0-1.03,0.12-1.46,0.35c-0.43,0.23-0.77,0.56-1,0.98
			C79.08,311.71,78.96,312.19,78.96,312.72z"/>
		<path class="st4" d="M92.14,308.72c0.75,0,1.36,0.21,1.84,0.62c0.47,0.42,0.71,0.96,0.71,1.62c0,0.45-0.12,0.85-0.35,1.19
			s-0.58,0.6-1.04,0.8c0.26,0.14,0.48,0.32,0.68,0.56c0.2,0.24,0.44,0.64,0.74,1.2c0.49,0.97,0.85,1.64,1.09,2h-1.72
			c-0.12-0.18-0.28-0.46-0.48-0.84c-0.44-0.85-0.77-1.42-0.97-1.72c-0.21-0.3-0.4-0.51-0.59-0.63c-0.19-0.12-0.41-0.19-0.66-0.19
			h-0.56v3.38h-1.54v-7.99H92.14z M91.8,312.13c0.4,0,0.72-0.1,0.95-0.3c0.23-0.2,0.35-0.48,0.35-0.83c0-0.37-0.11-0.64-0.34-0.82
			c-0.23-0.18-0.55-0.27-0.98-0.27h-0.96v2.23H91.8z"/>
		<path class="st4" d="M99.68,308.72v4.65c0,0.48,0.07,0.86,0.21,1.14c0.14,0.28,0.38,0.51,0.7,0.7c0.32,0.18,0.7,0.27,1.13,0.27
			c0.47,0,0.87-0.09,1.2-0.26c0.33-0.17,0.57-0.41,0.72-0.71c0.15-0.3,0.23-0.71,0.23-1.24v-4.55h1.54v4.75
			c0,1.08-0.32,1.9-0.97,2.48c-0.64,0.58-1.56,0.87-2.73,0.87c-0.74,0-1.38-0.13-1.93-0.39c-0.54-0.26-0.96-0.64-1.24-1.14
			c-0.29-0.5-0.43-1.08-0.43-1.75v-4.81H99.68z"/>
		<path class="st4" d="M110.24,308.72l2.63,3.15l2.63-3.15h1.38v7.99h-1.54v-5.61h-0.05l-2.31,2.81h-0.22l-2.31-2.81h-0.05v5.61
			h-1.54v-7.99H110.24z"/>
		<path class="st4" d="M124.32,308.72l3.53,7.99h-1.63l-0.83-1.95h-3.55l-0.77,1.95h-1.62l3.3-7.99H124.32z M122.31,313.6h2.58
			l-1.35-3.16L122.31,313.6z"/>
		<path class="st4" d="M131.78,308.72l4.75,5.58v-5.58h1.51v7.99h-1.33l-4.78-5.67v5.67h-1.51v-7.99H131.78z"/>
		<path class="st4" d="M58.19,325.66v3.69h0.03l2.93-3.69h1.76l-2.97,3.76l3.86,4.23h-1.98l-3.62-3.92v3.92h-1.54v-7.99H58.19z"/>
		<path class="st4" d="M67.87,325.66v7.99h-1.54v-7.99H67.87z"/>
		<path class="st4" d="M77.78,325.66v1.21h-2.84v6.78H73.4v-6.78h-2.84v-1.21H77.78z"/>
		<path class="st4" d="M87.42,325.66v1.21h-2.84v6.78h-1.54v-6.78H80.2v-1.21H87.42z"/>
		<path class="st4" d="M95.27,325.66v1.21h-3.62v2.1h3.47v1.21h-3.47v2.27h3.7v1.21H90.1v-7.99H95.27z"/>
		<path class="st4" d="M100.06,325.66v6.78h3.88v1.21h-5.42v-7.99H100.06z"/>
		<path class="st4" d="M111.44,325.66v1.21h-3.33v2.07h3.33v1.22h-3.33v3.5h-1.54v-7.99H111.44z"/>
		<path class="st4" d="M115.95,325.66v7.69c0,0.85-0.23,1.54-0.69,2.05c-0.46,0.51-1.06,0.77-1.82,0.77c-0.05,0-0.1,0-0.15,0
			c-0.05,0-0.1,0-0.15-0.01l-0.11-1.33c0.92,0,1.37-0.54,1.37-1.61v-7.56H115.95z"/>
		<path class="st4" d="M123.41,325.66l3.53,7.99h-1.63l-0.83-1.95h-3.55l-0.77,1.95h-1.62l3.3-7.99H123.41z M122.04,324.16
			c0,0.19-0.07,0.37-0.22,0.53c-0.15,0.16-0.33,0.23-0.54,0.23c-0.2,0-0.38-0.07-0.54-0.22c-0.16-0.15-0.23-0.33-0.23-0.54
			c0-0.21,0.08-0.38,0.23-0.53c0.16-0.15,0.34-0.23,0.54-0.23c0.21,0,0.39,0.08,0.54,0.23
			C121.97,323.78,122.04,323.96,122.04,324.16z M121.4,330.53h2.58l-1.35-3.16L121.4,330.53z M124.86,324.16
			c0,0.21-0.08,0.38-0.23,0.53c-0.15,0.15-0.33,0.23-0.53,0.23c-0.2,0-0.38-0.07-0.53-0.22c-0.15-0.15-0.23-0.33-0.23-0.54
			c0-0.21,0.08-0.38,0.23-0.53c0.15-0.15,0.33-0.23,0.53-0.23c0.2,0,0.37,0.08,0.53,0.23C124.79,323.78,124.86,323.96,124.86,324.16
			z"/>
		<path class="st4" d="M131.06,325.66v6.78h3.88v1.21h-5.42v-7.99H131.06z"/>
		<path class="st4" d="M139.11,325.66v6.78h3.88v1.21h-5.42v-7.99H139.11z"/>
		<path class="st4" d="M50.52,342.6v3.36h4.15v-3.36h1.54v7.99h-1.54v-3.38h-4.15v3.38h-1.54v-7.99H50.52z"/>
		<path class="st4" d="M63.65,342.6l3.53,7.99h-1.63l-0.83-1.95h-3.55l-0.77,1.95h-1.62l3.3-7.99H63.65z M61.64,347.47h2.58
			l-1.35-3.16L61.64,347.47z"/>
		<path class="st4" d="M75.15,342.6v1.21h-2.84v6.78h-1.54v-6.78h-2.84v-1.21H75.15z"/>
		<path class="st4" d="M84.79,342.6v1.21h-2.84v6.78h-1.54v-6.78h-2.84v-1.21H84.79z"/>
		<path class="st4" d="M92.34,342.6v1.21h-3.33v2.07h3.33v1.22h-3.33v3.5h-1.54v-7.99H92.34z"/>
		<path class="st4" d="M96.85,342.6v7.69c0,0.85-0.23,1.54-0.69,2.05c-0.46,0.51-1.06,0.77-1.82,0.77c-0.05,0-0.1,0-0.15,0
			c-0.05,0-0.1,0-0.15-0.01l-0.11-1.33c0.92,0,1.37-0.54,1.37-1.61v-7.56H96.85z"/>
		<path class="st4" d="M105.51,342.6v1.21h-3.62v2.1h3.47v1.21h-3.47v2.27h3.7v1.21h-5.25v-7.99H105.51z"/>
		<path class="st4" d="M110.31,342.6v6.78h3.88v1.21h-5.42v-7.99H110.31z"/>
		<path class="st4" d="M118.36,342.6v6.78h3.88v1.21h-5.42v-7.99H118.36z"/>
		<path class="st4" d="M128.21,342.6c0.83,0,1.57,0.17,2.22,0.51c0.65,0.34,1.15,0.82,1.51,1.43c0.36,0.61,0.54,1.3,0.54,2.07
			c0,0.78-0.18,1.48-0.54,2.08c-0.36,0.6-0.87,1.07-1.54,1.4c-0.66,0.33-1.42,0.5-2.28,0.5h-3.26v-7.99H128.21z M128.05,349.38
			c0.85,0,1.54-0.26,2.06-0.77c0.52-0.51,0.78-1.19,0.78-2.02c0-0.86-0.26-1.54-0.78-2.04c-0.52-0.5-1.22-0.75-2.1-0.75h-1.59v5.58
			H128.05z"/>
		<path class="st4" d="M139.14,342.6l3.53,7.99h-1.63l-0.83-1.95h-3.55l-0.77,1.95h-1.62l3.3-7.99H139.14z M137.12,347.47h2.58
			l-1.35-3.16L137.12,347.47z"/>
		<path class="st4" d="M146.78,342.6v6.78h3.88v1.21h-5.42v-7.99H146.78z"/>
		<path class="st4" d="M64.14,359.53l2.63,3.15l2.63-3.15h1.38v7.99h-1.54v-5.61h-0.05l-2.31,2.81h-0.22l-2.31-2.81h-0.05v5.61
			h-1.54v-7.99H64.14z"/>
		<path class="st4" d="M78.24,359.43c0.83,0,1.57,0.17,2.23,0.51c0.66,0.34,1.19,0.83,1.58,1.48c0.39,0.64,0.59,1.35,0.59,2.11
			c0,0.75-0.19,1.44-0.57,2.08c-0.38,0.64-0.91,1.13-1.58,1.49c-0.67,0.35-1.42,0.53-2.26,0.53c-0.83,0-1.58-0.18-2.26-0.54
			c-0.68-0.36-1.2-0.85-1.58-1.48c-0.38-0.63-0.57-1.32-0.57-2.08c0-0.73,0.19-1.42,0.57-2.07c0.38-0.64,0.9-1.15,1.56-1.5
			C76.62,359.61,77.38,359.43,78.24,359.43z M75.42,363.53c0,0.53,0.12,1.01,0.36,1.43s0.57,0.75,1,0.98
			c0.43,0.23,0.91,0.35,1.46,0.35c0.82,0,1.49-0.26,2.02-0.77c0.53-0.51,0.79-1.18,0.79-1.99c0-0.53-0.12-1.01-0.36-1.43
			c-0.24-0.43-0.57-0.75-1.01-0.99c-0.43-0.23-0.92-0.35-1.46-0.35c-0.54,0-1.03,0.12-1.46,0.35c-0.43,0.23-0.77,0.56-1,0.98
			C75.54,362.52,75.42,363,75.42,363.53z"/>
		<path class="st4" d="M91.27,359.53v7.99h-1.54v-7.99H91.27z"/>
		<path class="st4" d="M101.54,359.53c0.75,0,1.36,0.21,1.84,0.62c0.47,0.42,0.71,0.96,0.71,1.62c0,0.45-0.12,0.85-0.35,1.19
			c-0.23,0.34-0.58,0.6-1.04,0.8c0.26,0.14,0.48,0.32,0.68,0.56c0.2,0.24,0.44,0.64,0.74,1.2c0.49,0.97,0.85,1.64,1.09,2h-1.72
			c-0.12-0.18-0.28-0.46-0.48-0.84c-0.44-0.85-0.77-1.42-0.97-1.72c-0.21-0.3-0.4-0.51-0.59-0.63c-0.19-0.12-0.41-0.19-0.66-0.19
			h-0.56v3.38h-1.54v-7.99H101.54z M101.19,362.94c0.4,0,0.72-0.1,0.95-0.3c0.23-0.2,0.35-0.48,0.35-0.83
			c0-0.37-0.11-0.64-0.34-0.82c-0.23-0.18-0.55-0.27-0.98-0.27h-0.96v2.23H101.19z"/>
		<path class="st4" d="M112.31,359.53l3.53,7.99h-1.63l-0.83-1.95h-3.55l-0.77,1.95h-1.62l3.3-7.99H112.31z M110.3,364.41h2.58
			l-1.35-3.16L110.3,364.41z"/>
		<path class="st4" d="M119.77,359.53l4.75,5.58v-5.58h1.51v7.99h-1.33l-4.78-5.67v5.67h-1.51v-7.99H119.77z"/>
		<path class="st4" d="M133.48,359.53l3.53,7.99h-1.63l-0.83-1.95h-3.55l-0.77,1.95h-1.62l3.3-7.99H133.48z M131.46,364.41h2.58
			l-1.35-3.16L131.46,364.41z"/>
		<path class="st4" d="M51.15,376.47l3.53,7.99h-1.63l-0.83-1.95h-3.55l-0.77,1.95h-1.62l3.3-7.99H51.15z M49.13,381.34h2.58
			l-1.35-3.16L49.13,381.34z"/>
		<path class="st4" d="M60.13,376.47c0.75,0,1.36,0.21,1.84,0.62c0.47,0.42,0.71,0.96,0.71,1.62c0,0.45-0.12,0.85-0.35,1.19
			c-0.23,0.34-0.58,0.6-1.04,0.8c0.26,0.14,0.48,0.32,0.68,0.56c0.2,0.24,0.44,0.64,0.74,1.2c0.49,0.97,0.85,1.64,1.09,2h-1.72
			c-0.12-0.18-0.28-0.46-0.48-0.84c-0.44-0.85-0.77-1.42-0.97-1.72c-0.21-0.3-0.4-0.51-0.59-0.63c-0.19-0.12-0.41-0.19-0.66-0.19
			h-0.56v3.38h-1.54v-7.99H60.13z M59.78,379.88c0.4,0,0.72-0.1,0.95-0.3c0.23-0.2,0.35-0.48,0.35-0.83c0-0.37-0.11-0.64-0.34-0.82
			c-0.23-0.18-0.55-0.27-0.98-0.27h-0.96v2.23H59.78z"/>
		<path class="st4" d="M70.27,376.37c0.45,0,0.9,0.05,1.33,0.15c0.43,0.1,0.9,0.28,1.41,0.53v1.45c-0.49-0.28-0.95-0.49-1.36-0.61
			c-0.42-0.13-0.85-0.19-1.31-0.19c-0.57,0-1.08,0.12-1.54,0.35c-0.46,0.23-0.81,0.57-1.07,0.99c-0.25,0.43-0.38,0.9-0.38,1.42
			c0,0.53,0.13,1.01,0.38,1.44c0.25,0.42,0.61,0.75,1.06,0.98c0.46,0.23,0.97,0.35,1.54,0.35c0.44,0,0.86-0.06,1.26-0.19
			c0.4-0.13,0.9-0.35,1.51-0.68v1.45c-0.52,0.27-1,0.46-1.43,0.58c-0.43,0.11-0.94,0.17-1.52,0.17c-0.84,0-1.6-0.17-2.26-0.5
			c-0.66-0.34-1.19-0.82-1.56-1.45c-0.38-0.63-0.57-1.32-0.57-2.07c0-0.8,0.2-1.53,0.59-2.17c0.39-0.64,0.93-1.13,1.61-1.48
			C68.64,376.54,69.41,376.37,70.27,376.37z"/>
		<path class="st4" d="M82.82,376.47v1.21h-2.84v6.78h-1.54v-6.78H75.6v-1.21H82.82z"/>
		<path class="st4" d="M87.05,376.47v7.99h-1.54v-7.99H87.05z"/>
		<path class="st4" d="M94.66,376.37c0.45,0,0.9,0.05,1.33,0.15c0.43,0.1,0.9,0.28,1.41,0.53v1.45c-0.49-0.28-0.95-0.49-1.36-0.61
			c-0.42-0.13-0.85-0.19-1.31-0.19c-0.57,0-1.08,0.12-1.54,0.35c-0.46,0.23-0.81,0.57-1.07,0.99c-0.25,0.43-0.38,0.9-0.38,1.42
			c0,0.53,0.13,1.01,0.38,1.44c0.25,0.42,0.61,0.75,1.06,0.98c0.46,0.23,0.97,0.35,1.54,0.35c0.44,0,0.86-0.06,1.26-0.19
			c0.4-0.13,0.9-0.35,1.51-0.68v1.45c-0.52,0.27-1,0.46-1.43,0.58c-0.43,0.11-0.94,0.17-1.52,0.17c-0.84,0-1.6-0.17-2.26-0.5
			c-0.66-0.34-1.19-0.82-1.56-1.45c-0.38-0.63-0.57-1.32-0.57-2.07c0-0.8,0.2-1.53,0.59-2.17c0.39-0.64,0.93-1.13,1.61-1.48
			C93.03,376.54,93.8,376.37,94.66,376.37z"/>
		<path class="st4" d="M108.75,376.37c0.45,0,0.9,0.05,1.33,0.15c0.43,0.1,0.9,0.28,1.41,0.53v1.45c-0.49-0.28-0.95-0.49-1.36-0.61
			c-0.42-0.13-0.85-0.19-1.31-0.19c-0.57,0-1.08,0.12-1.54,0.35s-0.81,0.57-1.07,0.99c-0.25,0.43-0.38,0.9-0.38,1.42
			c0,0.53,0.13,1.01,0.38,1.44c0.25,0.42,0.61,0.75,1.06,0.98c0.46,0.23,0.97,0.35,1.54,0.35c0.44,0,0.86-0.06,1.26-0.19
			c0.4-0.13,0.9-0.35,1.51-0.68v1.45c-0.52,0.27-1,0.46-1.43,0.58c-0.43,0.11-0.94,0.17-1.52,0.17c-0.84,0-1.6-0.17-2.26-0.5
			c-0.66-0.34-1.19-0.82-1.56-1.45c-0.38-0.63-0.57-1.32-0.57-2.07c0-0.8,0.2-1.53,0.59-2.17c0.39-0.64,0.93-1.13,1.61-1.48
			C107.12,376.54,107.9,376.37,108.75,376.37z"/>
		<path class="st4" d="M116.32,376.47v7.99h-1.54v-7.99H116.32z"/>
		<path class="st4" d="M122.7,376.47c0.75,0,1.36,0.21,1.84,0.62c0.47,0.42,0.71,0.96,0.71,1.62c0,0.45-0.12,0.85-0.35,1.19
			s-0.58,0.6-1.04,0.8c0.26,0.14,0.48,0.32,0.68,0.56c0.2,0.24,0.44,0.64,0.74,1.2c0.49,0.97,0.85,1.64,1.09,2h-1.72
			c-0.12-0.18-0.28-0.46-0.48-0.84c-0.44-0.85-0.77-1.42-0.97-1.72c-0.21-0.3-0.4-0.51-0.59-0.63c-0.19-0.12-0.41-0.19-0.66-0.19
			h-0.56v3.38h-1.54v-7.99H122.7z M122.35,379.88c0.4,0,0.72-0.1,0.95-0.3c0.23-0.2,0.35-0.48,0.35-0.83c0-0.37-0.11-0.64-0.34-0.82
			c-0.23-0.18-0.55-0.27-0.98-0.27h-0.96v2.23H122.35z"/>
		<path class="st4" d="M132.84,376.37c0.45,0,0.9,0.05,1.33,0.15s0.9,0.28,1.41,0.53v1.45c-0.49-0.28-0.95-0.49-1.36-0.61
			c-0.42-0.13-0.85-0.19-1.31-0.19c-0.57,0-1.08,0.12-1.54,0.35c-0.46,0.23-0.81,0.57-1.07,0.99c-0.25,0.43-0.38,0.9-0.38,1.42
			c0,0.53,0.13,1.01,0.38,1.44c0.25,0.42,0.61,0.75,1.06,0.98c0.46,0.23,0.97,0.35,1.54,0.35c0.44,0,0.86-0.06,1.26-0.19
			c0.4-0.13,0.9-0.35,1.51-0.68v1.45c-0.52,0.27-1,0.46-1.43,0.58s-0.94,0.17-1.52,0.17c-0.84,0-1.6-0.17-2.26-0.5
			c-0.66-0.34-1.19-0.82-1.56-1.45c-0.38-0.63-0.57-1.32-0.57-2.07c0-0.8,0.2-1.53,0.59-2.17c0.39-0.64,0.93-1.13,1.61-1.48
			C131.21,376.54,131.98,376.37,132.84,376.37z"/>
		<path class="st4" d="M140.4,376.47v6.78h3.88v1.21h-5.42v-7.99H140.4z"/>
		<path class="st4" d="M152.07,376.47v1.21h-3.62v2.1h3.47v1.21h-3.47v2.27h3.7v1.21h-5.25v-7.99H152.07z"/>
		<path class="st4" d="M64.75,393.41v1.21h-2.84v6.78h-1.54v-6.78h-2.84v-1.21H64.75z"/>
		<path class="st4" d="M68.99,393.41v7.69c0,0.85-0.23,1.54-0.69,2.05c-0.46,0.51-1.06,0.77-1.82,0.77c-0.05,0-0.1,0-0.15,0
			c-0.05,0-0.1,0-0.15-0.01l-0.11-1.33c0.92,0,1.37-0.54,1.37-1.61v-7.56H68.99z"/>
		<path class="st4" d="M76.45,393.41l3.53,7.99h-1.63l-0.83-1.95h-3.55l-0.77,1.95h-1.62l3.3-7.99H76.45z M74.43,398.28h2.58
			l-1.35-3.16L74.43,398.28z"/>
		<path class="st4" d="M84.1,393.41v3.69h0.03l2.93-3.69h1.76l-2.97,3.76l3.86,4.23h-1.98l-3.62-3.92v3.92h-1.54v-7.99H84.1z"/>
		<path class="st4" d="M98.69,393.41v1.21h-2.84v6.78h-1.54v-6.78h-2.84v-1.21H98.69z"/>
		<path class="st4" d="M102.92,393.41v7.69c0,0.85-0.23,1.54-0.69,2.05c-0.46,0.51-1.06,0.77-1.82,0.77c-0.05,0-0.1,0-0.15,0
			c-0.05,0-0.1,0-0.15-0.01l-0.11-1.33c0.92,0,1.37-0.54,1.37-1.61v-7.56H102.92z"/>
		<path class="st4" d="M110.39,393.41l3.53,7.99h-1.63l-0.83-1.95h-3.55l-0.77,1.95h-1.62l3.3-7.99H110.39z M108.37,398.28h2.58
			l-1.35-3.16L108.37,398.28z"/>
		<path class="st4" d="M117.58,393.41v4.65c0,0.48,0.07,0.86,0.21,1.14c0.14,0.28,0.38,0.51,0.7,0.7c0.32,0.18,0.7,0.27,1.13,0.27
			c0.47,0,0.87-0.09,1.2-0.26c0.33-0.17,0.57-0.41,0.72-0.71c0.15-0.3,0.23-0.71,0.23-1.24v-4.55h1.54v4.75
			c0,1.08-0.32,1.9-0.97,2.48c-0.64,0.58-1.56,0.87-2.73,0.87c-0.74,0-1.38-0.13-1.93-0.39c-0.54-0.26-0.96-0.64-1.24-1.14
			s-0.43-1.08-0.43-1.75v-4.81H117.58z"/>
		<path class="st4" d="M129.63,393.41c0.75,0,1.36,0.21,1.84,0.62c0.47,0.42,0.71,0.96,0.71,1.62c0,0.45-0.12,0.85-0.35,1.19
			s-0.58,0.6-1.04,0.8c0.26,0.14,0.48,0.32,0.68,0.56c0.2,0.24,0.44,0.64,0.74,1.2c0.49,0.97,0.85,1.64,1.09,2h-1.72
			c-0.12-0.18-0.28-0.46-0.48-0.84c-0.44-0.85-0.77-1.42-0.97-1.72c-0.21-0.3-0.4-0.51-0.59-0.63c-0.19-0.12-0.41-0.19-0.66-0.19
			h-0.56v3.38h-1.54v-7.99H129.63z M129.28,396.82c0.4,0,0.72-0.1,0.95-0.3c0.23-0.2,0.35-0.48,0.35-0.83
			c0-0.37-0.11-0.64-0.34-0.82c-0.23-0.18-0.55-0.27-0.98-0.27h-0.96v2.23H129.28z"/>
		<path class="st4" d="M141.05,393.41v1.21h-3.62v2.1h3.47v1.21h-3.47v2.27h3.7v1.21h-5.25v-7.99H141.05z"/>
		<path class="st4" d="M69.78,410.35l3.53,7.99h-1.63l-0.83-1.95H67.3l-0.77,1.95H64.9l3.3-7.99H69.78z M67.77,415.22h2.58
			L69,412.06L67.77,415.22z"/>
		<path class="st4" d="M78.76,410.35c0.75,0,1.36,0.21,1.84,0.62c0.47,0.42,0.71,0.96,0.71,1.62c0,0.45-0.12,0.85-0.35,1.19
			c-0.23,0.34-0.58,0.6-1.04,0.8c0.26,0.14,0.48,0.32,0.68,0.56c0.2,0.24,0.44,0.64,0.74,1.2c0.49,0.97,0.85,1.64,1.09,2h-1.72
			c-0.12-0.18-0.28-0.46-0.48-0.84c-0.44-0.85-0.77-1.42-0.97-1.72c-0.21-0.3-0.4-0.51-0.59-0.63c-0.19-0.12-0.41-0.19-0.66-0.19
			h-0.56v3.38h-1.54v-7.99H78.76z M78.41,413.76c0.4,0,0.72-0.1,0.95-0.3c0.23-0.2,0.35-0.48,0.35-0.83c0-0.37-0.11-0.64-0.34-0.82
			c-0.23-0.18-0.55-0.27-0.98-0.27h-0.96v2.23H78.41z"/>
		<path class="st4" d="M86.61,410.35v7.69c0,0.85-0.23,1.54-0.69,2.05c-0.46,0.51-1.06,0.77-1.82,0.77c-0.05,0-0.1,0-0.15,0
			c-0.05,0-0.1,0-0.15-0.01l-0.11-1.33c0.92,0,1.37-0.54,1.37-1.61v-7.56H86.61z"/>
		<path class="st4" d="M95.27,410.35v1.21h-3.62v2.1h3.47v1.21h-3.47v2.27h3.7v1.21h-5.25v-7.99H95.27z"/>
		<path class="st4" d="M101.61,410.35c0.75,0,1.35,0.22,1.82,0.65c0.47,0.43,0.7,0.99,0.7,1.67c0,0.69-0.24,1.25-0.71,1.68
			c-0.47,0.43-1.1,0.64-1.87,0.64h-1.49v3.35h-1.54v-7.99H101.61z M101.23,413.78c0.41,0,0.73-0.09,0.96-0.28
			c0.23-0.19,0.35-0.47,0.35-0.84c0-0.74-0.47-1.1-1.42-1.1h-1.05v2.23H101.23z"/>
		<path class="st4" d="M108.38,410.35v6.78h3.88v1.21h-5.42v-7.99H108.38z"/>
		<path class="st4" d="M118.65,410.24c0.83,0,1.57,0.17,2.23,0.51c0.66,0.34,1.19,0.83,1.58,1.48c0.39,0.64,0.59,1.35,0.59,2.11
			c0,0.75-0.19,1.44-0.57,2.08c-0.38,0.64-0.91,1.13-1.58,1.49c-0.67,0.35-1.42,0.53-2.26,0.53c-0.83,0-1.58-0.18-2.26-0.54
			c-0.68-0.36-1.2-0.85-1.58-1.48c-0.38-0.63-0.57-1.32-0.57-2.08c0-0.73,0.19-1.42,0.57-2.07c0.38-0.64,0.9-1.15,1.56-1.5
			C117.02,410.42,117.79,410.24,118.65,410.24z M115.83,414.34c0,0.53,0.12,1.01,0.36,1.43s0.57,0.75,1,0.98
			c0.43,0.23,0.91,0.35,1.46,0.35c0.82,0,1.49-0.26,2.02-0.77c0.53-0.51,0.79-1.18,0.79-1.99c0-0.53-0.12-1.01-0.36-1.43
			c-0.24-0.43-0.57-0.75-1.01-0.99c-0.43-0.23-0.92-0.35-1.46-0.35c-0.54,0-1.03,0.12-1.46,0.35c-0.43,0.23-0.77,0.56-1,0.98
			C115.95,413.33,115.83,413.81,115.83,414.34z"/>
		<path class="st4" d="M130.23,410.24c0.98,0,1.96,0.22,2.93,0.66v1.41c-0.97-0.49-1.92-0.74-2.86-0.74c-0.58,0-1.1,0.12-1.56,0.35
			c-0.45,0.23-0.81,0.57-1.06,1c-0.25,0.44-0.37,0.92-0.37,1.46c0,0.82,0.27,1.47,0.82,1.97c0.54,0.5,1.26,0.75,2.15,0.75
			c0.24,0,0.48-0.02,0.7-0.06c0.22-0.04,0.49-0.12,0.8-0.24v-1.33h-1.32v-1.21h2.87v3.3c-0.39,0.27-0.86,0.49-1.42,0.64
			c-0.55,0.15-1.12,0.23-1.72,0.23c-0.84,0-1.61-0.17-2.29-0.52c-0.68-0.35-1.22-0.83-1.6-1.46c-0.38-0.63-0.57-1.32-0.57-2.09
			c0-0.78,0.19-1.49,0.58-2.12c0.39-0.63,0.93-1.13,1.62-1.48C128.6,410.42,129.37,410.24,130.23,410.24z"/>
		<path class="st4" d="M72.83,427.18c0.78,0,1.53,0.19,2.25,0.58v1.37c-0.83-0.5-1.56-0.75-2.2-0.75c-0.39,0-0.69,0.08-0.91,0.23
			c-0.22,0.15-0.33,0.35-0.33,0.6c0,0.3,0.2,0.58,0.61,0.84c0.11,0.08,0.55,0.29,1.32,0.64c0.66,0.31,1.13,0.65,1.42,1.03
			c0.29,0.38,0.43,0.83,0.43,1.36c0,0.69-0.25,1.24-0.74,1.66c-0.49,0.42-1.13,0.63-1.92,0.63c-0.51,0-0.95-0.06-1.32-0.17
			c-0.37-0.11-0.78-0.31-1.24-0.58v-1.52c0.85,0.71,1.66,1.06,2.41,1.06c0.38,0,0.68-0.08,0.92-0.25c0.23-0.16,0.35-0.38,0.35-0.65
			c0-0.37-0.2-0.67-0.61-0.9c-0.34-0.18-0.77-0.4-1.3-0.66c-0.63-0.29-1.1-0.62-1.41-1c-0.31-0.38-0.47-0.82-0.47-1.33
			c0-0.67,0.25-1.21,0.75-1.6C71.35,427.38,72.01,427.18,72.83,427.18z"/>
		<path class="st4" d="M82.38,427.18c0.83,0,1.57,0.17,2.23,0.51c0.66,0.34,1.19,0.83,1.58,1.48c0.39,0.64,0.59,1.35,0.59,2.11
			c0,0.75-0.19,1.44-0.57,2.08c-0.38,0.64-0.91,1.13-1.58,1.49c-0.67,0.35-1.42,0.53-2.26,0.53c-0.83,0-1.58-0.18-2.26-0.54
			c-0.68-0.36-1.2-0.85-1.58-1.48c-0.38-0.63-0.57-1.32-0.57-2.08c0-0.73,0.19-1.42,0.57-2.07c0.38-0.64,0.9-1.15,1.56-1.5
			C80.76,427.36,81.52,427.18,82.38,427.18z M79.56,431.28c0,0.53,0.12,1.01,0.36,1.43c0.24,0.42,0.57,0.75,1,0.98
			c0.43,0.23,0.91,0.35,1.46,0.35c0.82,0,1.49-0.26,2.02-0.77c0.53-0.51,0.79-1.18,0.79-1.99c0-0.53-0.12-1.01-0.36-1.43
			c-0.24-0.43-0.57-0.75-1.01-0.99c-0.43-0.23-0.92-0.35-1.46-0.35c-0.54,0-1.03,0.12-1.46,0.35c-0.43,0.23-0.77,0.56-1,0.98
			C79.68,430.27,79.56,430.75,79.56,431.28z"/>
		<path class="st4" d="M92.74,427.28c0.75,0,1.36,0.21,1.84,0.62c0.47,0.42,0.71,0.96,0.71,1.62c0,0.45-0.12,0.85-0.35,1.19
			s-0.58,0.6-1.04,0.8c0.26,0.14,0.48,0.32,0.68,0.56c0.2,0.24,0.44,0.64,0.74,1.2c0.49,0.97,0.85,1.64,1.09,2h-1.72
			c-0.12-0.18-0.28-0.46-0.48-0.84c-0.44-0.85-0.77-1.42-0.97-1.72c-0.21-0.3-0.4-0.51-0.59-0.63c-0.19-0.12-0.41-0.19-0.66-0.19
			h-0.56v3.38h-1.54v-7.99H92.74z M92.4,430.69c0.4,0,0.72-0.1,0.95-0.3c0.23-0.2,0.35-0.48,0.35-0.83c0-0.37-0.11-0.64-0.34-0.82
			c-0.23-0.18-0.55-0.27-0.98-0.27h-0.96v2.23H92.4z"/>
		<path class="st4" d="M101.34,427.18c0.78,0,1.53,0.19,2.25,0.58v1.37c-0.83-0.5-1.56-0.75-2.2-0.75c-0.39,0-0.69,0.08-0.91,0.23
			c-0.22,0.15-0.33,0.35-0.33,0.6c0,0.3,0.2,0.58,0.61,0.84c0.11,0.08,0.55,0.29,1.32,0.64c0.66,0.31,1.13,0.65,1.42,1.03
			c0.29,0.38,0.43,0.83,0.43,1.36c0,0.69-0.25,1.24-0.74,1.66c-0.49,0.42-1.13,0.63-1.92,0.63c-0.51,0-0.95-0.06-1.32-0.17
			c-0.37-0.11-0.78-0.31-1.24-0.58v-1.52c0.85,0.71,1.66,1.06,2.41,1.06c0.38,0,0.68-0.08,0.92-0.25c0.23-0.16,0.35-0.38,0.35-0.65
			c0-0.37-0.2-0.67-0.61-0.9c-0.34-0.18-0.77-0.4-1.3-0.66c-0.63-0.29-1.1-0.62-1.41-1c-0.31-0.38-0.47-0.82-0.47-1.33
			c0-0.67,0.25-1.21,0.75-1.6C99.86,427.38,100.52,427.18,101.34,427.18z"/>
		<path class="st4" d="M112.19,427.28v1.21h-3.62v2.1h3.47v1.21h-3.47v2.27h3.7v1.21h-5.25v-7.99H112.19z"/>
		<path class="st4" d="M116.98,427.28v6.78h3.88v1.21h-5.42v-7.99H116.98z"/>
		<path class="st4" d="M128.65,427.28v1.21h-3.62v2.1h3.47v1.21h-3.47v2.27h3.7v1.21h-5.25v-7.99H128.65z"/>
		<path class="st4" d="M77.95,444.22l3.53,7.99h-1.63l-0.83-1.95h-3.55l-0.77,1.95h-1.62l3.3-7.99H77.95z M75.94,449.09h2.58
			l-1.35-3.16L75.94,449.09z M78.48,442.42c0,0.34-0.12,0.64-0.36,0.88c-0.24,0.25-0.54,0.37-0.89,0.37c-0.35,0-0.64-0.12-0.89-0.36
			c-0.24-0.24-0.37-0.54-0.37-0.89c0-0.34,0.12-0.63,0.37-0.88c0.25-0.25,0.54-0.37,0.88-0.37c0.35,0,0.64,0.13,0.89,0.38
			C78.35,441.79,78.48,442.09,78.48,442.42z M77.22,443.1c0.19,0,0.35-0.07,0.48-0.21c0.13-0.14,0.2-0.3,0.2-0.47
			c0-0.18-0.07-0.34-0.21-0.47c-0.14-0.14-0.3-0.21-0.49-0.21c-0.17,0-0.33,0.07-0.46,0.2c-0.14,0.14-0.21,0.29-0.21,0.48
			c0,0.19,0.07,0.35,0.2,0.48C76.88,443.03,77.04,443.1,77.22,443.1z"/>
		<path class="st4" d="M85.44,444.22l2.63,3.15l2.63-3.15h1.38v7.99h-1.54v-5.61h-0.05l-2.31,2.81h-0.22l-2.31-2.81H85.6v5.61h-1.54
			v-7.99H85.44z"/>
		<path class="st4" d="M97.95,444.12c0.78,0,1.53,0.19,2.25,0.58v1.37c-0.83-0.5-1.56-0.75-2.2-0.75c-0.39,0-0.69,0.08-0.91,0.23
			c-0.22,0.15-0.33,0.35-0.33,0.6c0,0.3,0.2,0.58,0.61,0.84c0.11,0.08,0.55,0.29,1.32,0.64c0.66,0.31,1.13,0.65,1.42,1.03
			c0.29,0.38,0.43,0.83,0.43,1.36c0,0.69-0.25,1.24-0.74,1.66c-0.49,0.42-1.13,0.63-1.92,0.63c-0.51,0-0.95-0.06-1.32-0.17
			c-0.37-0.11-0.78-0.31-1.24-0.58v-1.52c0.85,0.71,1.66,1.06,2.41,1.06c0.38,0,0.68-0.08,0.92-0.25c0.23-0.16,0.35-0.38,0.35-0.65
			c0-0.37-0.2-0.67-0.61-0.9c-0.34-0.18-0.77-0.4-1.3-0.66c-0.63-0.29-1.1-0.62-1.41-1c-0.31-0.38-0.47-0.82-0.47-1.33
			c0-0.67,0.25-1.21,0.75-1.6C96.47,444.32,97.13,444.12,97.95,444.12z"/>
		<path class="st4" d="M108.8,444.22v1.21h-3.62v2.1h3.47v1.21h-3.47v2.27h3.7v1.21h-5.25v-7.99H108.8z"/>
		<path class="st4" d="M113.6,444.22v6.78h3.88v1.21h-5.42v-7.99H113.6z"/>
		<path class="st4" d="M125.27,444.22v1.21h-3.62v2.1h3.47v1.21h-3.47v2.27h3.7v1.21h-5.25v-7.99H125.27z"/>
		<path class="st4" d="M82.24,461.16v4.65c0,0.48,0.07,0.86,0.21,1.14c0.14,0.28,0.38,0.51,0.7,0.7c0.32,0.18,0.7,0.27,1.13,0.27
			c0.47,0,0.87-0.09,1.2-0.26c0.33-0.17,0.57-0.41,0.72-0.71c0.15-0.3,0.23-0.71,0.23-1.24v-4.55h1.54v4.75
			c0,1.08-0.32,1.9-0.97,2.48c-0.64,0.58-1.56,0.87-2.73,0.87c-0.74,0-1.38-0.13-1.93-0.39c-0.54-0.26-0.96-0.64-1.24-1.14
			s-0.43-1.08-0.43-1.75v-4.81H82.24z"/>
		<path class="st4" d="M92.81,461.16l2.63,3.15l2.63-3.15h1.38v7.99h-1.54v-5.61h-0.05l-2.31,2.81h-0.22l-2.31-2.81h-0.05v5.61
			h-1.54v-7.99H92.81z"/>
		<path class="st4" d="M108.08,461.16v1.21h-3.62v2.1h3.47v1.21h-3.47v2.27h3.7v1.21h-5.25v-7.99H108.08z"/>
		<path class="st4" d="M115.47,461.16l3.53,7.99h-1.63l-0.83-1.95h-3.55l-0.77,1.95h-1.62l3.3-7.99H115.47z M113.45,466.03h2.58
			l-1.35-3.16L113.45,466.03z M115.99,459.36c0,0.34-0.12,0.64-0.36,0.88c-0.24,0.25-0.54,0.37-0.89,0.37
			c-0.35,0-0.64-0.12-0.89-0.36c-0.24-0.24-0.37-0.54-0.37-0.89c0-0.34,0.12-0.63,0.37-0.88c0.25-0.25,0.54-0.37,0.88-0.37
			c0.35,0,0.64,0.13,0.89,0.38C115.87,458.73,115.99,459.02,115.99,459.36z M114.74,460.04c0.19,0,0.35-0.07,0.48-0.21
			c0.13-0.14,0.2-0.3,0.2-0.47c0-0.18-0.07-0.34-0.21-0.47s-0.3-0.21-0.49-0.21c-0.17,0-0.33,0.07-0.46,0.2
			c-0.14,0.14-0.21,0.29-0.21,0.48c0,0.19,0.07,0.35,0.2,0.48C114.39,459.97,114.55,460.04,114.74,460.04z"/>
	</g>
	<g>
		
			<radialGradient id="SVGID_00000139266032292202485380000001132155986138790317_" cx="54.5166" cy="69.6699" r="62.3199" fx="55.2047" fy="72.1148" gradientTransform="matrix(0.9495 0 0 0.9495 47.1412 106.0314)" gradientUnits="userSpaceOnUse">
			<stop  offset="0.3295" style="stop-color:#F9B16B"/>
			<stop  offset="0.452" style="stop-color:#F4AA68"/>
			<stop  offset="0.6477" style="stop-color:#EC9860"/>
			<stop  offset="0.8907" style="stop-color:#E17D53"/>
			<stop  offset="1" style="stop-color:#DC6F4E"/>
		</radialGradient>
		<path style="fill:url(#SVGID_00000139266032292202485380000001132155986138790317_);" d="M93.64,114.26c3.05-1.6,8.04-1.6,11.09,0
			c3.05,1.6,8.35,2.66,11.79,2.34c3.43-0.31,7.58,2.06,10.25,4.24c2.5,2.04,6.82,5.02,10.11,6.05c3.29,1.02,6.01,5.49,7.73,8.47
			c1.78,3.09,5.22,6.87,6.68,9.99c1.32,2.81,3.94,6.5,5.02,9.82c1.06,3.28,1.59,8.76,1.57,12.21c-0.02,3.11,0.66,7.71,0,11.09
			c-0.62,3.18-2.93,8.36-2.62,11.79c0.31,3.43-1.32,8.04-3.97,10.24c-2.65,2.2-7.65,2.36-8.67,5.65s-3.44,6.22-6.03,9.45
			c-2.16,2.69-7.61,6.77-9.81,9.42c-2.2,2.65-7.02,3.04-10.25,4.24c-3.63,1.36-8.34,2.15-11.79,2.34c-3.86,0.21-7.71,0.72-11.09,0
			c-3.37-0.71-8.35-2.66-11.79-2.34c-3.43,0.31-8.04-1.6-10.25-4.24c-2.2-2.65-7.2-4.66-9.99-6.68c-2.9-2.09-8.33-7.01-9.35-10.3
			c-1.02-3.29-0.02-7.17-2.66-9.38c-2.65-2.2-3.84-6.58-5.38-9.28c-1.7-3-2.49-7.97-3.02-11.38c-0.61-3.88-1.02-7.19-0.69-10.62
			c0.39-4.05,0.29-8.37,1.69-11.91c1.27-3.2,2.69-6.99,3.91-10.21c1.41-3.74,4.5-7.72,6.66-10.16c2.28-2.58,5.31-5.87,8.01-8.01
			c3.06-2.43,8.01-3.96,10.21-6.61s7.44-4.2,10.87-3.88C85.29,116.92,90.59,115.87,93.64,114.26z"/>
		<path class="st6" d="M68.3,225.14c-4.14-2.4-8.18-4.94-11.8-8.13c-3.39-2.98-5.88-6.51-7.39-10.73c-0.65-1.82-0.87-3.7-0.51-5.61
			c0.2-1.07-0.1-1.94-0.68-2.83c-6.59-10.12-9.29-21.18-8.85-33.27c0.25-6.86,2.58-12.95,5.28-18.97
			c2.97-6.62,7.44-12.24,12.85-17.09c3.64-3.26,7.61-6.06,11.96-8.29c1.49-0.76,2.41-2.35,4.11-2.73c5.84-1.29,11.47-3.5,17.47-4.03
			c1.97-0.17,3.84-0.77,5.77-1.08c5.88-0.94,11.59-0.32,17.17,1.71c0.77,0.28,1.51,0.66,2.39,0.35c0.38-0.14,0.92-0.09,1.16,0.26
			c0.94,1.34,2.43,1.27,3.77,1.6c3.75,0.92,7,2.74,10.06,5.11c3.84,2.97,8.05,5.49,11.45,9.01c15.77,16.33,20.84,35.22,13.6,57.03
			c-0.24,0.73-0.46,1.4-0.28,2.23c1.09,5.1-0.29,9.18-4.9,11.69c-4.99,2.71-8.55,6.5-11.3,11.33c-3.27,5.72-7.75,10.38-13.09,14.23
			c-5.68,3.65-11.99,5.55-18.6,6.49c-6.73,0.95-13.38,0.14-19.98-1.24c-1.29-0.27-2.56-0.89-3.96-0.18
			c-0.65,0.33-1.41-0.06-1.84-0.73c-0.3-0.47-0.66-0.81-1.21-0.97C76.56,229.02,72.44,227.07,68.3,225.14z M62.59,168.52
			c0,4.87,0.49,9.7,1.33,14.5c0.1,0.57,0.08,1.27,0.68,1.57c3.32,1.63,6.26,4.2,10.12,4.52c4.15,0.34,8.26,0.91,12.27,1.99
			c1.21,0.33,1.49-0.1,1.74-1.09c2.83-11.32,6.04-22.52,9.54-33.65c0.34-1.07,0.24-1.49-0.94-1.8c-9.6-2.57-19.32-4.31-29.26-4.69
			c-0.58-0.02-1.19-0.14-1.59,0.49c-1.19,1.88-2.68,3.57-2.98,5.95C63,160.36,62.6,164.42,62.59,168.52z M111.97,201.38
			c1.34,0.23,1.67-0.54,2.12-1.03c8.04-8.62,14.3-18.38,18.8-29.29c0.47-1.15,0.19-1.58-0.81-2.16c-6.32-3.66-12.91-6.73-19.7-9.41
			c-0.95-0.38-1.37-0.42-1.67,0.78c-2.96,11.52-6.27,22.94-9.95,34.26c-0.29,0.89-0.12,1.23,0.7,1.6c2.92,1.31,5.73,2.84,8.41,4.6
			C110.66,201.25,111.53,201.32,111.97,201.38z M115.64,202c1.99,0.24,3.63,0.47,5.27,0.63c6.28,0.63,12.56,0.79,18.83-0.19
			c1.01-0.16,2.02-0.15,2.49-1.52c2.25-6.61,3.61-13.38,3.97-20.35c0.05-0.92-0.23-1.53-0.91-2.14c-2.75-2.46-5.7-4.64-8.73-6.74
			c-1.09-0.76-1.36-0.46-1.8,0.61c-2.77,6.77-6.31,13.13-10.53,19.11C121.66,195.04,118.84,198.46,115.64,202z M68.48,147.62
			c10.41,0.53,20.24,2.33,29.9,5.04c0.97,0.27,1.1-0.21,1.32-0.87c0.8-2.48,1.57-4.97,2.45-7.41c0.32-0.89,0.15-1.22-0.72-1.54
			c-6.63-2.43-13.09-5.22-19.23-8.73c-0.59-0.33-0.99-0.43-1.55,0.08C76.25,138.18,72.28,142.54,68.48,147.62z M138.03,144.12
			c0.3-2.1-0.54-4.49-2.1-6.71c-0.75-1.06-1.44-2.17-2.1-3.29c-0.6-1.02-1.43-1.66-2.51-2.13c-3.85-1.69-7.74-3.26-11.68-4.74
			c-1.29-0.49-1.79-0.4-1.99,1.11c-0.63,4.75-1.57,9.45-2.69,14.11c-0.3,1.25,0.06,1.62,1.18,1.92c5.95,1.59,11.96,2.94,18.07,3.8
			C138.16,148.76,138.16,148.77,138.03,144.12z M44.51,152.01c5.49-3.17,11.16-4,16.94-4.31c1.23-0.07,1.8-0.38,2.18-1.66
			c1.68-5.71,4.14-11.08,7.47-16.02c1.58-2.35,1.58-2.35-0.04-4.73c-0.27-0.39-0.58-0.79-0.7-1.23c-0.3-1.12-0.82-0.96-1.63-0.49
			c-4.75,2.75-9.07,6.06-12.85,10.04C50.89,138.86,47.1,144.85,44.51,152.01z M137.68,152.91c0.03-1.23,0.04-1.29-0.88-1.39
			c-7.38-0.78-14.62-2.29-21.76-4.29c-0.84-0.24-1.12-0.05-1.3,0.79c-0.58,2.66-1.22,5.3-1.91,7.93c-0.19,0.73-0.08,1.03,0.65,1.31
			c7.21,2.73,14.2,5.93,20.85,9.84c0.56,0.33,0.89,0.41,1.14-0.37C135.99,162.12,137.16,157.42,137.68,152.91z M107.98,158.54
			c0.18-0.7-0.38-0.78-0.81-0.92c-1.74-0.59-3.5-1.11-5.22-1.73c-0.93-0.33-1.33-0.12-1.63,0.84c-3.5,11.3-6.71,22.69-9.66,34.14
			c-0.25,0.96,0.15,1.23,0.94,1.47c1.53,0.47,3.07,0.91,4.53,1.56c1.17,0.52,1.58,0.25,1.94-0.93c2.59-8.49,5.19-16.97,7.5-25.54
			C106.37,164.48,107.18,161.51,107.98,158.54z M82.16,218.97c0.17-0.25,0.28-0.33,0.29-0.43c1.14-6.6,2.49-13.16,4.12-19.65
			c0.27-1.06-0.41-1.16-1.08-1.41c-4.19-1.5-8.37-3.05-12.31-5.1c-2.32-1.21-4.57-1.4-7.14-0.79
			C69.28,201.95,74.28,211.26,82.16,218.97z M99.66,222.52c7.24,0,14.26-1.23,21.08-3.67c1.08-0.39,1.32-0.8,0.94-1.91
			c-1.52-4.43-4.6-7.65-7.99-10.68c-0.89-0.79-1.4-0.97-2.41,0c-5.54,5.3-11.73,9.7-18.63,13.08c-0.47,0.23-0.93,0.44-1.2,0.98
			c-0.58,1.12-0.72,1.72,0.94,1.82C94.81,222.27,97.23,222.51,99.66,222.52z M83.76,131.53c6.18,3.49,12.51,6.09,18.92,8.54
			c1.02,0.39,1.03-0.4,1.25-0.97c1.76-4.64,3.48-9.3,5.32-13.91c0.42-1.06,0.13-1.31-0.82-1.54c-2.42-0.58-4.82-1.23-7.21-1.88
			c-0.79-0.22-1.48-0.12-2.22,0.22C93.54,124.42,88.58,127.61,83.76,131.53z M51.01,175.14c0.7-2.02,1.27-3.81,1.93-5.57
			c2.31-6.17,5.28-12.01,8.8-17.57c0.35-0.55,0.89-1.19,0.58-1.77c-0.36-0.66-1.17-0.15-1.78-0.18c-0.53-0.03-1.06,0.07-1.59,0.13
			c-4.43,0.52-8.8,1.31-12.67,3.72c-3.72,2.32-5.15,6.75-3.48,10.8C44.5,168.88,47.56,171.99,51.01,175.14z M78.43,218.76
			c-1.64-2.08-3.01-3.71-4.26-5.43c-4.45-6.14-7.69-12.89-10-20.09c-0.17-0.53-0.05-1.56-1.02-1.35c-4.22,0.92-8.25,2.23-10.94,6
			c-0.57,0.79-0.37,1.32,0.17,2.01c2.43,3.09,5.1,5.93,8.09,8.47C65.71,212.8,71.54,216.22,78.43,218.76z M152.38,149.06
			c-1.85,1.61-3.86,2.07-5.92,2.39c-0.75,0.12-0.95,0.3-0.7,1.12c2.55,8.34,3.66,16.88,3.49,25.59c-0.01,0.41-0.06,0.83,0.27,1.17
			c1.7,1.79,3.19,3.74,4.68,6.07C158.18,172.89,157.49,160.99,152.38,149.06z M140.25,205.32c-8.06,1.28-16,0.82-23.99-0.13
			c0.08,0.29,0.08,0.42,0.15,0.48c3.34,3.1,6.24,6.51,7.63,10.95c0.33,1.07,0.85,0.5,1.31,0.28c4.71-2.18,9.03-4.96,13-8.3
			C139.35,207.77,139.84,206.68,140.25,205.32z M89.64,224.38c3.75,3.14,11.28,5.82,17.44,5.78c3.87-0.02,7.58-0.53,10.84-2.8
			c2.2-1.52,3.86-3.41,4.19-6.47C111.45,224.78,100.69,225.84,89.64,224.38z M146.26,176.18c0.03-8.17-1.22-15.83-3.47-23.34
			c-0.28-0.92-0.75-1.13-1.64-1.16c-1.09-0.04-1.08,0.66-1.16,1.36c-0.63,5.06-1.85,9.99-3.56,14.8c-0.3,0.85-0.03,1.14,0.59,1.53
			C140.16,171.35,143.16,173.55,146.26,176.18z M84.68,219.74c3.05-0.34,4.88-1.62,5.7-4.58c0.98-3.52,2.47-6.89,3.71-10.33
			c0.46-1.28,1.49-2.83,1.11-3.81c-0.45-1.17-2.45-1.04-3.76-1.49c-2.62-0.9-2.66-0.86-3.25,1.83
			C86.85,207.41,85.53,213.46,84.68,219.74z M110.01,204.27c-3.65-0.85-7.25-1.68-10.85-2.53c-0.92-0.22-0.9,0.51-1.09,1.03
			c-1.17,3.22-2.33,6.44-3.49,9.66c-0.46,1.28-0.94,2.55-1.48,4.02C98.25,214.12,106.86,207.9,110.01,204.27z M41.67,168.82
			c0.04,8.77,3.24,20.47,6.54,24.19c0.15-4.69,0.68-9.27,1.8-13.76c0.2-0.81-0.12-1.18-0.64-1.64
			C46.53,175.11,43.94,172.37,41.67,168.82z M77.97,221.18c-10.07-3.68-18.25-9.29-25.3-16.64
			C56.66,218.37,68.15,222.5,77.97,221.18z M115.1,125.91c0.02-0.79-1.3-0.43-2-0.83c-0.77-0.44-1.22-0.22-1.6,0.66
			c-2.03,4.73-3.84,9.53-5.61,14.36c-0.25,0.68-0.25,1.05,0.55,1.28c1.48,0.43,2.93,0.92,4.38,1.43c0.63,0.22,0.95,0.17,1.12-0.58
			C113.09,137.03,114.18,131.83,115.1,125.91z M52.8,180.5c-1.24,4.85-1.66,9.57-1.64,14.78c3.04-3,6.49-4.42,10.2-5.33
			c0.57-0.14,1.62,0.03,1.6-0.71c-0.03-0.87-0.01-2.04-0.9-2.58C58.93,184.77,55.9,182.74,52.8,180.5z M61.64,182.8
			c-0.74-4-1.06-7.65-1.24-11.3c-0.18-3.62,0.04-7.25,0.28-11.23c-2.05,2.9-6.25,13.04-6.92,16.27c-0.12,0.57-0.01,0.87,0.41,1.19
			C56.47,179.47,58.81,181.15,61.64,182.8z M94.89,120.68c-0.9-0.63-1.83-0.53-2.68-0.68c-6.88-1.2-7.84-0.88-12.9,3.96
			c-3.07,2.94-2.9,3.73,1.11,5.61c0.45,0.21,0.73,0.21,1.1-0.09C85.63,126.1,90.05,123.17,94.89,120.68z M110.97,146.55
			c0.09-0.27-0.14-0.56-0.81-0.75c-1.54-0.43-3.07-0.9-4.55-1.49c-0.85-0.34-1.17-0.09-1.42,0.67c-0.82,2.53-1.65,5.06-2.52,7.57
			c-0.26,0.75-0.05,1.04,0.68,1.26c1.82,0.54,3.62,1.11,5.4,1.76c0.67,0.24,0.95,0.15,1.12-0.54
			C109.52,152.32,110.2,149.63,110.97,146.55z M139.25,135.98c1,3.94,3.03,6.78,4.21,9.98c1.17,3.18,1.25,3.15,4.57,2.29
			c0.17-0.04,0.34-0.11,0.51-0.16c2.43-0.8,2.82-1.82,1.28-3.89C147.15,140.62,143.35,138.49,139.25,135.98z M66.73,144.38
			c0.6,0,0.73-0.46,0.98-0.77c2.59-3.26,5.37-6.34,8.36-9.24c0.8-0.78,2.25-1.64,2.19-2.36c-0.08-1.01-1.77-1.34-2.58-2.19
			c-0.76-0.79-1.18-0.53-1.74,0.26c-2.73,3.84-4.95,7.94-6.61,12.34C67.08,143.05,66.62,143.64,66.73,144.38z M149.08,182.68
			c-0.05,0.41-0.09,0.68-0.12,0.96c-0.56,5.31-1.5,10.54-3.16,15.63c-0.11,0.35-0.66,0.74-0.13,1.04c0.41,0.23,0.72-0.22,0.97-0.57
			c1.42-1.9,2.69-3.89,3.84-5.97c2.99-5.42,2.93-6.05-1.02-10.88C149.43,182.86,149.37,182.84,149.08,182.68z M123.59,225.22
			c4.74-2.69,8.45-6.42,11.46-10.87c-3.14,1.93-6.33,3.71-9.68,5.18c-0.56,0.25-0.86,0.57-0.84,1.19
			C124.58,222.28,124.03,223.7,123.59,225.22z M128.55,128.06c-2.73-3.45-5.99-6.19-9.92-8.54c-0.11,1.5-0.2,2.73-0.28,3.95
			c-0.03,0.42-0.06,0.8,0.48,0.99C122.08,125.64,125.31,126.85,128.55,128.06z M90.16,117.16c2.61,0.49,5.22,0.99,7.83,1.48
			c0.52,0.1,1.04,0.23,1.57,0c2.21-0.93,4.53-1.54,6.82-2.35C100.92,115.81,95.47,114.99,90.16,117.16z M81.12,119.19
			c-2.89-0.48-4.94,1.01-7.19,1.74c-1.7,0.55-1.53,1.43-0.68,2.56c0.28,0.38,0.61,0.72,0.88,1.1c0.44,0.6,0.77,0.47,1.22-0.04
			C77.02,122.66,78.89,120.96,81.12,119.19z M72.91,224.28c1.61,0.66,3.2,1.35,4.82,1.96c3.84,1.46,3.85,1.45,3.97-2.73
			c0-0.1-0.11-0.2-0.19-0.34C78.72,223.78,75.86,224.01,72.91,224.28z M112.31,118.39c-2.69,0.36-5.2,0.63-7.9,1.69
			c1.3,0.36,2.25,0.62,3.21,0.88C110.77,121.82,110.77,121.82,112.31,118.39z M95.93,197.69c0.47,0.11,0.61-0.18,0.78-0.53
			c0.25-0.52,0.02-0.78-0.43-0.94c-1.9-0.67-3.8-1.32-5.7-1.98c-0.53-0.19-0.74,0.03-0.87,0.53c-0.11,0.43-0.25,0.83,0.3,1.02
			C91.98,196.43,93.96,197.05,95.93,197.69z M137.25,129.31c0.16,3.6,2.99,4.4,5.41,5.61C141.27,132.73,139.28,131.1,137.25,129.31z
			 M92.11,230.23c0.25-0.1,0.72,0.2,0.88-0.21c0.21-0.53-0.28-0.67-0.65-0.87c-1.1-0.58-2.19-1.18-3.28-1.78
			c-1.25-0.69-1.13,0.63-1.49,1.09c-0.65,0.84,0.28,0.78,0.69,0.89C89.52,229.67,90.78,229.93,92.11,230.23z M115.7,118.15
			c-1.31,1.23-1.78,2.62-2.47,3.86c-0.26,0.47,0.04,0.56,0.39,0.73c1.55,0.77,1.87,0.62,2.04-1.09
			C115.77,120.62,115.97,119.58,115.7,118.15z M80.73,192.41c1.96,0.74,3.93,1.48,5.89,2.21c0.45,0.17,0.92,0.38,1.07-0.38
			c0.08-0.43,0.16-0.85-0.43-0.96C85.1,192.9,83.02,192.07,80.73,192.41z M84.1,228.34c2.25-3.03,2.24-3.1,0-4.12
			C84.1,225.53,84.1,226.78,84.1,228.34z M132.3,127.45c-0.26-1.86-1.6-3.14-3.17-3.14C130.4,125.1,131.18,126.34,132.3,127.45z"/>
		<g class="st1">
			<path class="st7" d="M26.27,197.64l2.32-3.5l-3.86-1.65l-0.41-1.35l7.83-2.35l0.45,1.51l-5.5,1.65l0.01,0.04l3.44,1.44l0.06,0.21
				l-2.08,3.09l0.01,0.04l5.5-1.65l0.45,1.51L26.68,199L26.27,197.64z"/>
			<path class="st7" d="M23.08,184.17l8.07-1.27l0.24,1.56l-8.07,1.27L23.08,184.17z"/>
			<path class="st7" d="M22.3,175.35c-0.02-0.85,0.13-1.61,0.46-2.28c0.33-0.67,0.8-1.2,1.42-1.58c0.62-0.38,1.32-0.59,2.1-0.61
				c0.8-0.02,1.51,0.14,2.14,0.5c0.63,0.35,1.12,0.86,1.48,1.53c0.36,0.67,0.55,1.44,0.57,2.32l0.09,3.33l-8.17,0.22L22.3,175.35z
				 M29.24,175.33c-0.02-0.87-0.3-1.57-0.84-2.08c-0.54-0.51-1.23-0.76-2.08-0.74c-0.88,0.02-1.57,0.31-2.07,0.85
				c-0.5,0.55-0.73,1.27-0.71,2.17l0.04,1.63l5.7-0.15L29.24,175.33z"/>
			<path class="st7" d="M22.71,164.25l6.35-3.98l-5.64-0.82l0.22-1.53l8.09,1.18l-0.2,1.34l-6.44,4l5.74,0.84l-0.22,1.53l-8.09-1.18
				L22.71,164.25z"/>
			<path class="st7" d="M25.42,151.09l7.86,2.24l-0.43,1.52l-7.86-2.24L25.42,151.09z"/>
			<path class="st7" d="M28.63,142c0.4-0.92,1-1.75,1.8-2.49l1.33,0.57c-0.85,0.71-1.47,1.51-1.85,2.39
				c-0.24,0.55-0.34,1.08-0.3,1.6c0.04,0.52,0.21,0.99,0.52,1.4c0.31,0.41,0.72,0.72,1.22,0.94c0.77,0.33,1.49,0.34,2.18,0.03
				c0.69-0.31,1.21-0.88,1.57-1.72c0.1-0.23,0.17-0.46,0.22-0.68c0.05-0.23,0.08-0.51,0.1-0.85l-1.25-0.54l-0.53,1.24l-1.13-0.49
				l1.16-2.69l3.1,1.33c0.1,0.48,0.11,1.01,0.03,1.59c-0.08,0.58-0.24,1.15-0.48,1.71c-0.34,0.79-0.81,1.44-1.41,1.94
				c-0.6,0.5-1.27,0.81-2.02,0.92c-0.74,0.11-1.48,0.01-2.2-0.3c-0.73-0.32-1.32-0.78-1.76-1.4c-0.44-0.62-0.68-1.32-0.73-2.12
				C28.14,143.59,28.29,142.8,28.63,142z"/>
			<path class="st7" d="M33.52,132.82l2.88,1.88l2.31-3.56l-2.88-1.88l0.86-1.32l6.85,4.46l-0.86,1.32l-2.89-1.88l-2.31,3.56
				l2.89,1.88l-0.86,1.32l-6.85-4.46L33.52,132.82z"/>
			<path class="st7" d="M44.6,118.62l0.92,0.83l-1.95,2.15l5.15,4.65l-1.06,1.17l-5.15-4.65l-1.95,2.15l-0.92-0.83L44.6,118.62z"/>
			<path class="st7" d="M55.31,109.63c0.65-0.45,1.4-0.73,2.23-0.82l0.8,1.15c-0.99,0.06-1.75,0.28-2.29,0.66
				c-0.33,0.23-0.54,0.47-0.63,0.72c-0.1,0.25-0.07,0.49,0.08,0.7c0.18,0.25,0.51,0.37,1,0.34c0.14,0,0.64-0.08,1.48-0.23
				c0.73-0.12,1.33-0.11,1.79,0.04c0.46,0.15,0.85,0.44,1.16,0.89c0.4,0.58,0.52,1.19,0.35,1.83c-0.17,0.64-0.58,1.19-1.24,1.65
				c-0.43,0.3-0.83,0.51-1.21,0.63c-0.37,0.12-0.83,0.2-1.38,0.24l-0.89-1.28c1.13,0.1,2.01-0.08,2.65-0.52
				c0.32-0.22,0.53-0.47,0.62-0.74c0.1-0.27,0.07-0.52-0.09-0.75c-0.22-0.31-0.56-0.45-1.04-0.4c-0.39,0.04-0.88,0.11-1.47,0.21
				c-0.7,0.13-1.28,0.12-1.77-0.02c-0.48-0.14-0.87-0.42-1.17-0.84c-0.39-0.56-0.49-1.16-0.31-1.78
				C54.18,110.66,54.62,110.1,55.31,109.63z"/>
			<path class="st7" d="M63.27,104.87l2.1,4.27c0.22,0.44,0.45,0.75,0.71,0.95c0.26,0.19,0.58,0.3,0.96,0.32
				c0.38,0.02,0.77-0.07,1.16-0.26c0.43-0.21,0.76-0.48,0.99-0.78c0.22-0.31,0.34-0.63,0.34-0.98c0-0.34-0.11-0.76-0.35-1.24
				l-2.06-4.17l1.42-0.7l2.15,4.35c0.49,0.99,0.57,1.89,0.24,2.71c-0.33,0.82-1.03,1.5-2.12,2.03c-0.68,0.33-1.33,0.5-1.94,0.51
				c-0.62,0-1.17-0.16-1.66-0.48c-0.49-0.33-0.88-0.8-1.19-1.41l-2.17-4.41L63.27,104.87z"/>
			<path class="st7" d="M75.22,99.78l6.26,4.12l-1.6-5.48l1.48-0.43l2.29,7.85l-1.3,0.38l-6.31-4.2l1.62,5.57l-1.48,0.43l-2.29-7.85
				L75.22,99.78z"/>
			<path class="st7" d="M96.57,96.06c0.77-0.03,1.4,0.17,1.9,0.57c0.5,0.41,0.76,0.95,0.78,1.64c0.02,0.46-0.09,0.87-0.32,1.23
				c-0.23,0.35-0.57,0.64-1.04,0.85c0.27,0.13,0.5,0.31,0.72,0.55c0.21,0.23,0.48,0.63,0.8,1.2c0.53,0.97,0.93,1.64,1.18,2.01
				l-1.76,0.06c-0.13-0.18-0.3-0.46-0.52-0.84c-0.48-0.85-0.83-1.43-1.05-1.72c-0.22-0.29-0.43-0.5-0.63-0.62
				c-0.2-0.12-0.43-0.18-0.68-0.17l-0.57,0.02l0.12,3.45l-1.58,0.05l-0.27-8.17L96.57,96.06z M96.33,99.56
				c0.41-0.01,0.73-0.13,0.96-0.34c0.23-0.21,0.34-0.5,0.33-0.86c-0.01-0.37-0.14-0.65-0.38-0.83c-0.24-0.18-0.58-0.26-1.01-0.24
				l-0.98,0.03l0.08,2.27L96.33,99.56z"/>
			<path class="st7" d="M109.66,96.72l2.55,8.56l-1.65-0.21l-0.59-2.08l-3.6-0.46l-1.03,1.87l-1.64-0.21l4.37-7.68L109.66,96.72z
				 M106.99,101.4l2.62,0.33l-0.96-3.38L106.99,101.4z"/>
			<path class="st7" d="M119.29,98.62l2.98,6.87l1.67-5.46l1.48,0.45l-2.39,7.82l-1.3-0.4l-2.98-6.97l-1.69,5.55l-1.48-0.45
				l2.39-7.82L119.29,98.62z"/>
			<path class="st7" d="M133.85,104.24c0.76,0.39,1.35,0.88,1.79,1.5c0.43,0.61,0.67,1.28,0.71,2c0.04,0.73-0.12,1.44-0.47,2.14
				c-0.36,0.71-0.85,1.26-1.46,1.64c-0.61,0.38-1.29,0.57-2.05,0.57s-1.53-0.21-2.31-0.61l-2.97-1.51l3.71-7.28L133.85,104.24z
				 M130.55,110.35c0.78,0.4,1.52,0.48,2.23,0.25c0.71-0.23,1.26-0.72,1.64-1.48c0.4-0.79,0.48-1.53,0.24-2.22
				c-0.24-0.7-0.76-1.25-1.57-1.66l-1.45-0.74l-2.59,5.08L130.55,110.35z"/>
			<path class="st7" d="M145.64,111.48c0.68,0.51,1.18,1.11,1.51,1.8c0.33,0.69,0.46,1.41,0.38,2.18c-0.08,0.77-0.35,1.46-0.82,2.09
				c-0.46,0.61-1.05,1.06-1.75,1.34c-0.71,0.28-1.44,0.36-2.21,0.24c-0.76-0.13-1.49-0.45-2.17-0.96c-0.68-0.51-1.18-1.12-1.51-1.83
				c-0.33-0.71-0.46-1.44-0.38-2.18c0.08-0.74,0.35-1.43,0.82-2.05c0.45-0.6,1.03-1.04,1.74-1.34c0.71-0.29,1.44-0.38,2.2-0.26
				C144.21,110.62,144.94,110.94,145.64,111.48z M140.81,113.08c-0.33,0.43-0.52,0.9-0.59,1.39c-0.07,0.49,0.01,0.97,0.21,1.42
				c0.21,0.45,0.53,0.85,0.97,1.18c0.67,0.51,1.38,0.71,2.13,0.62c0.75-0.09,1.37-0.47,1.87-1.13c0.33-0.43,0.52-0.9,0.59-1.39
				c0.07-0.49,0-0.97-0.21-1.43c-0.21-0.46-0.54-0.85-0.98-1.19c-0.44-0.33-0.91-0.54-1.41-0.61c-0.5-0.08-0.97-0.01-1.42,0.19
				C141.53,112.33,141.14,112.65,140.81,113.08z"/>
			<path class="st7" d="M154.1,118.99l-0.9,7.44l4.2-3.87l1.05,1.14l-6.01,5.54l-0.92-1l0.95-7.52l-4.26,3.93l-1.05-1.14l6.01-5.54
				L154.1,118.99z"/>
			<path class="st7" d="M162.73,129.48l-2.19,7.16l4.81-3.07l0.83,1.3l-6.89,4.4l-0.73-1.14l2.26-7.24l-4.89,3.12l-0.83-1.3
				l6.89-4.4L162.73,129.48z"/>
			<path class="st7" d="M170.86,144.76l-1.13,0.49l-1.48-3.39l-1.97,0.86l1.42,3.25l-1.13,0.49l-1.42-3.25l-2.13,0.93l1.51,3.47
				l-1.13,0.49l-2.14-4.92l7.49-3.27L170.86,144.76z M172.92,143.06l-2.73-1.22l-0.36-0.82l2.29,0.22L172.92,143.06z"/>
			<path class="st7" d="M174.03,154.82l-1.19,0.33l-1-3.57l-2.07,0.58l0.96,3.41l-1.19,0.33l-0.96-3.41l-2.24,0.63l1.02,3.65
				l-1.19,0.33l-1.45-5.17l7.87-2.21L174.03,154.82z"/>
			<path class="st7" d="M176.06,169.57l-8.16,0.43l-0.08-1.5l8.16-0.43L176.06,169.57z"/>
			<path class="st7" d="M176.12,177.29c-0.05,0.77-0.31,1.38-0.78,1.81c-0.47,0.43-1.07,0.62-1.81,0.58
				c-0.56-0.03-1.16-0.24-1.79-0.62c-0.63-0.38-1.46-1.03-2.49-1.95l-0.17,2.8l-1.41-0.09l0.32-5.29l0.17,0.01
				c0.72,0.66,1.37,1.23,1.95,1.71c0.58,0.48,1.06,0.85,1.44,1.12c0.38,0.27,0.71,0.46,0.99,0.58c0.27,0.12,0.56,0.19,0.86,0.2
				c0.37,0.02,0.7-0.08,0.97-0.3c0.27-0.22,0.41-0.51,0.44-0.85c0.04-0.62-0.27-1.27-0.93-1.98l1.6,0.1
				C175.95,175.84,176.16,176.57,176.12,177.29z"/>
			<path class="st7" d="M174.87,187.47c-0.15,0.81-0.64,1.39-1.47,1.72c-0.82,0.34-1.87,0.39-3.14,0.14
				c-1.28-0.24-2.24-0.67-2.89-1.28c-0.65-0.61-0.9-1.33-0.74-2.14c0.16-0.83,0.65-1.41,1.47-1.75c0.83-0.34,1.88-0.39,3.15-0.15
				c1.27,0.24,2.23,0.67,2.88,1.29C174.78,185.92,175.03,186.64,174.87,187.47z M170.93,185.49c-1.84-0.35-2.83-0.13-2.98,0.65
				c-0.15,0.77,0.75,1.33,2.68,1.7c1.8,0.34,2.78,0.13,2.93-0.64C173.71,186.43,172.83,185.86,170.93,185.49z"/>
			<path class="st7" d="M172.31,197.3c-0.26,0.78-0.82,1.29-1.68,1.52c-0.86,0.23-1.9,0.13-3.13-0.27c-1.24-0.41-2.14-0.96-2.7-1.66
				c-0.56-0.69-0.71-1.43-0.45-2.22c0.27-0.8,0.83-1.31,1.69-1.54c0.86-0.23,1.91-0.14,3.14,0.27c1.23,0.41,2.12,0.96,2.68,1.66
				C172.43,195.76,172.57,196.5,172.31,197.3z M168.66,194.82c-1.77-0.59-2.79-0.51-3.04,0.25c-0.25,0.74,0.56,1.42,2.43,2.04
				c1.74,0.58,2.74,0.5,2.99-0.25C171.29,196.11,170.5,195.43,168.66,194.82z"/>
		</g>
		<g class="st3">
			<path class="st8" d="M37.93,207.1c0.22,0.4,0.27,0.81,0.15,1.24c-0.12,0.43-0.38,0.75-0.78,0.97c-0.39,0.22-0.8,0.27-1.23,0.15
				c-0.43-0.12-0.75-0.38-0.97-0.78c-0.22-0.39-0.27-0.8-0.15-1.22c0.12-0.43,0.38-0.75,0.77-0.97c0.39-0.22,0.8-0.27,1.23-0.15
				C37.38,206.45,37.71,206.71,37.93,207.1z"/>
			<path class="st8" d="M47.44,216.55l-6.31,5.2l-0.95-1.16l6.31-5.2L47.44,216.55z"/>
			<path class="st8" d="M52.3,221.58c0.37,0.36,0.62,0.77,0.75,1.22c0.13,0.46,0.12,0.92-0.03,1.39c-0.14,0.47-0.41,0.91-0.81,1.32
				c-0.6,0.62-1.43,1.1-2.49,1.46c-1.07,0.35-2.19,0.52-3.38,0.51l-1.28-1.24c0.61,0.03,1.35-0.02,2.2-0.16
				c0.85-0.14,1.54-0.32,2.06-0.55c-0.3-0.11-0.57-0.28-0.8-0.51c-0.47-0.45-0.69-0.99-0.68-1.61c0.02-0.63,0.27-1.2,0.77-1.72
				c0.33-0.34,0.72-0.58,1.16-0.72c0.44-0.14,0.89-0.15,1.34-0.05C51.56,221.03,51.96,221.25,52.3,221.58z M49.7,222.7
				c-0.25,0.26-0.38,0.55-0.4,0.86c-0.01,0.31,0.1,0.59,0.35,0.82c0.23,0.22,0.5,0.32,0.82,0.3c0.32-0.02,0.59-0.15,0.81-0.39
				c0.27-0.28,0.41-0.58,0.43-0.91c0.02-0.32-0.1-0.6-0.34-0.84c-0.24-0.23-0.51-0.33-0.81-0.3
				C50.25,222.28,49.97,222.43,49.7,222.7z"/>
			<path class="st8" d="M58.67,233.01l-0.8,1.13l-2.47-1.75l0.8-1.13L58.67,233.01z"/>
			<path class="st8" d="M68.7,233.25c0.69,0.35,1.15,0.82,1.36,1.42c0.21,0.6,0.15,1.23-0.18,1.89c-0.25,0.5-0.68,0.97-1.27,1.4
				c-0.6,0.43-1.52,0.94-2.77,1.53l2.51,1.25l-0.63,1.27l-4.74-2.36l0.08-0.15c0.89-0.41,1.67-0.78,2.34-1.13
				c0.67-0.34,1.2-0.64,1.59-0.89c0.39-0.25,0.7-0.48,0.92-0.68c0.22-0.21,0.39-0.44,0.53-0.71c0.17-0.34,0.2-0.67,0.1-1.01
				c-0.1-0.34-0.3-0.58-0.61-0.73c-0.55-0.28-1.28-0.25-2.19,0.09l0.72-1.43C67.3,232.84,68.05,232.93,68.7,233.25z"/>
			<path class="st8" d="M76.4,236.57c0.71,0.25,1.23,0.63,1.54,1.14c0.31,0.51,0.37,1.06,0.16,1.64c-0.28,0.79-0.84,1.25-1.7,1.39
				c0.36,0.29,0.59,0.64,0.68,1.05c0.09,0.41,0.06,0.84-0.1,1.3c-0.24,0.68-0.67,1.15-1.3,1.41c-0.63,0.25-1.33,0.24-2.11-0.03
				c-0.61-0.22-1.15-0.57-1.62-1.06l0.48-1.36c0.24,0.32,0.47,0.57,0.7,0.76c0.23,0.19,0.48,0.33,0.75,0.42
				c0.36,0.13,0.69,0.13,0.99,0c0.3-0.12,0.51-0.35,0.62-0.68c0.13-0.36,0.1-0.69-0.08-1c-0.18-0.3-0.49-0.53-0.93-0.69l-0.09-0.03
				l0.42-1.2l0.07,0.02c0.41,0.14,0.77,0.17,1.06,0.06c0.3-0.1,0.5-0.31,0.61-0.62c0.11-0.31,0.08-0.59-0.08-0.86
				c-0.16-0.26-0.41-0.46-0.76-0.58c-0.43-0.15-0.93-0.2-1.49-0.13l0.42-1.21C75.21,236.28,75.79,236.36,76.4,236.57z"/>
			<path class="st8" d="M90.45,240.06l-1.1,7.79c-0.12,0.87-0.45,1.52-0.99,1.98c-0.54,0.45-1.19,0.63-1.95,0.52
				c-0.05-0.01-0.11-0.01-0.15-0.02c-0.05-0.01-0.1-0.02-0.15-0.03l0.08-1.37c0.93,0.13,1.47-0.35,1.62-1.43l1.08-7.65L90.45,240.06
				z"/>
			<path class="st8" d="M96.19,240.59l-0.06,4.76c-0.01,0.49,0.06,0.88,0.2,1.17c0.14,0.29,0.38,0.53,0.71,0.72
				c0.33,0.19,0.71,0.29,1.15,0.3c0.48,0.01,0.9-0.08,1.23-0.25c0.34-0.17,0.59-0.41,0.75-0.72c0.16-0.3,0.24-0.73,0.25-1.27
				l0.06-4.65l1.58,0.02l-0.06,4.86c-0.01,1.1-0.35,1.94-1.02,2.52c-0.67,0.58-1.6,0.87-2.81,0.85c-0.76-0.01-1.41-0.15-1.96-0.43
				c-0.55-0.28-0.97-0.67-1.26-1.18c-0.29-0.51-0.42-1.11-0.42-1.8l0.06-4.91L96.19,240.59z"/>
			<path class="st8" d="M107.57,240.15l5.7,4.86l-0.91-5.63l1.52-0.25l1.3,8.07l-1.34,0.22l-5.75-4.95l0.92,5.72l-1.52,0.25
				l-1.3-8.07L107.57,240.15z"/>
			<path class="st8" d="M119.5,237.52l2.36,7.83l-1.51,0.46l-2.36-7.83L119.5,237.52z"/>
			<path class="st8" d="M130.54,232.82c0.69-0.36,1.33-0.46,1.95-0.28c0.61,0.18,1.09,0.59,1.44,1.24c0.26,0.5,0.4,1.11,0.41,1.85
				c0.01,0.74-0.12,1.79-0.36,3.14l2.47-1.32l0.67,1.25l-4.67,2.49l-0.08-0.15c0.19-0.96,0.33-1.81,0.44-2.56
				c0.11-0.74,0.17-1.35,0.2-1.81c0.03-0.47,0.02-0.85-0.03-1.14c-0.04-0.3-0.13-0.58-0.28-0.84c-0.18-0.33-0.43-0.55-0.76-0.67
				c-0.33-0.11-0.65-0.09-0.95,0.07c-0.54,0.29-0.94,0.9-1.2,1.83l-0.75-1.42C129.4,233.72,129.9,233.16,130.54,232.82z"/>
			<path class="st8" d="M138.25,228.09c0.67-0.48,1.43-0.55,2.25-0.23c0.83,0.33,1.61,1.02,2.36,2.07c0.75,1.06,1.15,2.04,1.2,2.93
				c0.04,0.89-0.27,1.58-0.95,2.06c-0.69,0.49-1.45,0.57-2.28,0.24c-0.83-0.33-1.62-1.02-2.37-2.08c-0.75-1.06-1.14-2.03-1.18-2.93
				C137.24,229.26,137.57,228.57,138.25,228.09z M139.73,232.24c1.08,1.52,1.95,2.05,2.6,1.59c0.64-0.45,0.39-1.48-0.75-3.08
				c-1.06-1.5-1.92-2.02-2.56-1.56C138.37,229.65,138.61,230.66,139.73,232.24z"/>
			<path class="st8" d="M144.58,223c0.57-0.52,1.18-0.78,1.81-0.76c0.64,0.02,1.2,0.3,1.7,0.84c0.38,0.41,0.67,0.98,0.86,1.69
				c0.19,0.71,0.34,1.76,0.44,3.13l2.06-1.9l0.96,1.04l-3.9,3.58l-0.11-0.12c-0.06-0.98-0.13-1.84-0.22-2.58
				c-0.08-0.75-0.17-1.35-0.26-1.81c-0.09-0.46-0.2-0.82-0.31-1.1c-0.12-0.28-0.27-0.52-0.48-0.75c-0.25-0.28-0.55-0.43-0.9-0.45
				c-0.35-0.03-0.65,0.08-0.9,0.31c-0.45,0.42-0.69,1.11-0.7,2.07l-1.08-1.18C143.7,224.17,144.05,223.5,144.58,223z"/>
			<path class="st8" d="M150.58,216.83c0.5-0.59,1.07-0.92,1.7-0.99c0.63-0.06,1.23,0.14,1.8,0.62c0.43,0.36,0.78,0.89,1.06,1.57
				c0.28,0.68,0.56,1.7,0.83,3.05l1.81-2.14l1.08,0.91l-3.42,4.05l-0.13-0.11c-0.18-0.96-0.36-1.81-0.54-2.54
				c-0.18-0.73-0.34-1.32-0.49-1.76c-0.15-0.44-0.3-0.79-0.45-1.05c-0.15-0.26-0.34-0.48-0.57-0.68c-0.29-0.24-0.6-0.35-0.95-0.33
				c-0.35,0.02-0.64,0.16-0.86,0.42c-0.4,0.47-0.54,1.19-0.43,2.15l-1.22-1.03C149.85,218.1,150.11,217.38,150.58,216.83z"/>
			<path class="st8" d="M160.06,207.83c0.23-0.4,0.55-0.65,0.98-0.76c0.43-0.11,0.84-0.06,1.23,0.17c0.39,0.22,0.64,0.55,0.76,0.98
				c0.12,0.43,0.06,0.84-0.17,1.23c-0.22,0.39-0.55,0.64-0.97,0.76c-0.43,0.12-0.84,0.07-1.23-0.16c-0.39-0.22-0.64-0.55-0.76-0.98
				C159.79,208.63,159.84,208.22,160.06,207.83z"/>
		</g>
	</g>
	<g class="st1">
		<path class="st9" d="M39.16,487.34h0.91l-1.89,4.34h-0.27l-1.26-2.97l-1.25,2.97h-0.27l-1.9-4.34h0.91l1.12,2.59l1.09-2.59h0.63
			l1.08,2.59L39.16,487.34z"/>
		<path class="st9" d="M46.46,487.34h0.91l-1.88,4.34h-0.27l-1.26-2.97l-1.25,2.97h-0.27l-1.9-4.34h0.91l1.12,2.59l1.09-2.59h0.63
			l1.08,2.59L46.46,487.34z"/>
		<path class="st9" d="M53.77,487.34h0.91l-1.88,4.34h-0.27l-1.26-2.97l-1.25,2.97h-0.27l-1.9-4.34h0.91l1.12,2.59l1.09-2.59h0.63
			l1.08,2.59L53.77,487.34z"/>
		<path class="st9" d="M55.61,490.57c0.16,0,0.29,0.05,0.4,0.16c0.11,0.11,0.17,0.24,0.17,0.4c0,0.15-0.05,0.28-0.16,0.39
			c-0.11,0.11-0.25,0.16-0.41,0.16c-0.16,0-0.29-0.05-0.4-0.16s-0.16-0.23-0.16-0.39c0-0.16,0.05-0.29,0.16-0.4
			C55.32,490.62,55.45,490.57,55.61,490.57z"/>
		<path class="st9" d="M61.23,488.51v3.1h-0.85v-2.37c0-0.47-0.06-0.8-0.19-0.99c-0.13-0.19-0.35-0.28-0.66-0.28
			c-0.18,0-0.34,0.04-0.48,0.12c-0.15,0.08-0.31,0.22-0.5,0.43v3.1H57.7v-4.27h0.84v0.56c0.43-0.43,0.85-0.64,1.26-0.64
			c0.54,0,0.96,0.26,1.26,0.77c0.45-0.52,0.92-0.78,1.41-0.78c0.41,0,0.76,0.15,1.02,0.45c0.27,0.3,0.4,0.77,0.4,1.39v2.52h-0.84
			v-2.53c0-0.36-0.07-0.63-0.22-0.82c-0.15-0.19-0.35-0.28-0.63-0.28C61.86,487.98,61.53,488.15,61.23,488.51z"/>
		<path class="st9" d="M65.97,485.54c0.14,0,0.26,0.05,0.36,0.14c0.1,0.1,0.15,0.21,0.15,0.35c0,0.14-0.05,0.25-0.15,0.35
			c-0.1,0.1-0.22,0.15-0.36,0.15c-0.13,0-0.24-0.05-0.34-0.15c-0.1-0.1-0.15-0.22-0.15-0.35c0-0.13,0.05-0.25,0.15-0.35
			C65.72,485.59,65.84,485.54,65.97,485.54z M65.55,487.34h0.84v4.27h-0.84V487.34z"/>
		<path class="st9" d="M70.94,485.13h0.85v6.48h-1.8c-0.63,0-1.13-0.2-1.51-0.6c-0.38-0.4-0.56-0.93-0.56-1.6
			c0-0.63,0.2-1.14,0.59-1.55c0.39-0.41,0.9-0.61,1.51-0.61c0.28,0,0.59,0.06,0.93,0.18V485.13z M70.94,490.88v-2.7
			c-0.26-0.13-0.53-0.2-0.8-0.2c-0.42,0-0.76,0.14-1,0.41c-0.25,0.28-0.37,0.65-0.37,1.11c0,0.44,0.11,0.78,0.32,1.02
			c0.13,0.14,0.27,0.24,0.41,0.29c0.15,0.05,0.41,0.07,0.78,0.07H70.94z"/>
		<path class="st9" d="M74.25,487.34v0.54c0.38-0.42,0.81-0.63,1.28-0.63c0.27,0,0.51,0.07,0.74,0.21c0.23,0.14,0.4,0.33,0.52,0.57
			c0.12,0.24,0.18,0.62,0.18,1.14v2.44h-0.84v-2.43c0-0.44-0.07-0.75-0.2-0.93c-0.13-0.19-0.36-0.28-0.67-0.28
			c-0.4,0-0.74,0.2-1.02,0.6v3.05h-0.86v-4.27H74.25z"/>
		<path class="st9" d="M79.07,485.54c0.14,0,0.26,0.05,0.36,0.14c0.1,0.1,0.15,0.21,0.15,0.35c0,0.14-0.05,0.25-0.15,0.35
			c-0.1,0.1-0.22,0.15-0.36,0.15c-0.13,0-0.24-0.05-0.34-0.15c-0.1-0.1-0.15-0.22-0.15-0.35c0-0.13,0.05-0.25,0.15-0.35
			C78.82,485.59,78.94,485.54,79.07,485.54z M78.65,487.34h0.84v4.27h-0.84V487.34z"/>
		<path class="st9" d="M80.97,488.81c0-0.45,0.17-0.81,0.5-1.08c0.33-0.26,0.79-0.4,1.36-0.4h1.76V488h-0.86
			c0.17,0.17,0.28,0.32,0.35,0.46s0.1,0.3,0.1,0.48c0,0.22-0.06,0.44-0.19,0.66c-0.13,0.21-0.29,0.38-0.49,0.49
			c-0.2,0.11-0.53,0.21-0.98,0.27c-0.32,0.05-0.48,0.16-0.48,0.33c0,0.1,0.06,0.18,0.18,0.24c0.12,0.06,0.33,0.13,0.65,0.2
			c0.52,0.11,0.86,0.2,1.01,0.27s0.29,0.16,0.41,0.28c0.2,0.2,0.31,0.46,0.31,0.77c0,0.41-0.18,0.73-0.54,0.97
			c-0.36,0.24-0.84,0.36-1.44,0.36c-0.61,0-1.1-0.12-1.46-0.36c-0.36-0.24-0.55-0.57-0.55-0.98c0-0.58,0.36-0.95,1.07-1.12
			c-0.28-0.18-0.43-0.36-0.43-0.54c0-0.14,0.06-0.26,0.18-0.37c0.12-0.11,0.29-0.19,0.49-0.25
			C81.29,489.88,80.97,489.43,80.97,488.81z M82.36,491.8c-0.28,0-0.52,0.06-0.7,0.18s-0.27,0.28-0.27,0.46
			c0,0.44,0.4,0.66,1.19,0.66c0.37,0,0.66-0.05,0.87-0.16c0.21-0.11,0.31-0.27,0.31-0.47c0-0.2-0.13-0.36-0.39-0.48
			C83.1,491.87,82.77,491.8,82.36,491.8z M82.56,488.07c-0.23,0-0.42,0.08-0.58,0.23c-0.16,0.15-0.24,0.34-0.24,0.56
			c0,0.22,0.08,0.4,0.24,0.55c0.16,0.14,0.36,0.22,0.6,0.22c0.24,0,0.44-0.07,0.6-0.22c0.16-0.15,0.24-0.33,0.24-0.55
			c0-0.22-0.08-0.41-0.24-0.56S82.8,488.07,82.56,488.07z"/>
		<path class="st9" d="M85.7,485.13h0.84v2.77c0.35-0.43,0.79-0.64,1.31-0.64c0.28,0,0.54,0.07,0.77,0.21
			c0.23,0.14,0.39,0.34,0.5,0.59c0.11,0.25,0.16,0.62,0.16,1.12v2.43h-0.84v-2.64c0-0.31-0.08-0.56-0.23-0.75
			c-0.15-0.19-0.35-0.29-0.61-0.29c-0.19,0-0.36,0.05-0.52,0.14c-0.16,0.1-0.34,0.26-0.54,0.48v3.06H85.7V485.13z"/>
		<path class="st9" d="M90.34,488.01l1.59-1.56v0.88h1.35v0.76h-1.35v2.09c0,0.49,0.2,0.73,0.61,0.73c0.3,0,0.62-0.1,0.96-0.3v0.79
			c-0.32,0.18-0.68,0.27-1.06,0.27c-0.39,0-0.71-0.11-0.96-0.34c-0.08-0.07-0.15-0.14-0.2-0.23c-0.05-0.09-0.1-0.2-0.13-0.33
			c-0.04-0.14-0.05-0.4-0.05-0.79v-1.89h-0.74V488.01z"/>
		<path class="st9" d="M94.37,491.3v-0.91c0.24,0.17,0.48,0.3,0.73,0.41c0.25,0.1,0.46,0.16,0.63,0.16c0.18,0,0.33-0.04,0.45-0.13
			c0.13-0.09,0.19-0.19,0.19-0.31c0-0.12-0.04-0.23-0.12-0.31c-0.08-0.08-0.26-0.2-0.53-0.35c-0.54-0.3-0.9-0.56-1.07-0.78
			c-0.17-0.21-0.25-0.45-0.25-0.7c0-0.33,0.13-0.6,0.38-0.8c0.26-0.21,0.58-0.31,0.99-0.31c0.42,0,0.85,0.12,1.28,0.35v0.83
			c-0.5-0.3-0.91-0.45-1.23-0.45c-0.16,0-0.3,0.03-0.4,0.1c-0.1,0.07-0.15,0.16-0.15,0.28c0,0.1,0.05,0.19,0.14,0.28
			c0.09,0.09,0.25,0.2,0.48,0.32l0.3,0.17c0.71,0.4,1.07,0.85,1.07,1.34c0,0.35-0.14,0.64-0.41,0.86c-0.27,0.22-0.63,0.34-1.06,0.34
			c-0.25,0-0.48-0.03-0.68-0.08C94.92,491.54,94.67,491.44,94.37,491.3z"/>
		<path class="st9" d="M101.43,491.61v-0.55c-0.18,0.2-0.38,0.35-0.61,0.46s-0.46,0.16-0.69,0.16c-0.27,0-0.52-0.07-0.74-0.2
			s-0.4-0.32-0.51-0.55c-0.12-0.23-0.17-0.61-0.17-1.15v-2.44h0.84v2.43c0,0.45,0.06,0.76,0.19,0.94c0.13,0.18,0.35,0.27,0.67,0.27
			c0.4,0,0.74-0.2,1.03-0.59v-3.05h0.84v4.27H101.43z"/>
		<path class="st9" d="M104.78,487.34v0.54c0.38-0.42,0.81-0.63,1.28-0.63c0.27,0,0.51,0.07,0.74,0.21c0.23,0.14,0.4,0.33,0.52,0.57
			c0.12,0.24,0.18,0.62,0.18,1.14v2.44h-0.84v-2.43c0-0.44-0.07-0.75-0.2-0.93c-0.13-0.19-0.36-0.28-0.67-0.28
			c-0.4,0-0.74,0.2-1.02,0.6v3.05h-0.86v-4.27H104.78z"/>
		<path class="st9" d="M110.07,487.34v0.98l0.05-0.07c0.41-0.66,0.82-0.99,1.22-0.99c0.32,0,0.65,0.16,1,0.48l-0.45,0.74
			c-0.29-0.28-0.57-0.42-0.82-0.42c-0.27,0-0.51,0.13-0.71,0.39s-0.3,0.57-0.3,0.92v2.23h-0.85v-4.27H110.07z"/>
		<path class="st9" d="M116.08,489.04v1.81c0,0.15,0.05,0.22,0.15,0.22c0.1,0,0.26-0.08,0.48-0.23v0.51
			c-0.19,0.12-0.35,0.21-0.46,0.25c-0.12,0.04-0.24,0.07-0.36,0.07c-0.36,0-0.58-0.14-0.64-0.43c-0.36,0.28-0.74,0.42-1.15,0.42
			c-0.3,0-0.54-0.1-0.74-0.29c-0.2-0.2-0.3-0.44-0.3-0.74c0-0.27,0.1-0.51,0.29-0.72c0.19-0.21,0.47-0.38,0.82-0.5l1.08-0.37v-0.23
			c0-0.51-0.26-0.77-0.77-0.77c-0.46,0-0.91,0.24-1.35,0.71v-0.92c0.33-0.39,0.8-0.58,1.41-0.58c0.46,0,0.83,0.12,1.11,0.36
			c0.09,0.08,0.18,0.18,0.25,0.31c0.07,0.13,0.12,0.26,0.14,0.38C116.07,488.44,116.08,488.68,116.08,489.04z M115.25,490.76v-1.27
			l-0.57,0.22c-0.29,0.11-0.49,0.23-0.61,0.35s-0.18,0.26-0.18,0.43c0,0.18,0.06,0.32,0.17,0.43s0.26,0.17,0.44,0.17
			C114.77,491.09,115.02,490.98,115.25,490.76z"/>
		<path class="st9" d="M118.77,487.34v0.54c0.38-0.42,0.81-0.63,1.28-0.63c0.27,0,0.51,0.07,0.74,0.21c0.23,0.14,0.4,0.33,0.52,0.57
			c0.12,0.24,0.18,0.62,0.18,1.14v2.44h-0.84v-2.43c0-0.44-0.07-0.75-0.2-0.93c-0.13-0.19-0.36-0.28-0.67-0.28
			c-0.4,0-0.74,0.2-1.02,0.6v3.05h-0.86v-4.27H118.77z"/>
		<path class="st9" d="M126,485.13h0.85v6.48h-1.8c-0.63,0-1.13-0.2-1.51-0.6c-0.38-0.4-0.56-0.93-0.56-1.6
			c0-0.63,0.2-1.14,0.59-1.55c0.39-0.41,0.9-0.61,1.51-0.61c0.28,0,0.59,0.06,0.93,0.18V485.13z M126,490.88v-2.7
			c-0.26-0.13-0.53-0.2-0.8-0.2c-0.42,0-0.76,0.14-1,0.41c-0.25,0.28-0.37,0.65-0.37,1.11c0,0.44,0.11,0.78,0.32,1.02
			c0.13,0.14,0.27,0.24,0.41,0.29c0.15,0.05,0.41,0.07,0.78,0.07H126z"/>
		<path class="st9" d="M130.51,487.33c0.65,0,1.19,0.21,1.62,0.63c0.43,0.42,0.64,0.95,0.64,1.58c0,0.62-0.22,1.13-0.65,1.53
			c-0.44,0.41-0.98,0.61-1.65,0.61c-0.64,0-1.18-0.21-1.6-0.62c-0.43-0.41-0.64-0.93-0.64-1.55c0-0.62,0.22-1.14,0.65-1.56
			C129.31,487.54,129.85,487.33,130.51,487.33z M130.46,488.09c-0.41,0-0.74,0.13-1,0.4c-0.26,0.27-0.39,0.6-0.39,1.02
			c0,0.41,0.13,0.74,0.4,1c0.27,0.26,0.61,0.39,1.03,0.39c0.41,0,0.75-0.13,1.02-0.39c0.26-0.26,0.4-0.6,0.4-1
			c0-0.41-0.14-0.74-0.41-1.01C131.23,488.22,130.88,488.09,130.46,488.09z"/>
		<path class="st9" d="M135.03,487.34v0.54c0.38-0.42,0.81-0.63,1.28-0.63c0.27,0,0.51,0.07,0.74,0.21c0.23,0.14,0.4,0.33,0.52,0.57
			c0.12,0.24,0.18,0.62,0.18,1.14v2.44h-0.84v-2.43c0-0.44-0.07-0.75-0.2-0.93c-0.13-0.19-0.36-0.28-0.67-0.28
			c-0.4,0-0.74,0.2-1.02,0.6v3.05h-0.86v-4.27H135.03z"/>
		<path class="st9" d="M140.25,487.34v0.54c0.38-0.42,0.81-0.63,1.28-0.63c0.27,0,0.51,0.07,0.74,0.21c0.23,0.14,0.4,0.33,0.52,0.57
			c0.12,0.24,0.18,0.62,0.18,1.14v2.44h-0.84v-2.43c0-0.44-0.07-0.75-0.2-0.93c-0.13-0.19-0.36-0.28-0.67-0.28
			c-0.4,0-0.74,0.2-1.02,0.6v3.05h-0.86v-4.27H140.25z"/>
		<path class="st9" d="M148.27,489.55h-3c0.02,0.41,0.16,0.73,0.41,0.97c0.25,0.24,0.58,0.36,0.98,0.36c0.56,0,1.07-0.17,1.54-0.52
			v0.83c-0.26,0.17-0.52,0.3-0.77,0.37c-0.26,0.07-0.55,0.11-0.9,0.11c-0.47,0-0.85-0.1-1.14-0.29s-0.52-0.46-0.7-0.79
			c-0.17-0.33-0.26-0.71-0.26-1.14c0-0.65,0.18-1.18,0.55-1.58c0.37-0.41,0.85-0.61,1.43-0.61c0.57,0,1.02,0.2,1.35,0.59
			c0.34,0.4,0.51,0.93,0.51,1.59V489.55z M145.29,489.04h2.15c-0.02-0.34-0.12-0.6-0.3-0.78c-0.18-0.18-0.42-0.27-0.72-0.27
			c-0.3,0-0.55,0.09-0.74,0.27C145.47,488.44,145.35,488.7,145.29,489.04z"/>
		<path class="st9" d="M153.3,489.55h-3c0.02,0.41,0.16,0.73,0.41,0.97c0.25,0.24,0.58,0.36,0.98,0.36c0.56,0,1.07-0.17,1.54-0.52
			v0.83c-0.26,0.17-0.52,0.3-0.77,0.37c-0.26,0.07-0.55,0.11-0.9,0.11c-0.47,0-0.85-0.1-1.14-0.29s-0.52-0.46-0.7-0.79
			c-0.17-0.33-0.26-0.71-0.26-1.14c0-0.65,0.18-1.18,0.55-1.58c0.37-0.41,0.85-0.61,1.43-0.61c0.57,0,1.02,0.2,1.35,0.59
			c0.34,0.4,0.51,0.93,0.51,1.59V489.55z M150.31,489.04h2.15c-0.02-0.34-0.12-0.6-0.3-0.78c-0.18-0.18-0.42-0.27-0.72-0.27
			c-0.3,0-0.55,0.09-0.74,0.27C150.5,488.44,150.37,488.7,150.31,489.04z"/>
		<path class="st9" d="M155.31,490.57c0.16,0,0.29,0.05,0.4,0.16c0.11,0.11,0.17,0.24,0.17,0.4c0,0.15-0.05,0.28-0.16,0.39
			c-0.11,0.11-0.25,0.16-0.41,0.16c-0.16,0-0.29-0.05-0.4-0.16s-0.16-0.23-0.16-0.39c0-0.16,0.05-0.29,0.16-0.4
			C155.02,490.62,155.15,490.57,155.31,490.57z"/>
		<path class="st9" d="M157.23,491.3v-0.91c0.24,0.17,0.48,0.3,0.73,0.41c0.25,0.1,0.46,0.16,0.63,0.16c0.18,0,0.33-0.04,0.45-0.13
			c0.13-0.09,0.19-0.19,0.19-0.31c0-0.12-0.04-0.23-0.12-0.31c-0.08-0.08-0.26-0.2-0.53-0.35c-0.54-0.3-0.9-0.56-1.07-0.78
			c-0.17-0.21-0.25-0.45-0.25-0.7c0-0.33,0.13-0.6,0.38-0.8c0.26-0.21,0.58-0.31,0.99-0.31c0.42,0,0.85,0.12,1.28,0.35v0.83
			c-0.5-0.3-0.91-0.45-1.23-0.45c-0.16,0-0.3,0.03-0.4,0.1c-0.1,0.07-0.15,0.16-0.15,0.28c0,0.1,0.05,0.19,0.14,0.28
			c0.09,0.09,0.25,0.2,0.48,0.32l0.3,0.17c0.71,0.4,1.07,0.85,1.07,1.34c0,0.35-0.14,0.64-0.41,0.86s-0.63,0.34-1.06,0.34
			c-0.25,0-0.48-0.03-0.68-0.08C157.77,491.54,157.53,491.44,157.23,491.3z"/>
		<path class="st9" d="M165.2,489.55h-3c0.02,0.41,0.16,0.73,0.41,0.97c0.25,0.24,0.58,0.36,0.98,0.36c0.56,0,1.07-0.17,1.54-0.52
			v0.83c-0.26,0.17-0.52,0.3-0.77,0.37c-0.26,0.07-0.55,0.11-0.9,0.11c-0.47,0-0.85-0.1-1.14-0.29s-0.52-0.46-0.7-0.79
			c-0.17-0.33-0.26-0.71-0.26-1.14c0-0.65,0.18-1.18,0.55-1.58c0.37-0.41,0.85-0.61,1.43-0.61c0.57,0,1.02,0.2,1.35,0.59
			c0.34,0.4,0.51,0.93,0.51,1.59V489.55z M162.22,489.04h2.15c-0.02-0.34-0.12-0.6-0.3-0.78c-0.18-0.18-0.42-0.27-0.72-0.27
			c-0.3,0-0.55,0.09-0.74,0.27C162.4,488.44,162.28,488.7,162.22,489.04z"/>
	</g>
	<g class="st1">
		<path class="st10" d="M102.5,515.83c-0.01-0.14-0.25-0.05-0.22-0.22c-0.24,0.06-0.28,0.32-0.37,0.52
			c-0.2,0.26-0.43,0.18-0.65,0.37c-0.24,0.2-0.3,0.45-0.46,0.52c0.08-0.47,0.12-0.86,0.3-1.19c0.14-0.26,0.46-0.36,0.52-0.67
			c-0.44-0.22-0.51,0.33-0.82,0.52c-0.15,0.09-0.34,0.1-0.56,0.12c0.14-0.13,0.21-0.24,0.26-0.34c0.11-0.18,0.28-0.59,0.52-0.67
			c0.02-0.17-0.21-0.08-0.22-0.22c-0.29,0.03-0.44,0.66-0.82,0.89c-0.49,0.31-1.35,0.38-1.11-0.37c0.05,0.2,0.08,0.35,0.3,0.37
			c0.71-0.04,0.31-1.18,0.97-1.26c-0.07-0.13-0.3-0.28-0.52-0.3c-0.1-0.01-0.28,0.12-0.44,0.15c-0.37,0.06-0.82,0.01-1.04,0.08
			c-0.27,0.08-0.6,0.48-0.96,0.52c-0.25,0.62-0.64,1.08-1.63,0.96c-0.13-0.11,0.14-0.38-0.22-0.37c0.12-0.52,0.77-0.18,1.19-0.37
			c0.23-0.1,0.45-0.3,0.45-0.67c-0.61-0.08-1.46,0.61-2,0.96c-0.12,0.08-0.51,0.34-0.59,0.37c-0.65,0.28-1.34,0.01-1.63-0.44
			c-0.12-0.23-0.1-0.61,0-0.89c0.34,0.6,1.61,0.89,2.38,0.45c0.05-0.03,0.29-0.18,0.37-0.22c0.43-0.23,0.86-0.58,1.56-0.59
			c-0.03-0.73-1.31-0.59-1.63-0.22c-0.03,0.27-0.02,0.49-0.16,0.64c-0.11,0.08-0.23,0.12-0.36,0.17c-0.17-0.04-0.11-0.16-0.15-0.3
			c-0.17,0.02-0.31,0.15-0.44,0c0.02-0.57,0-0.89,0.11-1.27c0.01-0.05,0.1-0.17,0.12-0.19c0.32-0.2,0.81-0.45,1.18-0.69
			c0.42-0.27,0.86-0.47,1.26-0.74c0.53-0.36,0.92-0.91,1.56-1.11c0.25-0.17,0.34-0.5,0.74-0.52c-0.37-0.45-1.31-0.11-1.78,0.08
			c-0.19,0.07-0.37,0.07-0.52,0.15c-0.1,0.06-0.17,0.22-0.3,0.3c-0.25,0.15-0.6,0.3-0.89,0.44c-0.55,0.27-0.94,0.46-1.93,0.37
			c0.09-0.38,0.72-0.22,0.82-0.59c0.15-0.76-0.6-1.22-0.52-2.15c0.32-0.02,0.4,0.31,0.52,0.44c0.14,0.16,0.25,0.39,0.45,0.52
			c0.09,0.06,0.2,0.02,0.3,0.07c0.11,0.06,0.32,0.19,0.59,0.22c0.69,0.08,1.52-0.22,2.3-0.3c0-0.21-0.25-0.23-0.37-0.3
			c-0.33-0.19-0.77-0.39-1.19-0.6c-0.28-0.14-0.57-0.24-0.82-0.45c-0.18-0.15-0.44-0.4-0.59-0.59c-0.05-0.06-0.06-0.24-0.15-0.37
			c-0.06-0.09-0.19-0.14-0.22-0.22c-0.05-0.1-0.03-0.23-0.08-0.37c-0.08-0.26-0.2-0.61-0.22-1.11c0.26,0.05,0.2,0.4,0.3,0.59
			c0.09,0.18,0.26,0.36,0.37,0.52c0.25,0.34,0.49,0.77,0.97,0.67c0.25-0.28,0.08-1.26,0.44-1.63c0.02,1.66,1.02,3.21,2.45,3.42
			c0.79,0.11,1.56-0.08,2.08-0.37c0.26-0.15,0.57-0.33,0.74-0.52c0.18-0.2,0.31-0.51,0.44-0.82c0.21-0.48,0.41-1.18,0.22-1.93
			c-0.08-0.3-0.28-0.64-0.45-0.89c-0.41-0.63-1.05-1.15-1.71-1.63c-0.71-0.52-1.47-0.92-2-1.26c-0.35,0.03-0.54-0.11-0.82-0.15
			c0.28-0.26,0.65-0.16,1.04-0.07c0.49,0.11,0.88,0.41,1.34,0.67c0.33,0.18,0.62,0.38,0.97,0.6c0.29,0.18,0.53,0.39,0.89,0.44
			c1.19,0.18,1.88-0.6,2.6-1.26c0.15,0.27-0.03,0.62-0.15,0.82c-0.15,0.26-0.5,0.41-0.67,0.67c-0.05,0.08-0.01,0.09-0.07,0.15
			c-0.15,0.16-0.34,0.77-0.3,1.26c0.05,0.6,0.61,1.52,1.63,1.41c0.9-0.09,1.44-0.56,2.52-0.59c-0.17,0.26-0.56,0.28-0.82,0.52
			c-0.06,0.06-0.32,0.18-0.44,0.3c-0.08,0.08-0.42,0.19-0.59,0.3c-0.03,0.02-0.05,0.14-0.08,0.15c-0.11,0.05-0.22,0.06-0.37,0.15
			c-0.16,0.1-0.3,0.22-0.44,0.3c-0.17,0.09-0.35,0.13-0.52,0.22c-0.13,0.07-0.24,0.22-0.37,0.3c-0.6,0.34-1.29,0.68-1.93,1.04
			c-0.13,0.07-0.28,0.21-0.45,0.3c-0.39,0.21-1.2,0.34-1.04,1.11c0.36,0.06,0.79-0.27,1.11-0.52c0.44-0.34,0.64-0.68,1.33-0.89
			c0.89-0.26,1.6,0,2.6,0.22c-0.91,0.97-2.24,1.52-4.16,1.48c0.03,0.26,0.36,0.23,0.52,0.3c0.52,0.2,1.26,0.4,1.86,0.59
			c0.83,0.26,2.45,0.74,2.45,0.74c-0.07,1.81-0.07,3.81-1.49,5.49c0,0-0.93-0.76-1.48-1.04c-0.11,0.83-1.24,0.95-1.17,1.61
			c0.01,0.04,0,0.17,0.1,0.26c0.13,0.05,0.29,0.01,0.33-0.16c0.1,0.27-0.27,0.45-0.48,0.25c-0.28-0.28-0.3-0.77-0.11-1.36
			c0.06-0.18,0.27-0.38,0.37-0.52c0.07-0.1,0.08-0.2,0.15-0.3C102.4,515.99,102.54,515.99,102.5,515.83 M98.29,512.04
			c0.12,0.1,0.28,0.15,0.44,0.15c0.39,0,0.7-0.32,0.7-0.71c0-0.39-0.31-0.71-0.7-0.71c-0.39,0-0.7,0.32-0.7,0.71
			c0,0.07,0.01,0.14,0.03,0.2c0,0-0.47,0.25-0.49,0.26c-0.03,0.02-0.05,0.05-0.03,0.09c0.01,0.02,0.13,0.22,0.14,0.24
			c0.02,0.02,0.06,0.04,0.09,0.02C97.78,512.3,98.29,512.04,98.29,512.04 M99,511.5c0-0.16-0.13-0.28-0.28-0.28
			c-0.15,0-0.28,0.13-0.28,0.28c0,0.16,0.13,0.28,0.28,0.28C98.87,511.78,99,511.66,99,511.5"/>
		<path class="st9" d="M87.52,524.56c-0.48,0-0.79-0.33-0.79-0.78v-1.84c0-0.45,0.32-0.78,0.79-0.78c0.49,0,0.75,0.32,0.75,0.76
			v0.47H87.8v-0.48c0-0.16-0.09-0.27-0.27-0.27c-0.18,0-0.27,0.11-0.27,0.27v1.92c0,0.15,0.09,0.27,0.27,0.27
			c0.18,0,0.27-0.12,0.27-0.27v-0.49h0.46v0.48C88.27,524.25,88.01,524.56,87.52,524.56z"/>
		<path class="st9" d="M89.74,523.18v1.32h-0.52v-1.32l-0.59-1.96h0.53l0.35,1.38l0.34-1.38h0.52L89.74,523.18z"/>
		<path class="st9" d="M91.9,524.51l-0.37-1.37l-0.18,0.47v0.89h-0.52v-3.29h0.52v1.54l0.54-1.54h0.52l-0.53,1.4l0.55,1.89H91.9z"/>
		<path class="st9" d="M92.96,524.51v-3.29h1.31v0.46h-0.79v0.91h0.55v0.43h-0.55v1h0.79v0.48H92.96z"/>
		<path class="st9" d="M94.84,524.51v-3.29h0.52v2.81h0.76v0.47H94.84z"/>
		<path class="st9" d="M96.64,524.51v-3.29h0.52v3.29H96.64z"/>
		<path class="st9" d="M99.04,524.51l-0.55-1.49l-0.18-0.5v1.99h-0.47v-3.29h0.47l0.51,1.5l0.17,0.51v-2.01h0.47v3.29H99.04z"/>
		<path class="st9" d="M100.99,521.7v2.81h-0.52v-2.81h-0.51v-0.48h1.53v0.48H100.99z"/>
		<path class="st9" d="M103.29,524.52c-0.2,0-0.28-0.2-0.28-0.45v-0.71c0-0.13-0.07-0.24-0.21-0.24h-0.26v1.39h-0.52v-3.29h0.84
			c0.37,0,0.65,0.2,0.65,0.65v0.58c0,0.22-0.1,0.38-0.31,0.46c0.21,0.07,0.32,0.25,0.32,0.45v0.67c0,0.15,0.04,0.25,0.1,0.33v0.15
			H103.29z M102.99,521.88c0-0.14-0.05-0.21-0.18-0.21h-0.27v1.04h0.25c0.13,0,0.2-0.07,0.2-0.23V521.88z"/>
		<path class="st9" d="M104.14,524.51v-3.29h1.31v0.46h-0.79v0.91h0.55v0.43h-0.55v1h0.79v0.48H104.14z"/>
		<path class="st9" d="M106.72,524.56c-0.47,0-0.77-0.29-0.77-0.75v-0.29h0.48v0.28c0,0.21,0.09,0.32,0.28,0.32
			c0.19,0,0.27-0.11,0.27-0.29c0-0.29-0.14-0.5-0.42-0.79c-0.27-0.27-0.58-0.66-0.58-1.07c0-0.44,0.26-0.8,0.76-0.8
			c0.44,0,0.72,0.31,0.72,0.76v0.3h-0.47v-0.3c0-0.18-0.09-0.31-0.25-0.31c-0.15,0-0.26,0.1-0.26,0.27c0,0.32,0.14,0.48,0.45,0.8
			c0.32,0.33,0.56,0.66,0.56,1.08C107.49,524.28,107.15,524.56,106.72,524.56z"/>
		<path class="st9" d="M108.75,524.56c-0.47,0-0.77-0.29-0.77-0.75v-0.29h0.48v0.28c0,0.21,0.09,0.32,0.28,0.32
			c0.19,0,0.27-0.11,0.27-0.29c0-0.29-0.14-0.5-0.42-0.79c-0.27-0.27-0.59-0.66-0.59-1.07c0-0.44,0.26-0.8,0.77-0.8
			c0.44,0,0.72,0.31,0.72,0.76v0.3h-0.47v-0.3c0-0.18-0.09-0.31-0.25-0.31c-0.15,0-0.26,0.1-0.26,0.27c0,0.32,0.14,0.48,0.45,0.8
			c0.32,0.33,0.56,0.66,0.56,1.08C109.51,524.28,109.18,524.56,108.75,524.56z"/>
		<path class="st9" d="M110.08,524.51v-3.29h1.32v0.46h-0.79v0.91h0.55v0.43h-0.55v1h0.79v0.48H110.08z"/>
		<path class="st9" d="M112.87,521.7v2.81h-0.52v-2.81h-0.51v-0.48h1.53v0.48H112.87z"/>
	</g>
	<g id="Asset-Artboard-Page" class="st1">
		<g id="Logo_x2F_miljo-logo" transform="translate(0.636364, 0.000000)">
			<g id="Group-2" transform="translate(1.000000, 8.000000)">
				<path id="Fill-3" class="st10" d="M52.1,505.42l-2.78,0c-0.01-1.24,0.42-2.38,1.3-3.44c0.89,0.55,1.48,1.53,1.48,2.64V505.42z
					 M52.1,509.44h-1.41c-0.81-1.3-1.26-2.5-1.35-3.63l2.76,0V509.44z M47.28,509.44c-0.95,0-1.79-0.43-2.36-1.1
					c0.92-0.83,1.53-1.68,1.82-2.53l2.21,0c0.09,1.14,0.51,2.35,1.27,3.63H47.28z M44.18,506.34v-0.52l2.14,0
					c-0.29,0.73-0.84,1.47-1.64,2.21C44.37,507.54,44.18,506.96,44.18,506.34z M44.99,501.53c1.07,1.07,1.59,2.14,1.56,3.19
					c-0.01,0.24-0.04,0.47-0.11,0.71l-2.27,0v-3.91H44.99z M48.99,501.53c0.45,0,0.88,0.1,1.27,0.27c-0.9,1.11-1.34,2.32-1.33,3.63
					l-2.08,0c0.05-0.23,0.09-0.46,0.09-0.7c0.03-1.07-0.45-2.15-1.41-3.21H48.99z M43.79,501.13v5.21c0,1.93,1.57,3.49,3.49,3.49
					h5.21v-5.21c0-1.93-1.57-3.49-3.49-3.49H43.79z"/>
				<path id="Fill-5" class="st10" d="M57.69,501.13l-1.27,3.69h-0.59l-1.28-3.69h0.6l0.77,2.35c0.07,0.22,0.17,0.54,0.21,0.67
					c0.03-0.13,0.14-0.46,0.21-0.68l0.76-2.35H57.69z"/>
				<path id="Fill-7" class="st10" d="M61.59,504.07c0,0.61-0.5,0.82-1.04,0.82c-0.37,0-0.78-0.15-1.06-0.35l0.25-0.41
					c0.26,0.18,0.55,0.27,0.81,0.27c0.34,0,0.51-0.11,0.51-0.31c0-0.21-0.24-0.31-0.64-0.46c-0.6-0.23-0.81-0.43-0.81-0.87
					c0-0.5,0.39-0.75,0.94-0.75c0.35,0,0.69,0.13,0.94,0.31l-0.24,0.42c-0.23-0.16-0.45-0.24-0.72-0.24c-0.26,0-0.38,0.11-0.38,0.25
					c0,0.14,0.09,0.24,0.51,0.4C61.28,503.38,61.59,503.54,61.59,504.07"/>
				<polygon id="Fill-9" class="st10" points="57.6,509.79 57.04,509.79 57.04,508.14 55.35,508.14 55.35,509.79 54.79,509.79 
					54.79,506.1 55.35,506.1 55.35,507.59 57.04,507.59 57.04,506.1 57.6,506.1 				"/>
				<path id="Fill-11" class="st10" d="M60.18,508.15c-0.03-0.38-0.21-0.7-0.65-0.7c-0.36,0-0.59,0.25-0.63,0.7H60.18z
					 M60.72,508.35c0,0.1-0.01,0.19-0.02,0.25h-1.83c0.06,0.53,0.36,0.76,0.7,0.76c0.23,0,0.42-0.08,0.6-0.22l0.32,0.35
					c-0.24,0.23-0.53,0.36-0.95,0.36c-0.65,0-1.2-0.52-1.2-1.44c0-0.94,0.5-1.45,1.21-1.45C60.34,506.96,60.72,507.6,60.72,508.35
					L60.72,508.35z"/>
				<polygon id="Fill-13" class="st10" points="61.43,505.94 61.97,506.23 61.97,509.79 61.43,509.79 				"/>
				<path id="Fill-15" class="st10" d="M64.47,508.99v-1.17c-0.12-0.16-0.37-0.36-0.65-0.36c-0.39,0-0.6,0.3-0.6,0.88
					c0,0.7,0.22,1,0.62,1C64.1,509.35,64.33,509.17,64.47,508.99L64.47,508.99z M65,509.52c0,0.84-0.31,1.25-1.31,1.28l-0.18-0.41
					c0.78-0.04,0.95-0.25,0.95-0.82v-0.05c-0.2,0.18-0.43,0.32-0.72,0.32c-0.59,0-1.07-0.43-1.07-1.49c0-0.95,0.52-1.4,1.09-1.4
					c0.28,0,0.54,0.15,0.69,0.32v-0.26H65V509.52z"/>
				<path id="Fill-17" class="st10" d="M67.5,508.15c-0.03-0.38-0.21-0.7-0.65-0.7c-0.36,0-0.59,0.25-0.63,0.7H67.5z M68.05,508.35
					c0,0.1-0.01,0.19-0.02,0.25H66.2c0.06,0.53,0.36,0.76,0.7,0.76c0.23,0,0.42-0.08,0.6-0.22l0.32,0.35
					c-0.24,0.23-0.53,0.36-0.95,0.36c-0.65,0-1.2-0.52-1.2-1.44c0-0.94,0.5-1.45,1.21-1.45C67.67,506.96,68.05,507.6,68.05,508.35
					L68.05,508.35z"/>
				<polygon id="Fill-19" class="st10" points="69.29,509.79 68.75,509.79 68.75,506.23 69.29,505.94 				"/>
				<path id="Fill-21" class="st10" d="M71.71,509v-0.4c-0.15-0.07-0.34-0.12-0.63-0.12c-0.35,0-0.57,0.16-0.57,0.41
					c0,0.27,0.17,0.46,0.53,0.46C71.33,509.36,71.58,509.18,71.71,509L71.71,509z M72.24,509.79h-0.53v-0.27
					c-0.19,0.19-0.46,0.33-0.76,0.33c-0.45,0-0.96-0.25-0.96-0.93c0-0.62,0.47-0.9,1.1-0.9c0.26,0,0.46,0.04,0.62,0.11v-0.21
					c0-0.3-0.18-0.47-0.52-0.47c-0.28,0-0.51,0.05-0.72,0.17l-0.21-0.41c0.26-0.16,0.56-0.25,0.95-0.25c0.62,0,1.04,0.3,1.04,0.93
					V509.79z"/>
				<path id="Fill-23" class="st10" d="M75.25,509.79H74.7v-1.57c0-0.56-0.21-0.76-0.57-0.76c-0.36,0-0.57,0.26-0.57,0.71v1.62
					h-0.54v-2.77h0.54v0.26c0.14-0.2,0.41-0.32,0.7-0.32c0.64,0,0.99,0.42,0.99,1.24V509.79z"/>
				<path id="Fill-25" class="st10" d="M77.7,508.99v-1.17c-0.12-0.16-0.37-0.36-0.65-0.36c-0.39,0-0.6,0.3-0.6,0.88
					c0,0.7,0.22,1,0.62,1C77.33,509.35,77.56,509.17,77.7,508.99L77.7,508.99z M78.23,509.79h-0.54v-0.26
					c-0.2,0.18-0.43,0.32-0.72,0.32c-0.6,0-1.07-0.43-1.07-1.49c0-0.95,0.52-1.4,1.09-1.4c0.28,0,0.54,0.15,0.7,0.32v-1.05
					l0.54-0.28V509.79z"/>
				<path id="Fill-27" class="st10" d="M62.59,501.7c0.19,0,0.35-0.16,0.35-0.35c0-0.2-0.16-0.35-0.35-0.35
					c-0.2,0-0.35,0.16-0.35,0.35C62.24,501.54,62.4,501.7,62.59,501.7"/>
				<polygon id="Fill-29" class="st10" points="62.32,502.06 62.32,504.83 62.33,504.83 62.86,504.59 62.86,502.06 				"/>
				<path id="Fill-31" class="st10" d="M65,504.31c-0.1,0.04-0.22,0.07-0.33,0.07c-0.2,0-0.28-0.07-0.28-0.33v-1.5h0.69v-0.5h-0.69
					v-1.08l-0.53,0.28v0.79h-0.4v0.5h0.4v1.6c0,0.5,0.24,0.73,0.62,0.73c0.21,0,0.39-0.05,0.52-0.12V504.31z"/>
				<path id="Fill-33" class="st10" d="M58.56,501.7c0.19,0,0.35-0.16,0.35-0.35c0-0.2-0.16-0.35-0.35-0.35
					c-0.2,0-0.35,0.16-0.35,0.35C58.21,501.54,58.37,501.7,58.56,501.7"/>
				<polygon id="Fill-35" class="st10" points="58.29,504.59 58.82,504.83 58.83,504.83 58.83,502.06 58.29,502.06 				"/>
			</g>
		</g>
	</g>
	<g class="st1">
		<path class="st9" d="M121.2,510.06l0.87,2.28l0.89-2.28h0.88l-1.5,3.5h-0.55l-1.47-3.5H121.2z"/>
		<rect x="124.11" y="510.06" class="st9" width="0.82" height="3.5"/>
		<path class="st9" d="M128.21,512.59c0,0.73-0.63,1.07-1.4,1.07c-0.75,0-1.43-0.44-1.43-1.27h0.8c0,0.46,0.29,0.62,0.68,0.62
			c0.32,0,0.57-0.11,0.57-0.41c0-0.33-0.35-0.35-1.09-0.64c-0.49-0.19-0.83-0.37-0.83-0.98c0-0.66,0.6-1.01,1.32-1.01
			c0.74,0,1.34,0.5,1.34,1.19h-0.8c0-0.33-0.17-0.54-0.56-0.54c-0.28,0-0.5,0.14-0.5,0.38c0,0.3,0.32,0.34,0.96,0.59
			C127.75,511.77,128.21,511.95,128.21,512.59z"/>
		<rect x="128.72" y="510.06" class="st9" width="0.82" height="3.5"/>
		<path class="st9" d="M124.9,514.33v3.5h-0.82v-0.49c-0.22,0.38-0.62,0.58-1.14,0.58c-0.5,0-0.86-0.18-1.05-0.47
			c-0.17-0.26-0.23-0.56-0.23-1.04v-2.08h0.82v1.81c0,0.6,0.17,1.06,0.76,1.06c0.57,0,0.84-0.46,0.84-1.06v-1.81H124.9z"/>
		<path class="st9" d="M130.03,517.83v-1.96c0-0.56-0.2-0.91-0.65-0.91c-0.41,0-0.74,0.26-0.74,1.09v1.78h-0.82v-1.97
			c0-0.56-0.18-0.9-0.64-0.9c-0.41,0-0.75,0.26-0.75,1.09v1.78h-0.82v-3.5h0.82v0.49c0.15-0.32,0.52-0.58,0.98-0.58
			c0.64,0,0.95,0.28,1.1,0.62c0.17-0.35,0.58-0.62,1.07-0.62c1.05,0,1.26,0.72,1.26,1.38v2.22H130.03z"/>
		<path class="st9" d="M132.13,516.33c0.04,0.5,0.26,0.91,0.94,0.91c0.47,0,0.65-0.21,0.74-0.46h0.83c-0.1,0.6-0.68,1.14-1.57,1.14
			c-1.18,0-1.75-0.81-1.75-1.84c0-1.05,0.62-1.84,1.73-1.84c0.91,0,1.62,0.68,1.62,1.58c0,0.12,0,0.29-0.04,0.51H132.13z
			 M132.13,515.72h1.74c0-0.53-0.35-0.86-0.85-0.86C132.53,514.86,132.13,515.15,132.13,515.72z"/>
		<path class="st9" d="M138.67,514.33v3.5h-0.82v-0.47c-0.22,0.35-0.68,0.56-1.08,0.56c-1.07,0-1.8-0.85-1.8-1.84
			c0-0.99,0.73-1.84,1.8-1.84c0.41,0,0.86,0.21,1.08,0.56v-0.47H138.67z M137.85,516.08c0-0.6-0.41-1.11-1.04-1.11
			c-0.62,0-1.02,0.51-1.02,1.11c0,0.6,0.41,1.11,1.02,1.11C137.44,517.19,137.85,516.68,137.85,516.08z"/>
		<path class="st9" d="M132.05,512.86c-0.09,0.01-0.2,0.01-0.29,0.01c-0.32,0-0.51-0.08-0.51-0.68v-1.44h0.8v-0.68h-0.8v-0.47h-0.82
			v0.47h-0.59v0.68h0.59v1.63c0,1.18,0.74,1.23,1.13,1.23c0.18,0,0.35-0.01,0.48-0.03V512.86z"/>
		<path class="st9" d="M124.51,508.47c0.3,0,0.55,0.24,0.55,0.55c0,0.3-0.24,0.54-0.55,0.54c-0.3,0-0.54-0.24-0.54-0.54
			C123.97,508.71,124.22,508.47,124.51,508.47z"/>
		<path class="st9" d="M129.13,508.47c-0.3,0-0.54,0.24-0.54,0.55c0,0.3,0.24,0.54,0.54,0.54c0.3,0,0.55-0.24,0.55-0.54
			C129.68,508.71,129.43,508.47,129.13,508.47z"/>
		<path class="st9" d="M136.82,512.7c-0.3,0-0.54,0.24-0.54,0.55c0,0.3,0.24,0.54,0.54,0.54c0.3,0,0.55-0.24,0.55-0.54
			C137.36,512.94,137.12,512.7,136.82,512.7z"/>
		<g>
			<path class="st9" d="M141.5,518.81c-0.63,0-1.12,0.49-1.12,1.1c0,0.61,0.49,1.13,1.12,1.13c0.61,0,1.12-0.52,1.12-1.13
				C142.62,519.3,142.12,518.81,141.5,518.81z"/>
			<path class="st9" d="M142.22,517.83l1.45-9.36h-1.44l-0.12,0.79h-1.21l-0.12-0.79h-1.44l1.45,9.36H142.22z M141.92,510.52
				l-0.42,2.84l-0.42-2.84H141.92z"/>
		</g>
	</g>
</g>
</svg>
