<?xml version="1.0" encoding="UTF-8"?><svg id="a" xmlns="http://www.w3.org/2000/svg" width="20.2847mm" height="20.2847mm" viewBox="0 0 57.5 57.5"><defs><style>.cls-1{fill:none;}.cls-2{fill:#231f20;}.cls-3{fill:#151514;}</style></defs><polygon points="46.3842 40.9544 45.7712 40.4168 42.5533 44.0871 43.1674 44.6247 44.4321 43.1821 47.8809 46.2065 48.5694 45.4213 45.1205 42.397 46.3842 40.9544"/><polygon points="50.8436 42.3602 52.5075 39.2285 51.7871 38.8455 50.6125 41.0549 49.2568 40.3346 50.3571 38.2653 49.6368 37.8815 48.5365 39.9517 47.2834 39.2855 48.4321 37.1234 47.7118 36.7406 46.0729 39.824 50.8436 42.3602"/><polygon points="53.6629 35.9893 49.9259 35.1424 54.3775 32.8401 54.5758 31.9646 49.3071 30.7696 49.0809 31.7655 52.758 32.6003 48.3712 34.8967 48.1681 35.7911 53.4376 36.9852 53.6629 35.9893"/><path d="M51.61,26.0116c.063,0,.1273-.0055,.1927-.0166,.2949-.0502,.5269-.1953,.6952-.436,.1682-.2399,.2272-.5058,.1779-.7949-.0502-.2979-.1953-.5309-.4341-.699-.185-.1298-.3855-.1953-.6016-.1953-.064,0-.1293,.0057-.196,.0172-.2949,.0494-.527,.1944-.6971,.4323-.1701,.2378-.2302,.5057-.1788,.8035,.0492,.2919,.1953,.5229,.4369,.6922,.1873,.131,.389,.1965,.605,.1965Z"/><g><path d="M13.3364,8.1974c.5254-.4092,1.1367-.6973,1.8359-.8662l.5869,.7539c-.7217,.1406-1.332,.4043-1.832,.7949-.3115,.2422-.54,.5195-.6855,.832s-.1943,.6367-.1455,.9746c.0479,.3359,.1836,.6484,.4072,.9346,.3389,.4355,.7568,.6729,1.2529,.7129,.4971,.04,.9824-.125,1.4561-.4941,.1309-.1016,.2461-.21,.3477-.3252s.2109-.2676,.3262-.459l-.5518-.709-.7041,.5498-.502-.6436,1.5293-1.1914,1.3682,1.7578c-.0957,.3105-.2578,.6201-.4873,.9316-.2305,.3115-.5039,.5898-.8213,.8379-.4492,.3496-.9287,.5742-1.4385,.6738-.5088,.0996-.9961,.0615-1.46-.1133-.4639-.1738-.8564-.4668-1.1768-.877-.3242-.418-.5146-.875-.5713-1.373-.0566-.499,.0264-.9863,.25-1.4609s.5625-.8887,1.0156-1.2412Z"/><path d="M19.9829,4.6681c.4766-.1748,.9141-.1846,1.3105-.0303s.6729,.4434,.8271,.8672c.1055,.2891,.1221,.5674,.0518,.8359-.0703,.2695-.2305,.5186-.4775,.749,.1934,.0283,.3809,.0947,.5615,.1982s.4297,.3008,.7461,.5879c.5352,.502,.9199,.8418,1.1543,1.0195l-1.0928,.3994c-.1162-.084-.2832-.2246-.501-.4229-.4775-.4375-.8164-.7266-1.0156-.8652-.1992-.1406-.374-.2285-.5234-.2617-.1504-.0352-.3037-.0234-.4609,.0332l-.3564,.1309,.7822,2.1426-.9805,.3594-1.8525-5.0762,1.8271-.667Zm.5684,2.2461c.2568-.0938,.4355-.2314,.5352-.4131s.1084-.3848,.0273-.6074c-.085-.2324-.2207-.3789-.4082-.4414s-.416-.0439-.6846,.0547l-.6104,.2227,.5156,1.4131,.625-.2285Z"/><path d="M28.2778,3.1242l2.5781,5.3145-1.1016,.0391-.6074-1.2939-2.4004,.085-.4746,1.334-1.0938,.0391,2.0322-5.4795,1.0674-.0381Zm-1.2432,3.3418l1.7432-.0625-.9883-2.1055-.7549,2.168Z"/><path d="M34.6362,3.7521l1.9727,4.542,1.0986-3.6074,.9766,.2988-1.5742,5.168-.8584-.2617-1.9727-4.6074-1.1162,3.667-.9775-.2979,1.5742-5.168,.877,.2666Z"/><path d="M44.3198,8.3215c.4443,.3398,.7744,.7373,.9893,1.1924,.2158,.4551,.2969,.9365,.2432,1.4424-.0527,.5059-.2363,.9648-.5518,1.377-.3066,.4014-.6943,.6953-1.1621,.8809-.4688,.1855-.9551,.2354-1.459,.1504-.5049-.0859-.9824-.3008-1.4326-.6465-.4443-.3398-.7744-.7441-.9912-1.2148-.2158-.4707-.2969-.9521-.2412-1.4434,.0547-.4922,.2383-.9424,.5498-1.3496,.3008-.3936,.6846-.6855,1.1523-.877,.4678-.1904,.9521-.2461,1.4551-.1641,.5029,.0801,.9854,.2988,1.4482,.6523Zm-3.1992,1.0439c-.2178,.2842-.3486,.5898-.3936,.916s0,.6396,.1348,.9404,.3477,.5635,.6387,.7852c.4404,.3379,.9082,.4766,1.4033,.416,.4951-.0586,.9092-.3066,1.2432-.7432,.2178-.2842,.3496-.5898,.3965-.917,.0469-.3262,.002-.6406-.1357-.9434-.1367-.3027-.3506-.5645-.6416-.7871-.29-.2227-.6006-.3594-.9287-.4121-.3291-.0508-.6426-.0117-.9404,.1191s-.5566,.3398-.7764,.626Zm3.4414-2.0479c-.0801,.1055-.1924,.168-.3359,.1914-.1445,.0234-.2725-.0088-.3857-.0947-.1123-.0869-.1787-.2012-.1982-.3447-.0205-.1436,.0117-.2705,.0967-.3809,.0811-.1074,.1943-.1699,.3398-.1904s.2744,.0127,.3867,.0986c.1113,.084,.1758,.1992,.1934,.3428,.0186,.1436-.0137,.2705-.0967,.3779Zm1.5146,1.1582c-.085,.1113-.1982,.1758-.3418,.1953-.1426,.0195-.2695-.0137-.3799-.0986-.1123-.0859-.1777-.2002-.1953-.3428-.0186-.1416,.0146-.2676,.0996-.3789,.0801-.1035,.1914-.168,.3359-.1904,.1436-.0225,.2725,.0088,.3848,.0947,.1064,.082,.1699,.1953,.1904,.3398,.0205,.1465-.0107,.2734-.0938,.3809Z"/></g><path class="cls-1" d="M24.2055,49.5559c-.2125-.0432-.4249-.0864-.6372-.1296-.1006,.4912-.2012,.9824-.3018,1.4736,.2173,.0445,.4345,.0889,.6517,.1334,.0933,.0192,.1814,.0289,.264,.0289,.1547,0,.2908-.0336,.408-.1003,.1808-.1025,.2939-.2698,.3424-.5028,.0491-.2427,.0106-.439-.1161-.5898-.1277-.1509-.3307-.2552-.611-.3133Z"/><path class="cls-1" d="M37.2305,49.3652c-.2416-.2232-.5269-.3635-.8536-.4224-.1118-.0202-.2247-.0303-.339-.0303-.2199,0-.4444,.0374-.6734,.1124-.3481,.1132-.6373,.2911-.8664,.5328-.2281,.2416-.3731,.522-.4351,.8422-.0609,.3191-.0348,.6508,.0765,.994,.1111,.3403,.2891,.6218,.5318,.8431,.2437,.2224,.5268,.3625,.8517,.4216,.1121,.0207,.2256,.0309,.3405,.0309,.218,0,.441-.0372,.669-.1113,.5269-.1722,.9059-.4796,1.137-.9215,.232-.4409,.262-.9233,.0919-1.4455-.1111-.3403-.2881-.6226-.5309-.8461Z"/><path class="cls-1" d="M29.828,52.2782c-.0245,0-.0492,.0005-.0745,.0015-.3271,.0118-.6543,.0239-.9814,.0357,.0183,.509,.0366,1.0179,.0551,1.5267,.3004-.0109,.6008-.0219,.9012-.0328,.353-.0135,.6168-.089,.7928-.2282,.1751-.1393,.2582-.3384,.2485-.5956-.0076-.2292-.1044-.407-.2881-.5337-.1683-.1151-.3862-.1736-.6536-.1736Z"/><path class="cls-1" d="M30.0456,51.2547c.1548-.1373,.2281-.3231,.2194-.5579-.0076-.2088-.0869-.3713-.2387-.4882-.1405-.1089-.3203-.1635-.537-.1635l-.049,.0009c-.2502,.0091-.5003,.0181-.7504,.0272,.0174,.4755,.0348,.9508,.0524,1.4263,.2188-.0078,.4376-.0156,.6564-.0233,.2766-.0107,.4912-.084,.6469-.2214Z"/><path class="cls-1" d="M28.7494,56.5337c15.3204,0,27.7845-12.4642,27.7845-27.785S44.0698,.9643,28.7494,.9643,.964,13.4284,.964,28.7487s12.4651,27.785,27.7854,27.785Zm-15.6429-7.1403l-.8189-.6478,2.8447-3.5978-1.5046-1.1903,.5057-.6402,3.8289,3.0275-.5067,.6401-1.5044-1.1903-2.8447,3.5989Zm7.5969,.6855l-.3452,.7397-2.1232-.9911-.6498,1.3913,2.2673,1.0588-.345,.7386-3.214-1.4996,2.2856-4.8964,3.1648,1.4775-.3454,.7397-2.218-1.0355-.6005,1.2859,2.1233,.9911Zm5.2899,.5772c-.0619,.3007-.1925,.5472-.3935,.7387-.2012,.1924-.468,.321-.8006,.3878,.1508,.1247,.2756,.2793,.3752,.4631s.2088,.4806,.3268,.8916c.1924,.7087,.3414,1.1987,.4487,1.4735-.3803-.0777-.7606-.1554-1.1409-.2332-.0543-.1324-.1219-.3392-.2042-.6216-.1778-.6237-.3141-1.0472-.4107-1.2706-.0968-.2242-.1993-.3896-.3086-.4979-.1102-.1074-.2465-.179-.411-.2118l-.3712-.0764-.4574,2.2355c-.341-.0696-.682-.1393-1.0229-.2089,.3609-1.7646,.7219-3.5292,1.0828-5.2937,.6353,.1299,1.2705,.2597,1.9058,.3896,.498,.1025,.8751,.323,1.1322,.6623,.2563,.3394,.3404,.7301,.2495,1.172Zm5.6535,3.1888c-.144,.2418-.3501,.4264-.6179,.5549-.2679,.1286-.5859,.1992-.9543,.2128-.7535,.0277-1.5071,.0555-2.2606,.0831-.0659-1.8-.1317-3.6001-.1974-5.4001,.6597-.0239,1.3195-.0477,1.9794-.0715,.0341-.0013,.0679-.002,.1011-.002,.449,0,.8232,.1147,1.1219,.3443,.3221,.2456,.4893,.5627,.5038,.9485,.0087,.2475-.0483,.4679-.1722,.6603-.1227,.1934-.3063,.349-.5491,.4689l.001,.0465c.38,.0715,.6787,.2291,.8983,.4727,.2184,.2438,.3344,.5338,.347,.8712,.0106,.2988-.0561,.5696-.201,.8104Zm7.2034-2.5101c-.1122,.4913-.3461,.9206-.703,1.2869-.3557,.3676-.8034,.6391-1.343,.8151-.3519,.1153-.6994,.1729-1.0422,.1729-.1749,0-.3487-.015-.5214-.0451-.5095-.0881-.9524-.2939-1.3265-.6179-.3741-.325-.6411-.7301-.8005-1.2183-.1529-.4708-.1761-.9524-.0687-1.4456,.1073-.494,.3364-.9243,.6884-1.2927,.352-.3684,.8044-.6431,1.3585-.8237,.3635-.1191,.719-.1783,1.0663-.1783,.1607,0,.3196,.0127,.4767,.038,.4972,.0803,.9389,.2863,1.3267,.6169,.3868,.3307,.6614,.7426,.8219,1.2347,.1566,.4805,.1789,.9658,.0667,1.457Zm3.9488-.8257l-2.5671-3.8008-1.5897,1.0743-.4573-.6768,4.0445-2.7316,.4574,.6758-1.5896,1.0742,2.5671,3.801-.8654,.5839Zm5.082-4.3027l-3.4489-3.0244-1.2646,1.4426-.6141-.5377,3.2178-3.6703,.613,.5376-1.2637,1.4426,3.4489,3.0243-.6885,.7852Zm2.866-21.8871c.17-.2379,.4022-.3829,.6971-.4323,.0668-.0115,.1321-.0172,.196-.0172,.2161,0,.4166,.0654,.6016,.1953,.2389,.1682,.3839,.4011,.4341,.699,.0494,.2891-.0096,.5549-.1779,.7949-.1683,.2407-.4003,.3858-.6952,.436-.0655,.0111-.1298,.0166-.1927,.0166-.2161,0-.4178-.0654-.605-.1965-.2416-.1693-.3877-.4003-.4369-.6922-.0513-.2978,.0087-.5657,.1788-.8035Zm-2.3757,10.5773l4.3868-2.2964-3.6771-.8348,.2262-.9958,5.2687,1.1949-.1982,.8755-4.4516,2.3023,3.737,.8469-.2253,.9959-5.2695-1.1942,.2031-.8943Zm.0609,2.2267l-1.1487,2.162,1.2532,.6662,1.1003-2.0702,.7203,.3839-1.1003,2.0693,1.3557,.7203,1.1746-2.2094,.7204,.3829-1.6639,3.1318-4.7707-2.5362,1.6389-3.0834,.7203,.3828ZM28.7489,10.5062c10.0751,0,18.2434,8.1678,18.2434,18.243s-8.1683,18.2424-18.2434,18.2424S10.5065,38.8243,10.5065,28.7492,18.6739,10.5062,28.7489,10.5062ZM11.9578,37.989c-.0492,.1382-.1353,.2368-.259,.2938-.069,.0322-.1392,.0482-.2106,.0482-.0598,0-.1204-.0112-.1821-.0337-.1353-.0494-.2321-.1363-.291-.2631-.0581-.1237-.0639-.2532-.0175-.3887,.0464-.1353,.1345-.2339,.2658-.2949,.0685-.032,.1385-.0482,.2098-.0482,.0597,0,.1202,.0112,.1819,.0338,.1354,.0493,.2331,.1373,.292,.263,.0562,.1218,.0601,.2512,.0106,.3897Zm-1.7685-2.079c.0465-.1382,.1334-.2368,.2621-.2968,.0671-.0312,.1357-.047,.2057-.047,.0619,0,.1248,.0124,.1888,.0373,.1373,.0523,.2349,.1412,.293,.265,.0589,.1257,.0627,.2573,.0135,.3945-.0503,.1374-.1373,.2349-.2611,.2919-.0651,.0308-.1331,.0461-.2039,.0461-.0587,0-.1194-.0105-.1819-.0315-.1382-.0464-.2379-.1355-.2987-.2659-.058-.1238-.0638-.2554-.0175-.3936Zm-4.9117-11.9628c.1838-.131,.3842-.1966,.6011-.1966,.0651,0,.1315,.0059,.1995,.0176,.29,.0503,.5201,.1964,.6913,.436,.1721,.2408,.2321,.5068,.1819,.7996-.0524,.297-.1984,.529-.4382,.6973-.1835,.128-.3829,.1921-.5987,.1921-.066,0-.1337-.006-.2028-.018-.2919-.0503-.5221-.1953-.6913-.4341-.1692-.2387-.2283-.5067-.1769-.8035,.0502-.29,.1953-.5201,.4341-.6903Zm-2.0402,9.6472l4.9002-3.4649,.2108,1.082-3.1135,2.1635,3.6898,.7978,.2098,1.0742-5.8284-1.2957-.0687-.3568Zm2.775,7.6772l.9543-1.0646-1.0161-2.1765-1.4127,.0831-.4632-.992,5.8381-.2669,.4515,.967-3.8859,4.4478-.4661-.9979Zm2.5072,3.7554c-.2177-.2688-.3742-.524-.471-.7657-.0966-.2417-.17-.5405-.2194-.8982,.2672-.215,.5344-.43,.8016-.645-.0117,.7502,.143,1.3246,.4631,1.722,.1603,.1992,.3326,.3248,.5182,.3781,.058,.0165,.1139,.0247,.1677,.0247,.1176,0,.2253-.0392,.3235-.1176,.1944-.1575,.2678-.3915,.2186-.7029-.0455-.2542-.1141-.5753-.2041-.963-.116-.4525-.1402-.8412-.0706-1.1671,.0687-.3248,.2359-.5946,.5009-.8083,.265-.2134,.5497-.3206,.8537-.3206,.1008,0,.2036,.0118,.3086,.0354,.4214,.0938,.8064,.3568,1.1544,.7881,.3297,.4099,.5453,.8875,.6458,1.4319-.2411,.1941-.4821,.388-.723,.5822-.0872-.6478-.267-1.1401-.5386-1.4775-.1653-.205-.3336-.3335-.5067-.3847-.0562-.0168-.1101-.0252-.1619-.0252-.1071,0-.2052,.0359-.2945,.1082-.1595,.1276-.2194,.353-.1808,.6758,.0088,.0929,.0833,.4149,.2234,.968,.115,.4756,.1353,.8712,.0588,1.1835-.0753,.3123-.2532,.5811-.5327,.8064-.2818,.2274-.5853,.3408-.9108,.3408-.0911,0-.1839-.0089-.2785-.0267-.4312-.0811-.813-.3286-1.1457-.7426Z"/><path class="cls-1" d="M18.863,43.411c.9451,.6387,1.952,1.1858,3.0026,1.6302,1.0685,.452,2.1821,.7976,3.3187,1.0301,1.1719,.2398,2.3682,.3592,3.5647,.3592s2.3928-.1194,3.5648-.3592c1.1365-.2325,2.2502-.5781,3.3187-1.0301,1.0506-.4444,2.0576-.9915,3.0027-1.6302,.9385-.6341,1.8158-1.3585,2.6168-2.1594,.8009-.8007,1.5253-1.6781,2.1594-2.6165,.6387-.9451,1.1859-1.952,1.6303-3.0025,.4521-1.0685,.7977-2.1821,1.0303-3.3187,.2397-1.1719,.3591-2.3684,.3591-3.5646s-.1194-2.3928-.3591-3.5647c-.2326-1.1367-.5782-2.2502-1.0303-3.3187-.4445-1.0506-.9916-2.0577-1.6303-3.0027-.6342-.9384-1.3585-1.8157-2.1594-2.6166-.801-.8009-1.6784-1.5252-2.6169-2.1594-.945-.6386-1.952-1.1858-3.0026-1.6302-1.0685-.452-2.1822-.7977-3.3188-1.0302-1.172-.2397-2.3683-.3592-3.5647-.3592s-2.3928,.1194-3.5647,.3592c-1.1366,.2325-2.2502,.5781-3.3187,1.0302-1.0505,.4444-2.0575,.9916-3.0026,1.6302-.9384,.6342-1.8157,1.3585-2.6166,2.1594-.8008,.8008-1.5251,1.6782-2.1593,2.6166-.6386,.945-1.1857,1.9521-1.6301,3.0026-.452,1.0686-.7977,2.1822-1.0301,3.3188-.2398,1.1719-.3593,2.3682-.3593,3.5647s.1194,2.3928,.3593,3.5646c.2324,1.1367,.5781,2.2502,1.0301,3.3187,.4443,1.0505,.9915,2.0574,1.6301,3.0026,.6342,.9383,1.3585,1.8157,2.1593,2.6165,.8009,.8008,1.6782,1.5251,2.6166,2.1592Z"/><polygon class="cls-1" points="7.5411 39.563 9.0928 37.8313 6.8033 37.9821 7.5411 39.563"/><path d="M5.7117,25.8751c.0692,.012,.1368,.018,.2028,.018,.2158,0,.4152-.0641,.5987-.1921,.2397-.1683,.3858-.4003,.4382-.6973,.0502-.2928-.0098-.5588-.1819-.7996-.1711-.2396-.4013-.3857-.6913-.436-.068-.0118-.1345-.0176-.1995-.0176-.2169,0-.4173,.0656-.6011,.1966-.2388,.1702-.384,.4003-.4341,.6903-.0513,.2969,.0078,.5648,.1769,.8035,.1692,.2388,.3994,.3839,.6913,.4341Z"/><polygon points="8.9247 34.1726 5.2349 33.3748 8.3484 31.2114 8.1376 30.1294 3.2373 33.5943 3.3061 33.9511 9.1345 35.2468 8.9247 34.1726"/><path d="M11.6552,37.3363c-.0617-.0225-.1223-.0338-.1819-.0338-.0713,0-.1412,.0162-.2098,.0482-.1313,.061-.2194,.1596-.2658,.2949-.0464,.1354-.0406,.265,.0175,.3887,.0589,.1268,.1556,.2137,.291,.2631,.0617,.0225,.1224,.0337,.1821,.0337,.0714,0,.1415-.0161,.2106-.0482,.1238-.057,.2098-.1556,.259-.2938,.0494-.1385,.0455-.2679-.0106-.3897-.0589-.1257-.1566-.2137-.292-.263Z"/><path d="M9.9128,36.8546l-5.8381,.2669,.4632,.992,1.4127-.0831,1.0161,2.1765-.9543,1.0646,.4661,.9979,3.8859-4.4478-.4515-.967Zm-2.3718,2.7084l-.7377-1.5809,2.2895-.1509-1.5518,1.7318Z"/><path d="M10.5055,36.5695c.0626,.021,.1233,.0315,.1819,.0315,.0709,0,.1388-.0153,.2039-.0461,.1238-.0571,.2108-.1545,.2611-.2919,.0491-.1373,.0453-.2688-.0135-.3945-.058-.1238-.1557-.2126-.293-.265-.064-.0249-.127-.0373-.1888-.0373-.07,0-.1385,.0158-.2057,.047-.1287,.06-.2156,.1586-.2621,.2968-.0464,.1382-.0405,.2698,.0175,.3936,.0609,.1304,.1605,.2195,.2987,.2659Z"/><path d="M9.9438,45.7961c.3255,0,.629-.1135,.9108-.3408,.2794-.2253,.4573-.4941,.5327-.8064,.0765-.3123,.0562-.7078-.0588-1.1835-.1401-.5531-.2147-.8751-.2234-.968-.0386-.3229,.0214-.5482,.1808-.6758,.0893-.0723,.1874-.1082,.2945-.1082,.0518,0,.1058,.0084,.1619,.0252,.1731,.0512,.3413,.1797,.5067,.3847,.2717,.3374,.4515,.8297,.5386,1.4775,.241-.1942,.4819-.3881,.723-.5822-.1005-.5444-.316-1.022-.6458-1.4319-.348-.4313-.733-.6943-1.1544-.7881-.105-.0236-.2078-.0354-.3086-.0354-.304,0-.5887,.1072-.8537,.3206-.265,.2137-.4322,.4835-.5009,.8083-.0696,.3259-.0454,.7146,.0706,1.1671,.09,.3878,.1586,.7088,.2041,.963,.0493,.3114-.0242,.5454-.2186,.7029-.0981,.0784-.2059,.1176-.3235,.1176-.0538,0-.1097-.0082-.1677-.0247-.1857-.0533-.3579-.1789-.5182-.3781-.3201-.3974-.4748-.9718-.4631-1.722-.2673,.215-.5345,.43-.8016,.645,.0494,.3577,.1228,.6565,.2194,.8982,.0968,.2417,.2534,.4969,.471,.7657,.3326,.4139,.7145,.6614,1.1457,.7426,.0946,.0178,.1874,.0267,.2785,.0267Z"/><polygon points="17.9623 46.3448 14.1333 43.3173 13.6276 43.9575 15.1322 45.1478 12.2876 48.7456 13.1065 49.3934 15.9512 45.7946 17.4556 46.9849 17.9623 46.3448"/><polygon points="21.3985 48.8375 21.7439 48.0978 18.5791 46.6203 16.2934 51.5167 19.5074 53.0163 19.8525 52.2777 17.5851 51.2189 18.235 49.8276 20.3582 50.8187 20.7034 50.079 18.5801 49.0879 19.1805 47.802 21.3985 48.8375"/><path d="M24.6116,48.8219c-.6353-.1299-1.2705-.2597-1.9058-.3896-.361,1.7645-.7219,3.5291-1.0828,5.2937,.3409,.0696,.6819,.1393,1.0229,.2089l.4574-2.2355,.3712,.0764c.1645,.0328,.3008,.1044,.411,.2118,.1093,.1083,.2118,.2736,.3086,.4979,.0966,.2234,.2329,.6469,.4107,1.2706,.0823,.2823,.15,.4892,.2042,.6216,.3803,.0778,.7606,.1555,1.1409,.2332-.1073-.2748-.2562-.7648-.4487-1.4735-.118-.411-.2272-.7078-.3268-.8916s-.2244-.3384-.3752-.4631c.3326-.0668,.5994-.1954,.8006-.3878,.201-.1915,.3316-.438,.3935-.7387,.0909-.4419,.0068-.8326-.2495-1.172-.2571-.3393-.6342-.5598-1.1322-.6623Zm.3212,1.637c-.0485,.233-.1616,.4003-.3424,.5028-.1171,.0667-.2533,.1003-.408,.1003-.0826,0-.1708-.0096-.264-.0289-.2172-.0444-.4344-.0889-.6517-.1334,.1005-.4911,.2011-.9824,.3018-1.4736,.2123,.0432,.4247,.0864,.6372,.1296,.2803,.0581,.4833,.1624,.611,.3133,.1267,.1508,.1653,.347,.1161,.5898Z"/><path d="M30.6025,51.6908l-.001-.0465c.2428-.1199,.4265-.2755,.5491-.4689,.1239-.1924,.1809-.4128,.1722-.6603-.0145-.3859-.1816-.7029-.5038-.9485-.2987-.2296-.6729-.3443-1.1219-.3443-.0332,0-.067,.0007-.1011,.002-.6599,.0239-1.3196,.0477-1.9794,.0715,.0657,1.8,.1315,3.6001,.1974,5.4001,.7534-.0276,1.507-.0554,2.2606-.0831,.3684-.0135,.6865-.0842,.9543-.2128,.2678-.1285,.4738-.3132,.6179-.5549,.145-.2407,.2117-.5116,.201-.8104-.0126-.3373-.1286-.6274-.347-.8712-.2196-.2436-.5183-.4012-.8983-.4727Zm-1.9126-1.6177c.2501-.009,.5002-.0181,.7504-.0272l.049-.0009c.2167,0,.3965,.0546,.537,.1635,.1518,.1169,.2311,.2794,.2387,.4882,.0088,.2349-.0646,.4207-.2194,.5579-.1556,.1374-.3703,.2108-.6469,.2214-.2188,.0076-.4376,.0155-.6564,.0233-.0176-.4755-.035-.9508-.0524-1.4263Zm1.8314,3.5079c-.176,.1392-.4399,.2147-.7928,.2282-.3004,.011-.6008,.0219-.9012,.0328-.0184-.5089-.0367-1.0178-.0551-1.5267,.3271-.0118,.6543-.0239,.9814-.0357,.0253-.001,.05-.0015,.0745-.0015,.2673,0,.4852,.0585,.6536,.1736,.1838,.1266,.2805,.3044,.2881,.5337,.0097,.2572-.0734,.4564-.2485,.5956Z"/><path d="M37.9615,48.6431c-.3878-.3307-.8295-.5366-1.3267-.6169-.1571-.0253-.316-.038-.4767-.038-.3474,0-.7028,.0593-1.0663,.1783-.5541,.1807-1.0065,.4553-1.3585,.8237-.352,.3683-.5811,.7986-.6884,1.2927-.1074,.4932-.0842,.9748,.0687,1.4456,.1594,.4882,.4263,.8934,.8005,1.2183,.3741,.3239,.817,.5298,1.3265,.6179,.1727,.0301,.3464,.0451,.5214,.0451,.3428,0,.6902-.0576,1.0422-.1729,.5396-.176,.9873-.4475,1.343-.8151,.3569-.3663,.5908-.7957,.703-1.2869,.1122-.4912,.0899-.9765-.0667-1.457-.1605-.4922-.4351-.9041-.8219-1.2347Zm-.292,3.0137c-.2311,.4419-.6101,.7493-1.137,.9215-.228,.074-.451,.1113-.669,.1113-.1149,0-.2284-.0103-.3405-.0309-.325-.0591-.6081-.1992-.8517-.4216-.2427-.2214-.4207-.5029-.5318-.8431-.1113-.3432-.1373-.6749-.0765-.994,.062-.3201,.207-.6005,.4351-.8422,.2291-.2417,.5183-.4196,.8664-.5328,.229-.075,.4535-.1124,.6734-.1124,.1143,0,.2272,.0101,.339,.0303,.3268,.0589,.612,.1992,.8536,.4224,.2427,.2235,.4197,.5058,.5309,.8461,.1702,.5222,.1401,1.0046-.0919,1.4455Z"/><polygon points="42.6868 45.0501 42.2294 44.3743 38.1849 47.1058 38.6422 47.7827 40.2319 46.7084 42.7989 50.5092 43.6644 49.9252 41.0972 46.1243 42.6868 45.0501"/><path d="M28.7489,46.9916c10.0751,0,18.2434-8.1673,18.2434-18.2424S38.824,10.5062,28.7489,10.5062,10.5065,18.6741,10.5065,28.7492s8.1674,18.2424,18.2425,18.2424Zm-16.2919-11.359c-.452-1.0685-.7977-2.1821-1.0301-3.3187-.2398-1.1719-.3593-2.3683-.3593-3.5646s.1194-2.3928,.3593-3.5647c.2324-1.1367,.5781-2.2502,1.0301-3.3188,.4443-1.0505,.9915-2.0576,1.6301-3.0026,.6342-.9384,1.3585-1.8158,2.1593-2.6166,.8009-.8009,1.6782-1.5252,2.6166-2.1594,.9451-.6386,1.9521-1.1858,3.0026-1.6302,1.0685-.4521,2.1821-.7977,3.3187-1.0302,1.1719-.2397,2.3683-.3592,3.5647-.3592s2.3927,.1194,3.5647,.3592c1.1366,.2325,2.2502,.5782,3.3188,1.0302,1.0506,.4444,2.0576,.9916,3.0026,1.6302,.9385,.6342,1.8159,1.3585,2.6169,2.1594,.8009,.8009,1.5253,1.6782,2.1594,2.6166,.6387,.945,1.1859,1.9521,1.6303,3.0027,.4521,1.0685,.7977,2.1821,1.0303,3.3187,.2397,1.1719,.3591,2.3684,.3591,3.5647s-.1194,2.3928-.3591,3.5646c-.2326,1.1367-.5782,2.2502-1.0303,3.3187-.4445,1.0505-.9916,2.0574-1.6303,3.0025-.6342,.9384-1.3585,1.8158-2.1594,2.6165-.801,.8009-1.6783,1.5253-2.6168,2.1594-.9451,.6387-1.9521,1.1858-3.0027,1.6302-1.0685,.452-2.1822,.7976-3.3187,1.0301-1.172,.2398-2.3684,.3592-3.5648,.3592s-2.3928-.1194-3.5647-.3592c-1.1366-.2325-2.2502-.5781-3.3187-1.0301-1.0506-.4444-2.0575-.9915-3.0026-1.6302-.9384-.6341-1.8157-1.3585-2.6166-2.1592-.8008-.8008-1.5251-1.6782-2.1593-2.6165-.6386-.9452-1.1857-1.9521-1.6301-3.0026Z"/><path class="cls-3" d="M28.7494,57.0954c15.6298,0,28.3453-12.7165,28.3453-28.3467S44.3792,.4025,28.7494,.4025,.4032,13.1185,.4032,28.7487s12.7155,28.3467,28.3462,28.3467ZM28.7494,.9643c15.3204,0,27.7845,12.4641,27.7845,27.7844s-12.4641,27.785-27.7845,27.785S.964,44.0695,.964,28.7487,13.4291,.9643,28.7494,.9643Z"/><path d="M34.9496,28.3763c-.0342-.0133-.2602-.0372-.1897-.1581,.0443-.0759,.4869-.0696,.2593-.1328-.5887-.1635-1.1498-.422-1.0813-.5375,.0822-.1012,.5036-.1311,.6387,.1391,.0949,.1897,.5758,.2193,.4679,.1644-.1088-.0554-.0075-.0732,.1-.1238,.1116-.0525,.3722-.2032,.0644-.1671-.1158,.0136-.5059-.019-.5375-.1897-.0197-.1063,.1857-.1544,.4869-.0253,.1445,.062,.0934,.0771,.2491,.101,.1566,.0241,.4535-.0908,.1946-.1277-.0719-.0102-.3645-.1786-.3931-.2262-.0879-.1465,.2896,.0273,.3541,.0379,.1051,.0174,.1578,.041,.2633,.0413,.0618,.0001,.4404-.287,.2047-.3006-.0469-.0027-2.0488,.2403-3.4843-.3225-.2806-.11,.525,.0166,.4869-.1897-.0214-.1157,.0443-.2582,.1206-.0857,.073,.1651,.2,.2317,.2984,.1619,.1365-.1047,.6083,.055,.4726-.0572-.1834-.1518-.5375-.2972-.4553-.3794,.0992-.0992,.5738,.193,.892,.4173,.1198,.1455,.5224,.0977,.3032-.0315-.2146-.1265,.0511-.3191,.2782-.0569,.032,.0369,.4679,.3352,.5881,.2087-.1454-.1707-.8157-.5249-.3162-.4427,.1457,.024,.3773,.2468,.4237,.2656,.1079,.0437,.3266,.1168,.4363,.1581,.0433,.0163,.1225,.0176,.1651,.0031,.0289-.0098,.1297-.0789,.1016-.0898-.1167-.0452-.2928-.0966-.35-.1238-.0634-.0301-.0542-.0922,.0147-.1703,.0885-.0443,.3762-.062,.5827,.0029,.1666,.0524,.6343-.3642,.4666-.3333-.3999,.0738-.8209,.1366-1.024,.1091-.2198-.0298,.3503-.2138,.2045-.3836-.216,.096-.4565,.2151-1.1278,.2031-.3773-.0067-1.2651-.2304-1.2751-.2369-.2614-.1686,.3026,.0428,.7335-.0169,.2407-.0333,.426,.0936,.5294-.0312,.0681-.1014-.0998-.0771-.1412-.1083-.1181-.0888,.3864-.2174,.2459-.2482-.2781-.0609-.1067-.1514-.0258-.1847,.0507,.0121,.107,.0991,.1482,.119,.1646,.0795,.1372,.1273,.3041,.2047,.0371,.0172,.3031-.026,.2714-.0476-.119-.0809-.2306-.0769-.1229-.1575,.0383-.0287-.158-.0282-.1342-.0948,.0381-.119,.0995-.035,.1139-.0413,.05,.0176,.1037,.0321,.1493,.0534,.113,.0528,.0997,.1249,.213,.1831,.044,.0226,.1244-.0743,.2523-.0619,.1135-.0537,.101-.0774,.0571-.1047-.1303-.0812-.3341-.088-.4682-.1669-.0311-.0183-.0423-.05-.0627-.0756,.0483-.0084,.0973-.0252,.1448-.0229,.0449,.0021,.0873,.0254,.1322,.0372,.164,.043,.2695,.084,.4339,.1264,.1117-.0138,.192-.1287,.1518-.1265-.1983,.0112-.331-.1141-.215-.1265,.179-.0192-.0684-.1582,.088-.1928,.0731-.0162,.2,.1,.2714,.0095,.0714-.1238,.1622-.2074,.0857-.2285-.0427-.0118-1.1998,.4333-1.9283,.3714-.0586-.005-.5701-.1036-.6523-.2238-.1744-.2136,.0124-.2315,.2143-.2095,.1562,.0171,.3,.0286,.2095-.1238-.0649-.1092-.0469-.0989,.0667-.1381,.1381-.0476,.2276,.1493,.2904,.1286,.1857,.019,.1331-.0158,.0381-.1714,.0048-.1333,.4047-.019,.3476-.3381-.5653,.1315-1.2522,.4904-1.695,.519-.1767,.0114-.4924,.1729-.5863-.0349-.0623-.1378-.5876,.2104-.7841,.1897-.3073-.0323,.2126-.2677,.1312-.353-.0659-.0691-.4854-.1023-.6561,.0937-.1869,.2146-.336-.3634-.1265-.4047,.4383-.0863,.2724,.0708,.5628,.1518,.1199,.0334,.1491-.2457,.43-.0885,.1133,.0634,.1849,.0906,.2421,.0382,.0143-.0667-.2127-.1651-.1333-.2222,.2024-.0767,.3426,.203,.5046,.2725,.0671,.0288,.3292-.0351,.3984-.0949,.003-.0445-.3731-.0759-.4869-.196-.0684-.0722,.2765-.0161,.411-.0063,.0181,.0013,.1197,.0265,.1366,.0249,.0497-.0048,.2365-.006,.2807-.1261,.0171-.0463-.5502-.0126-.5818-.1771,.274-.0266,.5059,.0126,.7462,.0379,.1328,.0379,.317-.0175,.3668-.1328-.0569-.0759-.3665-.0339-.5185-.0696,.2959-.1144,.4915-.0275,.7588-.1834,.0885-.0949,.3541-.3415,.0696-.2213-.3816,.1611-1.5882,.3307-1.67,.2593-.0213-.0186-.4871-.2112-.2238-.2666,.0327-.0069,.2811,.0541,.3238,.0571,.169,.0123,.1784-.0919,.3476-.0809,.0575,.0037,.2,.1428,.2762,.0524,.0027-.0104,.1905,.019,.2619-.0857,.019-.0476-.3347,.0271-.4285-.1428,.0429-.0571,.1003-.0497,.1476-.0476,.1576,.0071,.2282,.1002,.3857,.1095,.0809,.0048,.1286,.0048,.2428-.1047,.0781-.0748-.2746-.0114-.3095-.119-.0571-.1762,.2107-.0055,.2523-.0143,.0666-.014,.2415-.1939,.1476-.1809-.2326,.0322-.3296-.0682-.2095-.0619,.1449,.0076,.1101-.1143,.2428-.1714,.0663-.0285,.199-.2069-.0333-.1095-.3176,.1332-1.1046,.6428-1.7188,.5666-.2152-.0267-.5523-.1666-.6047-.2762,.0512-.0185,.2921-.0676,.3476-.0762,.0664-.0103,.2298,.0827,.3,.0809,.1305-.0049,.2381,.1413,.2857,.0619-.0162-.0384,.1809-.0571,.0952-.1333-.0464-.0412-.2666-.0667-.2381-.1762,.0611-.0245,.4347-.0012,.4666-.0619,.0952-.1809,.2285-.1238,.2476-.2238,.1619-.2095-.1571,.0286-.538,.0809-.822,.113-1.3038,.0129-1.3617-.0148-.1118-.0537-.275-.155-.1619-.2042,.0697-.0303,.2036-.0545,.2904-.0619,.1133-.0096,.2391,.1906,.3523,.1809,.0491-.0042,.3809-.0095,.3999-.1809-.1809-.0095-.2724-.0831-.3238-.0857-.1091-.0055-.1666,.0238-.2333-.0333-.1194-.0324-.0102-.1378-.0095-.1524,.1279-.0284,.3314,.0576,.4629,.0674,.1516,.0112,.2277-.019,.3541-.0948,.0822-.1012-.1512-.069-.2719-.0569-.1897,.019-.2466,.0316-.3478-.0443-.0885-.0664,.2687-.0007,.2962-.0049,.2087-.0316,.0817-.1315,.2793-.2164,.1668-.0717,.2177-.2107,.1391-.1771-.2656,.1138-.5753,.2768-1.075,.2972-.3099,.0126-.9749-.0934-.8421-.2389,.0259-.0283,.6133,.1583,.6387,.1075,.0885-.1771,.1874-.0746,.3604-.0822,.1549-.0068,.4309,.0682,.1771-.1518-.0949-.0822,.0126-.1265,.1202-.1012,.1044,.0246,.3494-.1461,.2529-.2213-.0374-.0292-.411,.3099-.9994,.2191-.3096-.1052-.3349-.2886-.1452-.2507,.101,.0202,.3777,.1477,.4237,.0316,.0533-.1345,.2361-.0282,.2529-.2024-.1419,.0449-.2778,.0379-.3857,.0379-.1454,0-.1771-.0759-.234-.1454-.0626-.0918,.1012-.1138,.3225-.0063,.0727,.0353,.2909-.019,.1355-.1154-.2214-.1374,.6077,.1323,.5854-.1249-.0126-.1454,.1897-.1012,.173-.3373-.0671,.002-.2597,.0956-.3058,.1159-.1655,.0731-.5807,.1589-.6513,.1707-.1232,.0207-.8694,.1202-.8485,.0365,.0371-.1486-.0088-.25,.2615-.3354,.0621-.0196,.2791,.0551,.3095,.0095,.1238-.1857,.3571-.2904,.1714-.3095-.0734,0-.4304,.1294-.6412,.0873-.3395-.0686-.1925-.1174-.1682-.1444,.0584-.0651,.4297-.0975,.4904-.1619,.0728-.0772,.4358,.148,.519,.0429,.1762-.0238,.2772-.1657,.2296-.175-.0511-.01-.582-.0298-.6408-.1096-.0206-.0279-.0831-.1077,.1017-.1725,.1155-.0405,.2333,.1571,.3621,.0882,.1333-.0714,.1882,.0124,.3288-.0422-.011-.0146,.198,0,.2233-.1603,.0337-.0927-.4903,.0708-.5999-.0809-.0709-.1344,.1143-.1762,.2666-.1476,.211-.1189,.2318-.0573,.4428-.1762,.0762-.1143,.2384-.4251,.0955-.3299-.2526,.2204-.4931,.282-.6431,.3299-.2238-.0238,.1182-.1588,.1428-.219,.0714-.1381,.1524-.3-.1762-.0714-.0969,.0547-.1325,.0541-.2476,.119-.0868-.1096,.0226-.149,.1018-.2321,.1015-.1064,.2596-.197,.2566-.3658-.0764,.0302-.1364,.0436-.1721,.07-.093,.0686-.1765,.1424-.2615,.2152-.2575,.2205-.4807,.4604-.8701,.6056-.0523,.0195-.1157,.0274-.1739,.0407-.196-.0284-.3255-.0386-.1568-.1526,.0797-.0538,.3475-.0486,.419-.1286,.0927-.1037,.1546-.1115,.2523-.1809,.1564-.1798-.1506-.0941-.2523-.0286-.2109,.0663-.2492,.0387-.4601,.105l-.0553-.0393c.0429-.0545,.077-.1127,.1305-.1627,.1099-.1026,.3217,.0129,.3217-.1329,0-.1075,.213-.2334,.1707-.3225-.0225-.0051-.2782,.1834-.6387,.234-.079-.1723,.0746-.3103,.2463-.3796,.1357-.0548,.2891-.0342,.4177-.0947,.0311-.0146,.1732-.1675,.0885-.234-.0497-.0035-.1812,.047-.2192,.0583-.1073,.032-.2094,.072-.3069,.1148-.1222,.0537-.2377,.1134-.3561,.1704l-.0508-.0222c.0112-.0415,.0001-.0959,.0382-.1218,.0797-.0542,.1886-.091,.2792-.1396,.071-.0381,.1325-.0831,.1982-.1251l-.0362-.03c-.055,.0097-.1093,.0259-.1651,.0273-.0522,.0013-.1061-.013-.1592-.0204,.0136-.0348,.016-.074,.0443-.103,.0228-.0233,.0817-.0309,.1165-.0511,.1086-.0629,.2703-.1172,.3065-.1954,.0561-.121,.1191-.1605,.2599-.2391,.0662-.037,.1618-.0524,.2024-.1012,.0301-.0362,.0822-.2024,.0379-.2593-.0699,.0129-.1611,.0698-.2105,.0972-.139,.077-.2598,.1667-.3935,.2477-.0457,.0277-.1046,.0529-.1649,.0631-.0435,.0073-.0994-.0123-.1498-.0199,.0116-.0301,.1713-.0676,.1978-.0908,.0633-.0556-.021-.1037,.0688-.1697,.2361-.2222,.1526-.3267-.1257-.077-.1272,.1142-.2747,.222-.4199,.3028-.0889,.0495-.0438-.0364-.1223-.0966-.0316-.0242-.0368-.162,.0004-.2048,.0291-.0334,.2968-.0592,.2968-.0592,0,0,.2646-.2174,.1122-.1825s-.3304,.1343-.3947,.0515c-.0297-.0383,.1227-.1401,.1227-.1401,0,0,.1897,.019,.2972-.1834s-.5135,.2158-.5249,.1454c-.0101-.063-.0137-.0889,.0226-.1479,.026-.0424,.1853-.0885,.2412-.1225,.0984-.0598,.1941-.0473,.285-.1112,.0399-.0281,.0961-.0863,.0708-.1622-.3004,.0119-.3797,.2158-.6783,.2176,.0034-.1336-.0144-.2351-.0227-.3551-.0061-.0894,.0088-.1003-.0015-.1898-.0097-.0834,.032-.2325,.0206-.3158-.0049-.0355-.0821-.0841-.1104-.1188-.027,.0328-.0597,.0642-.0788,.0988-.0111,.0201-.0009,.0452,.0006,.068,.0131,.2017-.0374,.4658-.0319,.6675,.0034,.1254-.1247,.1413-.3033,.0877-.0712-.0214-.1357-.0524-.2078-.0721-.0364-.0099-.0832-.0043-.1253-.0058-.0359,.1452,.2487,.0883,.2234,.2528s.2424-.0036,.3102-.0019c.1856,.0047,.0252,.077,.0692,.2296,.0284,.0987-.1108,.138-.3147,.0595s.0229,.2244,.0229,.2244c0,0,.1837-.0685,.2669-.0075,.0777,.0568,.0857,.2915,.014,.3516-.0419,.0351-.1419,.0872-.1656,.0782-.0804-.0304-.1482-.0806-.2026-.1307-.0779-.0717-.1399-.1501-.2272-.2461-.0459,.0507-.0546,.0712-.0759,.0818-.038,.0188,.06,.1427,.0338,.1638-.0262,.0211-.1765-.0607-.2176-.0595-.0637,.0019-.1872-.0859-.2444-.13-.0771-.0593-.1419-.1131-.2188-.1725-.04-.0309-.1058-.0488-.1599-.0725l-.0527,.0275c.0413,.0462,.0724,.0976,.1256,.1376,.2341,.1759,.4774,.3471,.7114,.5231,.089,.067,.1369,.136-.0131,.2041-.0355,.0161-.0437,.0954-.0124,.1213,.1255,.1038,.1968-.1468,.3509-.079,.3162,.1391-.1917,.2005-.1707,.2529,.0632,.1581,.4047,.0063,.2719,.2276-.0182,.0304-.2194,.0249-.2782,.0063-.1512-.04-.1961-.015-.3984-.0569-.0994-.0206,.1201,.2846,.2529,.2593,.0771-.0147,.1425,.1573,.2276,.1201,.2466-.1075,.2582,.1382,.0885,.1265-.1834-.0126-.0126,.0949-.1391,.1581-.0315,.0158-.1328-.0949-.2593-.1391-.86-.6071-.8873-.8552-.9192-.8796-.0304,.0275-.0836,.0539-.0862,.0828-.0052,.0558,.0241,.1131,.0277,.1698,.0028,.0436,.1728,.1338,.162,.2033-.0569,.0759-.1247,.124-.1787,.0935l-.0516,.0153c.0146,.0442,.0129,.094,.047,.1315,.0846,.093,.2713,.0402,.3731,.1265,.2588,.2192,.0491,.3187,.4047,.2719,.2403-.0316,.6541,.234,.411,.234-.1644,0-.19,.107-.2261,.1017-.0656-.0095-.1199-.1731-.1786-.1966-.0436-.0174,0-.0506-.2024,.0443,.0159,.0965,.215,.0949,.2403,.2466,.0044,.0262-.2202,.0375-.2603,.0492-.0208,.006-.0955-.0245-.1067-.0461-.0316-.0602-.0455-.1241-.0616-.187-.0227-.0885-.041-.1773-.0666-.2895-.0705,.0329-.0969,.0388-.1057,.0503-.0809,.105-.2028,.0985-.3243,.0334-.1101-.059-.2009-.132-.3038-.1966-.108-.0678-.2204-.133-.3308-.1993l-.0713,.0355c.074,.0722,.1526,.1428,.2203,.2172,.0374,.041,.0957,.0975,.0768,.1312-.0689,.1227,.0376,.1814,.1733,.2474,.0436,.0212,.0758,.0908,.0535,.1194-.0657,.0843-.0281,.1217,.1027,.1572,.1388,.0377,.276,.0868,.2625,.2041-.1881,.0416-.2233,.0937-.1128,.1947,.096,.0878,.217,.165,.3208,.2498,.0297,.0243,.0545,.0602,.0493,.0879-.0026,.0139-.0764,.0276-.1203,.0304-.0959,.0063-.1932,.0055-.2899,.0077,.0646,.0475,.1263,.0966,.1945,.1419,.0591,.0391,.0998,.0814,.0017,.1085-.1175,.0324-.244,.0545-.3702,.0716-.0349,.0048-.0885-.0196-.123-.0384-.0507-.0275-.0849-.0687-.1395-.0913-.0423-.0175-.1048-.0153-.1584-.0218,.0012,.0315-.0137,.0679,.007,.0934,.0469,.0578,.1178,.1082,.1652,.1658,.0182,.0222,.0159,.0716-.0069,.0811-.037,.0155-.1048,.0186-.1482,.0079-.0461-.0114-.0792-.0449-.1177-.0689-.1081-.0675,.0496-.1683-.0614-.2339-.0858-.0506-.1799-.0956-.267-.1454-.0919-.0525-.18-.1076-.2698-.1615l-.0467,.0263,.0545,.152-.047,.0233c-.0823-.0399-.1699-.0762-.2458-.1205-.1392-.0812-.1014-.0791-.2463-.1557-.0428-.0227-.1302-.0119-.1971-.0165,.0095,.0369-.0014,.0853,.0322,.1086,.1255,.0867,.0967,.0763,.2379,.1531,.0883,.0481,.1937,.0837,.2914,.1249l-.0126,.0373-.3333,.0432c.1595,.1841,.4588,.1347,.7253,.1946l-.4685,.078,.0146,.0586c.0859,.0022,.1726,.0002,.2575,.0079,.0616,.0056,.1207,.024,.181,.0366-.0225,.0349-.032,.0774-.07,.1033-.084,.0573-.076,.1056,.0331,.1355,.1474,.0404,.2164-.0333,.3713-.0072,.1146,.0194,.2972-.1897,.4039,.1028-.132,.0869-.2775,.1059-.5367,.1312,.0316,.1391,.3482,.132,.3415,.1454,.0861,.0326,.472-.382,.634-.0379,.0482,.1024,.8957-.3579,1.029-.0183-.0317,.2285-1.057,.5301-2.8337-.0612-.0549-.0183-.1903-.0776-.2611-.088,.019,.1428,.2666,.292,.3142,.3936,.0787,.1679,.1461-.0529,.3222,.0219,.1216,.0516,.2469,.0136,.3666,.067-.0159,.0889-.0765,.1725-.127,.1397-.127-.0825-.1205,.0444-.1746,.0413,.0226,.0354,.0624,.1048,.1016,.1301,.1218,.0787,.383,.0714,.2984,.1936,.1159,.148,.2-.0635,.4603-.127,.2349-.2285,.3428,.0365,.4952,.1174,.2047,.1381,.9296-.4451,.6577,.0671-.0979,.1844-.4341,.2752-1.0055,.2403-.7237-.0095-1.2848-.2847-1.3644-.3509-.1003-.0834-.1393-.149-.1955-.166-.0372,.0571,.0228,.3982,.0571,.4317,.096,.0935,.243-.0116,.346,.0794,.0917,.081,.1492,.0889,.3809,.1174,.0317,.0698-.0468,.1007-.1397,.1206-.323-.068-.5333-.1047-.8824-.3428-.0667,.1587,.1056,.1753,.1437,.2556,.0277,.0745-.1247,.0174-.2008-.0049-.3329-.1173-.4586-.2743-.8627-.3074,.0201,.0374,.0504,.0673,.0924,.0877,.0727,.0352,.156,.0617,.2279,.0975,.0291,.0145,.0596,.0464,.0533,.065-.0056,.0164-.0615,.0254-.0953,.0375l-.1533,.0547c.0539,.032,.1002,.0813,.163,.0928,.2223,.041,.4484,.08,.6766,.0987,.1918,.0157,.2851,.0841,.3535,.1947-.0805,.0024-.1554-.0201-.2269-.0175-.0816,.003-.1602,.0286-.2401,.0443,.0389,.0333,.0674,.0846,.1185,.0969,.2754,.0662,.5527,.1324,.8368,.1788,.1594,.026,.2992-.0644,.3739,.0404,.0126,.0759-.0503,.2018-.1844,.2272-.0002,.0817,.0947,.1397,.1212,.1459,.2537,.0598,.4845-.3754,.626-.1897,.1012,.1328,.4174-.1771,.5628-.1075s-.1779,.3969-.5691,.4679c-1.0492,.1906-1.88-.3247-1.9116-.3177-.1613,.0357-.3155-.0142-.4355-.065-.0812-.0344-.2345-.1693-.2409-.1595-.0607,.0917,.1166,.2002,.1829,.247,.0078,.0055,.0217,.0074,.031,.0123,.0633,.0326,.1261,.0655,.189,.0983-.0784,.0175-.1572,.0347-.2351,.053-.0156,.0037-.0284,.012-.0517,.0222,.0539,.0933,.16,.1249,.3082,.1225,.1145-.0019,.2328-.0066,.3433,.0089,.0848,.0119,.1602,.0534,.2397,.0817-.0683,.029-.1365,.0581-.2048,.0869l-.0165,.0043c-.0388,.0247-.0772,.0497-.1157,.0745,.0511,.0144,.1017,.0393,.1535,.0413,.1454,.0053,.2916-.0031,.4367,.0037,.04,.0019,.0773,.038,.1158,.0585-.0302,.0206-.0548,.0471-.0918,.0605-.0877,.0316-.1856,.053-.2702,.0871-.0306,.0123-.0352,.0494-.0517,.0751,.042,.0095,.0882,.031,.1251,.0264,.1181-.0149,.2316-.0423,.3492-.0589,.0537-.0076,.1129-.0014,.1697-.0014-.0079,.031-.0046,.0657-.0258,.0924-.0632,.0794-.0337,.1103,.1113,.1325,.122,.0186,.5155,.0544,.5844-.0387,.1433-.1939,.4216-.1602,.1012,.2192-.0496,.0055-.6914,.2614-2.6449-.5986-.1191-.0524-.5158-.2567-.5928-.2614-.0068,.012,.0368,.2047,.0905,.2306,.0872,.042,.1816,.0788,.2769,.1134,.1192,.0432,.1409,.0842,.0123,.1306-.0208,.0075-.0499,.0112-.0619,.0223-.0406,.0377-.0753,.0779-.1122,.1171,.0641,.0144,.1289,.0409,.1922,.0406,.1329-.0007,.2646-.0183,.3976-.0235,.0737-.0029,.1538-.002,.1285,.0733-.0433,.1284,.0144,.1702,.2277,.1839,.1753,.0113,.3504,.0266,.5242,.0458,.0572,.0063,.11,.0302,.1649,.0461l-.0045,.0402c-.0955,.0093-.1903,.0244-.2865,.0265-.1636,.0035-.329-.0071-.4916,.0009-.0505,.0025-.0943,.0459-.1411,.0705,.0451,.025,.0848,.0576,.1369,.073,.0534,.0157,.119,.0143,.1791,.0207,.2173,.0232,.2281,.0372,.1509,.1692-.0123,.021,.0014,.0483,.0032,.0727,.0386-.003,.0863,.0019,.1142-.0104,.0871-.0385,.1631-.0868,.2507-.1248,.0565-.0245,.1258-.0376,.1894-.0558,.0148,.0092,.4636,.001,.4785,.0102-.0843,.2867-.1875,.015-.1602,.3288,.0169,.1939,.8347,.1012,.489,.2108-.2723,.0863-.9058,.1289-1.1045,.118-1.231-.0675-2.272-.9926-2.2765-.9781-.0337,.1096-.0011,.1976,.0084,.2276,.0061,.0193,.1634,.0763,.1854,.0948,.1035,.0866,.0714,.1377-.0952,.1576-.0459,.0055-.0898,.0166-.1347,.0251l.0006,.0418c.1006,.0141,.2032,.024,.3009,.044,.0525,.0107,.1155,.0331,.1379,.061,.0146,.0183-.0318,.0572-.057,.0847-.0235,.0256-.0551,.0482-.1045,.0903,.1567,.0087,.3864-.0892,.418,.0752,.0177,.0922,.4996-.1075,.3984,.0063-.0943,.0758-.0937,.0401-.2846,.0822-.0971,.0214-.4055,.0322-.5059,.0379,.0541,.1691,.241,.1139,.3417,.1351,.0562,.0118,.1891-.0372,.2401-.015,.0316,.0443-.3339,.176-.3352,.234-.0047,.2146,.5375-.1834,.6197-.1012,.1255,.1255-.3099,.1707-.1138,.2972,.2681-.218,.3865-.3364,.5733,.0148,.073,.1372,.1687-.272,.3373-.274,.0572-.0007,.2782,.3836,.6577,.1813,.5314-.2834,.1975,.3084-.5396,.3794-.5249,.0506-.9998,.087-1.9561-.118-.1352-.029-.8272-.2845-.963-.3078l-.0386,.0456c.0848,.0429,.1716,.0843,.2536,.1292,.0382,.0209,.0672,.0485,.1004,.073-.048,.0178-.0933,.0397-.1447,.0525-.0585,.0146-.1224,.0211-.1839,.031l.0101,.0461c.1138,.0029,.2282,.0019,.3412,.0103,.0546,.004,.134,.0177,.1524,.0415,.0196,.0254-.0106,.0708-.0354,.1021-.0246,.031-.0696,.0555-.1056,.0827,.0293,.0184,.0422,.0333,.0549,.0335,.1147,.0013,.2293-.0003,.344-.0003,.2051,.0001,.3322,.0788,.3177,.2061-.0088,.0771,.8968-.1698,.858-.082-.0189,.0428-.3935,.441-.0506,.3626,.0513-.0117,.4234-.3521,.4975-.3373,.2213,.0443-.2087,.2298-.0759,.3373,.2207,.1227,.3276-.0329,.4469-.2192,.2024-.3162,.744-.1679,.7926-.118-.2687,.5941-1.0966,.79-1.5092,.7841-.5902-.0084-1.349-.3373-1.2732-.1855,.1012,.1686,.2361,.1265,.5649,.2108,.12,.003,.1924,.2862,.312,.293,.0758,.0043-.002,.129,.0696,.1454,.0868,.0199,.2815-.1045,.3642-.0776,.0404,.0131,.0772,.0973,.049,.1186-.0527,.0399,.0713,.1086,.0821,.1192,.206,.012,.3064-.4432,.4384-.2782,.0675,.0843,.2923-.1686,.3288-.1096,.1096,.1771,.3035,.2192,.43,.0084,.1719-.2865,.3794-.0084,.0422,.312-.0862,.0819-.9849,.5367-2.7686,.0542-.7305-.1976-1.2701-.7035-1.2617-.5095,.059,.2024,.3037,.3059,.438,.3686,.1227,.0573,.1064,.1195-.0068,.144-.076,.0165-.3132-.0067-.2036,.1872,.118,.0506,.36-.178,.3794-.0927,.0422,.1855-.1575,.2239-.1096,.2782,.1265,.1433,.6324-.3288,.4722,.1939,.1771,.1012,.33-.2242,.4011-.1481,.0844,.0904,.1778-.2222,.3301-.1143,.0243,.1805-.2603,.3333-.0317,.3396,.2184,.0061,.3578-.3823,.5269-.1079,.0218,.0354-.2412,.1587-.0603,.2857,.0669,.0005,.0952-.1333,.2698-.1111,.0462,.0059,.1465-.2354,.3619-.1397,.1714,.0762,.3206-.0254,.3809-.0571,1.0055-.1771,.4482,.2413,.2739,.3199-.645,.2909-1.0961,.5486-2.6789,.1742-.1916-.0453-.4868-.1367-.4868-.1367,0,0-.1292,.2119,.1238,.2793,.1478,.0394,.3523,.0571,.3619,.3238-.0063,.1651,.0798,.3077,.2762,.019,.0729-.1071,.2818-.1337,.4167-.0663,.0084,.1518-.0692,.1287-.1686,.1939-.2,.0857,0,.4131,.1939,.2951,.1036-.0631,.2175-.2784,.3373-.2698,.0535,.0039-.0337,.2108,.1686,.2024,.2867-.0169,.2764-.3816,.5907-.4283,.1304-.0194,.1934,.0613,.0506,.2213-.0388,.0434-.0641,.202,.052,.3069,.0581,.014,.1264-.2956,.3142-.2063,.0983,.0467,.0747-.3191,.2082-.331,.2646-.0977,.329,.0301,.2521,.1152-.3204,.3541-.1787,.368,.0381,.419,.0809,.019-.0184-.2151,.2809-.2047,.3209,.0242,.0945-.1523,.2571-.1143,.5334,.1247-.3933,.5636-1.0951,.7142-1.8855,.4047-2.5051-.1006-2.4902,.074,.0253,.2951,.3898,.4246,.5939,.3694,.0593-.016,.1344-.0102,.2022-.0144,.0004,.0462,.0147,.0946-.0017,.138-.0276,.0729-.0854,.1411-.1103,.2143-.02,.0586,.0166,.0936,.1353,.0751,.1346-.0211,.2745-.0307,.4126-.0429,.0891-.0079,.1325,.0127,.0927,.0713-.0141,.0207-.0462,.0392-.0483,.0599-.0042,.0426,.0063,.086,.0107,.129,.0712-.0084,.1721-.0012,.208-.0282,.1135-.0854,.2-.1848,.3031-.276,.0305-.0269-.1274,.364-.0858,.3422,.0279,.0314,.0476,.0714,.1857,.0429,.0937-.0194,.1678-.1806,.2228-.0985,.0706,.1054,.1409,.2159-.0371,.2794-.0613,.0219-.05,.0856-.092,.1212-.0312,.0264-.0359,.0653-.0524,.0985,.0562,.0032,.2085,.0752,.2491,.0612,.1461-.0504,.085-.2158,.213-.2819,.1146-.0592,.2013-.1389,.3093-.2037,.0331-.0199,.0957-.0207,.1447-.0302,.0109,.0307,.0381,.0634,.0299,.0916-.0336,.1155-.1444,.3714-.168,.4876-.0096,.0473,.0423,.1004,.0663,.1508,.0825-.0247,.1822-.0386,.2428-.077,.0691-.0437-.019-.204,.2094-.3071,.0336-.0152,.0727-.043,.1099-.0641,.0256,.0315-.0694,.3055-.0575,.3387,.018,.0499,.0952,.0857,.2285,.0619,.0228,0,.0302-.4142,.2174-.4682,.0635-.027,.0989,.0629,.2444,.0413,.0665-.0099-.2705,.6015-.2031,.6713,.1-.0016,.2149-.0515,.2095-.1222-.011-.1446,.2474-.1905,.3978-.285-.0023,.2425-.265,.4269-.2045,.6562,.0633-.0205,.1025-.0464,.1286-.0768,.0767-.0895,.0488,.1945,.1285,.1062,.0264-.0293,.0789-.049,.1194-.0731,.0312,.0335,.0776,.0651,.0901,.1009,.0218,.0625-.0679,.0973-.0375,.1575,.0158,.0313,.0908,.0648,.1454,.0708,.0326,.0036,.0983-.04,.1131-.0698,.0389-.0786,.1272-.1297,.1638-.2088,.1155-.0448,.2173-.1788,.3613-.1546,.0369,.0386-.131,.3199-.1164,.3893,.1048,.1233,.2984,.0027,.3043,.149,.0036,.0601-.0383,.1308-.0866,.2217,.0581,.0253,.1392,.0581,.2212,.0245,.0752-.0308,.1277-.0839,.186-.1293,.0696-.0542,.2228-.4922,.3013-.5404,.0259-.0159,.1087-.0106,.1493,.0036,.0238,.0084,.0313,.0567,.0192,.0815-.0387,.0791-.0937,.1548-.1345,.2335-.0168,.0324-.0135,.0692-.0194,.104,.0545-.0136,.1111-.0248,.1631-.0414,.0687-.0219,.134-.0479,.2008-.0722,.0167,.0501-.1093,2.0604-.1071,2.3381,.0009,.1085,.1676,.1922,.3626,.1985,.318,.0103,.3716-.0026,.3877-.1633,.0204-.2038,.1399-1.6966,.1315-1.9015-.0038-.0931-.0048-.1632,.1707-.206,.0961-.0234,.1873-.1064,.2139-.1738,.0634-.1604,.0472-.1629,.2809-.0745,.0133,.0051,.0346,.0015,.0532,.002l.0229-.0323,.0741-.1133c.0613,.0289,.1278,.0546,.1819,.088,.0334,.0206,.0412,.0568,.0726,.0794,.0344,.0248,.0827,.0421,.1678,.0836l-.0763-.257,.0445-.0126c.1173,.0607,.2323,.1069,.3269-.039,.023,.0797,.0248,.1315,.0541,.1766,.0425,.0657,.0993,.1288,.1607,.1887,.0352,.0344,.0917,.0604,.1385,.0901,.0209-.0356,.0433-.0708,.0625-.1068,.0198-.0372,.0364-.0752,.0543-.1128,.0595,.0209,.1222,.0388,.1775,.0635,.0592,.0264,.1221,.01,.1772,.04,.0758,.0178,.2369-.0568,.2526-.0666l-.0824-.1099c-.1206-.1615-.7993-.69-.5605-.7829,.0948,.0506,.0318,.1403,.3252,.0814,.1867-.0375,.1754,.033,.1934,.0763,.021,.0506,.0207,.1523-.0051,.2015-.0137,.026,.0555,.1188,.0641,.1497,.0427-.0093,.095-.012,.1257-.0295,.0383-.0219,.0525-.0597,.0886-.0839,.0628-.042,.1344-.079,.2309-.1345,.0129,.0558,.0112,.0757,.0226,.0922,.0203,.0296,.0485,.0571,.0734,.0855,.0467-.0185,.108-.0306,.1369-.057,.0467-.0425,.0588-.1013,.1102-.1403,.0481-.0365-.1483-.2776-.0822-.3047,.0569-.0696,.1707-.1201,.3478,.196,.0076,.0135,.0949,.1834,.2213,.215,.2127-.098,.0409-.2817,.2131-.3948,.0444,.0741,.0602,.1233,.132,.1014,.0994-.0304,.1443,.0479,.2329,.0438,.1437-.0905-.2346-.2786-.0418-.3926,.036-.0213,.0784-.0384,.118-.0573,.0279,.0314,.0693,.0613,.0801,.0946,.013,.0401-.0103,.0841,.0004,.1249,.0194,.0741,.1612,.2508,.1971,.3226,.0097,.0195,.0634,.0439,.0938,.0428,.0299-.0011,.0677-.0286,.0812-.05,.0263-.0418,.0291-.09,.0588-.1305,.0221-.0301-.3626-.3457-.2108-.4806,.1096-.0506,.2931,.2081,.3087,.2458,.0623,.1505,.1719,.2348,.3321,.2011,.1012-.2192-.1708-.395-.188-.496l.0638-.0149c.252,.1335,.4285,.5045,.8405,.5452-.0083-.0422,.0006-.0885-.0279-.1232-.0607-.074-.1453-.1405-.2117-.2129-.0551-.0601-.203-.2917-.1226-.398,.0768,.0431,.1381,.032,.1999,.0654,.0501,.0271,.1023,.0527,.1536,.079,.0375-.0355,.0882-.0679,.1099-.107,.049-.0882,.2437,.1655,.3589,.2189,.0759,.0352,.1641,.0598,.2468,.0892-.0186-.0595-.0179-.1272-.0579-.1781-.1849-.2349-.1409-.2379,.009-.2264,.0725,.0055,.2535,.0447,.3253,.0428,.0419-.0011,.3762-.3625,.2649-.3294-2.15,.1433-3.0058-.5228-3.1449-.7588-.1435-.2434-.4949-.4492-.371-.4637,.43-.0506,.8802,.2313,1.4245,.6968,.1936,.1349,.1299-.1359,.4558-.0138,.0985,.11,.4557,.0952,.454,.0557-.0015-.0372-.2365-.2016-.2343-.24,.058-.0129,.3462,.1406,.4042,.1252,.0703-.0186,.1278-.1504,.1982-.1712-.0346-.0352-.1734-.0208-.2235-.0396-.0702-.0263-.1908-.0668-.2614-.0927-.0375-.0138-.0253-.0759,.0784-.1157,.0511-.0165,.7423,.2391,.7901,.2337,.0656-.0074-.0319-.2037,.0337-.2108,.0563-.0061,.2274,.1083,.2867,.0927-.0166-.0338,.0327-.1872,.0133-.2195-.0107-.0177-.0295-.031-.0637-.0656,.3371-.01,.4492-.1214,.4552-.263,.0018-.0414-.6155,.2614-.742,.118,.2276-.1855,.4553-.0169,.6324-.2108,.0599-.0656,.2361-.2024,.1686-.3204-.2361,.059-1.3458,.7455-2.8213,.1722Zm-3.5148-6.3925c.1309,.0954,.2785,.238,.636,.1916,.3415-.0443,.1987,.1056,.205,.2447-.0253,.1454-.7567-.1828-.7778-.1834-.4679-.0126-.019-.1644-.4427-.2024-.2703-.0242,.0538-.288,.3794-.0506Zm-3.1114-.5839c-.1459,.002-.6197,.1012-.898-.1012-.0846-.0615,.6071-.0632,1.0244-.1771,.1169-.0319,.2317-.0792,.2603,.0272-.0688,.0286-.3159,.2501-.3867,.2511Zm-1.7653,4.7755l-.1927-.0685c.0331-.0249,.0654-.0504,.0999-.0745,.0115-.0081,.1634-.1174,.4543-.0921,.6426,.0559,.6471-.5043,.7082-.5185,.43,.3668-.1012,.5185-.3794,.6703-.0453,.0247-.629,.0462-.6902,.0834Zm1.7011-7.1488c.0325-.0159,.1251-.0182,.145-.0028,.0452,.0347,.062,.0838,.0809,.1126-.0191,.0534-.0216,.0895-.0461,.118-.0151,.0176-.0637,.0235-.0973,.0346-.0385-.0579-.0852-.1144-.1118-.1742-.0121-.0273-.0007-.0736,.0292-.0882Zm-.1539,3.5346c.0759-.0003,.1533,.0291,.23,.0456l.0062,.0459c-.079,.0332-.1589,.0934-.2366,.0911-.0609-.0018-.1191-.0807-.1786-.1254,.0596-.0204,.1183-.0569,.1789-.0572Zm-2.5683,7.6579c-.0807-.2443-.2944-.0608-.3238-.1-.1143-.1524-.0379-.1068,.0538-.1865,.0182-.0159,.2513-.038,.2782-.0253,.0479,.0226,.5049,.0511,.5228,.0675-.002,.1059-.4898,.3688-.531,.2443Zm.9618-.5285c-.119-.0905-.5952,.0524-.6809-.0476-.0244-.0302,.3401-.0207,.3428-.0476,.0238-.2381,.6285-.3381,.8713-.3333-.0253,.1686-.1297,.7353-.5333,.4285Zm.8633-1.9918c-.1504,.0957-.1654-.1012-.4858,.2192-.489,.2361-.7412,.0046-.7926-.0169,.0325-.0273,.5005-.2135,.5059-.1686,.0299,.249,.0603,.2536,.4184-.1686,.0289-.0342,.5453-.3685,.5893-.3532-.0266,.0306-.0497,.3701-.2352,.4881Zm1.1595-3.6345c-.0918,.0461-.3717,.1351-.4384,.1686-.1644,.0885-.4253-.0784-.4168-.0868,.05-.0497,.8872-.3358,.948-.3811,.034,.0244-.1554,.2544-.0927,.2993Zm.059-1.0877c-.2529,.1518-.4681,.1855-.5143,.1602,.037-.0255,.2098-.2816,.253-.3021,.0317-.015,.0764-.0216,.1171-.0266,.0576-.0071,.2584-.0507,.317-.0549,.0042,.1138-.1338,.2-.1728,.2234Zm.4654-3.62c-.1213-.0368-.2349-.0881-.3371-.1441-.0305-.0168-.0316-.0726-.0118-.1006,.0107-.0152,.1046-.0228,.1422-.0105,.112,.0367,.2161,.0836,.3199,.1295,.0212,.0094,.0275,.0321,.0601,.0732-.0619,.0199-.1377,.0632-.1733,.0524Zm1.0784,12.4972l-.0818-.0026c-.0123-.0778-.0313-.1557-.0321-.2333-.0002-.0196-.1198-.4276,.1078-.415,.2029-.1109,.8899,.1692,.4932,.2466-.2593,.0506-.3162,.3415-.4872,.4042Zm.2522-13.9024c-.0287-.0247-.086-.0533-.0799-.0733,.0112-.0365,.06-.0679,.1229-.1316,.0512,.0646,.1044,.1026,.0911,.1216-.0235,.0338-.0872,.0562-.1342,.0833Zm.0056-.9034c-.0326-.0222-.0989-.0524-.0916-.0652,.0235-.0411,.0741-.0757,.1409-.1376,.0487,.0555,.1012,.0917,.0892,.1063-.0309,.0373-.0905,.065-.1386,.0965Zm.4661,1.4679c-.0284-.0303-.0622-.0594-.0833-.0915-.0132-.0202-.0071-.045-.0097-.0677-.0132-.0064-.1748,.0574-.1795-.0569,.0622-.0523,.1905,.0143,.3299-.117,.0143-.0134,.1932-.097,.2177-.083,.0227,.013-.1238,.0429-.1143,.1762,.0044,.0622-.0181,.1044-.0558,.1591-.0212,.0308-.0691,.0541-.105,.0808Zm-.0074,.7361c-.0254-.0022-.2127-.0952-.3174-.1968-.0211-.0205,.2285,.0508,.3968,.0222,.0814-.0327,.3523-.073,.146,.0825-.0624,.0139-.173,.0965-.2254,.0921Zm2.9961,5.3225c.196-.0696-.1884,.2574-.2909,.2972-.0578,.0224-.234-.1834-.2909-.0632-.0461,.0972-.1595,.0238-.2429-.03-.0932-.0601-.4809,.0619-.4809-.2285,.1915-.1141,.5247,.3016,1.3056,.0246Zm-1.1196,2.4928c.1784-.0199-.1581,.2276-.3352,.1328-.1644-.1834-.3668-.2972-.6197-.2909-.1599,.004,.2108-.0843,.3668-.0696,.2234,.0358,.2677,.2635,.5881,.2276Zm1.3343,.9043c.0361,.0109,.2118,.0302,.1612,.182-.0074,.0222-.2383,.1206-.3383-.0365-.182-.286-.5127-.3597-.5438-.4869,.1293,.0239,.6329,.3151,.7209,.3415Zm-1.5862-2.7522c.6513,.371,2.0004,.548,1.0307,.5312-.2226-.0039-.4392,.0008-.7757-.2192-.0477-.0312-.1412-.2298-.5586-.2045-.2261,.0137-.0316-.215,.3035-.1075Zm-1.3325-7.3767c.0199-.0263,.249-.0781,.2857-.0952,.0332-.0155,.1017-.0446,.1286-.0238,.1047,.0809,.3666-.1,.1809,.1238-.049,.0421-.2077,.0517-.2621,.0231-.1617-.085-.0748,.084-.1521,.0911-.0714-.0857-.21-.0806-.1809-.119Zm.4428,.3142c-.1802,.1013-.1381,.1762-.2952,.1619-.0318-.0255,.0646-.1457,.007-.1919,.0867-.0374,.1608-.0057,.2215-.0319,.1229-.023,.219-.0238,.0667,.0619Zm.3712,2.8573c-.0133,.0697-.4237,.1391-.6007,.1328-.196-.0063-.3099-.2656-.3794-.3984-.0569-.1138,.2236,.1983,.2909,.0569,.0632-.1328,.2587,.2216,.3035,.2024,.196-.0759,.411-.1265,.3857,.0063Zm-.7349-2.0524c.0402-.0156,.079-.0419,.121-.0434,.0327-.0012,.0693,.0287,.1332,.0581-.0752,.0248-.1207,.0526-.1612,.0493-.0341-.0027-.0622-.0413-.093-.064Zm.0791,.7882c.0268-.0314,.0801-.0536,.1227-.0796,.0213,.0238,.0652,.051,.0586,.0707-.0101,.03-.0552,.055-.1103,.1044-.0388-.0495-.0826-.0821-.0711-.0955Zm2.1292,9.8285c-.3878,.1939-.3204-.3794-.7209-.527-.1991-.0733,.4943,.0598,.5354,.1728,.1012,.2782,.7926,.3963,1.231,.5733-.1518,.1349-.5986-.1855-.4047,.1518-.1686,.0337-.383-.4999-.6408-.371Z"/><path class="cls-2" d="M17.6244,38.4338c.7497,.0107,3.166,.5834,2.0309,.8314-2.9642,.6476,2.0218,.7482,3.7676,.9976,1.2125,.1732,.3601,.8967,2.5373,.9897,1.2569,.0537-.8034,1.4348,.0121,1.4173,3.8658-.0831,2.5291-1.5519,4.5171-1.1599,1.3659,.2693,.7887-1.7043,3.6152-1.4133,1.537,.1582,1.6558-.2078,2.6066-.2078,1.2971,0,1.7675-.5988,1.4747-.7482-.4075-.2078-.5821-.3741-1.2679-.418-1.1085-.0709-1.1933-.8001-.3156-.7309,2.7089,.2136,2.3584-.3039,3.3492-.3475,.9137-.0402,3.8613-.4988,1.2892-1.1475-.4032-.1017-.3161-.2505-.5505-.2573-.5246-.0153-1.0894-.5012-1.8273-.4932-.2193,.0024-.0514-.213-.3046-.2975-.3146-.1051-.417-.2855-.7965-.3618-.5789-.1164-.8535-.0751-1.1713-.2975-.3743-.262-.4508-.5783-1.3119-.6513-.3765-.0319-.53-.2528-.7497-.2922-.221-.0396-.2001-.1431-.3904-.2037-.4524-.1447-.5487-.2755-.9215-.3324-.4217-.0643-.6937-.049-.859-.0536-.4949-.0138-.4147-.0566-1.0503-.067-.571-.0092-.7395,.0815-.8846,.1355-.7299,.2708-.2722-.0648-1.0101,.2091-.2428,.0902-.1818,.0193-.5346,.0283-.4385,.0112-.4391,.0593-1.0153,.0752-.5236,.0144-1.1232,.3106-1.6064,.2938-.4837-.0168-.8573,.4754-1.5606,.7401-.1206,.0456-.6496,.3983-.8239,.4081-.5906,.0332-.8375,.0047-1.3693,.0533-1.0368,.0948-.9582,.8393-1.6498,.8939-.1883,.0149-.8364,.0313-.9911,.0245-.4545-.0203-1.0249,.4449-1.3757,.5409-.7049,.1924-.0291,.1675-.8105,.4013-.8796,.2633-.8152,.332-1.7981,.5819-1.7981,.4572,.5299,.8417,1.7463,.8591Zm21.4349-2.3121c.3091,.0226,.1732,.0353,.3646,.0765,.1824,.0394,.378,.141,.1064,.1503-.2722,.0093-.6558-.1597-.8937-.1442-.8944,.0581-2.2646-.2788,.4227-.0826Zm-5.2171-2.1981c.2327,.0896-.2414,.1427,.43,.19,.5188,.0365,.2151,.0826,.4496,.1774,.2233,.0904,.3434,.2888-.1297,.2708-.4731-.0179,.1243,.1654-.2594,.1232-.7427-.0814,.3206-.4642-.1866-.4901-.6368-.0328-.5699-.3731-.304-.2712Zm-1.9689-.2806c.5863,.027-.0394,.1403,.7085,.1387,.3381-.0006,.3583,.1113,.5422,.1648,.1131,.0329,.1509,.0564,.1114,.1077-.002,.0025,.0076,.1297,.1643,.1943,.1494,.0616,.1542,.1579,.0175,.2065-.1476,.0527,.2355,.2299-.1062,.2656-.5545,.0578,.3976-.1805-.4327-.2584-.2409-.0227-.2823-.1348-.4662-.1606-.3938-.0553,.3699-.3154,.1202-.3935-.2499-.0779-1.06-.2837-.6592-.2652Zm-1.9912,1.0637c.4566,.0596-.227,.1943,.1041,.3072,.1982,.0678,.9318,.0469,1.4304,.0575,.4205,.0089,.2822,.1678,.2753,.2472-.0106,.122,.8293,.0558,1.0578,.1262,.3279,.1531,.2206,.0147,.6319,.2345,.1638,.0874,.8882,.2159-.1615,.2571-.4859,.0192-.2791,.187-.8819,.3759-.3827,.1199,.4737-.3849-.6506-.2563-.5018,.0575-.4237-.3018,.3332-.2858,.7564,.016,.2738-.3064-.3571-.292-.5475,.0124-.9052-.4351-1.5404-.3019-.303,.0634-.9856-.5669-.2413-.4696Zm-4.0207-.3382c.1148-.1371,.3716-.2852,.5363-.2982,.8786-.0696,.2924-.1285,.7947-.1735,.3391-.0305,1.7785,.2595,1.3627,.2142-.7379-.0804-1.1969,.041-1.495,.015-.3274-.0285-.8452-.0108-.6368,.0642,.2238,.0807-.5221,.2357,.5108,.2217,.5241-.0072,.7793,.3477,.1685,.3232-.3721-.0151-.4045-.0011-.3578,.0509,.0516,.0572,.7916,.0725,.3159,.121-.2216,.0225-.2366,.0702,.0643,.1391,.1191,.0273,.1924,.0693-.059,.0919-.2993,.0269-.3212-.352-.9238-.3677-.4568,.0322,.0703,.4262-.6091,.3779-1.4408,.1608,.691-.4876-.2108-.4423-.3517,.0177,.4308-.208,.5392-.3375Z"/></svg>