<?xml version="1.0" encoding="utf-8"?>
<!-- Generator: Adobe Illustrator 26.2.1, SVG Export Plug-In . SVG Version: 6.00 Build 0)  -->
<svg version="1.1" id="Lager_1" xmlns="http://www.w3.org/2000/svg" xmlns:xlink="http://www.w3.org/1999/xlink" x="0px" y="0px"
	 viewBox="0 0 57.5 57.5" style="enable-background:new 0 0 57.5 57.5;" xml:space="preserve">
<polygon points="46.4,41 45.8,40.4 42.6,44.1 43.2,44.6 44.4,43.2 47.9,46.2 48.6,45.4 45.1,42.4 "/>
<polygon points="50.6,41.1 49.3,40.3 50.4,38.3 49.6,37.9 48.5,40 47.3,39.3 48.4,37.1 47.7,36.7 46.1,39.8 50.8,42.4 52.5,39.2 
	51.8,38.8 "/>
<polygon points="48.4,34.9 48.2,35.8 53.4,37 53.7,36 49.9,35.1 54.4,32.8 54.6,32 49.3,30.8 49.1,31.8 52.8,32.6 "/>
<path d="M51.6,26c0.1,0,0.1,0,0.2,0c0.3-0.1,0.5-0.2,0.7-0.4c0.2-0.2,0.2-0.5,0.2-0.8c-0.1-0.3-0.2-0.5-0.4-0.7
	c-0.2-0.1-0.4-0.2-0.6-0.2c-0.1,0-0.1,0-0.2,0c-0.3,0-0.5,0.2-0.7,0.4c-0.2,0.2-0.2,0.5-0.2,0.8s0.2,0.5,0.4,0.7
	C51.2,25.9,51.4,26,51.6,26z"/>
<g>
	<path d="M9.8,11.4c0.4-0.5,1-0.9,1.6-1.2l0.7,0.6c-0.7,0.3-1.2,0.6-1.7,1.1c-0.3,0.3-0.4,0.6-0.5,0.9c-0.1,0.3-0.1,0.7,0,1
		s0.3,0.6,0.6,0.8c0.4,0.4,0.9,0.5,1.4,0.5c0.5-0.1,0.9-0.3,1.3-0.8c0.1-0.1,0.2-0.3,0.3-0.4c0.1-0.1,0.2-0.3,0.2-0.5L13.1,13
		l-0.6,0.7l-0.6-0.5l1.3-1.5l1.7,1.5c0,0.3-0.1,0.7-0.3,1s-0.4,0.7-0.7,1c-0.4,0.4-0.8,0.7-1.3,0.9c-0.5,0.2-1,0.2-1.5,0.2
		c-0.5-0.1-0.9-0.3-1.3-0.6c-0.4-0.3-0.7-0.8-0.8-1.2c-0.1-0.5-0.2-1,0-1.5S9.4,11.9,9.8,11.4z"/>
	<path d="M15.3,6.9c0.4-0.3,0.9-0.4,1.3-0.3s0.7,0.3,1,0.7c0.2,0.3,0.2,0.5,0.2,0.8s-0.1,0.6-0.3,0.8c0.2,0,0.4,0,0.6,0.1
		s0.5,0.2,0.8,0.4c0.6,0.4,1.1,0.6,1.3,0.8l-1,0.6c-0.1-0.1-0.3-0.2-0.6-0.3c-0.6-0.3-0.9-0.5-1.2-0.6S17.1,9.7,17,9.7
		c-0.2,0-0.3,0-0.4,0.1L16.3,10l1.2,1.9l-0.9,0.5L13.7,8L15.3,6.9z M16.3,9c0.2-0.1,0.4-0.3,0.4-0.5c0.1-0.2,0-0.4-0.1-0.6
		c-0.1-0.2-0.3-0.3-0.5-0.3c-0.2,0-0.4,0-0.7,0.2L15,8.1l0.8,1.3L16.3,9z"/>
	<path d="M21.6,3.1c0,0.1,0,0.3-0.1,0.4c-0.1,0.1-0.2,0.2-0.3,0.2c-0.1,0-0.3,0-0.4-0.1s-0.2-0.2-0.2-0.3s0-0.3,0.1-0.4
		c0.1-0.1,0.2-0.2,0.3-0.2c0.1,0,0.3,0,0.4,0.1S21.5,3,21.6,3.1z M22.7,3.8l3.7,4.6l-1.1,0.3l-0.9-1.1l-2.3,0.6L22,9.6l-1.1,0.3
		l0.8-5.8L22.7,3.8z M22.2,7.4L23.9,7l-1.4-1.8L22.2,7.4z M23.4,2.6c0,0.1,0,0.3-0.1,0.4c-0.1,0.1-0.2,0.2-0.3,0.2
		c-0.1,0-0.3,0-0.4-0.1s-0.2-0.2-0.2-0.3s0-0.3,0.1-0.4c0.1-0.1,0.2-0.2,0.3-0.2c0.1,0,0.3,0,0.4,0.1C23.3,2.4,23.4,2.5,23.4,2.6z"
		/>
	<path d="M29.1,3.1c0.5,0,1,0.1,1.5,0.4v0.9c-0.6-0.3-1-0.5-1.5-0.5c-0.3,0-0.5,0-0.6,0.1c-0.1,0.1-0.2,0.2-0.2,0.4
		c0,0.2,0.1,0.4,0.4,0.6c0,0,0.3,0.2,0.8,0.4c0.4,0.2,0.8,0.5,1,0.7c0.2,0.3,0.3,0.6,0.3,0.9c0,0.5-0.2,0.8-0.5,1.1
		C30,8.4,29.5,8.5,29,8.5c-0.3,0-0.6,0-0.9-0.1c-0.2-0.1-0.5-0.2-0.8-0.4V7c0.6,0.5,1.1,0.7,1.6,0.7c0.3,0,0.5,0,0.6-0.2
		c0.2-0.1,0.2-0.3,0.2-0.4c0-0.2-0.1-0.5-0.4-0.6c-0.2-0.1-0.5-0.3-0.9-0.5s-0.7-0.4-0.9-0.7c-0.2-0.3-0.3-0.6-0.3-0.9
		c0-0.5,0.2-0.8,0.5-1.1S28.5,3,29.1,3.1z"/>
	<path d="M34.6,3.7l1.1,2.6L38,4.8L38.9,5l-1.6,5.2l-1-0.3l1.1-3.6l0,0l-2.1,1.4h-0.1l-0.9-2.3l0,0L33.2,9l-1-0.3l1.6-5.2L34.6,3.7z
		"/>
	<path d="M42.3,7v2.2l2.1-0.7l1,0.7l-3.2,1.1l-1.5,2.2l-0.9-0.6l1.5-2.2l-0.1-3.4L42.3,7z"/>
	<path d="M48.5,12.4c0.3,0.4,0.5,0.8,0.5,1.2s-0.2,0.8-0.5,1.1C48.3,14.9,48,15,47.7,15s-0.6,0-0.9-0.2c0,0.2,0,0.4,0,0.6
		c0,0.2-0.1,0.5-0.3,0.9c-0.3,0.7-0.5,1.1-0.6,1.4l-0.7-0.9c0-0.1,0.1-0.3,0.2-0.6c0.3-0.6,0.4-1,0.5-1.2s0.1-0.4,0.1-0.6
		c0-0.2-0.1-0.3-0.2-0.4l-0.2-0.3l-1.8,1.5L43,14.3l4.2-3.4L48.5,12.4z M46.5,13.7c0.2,0.2,0.4,0.3,0.6,0.4c0.2,0,0.4,0,0.6-0.2
		c0.2-0.2,0.3-0.3,0.3-0.5s-0.1-0.4-0.3-0.6l-0.4-0.5l-1.2,1L46.5,13.7z"/>
</g>
<path d="M5.7,25.9c0.1,0,0.1,0,0.2,0c0.2,0,0.4-0.1,0.6-0.2C6.8,25.5,6.9,25.3,7,25s0-0.6-0.2-0.8c-0.2-0.2-0.4-0.4-0.7-0.4
	c-0.1,0-0.1,0-0.2,0c-0.2,0-0.4,0.1-0.6,0.2c-0.2,0.2-0.4,0.4-0.4,0.7c-0.1,0.3,0,0.6,0.2,0.8C5.2,25.7,5.4,25.8,5.7,25.9z"/>
<polygon points="8.9,34.2 5.2,33.4 8.3,31.2 8.1,30.1 3.2,33.6 3.3,34 9.1,35.2 "/>
<path d="M11.7,37.3c-0.1,0-0.1,0-0.2,0c-0.1,0-0.1,0-0.2,0c-0.1,0.1-0.2,0.2-0.3,0.3c0,0.1,0,0.3,0,0.4c0.1,0.1,0.2,0.2,0.3,0.3
	c0.1,0,0.1,0,0.2,0c0.1,0,0.1,0,0.2,0c0.1-0.1,0.2-0.2,0.3-0.3c0-0.1,0-0.3,0-0.4C11.9,37.5,11.8,37.4,11.7,37.3z"/>
<path d="M9.9,36.9l-5.8,0.3l0.5,1L6,38l1,2.2l-1,1.1l0.5,1l3.9-4.4L9.9,36.9z M7.5,39.6L6.8,38l2.3-0.2L7.5,39.6z"/>
<path d="M10.5,36.6c0.1,0,0.1,0,0.2,0c0.1,0,0.1,0,0.2,0c0.1-0.1,0.2-0.2,0.3-0.3c0-0.1,0-0.3,0-0.4c-0.1-0.1-0.2-0.2-0.3-0.3
	c-0.1,0-0.1,0-0.2,0c-0.1,0-0.1,0-0.2,0c-0.1,0.1-0.2,0.2-0.3,0.3c0,0.1,0,0.3,0,0.4C10.3,36.4,10.4,36.5,10.5,36.6z"/>
<path d="M13.5,43c-0.1-0.5-0.3-1-0.6-1.4s-0.7-0.7-1.2-0.8c-0.1,0-0.2,0-0.3,0c-0.3,0-0.6,0.1-0.9,0.3c-0.3,0.2-0.4,0.5-0.5,0.8
	s0,0.7,0.1,1.2c0.1,0.4,0.2,0.7,0.2,1s0,0.5-0.2,0.7c-0.1,0.1-0.2,0.1-0.3,0.1s-0.1,0-0.2,0c-0.2-0.1-0.4-0.2-0.5-0.4
	c-0.3-0.4-0.5-1-0.5-1.7c-0.3,0.2-0.5,0.4-0.8,0.6C7.9,43.7,8,44,8,44.3c0.1,0.2,0.3,0.5,0.5,0.8c0.3,0.4,0.7,0.7,1.1,0.7
	c0.1,0,0.2,0,0.3,0c0.3,0,0.6-0.1,0.9-0.3c0.3-0.2,0.5-0.5,0.5-0.8c0.1-0.3,0.1-0.7-0.1-1.2c-0.1-0.6-0.2-0.9-0.2-1
	c0-0.3,0-0.5,0.2-0.7c0.1-0.1,0.2-0.1,0.3-0.1s0.1,0,0.2,0c0.2,0.1,0.3,0.2,0.5,0.4c0.3,0.3,0.5,0.8,0.5,1.5
	C13,43.4,13.3,43.2,13.5,43z"/>
<polygon points="18,46.3 14.1,43.3 13.6,44 15.1,45.1 12.3,48.7 13.1,49.4 16,45.8 17.5,47 "/>
<polygon points="21.4,48.8 21.7,48.1 18.6,46.6 16.3,51.5 19.5,53 19.9,52.3 17.6,51.2 18.2,49.8 20.4,50.8 20.7,50.1 18.6,49.1 
	19.2,47.8 "/>
<path d="M24.6,48.8c-0.6-0.1-1.3-0.3-1.9-0.4c-0.4,1.8-0.7,3.5-1.1,5.3c0.3,0.1,0.7,0.1,1,0.2c0.2-0.7,0.3-1.5,0.5-2.2
	c0.1,0,0.2,0.1,0.4,0.1c0.2,0,0.3,0.1,0.4,0.2c0.1,0.1,0.2,0.3,0.3,0.5c0.1,0.2,0.2,0.6,0.4,1.3c0.1,0.3,0.1,0.5,0.2,0.6
	c0.4,0.1,0.8,0.2,1.1,0.2c-0.1-0.3-0.3-0.8-0.4-1.5c-0.1-0.4-0.2-0.7-0.3-0.9c-0.1-0.2-0.2-0.3-0.4-0.5c0.3-0.1,0.6-0.2,0.8-0.4
	c0.2-0.2,0.3-0.4,0.4-0.7c0.1-0.4,0-0.8-0.2-1.2C25.5,49.1,25.1,48.9,24.6,48.8z M24.9,50.5c0,0.2-0.2,0.4-0.3,0.5
	c-0.1,0.1-0.3,0.1-0.4,0.1s-0.2,0-0.3,0c-0.2,0-0.4-0.1-0.7-0.1c0.1-0.5,0.2-1,0.3-1.5c0.2,0,0.4,0.1,0.6,0.1
	c0.3,0.1,0.5,0.2,0.6,0.3C24.9,50,25,50.2,24.9,50.5z"/>
<path d="M30.6,51.7L30.6,51.7c0.2-0.2,0.4-0.3,0.5-0.5s0.2-0.4,0.2-0.7c0-0.4-0.2-0.7-0.5-0.9s-0.7-0.3-1.1-0.3h-0.1
	c-0.7,0-1.3,0-2,0.1c0.1,1.8,0.1,3.6,0.2,5.4c0.8,0,1.5-0.1,2.3-0.1c0.4,0,0.7-0.1,1-0.2c0.3-0.1,0.5-0.3,0.6-0.6
	c0.1-0.2,0.2-0.5,0.2-0.8s-0.1-0.6-0.3-0.9C31.3,51.9,31,51.8,30.6,51.7z M28.7,50.1c0.3,0,0.5,0,0.8,0l0,0c0.2,0,0.4,0.1,0.5,0.2
	c0.2,0.1,0.2,0.3,0.2,0.5s-0.1,0.4-0.2,0.6c-0.2,0.1-0.4,0.2-0.6,0.2s-0.4,0-0.7,0C28.7,51,28.7,50.5,28.7,50.1z M30.5,53.6
	c-0.2,0.1-0.4,0.2-0.8,0.2c-0.3,0-0.6,0-0.9,0c0-0.5,0-1-0.1-1.5c0.3,0,0.7,0,1,0c0,0,0,0,0.1,0c0.3,0,0.5,0.1,0.7,0.2
	c0.2,0.1,0.3,0.3,0.3,0.5C30.8,53.2,30.7,53.4,30.5,53.6z"/>
<path d="M38,48.6c-0.4-0.3-0.8-0.5-1.3-0.6c-0.2,0-0.3,0-0.5,0c-0.3,0-0.7,0.1-1.1,0.2c-0.6,0.2-1,0.5-1.4,0.8
	c-0.4,0.4-0.6,0.8-0.7,1.3c-0.1,0.5-0.1,1,0.1,1.4c0.2,0.5,0.4,0.9,0.8,1.2c0.4,0.3,0.8,0.5,1.3,0.6c0.2,0,0.3,0,0.5,0
	c0.3,0,0.7-0.1,1-0.2c0.5-0.2,1-0.4,1.3-0.8c0.4-0.4,0.6-0.8,0.7-1.3c0.1-0.5,0.1-1-0.1-1.5C38.6,49.4,38.3,49,38,48.6z M37.7,51.7
	c-0.2,0.4-0.6,0.7-1.1,0.9c-0.2,0.1-0.5,0.1-0.7,0.1c-0.1,0-0.2,0-0.3,0c-0.3-0.1-0.6-0.2-0.9-0.4c-0.2-0.2-0.4-0.5-0.5-0.8
	s-0.1-0.7-0.1-1c0.1-0.3,0.2-0.6,0.4-0.8s0.5-0.4,0.9-0.5c0.2-0.1,0.5-0.1,0.7-0.1c0.1,0,0.2,0,0.3,0c0.3,0.1,0.6,0.2,0.9,0.4
	c0.2,0.2,0.4,0.5,0.5,0.8C37.9,50.7,37.9,51.2,37.7,51.7z"/>
<polygon points="42.7,45.1 42.2,44.4 38.2,47.1 38.6,47.8 40.2,46.7 42.8,50.5 43.7,49.9 41.1,46.1 "/>
<path d="M28.7,47C38.8,47,47,38.8,47,28.7s-8.2-18.2-18.2-18.2c-10.1,0-18.2,8.2-18.2,18.2C10.5,38.8,18.7,47,28.7,47z M12.5,35.6
	c-0.5-1.1-0.8-2.2-1-3.3c-0.2-1.2-0.4-2.4-0.4-3.6s0.1-2.4,0.4-3.6c0.2-1.1,0.6-2.3,1-3.3c0.4-1.1,1-2.1,1.6-3s1.4-1.8,2.2-2.6
	c0.8-0.8,1.7-1.5,2.6-2.2c0.9-0.6,2-1.2,3-1.6c1.1-0.5,2.2-0.8,3.3-1c1.2-0.2,2.4-0.4,3.6-0.4s2.4,0.1,3.6,0.4
	c1.1,0.2,2.3,0.6,3.3,1c1.1,0.4,2.1,1.2,3,1.8s1.8,1.2,2.6,2s1.5,1.7,2.2,2.6c0.6,0.9,1.2,2,1.6,3c0.5,1.1,0.8,2.2,1,3.3
	c0.2,1.2,0.4,2.4,0.4,3.6s-0.1,2.4-0.4,3.6c-0.2,1.1-0.6,2.3-1,3.3c-0.4,1.1-1,2.1-1.6,3s-1.4,1.8-2.2,2.6s-1.7,1.5-2.6,2.2
	c-0.9,0.6-2,1.2-3,1.6c-1.1,0.5-2.2,0.8-3.3,1c-1.2,0.2-2.4,0.4-3.6,0.4s-2.4-0.1-3.6-0.4c-1.1-0.2-2.3-0.6-3.3-1
	c-1.1-0.4-2.1-1-3-1.6s-1.8-1.4-2.6-2.2c-0.8-0.8-1.5-1.7-2.2-2.6C13.4,37.7,12.9,36.7,12.5,35.6z"/>
<path d="M28.7,0.4C13.1,0.4,0.4,13.1,0.4,28.7S13.1,57,28.7,57S57,44.3,57,28.7S44.4,0.4,28.7,0.4z M28.7,56.5
	C13.4,56.5,1,44.1,1,28.7C1,13.4,13.4,1,28.7,1s27.8,12.5,27.8,27.8S44.1,56.5,28.7,56.5z"/>
<polygon points="14,24.4 28.8,14.2 28.8,14.2 43.5,24.5 43.7,24.3 28.8,13.9 13.9,24.2 "/>
<polygon points="14.5,25.3 28.8,15.2 42.9,25.3 43.4,24.7 28.8,14.6 14.1,24.7 "/>
<polygon points="39.7,34.2 39.8,33.6 32.4,33.6 32.4,33.7 25.2,33.6 25.2,33.6 17.8,33.6 17.8,34.2 16.8,34.2 16.8,34.2 16.7,33.6 
	16.3,33.6 16.5,35.1 16.8,35.1 16.8,34.3 17.8,34.3 17.8,34.3 17.8,35.1 39.7,35.1 39.7,34.3 40.8,34.3 40.7,34.3 40.7,35.1 
	41.1,35.1 41.2,33.6 40.8,33.6 40.8,34.2 "/>
<polygon points="18,22.9 17.2,23.6 17.3,24.1 25.2,24.1 25.2,23.9 32.4,23.9 32.4,24.1 40.3,24.1 40.3,23.6 39.5,22.9 39.5,23.5 
	38.4,23.4 38.4,22.8 19.1,22.8 19.1,23.5 18,23.4 "/>
<path d="M31.7,24.7v8.1l0.1,0.7h0.5V24h-0.5L31.7,24.7z M25.8,24h-0.5v9.4h0.6l0.1-0.7l-0.1-8.1L25.8,24z M26,24.7h5.6l0.1-0.6h-5.8
	L26,24.7z M31.6,32.8h-5.5L26,33.5h5.7L31.6,32.8z"/>
<polygon points="39.6,36.1 39.7,35.4 17.9,35.4 17.9,36.1 16.9,36.2 16.9,36.1 16.8,35.4 16.4,35.4 16.6,36.9 16.9,36.9 16.9,36.3 
	17.9,36.3 17.9,36.3 17.9,36.9 39.6,36.9 39.6,36.3 40.7,36.3 40.7,36.3 40.6,36.9 41,36.9 41.1,35.4 40.7,35.4 40.7,36.1 
	39.6,36.2 "/>
<polygon points="20.6,21 19.1,22.1 19.1,22.4 38.4,22.4 38.4,22.1 36.9,21 36.9,21.7 35.8,21.7 35.8,20.9 21.7,20.9 21.7,21.6 
	20.6,21.7 "/>
<polygon points="28.3,15.7 26.7,16.9 26.7,17.1 28.8,17.1 30.9,17.1 30.9,16.9 29.3,15.7 29.3,16.4 28.3,16.3 "/>
<polygon points="25.7,17.5 24.2,18.5 24.2,18.9 33.4,18.9 33.4,18.6 31.9,17.7 31.9,18.3 30.8,18.3 30.9,17.4 28.8,17.4 26.7,17.4 
	26.7,18.3 25.7,18.4 "/>
<polygon points="23.2,19.3 21.7,20.2 21.7,20.5 35.8,20.5 35.8,20.2 34.4,19.3 34.4,19.9 33.4,19.9 33.4,19.2 24.2,19.2 24.2,19.9 
	23.2,19.9 "/>
<polygon points="28.4,16.3 29.2,16.3 29.2,15.6 28.8,15.3 28.4,15.6 "/>
<polygon points="39.5,38 39.6,37.3 18,37.3 18,38 17,38 17,38 16.9,37.3 16.6,37.3 16.7,38.3 40.9,38.3 41,37.3 40.6,37.3 40.6,38 
	"/>
<polygon points="36.8,21 35.9,20.3 35.9,21.6 36.8,21.6 "/>
<polygon points="39.9,30.4 40,29.8 32.4,29.8 32.4,31.3 39.9,31.3 39.9,30.6 40.9,30.6 40.9,30.6 40.9,31.3 41.3,31.3 41.4,29.8 
	41,29.8 41,30.4 39.9,30.5 "/>
<polygon points="40.1,26.8 40.2,26.1 32.4,26.1 32.4,27.7 40.1,27.7 40.1,26.9 41.1,26.9 41.1,27 41.1,27.7 41.5,27.7 41.6,26.1 
	41.2,26.1 41.1,26.8 "/>
<polygon points="40,28.7 40.1,28 32.4,28 32.4,29.5 40,29.5 40,28.9 41,28.8 41,28.9 41,29.5 41.4,29.5 41.5,28 41.1,28 41.1,28.7 
	"/>
<polygon points="39.8,32.3 39.9,31.6 32.4,31.6 32.4,33.2 39.8,33.2 39.8,32.5 40.8,32.5 40.8,32.5 40.8,33.2 41.2,33.2 41.3,31.6 
	40.9,31.6 40.9,32.4 39.8,32.4 "/>
<polygon points="40.2,25.1 40.3,24.4 32.4,24.4 32.4,25.8 40.2,25.8 40.2,25.3 41.2,25.3 41.2,25.8 41.6,25.8 41.7,24.6 41.3,24.6 
	41.2,25.2 40.2,25.2 "/>
<polygon points="39.4,22.9 38.5,22.2 38.5,23.3 39.4,23.3 "/>
<polygon points="34.3,19.3 33.5,18.6 33.5,19.8 34.3,19.7 "/>
<polygon points="31.8,17.5 31,16.9 30.9,18.2 31.8,18.2 "/>
<polygon points="41.3,24.4 41.3,24.5 41.5,24.5 41.4,24.4 "/>
<polygon points="40.4,23.6 40.4,23.6 40.3,25 41.2,25 41.2,24.2 "/>
<polygon points="21.6,20.3 20.7,21 20.7,21.5 21.6,21.5 "/>
<polygon points="16.6,31.3 16.6,30.6 17.6,30.6 17.6,30.6 17.7,31.3 25.2,31.3 25.2,29.8 17.6,29.8 17.6,30.5 16.6,30.5 16.6,30.5 
	16.5,29.8 16.1,29.8 16.3,31.3 "/>
<polygon points="16.4,27.7 16.4,27 17.4,26.9 17.4,27 17.5,27.7 25.2,27.7 25.2,26.1 17.4,26.1 17.4,26.8 16.4,26.8 16.4,26.8 
	16.3,26.1 15.9,26.1 16.1,27.7 "/>
<polygon points="16.5,29.5 16.5,28.8 17.5,28.9 17.5,28.9 17.6,29.5 25.2,29.5 25.2,28 17.5,28 17.5,28.7 16.5,28.7 16.5,28.7 
	16.4,28 16,28 16.2,29.5 "/>
<polygon points="16.7,33.2 16.7,32.5 17.7,32.5 17.7,32.5 17.7,33.2 25.2,33.2 25.2,31.6 17.7,31.6 17.7,32.3 16.7,32.4 16.7,32.4 
	16.6,31.6 16.2,31.6 16.4,33.2 "/>
<polygon points="16.3,25.8 16.3,25.2 17.3,25.3 17.4,25.8 25.2,25.8 25.2,24.4 17.3,24.4 17.3,25.2 16.3,25.2 16.3,25.1 16.2,24.5 
	15.8,24.5 16,25.8 "/>
<polygon points="19,22.2 18.1,22.9 18.1,23.3 19,23.3 "/>
<polygon points="24.1,18.6 23.3,19.3 23.3,19.8 24.1,19.7 "/>
<polygon points="26.6,16.9 25.8,17.5 25.8,18.2 26.6,18.2 "/>
<polygon points="16.1,24.3 16,24.3 16.2,24.3 16.2,24.3 "/>
<polygon points="17.1,23.6 16.3,24.2 16.4,25.1 17.2,25 17.1,23.5 "/>
<polygon points="40,30.7 39.9,32.2 40.8,32.2 40.8,30.7 "/>
<polygon points="40.1,29 40,30.4 40.9,30.4 40.9,28.9 "/>
<polygon points="40.2,27.1 40.1,28.6 41,28.6 41,27.1 "/>
<polygon points="39.9,32.6 39.8,34.1 40.7,34.1 40.8,32.6 "/>
<polygon points="40.3,25.5 40.2,26.7 41.1,26.7 41.1,25.4 "/>
<polygon points="39.7,36.4 39.6,37.9 40.5,37.9 40.6,36.3 "/>
<polygon points="39.8,34.4 39.7,36 40.6,36 40.7,34.4 "/>
<polygon points="17.6,32.2 17.5,30.6 16.7,30.7 16.7,32.3 "/>
<polygon points="17.5,30.4 17.4,29 16.6,28.9 16.7,30.4 "/>
<polygon points="17.4,28.6 17.3,27.1 16.5,27.1 16.6,28.6 "/>
<polygon points="17.7,34.1 17.6,32.5 16.7,32.6 16.8,34.1 "/>
<polygon points="17.3,26.7 17.2,25.4 16.4,25.3 16.5,26.7 "/>
<polygon points="17,36.3 17.1,37.9 17.9,37.9 17.8,36.3 "/>
<polygon points="16.8,34.4 17,36.1 17.8,36 17.7,34.4 "/>
</svg>
