<?xml version="1.0" encoding="UTF-8"?><svg id="Lager_1" xmlns="http://www.w3.org/2000/svg" width="20.2847mm" height="20.2847mm" viewBox="0 0 57.5 57.5"><defs><style>.cls-1{fill:none;}.cls-2{fill:#151514;}</style></defs><polygon class="cls-1" points="40.212 23.5559 40.2687 23.3715 40.2034 23.5531 40.212 23.5559"/><polygon points="46.3842 40.9544 45.7712 40.4168 42.5533 44.0871 43.1674 44.6247 44.4321 43.1821 47.8809 46.2065 48.5694 45.4213 45.1205 42.397 46.3842 40.9544"/><polygon points="50.6125 41.0549 49.2568 40.3346 50.3572 38.2653 49.6369 37.8815 48.5365 39.9517 47.2834 39.2855 48.4321 37.1234 47.7118 36.7406 46.0729 39.824 50.8436 42.3602 52.5076 39.2285 51.7872 38.8455 50.6125 41.0549"/><polygon points="48.3712 34.8967 48.1681 35.7911 53.4376 36.9852 53.6629 35.9893 49.9259 35.1424 54.3775 32.8401 54.5758 31.9646 49.3072 30.7696 49.0809 31.7655 52.758 32.6003 48.3712 34.8967"/><path d="M51.61,26.0116c.0629,0,.1273-.0055,.1927-.0166,.2949-.0502,.5269-.1953,.6952-.436,.1683-.2399,.2272-.5058,.1779-.7949-.0502-.2979-.1953-.5309-.4341-.699-.185-.1298-.3855-.1953-.6016-.1953-.064,0-.1293,.0057-.196,.0172-.295,.0494-.5271,.1944-.6971,.4323-.1701,.2378-.2301,.5057-.1788,.8035,.0492,.2919,.1953,.5229,.437,.6922,.1872,.131,.3889,.1965,.605,.1965Z"/><g><path d="M9.7827,11.4315c.4404-.4985,.9883-.8955,1.6445-1.1904l.7158,.6323c-.6826,.271-1.2344,.644-1.6533,1.1196-.2617,.2959-.4346,.6108-.5195,.9448-.085,.3345-.0723,.6626,.0371,.9844s.3008,.603,.5732,.8438c.4141,.3652,.8682,.521,1.3633,.4683,.4961-.0527,.9424-.3047,1.3398-.7549,.1094-.124,.2031-.2515,.2812-.3833,.0791-.1318,.1572-.3027,.2354-.5122l-.6729-.5938-.5908,.6699-.6123-.54,1.2822-1.4526,1.6699,1.4736c-.0361,.3223-.1387,.6572-.3066,1.0059s-.3857,.6733-.6514,.9751c-.377,.4272-.8066,.7368-1.2891,.9287-.4824,.1914-.9678,.2446-1.4561,.1592s-.9277-.3003-1.3184-.645c-.3965-.3496-.668-.7642-.8164-1.2437-.1475-.4795-.1553-.9731-.0234-1.481s.3877-.9775,.7676-1.4087Z"/><path d="M15.3091,6.9378c.4316-.2671,.8574-.3652,1.2773-.2944s.748,.2979,.9854,.6816c.1621,.2607,.2354,.5298,.2207,.8076-.0156,.2773-.1211,.5542-.3164,.8301,.1953-.0122,.3926,.0146,.5908,.0801,.1973,.0654,.4805,.207,.8496,.4248,.625,.3833,1.0703,.6382,1.3369,.7646l-.9902,.6123c-.1299-.0586-.3223-.1626-.5752-.3125-.5566-.3315-.9473-.5454-1.1709-.6421s-.4121-.147-.5654-.1504c-.1543-.0034-.3018,.0391-.4443,.127l-.3223,.1997,1.2002,1.9404-.8877,.5493-2.8428-4.5947,1.6543-1.0234Zm1.0117,2.0845c.2324-.144,.3789-.3149,.4395-.5132,.0615-.1982,.0293-.3984-.0957-.6001-.1299-.2104-.293-.3271-.4893-.3496-.1963-.0229-.416,.041-.6592,.1914l-.5527,.3418,.792,1.2798,.5654-.3501Z"/><path d="M21.5737,3.0872c.0332,.1274,.0146,.2549-.0557,.3823-.0713,.1279-.1758,.21-.3154,.2461-.1328,.0347-.2627,.0161-.3906-.0542-.127-.0708-.209-.1748-.2451-.312-.0352-.1348-.0137-.2646,.0625-.3901,.0771-.125,.1816-.2046,.3135-.2393,.1348-.0352,.2646-.0156,.3906,.0581s.2061,.1768,.2402,.3091Zm1.1504,.7476l3.6699,4.6279-1.0664,.2773-.874-1.1313-2.3242,.6055-.1738,1.4038-1.0596,.2759,.7949-5.79,1.0332-.269Zm-.4873,3.5322l1.6875-.4395-1.4219-1.8398-.2656,2.2793Zm1.1826-4.7603c.0352,.1348,.0156,.2642-.0566,.3887-.0732,.124-.1768,.2036-.3115,.2388-.1328,.0347-.2607,.0166-.3857-.0532-.125-.0703-.2051-.1753-.2422-.3149-.0352-.1348-.0156-.2642,.0566-.3882,.0732-.1245,.1768-.2041,.3115-.2393,.1299-.0337,.2588-.0137,.3857,.0596,.127,.0737,.208,.1768,.2422,.3086Z"/><path d="M29.0737,3.0565c.5264,.0068,1.0308,.1445,1.5151,.4136l-.0117,.9282c-.5557-.3447-1.0493-.52-1.4819-.5254-.2637-.0034-.4697,.0449-.6191,.145s-.2256,.2349-.2275,.4053c-.0029,.2036,.1328,.3936,.4062,.5698,.0771,.0522,.373,.2007,.8887,.4443,.4404,.2144,.7563,.4502,.9497,.708,.1924,.2578,.2861,.5659,.2822,.9243-.0059,.4639-.1777,.8364-.5156,1.1172-.3364,.2808-.771,.4175-1.3022,.4106-.3457-.0044-.6416-.0459-.8896-.125-.248-.0796-.5254-.2139-.832-.4033l.0127-1.0288c.5713,.4868,1.1123,.7334,1.623,.7402,.2549,.0029,.4619-.0498,.6211-.1587,.1582-.1089,.2383-.2549,.2412-.438,.0029-.25-.1309-.4556-.4023-.6162-.2256-.1265-.5166-.2783-.8721-.4556-.4229-.1987-.7383-.4282-.9453-.689-.2061-.2603-.3076-.561-.3037-.9014,.0059-.4536,.1797-.813,.5205-1.0781s.7891-.394,1.3428-.3872Z"/><path d="M34.584,3.7318l1.0703,2.5581,2.3232-1.5156,.8906,.2739-1.5859,5.1646-.998-.3066,1.1133-3.627-.0293-.0088-2.0527,1.3599-.1396-.043-.9355-2.2778-.0293-.0093-1.1143,3.627-.998-.3066,1.5869-5.1646,.8984,.2759Z"/><path d="M42.3086,6.973l.0381,2.229,2.1182-.7246,1.0186,.7104-3.2344,1.0679-1.5312,2.1953-.8564-.5977,1.5352-2.2012-.1289-3.4048,1.041,.7256Z"/><path d="M48.4502,12.3895c.3242,.3911,.4805,.7993,.4678,1.2251-.0127,.4253-.1924,.7822-.54,1.0698-.2363,.1958-.4922,.3057-.7695,.3291-.2764,.0234-.5654-.043-.8652-.1992,.0381,.1924,.0391,.3911,.002,.5962-.0381,.2051-.1396,.5054-.3047,.8999-.2939,.6719-.4844,1.1484-.5732,1.4297l-.7432-.8965c.041-.1372,.1172-.3413,.2305-.6128,.252-.5972,.4111-1.0132,.4756-1.248,.0654-.2344,.0889-.4282,.0713-.5811s-.0801-.2935-.1875-.4224l-.2412-.292-1.7578,1.4561-.666-.8042,4.1602-3.4473,1.2412,1.4976Zm-1.9248,1.2891c.1738,.2104,.3633,.3325,.5684,.3652s.3984-.0264,.5811-.1777c.1904-.1577,.2842-.3354,.2793-.5327s-.0977-.4062-.2803-.6265l-.415-.5005-1.1582,.96,.4248,.5122Z"/></g><path class="cls-1" d="M29.828,52.2782c-.0245,0-.0492,.0005-.0745,.0015-.3271,.0118-.6543,.0239-.9814,.0357,.0183,.509,.0366,1.0179,.0551,1.5267,.3004-.0109,.6008-.0219,.9012-.0328,.353-.0135,.6168-.089,.7929-.2282,.175-.1393,.2581-.3384,.2484-.5956-.0076-.2292-.1044-.407-.2881-.5337-.1683-.1151-.3862-.1736-.6536-.1736Z"/><path class="cls-1" d="M28.7495,.9643C13.4292,.9643,.964,13.4284,.964,28.7487s12.4651,27.785,27.7855,27.785,27.7844-12.4642,27.7844-27.785S44.0698,.9643,28.7495,.9643Zm-.0005,9.5419c10.0751,0,18.2434,8.1678,18.2434,18.243s-8.1683,18.2424-18.2434,18.2424S10.5065,38.8243,10.5065,28.7492,18.6739,10.5062,28.7489,10.5062ZM11.9578,37.989c-.0492,.1382-.1353,.2368-.259,.2938-.069,.0322-.1392,.0482-.2106,.0482-.0597,0-.1204-.0112-.1821-.0337-.1354-.0494-.2321-.1363-.291-.2631-.0581-.1237-.0638-.2532-.0175-.3887,.0465-.1353,.1345-.2339,.2659-.2949,.0685-.032,.1384-.0482,.2097-.0482,.0597,0,.1203,.0112,.1819,.0338,.1354,.0493,.2331,.1373,.2921,.263,.0561,.1218,.06,.2512,.0106,.3897Zm-1.7684-2.079c.0464-.1382,.1334-.2368,.2621-.2968,.0671-.0312,.1356-.047,.2056-.047,.0619,0,.1248,.0124,.1888,.0373,.1373,.0523,.235,.1412,.293,.265,.0589,.1257,.0627,.2573,.0135,.3945-.0503,.1374-.1373,.2349-.261,.2919-.0652,.0308-.1331,.0461-.204,.0461-.0586,0-.1193-.0105-.1819-.0315-.1382-.0464-.2379-.1355-.2987-.2659-.058-.1238-.0639-.2554-.0175-.3936Zm-4.9118-11.9628c.1838-.131,.3842-.1966,.6011-.1966,.065,0,.1315,.0059,.1995,.0176,.29,.0503,.5202,.1964,.6913,.436,.172,.2408,.2321,.5068,.1818,.7996-.0524,.297-.1984,.529-.4381,.6973-.1835,.128-.383,.1921-.5987,.1921-.066,0-.1337-.006-.2029-.018-.2919-.0503-.5221-.1953-.6913-.4341-.1692-.2387-.2282-.5067-.1769-.8035,.0502-.29,.1953-.5201,.4341-.6903Zm-2.0402,9.6472l4.9003-3.4649,.2108,1.082-3.1135,2.1635,3.6898,.7978,.2098,1.0742-5.8284-1.2957-.0687-.3568Zm2.7751,7.6772l.9542-1.0646-1.0161-2.1765-1.4127,.0831-.4632-.992,5.8381-.2669,.4515,.967-3.8859,4.4478-.466-.9979Zm5.7298,.4671c-.0562-.0168-.1101-.0252-.1619-.0252-.1071,0-.2053,.0359-.2946,.1082-.1595,.1276-.2194,.353-.1808,.6758,.0087,.0929,.0833,.4149,.2234,.968,.115,.4756,.1353,.8712,.0588,1.1835-.0753,.3123-.2532,.5811-.5326,.8064-.2818,.2274-.5854,.3408-.9108,.3408-.0911,0-.184-.0089-.2786-.0267-.4312-.0811-.813-.3286-1.1457-.7426-.2176-.2688-.3742-.524-.471-.7657-.0966-.2417-.17-.5405-.2194-.8982,.2672-.215,.5344-.43,.8016-.645-.0116,.7502,.143,1.3246,.4631,1.722,.1604,.1992,.3326,.3248,.5182,.3781,.058,.0165,.1139,.0247,.1677,.0247,.1176,0,.2253-.0392,.3235-.1176,.1943-.1575,.2678-.3915,.2185-.7029-.0455-.2542-.1141-.5753-.2041-.963-.116-.4525-.1402-.8412-.0706-1.1671,.0687-.3248,.2359-.5946,.5009-.8083,.265-.2134,.5497-.3206,.8537-.3206,.1008,0,.2037,.0118,.3086,.0354,.4214,.0938,.8064,.3568,1.1544,.7881,.3297,.4099,.5453,.8875,.6458,1.4319-.2411,.1941-.4821,.388-.7231,.5822-.0872-.6478-.2669-1.1401-.5386-1.4775-.1653-.205-.3336-.3335-.5067-.3847Zm1.3643,7.6548l-.819-.6478,2.8447-3.5978-1.5046-1.1903,.5058-.6402,3.8289,3.0275-.5067,.6401-1.5044-1.1903-2.8447,3.5989Zm7.5969,.6855l-.3452,.7397-2.1232-.9911-.6498,1.3913,2.2673,1.0588-.345,.7386-3.214-1.4996,2.2856-4.8964,3.1648,1.4775-.3453,.7397-2.218-1.0355-.6005,1.2859,2.1234,.9911Zm5.2899,.5772c-.0619,.3007-.1924,.5472-.3934,.7387-.2012,.1924-.468,.321-.8006,.3878,.1508,.1247,.2756,.2793,.3751,.4631,.0996,.1838,.2088,.4806,.3268,.8916,.1924,.7087,.3413,1.1987,.4486,1.4735-.3802-.0777-.7606-.1554-1.1409-.2332-.0543-.1324-.1219-.3392-.2042-.6216-.1778-.6237-.3141-1.0472-.4108-1.2706-.0967-.2242-.1993-.3896-.3086-.4979-.1102-.1074-.2465-.179-.4109-.2118l-.3712-.0764-.4574,2.2355c-.341-.0696-.682-.1393-1.0229-.2089,.3609-1.7646,.7219-3.5292,1.0829-5.2937,.6353,.1299,1.2704,.2597,1.9057,.3896,.498,.1025,.8751,.323,1.1322,.6623,.2563,.3394,.3404,.7301,.2495,1.172Zm5.6535,3.1888c-.144,.2418-.35,.4264-.6179,.5549-.2679,.1286-.5859,.1992-.9543,.2128-.7536,.0277-1.5071,.0555-2.2606,.0831-.0659-1.8-.1317-3.6001-.1974-5.4001,.6597-.0239,1.3195-.0477,1.9794-.0715,.0341-.0013,.0679-.002,.1012-.002,.4489,0,.8232,.1147,1.1219,.3443,.3221,.2456,.4893,.5627,.5037,.9485,.0087,.2475-.0483,.4679-.1722,.6603-.1226,.1934-.3063,.349-.5491,.4689l.001,.0465c.38,.0715,.6787,.2291,.8983,.4727,.2184,.2438,.3344,.5338,.347,.8712,.0107,.2988-.0561,.5696-.201,.8104Zm7.2034-2.5101c-.1121,.4913-.3461,.9206-.7029,1.2869-.3557,.3676-.8035,.6391-1.343,.8151-.352,.1153-.6995,.1729-1.0422,.1729-.1749,0-.3487-.015-.5213-.0451-.5096-.0881-.9524-.2939-1.3266-.6179-.3741-.325-.6411-.7301-.8005-1.2183-.1529-.4708-.1761-.9524-.0687-1.4456,.1074-.494,.3364-.9243,.6884-1.2927,.352-.3684,.8045-.6431,1.3585-.8237,.3635-.1191,.719-.1783,1.0663-.1783,.1607,0,.3196,.0127,.4767,.038,.4972,.0803,.9389,.2863,1.3267,.6169,.3869,.3307,.6614,.7426,.8219,1.2347,.1567,.4805,.1789,.9658,.0667,1.457Zm3.9489-.8257l-2.5671-3.8008-1.5897,1.0743-.4573-.6768,4.0445-2.7316,.4574,.6758-1.5896,1.0742,2.5671,3.801-.8654,.5839Zm5.0819-4.3027l-3.4489-3.0244-1.2646,1.4426-.6141-.5377,3.2178-3.6703,.613,.5376-1.2637,1.4426,3.449,3.0243-.6885,.7852Zm2.9626-3.8463l-4.7707-2.5362,1.6389-3.0834,.7203,.3828-1.1487,2.162,1.2532,.6662,1.1003-2.0702,.7203,.3839-1.1003,2.0693,1.3557,.7203,1.1747-2.2094,.7204,.3829-1.664,3.1318Zm-.0967-18.0408c.17-.2379,.4022-.3829,.6971-.4323,.0667-.0115,.132-.0172,.196-.0172,.2161,0,.4166,.0654,.6016,.1953,.2389,.1682,.3839,.4011,.4341,.699,.0494,.2891-.0096,.5549-.1779,.7949-.1683,.2407-.4003,.3858-.6952,.436-.0654,.0111-.1298,.0166-.1927,.0166-.2161,0-.4178-.0654-.605-.1965-.2417-.1693-.3878-.4003-.437-.6922-.0513-.2978,.0087-.5657,.1788-.8035Zm-1.4397,6.4502l5.2686,1.1949-.1982,.8755-4.4516,2.3023,3.737,.8469-.2253,.9959-5.2695-1.1942,.2031-.8943,4.3868-2.2964-3.6771-.8348,.2263-.9958Z"/><path class="cls-1" d="M37.2306,49.3652c-.2417-.2232-.5269-.3635-.8537-.4224-.1118-.0202-.2247-.0303-.339-.0303-.2199,0-.4443,.0374-.6734,.1124-.3481,.1132-.6372,.2911-.8664,.5328-.2281,.2416-.3731,.522-.4351,.8422-.0609,.3191-.0348,.6508,.0765,.994,.1112,.3403,.2891,.6218,.5318,.8431,.2437,.2224,.5269,.3625,.8517,.4216,.1121,.0207,.2256,.0309,.3406,.0309,.218,0,.4409-.0372,.6689-.1113,.527-.1722,.906-.4796,1.1371-.9215,.232-.4409,.262-.9233,.0919-1.4455-.1112-.3403-.2882-.6226-.5309-.8461Z"/><path class="cls-1" d="M24.2055,49.5559c-.2125-.0432-.4248-.0864-.6372-.1296-.1006,.4912-.2012,.9824-.3017,1.4736,.2172,.0445,.4345,.0889,.6517,.1334,.0933,.0192,.1814,.0289,.2641,.0289,.1546,0,.2908-.0336,.4079-.1003,.1808-.1025,.2939-.2698,.3424-.5028,.0492-.2427,.0106-.439-.1161-.5898-.1276-.1509-.3307-.2552-.611-.3133Z"/><path class="cls-1" d="M30.0456,51.2547c.1548-.1373,.2281-.3231,.2194-.5579-.0076-.2088-.0869-.3713-.2387-.4882-.1405-.1089-.3203-.1635-.537-.1635l-.049,.0009c-.2502,.0091-.5003,.0181-.7504,.0272,.0175,.4755,.0349,.9508,.0524,1.4263,.2188-.0078,.4376-.0156,.6564-.0233,.2766-.0107,.4912-.084,.6469-.2214Z"/><polygon class="cls-1" points="7.5411 39.563 9.0928 37.8313 6.8033 37.9821 7.5411 39.563"/><polygon class="cls-1" points="18.7942 23.7741 19.3111 23.6454 18.7921 23.7673 18.7942 23.7741"/><path d="M5.7117,25.8751c.0692,.012,.1368,.018,.2029,.018,.2157,0,.4152-.0641,.5987-.1921,.2397-.1683,.3857-.4003,.4381-.6973,.0502-.2928-.0098-.5588-.1818-.7996-.1711-.2396-.4014-.3857-.6913-.436-.068-.0118-.1345-.0176-.1995-.0176-.217,0-.4174,.0656-.6011,.1966-.2388,.1702-.384,.4003-.4341,.6903-.0513,.2969,.0078,.5648,.1769,.8035,.1692,.2388,.3994,.3839,.6913,.4341Z"/><polygon points="8.9247 34.1726 5.2349 33.3748 8.3484 31.2114 8.1376 30.1294 3.2373 33.5943 3.3061 33.9511 9.1345 35.2468 8.9247 34.1726"/><path d="M11.6552,37.3363c-.0616-.0225-.1223-.0338-.1819-.0338-.0713,0-.1412,.0162-.2097,.0482-.1314,.061-.2194,.1596-.2659,.2949-.0464,.1354-.0406,.265,.0175,.3887,.059,.1268,.1556,.2137,.291,.2631,.0617,.0225,.1224,.0337,.1821,.0337,.0714,0,.1416-.0161,.2106-.0482,.1238-.057,.2098-.1556,.259-.2938,.0494-.1385,.0455-.2679-.0106-.3897-.059-.1257-.1567-.2137-.2921-.263Z"/><path d="M9.9128,36.8546l-5.8381,.2669,.4632,.992,1.4127-.0831,1.0161,2.1765-.9542,1.0646,.466,.9979,3.8859-4.4478-.4515-.967Zm-2.3718,2.7084l-.7377-1.5809,2.2895-.1509-1.5518,1.7318Z"/><path d="M10.5055,36.5695c.0626,.021,.1233,.0315,.1819,.0315,.0709,0,.1388-.0153,.204-.0461,.1237-.0571,.2108-.1545,.261-.2919,.0492-.1373,.0453-.2688-.0135-.3945-.058-.1238-.1556-.2126-.293-.265-.064-.0249-.127-.0373-.1888-.0373-.07,0-.1385,.0158-.2056,.047-.1287,.06-.2156,.1586-.2621,.2968-.0464,.1382-.0406,.2698,.0175,.3936,.0609,.1304,.1605,.2195,.2987,.2659Z"/><path d="M13.5106,43.0186c-.1005-.5444-.3161-1.022-.6458-1.4319-.348-.4313-.733-.6943-1.1544-.7881-.1049-.0236-.2078-.0354-.3086-.0354-.304,0-.5887,.1072-.8537,.3206-.265,.2137-.4321,.4835-.5009,.8083-.0696,.3259-.0454,.7146,.0706,1.1671,.09,.3878,.1586,.7088,.2041,.963,.0493,.3114-.0242,.5454-.2185,.7029-.0981,.0784-.2059,.1176-.3235,.1176-.0538,0-.1097-.0082-.1677-.0247-.1857-.0533-.3578-.1789-.5182-.3781-.3201-.3974-.4747-.9718-.4631-1.722-.2672,.215-.5345,.43-.8016,.645,.0494,.3577,.1228,.6565,.2194,.8982,.0968,.2417,.2534,.4969,.471,.7657,.3327,.4139,.7145,.6614,1.1457,.7426,.0946,.0178,.1875,.0267,.2786,.0267,.3254,0,.629-.1135,.9108-.3408,.2794-.2253,.4573-.4941,.5326-.8064,.0765-.3123,.0562-.7078-.0588-1.1835-.1401-.5531-.2147-.8751-.2234-.968-.0386-.3229,.0213-.5482,.1808-.6758,.0893-.0723,.1874-.1082,.2946-.1082,.0518,0,.1057,.0084,.1619,.0252,.1731,.0512,.3413,.1797,.5067,.3847,.2717,.3374,.4515,.8297,.5386,1.4775,.241-.1942,.4819-.3881,.7231-.5822Z"/><polygon points="17.9623 46.3448 14.1334 43.3173 13.6276 43.9575 15.1322 45.1478 12.2876 48.7456 13.1066 49.3934 15.9512 45.7946 17.4556 46.9849 17.9623 46.3448"/><polygon points="21.3985 48.8375 21.7439 48.0978 18.5791 46.6203 16.2934 51.5167 19.5074 53.0163 19.8525 52.2777 17.5851 51.2189 18.235 49.8276 20.3582 50.8187 20.7034 50.079 18.5801 49.0879 19.1805 47.802 21.3985 48.8375"/><path d="M24.6116,48.8219c-.6353-.1299-1.2704-.2597-1.9057-.3896-.361,1.7645-.722,3.5291-1.0829,5.2937,.3409,.0696,.6819,.1393,1.0229,.2089l.4574-2.2355,.3712,.0764c.1645,.0328,.3008,.1044,.4109,.2118,.1093,.1083,.2119,.2736,.3086,.4979,.0966,.2234,.233,.6469,.4108,1.2706,.0823,.2823,.1499,.4892,.2042,.6216,.3803,.0778,.7606,.1555,1.1409,.2332-.1073-.2748-.2562-.7648-.4486-1.4735-.118-.411-.2272-.7078-.3268-.8916-.0995-.1838-.2244-.3384-.3751-.4631,.3326-.0668,.5994-.1954,.8006-.3878,.201-.1915,.3315-.438,.3934-.7387,.0909-.4419,.0068-.8326-.2495-1.172-.2571-.3393-.6342-.5598-1.1322-.6623Zm.3212,1.637c-.0485,.233-.1616,.4003-.3424,.5028-.1171,.0667-.2533,.1003-.4079,.1003-.0827,0-.1708-.0096-.2641-.0289-.2172-.0444-.4344-.0889-.6517-.1334,.1005-.4911,.2011-.9824,.3017-1.4736,.2124,.0432,.4247,.0864,.6372,.1296,.2803,.0581,.4834,.1624,.611,.3133,.1267,.1508,.1653,.347,.1161,.5898Z"/><path d="M30.6025,51.6908l-.001-.0465c.2429-.1199,.4265-.2755,.5491-.4689,.1239-.1924,.1809-.4128,.1722-.6603-.0144-.3859-.1816-.7029-.5037-.9485-.2987-.2296-.673-.3443-1.1219-.3443-.0333,0-.0671,.0007-.1012,.002-.6599,.0239-1.3196,.0477-1.9794,.0715,.0657,1.8,.1315,3.6001,.1974,5.4001,.7535-.0276,1.507-.0554,2.2606-.0831,.3683-.0135,.6864-.0842,.9543-.2128,.2678-.1285,.4738-.3132,.6179-.5549,.145-.2407,.2117-.5116,.201-.8104-.0126-.3373-.1286-.6274-.347-.8712-.2196-.2436-.5183-.4012-.8983-.4727Zm-1.9126-1.6177c.2501-.009,.5002-.0181,.7504-.0272l.049-.0009c.2167,0,.3965,.0546,.537,.1635,.1518,.1169,.2311,.2794,.2387,.4882,.0087,.2349-.0646,.4207-.2194,.5579-.1556,.1374-.3703,.2108-.6469,.2214-.2188,.0076-.4376,.0155-.6564,.0233-.0175-.4755-.0349-.9508-.0524-1.4263Zm1.8314,3.5079c-.1761,.1392-.4399,.2147-.7929,.2282-.3004,.011-.6008,.0219-.9012,.0328-.0184-.5089-.0367-1.0178-.0551-1.5267,.3271-.0118,.6543-.0239,.9814-.0357,.0253-.001,.05-.0015,.0745-.0015,.2673,0,.4853,.0585,.6536,.1736,.1838,.1266,.2805,.3044,.2881,.5337,.0097,.2572-.0734,.4564-.2484,.5956Z"/><path d="M37.9615,48.6431c-.3878-.3307-.8295-.5366-1.3267-.6169-.1571-.0253-.316-.038-.4767-.038-.3474,0-.7028,.0593-1.0663,.1783-.554,.1807-1.0065,.4553-1.3585,.8237-.352,.3683-.5811,.7986-.6884,1.2927-.1074,.4932-.0842,.9748,.0687,1.4456,.1594,.4882,.4263,.8934,.8005,1.2183,.3742,.3239,.817,.5298,1.3266,.6179,.1726,.0301,.3464,.0451,.5213,.0451,.3428,0,.6902-.0576,1.0422-.1729,.5395-.176,.9872-.4475,1.343-.8151,.3568-.3663,.5908-.7957,.7029-1.2869,.1122-.4912,.09-.9765-.0667-1.457-.1605-.4922-.435-.9041-.8219-1.2347Zm-.2919,3.0137c-.2311,.4419-.6101,.7493-1.1371,.9215-.228,.074-.451,.1113-.6689,.1113-.1149,0-.2285-.0103-.3406-.0309-.3249-.0591-.6081-.1992-.8517-.4216-.2427-.2214-.4206-.5029-.5318-.8431-.1113-.3432-.1373-.6749-.0765-.994,.062-.3201,.207-.6005,.4351-.8422,.2292-.2417,.5183-.4196,.8664-.5328,.2291-.075,.4535-.1124,.6734-.1124,.1143,0,.2272,.0101,.339,.0303,.3268,.0589,.612,.1992,.8537,.4224,.2427,.2235,.4197,.5058,.5309,.8461,.1701,.5222,.1401,1.0046-.0919,1.4455Z"/><polygon points="42.6868 45.0501 42.2294 44.3743 38.1849 47.1058 38.6422 47.7827 40.2319 46.7084 42.799 50.5092 43.6644 49.9252 41.0972 46.1243 42.6868 45.0501"/><path d="M28.7489,46.9916c10.0751,0,18.2434-8.1673,18.2434-18.2424S38.8241,10.5062,28.7489,10.5062,10.5065,18.6741,10.5065,28.7492s8.1674,18.2424,18.2424,18.2424Zm-16.2919-11.359c-.452-1.0685-.7976-2.1821-1.0301-3.3187-.2398-1.1719-.3592-2.3683-.3592-3.5646s.1194-2.3928,.3592-3.5647c.2325-1.1367,.5781-2.2502,1.0301-3.3188,.4443-1.0505,.9915-2.0576,1.6301-3.0026,.6342-.9384,1.3586-1.8158,2.1594-2.6166,.8008-.8009,1.6782-1.5252,2.6165-2.1594,.9451-.6386,1.9521-1.1858,3.0026-1.6302,1.0685-.4521,2.1821-.7977,3.3188-1.0302,1.1719-.2397,2.3683-.3592,3.5646-.3592s2.3927,.1194,3.5647,.3592c1.1366,.2325,2.2502,.5782,3.3188,1.0302,1.0506,.4444,2.0576,1.1617,3.0027,1.8003,.9384,.6342,1.8159,1.1884,2.6168,1.9893,.8009,.8009,1.5253,1.6782,2.1594,2.6166,.6387,.945,1.1859,1.9521,1.6303,3.0027,.4521,1.0685,.7977,2.1821,1.0303,3.3187,.2396,1.1719,.359,2.3684,.359,3.5647s-.1194,2.3928-.359,3.5646c-.2326,1.1367-.5782,2.2502-1.0303,3.3187-.4445,1.0505-.9916,2.0574-1.6303,3.0025-.6342,.9384-1.3585,1.8158-2.1594,2.6165-.801,.8009-1.6783,1.5253-2.6167,2.1594-.9452,.6387-1.9522,1.1858-3.0028,1.6302-1.0685,.452-2.1822,.7976-3.3187,1.0301-1.172,.2398-2.3684,.3592-3.5648,.3592s-2.3928-.1194-3.5646-.3592c-1.1367-.2325-2.2502-.5781-3.3188-1.0301-1.0506-.4444-2.0575-.9915-3.0026-1.6302-.9383-.6341-1.8157-1.3585-2.6165-2.1592-.8008-.8008-1.5252-1.6782-2.1594-2.6165-.6385-.9452-1.1857-1.9521-1.6301-3.0026Z"/><path class="cls-2" d="M28.7495,.4025C13.1188,.4025,.4032,13.1185,.4032,28.7487s12.7156,28.3467,28.3463,28.3467,28.3452-12.7165,28.3452-28.3467S44.3792,.4025,28.7495,.4025Zm0,56.1312C13.4292,56.5337,.964,44.0695,.964,28.7487S13.4292,.9643,28.7495,.9643s27.7844,12.4641,27.7844,27.7844-12.4641,27.785-27.7844,27.785Z"/><polygon points="14.0133 24.3747 28.7709 14.2303 28.7779 14.2361 43.5055 24.5098 43.6718 24.3332 28.7635 13.9288 13.8782 24.1981 14.0133 24.3747"/><polygon points="14.4827 25.2581 28.7772 15.1566 42.8695 25.2756 43.3803 24.7379 28.7917 14.6045 14.0974 24.6966 14.4827 25.2581"/><polygon points="39.7212 34.1919 39.7577 33.5693 32.4175 33.5693 32.3934 33.6676 25.1635 33.6467 25.158 33.5693 17.7665 33.5693 17.8047 34.2073 16.768 34.2073 16.768 34.1938 16.7306 33.5693 16.3326 33.5693 16.4639 35.0575 16.8115 35.0575 16.7741 34.3085 17.8099 34.3085 17.8099 34.322 17.8482 35.0575 39.6769 35.0575 39.7142 34.3085 40.7501 34.3085 40.7492 34.324 40.7127 35.0575 41.0603 35.0575 41.1924 33.5693 40.7935 33.5693 40.7561 34.2073 39.7203 34.2073 39.7212 34.1919"/><polygon points="18.0361 22.9072 17.2199 23.5553 17.2573 24.0573 25.158 24.0573 25.174 23.9182 32.3673 23.9182 32.4175 24.0573 40.2678 24.0573 40.3043 23.5553 39.4855 22.9396 39.4863 23.4644 38.4386 23.43 38.4386 22.7929 19.0865 22.7929 19.118 23.4616 18.0498 23.43 18.0361 22.9072"/><path d="M31.6996,24.7424l.0012,8.0749,.0667,.7042,.5149-.0049-.0141-9.4952-.4643,.0052-.1043,.7158Zm-5.9055-.7008l-.4799,.0104-.015,9.4277,.579,.0104,.0855-.6677-.0721-8.0541-.0975-.7268Zm.1832,.6206l5.6284-.0183,.1148-.579-5.8097,.0352,.0665,.5621Zm5.6284,8.1663l-5.5397-.006-.0782,.6312,5.6851,.0071-.0672-.6322Z"/><polygon points="39.623 36.1459 39.6595 35.4123 17.8647 35.4123 17.9029 36.1 16.8671 36.1613 16.8671 36.1478 16.8288 35.4123 16.4308 35.4123 16.5621 36.9006 16.9105 36.9006 16.8723 36.2635 17.9081 36.2635 17.9081 36.277 17.9464 36.9006 39.5787 36.9006 39.616 36.328 40.6519 36.2635 40.651 36.2789 40.6145 36.9006 40.9621 36.9006 41.0942 35.4123 40.6953 35.4123 40.658 36.0942 39.6221 36.1613 39.623 36.1459"/><polygon points="20.6437 20.9831 19.0847 22.0858 19.0865 22.4381 38.4386 22.4381 38.4386 22.1021 36.8796 20.9993 36.8639 21.6742 35.8272 21.6742 35.8429 20.8939 21.6813 20.8939 21.6813 21.6429 20.6291 21.6592 20.6437 20.9831"/><polygon points="28.269 15.6891 26.7135 16.8854 26.7135 17.085 28.7877 17.083 30.862 17.085 30.862 16.8854 29.3057 15.6891 29.3057 16.4071 28.269 16.3456 28.269 15.6891"/><polygon points="25.6649 17.5418 24.2146 18.5248 24.2265 18.8662 33.3994 18.8662 33.4003 18.5522 31.8978 17.6807 31.8978 18.3045 30.8315 18.335 30.862 17.4387 28.7877 17.4368 26.7135 17.4387 26.7135 18.3045 25.6768 18.3528 25.6649 17.5418"/><polygon points="23.1682 19.3293 21.6596 20.206 21.6813 20.5391 35.8429 20.5391 35.8371 20.2383 34.4352 19.3294 34.4352 19.859 33.3949 19.8983 33.3994 19.2209 24.2265 19.2209 24.2265 19.859 23.1898 19.9059 23.1682 19.3293"/><polygon points="28.3541 16.2646 29.2066 16.3261 29.2066 15.6344 28.7808 15.3066 28.3541 15.6344 28.3541 16.2646"/><polygon points="39.5239 37.9889 39.5613 37.2553 17.9637 37.2553 18.0011 37.9511 16.9653 38.0043 16.9653 37.9908 16.9279 37.2553 16.5794 37.2553 16.6578 38.2653 40.911 38.2653 40.9952 37.2553 40.5971 37.2553 40.5589 38.0043 39.5231 38.0043 39.5239 37.9889"/><polygon points="36.7875 20.985 35.935 20.3295 35.93 21.567 36.7868 21.5787 36.7875 20.985"/><polygon points="39.9185 30.4499 39.9549 29.8282 32.4175 29.8282 32.4175 31.3165 39.8741 31.3165 39.9115 30.5665 40.9473 30.5665 40.9465 30.5819 40.91 31.3165 41.2575 31.3165 41.3897 29.8282 40.9908 29.8282 40.9534 30.4379 39.9176 30.4653 39.9185 30.4499"/><polygon points="40.1148 26.8208 40.1522 26.1422 32.4175 26.1422 32.4175 27.6864 40.0705 27.6864 40.1088 26.9374 41.1446 26.9374 41.1437 26.9528 41.1063 27.6864 41.4548 27.6864 41.5861 26.1422 41.188 26.1422 41.1498 26.8362 40.114 26.8362 40.1148 26.8208"/><polygon points="40.0166 28.7198 40.0531 27.9852 32.4175 27.9852 32.4175 29.4735 39.9723 29.4735 40.0097 28.9068 41.0455 28.8364 41.0446 28.8518 41.0082 29.4735 41.3566 29.4735 41.4879 27.9852 41.089 27.9852 41.0516 28.7352 40.0158 28.7352 40.0166 28.7198"/><polygon points="39.8194 32.3489 39.8568 31.6153 32.4175 31.6153 32.4175 33.2145 39.7751 33.2145 39.8133 32.4655 40.8491 32.4655 40.8483 32.4809 40.8109 33.2145 41.1594 33.2145 41.2906 31.6153 40.8926 31.6153 40.8543 32.3643 39.8185 32.3643 39.8194 32.3489"/><polygon points="40.2139 25.1456 40.2504 24.4111 32.4175 24.4111 32.4175 25.7874 40.1696 25.7874 40.207 25.3285 41.2428 25.2581 41.2054 25.7874 41.553 25.7874 41.6851 24.5881 41.2862 24.5881 41.2489 25.1611 40.213 25.1611 40.2139 25.1456"/><polygon points="39.3823 22.885 38.5298 22.2295 38.5199 23.3236 39.4002 23.3236 39.3823 22.885"/><polygon points="34.3431 19.2988 33.4907 18.6433 33.4861 19.7711 34.3431 19.7318 34.3431 19.2988"/><polygon points="31.8057 17.5447 30.9532 16.8892 30.9227 18.2077 31.8057 18.1773 31.8057 17.5447"/><polygon points="41.3097 24.3593 41.3045 24.4605 41.4994 24.4605 41.3656 24.3593 41.3097 24.3593"/><polygon points="40.4249 23.6042 40.3789 23.6042 40.3095 25.0348 41.1628 25.0348 41.2018 24.2 40.4249 23.6042"/><polygon points="21.5892 20.313 20.7367 20.9685 20.7204 21.5329 21.5892 21.5166 21.5892 20.313"/><polygon points="16.6151 31.3165 16.5768 30.5665 17.6127 30.5665 17.6127 30.58 17.6509 31.3165 25.158 31.3165 25.158 29.8282 17.5692 29.8282 17.6074 30.4653 16.5716 30.4653 16.5716 30.4518 16.5334 29.8282 16.1354 29.8282 16.2666 31.3165 16.6151 31.3165"/><polygon points="16.4178 27.6864 16.3805 27.0039 17.4163 26.9374 17.4163 26.9509 17.4536 27.6864 25.158 27.6864 25.158 26.1422 17.3728 26.1422 17.4102 26.8362 16.3744 26.8362 16.3744 26.8227 16.337 26.1422 15.9381 26.1422 16.0702 27.6864 16.4178 27.6864"/><polygon points="16.516 29.4735 16.4786 28.8364 17.5145 28.9068 17.5145 28.9203 17.5518 29.4735 25.158 29.4735 25.158 27.9852 17.471 27.9852 17.5093 28.7352 16.4726 28.7 16.4726 28.6865 16.4352 27.9852 16.0372 27.9852 16.1684 29.4735 16.516 29.4735"/><polygon points="16.7133 33.2145 16.6759 32.4655 17.7117 32.4655 17.7117 32.479 17.7491 33.2145 25.158 33.2145 25.158 31.6153 17.6683 31.6153 17.7056 32.3232 16.6698 32.3643 16.6698 32.3508 16.6325 31.6153 16.2335 31.6153 16.3657 33.2145 16.7133 33.2145"/><polygon points="16.3196 25.7874 16.2814 25.2415 17.3172 25.2901 17.3554 25.7874 25.158 25.7874 25.158 24.4111 17.2738 24.4111 17.312 25.1611 16.2762 25.1611 16.2762 25.1476 16.2377 24.4877 15.8007 24.4968 15.9712 25.7874 16.3196 25.7874"/><polygon points="18.9943 22.2285 18.1419 22.884 18.1419 23.3037 19.0259 23.3353 18.9943 22.2285"/><polygon points="24.1344 18.6062 23.2819 19.3087 23.2819 19.7787 24.1344 19.7318 24.1344 18.6062"/><polygon points="26.6214 16.8799 25.7689 17.5354 25.7689 18.2256 26.6214 18.1773 26.6214 16.8799"/><polygon points="16.1093 24.284 15.9706 24.3316 16.2243 24.3316 16.2232 24.284 16.1093 24.284"/><polygon points="17.0878 23.5685 16.3109 24.1643 16.3688 25.0763 17.2373 25.045 17.1417 23.5294 17.0878 23.5685"/><polygon points="39.9967 30.6938 39.9158 32.238 40.7692 32.238 40.85 30.6938 39.9967 30.6938"/><polygon points="40.1357 28.9533 40.018 30.3844 40.8713 30.3844 40.9494 28.8907 40.1357 28.9533"/><polygon points="40.1939 27.0637 40.1131 28.6079 40.9664 28.6079 41.0473 27.0637 40.1939 27.0637"/><polygon points="39.8985 32.5928 39.8176 34.0801 40.671 34.0801 40.7518 32.5928 39.8985 32.5928"/><polygon points="40.2921 25.4557 40.2113 26.7089 41.0646 26.7089 41.1455 25.3853 40.2921 25.4557"/><polygon points="39.7012 36.3983 39.6204 37.878 40.4737 37.878 40.5545 36.3338 39.7012 36.3983"/><polygon points="39.8003 34.4348 39.7186 36.035 40.5719 35.968 40.6536 34.4348 39.8003 34.4348"/><polygon points="17.6364 32.2337 17.5268 30.6356 16.6703 30.6664 16.717 32.2709 17.6364 32.2337"/><polygon points="17.5257 30.3605 17.4293 29.0042 16.576 28.9337 16.6724 30.3605 17.5257 30.3605"/><polygon points="17.4119 28.6442 17.3156 27.0637 16.4769 27.1302 16.5586 28.609 17.4119 28.6442"/><polygon points="17.7074 34.0801 17.6364 32.5447 16.7483 32.5604 16.8304 34.1057 17.7074 34.0801"/><polygon points="17.3137 26.7402 17.232 25.387 16.3787 25.3384 16.4604 26.7402 17.3137 26.7402"/><polygon points="16.9696 36.3338 17.0521 37.9136 17.9102 37.883 17.823 36.3338 16.9696 36.3338"/><polygon points="16.8383 34.3952 16.9595 36.0658 17.8085 36.0201 17.7303 34.3874 16.8383 34.3952"/></svg>