<?xml version="1.0" encoding="UTF-8"?><svg id="a" xmlns="http://www.w3.org/2000/svg" width="20.2847mm" height="20.2847mm" viewBox="0 0 57.4999 57.4999"><defs><style>.cls-1{fill:none;}.cls-2{fill:#231f20;}.cls-3{fill:#151514;}</style></defs><path d="M28.281,15.2044c1.4063-.2147-1.8514,.942-2.8521,.565-1.6664-.6278-.5969,2.1328-.9204,2.1183-2.6946-.1206-1.554,2.4211-2.5183,2.1603-.9926-.5428-1.1439,.1786-1.5605,.5344-.3891,.3323-.7263,.3175-.7279,.5232-.012,1.5071,.0025,2.3904-.0118,3.8975-.0046,.4898,.1129,.7132,.5129,.7017,.8547-.0245,1.7103-.0222,2.5651-.0005,.3776,.0096,.5609-.153,.5332-.6729-.0192-.3611-.0037-.7254-.003-1.0882,.001-.5947-.1356-1.2996,.6361-1.2428,.0826,.0061,.177-.215,.2627-.3346,.8007-1.1169,1.8006-1.1075,2.6161,.0263,.0723,.1005,.1421,.2942,.2124,.2937,.923-.0065,.6684,.8764,.6899,1.5395,.0143,.4421,.0027,.8857,.0027,1.4005h3.2313c0-.4957-.0075-.9604,.0016-1.4244,.0191-.974,.4883-1.6346,1.1611-1.6497,.6998-.0157,1.1885,.6548,1.2103,1.6749,.0095,.444,.0016,.8886,.0016,1.4634,.9309,0,1.8226,.0278,2.7107-.0327,.1207-.0082,.3153-.4552,.3202-.7042,.0301-1.5342,.0318-3.0702,.0081-4.6047-.0095-.6167,.1471-.8476,.6284-.8148,.6609,.0451,1.325,.0099,1.9877,.0114q.8121,.0018,.7815,1.0655c-.004,.1352-.0234,.2697-.0436,.4926h-2.1275c0,1.4476-.0207,2.8077,.0281,4.1635,.0056,.1563,.3951,.298,.6127,.4292,.1422,.0858,.2954,.1404,.4436,.209-.056,.1605-.1099,.3222-.1687,.4809-.0446,.1204-.1363,.2366-.1371,.3553-.0094,1.5283-.0062,3.0568-.0062,4.634h2.7083v-4.473l-.5973-.1687v-.9805h2.162v.9954l-.6488,.1335v5.3288h.8522l.0776-.712,.1809-.13c.1174,.225,.352,.4706,.3313,.6712-.0796,.7694,.3279,1.7174-.4453,2.4898l-.1559-1.1245h-.8161l-.1276,.9025h-4.2848c1.1179,1.6477,1.1502,2.0359-.0271,3.6622,1.7323,0,2.0884-.0161,3.7034,.0145,.2975,.0056-.1163,.2003,.1801,.3077-.3016,.0964,.1061,.2766-.1956,.2771-9.1069,.0149-15.273,.0144-24.3799,.0011-.2638-.0004,.2009-.165-.0627-.253,.2653-.1158-.1989-.3265,.0677-.3318,1.596-.0314,1.7112-.0156,3.3419-.0156-1.0928-2.0309-1.1042-1.6258-.0527-3.6043h-4.066l-.1517-.974h-.5804l-.5756,.9266c-.075-.374-.1725-.7435-.2178-1.1235-.0357-.2998-.0396-.6204,.0023-.9174,.0405-.2868,.1578-.5551,.2413-.8315l.5458,.7711h.6503v-6.4676l1.4006-.1015c0-1.4723,.069-3.3459-.018-4.7511-.0319-.5145,.5581-.0916,.6542-.4395,.2105-.7627,.1477-2.0596,.7886-2.671,.2268-.2164,1.1391-.0983,1.2881-.4329,.2128-.4777,.314-1.1028,.612-1.4412,.8425-.9569,2.0594,.6864,2.5508-.6238,.3846-1.0254,3.7494,.1046,4.9831-.0837Zm6.4719,22.761c-.4978-.7257-.6652-1.0361-.6382-1.8976,.0601-.988,.4961-1.3602,.6515-1.7514h-1.9407c.3414,.5377,.798,.9716,.7808,1.7723-.0172,.8-.4395,1.2556-.854,1.8766h2.0006Zm-9.4245-.0011c-1.2871-1.6129-1.227-2.0157-.0984-3.601h-2.2496c1.2637,2.1747,.8867,2.0849-.0761,3.601h2.4241Zm4.6997-.0103c-1.2026-1.6056-1.1858-2.005-.0544-3.5734h-2.1326c1.2258,1.6217,1.1335,2.0122-.0103,3.5734h2.1972Z"/><g><path class="cls-2" d="M8.5084,13.0014l1.7168,1.4912,1.8389-2.1172-1.7168-1.4912,.6846-.7891,4.0791,3.543-.6846,.7891-1.7227-1.4971-1.8389,2.1172,1.7227,1.4961-.6846,.7891-4.0791-3.543,.6846-.7881Z"/><path class="cls-2" d="M14.8932,5.9994c.0664,.1143,.083,.2412,.0498,.3838-.0332,.1416-.1123,.25-.2363,.3223-.1182,.0693-.248,.0879-.3896,.0547-.1426-.0332-.249-.1113-.3213-.2334-.0703-.1201-.0859-.251-.0469-.3926,.04-.1406,.1191-.2461,.2363-.3154,.1201-.0703,.251-.0869,.3916-.0508,.1416,.0371,.2471,.1143,.3164,.2314Zm1.3096,.4062l4.7939,3.4492-.9502,.5586-1.1494-.8496-2.0703,1.2168,.2158,1.3984-.9443,.5537-.8154-5.7871,.9199-.54Zm.334-1.3721c.0703,.1201,.0879,.25,.0518,.3896s-.1143,.2441-.2344,.3145c-.1182,.0693-.2471,.0879-.3857,.0547-.1396-.0342-.2451-.1123-.3184-.2373-.0703-.1201-.0879-.25-.0518-.3887,.0361-.1396,.1143-.2451,.2344-.3154,.1152-.0674,.2451-.084,.3867-.0479,.1426,.0361,.248,.1133,.3174,.2305Zm.1611,4.9023l1.5039-.8838-1.8701-1.3809,.3662,2.2646Z"/><path class="cls-2" d="M21.9859,4.0238l1.1152,4.4492,2.543-.6367,.1992,.791-3.5566,.8916-1.3135-5.2412,1.0127-.2539Z"/><path class="cls-2" d="M28.315,3.1176l-.0576,4.5859,2.6221,.0332-.0107,.8164-3.666-.0469,.0684-5.4023,1.0439,.0137Z"/><path class="cls-2" d="M34.6432,3.7523l1.9688,4.5439,1.1016-3.6064,.9766,.2988-1.5781,5.167-.8584-.2617-1.9688-4.6094-1.1201,3.665-.9766-.2979,1.5791-5.167,.876,.2676Z"/><path class="cls-2" d="M44.1842,8.2992l-1.2568,5.7715-.8906-.6494,.3223-1.3926-1.9404-1.416-1.1973,.7549-.8838-.6445,4.9834-3.0527,.8633,.6289Zm-3.042,1.8604l1.4092,1.0273,.5225-2.2656-1.9316,1.2383Zm2.8916-3.2236c-.0771,.1064-.1875,.1729-.3311,.1982-.1436,.0264-.2734-.0029-.3906-.0879-.1104-.0811-.1787-.1924-.2051-.3359-.0254-.1436,.0029-.2725,.0869-.3877,.082-.1123,.1953-.1787,.3408-.1982,.1455-.0205,.2734,.0098,.3838,.0908,.1123,.082,.1797,.1953,.2021,.3389,.0225,.1445-.0059,.2715-.0869,.3818Zm1.541,1.124c-.082,.1123-.1943,.1797-.3369,.2021-.1426,.0215-.2695-.0078-.3818-.0898-.1104-.0811-.1787-.1914-.2031-.332-.0244-.1416,.0049-.2705,.0908-.3867,.082-.1123,.1934-.1797,.3359-.2021s.2695,.0078,.3828,.0898c.1074,.0791,.1738,.1904,.1973,.3359,.0234,.1445-.0049,.2725-.085,.3828Z"/><path class="cls-2" d="M49.0289,12.9965c.3232,.415,.5312,.8955,.623,1.4414l-.7324,.5703c-.0771-.6484-.249-1.1436-.5146-1.4854-.1621-.208-.3281-.3389-.5-.3926-.1719-.0547-.3242-.0293-.458,.0752-.1611,.125-.2246,.3496-.1914,.6729,.0068,.0928,.0762,.417,.207,.9717,.1074,.4775,.1211,.873,.04,1.1836-.0811,.3115-.2627,.5781-.5459,.7979-.3652,.2852-.7637,.3838-1.1934,.2949-.4307-.0879-.8086-.3418-1.1348-.7607-.2119-.2725-.3652-.5303-.458-.7734s-.1611-.5439-.2051-.9014l.8125-.6328c-.0244,.751,.1211,1.3271,.4346,1.7305,.1572,.2012,.3281,.3291,.5117,.3857,.1846,.0557,.3486,.0273,.4932-.085,.1973-.1533,.2734-.3867,.2295-.6992-.041-.2549-.1045-.5771-.1885-.9658-.1084-.4541-.126-.8438-.0518-1.168s.2461-.5908,.5146-.7998c.3574-.2793,.7471-.3682,1.167-.2666,.4199,.1006,.8008,.3691,1.1406,.8066Z"/></g><path class="cls-1" d="M24.2055,49.5559c-.2125-.0432-.4248-.0864-.6371-.1296-.1006,.4912-.2012,.9824-.3018,1.4736,.2173,.0445,.4345,.0889,.6517,.1334,.0933,.0192,.1814,.0288,.264,.0288,.1547,0,.2908-.0336,.4079-.1003,.1809-.1025,.2939-.2698,.3424-.5028,.0492-.2427,.0106-.439-.1161-.5898-.1276-.1509-.3306-.2552-.611-.3133Z"/><path class="cls-1" d="M30.0456,51.2547c.1548-.1373,.2281-.3231,.2194-.5579-.0076-.2089-.0869-.3713-.2387-.4882-.1405-.1089-.3203-.1635-.537-.1635l-.049,.0009c-.2502,.009-.5003,.0181-.7504,.0271,.0174,.4755,.0348,.9509,.0523,1.4263,.2189-.0078,.4377-.0156,.6565-.0233,.2766-.0107,.4911-.0841,.6469-.2214Z"/><path class="cls-1" d="M37.2305,49.3652c-.2416-.2232-.5269-.3635-.8536-.4224-.1118-.0202-.2247-.0303-.339-.0303-.2199,0-.4444,.0374-.6734,.1124-.3481,.1132-.6373,.2911-.8664,.5328-.2281,.2416-.3731,.522-.4351,.8422-.0609,.3191-.0348,.6508,.0764,.994,.1112,.3403,.2891,.6218,.5318,.8431,.2437,.2224,.5269,.3625,.8518,.4216,.1121,.0207,.2256,.0309,.3405,.0309,.218,0,.441-.0372,.669-.1113,.5269-.1722,.9059-.4796,1.137-.9215,.232-.4409,.262-.9233,.0919-1.4455-.1112-.3403-.2882-.6226-.5309-.8461Z"/><path class="cls-1" d="M29.828,52.2782c-.0245,0-.0492,.0005-.0745,.0015-.3271,.0118-.6543,.0239-.9814,.0357,.0183,.509,.0366,1.0178,.0551,1.5267,.3004-.0109,.6008-.0219,.9012-.0328,.353-.0135,.6168-.089,.7928-.2282,.175-.1393,.2582-.3384,.2484-.5957-.0076-.2292-.1044-.407-.2881-.5336-.1683-.1151-.3862-.1736-.6536-.1736Z"/><polygon class="cls-1" points="7.5411 39.563 9.0928 37.8312 6.8033 37.9821 7.5411 39.563"/><path class="cls-1" d="M18.8629,43.411c.9451,.6387,1.952,1.1858,3.0026,1.6302,1.0685,.452,2.1821,.7976,3.3187,1.0301,1.1719,.2398,2.3682,.3592,3.5646,.3592s2.3928-.1194,3.5648-.3592c1.1365-.2325,2.2502-.5781,3.3188-1.0301,1.0506-.4444,2.0576-.9915,3.0027-1.6302,.9384-.6342,1.8158-1.3585,2.6168-2.1594,.8008-.8008,1.5253-1.6781,2.1594-2.6165,.6387-.9451,1.1859-1.952,1.6303-3.0025,.4521-1.0685,.7977-2.1821,1.0303-3.3187,.2397-1.1719,.359-2.3684,.359-3.5646s-.1193-2.3928-.359-3.5647c-.2326-1.1367-.5782-2.2502-1.0303-3.3187-.4445-1.0506-.9916-2.0577-1.6303-3.0027-.6342-.9384-1.3586-1.8158-2.1594-2.6166-.801-.8009-1.6785-1.5253-2.6169-2.1594-.945-.6386-1.952-1.1858-3.0026-1.6302-1.0685-.452-2.1823-.7977-3.3188-1.0302-1.1721-.2397-2.3684-.3592-3.5648-.3592s-2.3928,.1194-3.5646,.3592c-1.1367,.2325-2.2502,.5781-3.3187,1.0302-1.0505,.4444-2.0575,.9916-3.0026,1.6302-.9383,.6342-1.8156,1.3585-2.6165,2.1594s-1.5251,1.6782-2.1593,2.6166c-.6386,.945-1.1857,1.9521-1.6301,3.0026-.452,1.0686-.7977,2.1822-1.0302,3.3188-.2397,1.1719-.3592,2.3682-.3592,3.5647s.1194,2.3928,.3592,3.5646c.2325,1.1367,.5781,2.2502,1.0302,3.3187,.4443,1.0505,.9915,2.0574,1.6301,3.0026,.6342,.9383,1.3585,1.8156,2.1593,2.6165,.8009,.8008,1.6782,1.5251,2.6165,2.1592Z"/><path class="cls-1" d="M28.7494,56.5336c15.3203,0,27.7845-12.4641,27.7845-27.7849S44.0697,.9642,28.7494,.9642,.964,13.4284,.964,28.7487s12.4651,27.7849,27.7854,27.7849Zm-15.6429-7.1402l-.819-.6478,2.8447-3.5978-1.5046-1.1903,.5057-.6402,3.8289,3.0275-.5067,.6401-1.5045-1.1903-2.8447,3.5989Zm7.5969,.6855l-.3452,.7397-2.1233-.9911-.6498,1.3913,2.2673,1.0588-.345,.7386-3.2141-1.4996,2.2857-4.8964,3.1648,1.4775-.3454,.7397-2.218-1.0356-.6004,1.286,2.1233,.991Zm5.2899,.5773c-.0619,.3007-.1925,.5472-.3935,.7387-.2012,.1923-.468,.321-.8006,.3877,.1508,.1248,.2756,.2794,.3752,.4631,.0995,.1837,.2088,.4806,.3268,.8916,.1924,.7086,.3413,1.1987,.4487,1.4735-.3803-.0777-.7606-.1554-1.1409-.2332-.0543-.1323-.1219-.3392-.2042-.6215-.1778-.6237-.3141-1.0472-.4108-1.2706-.0967-.2242-.1993-.3896-.3085-.4979-.1102-.1074-.2465-.179-.411-.2118l-.3712-.0764-.4574,2.2355c-.341-.0696-.682-.1393-1.0229-.2089,.3609-1.7646,.7219-3.5292,1.0829-5.2937,.6353,.1299,1.2705,.2597,1.9058,.3896,.4979,.1025,.8751,.3229,1.1322,.6623,.2563,.3394,.3404,.7301,.2495,1.172Zm5.6535,3.1888c-.1441,.2418-.3501,.4264-.6179,.5549-.2679,.1286-.5859,.1992-.9543,.2128-.7535,.0277-1.5071,.0555-2.2606,.0831-.0659-1.8-.1316-3.6001-.1973-5.4001,.6597-.0239,1.3195-.0477,1.9794-.0716,.0341-.0013,.0679-.002,.1011-.002,.449,0,.8232,.1147,1.1219,.3442,.3221,.2457,.4893,.5627,.5038,.9486,.0087,.2475-.0483,.4678-.1722,.6603-.1227,.1934-.3063,.349-.5491,.4689l.001,.0464c.38,.0716,.6787,.2292,.8983,.4728,.2184,.2438,.3344,.5338,.347,.8712,.0106,.2987-.0561,.5696-.201,.8104Zm7.2034-2.5101c-.1122,.4913-.3461,.9206-.703,1.2869-.3557,.3676-.8034,.6391-1.343,.815-.3519,.1154-.6994,.1729-1.0422,.1729-.175,0-.3487-.015-.5214-.0451-.5095-.0881-.9524-.2939-1.3266-.6179-.3741-.325-.6411-.7301-.8005-1.2183-.1528-.4708-.1761-.9524-.0687-1.4456,.1073-.494,.3364-.9244,.6884-1.2927,.3519-.3684,.8044-.6431,1.3585-.8237,.3636-.1191,.7191-.1783,1.0664-.1783,.1607,0,.3195,.0127,.4767,.038,.4971,.0803,.9389,.2863,1.3266,.6169,.3869,.3306,.6614,.7426,.822,1.2347,.1566,.4806,.1789,.9659,.0667,1.4571Zm3.9488-.8257l-2.5671-3.8008-1.5897,1.0743-.4573-.6769,4.0444-2.7315,.4575,.6758-1.5896,1.0742,2.5671,3.801-.8654,.5839Zm5.082-4.3027l-3.4489-3.0244-1.2646,1.4426-.6141-.5377,3.2178-3.6703,.6131,.5376-1.2637,1.4426,3.4489,3.0243-.6885,.7852Zm2.8659-21.8871c.1701-.2379,.4022-.3829,.6971-.4323,.0667-.0115,.1321-.0172,.196-.0172,.2161,0,.4166,.0654,.6016,.1953,.2389,.1682,.3839,.4011,.4341,.699,.0493,.2891-.0096,.5549-.1779,.7948-.1683,.2407-.4003,.3859-.6952,.436-.0655,.0111-.1298,.0166-.1927,.0166-.2161,0-.4178-.0654-.605-.1965-.2416-.1692-.3877-.4003-.4369-.6921-.0513-.2978,.0087-.5658,.1788-.8036Zm-2.3756,10.5774l4.3868-2.2964-3.6771-.8348,.2263-.9958,5.2686,1.1949-.1982,.8755-4.4516,2.3023,3.737,.8469-.2253,.9959-5.2695-1.1942,.2031-.8943Zm.0609,2.2267l-1.1487,2.162,1.2531,.6662,1.1003-2.0702,.7203,.3839-1.1003,2.0692,1.3556,.7203,1.1747-2.2093,.7204,.3829-1.6639,3.1318-4.7707-2.5362,1.6389-3.0834,.7203,.3828ZM28.7489,10.5062c10.0751,0,18.2434,8.1678,18.2434,18.243s-8.1683,18.2424-18.2434,18.2424S10.5065,38.8243,10.5065,28.7492,18.6738,10.5062,28.7489,10.5062ZM11.9577,37.989c-.0492,.1382-.1352,.2368-.259,.2938-.069,.0322-.1392,.0483-.2106,.0483-.0597,0-.1204-.0112-.1821-.0337-.1354-.0494-.2321-.1364-.291-.2631-.0582-.1238-.0639-.2532-.0175-.3887,.0464-.1353,.1345-.2339,.2658-.2949,.0685-.0321,.1384-.0482,.2098-.0482,.0597,0,.1202,.0112,.1819,.0338,.1354,.0493,.2331,.1373,.292,.2629,.0562,.1218,.06,.2513,.0106,.3898Zm-1.7684-2.079c.0464-.1382,.1334-.2368,.2621-.2968,.0671-.0312,.1357-.0471,.2056-.0471,.0619,0,.1249,.0124,.1889,.0374,.1373,.0523,.2349,.1412,.293,.265,.0589,.1257,.0627,.2573,.0135,.3945-.0502,.1374-.1373,.2349-.261,.2919-.0651,.0308-.1331,.0462-.2039,.0462-.0587,0-.1194-.0105-.1819-.0315-.1382-.0464-.2379-.1355-.2987-.2659-.058-.1238-.0638-.2554-.0175-.3936Zm-4.9117-11.9629c.1837-.131,.3842-.1965,.6011-.1965,.065,0,.1315,.0059,.1995,.0176,.29,.0502,.5202,.1964,.6913,.436,.1721,.2408,.2321,.5068,.1818,.7996-.0523,.297-.1984,.529-.4381,.6973-.1835,.128-.3829,.1921-.5987,.1921-.066,0-.1337-.006-.2029-.018-.2919-.0503-.522-.1953-.6912-.4341-.1693-.2387-.2283-.5067-.1769-.8035,.0501-.29,.1953-.5201,.4341-.6904Zm-2.0402,9.6472l4.9002-3.4649,.2108,1.082-3.1135,2.1635,3.6898,.7978,.2098,1.0742-5.8285-1.2957-.0687-.3568Zm2.775,7.6772l.9543-1.0646-1.0162-2.1765-1.4126,.0831-.4632-.992,5.8381-.2669,.4515,.967-3.8859,4.4478-.4661-.9979Zm2.5072,3.7554c-.2177-.2688-.3742-.524-.471-.7657-.0966-.2417-.17-.5405-.2194-.8983,.2672-.2149,.5344-.4299,.8016-.6449-.0116,.7502,.1431,1.3246,.4631,1.722,.1604,.1991,.3326,.3248,.5183,.3781,.058,.0164,.1139,.0247,.1677,.0247,.1176,0,.2253-.0392,.3235-.1176,.1943-.1575,.2678-.3916,.2185-.703-.0454-.2542-.1141-.5752-.204-.963-.116-.4525-.1402-.8412-.0706-1.1671,.0687-.3248,.236-.5946,.5009-.8083,.2651-.2134,.5497-.3206,.8538-.3206,.1008,0,.2036,.0118,.3086,.0353,.4214,.0939,.8064,.3569,1.1544,.7881,.3297,.4099,.5453,.8875,.6458,1.4319-.2411,.1941-.4821,.388-.723,.5821-.0872-.6478-.267-1.14-.5386-1.4775-.1653-.2049-.3336-.3334-.5067-.3847-.0562-.0167-.1101-.0251-.1619-.0251-.1071,0-.2052,.0359-.2946,.1082-.1594,.1276-.2194,.353-.1808,.6758,.0088,.0929,.0833,.4149,.2234,.968,.115,.4756,.1353,.8712,.0588,1.1835-.0753,.3123-.2533,.5811-.5327,.8064-.2818,.2274-.5853,.3408-.9108,.3408-.0911,0-.184-.0089-.2785-.0267-.4312-.0811-.813-.3286-1.1457-.7426Z"/><path d="M5.7116,25.8751c.0692,.012,.1368,.018,.2029,.018,.2158,0,.4152-.0641,.5987-.1921,.2397-.1683,.3858-.4003,.4381-.6973,.0502-.2928-.0098-.5588-.1818-.7996-.1711-.2396-.4013-.3857-.6913-.436-.0679-.0118-.1345-.0176-.1995-.0176-.2169,0-.4174,.0656-.6011,.1965-.2388,.1702-.384,.4003-.4341,.6904-.0513,.2969,.0077,.5648,.1769,.8035,.1692,.2388,.3994,.3839,.6912,.4341Z"/><polygon points="8.9247 34.1726 5.2349 33.3748 8.3484 31.2114 8.1376 30.1294 3.2373 33.5943 3.306 33.9511 9.1345 35.2468 8.9247 34.1726"/><path d="M11.6552,37.3363c-.0617-.0225-.1223-.0338-.1819-.0338-.0714,0-.1412,.0161-.2098,.0482-.1313,.061-.2194,.1596-.2658,.2949-.0464,.1354-.0407,.2649,.0175,.3887,.0589,.1267,.1556,.2137,.291,.2631,.0617,.0225,.1224,.0337,.1821,.0337,.0714,0,.1416-.0161,.2106-.0483,.1238-.0569,.2098-.1556,.259-.2938,.0494-.1385,.0456-.268-.0106-.3898-.0589-.1256-.1566-.2137-.292-.2629Z"/><path d="M9.9128,36.8546l-5.8381,.2669,.4632,.992,1.4126-.0831,1.0162,2.1765-.9543,1.0646,.4661,.9979,3.8859-4.4478-.4515-.967Zm-2.3717,2.7084l-.7377-1.5809,2.2895-.1509-1.5518,1.7318Z"/><path d="M10.5055,36.5695c.0626,.021,.1233,.0315,.1819,.0315,.0709,0,.1388-.0154,.2039-.0462,.1238-.057,.2108-.1545,.261-.2919,.0492-.1373,.0454-.2688-.0135-.3945-.058-.1238-.1557-.2126-.293-.265-.064-.025-.127-.0374-.1889-.0374-.0699,0-.1385,.0159-.2056,.0471-.1287,.06-.2156,.1586-.2621,.2968-.0464,.1382-.0405,.2698,.0175,.3936,.0609,.1304,.1605,.2195,.2987,.2659Z"/><path d="M9.9438,45.7961c.3255,0,.629-.1135,.9108-.3408,.2794-.2253,.4573-.4941,.5327-.8064,.0764-.3123,.0562-.7078-.0588-1.1835-.1402-.5531-.2147-.8751-.2234-.968-.0386-.3229,.0214-.5482,.1808-.6758,.0894-.0723,.1875-.1082,.2946-.1082,.0518,0,.1058,.0084,.1619,.0251,.173,.0513,.3413,.1798,.5067,.3847,.2717,.3375,.4515,.8297,.5386,1.4775,.241-.1941,.4819-.388,.723-.5821-.1005-.5444-.316-1.022-.6458-1.4319-.348-.4313-.733-.6943-1.1544-.7881-.105-.0236-.2078-.0353-.3086-.0353-.304,0-.5887,.1072-.8538,.3206-.2649,.2137-.4321,.4835-.5009,.8083-.0696,.3259-.0453,.7146,.0706,1.1671,.09,.3878,.1586,.7088,.204,.963,.0493,.3114-.0242,.5455-.2185,.703-.0981,.0783-.2059,.1176-.3235,.1176-.0538,0-.1097-.0082-.1677-.0247-.1857-.0533-.3579-.179-.5183-.3781-.3201-.3974-.4747-.9718-.4631-1.722-.2672,.215-.5344,.43-.8016,.6449,.0494,.3578,.1228,.6566,.2194,.8983,.0968,.2417,.2534,.4969,.471,.7657,.3326,.4139,.7145,.6614,1.1457,.7426,.0945,.0178,.1874,.0267,.2785,.0267Z"/><polygon points="17.9623 46.3448 14.1333 43.3173 13.6276 43.9575 15.1322 45.1478 12.2875 48.7456 13.1065 49.3934 15.9511 45.7946 17.4556 46.9849 17.9623 46.3448"/><polygon points="21.3985 48.8375 21.7439 48.0978 18.5791 46.6203 16.2934 51.5167 19.5074 53.0162 19.8524 52.2777 17.5851 51.2189 18.2349 49.8276 20.3582 50.8187 20.7034 50.0789 18.5801 49.0879 19.1805 47.8019 21.3985 48.8375"/><path d="M24.6116,48.8219c-.6353-.1299-1.2705-.2597-1.9058-.3896-.361,1.7645-.722,3.5291-1.0829,5.2937,.3409,.0696,.6819,.1393,1.0229,.2089l.4574-2.2355,.3712,.0764c.1645,.0328,.3008,.1044,.411,.2118,.1093,.1083,.2118,.2736,.3085,.4979,.0967,.2234,.233,.6469,.4108,1.2706,.0823,.2823,.15,.4892,.2042,.6215,.3802,.0778,.7606,.1555,1.1409,.2332-.1074-.2748-.2562-.7649-.4487-1.4735-.118-.411-.2272-.7079-.3268-.8916-.0996-.1838-.2244-.3384-.3752-.4631,.3326-.0667,.5994-.1954,.8006-.3877,.201-.1915,.3316-.438,.3935-.7387,.0909-.4419,.0068-.8326-.2495-1.172-.2571-.3394-.6343-.5598-1.1322-.6623Zm.3211,1.637c-.0485,.233-.1615,.4003-.3424,.5028-.1171,.0667-.2532,.1003-.4079,.1003-.0826,0-.1708-.0096-.264-.0288-.2172-.0445-.4344-.0889-.6517-.1334,.1005-.4912,.2011-.9824,.3018-1.4736,.2123,.0432,.4247,.0864,.6371,.1296,.2804,.0581,.4834,.1624,.611,.3133,.1268,.1508,.1653,.347,.1161,.5898Z"/><path d="M30.6025,51.6907l-.001-.0464c.2428-.1199,.4265-.2755,.5491-.4689,.1239-.1925,.1808-.4128,.1722-.6603-.0145-.3859-.1816-.7029-.5038-.9486-.2987-.2295-.6729-.3442-1.1219-.3442-.0333,0-.067,.0007-.1011,.002-.6599,.0239-1.3196,.0477-1.9794,.0716,.0657,1.8,.1315,3.6001,.1973,5.4001,.7535-.0276,1.5071-.0554,2.2606-.0831,.3684-.0135,.6865-.0842,.9543-.2128,.2678-.1285,.4738-.3132,.6179-.5549,.145-.2407,.2117-.5117,.201-.8104-.0126-.3373-.1286-.6274-.347-.8712-.2196-.2436-.5183-.4012-.8983-.4728Zm-1.9126-1.6177c.2501-.009,.5002-.0181,.7504-.0271l.049-.0009c.2167,0,.3965,.0546,.537,.1635,.1518,.1169,.2311,.2794,.2387,.4882,.0088,.2349-.0646,.4206-.2194,.5579-.1557,.1373-.3703,.2107-.6469,.2214-.2188,.0076-.4376,.0155-.6565,.0233-.0175-.4755-.0349-.9508-.0523-1.4263Zm1.8314,3.508c-.176,.1392-.4399,.2147-.7928,.2282-.3004,.011-.6008,.0219-.9012,.0328-.0184-.5089-.0367-1.0178-.0551-1.5267,.3271-.0118,.6542-.0239,.9814-.0357,.0253-.001,.05-.0015,.0745-.0015,.2673,0,.4852,.0585,.6536,.1736,.1837,.1266,.2805,.3044,.2881,.5336,.0098,.2573-.0734,.4564-.2484,.5957Z"/><path d="M37.9615,48.6431c-.3877-.3307-.8295-.5366-1.3266-.6169-.1572-.0253-.316-.038-.4767-.038-.3474,0-.7028,.0593-1.0664,.1783-.554,.1807-1.0065,.4553-1.3585,.8237-.352,.3683-.5811,.7986-.6884,1.2927-.1075,.4932-.0842,.9747,.0687,1.4456,.1594,.4882,.4264,.8934,.8005,1.2183,.3742,.3239,.8171,.5298,1.3266,.6179,.1727,.0301,.3464,.0451,.5214,.0451,.3428,0,.6902-.0576,1.0422-.1729,.5396-.1759,.9872-.4474,1.343-.815,.3569-.3663,.5908-.7957,.703-1.2869,.1122-.4912,.0899-.9765-.0667-1.4571-.1605-.4921-.4351-.9041-.822-1.2347Zm-.2919,3.0137c-.2311,.4419-.6101,.7493-1.137,.9215-.228,.074-.451,.1113-.669,.1113-.1149,0-.2284-.0103-.3405-.0309-.325-.0591-.6082-.1992-.8518-.4216-.2427-.2214-.4206-.5029-.5318-.8431-.1112-.3432-.1373-.6749-.0764-.994,.062-.3201,.207-.6005,.4351-.8422,.2291-.2418,.5183-.4196,.8664-.5328,.229-.0751,.4535-.1124,.6734-.1124,.1143,0,.2272,.0101,.339,.0303,.3267,.0589,.612,.1992,.8536,.4224,.2427,.2235,.4197,.5058,.5309,.8461,.1701,.5222,.1401,1.0046-.0919,1.4455Z"/><polygon points="42.6868 45.0501 42.2294 44.3743 38.1849 47.1058 38.6422 47.7827 40.2319 46.7084 42.7989 50.5092 43.6643 49.9252 41.0972 46.1243 42.6868 45.0501"/><polygon points="46.3842 40.9544 45.7711 40.4168 42.5533 44.0871 43.1674 44.6247 44.4321 43.1821 47.8809 46.2065 48.5694 45.4213 45.1205 42.397 46.3842 40.9544"/><polygon points="50.8436 42.3602 52.5075 39.2285 51.7871 38.8455 50.6124 41.0548 49.2568 40.3345 50.3571 38.2653 49.6368 37.8815 48.5365 39.9517 47.2834 39.2855 48.4321 37.1234 47.7118 36.7406 46.0729 39.824 50.8436 42.3602"/><polygon points="53.6629 35.9893 49.9259 35.1424 54.3775 32.8401 54.5757 31.9646 49.3071 30.7696 49.0809 31.7655 52.758 32.6003 48.3712 34.8967 48.1681 35.7911 53.4376 36.9852 53.6629 35.9893"/><path d="M51.61,26.0116c.063,0,.1273-.0055,.1927-.0166,.2949-.0502,.5269-.1953,.6952-.436,.1682-.2399,.2272-.5057,.1779-.7948-.0502-.2979-.1953-.5309-.4341-.699-.185-.1298-.3855-.1953-.6016-.1953-.064,0-.1293,.0057-.196,.0172-.2949,.0494-.527,.1943-.6971,.4323-.1701,.2378-.2301,.5058-.1788,.8036,.0492,.2919,.1953,.5229,.4369,.6921,.1873,.1311,.3889,.1965,.605,.1965Z"/><path d="M28.7489,46.9916c10.0751,0,18.2434-8.1673,18.2434-18.2424S38.824,10.5062,28.7489,10.5062,10.5065,18.6741,10.5065,28.7492s8.1674,18.2424,18.2424,18.2424Zm-16.2919-11.359c-.452-1.0685-.7977-2.1821-1.0302-3.3187-.2397-1.1719-.3592-2.3683-.3592-3.5646s.1194-2.3928,.3592-3.5647c.2325-1.1367,.5781-2.2502,1.0302-3.3188,.4443-1.0505,.9915-2.0576,1.6301-3.0026,.6342-.9384,1.3585-1.8159,2.1593-2.6166s1.6782-1.5253,2.6165-2.1594c.9451-.6386,1.9521-1.1858,3.0026-1.6302,1.0685-.4521,2.1821-.7977,3.3187-1.0302,1.1719-.2397,2.3683-.3592,3.5646-.3592s2.3927,.1194,3.5648,.3592c1.1365,.2325,2.2502,.5782,3.3188,1.0302,1.0506,.4444,2.0576,.9916,3.0026,1.6302,.9384,.6342,1.8159,1.3585,2.6169,2.1594,.8008,.8008,1.5253,1.6782,2.1594,2.6166,.6387,.945,1.1859,1.9521,1.6303,3.0027,.4521,1.0685,.7977,2.1821,1.0303,3.3187,.2397,1.1719,.359,2.3684,.359,3.5647s-.1193,2.3928-.359,3.5646c-.2326,1.1367-.5782,2.2502-1.0303,3.3187-.4445,1.0505-.9916,2.0574-1.6303,3.0025-.6342,.9384-1.3586,1.8157-2.1594,2.6165-.801,.8009-1.6783,1.5252-2.6168,2.1594-.9451,.6387-1.9521,1.1858-3.0027,1.6302-1.0685,.452-2.1823,.7976-3.3188,1.0301-1.172,.2398-2.3684,.3592-3.5648,.3592s-2.3928-.1194-3.5646-.3592c-1.1367-.2325-2.2502-.5781-3.3187-1.0301-1.0506-.4444-2.0575-.9915-3.0026-1.6302-.9383-.6342-1.8156-1.3585-2.6165-2.1592-.8008-.8009-1.5251-1.6782-2.1593-2.6165-.6386-.9452-1.1857-1.9521-1.6301-3.0026Z"/><path class="cls-3" d="M28.7494,57.0954c15.6298,0,28.3453-12.7165,28.3453-28.3467S44.3792,.4025,28.7494,.4025,.4032,13.1185,.4032,28.7487s12.7155,28.3467,28.3462,28.3467ZM28.7494,.9642c15.3203,0,27.7845,12.4642,27.7845,27.7845s-12.4642,27.7849-27.7845,27.7849S.964,44.0695,.964,28.7487,13.4291,.9642,28.7494,.9642Z"/></svg>