<?xml version="1.0" encoding="UTF-8"?><svg id="Lager_1" xmlns="http://www.w3.org/2000/svg" width="20.2847mm" height="20.2847mm" viewBox="0 0 57.5 57.5"><path d="M27.599,34.299c0-2.4,.6-3.5,2.3-5.5,1.3-1.6,3.1-3.3,3.1-5.8,0-2.6-2.2-3.7-4.5-3.7-2.4,0-4.3,.6-5.5,1.5l-.3-3.5c1.6-.7,3.7-1.2,6.2-1.2,4,0,8,2.3,8,6.8,0,3.9-3.1,5.9-5.1,8.9-.6,.9-.8,1.7-.8,2.7v.7h-3.4v-.9Z"/><rect x="27.299" y="37.299" width="4.2" height="4.2"/><g><path d="M11.7759,9.518l1.4121,1.7832,2.1982-1.7402-1.4121-1.7832,.8184-.6484,3.3545,4.2363-.8184,.6484-1.417-1.7891-2.1982,1.7402,1.416,1.7891-.8184,.6484-3.3535-4.2363,.8184-.6484Z"/><path d="M21.1783,4.1958l.2959,.7607-2.2803,.8896,.5156,1.3223,2.1836-.8516,.2969,.7598-2.1836,.8525,.5586,1.4297,2.3311-.9092,.2959,.7598-3.3037,1.29-1.9639-5.0342,3.2539-1.2695Z"/><path d="M25.4507,3.2749l1.8984,2.0225,1.6455-2.2324,.9307-.0547,.3203,5.3936-1.043,.0615-.2246-3.7871-.0303,.001-1.4473,1.9922-.1475,.0088-1.6719-1.8066-.0312,.002,.2246,3.7871-1.042,.0615-.3193-5.3936,.9375-.0557Z"/><path d="M34.4712,3.7622l-1.1182,4.4482,2.543,.6396-.1982,.791-3.5557-.8936,1.3154-5.2402,1.0137,.2549Z"/><path d="M40.1626,5.8022l-2.3125,4.8828-.9434-.4473,2.3125-4.8828,.9434,.4473Z"/><path d="M45.1763,9.0014c.5176,.418,.9385,.9473,1.2617,1.5898l-.5996,.7432c-.3008-.6699-.6982-1.2041-1.1914-1.6025-.3076-.248-.6299-.4072-.9668-.4775-.3379-.0703-.665-.043-.9824,.0801-.3164,.124-.5889,.3271-.8174,.6104-.3467,.4297-.4824,.8906-.4082,1.3828,.0752,.4922,.3457,.9277,.8135,1.3047,.1289,.1035,.2607,.1924,.3955,.2646s.3096,.1436,.5215,.2119l.5635-.6982-.6953-.5605,.5127-.6348,1.5078,1.2168-1.3984,1.7334c-.3232-.0225-.6631-.1104-1.0186-.2627s-.6895-.3555-1.0029-.6084c-.4434-.3574-.7715-.7734-.9844-1.2461-.2129-.4736-.2871-.9561-.2227-1.4473,.0635-.4922,.2588-.9404,.5859-1.3457,.332-.4121,.7344-.7021,1.207-.8701,.4717-.1689,.9648-.1992,1.4785-.0898,.5127,.1094,.9932,.3447,1.4404,.7061Z"/></g><path d="M51.6113,26.0128c.0629,0,.1273-.0055,.1927-.0167,.2949-.0501,.5269-.1953,.6952-.436,.1683-.2399,.2272-.5057,.1779-.7949-.0502-.2979-.1953-.5309-.4341-.699-.1849-.1298-.3855-.1953-.6016-.1953-.064,0-.1293,.0057-.196,.0172-.295,.0494-.5271,.1943-.6971,.4323-.1701,.2378-.2301,.5057-.1788,.8035,.0492,.2919,.1953,.523,.437,.6922,.1872,.131,.3889,.1965,.605,.1965Z"/><path d="M5.7129,25.8763c.0692,.012,.1368,.018,.2029,.018,.2157,0,.4152-.064,.5987-.192,.2397-.1683,.3858-.4003,.4381-.6973,.0502-.2928-.0098-.5588-.1818-.7996-.1711-.2397-.4013-.3857-.6913-.436-.068-.0118-.1345-.0176-.1995-.0176-.217,0-.4174,.0656-.6011,.1966-.2388,.1702-.384,.4003-.4341,.6904-.0513,.2968,.0078,.5648,.1769,.8035,.1693,.2388,.3994,.3839,.6913,.4341Z"/><polygon points="8.926 34.1738 5.2361 33.3761 8.3496 31.2126 8.1389 30.1306 3.2386 33.5955 3.3073 33.9522 9.1357 35.248 8.926 34.1738"/><path d="M11.6565,37.3374c-.0617-.0225-.1223-.0338-.182-.0338-.0713,0-.1412,.0162-.2097,.0483-.1314,.061-.2194,.1595-.2659,.2948-.0464,.1354-.0406,.265,.0175,.3887,.059,.1267,.1556,.2137,.291,.2631,.0617,.0225,.1224,.0336,.1821,.0336,.0714,0,.1416-.016,.2106-.0482,.1238-.057,.2098-.1556,.259-.2938,.0494-.1384,.0456-.2679-.0106-.3897-.059-.1257-.1567-.2137-.292-.263Z"/><path d="M9.9141,36.8559l-5.8381,.2668,.4632,.9921,1.4127-.0832,1.0161,2.1766-.9542,1.0645,.466,.9979,3.8859-4.4478-.4515-.9669Zm-2.3718,2.7083l-.7377-1.5809,2.2895-.1509-1.5518,1.7318Z"/><path d="M10.5068,36.5708c.0626,.0209,.1233,.0314,.1819,.0314,.0709,0,.1388-.0153,.204-.0461,.1237-.0571,.2108-.1545,.261-.2919,.0492-.1373,.0454-.2688-.0135-.3946-.058-.1237-.1556-.2126-.293-.2649-.064-.025-.127-.0374-.1888-.0374-.0699,0-.1385,.0158-.2056,.047-.1287,.06-.2156,.1586-.2621,.2969-.0464,.1382-.0406,.2698,.0175,.3936,.0609,.1305,.1605,.2195,.2987,.266Z"/><path d="M13.5118,43.0198c-.1005-.5444-.3161-1.0219-.6458-1.4318-.348-.4313-.7329-.6943-1.1544-.7881-.105-.0236-.2078-.0353-.3087-.0353-.304,0-.5886,.1071-.8537,.3206-.265,.2137-.4321,.4835-.5009,.8083-.0696,.3258-.0454,.7146,.0706,1.1671,.09,.3877,.1586,.7088,.2041,.963,.0493,.3114-.0242,.5455-.2185,.703-.0981,.0783-.2059,.1176-.3235,.1176-.0538,0-.1097-.0082-.1677-.0247-.1856-.0533-.3578-.179-.5182-.3781-.3201-.3973-.4747-.9717-.4631-1.722-.2672,.2149-.5345,.4299-.8016,.6449,.0494,.3577,.1228,.6565,.2194,.8983,.0968,.2416,.2534,.4969,.471,.7657,.3327,.414,.7145,.6614,1.1458,.7426,.0945,.0178,.1874,.0266,.2785,.0266,.3255,0,.629-.1135,.9108-.3408,.2794-.2253,.4573-.4941,.5326-.8064,.0765-.3123,.0562-.7078-.0588-1.1835-.1401-.553-.2147-.8751-.2234-.9679-.0386-.3229,.0213-.5483,.1808-.6759,.0893-.0723,.1874-.1082,.2946-.1082,.0518,0,.1058,.0085,.1619,.0252,.1731,.0513,.3413,.1798,.5067,.3847,.2717,.3375,.4515,.8297,.5386,1.4775,.241-.1941,.4819-.388,.7231-.5822Z"/><polygon points="17.9636 46.346 14.1346 43.3185 13.6289 43.9588 15.1335 45.1491 12.2888 48.7468 13.1078 49.3946 15.9524 45.7958 17.4569 46.9861 17.9636 46.346"/><polygon points="21.3998 48.8387 21.7451 48.099 18.5804 46.6215 16.2947 51.5179 19.5087 53.0175 19.8537 52.2789 17.5864 51.2201 18.2362 49.8288 20.3594 50.8199 20.7046 50.0802 18.5813 49.0891 19.1818 47.8031 21.3998 48.8387"/><path d="M24.6128,48.8231c-.6353-.1299-1.2705-.2598-1.9058-.3896-.361,1.7645-.722,3.5291-1.0829,5.2937,.3409,.0695,.6819,.1393,1.0229,.2089,.1525-.7452,.3049-1.4904,.4574-2.2354l.3712,.0763c.1645,.0329,.3008,.1044,.411,.2118,.1093,.1083,.2118,.2737,.3085,.4979,.0966,.2233,.233,.6469,.4108,1.2706,.0823,.2823,.1499,.4892,.2042,.6215,.3803,.0778,.7606,.1555,1.1409,.2332-.1073-.2748-.2562-.7649-.4486-1.4736-.118-.411-.2272-.7078-.3268-.8916-.0995-.1838-.2244-.3384-.3751-.4631,.3326-.0667,.5994-.1954,.8006-.3878,.201-.1915,.3315-.438,.3934-.7387,.0909-.4418,.0068-.8325-.2495-1.172-.2571-.3393-.6342-.5598-1.1321-.6622Zm.3211,1.637c-.0485,.233-.1616,.4002-.3424,.5027-.1171,.0667-.2532,.1003-.4079,.1003-.0827,0-.1708-.0096-.2641-.0288-.2172-.0445-.4344-.0889-.6517-.1334,.1005-.4911,.2011-.9824,.3017-1.4735,.2124,.0432,.4247,.0864,.6372,.1296,.2803,.058,.4834,.1624,.611,.3132,.1267,.1509,.1653,.347,.1161,.5898Z"/><path d="M30.6038,51.692l-.001-.0464c.2428-.1199,.4265-.2755,.5491-.4689,.1238-.1924,.1808-.4128,.1721-.6603-.0144-.3859-.1816-.7029-.5037-.9486-.2987-.2296-.673-.3443-1.1219-.3443-.0333,0-.067,.0007-.1012,.002-.6599,.0239-1.3196,.0477-1.9794,.0715,.0658,1.8,.1315,3.6002,.1974,5.4001,.7535-.0277,1.507-.0554,2.2606-.0832,.3683-.0135,.6864-.0842,.9543-.2128,.2678-.1285,.4738-.3131,.6178-.5549,.145-.2407,.2117-.5116,.201-.8103-.0126-.3374-.1286-.6274-.347-.8712-.2196-.2437-.5183-.4012-.8983-.4728Zm-1.9125-1.6177c.2501-.009,.5002-.0181,.7504-.0272l.049-.0009c.2167,0,.3965,.0546,.537,.1635,.1518,.1169,.2311,.2794,.2387,.4882,.0087,.2348-.0646,.4206-.2194,.5579-.1557,.1374-.3704,.2108-.6469,.2214-.2189,.0077-.4377,.0156-.6565,.0233-.0175-.4755-.0349-.9508-.0523-1.4263Zm1.8314,3.5079c-.1761,.1393-.4399,.2147-.7928,.2282l-.9012,.0329c-.0184-.5089-.0367-1.0178-.0551-1.5267,.3271-.0118,.6543-.0239,.9814-.0358,.0253-.001,.05-.0015,.0745-.0015,.2673,0,.4853,.0584,.6536,.1735,.1838,.1267,.2805,.3044,.2881,.5337,.0097,.2573-.0734,.4564-.2484,.5956Z"/><path d="M37.9628,48.6443c-.3877-.3307-.8295-.5366-1.3267-.6169-.1571-.0253-.316-.038-.4767-.038-.3474,0-.7028,.0593-1.0663,.1783-.554,.1807-1.0065,.4554-1.3585,.8237-.3521,.3683-.5811,.7986-.6885,1.2927-.1074,.4932-.0842,.9747,.0687,1.4456,.1594,.4882,.4263,.8933,.8005,1.2183,.3742,.3239,.817,.5298,1.3266,.6179,.1726,.0301,.3464,.0452,.5213,.0452,.3428,0,.6902-.0576,1.0422-.1729,.5395-.1759,.9872-.4475,1.343-.8151,.3568-.3663,.5908-.7956,.703-1.2869,.1121-.4911,.0899-.9765-.0668-1.457-.1605-.4922-.435-.9041-.8219-1.2347Zm-.2919,3.0138c-.2311,.4418-.6101,.7493-1.1371,.9215-.228,.074-.451,.1112-.6689,.1112-.1149,0-.2285-.0103-.3406-.0309-.3249-.0591-.6081-.1992-.8517-.4216-.2427-.2213-.4206-.5028-.5318-.8431-.1113-.3432-.1373-.6749-.0764-.994,.062-.3201,.207-.6005,.4351-.8422,.2292-.2417,.5183-.4196,.8664-.5328,.2291-.0751,.4535-.1125,.6734-.1125,.1143,0,.2272,.0101,.3391,.0303,.3267,.0589,.6119,.1992,.8536,.4225,.2427,.2234,.4197,.5057,.5309,.8461,.1701,.5222,.1401,1.0046-.0919,1.4456Z"/><polygon points="42.688 45.0514 42.2306 44.3755 38.1862 47.107 38.6435 47.7838 40.2331 46.7096 42.8002 50.5103 43.6656 49.9264 41.0985 46.1255 42.688 45.0514"/><polygon points="46.3855 40.9555 45.7724 40.4179 42.5546 44.0882 43.1686 44.6259 44.4333 43.1833 47.8821 46.2077 48.5707 45.4225 45.1218 42.3982 46.3855 40.9555"/><polygon points="50.6137 41.0561 49.2581 40.3358 50.3584 38.2666 49.6381 37.8827 48.5378 39.9529 47.2846 39.2867 48.4333 37.1247 47.713 36.7419 46.0742 39.8253 50.8448 42.3614 52.5088 39.2296 51.7884 38.8468 50.6137 41.0561"/><polygon points="48.3724 34.898 48.1693 35.7923 53.4388 36.9864 53.6642 35.9906 49.9272 35.1436 54.3788 32.8413 54.577 31.9658 49.3084 30.7708 49.0821 31.7666 52.7593 32.6015 48.3724 34.898"/><path d="M28.7502,46.9928c10.0751,0,18.2434-8.1674,18.2434-18.2424S38.8253,10.5074,28.7502,10.5074,10.5077,18.6753,10.5077,28.7504s8.1674,18.2424,18.2424,18.2424Zm-16.2919-11.3591c-.452-1.0685-.7976-2.1821-1.0301-3.3187-.2398-1.1719-.3592-2.3684-.3592-3.5647s.1194-2.3928,.3592-3.5647c.2325-1.1367,.5781-2.2502,1.0301-3.3188,.4443-1.0505,.9915-2.0576,1.6301-3.0026,.6342-.9385,1.3586-1.8159,2.1594-2.6167,.8008-.8009,1.6782-1.5252,2.6165-2.1594,.9451-.6387,1.9521-1.1859,3.0026-1.6302,1.0685-.4521,2.1821-.7978,3.3188-1.0302,1.1719-.2397,2.3683-.3593,3.5646-.3593s2.3927,.1195,3.5647,.3593c1.1366,.2324,2.2503,.5782,3.3188,1.0302,1.0505,.4443,2.0576,.9915,3.0026,1.6302,.9384,.6342,1.8159,1.3585,2.6168,2.1594,.8009,.8009,1.5253,1.6782,2.1594,2.6167,.6387,.945,1.1859,1.9521,1.6303,3.0027,.4521,1.0685,.7977,2.182,1.0303,3.3187,.2396,1.1719,.359,2.3684,.359,3.5647s-.1194,2.3928-.359,3.5647c-.2326,1.1366-.5782,2.2502-1.0303,3.3187-.4445,1.0505-.9916,2.0574-1.6303,3.0025-.6342,.9385-1.3585,1.8158-2.1594,2.6166-.801,.8009-1.6783,1.5252-2.6167,2.1593-.9451,.6387-1.9522,1.1859-3.0027,1.6302-1.0685,.452-2.1823,.7976-3.3188,1.0301-1.172,.2398-2.3684,.3593-3.5648,.3593s-2.3928-.1194-3.5646-.3593c-1.1367-.2325-2.2502-.5781-3.3188-1.0301-1.0506-.4443-2.0575-.9915-3.0026-1.6302-.9383-.6341-1.8157-1.3584-2.6165-2.1592-.8008-.8009-1.5252-1.6782-2.1594-2.6166-.6385-.9452-1.1857-1.9521-1.6301-3.0026Z"/><path d="M28.7495,.4025C13.1188,.4025,.4032,13.1185,.4032,28.7487s12.7156,28.3467,28.3463,28.3467,28.3452-12.7165,28.3452-28.3467S44.3792,.4025,28.7495,.4025Zm0,56.1312C13.4292,56.5337,.9641,44.0695,.9641,28.7487S13.4292,.9643,28.7495,.9643s27.7844,12.4641,27.7844,27.7844-12.4641,27.785-27.7844,27.785Z"/></svg>