<?xml version="1.0" encoding="UTF-8"?><svg id="a" xmlns="http://www.w3.org/2000/svg" width="20.2847mm" height="20.2847mm" viewBox="0 0 57.4999 57.4999"><path d="M7.4404,14.4779l1.8184,1.3662,1.6846-2.2412-1.8184-1.3662,.6279-.835,4.3184,3.2461-.627,.835-1.8242-1.3711-1.6846,2.2417,1.8242,1.3706-.6279,.835-4.3184-3.2461,.627-.835Z"/><path d="M12.9463,8.5833l3.2959,4.0186c.3672,.4468,.54,.9019,.5215,1.3662-.0195,.4644-.2266,.8584-.6211,1.1826-.0283,.0225-.0547,.0444-.0791,.0649-.0254,.0205-.0537,.04-.085,.0591l-.6279-.6504c.4785-.3926,.4883-.8687,.0283-1.4287l-3.2402-3.9502,.8076-.6621Z"/><path d="M17.665,4.2869c.1025,.208,.1182,.4224,.0459,.6436-.0723,.2207-.2158,.3843-.4316,.4902-.21,.1035-.4258,.1187-.6465,.0444-.2197-.0742-.3828-.2173-.4873-.4302-.1016-.2061-.1143-.4209-.0391-.6445,.0752-.2241,.2168-.3872,.4248-.4897,.2109-.1035,.4277-.1152,.6504-.0356,.2236,.0801,.3848,.2202,.4834,.4219Zm-.5566,.7866c.1162-.0566,.1934-.147,.2314-.271,.0381-.1235,.0312-.2388-.0215-.3452-.0537-.1084-.1426-.1841-.2666-.2261-.124-.0425-.2432-.0356-.3564,.02-.1045,.0513-.1777,.1387-.2207,.2617s-.0371,.2402,.0176,.3511c.0576,.1157,.1455,.1934,.2666,.2334,.1201,.04,.2363,.0322,.3496-.0239Zm.7754,.4634l4.5273,3.7935-.9883,.4868-1.084-.9321-2.1553,1.061,.1123,1.4102-.9814,.4834-.3877-5.8315,.957-.4712Zm.2344,3.5576l1.5645-.7705-1.7627-1.5156,.1982,2.2861Z"/><path d="M25.4219,3.2659c.6582-.0962,1.333-.0449,2.0244,.1538l.1377,.9453c-.6963-.2344-1.3584-.3062-1.9854-.2144-.3906,.0571-.7266,.1855-1.0068,.3853-.2812,.2002-.4844,.4585-.6084,.7749s-.1602,.6548-.1074,1.0146c.0791,.5459,.3252,.9585,.7373,1.2388,.4121,.2798,.916,.376,1.5098,.2896,.1631-.0239,.3174-.0605,.4629-.1108,.1455-.0498,.3154-.1294,.5107-.2388l-.1299-.8877-.8838,.1294-.1182-.8076,1.917-.2803,.3223,2.2046c-.2363,.2222-.5312,.4116-.8848,.5688s-.7295,.2646-1.127,.3228c-.5635,.0825-1.0918,.041-1.584-.1245-.4912-.165-.8965-.4385-1.2139-.8193s-.5137-.8291-.5889-1.3442c-.0762-.5234-.0156-1.0156,.1807-1.4766,.1973-.4614,.5107-.8433,.9395-1.1455s.9277-.4951,1.4961-.5781Z"/><path d="M33.8223,3.554c.6543,.1206,1.2764,.3862,1.8662,.7969l-.1729,.9395c-.584-.4458-1.1875-.7266-1.8115-.8418-.3877-.0718-.7471-.0576-1.0771,.041-.3301,.0991-.6055,.2783-.8252,.5381s-.3623,.5684-.4287,.9258c-.0996,.5425,0,1.0127,.3008,1.4102,.2998,.3975,.7451,.6509,1.3359,.7598,.1621,.0303,.3203,.0449,.4736,.0444s.3408-.021,.5605-.062l.1631-.8823-.8789-.1621,.1484-.8022,1.9053,.3516-.4043,2.1909c-.2949,.1343-.6357,.2188-1.0205,.2539-.3857,.0352-.7764,.0161-1.1719-.0571-.5596-.1035-1.0469-.3125-1.459-.627-.4121-.3149-.708-.7036-.8857-1.1665s-.2197-.9507-.125-1.4629c.0957-.5195,.3115-.9663,.6465-1.3394,.335-.3735,.7539-.6343,1.2568-.7827,.5039-.1484,1.0381-.1704,1.6035-.0659Z"/><path d="M40.4688,5.8846c.4688,.2397,.8594,.5879,1.1729,1.0439l-.4229,.8262c-.3438-.5557-.709-.9321-1.0947-1.1299-.2334-.1196-.4404-.168-.6182-.145-.1787,.0229-.3066,.1104-.3838,.2617-.0928,.1812-.0566,.4116,.1104,.6914,.0459,.0811,.2451,.3452,.5977,.7925,.2998,.3882,.4785,.7407,.5361,1.0571,.0586,.3164,.0059,.6343-.1572,.9531-.2119,.4131-.5312,.6704-.958,.772-.4277,.1011-.877,.0308-1.3496-.2114-.3076-.1577-.5547-.3267-.7422-.5078-.1865-.1812-.375-.4248-.5654-.7314l.4688-.9155c.2949,.6904,.6699,1.1519,1.124,1.3843,.2275,.1167,.4365,.1611,.627,.1343s.3271-.1221,.4111-.2847c.1143-.2227,.085-.4663-.0859-.731-.1465-.2139-.3389-.479-.5791-.7964-.29-.3657-.4707-.7114-.54-1.0366s-.0264-.6396,.1289-.9424c.207-.4038,.5215-.6489,.9453-.7349,.4229-.0854,.8818-.0024,1.375,.2505Z"/><path d="M44.9883,8.9324l-3.2168,4.083c-.3574,.4536-.7656,.7212-1.2227,.8018-.458,.0811-.8877-.0366-1.2881-.3525l-.0811-.0635c-.0254-.0195-.0498-.043-.0752-.0693l.5-.7534c.4854,.3833,.9531,.29,1.4014-.2793l3.1621-4.0127,.8203,.646Z"/><path d="M49.165,13.1746c.3398,.4448,.5527,.9155,.6406,1.4111s.0391,.9805-.1445,1.4551c-.1846,.4746-.4834,.8691-.8955,1.1831-.4014,.3066-.8525,.4878-1.3535,.5435s-.9824-.0239-1.4473-.2393c-.4639-.2153-.8672-.5483-1.2119-.9995-.3389-.4448-.5508-.9229-.6357-1.4336-.085-.5112-.0352-.9966,.1475-1.4565,.1816-.4604,.4775-.8462,.8857-1.1572,.3936-.2998,.8408-.4805,1.3418-.542,.502-.061,.9844,.0137,1.4482,.2241,.4629,.2109,.8721,.5479,1.2246,1.0112Zm-3.3604,.165c-.2852,.2173-.4922,.4771-.6221,.7798-.1289,.3027-.168,.6172-.1172,.9434,.0508,.3257,.1875,.6343,.4092,.9258,.3359,.4404,.751,.6978,1.2441,.7705s.958-.0571,1.3955-.3901c.2842-.2173,.4922-.4771,.624-.7793,.1309-.3027,.1699-.6177,.1172-.9458-.0518-.3281-.1895-.6377-.4111-.9292-.2217-.291-.4854-.5049-.7881-.6416-.3037-.1362-.6162-.1812-.9385-.1333s-.627,.1812-.9131,.3999Zm3.8584-1.0693c-.1045,.0796-.2295,.1118-.375,.0957-.1445-.0156-.2607-.0801-.3467-.1929s-.1191-.2412-.1006-.3848c.0186-.144,.083-.2578,.1934-.3423,.1064-.0815,.2324-.1128,.3789-.0938,.1455,.0186,.2607,.0845,.3467,.1973,.085,.1104,.1162,.2378,.0967,.3813-.0205,.1436-.085,.2563-.1934,.3394Zm1.1553,1.5161c-.1104,.0845-.2373,.1172-.3799,.0981-.1426-.0195-.2559-.0845-.3408-.1953-.0859-.1128-.1191-.2397-.0986-.3813,.0195-.1421,.085-.2549,.1963-.3394,.1045-.0796,.2295-.1118,.374-.0957,.1455,.0156,.2607,.0801,.3467,.1929,.0811,.1064,.1123,.2329,.0938,.3784s-.082,.2598-.1914,.3423Z"/><path d="M5.7116,25.8751c.0692,.012,.1368,.018,.2029,.018,.2158,0,.4152-.0641,.5987-.1921,.2397-.1683,.3858-.4003,.4381-.6973,.0502-.2928-.0098-.5588-.1818-.7996-.1711-.2396-.4013-.3857-.6913-.436-.0679-.0118-.1345-.0176-.1995-.0176-.2169,0-.4174,.0656-.6011,.1965-.2388,.1702-.384,.4003-.4341,.6904-.0513,.2969,.0077,.5648,.1769,.8035,.1692,.2388,.3994,.3839,.6912,.4341Z"/><polygon points="8.9247 34.1726 5.2349 33.3748 8.3484 31.2114 8.1376 30.1294 3.2373 33.5943 3.306 33.9511 9.1345 35.2468 8.9247 34.1726"/><path d="M11.6552,37.3363c-.0617-.0225-.1223-.0338-.1819-.0338-.0714,0-.1412,.0161-.2098,.0482-.1313,.061-.2194,.1596-.2658,.2949-.0464,.1354-.0407,.2649,.0175,.3887,.0589,.1267,.1556,.2137,.291,.2631,.0617,.0225,.1224,.0337,.1821,.0337,.0714,0,.1416-.0161,.2106-.0483,.1238-.0569,.2098-.1556,.259-.2938,.0494-.1385,.0456-.268-.0106-.3898-.0589-.1256-.1566-.2137-.292-.2629Z"/><path d="M9.9128,36.8546l-5.8381,.2669,.4632,.992,1.4126-.0831,1.0162,2.1765-.9543,1.0646,.4661,.9979,3.8859-4.4478-.4515-.967Zm-2.3717,2.7084l-.7377-1.5809,2.2895-.1509-1.5518,1.7318Z"/><path d="M10.5055,36.5695c.0626,.021,.1233,.0315,.1819,.0315,.0709,0,.1388-.0154,.2039-.0462,.1238-.057,.2108-.1545,.261-.2919,.0492-.1373,.0454-.2688-.0135-.3945-.058-.1238-.1557-.2126-.293-.265-.064-.025-.127-.0374-.1889-.0374-.0699,0-.1385,.0159-.2056,.0471-.1287,.06-.2156,.1586-.2621,.2968-.0464,.1382-.0405,.2698,.0175,.3936,.0609,.1304,.1605,.2195,.2987,.2659Z"/><path d="M9.9438,45.7961c.3255,0,.629-.1135,.9108-.3408,.2794-.2253,.4573-.4941,.5327-.8064,.0764-.3123,.0562-.7078-.0588-1.1835-.1402-.5531-.2147-.8751-.2234-.968-.0386-.3229,.0214-.5482,.1808-.6758,.0894-.0723,.1875-.1082,.2946-.1082,.0518,0,.1058,.0084,.1619,.0251,.173,.0513,.3413,.1798,.5067,.3847,.2717,.3375,.4515,.8297,.5386,1.4775,.241-.1941,.4819-.388,.723-.5821-.1005-.5444-.316-1.022-.6458-1.4319-.348-.4313-.733-.6943-1.1544-.7881-.105-.0236-.2078-.0353-.3086-.0353-.304,0-.5887,.1072-.8538,.3206-.2649,.2137-.4321,.4835-.5009,.8083-.0696,.3259-.0453,.7146,.0706,1.1671,.09,.3878,.1586,.7088,.204,.963,.0493,.3114-.0242,.5455-.2185,.703-.0981,.0783-.2059,.1176-.3235,.1176-.0538,0-.1097-.0082-.1677-.0247-.1857-.0533-.3579-.179-.5183-.3781-.3201-.3974-.4747-.9718-.4631-1.722-.2672,.215-.5344,.43-.8016,.6449,.0494,.3578,.1228,.6566,.2194,.8983,.0968,.2417,.2534,.4969,.471,.7657,.3326,.4139,.7145,.6614,1.1457,.7426,.0945,.0178,.1874,.0267,.2785,.0267Z"/><polygon points="17.9623 46.3448 14.1333 43.3173 13.6276 43.9575 15.1322 45.1478 12.2875 48.7456 13.1065 49.3934 15.9511 45.7946 17.4556 46.9849 17.9623 46.3448"/><polygon points="21.3985 48.8375 21.7439 48.0978 18.5791 46.6203 16.2934 51.5167 19.5074 53.0162 19.8524 52.2777 17.5851 51.2189 18.2349 49.8276 20.3582 50.8187 20.7034 50.0789 18.5801 49.0879 19.1805 47.8019 21.3985 48.8375"/><path d="M24.6116,48.8219c-.6353-.1299-1.2705-.2597-1.9058-.3896-.361,1.7645-.722,3.5291-1.0829,5.2937,.3409,.0696,.6819,.1393,1.0229,.2089l.4574-2.2355,.3712,.0764c.1645,.0328,.3008,.1044,.411,.2118,.1093,.1083,.2118,.2736,.3085,.4979,.0967,.2234,.233,.6469,.4108,1.2706,.0823,.2823,.15,.4892,.2042,.6215,.3802,.0778,.7606,.1555,1.1409,.2332-.1074-.2748-.2562-.7649-.4487-1.4735-.118-.411-.2272-.7079-.3268-.8916-.0996-.1838-.2244-.3384-.3752-.4631,.3326-.0667,.5994-.1954,.8006-.3877,.201-.1915,.3316-.438,.3935-.7387,.0909-.4419,.0068-.8326-.2495-1.172-.2571-.3394-.6343-.5598-1.1322-.6623Zm.3211,1.637c-.0485,.233-.1615,.4003-.3424,.5028-.1171,.0667-.2532,.1003-.4079,.1003-.0826,0-.1708-.0096-.264-.0288-.2172-.0445-.4344-.0889-.6517-.1334,.1005-.4912,.2011-.9824,.3018-1.4736,.2123,.0432,.4247,.0864,.6371,.1296,.2804,.0581,.4834,.1624,.611,.3133,.1268,.1508,.1653,.347,.1161,.5898Z"/><path d="M30.6025,51.6907l-.001-.0464c.2428-.1199,.4265-.2755,.5491-.4689,.1239-.1925,.1808-.4128,.1722-.6603-.0145-.3859-.1816-.7029-.5038-.9486-.2987-.2295-.6729-.3442-1.1219-.3442-.0333,0-.067,.0007-.1011,.002-.6599,.0239-1.3196,.0477-1.9794,.0716,.0657,1.8,.1315,3.6001,.1973,5.4001,.7535-.0276,1.5071-.0554,2.2606-.0831,.3684-.0135,.6865-.0842,.9543-.2128,.2678-.1285,.4738-.3132,.6179-.5549,.145-.2407,.2117-.5117,.201-.8104-.0126-.3373-.1286-.6274-.347-.8712-.2196-.2436-.5183-.4012-.8983-.4728Zm-1.9126-1.6177c.2501-.009,.5002-.0181,.7504-.0271l.049-.0009c.2167,0,.3965,.0546,.537,.1635,.1518,.1169,.2311,.2794,.2387,.4882,.0088,.2349-.0646,.4206-.2194,.5579-.1557,.1373-.3703,.2107-.6469,.2214-.2188,.0076-.4376,.0155-.6565,.0233-.0175-.4755-.0349-.9508-.0523-1.4263Zm1.8314,3.508c-.176,.1392-.4399,.2147-.7928,.2282-.3004,.011-.6008,.0219-.9012,.0328-.0184-.5089-.0367-1.0178-.0551-1.5267,.3271-.0118,.6542-.0239,.9814-.0357,.0253-.001,.05-.0015,.0745-.0015,.2673,0,.4852,.0585,.6536,.1736,.1837,.1266,.2805,.3044,.2881,.5336,.0098,.2573-.0734,.4564-.2484,.5957Z"/><path d="M37.9615,48.6431c-.3877-.3307-.8295-.5366-1.3266-.6169-.1572-.0253-.316-.038-.4767-.038-.3474,0-.7028,.0593-1.0664,.1783-.554,.1807-1.0065,.4553-1.3585,.8237-.352,.3683-.5811,.7986-.6884,1.2927-.1075,.4932-.0842,.9747,.0687,1.4456,.1594,.4882,.4264,.8934,.8005,1.2183,.3742,.3239,.8171,.5298,1.3266,.6179,.1727,.0301,.3464,.0451,.5214,.0451,.3428,0,.6902-.0576,1.0422-.1729,.5396-.1759,.9872-.4474,1.343-.815,.3569-.3663,.5908-.7957,.703-1.2869,.1122-.4912,.0899-.9765-.0667-1.4571-.1605-.4921-.4351-.9041-.822-1.2347Zm-.2919,3.0137c-.2311,.4419-.6101,.7493-1.137,.9215-.228,.074-.451,.1113-.669,.1113-.1149,0-.2284-.0103-.3405-.0309-.325-.0591-.6082-.1992-.8518-.4216-.2427-.2214-.4206-.5029-.5318-.8431-.1112-.3432-.1373-.6749-.0764-.994,.062-.3201,.207-.6005,.4351-.8422,.2291-.2418,.5183-.4196,.8664-.5328,.229-.0751,.4535-.1124,.6734-.1124,.1143,0,.2272,.0101,.339,.0303,.3267,.0589,.612,.1992,.8536,.4224,.2427,.2235,.4197,.5058,.5309,.8461,.1701,.5222,.1401,1.0046-.0919,1.4455Z"/><polygon points="42.6868 45.0501 42.2294 44.3743 38.1849 47.1058 38.6422 47.7827 40.2319 46.7084 42.7989 50.5092 43.6643 49.9252 41.0972 46.1243 42.6868 45.0501"/><polygon points="46.3842 40.9544 45.7711 40.4168 42.5533 44.0871 43.1674 44.6247 44.4321 43.1821 47.8809 46.2065 48.5694 45.4213 45.1205 42.397 46.3842 40.9544"/><polygon points="50.8436 42.3602 52.5075 39.2285 51.7871 38.8455 50.6124 41.0548 49.2568 40.3345 50.3571 38.2653 49.6368 37.8815 48.5365 39.9517 47.2834 39.2855 48.4321 37.1234 47.7118 36.7406 46.0729 39.824 50.8436 42.3602"/><polygon points="53.6629 35.9893 49.9259 35.1424 54.3775 32.8401 54.5757 31.9646 49.3071 30.7696 49.0809 31.7655 52.758 32.6003 48.3712 34.8967 48.1681 35.7911 53.4376 36.9852 53.6629 35.9893"/><path d="M51.61,26.0116c.063,0,.1273-.0055,.1927-.0166,.2949-.0502,.5269-.1953,.6952-.436,.1682-.2399,.2272-.5057,.1779-.7948-.0502-.2979-.1953-.5309-.4341-.699-.185-.1298-.3855-.1953-.6016-.1953-.064,0-.1293,.0057-.196,.0172-.2949,.0494-.527,.1943-.6971,.4323-.1701,.2378-.2301,.5058-.1788,.8036,.0492,.2919,.1953,.5229,.4369,.6921,.1873,.1311,.3889,.1965,.605,.1965Z"/><path d="M28.7489,46.9916c10.0751,0,18.2434-8.1673,18.2434-18.2424S38.824,10.5062,28.7489,10.5062,10.5065,18.6741,10.5065,28.7492s8.1674,18.2424,18.2424,18.2424Zm-16.2919-11.359c-.452-1.0685-.7977-2.1821-1.0302-3.3187-.2397-1.1719-.3592-2.3683-.3592-3.5646s.1194-2.3928,.3592-3.5647c.2325-1.1367,.5781-2.2502,1.0302-3.3188,.4443-1.0505,.9915-2.0576,1.6301-3.0026,.6342-.9384,1.3585-1.8159,2.1593-2.6166s1.6782-1.5253,2.6165-2.1594c.9451-.6386,1.9521-1.1858,3.0026-1.6302,1.0685-.4521,2.1821-.7977,3.3187-1.0302,1.1719-.2397,2.3683-.3592,3.5646-.3592s2.3927,.1194,3.5648,.3592c1.1365,.2325,2.2502,.5782,3.3188,1.0302,1.0506,.4444,2.0576,.9916,3.0026,1.6302,.9384,.6342,1.8159,1.3585,2.6169,2.1594,.8008,.8008,1.5253,1.6782,2.1594,2.6166,.6387,.945,1.1859,1.9521,1.6303,3.0027,.4521,1.0685,.7977,2.1821,1.0303,3.3187,.2397,1.1719,.359,2.3684,.359,3.5647s-.1193,2.3928-.359,3.5646c-.2326,1.1367-.5782,2.2502-1.0303,3.3187-.4445,1.0505-.9916,2.0574-1.6303,3.0025-.6342,.9384-1.3586,1.8157-2.1594,2.6165-.801,.8009-1.6783,1.5252-2.6168,2.1594-.9451,.6387-1.9521,1.1858-3.0027,1.6302-1.0685,.452-2.1823,.7976-3.3188,1.0301-1.172,.2398-2.3684,.3592-3.5648,.3592s-2.3928-.1194-3.5646-.3592c-1.1367-.2325-2.2502-.5781-3.3187-1.0301-1.0506-.4444-2.0575-.9915-3.0026-1.6302-.9383-.6342-1.8156-1.3585-2.6165-2.1592-.8008-.8009-1.5251-1.6782-2.1593-2.6165-.6386-.9452-1.1857-1.9521-1.6301-3.0026Z"/><path d="M28.7494,57.0954c15.6298,0,28.3453-12.7165,28.3453-28.3467S44.3792,.4025,28.7494,.4025,.4032,13.1185,.4032,28.7487s12.7155,28.3467,28.3462,28.3467ZM28.7494,.9642c15.3203,0,27.7845,12.4642,27.7845,27.7845s-12.4642,27.7849-27.7845,27.7849S.964,44.0695,.964,28.7487,13.4291,.9642,28.7494,.9642Z"/><path d="M16.7983,34.1588c.05,.1962,.1433,.3701,.2541,.5372,.1674,.2528,.374,.4724,.577,.6955,.4182,.4598,.8701,.7594,1.3702,1.132,.3508,.2612,.7261,.4807,1.131,.6464,.3,.1229,.6009,.2446,.9055,.3555,.4646,.1691,.9299,.3373,1.4004,.4887,.3748,.1206,.7568,.2191,1.1374,.3207,.2194,.0586,.4404,.1142,.6639,.1528,.3383,.0585,.392,.0171,.7326,.0599,.2117,.0266,.4254,.0416,.6387,.0515,.1802,.0083,.6702-.3809,.8619-.4318-.0313,.2543,.03,.5618,.1095,.669,.0665,.1408,.2485,.3789,.187,1.1781-.0311,.4053-.1938,1.0157-.1599,1.3555,.0162,.1628,.0823,.3063,.2637,.3564,.0214,.0059,.0411,.0213,.0594,.0352,.259,.1973,.5596,.3127,.8643,.407,.3094,.0956,.9531,.312,1.2464,.4509,1.0904,.5164,1.3458,.4773,1.7449,.5477,.2334,.0412,1.4001,.2365,1.1468-.0263-.2806-.291-.9043-.4346-.4676-.5923,.1119-.0404,.1482-.0308,.4085-.0308,.2269,0,.9366,.0685,1.1711-.1459,.2739-.2504-1.4496-.3073-1.3198-.4566,.1565-.18,.4261-.1981,.6651-.3539,.2352-.1534-1.2279-.2941-1.6118-.3503-.4261-.0624-1.9527-.2008-2.1195-.2094-.3058-.0158-.8481-.2254-.9375-.526-.1536-1.2614-.0765-1.6102-.0082-1.8641,.088-.3268,.1662-.5537,.1897-.7259,.0122-.0892,.2297-.2325,.3091-.2621,.1674-.0624,.6245-.3381,.7968-.4045,.0679,.1296,.194,.5958,.1108,1.344-.0831,.7482-.194,1.2055-.2217,1.4826s.4863,.5289,.8591,.5543c.4645,.0315,.8109,.1786,1.6212,.2494,.8222,.0718,2.2427,.8646,2.7787,.6082,.1525-.1108-.5677-.5399-.1626-.5828,.5491-.0581,.9583,.0237,1.3681-.1446,.5842-.24-1.0655-.3405-1.1385-.45-.0464-.0696,.0675-.1406,.193-.1982,.1672-.0768,.5112-.1617,.6625-.2921,.106-.0914-.5263-.1417-.6625-.1669-.1511-.028-.8991-.0766-1.2415-.12-.2669-.0338-.6487-.0601-.9161-.0699-.4924-.018-.9864-.0167-1.4788,.002-.1596,.006-.3004,.0037-.4332-.0856l-.0117-.0087c-.343-.7359-.2613-1.0071-.2978-1.4418,.0139-.3187,.0518-.5134,.1751-.8857,.0414-.1054,.1144-.1604,.1953-.1993,.4224-.2034,.4991-.2341,.9384-.3963,.3825-.1412,.7687-.2739,1.1446-.4312,.5983-.2503,1.1907-.5146,1.7829-.7792,.4871-.2177,.9622-.4611,1.4114-.7487,.8317-.5324,1.5906-1.1534,2.2309-1.9097,.3825-.4518,.7044-.9423,.9209-1.498,.1241-.3185,.2031-.6486,.2271-.9862,.021-.2956,.0128-.5937-.0323-.8906-.0587-.3864-.1436-.7651-.2646-1.1364-.1539-.4727-.3497-.9279-.5675-1.3742-.1686-.3456-.325-.6974-.5034-1.0378-.265-.5057-.5712-.9877-.8907-1.4606-.3656-.541-.7983-1.0206-1.3058-1.4346-.3084-.2516-.6077-.5157-.8967-.7894-.2341-.2216-.4207-.4846-.521-.7958-.0375-.1163-.0578-.2299-.0933-.3576-.0607-.2177-.0443-.3749,.0329-.5919,.0515-.1447,.1226-.1948,.2806-.1871,.3171,.0156,.4648,.2101,.7794,.2286,.1767,.0104,.3622-.0805,.452-.0888,.1296-.0119,.243,.0062,.3582,.0735,.3035,.1777,.6119,.3472,.9208,.5156,.4033,.2199,.8064,.4396,1.1647,.7311,.3945,.3209,.8234,.5867,1.2937,.7805,.2224,.0917,.4504,.1624,.6993,.1651,.2892,.0032,.6263-.3151,.4574-.6652-.0221-.0457-.0378-.0972-.0696-.1349-.1252-.1485-.2497-.2985-.3856-.437-.2103-.2143-.4371-.4127-.644-.6301-.6132-.6439-1.0861-1.3832-1.4651-2.1852-.0533-.1129-.0802-.219-.0511-.347,.0209-.092,.007-.1949-.0064-.2908-.0153-.1096-.0421-.2184-.0729-.325-.0769-.265-.1923-.5116-.3706-.725-.2552-.3052-.5647-.5478-.8931-.7676-.2234-.1496-.444-.3049-.6967-.4044-.4141-.1631-.8427-.2509-1.2882-.2673-.5037-.0186-1.0027,.0023-1.4968,.1109-.3959,.087-.7823,.2005-1.1375,.3999-.6573,.3691-1.1749,.8851-1.5736,1.5219-.4703,.7512-.7078,1.58-.7877,2.4548-.0342,.3743-.0333,.7523-.0377,1.1288-.0038,.3358,.037,.669,.115,.9954,.0899,.3758,.2492,.7276,.4029,1.0801,.2259,.5182,.4622,1.032,.6866,1.5509,.0503,.1161,.1126,.2343,.1052,.377-.2379,.1016-.4844,.17-.7357,.2034-.3449,.0458-.6927,.076-1.0402,.0937-.4364,.0222-.8741,.0197-1.3108,.0378-.4608,.0192-.9158,.0807-1.3524,.2396-.1294,.0471-.2589,.0965-.3733,.1772,.0854,.1242,.0825,.1631-.028,.2471-.0514,.0389-.1089,.0718-.1675,.0988-.3699,.1704-.7444,.3309-1.1105,.5092-.3709,.1805-.728,.3901-1.1014,.5649-.5457,.2554-1.0566,.3865-1.6126,.6183-.6801,.2835-1.7495,.4467-2.4335,.7208-.2668,.1069-.5302,.2217-.7672,.3877-.0231,.0162-.0406,.0403-.0695,.0698,.0609,.0303,.4491,.2656,.4924,.2912,.0555,.0328,.1138,.0643,.1611,.1071,.0801,.0724,.0765,.1541-.0029,.2278-.0235,.0219-.0518,.039-.0794,.056-.1279,.0791-.269,.1204-.4151,.1534-.3254,.0734-.6475,.1627-.9743,.2291-.2634,.0536-1.921,.378-4.4296,.1404-.1454-.0311-.3967-.047-.4916-.0665-.0878-.0181-.1788-.0201-.2905-.0316,.0369,.1511,.3581,.4424,.3939,.5891-.1128,0-.4753-.0754-.5782-.0754,0,.1454,.3717,.5933,.4884,.6962,.2886,.2546,.6174,.4247,.9186,.6636,.3921,.311,.7643,.5313,1.1652,.8311,.5752,.4303,1.1223,.8984,1.7279,1.2881,.0313,.0201,.045,.2006,.0541,.2364Z"/></svg>