<?xml version="1.0" encoding="UTF-8"?><svg id="Lager_1" xmlns="http://www.w3.org/2000/svg" width="20.2847mm" height="20.2847mm" viewBox="0 0 57.5 57.5"><g id="POLYLINE"><path d="M24.7549,37.9771l-.0197,.0858-.0054,.0216-.006,.0214-.0033,.0106-.0035,.0105-.0037,.0104-.0041,.0103-.0043,.0102-.0046,.01-.0024,.005-.0026,.0049-.0026,.0049-.0027,.0048-.0028,.0048-.0029,.0047-.0031,.0047-.0031,.0046-.0033,.0046-.0034,.0045-.0035,.0044-.0036,.0044-.0037,.0043-.0038,.0042-.004,.0042-.0042,.0041-.0042,.004-.0044,.004-.0045,.0039-.0047,.0038-.0048,.0037-.0049,.0037-.0051,.0036-.0052,.0035-.0055,.0034-.0056,.0033-.0057,.0032-.0059,.0032-.006,.0031-.0062,.003-.0128,.0057-.0134,.0054-.0139,.0051-.0144,.0048-.0148,.0046-.0154,.0043-.0158,.004-.0328,.0074-.0344,.0064-.0357,.0056-.0369,.0048-.0379,.0041-.0781,.0065-.1608,.0081-.1598,.0037-.0792-.0011-.0396-.0017-.0396-.0025-.0396-.0035-.0396-.0046-.0397-.0058-.0398-.007-.0399-.0084-.04-.0099-.0402-.0115-.0202-.0064-.0203-.0068-.0891-.0323-.049-.0191-.0507-.021-.0513-.0226-.0511-.0242-.0251-.0126-.0247-.013-.0242-.0133-.0234-.0136-.0226-.0139-.0217-.0142-.0206-.0144-.0099-.0073-.0096-.0074-.0092-.0074-.009-.0075-.0085-.0075-.0082-.0076-.0078-.0076-.0074-.0077-.007-.0077-.0034-.0039-.0032-.0039-.0031-.0039-.003-.0039-.0029-.0039-.0027-.0039-.0027-.0039-.0025-.0039-.0024-.0039-.0023-.004-.0022-.004-.002-.004-.0019-.004-.0018-.004-.0016-.004-.0015-.004-.0014-.004-.0006-.002-.0006-.002-.0005-.002-.0005-.002-.0005-.002-.0005-.002-.0004-.002-.0004-.002-.0003-.002-.0003-.002-.0002-.002-.0002-.002-.0002-.002-.0002-.002v-.002l-.0002-.002v-.0081l.0002-.002,.0002-.002,.0002-.002,.0002-.002,.0003-.002,.0003-.002,.0004-.002,.0004-.002,.0004-.002,.0005-.002,.0005-.002,.0006-.002,.0006-.002,.0007-.002,.0076-.022,.0082-.0219,.0087-.0218,.0092-.0217,.0096-.0216,.0101-.0215,.0214-.0427,.0229-.0423,.0244-.0418,.0256-.0413,.0267-.0408,.0277-.0403,.0286-.0397,.059-.0778,.0607-.0755,.0612-.073,.0068-.0078,.0068-.0076,.007-.0074,.0072-.0072,.0073-.0071,.0073-.0069,.0151-.0134,.0155-.0128,.0159-.0122,.0162-.0117,.0167-.0112,.0169-.0108,.0172-.0104,.0175-.01,.0176-.0097,.0358-.0186,.1821-.0867,.0354-.0183,.0173-.0095,.0172-.0098,.0168-.0101,.0165-.0105,.0162-.0109,.0158-.0114,.0154-.0117,.015-.0118,.0146-.0119,.0142-.0121,.0138-.0122,.0134-.0123,.0257-.0249,.0242-.0253,.0228-.0256,.0214-.0258,.0201-.026,.0189-.0261,.0176-.0261,.0165-.0261,.0153-.026,.0142-.0259,.0132-.0257,.0122-.0254,.0113-.0251,.0104-.0247,.0096-.0243,.0088-.0238,.008-.0232,.0073-.0225,.0067-.0218,.0116-.0413,.0095-.0378,.0204-.087,.002-.0083,.002-.0088,.0038-.0191,.0037-.0211,.0034-.023,.0063-.0515,.0056-.0586,.0092-.1365,.0066-.1597,.0063-.3754-.0013-.4278-.019-.9061-.0291-.795-.0029-.0547-.0038-.0529-.0097-.101-.0483-.3699-.0093-.0917-.0035-.0468-.0026-.0477-.0016-.0487-.0033-.2973-.0021-.0474-.0034-.0459-.0022-.0223-.0026-.0218-.0031-.0213-.0035-.0207-.004-.0201-.0023-.0098-.0023-.0096-.0025-.0095-.0027-.0093-.0028-.0091-.0029-.0089-.0031-.0087-.0033-.0085-.0035-.0083-.0037-.0081-.0038-.0079-.004-.0077-.0021-.0037-.0021-.0037-.0021-.0036-.0023-.0036-.0023-.0035-.0023-.0035-.0023-.0034-.0024-.0033-.0025-.0033-.0025-.0032-.0026-.0032-.0026-.0031-.0027-.003-.0027-.003-.0028-.0029-.0028-.0028-.0029-.0028-.0029-.0027-.003-.0027-.0031-.0026-.0031-.0025-.0031-.0025-.0032-.0024-.0032-.0024-.0033-.0023-.0033-.0023-.0068-.0044-.007-.0042-.0072-.004-.0073-.0038-.0075-.0036-.0077-.0034-.0079-.0032-.008-.003-.0082-.0028-.0083-.0027-.0084-.0025-.0086-.0024-.0087-.0022-.0178-.004-.0184-.0035-.0188-.003-.0193-.0026-.0196-.0022-.02-.0019-.041-.0029-.2156-.0089-.0434-.0032-.0429-.0045-.0212-.0029-.021-.0033-.0208-.0037-.0206-.0041-.0204-.0044-.0203-.0048-.04-.0107-.0394-.012-.0388-.0133-.0383-.0145-.0378-.0157-.0373-.0167-.0368-.0177-.0365-.0186-.0361-.0195-.0358-.0202-.0355-.0209-.0703-.0435-.0696-.0455-.0689-.0473-.0679-.0491-.067-.0509-.0658-.0528-.0645-.0546-.063-.0565-.0615-.0583-.0598-.0602-.0579-.0621-.056-.064-.0272-.0327-.0267-.0332-.0261-.0337-.0255-.0342-.025-.0346-.0244-.0351-.0237-.0356-.0231-.0361-.0224-.0366-.0217-.0371-.0211-.0375-.0204-.038-.0392-.0771-.184-.3962-.0383-.0788-.04-.0778-.0416-.0768-.0431-.0758-.0443-.0749-.0912-.1472-.0932-.1439-.189-.2794-.097-.1365-.0999-.135-.1036-.134-.1082-.1335-.1137-.1336-.1201-.1341-.1269-.1344-.0657-.0662-.0669-.0649-.0681-.063-.0688-.0605-.0696-.0575-.035-.0275-.0351-.0265-.0352-.0255-.0352-.0244-.0353-.0233-.0353-.0221-.0353-.0208-.0352-.0194-.0352-.018-.0351-.0165-.0175-.0077-.0175-.0073-.0175-.0069-.0174-.0064-.0174-.006-.0173-.0056-.0173-.0051-.0172-.0047-.0172-.0042-.0172-.0038-.0171-.0033-.017-.0028-.017-.0023-.0168-.0018-.0168-.0013-.0168-.0008-.0167-.0003-.0167,.0002-.0165,.0007-.0165,.0012-.0164,.0017-.0164,.0022-.0163,.0026-.0162,.0031-.0162,.0035-.0162,.0039-.0161,.0044-.0161,.0048-.016,.0051-.016,.0055-.0159,.0059-.0159,.0063-.0317,.0136-.0315,.0149-.0314,.0161-.0313,.0172-.0312,.0183-.0312,.0192-.0623,.0409-.0623,.0437-.3165,.2347-.0654,.0453-.0663,.043-.0674,.0404-.0684,.0381-.3474,.1786-.0688,.0378-.0682,.0399-.0676,.0416-.4017,.2646-.5425,.3339-.1313,.0878-.0643,.046-.063,.0476-.0617,.0496-.0602,.0518-.0295,.0268-.0291,.0274-.0286,.0281-.0281,.0288-.055,.0596-.1605,.1856-.0545,.0605-.0278,.0294-.0283,.0286-.0289,.0277-.0297,.0267-.0305,.0255-.0155,.0123-.0158,.0119-.016,.0116-.0162,.0112-.0165,.0109-.0167,.0105-.0169,.0102-.0171,.0098-.0173,.0095-.0175,.0091-.0177,.0088-.0179,.0084-.0363,.0159-.0369,.0145-.0375,.0132-.038,.0119-.0384,.0106-.0388,.0093-.0392,.008-.0394,.0068-.0397,.0055-.0398,.0043-.0399,.0031-.04,.0019-.04,.0008-.04-.0003-.0401-.0013-.04-.0023-.0401-.0032-.04-.0041-.04-.0048-.0798-.0118-.0795-.0142-.0791-.0162-.1564-.0367-.0771-.0205-.0763-.0227-.0378-.0124-.0375-.0131-.0372-.0139-.037-.0148-.0366-.0158-.0364-.0168-.036-.0179-.0356-.0191-.0353-.0203-.035-.0217-.0345-.023-.0341-.0244-.0336-.0257-.0329-.027-.0322-.0282-.0314-.0294-.0306-.0306-.015-.0157-.0147-.016-.0144-.0163-.0142-.0165-.0139-.0168-.0136-.0171-.0133-.0173-.0131-.0176-.0127-.0178-.0125-.018-.0121-.0183-.0117-.0185-.0114-.0187-.011-.019-.0106-.0192-.0103-.0194-.0099-.0196-.0095-.0198-.0091-.02-.0087-.0202-.0083-.0203-.0078-.0205-.0074-.0207-.007-.0208-.0066-.0209-.0061-.021-.0057-.0211-.0052-.0212-.0048-.0213-.0044-.0213-.0039-.0214-.0034-.0214-.003-.0214-.0026-.0215-.0021-.0215-.0016-.0214-.0012-.0214-.0006-.0214-.0002-.0213,.0003-.0213,.0008-.0212,.0013-.0211,.0018-.021,.0023-.0209,.0027-.0208,.0033-.0206,.0038-.0205,.0043-.0203,.0048-.0201,.0053-.0199,.0059-.0197,.0063-.0195,.0068-.0194,.0073-.0192,.0077-.019,.0081-.0189,.0085-.0187,.0088-.0186,.0187-.0368,.0197-.0364,.0208-.0361,.1554-.2499,.0214-.0362,.0206-.0366,.0198-.037,.0188-.0375,.0181-.0378,.0173-.0382,.0327-.0773,.1458-.3957,.2421-.6296,.0544-.159,.2343-.7332,.0244-.0828,.0113-.0414,.0106-.0414,.0097-.0414,.0087-.0414,.0076-.0414,.0065-.0413,.0052-.0413,.0021-.0206,.0017-.0206,.0014-.0206,.001-.0206,.0007-.0206,.0004-.0206-.0004-.0411-.0016-.0411-.0028-.0411-.0039-.0412-.0049-.0413-.0059-.0414-.0067-.0415-.0075-.0417-.0171-.0839-.0828-.3453-.0097-.0438-.0089-.0437-.0078-.0435-.0066-.0432-.0027-.0215-.0024-.0214-.002-.0212-.0015-.0211-.001-.021-.0005-.0208v-.0207l.0005-.0205,.0012-.0203,.0017-.0201,.0011-.01,.0012-.0099,.0015-.0099,.0016-.0098,.0017-.0098,.002-.0097,.0021-.0097,.0023-.0096,.0025-.0095,.0026-.0095,.0029-.0094,.0031-.0093,.0032-.0093,.0034-.0092,.0037-.0091,.0038-.0091,.004-.009,.0042-.009,.0088-.0178,.0095-.0175,.01-.0173,.0105-.0171,.011-.017,.0115-.0168,.012-.0166,.0248-.0329,.0261-.0324,.1619-.1909,.0248-.0322,.0118-.0162,.0114-.0163,.011-.0164,.0105-.0166,.0099-.0167,.0095-.0169,.0089-.017,.0085-.0172,.008-.0173,.0076-.0175,.0073-.0176,.0069-.0178,.0129-.0361,.012-.0367,.0112-.0374,.076-.2819,.0134-.0433,.0146-.0441,.0162-.0449,.1065-.2737,.0155-.0442,.0138-.0432,.0061-.0212,.0055-.0208,.0049-.0205,.0042-.0201,.0018-.0099,.0016-.0098,.0014-.0097,.0012-.0095,.001-.0094,.0008-.0093,.0005-.0092,.0003-.009v-.0177l-.0004-.0086-.0007-.0085-.0004-.0042-.0005-.0041-.0005-.0041-.0006-.0041-.0007-.004-.0007-.004-.0009-.004-.0009-.0039-.001-.0039-.001-.0038-.0012-.0038-.0012-.0037-.0013-.0037-.0014-.0037-.0014-.0036-.0015-.0036-.0016-.0035-.0016-.0035-.0018-.0034-.0018-.0034-.0019-.0034-.002-.0033-.002-.0033-.0021-.0032-.0022-.0032-.0023-.0032-.0023-.0031-.0024-.0031-.0025-.003-.0025-.003-.0026-.003-.0027-.0029-.0027-.0029-.0028-.0029-.0029-.0028-.0029-.0028-.006-.0055-.0063-.0054-.0065-.0052-.0068-.0051-.007-.005-.0072-.0049-.0074-.0048-.0076-.0047-.0078-.0046-.0081-.0045-.0165-.0087-.0173-.0084-.0179-.0081-.0185-.0079-.0385-.0152-.2101-.0736-.0427-.0162-.0419-.0174-.0205-.0092-.0202-.0096-.0198-.01-.0194-.0105-.019-.0109-.0187-.0113-.0182-.0117-.0179-.0121-.0176-.0124-.0172-.0128-.0168-.0131-.0165-.0135-.0162-.0138-.0159-.0141-.0155-.0145-.0153-.0148-.015-.015-.0146-.0153-.0143-.0156-.014-.0159-.0138-.0161-.0135-.0164-.0262-.0334-.0252-.0342-.0242-.035-.0233-.0357-.0224-.0363-.0217-.0368-.0209-.0372-.0201-.0377-.0195-.0381-.0187-.0384-.0181-.0388-.0175-.0391-.033-.0792-.0306-.0804-.0285-.0814-.0265-.0822-.0247-.0828-.0229-.0834-.0209-.0837-.0186-.0839-.0083-.042-.0076-.042-.0068-.042-.006-.0419-.0052-.0419-.0043-.0418-.0034-.0417-.0024-.0416-.0015-.0414-.0004-.0413,.0007-.0411,.0017-.0405,.0027-.0396,.0037-.0383,.0046-.0366,.0027-.0176,.0028-.017,.0031-.0164,.0032-.0157,.0035-.015,.0037-.0143,.0038-.0135,.004-.0126,.0021-.006,.0021-.0058,.0022-.0055,.0022-.0053,.0023-.005,.0023-.0048,.0024-.0045,.0024-.0043,.0012-.002,.0012-.002,.0012-.0019,.0013-.0018,.0012-.0018,.0012-.0017,.0013-.0016,.0013-.0015,.0013-.0015,.0013-.0014,.0013-.0013,.0013-.0012,.0013-.0012,.0007-.0005,.0007-.0005,.0007-.0005,.0006-.0005,.0007-.0005,.0007-.0005,.0007-.0004,.0007-.0004,.0007-.0004,.0007-.0004,.0007-.0004,.0007-.0003,.0007-.0003,.0007-.0003,.0007-.0003,.0007-.0003,.0007-.0002,.0007-.0002,.0007-.0002,.0007-.0002h.0007l.0007-.0003h.0007l.0007-.0002h.0057l.0007,.0003h.0007l.0007,.0003,.0007,.0002,.0007,.0002,.0007,.0002,.0007,.0002,.0007,.0003,.0008,.0003,.0007,.0003,.0007,.0003,.0007,.0004,.0007,.0004,.0007,.0004,.0008,.0004,.0007,.0005,.0007,.0005,.0008,.0005,.0007,.0005,.0007,.0006,.0008,.0006,.0007,.0006,.0008,.0006,.0007,.0006,.0015,.0014,.0016,.0015,.0015,.0016,.0015,.0017,.0016,.0017,.0015,.0018,.0016,.0019,.0016,.002,.0016,.0021,.0016,.0022,.0016,.0023,.0032,.0048,.0032,.0052,.0033,.0055,.0032,.0058,.0033,.0061,.0034,.0064,.0067,.0137,.0068,.0148,.0069,.0159,.007,.0169,.0142,.0365,.0294,.0822,.0949,.2842,.0334,.0941,.0171,.0448,.0173,.0431,.0176,.0416,.0181,.0402,.0186,.0389,.0192,.0377,.0198,.0366,.0205,.0357,.0213,.0348,.0222,.0341,.0231,.0334,.0242,.0329,.0253,.0325,.0266,.0322,.0278,.032,.0291,.0319,.0305,.0319,.0318,.0317,.0329,.0312,.0339,.0305,.0347,.0296,.0354,.0285,.0359,.0271,.0181,.013,.0182,.0126,.0182,.0121,.0183,.0116,.0183,.0111,.0183,.0106,.0183,.01,.0182,.0094,.0182,.0087,.0181,.0081,.018,.0074,.0179,.0067,.0178,.0059,.0089,.0027,.0089,.0025,.0087,.0023,.0087,.0021,.0087,.0019,.0087,.0017,.0085,.0014,.0085,.0012,.0085,.001,.0084,.0008,.0084,.0005,.0083,.0003h.0164l.0081-.0004,.0081-.0005,.0081-.0007,.008-.0009,.0079-.0011,.0079-.0013,.0078-.0015,.0078-.0017,.0078-.0018,.0078-.002,.0077-.0022,.0076-.0023,.0152-.0051,.0151-.0057,.015-.0062,.0149-.0067,.0148-.0071,.0147-.0075,.0294-.0161,.0292-.0173,.1483-.0928,.0308-.0176,.0156-.0084,.0158-.0081,.016-.0078,.0162-.0075,.0164-.0072,.0165-.0069,.0336-.0129,.0342-.0118,.0348-.0108,.0353-.0099,.0358-.0092,.0363-.0085,.0738-.0153,.0752-.0136,.3862-.0636,.0785-.0097,.0394-.0038,.0394-.0029,.0396-.0019,.0396-.0008,.0397,.0004,.0398,.0018,.0399,.0032,.02,.0022,.02,.0026,.02,.003,.02,.0034,.0401,.0079,.0401,.009,.279,.0743,.0392,.0091,.039,.0079,.0194,.0035,.0193,.0031,.0193,.0027,.0192,.0022,.019,.0017,.019,.0012,.0189,.0007h.0188l.0187-.0004,.0186-.0011,.0185-.0017,.0184-.0023,.0182-.0029,.0181-.0035,.0179-.004,.0178-.0046,.0176-.0051,.0175-.0057,.0173-.0062,.0171-.0067,.0169-.0072,.0167-.0077,.0165-.0082,.0163-.0087,.0161-.0092,.0159-.0097,.0156-.0101,.0153-.0106,.0151-.011,.0148-.0115,.0146-.0119,.0143-.0123,.014-.0128,.0137-.0132,.0134-.0136,.0131-.0139,.0128-.0143,.0125-.0147,.0121-.0151,.0118-.0154,.0114-.0158,.011-.0161,.0107-.0164,.0104-.0168,.0101-.0171,.0098-.0174,.0095-.0177,.0092-.018,.0177-.0368,.0167-.0378,.0157-.0387,.0149-.0396,.0141-.0404,.0134-.0411,.025-.0841,.0231-.0861,.0632-.2638,.0372-.1729,.0317-.1629,.0467-.2936,.0042-.0228,.0021-.0104,.0022-.0097,.0023-.009,.0012-.0042,.0012-.004,.0012-.0038,.0013-.0036,.0013-.0034,.0013-.0032,.0007-.0015,.0007-.0015,.0007-.0014,.0007-.0014,.0007-.0013,.0007-.0013,.0007-.0012,.0007-.0012,.0007-.0011,.0008-.001,.0007-.001,.0004-.0005,.0004-.0005,.0004-.0004,.0004-.0004,.0004-.0004,.0004-.0004,.0004-.0004,.0004-.0004,.0004-.0004,.0004-.0003,.0004-.0003,.0004-.0003,.0004-.0003,.0004-.0003,.0004-.0003,.0004-.0003,.0005-.0002,.0004-.0002,.0004-.0002,.0005-.0002,.0004-.0002,.0004-.0002h.0005l.0005-.0003h.0004l.0005-.0002h.001l.0004-.0002h.0035l.0005,.0002h.0005l.0005,.0002h.0005l.0005,.0003,.0005,.0002,.0005,.0002,.0005,.0002,.0005,.0002,.0005,.0002,.0005,.0002,.0005,.0003,.0006,.0003,.0005,.0003,.0005,.0003,.0005,.0003,.0006,.0003,.0006,.0004,.0012,.0008,.0012,.0008,.0012,.0009,.0013,.001,.0012,.001,.0013,.0011,.0013,.0012,.0013,.0013,.0013,.0013,.0013,.0014,.0014,.0015,.0013,.0015,.0029,.0033,.0029,.0036,.003,.0039,.0031,.0042,.0032,.0045,.0032,.0048,.0034,.0051,.0069,.011,.0071,.0121,.0073,.0132,.0076,.0142,.0077,.0152,.0078,.0162,.0079,.0171,.008,.018,.0161,.0387,.0159,.0419,.0155,.0449,.0148,.0475,.0139,.05,.0065,.0258,.0062,.0263,.0059,.0268,.0055,.0272,.005,.0277,.0046,.028,.0041,.0284,.0036,.0287,.003,.029,.0024,.0292,.0018,.0294,.0012,.0296,.0005,.0297v.0298l-.0007,.0298-.0012,.0298-.0035,.0592-.0312,.3199-.0014,.0219-.0009,.0209-.0004,.0199v.0095l.0002,.0092,.0003,.0089,.0005,.0086,.0007,.0083,.0009,.008,.0011,.0077,.0006,.0037,.0007,.0036,.0007,.0035,.0008,.0034,.0008,.0034,.0009,.0033,.001,.0032,.001,.0031,.001,.003,.0011,.0029,.0012,.0028,.0012,.0027,.0006,.0013,.0007,.0013,.0007,.0013,.0007,.0013,.0007,.0012,.0007,.0012,.0007,.0012,.0007,.0012,.0008,.0011,.0007,.0011,.0008,.0011,.0009,.0011,.0008,.001,.0009,.001,.0009,.001,.0009,.001,.0009,.0009,.0009,.0009,.0009,.0009,.001,.0009,.001,.0008,.001,.0008,.001,.0008,.001,.0007,.001,.0007,.001,.0007,.0011,.0007,.0011,.0006,.0011,.0006,.0012,.0006,.0011,.0006,.0012,.0005,.0012,.0005,.0012,.0005,.0012,.0004,.0012,.0004,.0013,.0004,.0013,.0004,.0013,.0003,.0013,.0003,.0013,.0003,.0013,.0003,.0014,.0002,.0014,.0002,.0014,.0002h.0015l.0029,.0004h.0124l.0032-.0004,.0034-.0004,.0034-.0005,.0035-.0005,.0035-.0006,.0036-.0007,.0074-.0017,.0076-.002,.0078-.0023,.0081-.0026,.0082-.0029,.0084-.0032,.0174-.0071,.0181-.008,.0187-.0088,.0389-.0196,.1652-.0877,.0408-.0198,.0199-.009,.0195-.0082,.019-.0073,.0093-.0033,.0092-.003,.009-.0028,.0089-.0025,.0087-.0022,.0085-.0019,.0082-.0015,.0041-.0006,.004-.0005,.0039-.0005,.0039-.0004,.0038-.0003,.0038-.0002h.011l.0035,.0003,.0035,.0003,.0034,.0004,.0034,.0005,.0033,.0006,.0032,.0008,.0016,.0004,.0016,.0004,.0015,.0005,.0016,.0005,.0015,.0005,.0015,.0006,.0015,.0006,.0015,.0006,.0015,.0006,.0015,.0007,.0014,.0007,.0014,.0007,.0014,.0007,.0013,.0008,.0014,.0008,.0013,.0008,.0013,.0008,.0013,.0009,.0013,.0009,.0013,.0009,.0013,.0009,.0013,.001,.0012,.001,.0012,.001,.0012,.001,.0012,.0011,.0012,.0011,.0012,.0011,.0012,.0011,.0011,.0012,.0011,.0012,.0011,.0012,.0021,.0025,.0021,.0026,.002,.0026,.002,.0027,.0019,.0028,.0018,.0029,.0018,.003,.0017,.0031,.0016,.0032,.0016,.0033,.0015,.0033,.0015,.0034,.0014,.0035,.0013,.0036,.0013,.0036,.0012,.0037,.0012,.0038,.0011,.0039,.001,.0039,.001,.004,.0009,.0041,.0009,.0042,.0008,.0042,.0015,.0086,.0012,.0089,.001,.0091,.0008,.0094,.0005,.0096,.0003,.0098v.0203l-.0003,.0105-.0005,.0107-.0007,.0108-.0009,.011-.0012,.0112-.0014,.0113-.0033,.0231-.0042,.0236-.0049,.024-.0057,.0244-.0065,.0247-.0072,.025-.0079,.0251-.0087,.0252-.0093,.0253-.01,.0252-.0107,.0251-.0114,.0249-.012,.0247-.0126,.0244-.0132,.024-.0138,.0235-.0143,.023-.0148,.0226-.0152,.0221-.0155,.0216-.0157,.0211-.0319,.0408-.032,.0388-.1418,.1631-.0109,.0134-.0099,.0128-.009,.0122-.0041,.0059-.0038,.0058-.0035,.0056-.0033,.0055-.0029,.0053-.0014,.0026-.0013,.0026-.0012,.0025-.0011,.0025-.0011,.0025-.001,.0024-.0009,.0024-.0009,.0024-.0007,.0023-.0007,.0023-.0005,.0023-.0002,.0011-.0002,.0011-.0002,.0011-.0002,.0011v.0011l-.0002,.0011v.0011l-.0002,.001v.0081l.0003,.001v.001l.0003,.0009,.0002,.0009,.0002,.0009,.0002,.0009,.0003,.0009,.0003,.0009,.0003,.0009,.0004,.0009,.0004,.0009,.0004,.0009,.0004,.0009,.0004,.0008,.0005,.0008,.0005,.0008,.0005,.0008,.0006,.0008,.0005,.0008,.0006,.0008,.0007,.0008,.0007,.0008,.0007,.0008,.0007,.0007,.0007,.0007,.0007,.0007,.0008,.0007,.0008,.0007,.0009,.0007,.0009,.0007,.0009,.0007,.0009,.0007,.0009,.0007,.001,.0007,.002,.0013,.0021,.0013,.0022,.0012,.0023,.0012,.0024,.0012,.0024,.0011,.0025,.0011,.0026,.0011,.0027,.001,.0028,.001,.0029,.001,.003,.0009,.0062,.0018,.0065,.0016,.0068,.0015,.0071,.0014,.0074,.0013,.0078,.0012,.008,.0011,.0169,.0018,.0179,.0014,.0189,.001,.0198,.0006,.0207,.0002,.0437-.0006,.0464-.0019,.0486-.003,.1018-.0087,.2078-.0243,.1926-.0275,.1746-.03,.0816-.0162,.0783-.0172,.0754-.0184,.0729-.0196,.0708-.021,.0691-.0225,.0678-.0241,.067-.0258,.0663-.0277,.0663-.0297,.0666-.0318,.4186-.2196,.0732-.0336,.0369-.0156,.0371-.0146,.0373-.0135,.0375-.0123,.0377-.011,.0379-.0098,.0381-.0086,.0383-.0076,.0384-.0066,.0385-.0057,.0775-.0092,.0779-.0068,.5493-.0367,.157-.0163,.1566-.0201,.1562-.0245,.1556-.0292,.1548-.0344,.1539-.0401,.0765-.0224,.076-.0241,.0754-.0261,.0745-.0283,.0734-.0307,.0363-.0163,.0359-.017,.0355-.0177,.0351-.0184,.0347-.0192,.0342-.02,.0338-.0207,.0333-.0214,.0657-.0446,.2581-.186,.0659-.0443,.0334-.0213,.0339-.0205,.0344-.0197,.0348-.0189,.0353-.018,.0356-.0172,.0361-.0163,.0365-.0154,.0368-.0146,.0372-.0137,.0375-.0128,.0377-.0119,.038-.0111,.0383-.0102,.0385-.0093,.0387-.0084,.0389-.0075,.0391-.0066,.0391-.0057,.0393-.0048,.0789-.0074,.0793-.0049,.3993-.0059,.3193-.0089,.6359-.0307,.3177-.0088h.0405l.0421,.0014,.0437,.0023,.0453,.0033,.0956,.0095,.1021,.0132,.2243,.0363,.2515,.0477,1.2902,.2613,.3967,.072,.4276,.0702,.459,.0663,.4911,.0602,.5239,.052,.5571,.0415,.5911,.0288,.6256,.014,.4218-.0045,.6042-.018,.6138-.0309,.2564-.0201,.1061-.0111,.0463-.0059,.0414-.006,.17-.0236,1.071-.1186,.2076-.0299,.0972-.0164,.0914-.0175,.0905-.0205,.3065-.077,.118-.0258,.0627-.0121,.0653-.0112,.0682-.0102,.071-.009,.0742-.0076,.0775-.0061,.0809-.0043,.0845-.0023,.0882-.0002,.0921,.0022,.0962,.0047,.1003,.0074,.1047,.0103,.1092,.0135,.1139,.0167,.1187,.0202,.1237,.0239,.1288,.0278,.1341,.0319,.1395,.0361,.1451,.0406,.1509,.0452,.5582,.1647,.2016,.0646,.0988,.0344,.0961,.0359,.0921,.0374,.0443,.0193,.0429,.0197,.0414,.0201,.0397,.0205,.038,.021,.036,.0214,.0173,.0109,.0167,.011,.0162,.0111,.0156,.0112,.015,.0113,.0144,.0114,.0138,.0115,.0132,.0117,.0667,.0629,.067,.0668,.0669,.0703,.0664,.0733,.0657,.0759,.0646,.078,.0631,.0797,.0614,.0809,.0593,.0817,.0569,.082,.0541,.0819,.0511,.0813,.0477,.0802,.0439,.0787,.0399,.0767,.0183,.0375,.0172,.0368,.0341,.0731,.0357,.0733,.0755,.1475,.3245,.6091,.0783,.1591,.0375,.0809,.0362,.0818,.0168,.0399,.015,.0375,.0133,.0353,.0117,.0332,.0101,.0313,.0087,.0296,.0074,.0281,.0032,.0135,.0029,.0132,.0026,.0129,.0023,.0126,.0021,.0123,.0018,.0121,.0016,.0118,.0013,.0116,.0011,.0115,.001,.0113,.0013,.0222,.0006,.0218v.0215l-.0004,.0214-.0021,.0433-.0059,.093-.0024,.0523-.001,.058,.0002,.0315,.0009,.0334,.0016,.0355,.0024,.0377,.0033,.0401,.0043,.0427,.0089,.088,.0073,.0877,.0104,.1747,.0054,.174,.0012,.1733-.007,.3453-.0466,1.0344-.0573,1.0383-.0149,.3462-.0034,.1726,.0004,.1722,.0051,.1716,.0046,.0855,.0061,.0854,.0077,.0851,.0092,.0847,.0106,.0841,.0118,.0832,.0268,.163,.0303,.157,.0163,.0758,.0173,.0743,.0188,.0731,.0207,.0722,.0112,.0359,.0118,.0358,.0125,.0358,.0132,.0358,.014,.0358,.0149,.0359,.0157,.0361,.0167,.0363,.0176,.0365,.0187,.0367,.0399,.0741,.0432,.0749,.0461,.0757,.0992,.1535,.4375,.6368,.1046,.1631,.0495,.0819,.0472,.0819,.0444,.0818,.0414,.0815,.0194,.0406,.0184,.0404,.0175,.0403,.0165,.0401,.0154,.0399,.0143,.0397,.0132,.0394,.012,.0391,.0108,.0389,.0096,.0387,.0087,.0387,.0078,.0388,.007,.0391,.0065,.0395,.0584,.448,.0567,.3788,.0059,.0501,.0044,.0473,.0016,.0224,.0012,.0215,.0007,.0205,.0002,.0195-.0004,.0183-.0004,.0087-.0005,.0084-.0007,.0081-.0009,.0078-.001,.0074-.0012,.0071-.0007,.0034-.0007,.0033-.0007,.0032-.0008,.0031-.0008,.003-.0009,.0029-.0009,.0028-.001,.0027-.001,.0026-.0011,.0025-.0011,.0024-.0012,.0023-.0006,.0011-.0006,.0011-.0006,.0011-.0006,.0011-.0007,.001-.0007,.001-.0007,.001-.0007,.0009-.0007,.0009-.0007,.0009-.0007,.0009-.0007,.0008-.0007,.0008-.0008,.0008-.0007,.0008-.0008,.0007-.0008,.0007-.0009,.0007-.0008,.0006-.0009,.0006-.0009,.0006-.0009,.0006-.0009,.0005-.0009,.0005-.0009,.0005-.001,.0004-.0009,.0004-.0009,.0004-.001,.0004-.001,.0003-.001,.0003-.001,.0003-.001,.0002-.001,.0002-.001,.0002-.001,.0002h-.0011l-.001,.0002h-.0092l-.0012-.0003-.0012-.0002-.0012-.0002-.0012-.0002-.0025-.0005-.0026-.0006-.0026-.0007-.0027-.0008-.0027-.0009-.0027-.001-.0028-.0011-.0028-.0012-.0029-.0013-.0029-.0014-.0029-.0015-.003-.0016-.0031-.0017-.0062-.0036-.0063-.004-.0065-.0043-.0066-.0047-.0068-.005-.0069-.0053-.0071-.0056-.0144-.0121-.015-.0133-.0154-.0143-.0157-.0154-.0326-.0335-.0338-.0368-.0346-.0396-.0707-.0853-.0707-.0901-.0682-.0906-.1234-.1722-.0554-.0815-.0516-.0788-.0484-.0765-.0453-.0744-.0833-.144-.0757-.1398-.071-.1381-.3644-.7396-.0732-.1616-.0352-.0821-.0338-.0828-.0322-.0835-.0303-.084-.0282-.0845-.0258-.0849-.0232-.0853-.0105-.0427-.0098-.0428-.009-.0428-.0082-.0428-.0143-.0858-.012-.0859-.0099-.086-.0151-.1723-.0341-.5181-.0079-.0864-.0095-.0864-.0116-.0863-.0139-.0863-.0164-.0861-.0184-.0852-.093-.385-.0132-.0632-.0053-.0293-.0045-.0278-.0037-.0263-.003-.025-.0023-.0237-.0017-.0226-.0012-.0215-.0007-.0205-.0003-.0196v-.0188l.001-.0356,.0057-.1273,.0011-.059-.0002-.0561-.0015-.0532-.0026-.0502-.0036-.0471-.0046-.0439-.0054-.0407-.003-.0191-.0032-.0183-.0034-.0175-.0035-.0166-.0037-.0158-.0038-.0149-.0039-.014-.004-.0132-.0042-.0123-.0021-.0058-.0021-.0056-.0022-.0053-.0021-.0051-.0022-.0049-.0022-.0047-.0022-.0044-.0022-.0042-.0023-.004-.0023-.0037-.0011-.0018-.0012-.0017-.0011-.0017-.0012-.0016-.0011-.0015-.0012-.0015-.0011-.0014-.0012-.0014-.0012-.0013-.0011-.0012-.0012-.0012-.0012-.0011-.0011-.0011-.0012-.001-.0011-.0009-.0012-.0009-.0012-.0008-.0011-.0008-.0012-.0007-.0012-.0006-.0011-.0006-.0012-.0005-.0011-.0005-.0012-.0004-.0011-.0003-.0011-.0003-.0012-.0002h-.0011l-.0011-.0002h-.0034l-.0011,.0003-.0011,.0002-.0011,.0003-.0011,.0004-.0011,.0004-.001,.0005-.0011,.0006-.0011,.0006-.001,.0007-.0011,.0007-.001,.0008-.001,.0009-.001,.0009-.0011,.001-.001,.0011-.001,.0011-.001,.0012-.001,.0013-.001,.0013-.001,.0014-.001,.0015-.001,.0015-.001,.0016-.001,.0017-.0009,.0017-.001,.0018-.001,.0019-.0009,.0019-.0019,.004-.0018,.0043-.0018,.0046-.0018,.0048-.0017,.0051-.0017,.0054-.0016,.0057-.0016,.0059-.0016,.0062-.0015,.0065-.0029,.0138-.0027,.0149-.0024,.016-.0022,.0172-.002,.0183-.0017,.0195-.0027,.0424-.0016,.0471-.0004,.0519-.0211,.5393v.0739l-.0009,.0382-.0018,.039-.0027,.0397-.0037,.0404-.005,.041-.0063,.0416-.0078,.0422-.0045,.0213-.0049,.0214c-.0746,.543-.0953,.8064-.1185,1.3576l-.0186,.3552-.0254,.3325-.0309,.3127-.0353,.2958-.0789,.5525-.158,1.0295-.0327,.2586-.0275,.2648-.0212,.274-.0137,.286-.0051,.301,.0049,.3189,.0035,.0874,.0051,.0893s.184,1.723,.2621,2.2154l.0934,.6296,.0104,.0889,.0084,.0882,.0057,.0873,.0018,.0432,.0009,.043v.0427l-.0007,.0423-.0018,.042-.0029,.0416-.004,.0412-.0051,.0408-.0063,.0404-.0036,.02-.004,.0199-.0043,.0198-.0046,.0197-.005,.0195-.0053,.0194-.0015,.0048-.0015,.0048-.0016,.0047-.0018,.0046-.0019,.0046-.002,.0045-.0021,.0045-.0021,.0044-.0023,.0044-.0024,.0043-.0024,.0043-.0026,.0042-.0026,.0042-.0027,.0041-.0028,.0041-.0029,.0041-.003,.004-.0031,.004-.0064,.0078-.0067,.0077-.007,.0075-.0073,.0074-.0076,.0072-.0078,.0071-.008,.007-.0082,.0069-.0085,.0068-.0175,.0132-.0182,.0129-.0187,.0126-.157,.0976-.0189,.0127-.0183,.013-.0177,.0133-.0085,.0068-.0084,.0069-.0081,.007-.0079,.0072-.0076,.0073-.0074,.0075-.0071,.0076-.0068,.0078-.0066,.0079-.0062,.0081-.003,.0041-.0029,.0042-.0029,.0042-.0027,.0042-.0027,.0043-.0026,.0043-.0024,.0044-.0024,.0044-.0023,.0045-.0022,.0045-.0021,.0046-.002,.0047-.0019,.0047-.0018,.0048-.0016,.0048-.0015,.0049-.0029,.0098-.0027,.0098-.0024,.0098-.0023,.0097-.0021,.0097-.002,.0097-.0034,.0193-.0027,.0192-.0021,.0191-.0016,.0191-.0011,.019-.0007,.0189-.0004,.0189,.0002,.0377,.0049,.1502v.0377l-.0004,.0189-.0009,.019-.0013,.019-.0018,.0191-.0023,.0192-.0029,.0193-.0017,.0097-.0019,.0097-.002,.0097-.0023,.0097-.0024,.0098-.0026,.0098-.0028,.0098-.0031,.0098-.0065,.0196-.0068,.0195-.0072,.0193-.0075,.0192-.0078,.019-.0082,.0188-.0085,.0186-.0089,.0184-.0092,.0181-.0095,.0179-.0099,.0177-.0102,.0174-.0106,.0171-.0109,.0168-.0112,.0166-.0115,.0163-.0118,.0159-.0121,.0156-.0125,.0153-.0128,.015-.0131,.0146-.0134,.0142-.0137,.0139-.014,.0135-.0143,.0131-.0146,.0127-.015,.0122-.0152,.0118-.0156,.0114-.0159,.0109-.0161,.0105-.0164,.01-.0167,.0095-.017,.0091-.0172,.0086-.0176,.0082-.0178,.0077-.018,.0073-.0182,.0069-.0184,.0066-.0187,.0062-.0188,.0058-.0381,.0106-.0388,.0094-.0392,.0082-.0397,.0072-.04,.0063-.0807,.0103-.1614,.0145-.0203,.0013-.0211,.001-.044,.0009-.0463-.0005-.0482-.0018-.0497-.003-.0509-.0042-.0517-.0053-.0522-.0063-.1044-.0156-.1021-.019-.0493-.0106-.0475-.0113-.0456-.0119-.0432-.0124-.0441-.0138-.0477-.0162-.0501-.0187-.0256-.0103-.0258-.0109-.0258-.0116-.0258-.0123-.0255-.013-.0251-.0137-.0245-.0144-.012-.0075-.0118-.0076-.0117-.0078-.0114-.008-.0112-.0082-.0109-.0084-.0106-.0086-.0103-.0088-.01-.009-.0096-.0092-.0093-.0094-.0089-.0096-.0043-.0048-.0042-.0049-.0041-.0049-.004-.005-.0039-.0051-.0038-.0051-.0037-.0051-.0035-.0052-.0035-.0053-.0033-.0053-.0032-.0054-.0031-.0054-.003-.0055-.0028-.0055-.0027-.0056-.0026-.0056-.0024-.0057-.0023-.0057-.0021-.0058-.002-.0058-.0019-.0059-.0018-.0059-.0016-.006-.0014-.006-.0013-.0061-.0012-.0061-.001-.0062-.0008-.0063-.0007-.0063-.0005-.0064-.0003-.0064-.0002-.0065v-.0065l.0002-.0066,.0004-.0066,.0005-.0067,.0007-.0068,.0009-.0068,.0011-.0069,.0013-.0069,.0015-.007,.0016-.007,.0018-.0071,.002-.0072,.0023-.0072,.0024-.0073,.0027-.0073,.0028-.0074,.0031-.0075,.0032-.0075,.0035-.0076,.0037-.0076,.1557-.3209,.0565-.1095,.0291-.0532,.0296-.0515,.0302-.0494,.0307-.0469,.0156-.0223,.0157-.0215,.0158-.0207,.016-.0198,.0161-.0188,.0162-.0177,.0082-.0085,.0082-.0082,.0082-.0079,.0082-.0076,.0084-.0073,.0085-.007,.0086-.0067,.0087-.0064,.0089-.0061,.009-.0058,.009-.0056,.0092-.0053,.0093-.0051,.0093-.0048,.0095-.0046,.0095-.0044,.0096-.0042,.0096-.004,.0196-.0075,.0198-.0068,.02-.0062,.0201-.0057,.0202-.0053,.1606-.0362,.0193-.0049,.019-.0053,.0186-.0057,.0182-.0062,.0089-.0033,.0089-.0035,.0087-.0036,.0085-.0038,.0085-.004,.0083-.0042,.0082-.0044,.0081-.0046,.0079-.0048,.0077-.0051,.0076-.0053,.0074-.0056,.0072-.0058,.0071-.0061,.0068-.0064,.0067-.0067,.0255-.0269,.0238-.0264,.0222-.0259,.0207-.0255,.0193-.0252,.0179-.0249,.0166-.0248,.0154-.0246,.0142-.0246,.0132-.0246,.0122-.0247,.0113-.0249,.0104-.0251,.0096-.0254,.009-.0257,.0084-.0262,.0078-.0267,.0073-.0273,.0069-.0279,.0066-.0286,.0125-.0597,.0676-.365,.0082-.0434,.0073-.0434,.0063-.0433,.0055-.0433,.0047-.0432,.0039-.0432,.0031-.0432,.0024-.0431,.0027-.0861,.0002-.086-.002-.0859-.0038-.0858-.0056-.0858-.007-.0857-.017-.1713-.3267-1.6821-.0397-.1624-.0373-.1677-.0352-.175-.0336-.1844-.1888-.7262-.0303-.176-.0153-.0759-.0077-.0343-.0077-.0316-.0078-.0287-.0039-.0132-.0039-.0124-.0039-.0116-.004-.0107-.002-.005-.002-.0048-.002-.0046-.002-.0044-.002-.0042-.002-.0039-.002-.0037-.002-.0035-.001-.0016-.001-.0016-.001-.0015-.001-.0015-.001-.0014-.001-.0013-.001-.0013-.001-.0012-.001-.0011-.001-.0011-.001-.001-.001-.001-.001-.0009-.001-.0008-.001-.0008-.001-.0007-.001-.0006-.001-.0006-.001-.0005-.001-.0004-.001-.0004-.001-.0003-.001-.0002-.001-.0002h-.0042l-.001,.0002-.001,.0003-.001,.0003-.001,.0004-.001,.0005-.001,.0005-.001,.0006-.001,.0007-.001,.0008-.0011,.0008-.001,.0009-.001,.001-.001,.0011-.001,.0011-.001,.0012-.0011,.0013-.001,.0014-.001,.0014-.001,.0015-.0011,.0016-.001,.0017-.001,.0017-.0011,.0018-.001,.0019-.0021,.004-.0021,.0043-.0021,.0047-.0021,.005-.0022,.0053-.0021,.0056-.0043,.0121-.0043,.0132-.0044,.0143-.0044,.0153-.0089,.0335-.018,.0771-.0938,.4819-.1061,.509-.013,.0789-.0107,.0795-.0082,.0809-.0059,.0823-.0038,.0836-.002,.0847v.1723l-.0333,.9215-.0043,.0858-.0023,.086,.0002,.0862,.0012,.0432,.002,.0433,.0028,.0434,.0037,.0436,.0047,.0437,.0057,.0438,.0068,.044,.008,.0442,.0092,.0443,.0104,.0445,.0118,.0447,.0131,.045,.0146,.0452,.0156,.0453,.0821,.2245,.0146,.0438,.0132,.0431,.006,.0213,.0055,.0211,.0049,.0209,.0044,.0207,.0038,.0204,.0031,.0202,.0012,.01,.0011,.0099,.0009,.0099,.0007,.0098,.0005,.0097,.0003,.0096v.0191l-.0004,.0094-.0005,.0093-.0009,.0092-.001,.0092-.0013,.0091-.0015,.009-.0018,.0089-.0021,.0088-.0023,.0087-.0026,.0086-.0029,.0085-.0031,.0085-.0033,.0084-.0036,.0083-.0038,.0082-.004,.0081-.0042,.0081-.0044,.008-.0046,.008-.0048,.0079-.005,.0078-.0051,.0078-.0108,.0154-.0114,.0153-.0119,.0151-.0124,.015-.0128,.0149-.0267,.0295-.1117,.1189-.0268,.0309-.0129,.0158-.0125,.016-.012,.0163-.0115,.0166-.011,.0169-.0052,.0086-.0051,.0086-.0049,.0087-.0047,.0088-.0045,.0089-.0043,.009-.0042,.0091-.0039,.0092-.0037,.0093-.0035,.0094-.0034,.0095-.0032,.0096-.0031,.0097-.0028,.0098-.0052,.0198-.0046,.0201-.0042,.0203-.0036,.0206-.0032,.0208-.0028,.021-.0046,.0425-.0151,.216-.0041,.0426-.0025,.0211-.0029,.0209-.0032,.0207-.0037,.0205-.0042,.0202-.0048,.0199-.0053,.0196-.0029,.0097-.0031,.0096-.0032,.0095-.0034,.0094-.0035,.0094-.0038,.0093-.0039,.0092-.0041,.0091-.0042,.009-.0044,.0089-.0045,.0088-.0047,.0087-.0098,.0172-.0104,.0169-.0109,.0165-.0115,.0162-.012,.0158-.0125,.0154-.0129,.0151-.0134,.0147-.0139,.0144-.0143,.014-.0146,.0137-.0151,.0133-.0154,.013-.0158,.0126-.0161,.0123-.0164,.0119-.0167,.0115-.017,.0112-.0173,.0108-.0175,.0105-.0176,.0101-.0179,.0098-.0181,.0094-.0365,.0177-.037,.0163-.0374,.0148-.0377,.0135-.0379,.0122-.0382,.011-.0384,.0099-.0386,.0089-.0388,.008-.0389,.0072-.0782,.0123-.0786,.01-.1573,.0162-.1569,.0132-.0785,.0036-.0394,.0005-.0394-.0005-.0396-.0017-.0397-.003-.0398-.0044-.02-.0028-.02-.0032-.02-.0037-.0201-.0041-.0201-.0046-.0203-.0051-.0203-.0056-.0203-.0061-.0204-.0067-.0204-.0072-.0809-.0303-.0782-.0313-.038-.0164-.0372-.017-.0362-.0177-.0353-.0186-.0172-.0097-.017-.0099-.0167-.0102-.0165-.0105-.0161-.0108-.0159-.0111-.0156-.0115-.0153-.0118-.0149-.0122-.0146-.0126-.0143-.013-.0139-.0134-.0136-.0138-.0132-.0143-.0129-.0147-.0125-.0152-.0013-.0017-.0013-.0017-.0012-.0018-.0012-.0018-.0011-.0019-.001-.0019-.001-.002-.0009-.002-.0009-.0021-.0009-.0021-.0009-.0022-.0007-.0022-.0007-.0023-.0007-.0023-.0006-.0023-.0006-.0024-.0005-.0024-.0005-.0025-.0004-.0025-.0004-.0025-.0003-.0026-.0003-.0026-.0002-.0027-.0002-.0027v-.0028l-.0002-.0028v-.0115l.0002-.006,.0004-.0061,.0006-.0063,.0007-.0064,.0009-.0066,.0011-.0067,.0012-.0068,.0014-.0069,.0015-.0071,.0035-.0145,.004-.015,.0046-.0154,.0051-.0158,.0057-.0162,.0062-.0165,.0138-.0341,.0156-.0353,.0172-.0362,.0187-.037,.02-.0376,.0212-.038,.0223-.0382,.0469-.0762,.0493-.0746,.0504-.0715,.0502-.0669,.0247-.0312,.0242-.0295,.0235-.0276,.0228-.0255,.0219-.0231,.0207-.0206,.0099-.0093,.0096-.0086,.0092-.0079,.0089-.0071,.0087-.0066,.0086-.0063,.0086-.006,.0085-.0057,.0085-.0054,.0085-.0051,.0084-.0048,.0084-.0046,.0084-.0043,.0084-.0041,.0083-.0038,.0083-.0036,.0164-.0066,.0163-.0059,.0162-.0053,.016-.0047,.0159-.0042,.0157-.0038,.0912-.0198,.0147-.0036,.0145-.0039,.0143-.0043,.0142-.0047,.007-.0026,.007-.0027,.007-.0029,.0069-.0031,.0068-.0033,.0068-.0035,.0068-.0037,.0067-.0039,.0067-.0041,.0067-.0043,.0067-.0046,.0065-.0049,.0066-.0051,.0065-.0054,.0065-.0057,.0064-.006,.0063-.0063,.0063-.0066,.0063-.007,.0062-.0073,.0235-.0292,.0209-.0277,.0095-.0134,.009-.0131,.0085-.0129,.008-.0127,.0076-.0126,.0072-.0125,.0068-.0124,.0064-.0124,.0062-.0124,.0058-.0125,.0056-.0126,.0054-.0127,.0102-.026,.0097-.027,.0628-.2009,.0491-.1647,.0439-.1645,.0392-.165,.0349-.1663,.0308-.168,.0262-.1697,.0211-.1713,.0084-.0862-.05-.47-.0187-.0848-.0204-.0846-.022-.0846-.0477-.1692s-.3066-.7531-.3718-1.0609c-.0219-.1035-.0504-.3579-.0504-.3579l-.0078-.046-.0042-.0219-.0043-.0212-.0046-.0203-.0048-.0194-.0051-.0184-.0027-.0088-.0027-.0085-.0028-.0082-.0029-.0079-.003-.0076-.0031-.0073-.0031-.007-.0032-.0067-.0016-.0032-.0016-.0031-.0017-.0031-.0017-.003-.0017-.0029-.0018-.0028-.0018-.0027-.0018-.0026-.0018-.0025-.0019-.0024-.0019-.0023-.0019-.0022-.002-.0021-.002-.002-.002-.0019-.001-.0009-.001-.0009-.001-.0009-.001-.0009-.001-.0008-.001-.0008-.001-.0008-.001-.0008-.0011-.0007-.001-.0007-.0011-.0007-.0011-.0006-.0011-.0006-.0011-.0006-.0011-.0006-.0022-.001-.0012-.0005-.0012-.0005-.0011-.0004-.0012-.0004-.0012-.0004-.0012-.0003-.0012-.0003-.0012-.0003-.0012-.0003-.0036-.0006s.0507-.02-.0024-.0003c-.0532,.0197-.0005,.0409-.0822,.1951-.0685,.1056-.1083,.2024-.1992,.3059-.0909,.1035-.2001,.2111-.2001,.2111l-.0358,.0346-.0181,.0166-.0182,.0161-.0182,.0154-.0183,.0147-.0183,.0139-.0184,.0132-.0184,.0125-.0184,.0118-.0184,.0112-.0184,.0107-.0366,.02-.0363,.0185-.1401,.0677-.0332,.0175-.0162,.0091-.016,.0095-.0157,.0099-.0154,.0103-.0151,.0108-.0148,.0113-.0145,.0119-.0071,.0062-.007,.0064-.007,.0066-.0068,.0067-.0067,.0069-.0067,.0071-.0065,.0073-.0065,.0075-.0063,.0078-.0062,.008-.0061,.0083-.006,.0086-.0059,.0089-.0057,.0092-.0056,.0094-.0055,.0097-.0054,.0099-.0052,.0102-.0103,.021-.0099,.0218-.0096,.0224-.0092,.0229-.0176,.047-.064,.186-.0157,.0415-.0079,.0194-.0081,.0183-.0041,.0087-.0042,.0084-.0042,.0081-.0042,.0077-.0043,.0074-.0043,.007-.0045,.0066-.0023,.0032-.0023,.0031-.0023,.003-.0023,.0029-.0023,.0028-.0024,.0026-.0023,.0025-.0024,.0024-.0024,.0023-.0024,.0022-.0024,.0021-.0024,.002-.0025,.0018-.0012,.0009-.0013,.0008-.0012,.0008-.0013,.0008-.0013,.0007-.0013,.0007-.0013,.0007-.0013,.0007-.0013,.0006-.0013,.0006-.0013,.0006-.0013,.0005-.0013,.0005-.0013,.0005-.0013,.0004-.0013,.0004-.0013,.0004-.0014,.0003-.0013,.0003-.0013,.0003-.0014,.0002-.0014,.0002h-.0014l-.0014,.0003h-.0275l-.0229-.0008-.0109-.0007-.0105-.0009-.01-.0011-.0097-.0013-.0093-.0015-.0089-.0017-.0086-.0019-.0082-.0021-.0079-.0023-.0038-.0012-.0038-.0013-.0037-.0013-.0035-.0014-.0035-.0014-.0034-.0015-.0033-.0015-.0033-.0016-.0032-.0017-.0031-.0017-.0031-.0018-.003-.0018-.0029-.0019-.0028-.0019-.0028-.002-.0027-.002-.0026-.0021-.0026-.0022-.0025-.0022-.0025-.0023-.0024-.0023-.0024-.0024-.0023-.0024-.0023-.0025-.0022-.0025-.0021-.0026-.0021-.0027-.002-.0027-.002-.0028-.0019-.0028-.0019-.0029-.0018-.0029-.0018-.003-.0018-.0031-.0017-.0031-.0016-.0032-.0016-.0032-.0015-.0033-.0031-.0068-.0029-.007-.0027-.0073-.0026-.0075-.0025-.0077-.0024-.008-.0023-.0082-.0022-.0085-.0042-.0177-.004-.0187-.0422-.246-.0056-.0305-.0051-.0312-.0093-.0639-.0419-.3809-.0076-.055-.0042-.0258-.0044-.0245-.0048-.0231-.0025-.011-.0026-.0106-.0027-.0102-.0029-.0098-.0029-.0093-.0031-.0089-.0032-.0084-.0016-.004-.0016-.0039-.0017-.0038-.0017-.0037-.0018-.0035-.0018-.0034-.0018-.0033-.0019-.0032-.0019-.003-.002-.0029-.002-.0028-.001-.0013-.001-.0013-.001-.0013-.001-.0012-.001-.0012-.0011-.0012-.001-.0011-.0011-.0011-.0011-.001-.0011-.001-.0011-.001-.0011-.0009-.0011-.0009-.0012-.0009-.0012-.0008-.0012-.0008-.0012-.0008-.0012-.0007-.0012-.0007-.0012-.0006-.0012-.0006-.0012-.0006-.0012-.0005-.0012-.0005-.0013-.0004-.0013-.0004-.0013-.0004-.0013-.0003-.0013-.0003-.0013-.0002-.0013-.0002-.0013-.0002h-.0013l-.0013-.0002h-.0056l-.0016,.0002-.0016,.0002-.0016,.0003-.0017,.0003-.0017,.0004-.0018,.0004-.0017,.0005-.0018,.0005-.0018,.0006-.0018,.0006-.0018,.0007-.0018,.0007-.0018,.0008-.0018,.0008-.0037,.0018-.0038,.002-.0038,.0022-.0039,.0024-.004,.0026-.004,.0028-.0041,.0029-.0042,.0031-.0042,.0033-.0085,.0071-.0086,.0077-.0089,.0083-.009,.0089-.0092,.0094-.0093,.01-.019,.0214-.0195,.0231-.0198,.0246-.0406,.0527-.0826,.113-.0037,.0053-.0036,.0054-.0035,.0054-.0034,.0055-.0064,.0112-.0061,.0114-.0057,.0116-.0056,.0117-.0307,.0698-.0052,.0111-.0054,.0109-.0056,.0105-.0029,.0051-.003,.005-.0031,.0049-.0032,.0048-.0032,.0047-.0033,.0046-.0035,.0045-.0035,.0043-.0037,.0042-.0038,.0041-.002,.002-.002,.0019-.0021,.0019-.002,.0019-.0021,.0018-.0021,.0018-.0021,.0017-.0022,.0017-.0023,.0016-.0023,.0016-.0023,.0016-.0024,.0015-.0024,.0015-.0024,.0014-.0025,.0014-.0026,.0013-.0026,.0013-.0026,.0012-.0027,.0012-.0027,.0011-.0028,.0011-.0029,.001-.0029,.001-.0029,.0009-.0031,.0008-.0031,.0008-.0031,.0007-.0032,.0007-.0032,.0006-.0032,.0005-.0034,.0005-.0034,.0004-.0034,.0004-.0035,.0003-.0072,.0004-.0075,.0002h-.0078l-.008-.0005-.0082-.0006-.0085-.0009-.0089-.0012-.0088-.0014-.0085-.0016-.0081-.0018-.0078-.0019-.0074-.0021-.007-.0022-.0034-.0012-.0033-.0012-.0033-.0013-.0031-.0013-.0031-.0013-.003-.0014-.0029-.0014-.0029-.0015-.0028-.0015-.0027-.0015-.0026-.0016-.0026-.0016-.0025-.0017-.0024-.0017-.0024-.0018-.0023-.0018-.0023-.0018-.0021-.0019-.0021-.0019-.0021-.002-.002-.002-.0019-.002-.0018-.0021-.0018-.0021-.0018-.0022-.0016-.0022-.0016-.0023-.0016-.0023-.0015-.0023-.0015-.0024-.0013-.0024-.0013-.0025-.0013-.0025-.0012-.0025-.0012-.0026-.0011-.0026-.0011-.0027-.001-.0027-.001-.0028-.0009-.0028-.0009-.0028-.0009-.0029-.0008-.0029-.0008-.003-.0014-.0061-.0013-.0062-.0011-.0064-.001-.0066-.0009-.0067-.0007-.0069-.0006-.0071-.0005-.0072-.0006-.015-.0003-.0157,.0002-.0335,.0033-.1172,.0003-.0447-.0009-.0476-.0002-.0123v-.0123l.0002-.0248,.0011-.0249,.0016-.025,.0021-.025,.0026-.025,.0253-.1925,.0024-.0223,.002-.0217,.0015-.0211,.0009-.0204,.0002-.0099v-.0098l-.0002-.0096-.0004-.0094-.0006-.0091-.0009-.0089-.0011-.0087-.0007-.0043-.0007-.0042-.0008-.0042-.0009-.0041-.0009-.004-.001-.004-.001-.0039-.0012-.0038-.0012-.0038-.0013-.0037-.0013-.0036-.0014-.0036-.0015-.0035-.0016-.0034-.0016-.0034-.0017-.0033-.0018-.0032-.002-.0032-.002-.0031-.0021-.003-.0022-.0029-.0023-.0029-.0012-.0014-.0012-.0014-.0012-.0014-.0012-.0013-.0013-.0013-.0013-.0013-.0013-.0013-.0013-.0013-.0013-.0013-.0014-.0012-.0029-.0024-.0029-.0023-.003-.0022-.0032-.0022-.0032-.0021-.0034-.002-.0035-.0019-.0035-.0018-.0037-.0017-.0038-.0016-.0039-.0015-.004-.0015-.0042-.0014-.0043-.0013-.0043-.0012h-.0006l-.0004-.0002h-.0006l-.0003-.0002h-.0013l-.0007-.0002h-.0027l-.0007,.0002h-.0007l-.0007,.0003-.0007,.0002-.0007,.0002-.0007,.0002-.0007,.0002-.0007,.0003-.0007,.0003-.0007,.0003-.0008,.0003-.0007,.0004-.0008,.0004-.0007,.0004-.0016,.0009-.0016,.001-.0016,.0011-.0016,.0011-.0016,.0012-.0017,.0013-.0018,.0014-.0018,.0015-.0018,.0016-.0018,.0017-.0037,.0036-.0038,.004-.004,.0043-.004,.0046-.0042,.005-.0087,.0109-.0092,.0122-.0197,.028-.0453,.0698-.0064,.0104-.0061,.0105-.0059,.0105-.0057,.0105-.0107,.021-.0101,.021-.0452,.1025-.0092,.0196-.0096,.0191-.005,.0094-.0051,.0092-.0053,.0091-.0055,.0089-.0057,.0088-.006,.0086-.0062,.0084-.0065,.0082-.0068,.008-.0071,.0079-.0025,.0027-.0025,.0029-.0025,.003-.0026,.0032-.005,.0067-.0051,.0072-.0329,.049-.006,.0086-.0062,.0085-.0065,.0084-.0067,.0082-.0034,.004-.0035,.004-.0036,.0039-.0037,.0038-.0037,.0037-.0038,.0036-.0039,.0035-.004,.0034-.004,.0032-.0042,.0031-.0042,.003-.0043,.0028-.0044,.0027-.0045,.0025-.0023,.0012-.0023,.0011-.0024,.0011-.0024,.0011-.0024,.001-.0024,.001-.0024,.0009-.0025,.0009-.0025,.0008-.0025,.0008-.0026,.0007-.0026,.0006-.0026,.0006-.0026,.0005-.0027,.0005-.0027,.0004-.0027,.0004-.0027,.0003-.0027,.0002-.0028,.0002h-.0029l-.0029,.0002h-.0059l-.0029-.0002-.0031-.0002-.003-.0003-.0031-.0004-.0031-.0004-.0031-.0005-.0032-.0006-.0032-.0006-.0032-.0007-.0032-.0008-.0033-.0009-.0034-.0009-.0034-.001-.0034-.0011-.0069-.0024-.0071-.0028-.0072-.0031-.0054-.0025-.0052-.0026-.0051-.0027-.0049-.0028-.0047-.0029-.0046-.003-.0045-.0031-.0043-.0032-.0041-.0033-.004-.0034-.0038-.0035-.0037-.0035-.0035-.0036-.0034-.0037-.0032-.0038-.0031-.0039-.003-.004-.0028-.0041-.0027-.0041-.0026-.0042-.0024-.0043-.0023-.0044-.0022-.0045-.0021-.0045-.002-.0046-.0018-.0047-.0017-.0048-.0016-.0048-.0015-.0049-.0014-.005-.0013-.005-.0012-.0051-.001-.0052-.001-.0052-.0009-.0053-.0008-.0054-.0007-.0054-.0006-.0055-.0005-.0055-.0004-.0056-.0006-.0114-.0002-.0116v-.0118l.0005-.012,.0007-.0122,.001-.0124,.0012-.0126,.0015-.0128,.0035-.026,.0043-.0266,.0104-.0546,.0364-.1707,.0054-.0287,.005-.0286,.0043-.0284,.0036-.0282,.0014-.014,.0012-.0139,.001-.0138,.0007-.0137,.0004-.0136v-.0268l-.0007-.0132-.0018-.0252-.0012-.0119-.0013-.0114-.0015-.011-.0016-.0105-.0017-.0101-.0019-.0096-.0021-.0092-.0021-.0088-.0023-.0084-.0025-.008-.0026-.0076-.0013-.0037-.0014-.0036-.0014-.0035-.0015-.0034-.0015-.0033-.0015-.0032-.0015-.0031-.0015-.0031-.0016-.003-.0016-.0029-.0017-.0028-.0016-.0027-.0017-.0027-.0018-.0026-.0018-.0025-.0018-.0024-.0018-.0024-.0018-.0023-.0019-.0022-.002-.0022-.0019-.0021-.002-.002-.002-.002-.0021-.0019-.002-.0019-.0021-.0018-.0021-.0017-.0021-.0017-.0021-.0016-.0022-.0016-.0022-.0015-.0022-.0015-.0023-.0014-.0023-.0014s-.1172-.0507-.186-.0964c-.1401-.0754-.201-.1634-.2789-.2559-.0572-.0665-.1299-.1081-.1611-.1153-.1673-.026-.2004-.0145-.3405-.0076s-.2608,.004-.2608,.004l-.2915-.0045-.3002-.0129-.2869-.0212-.1317-.0137-.1201-.0157-.0549-.0086-.051-.0091-.0467-.0096-.0217-.005-.0204-.0051-.606-.1769-.3581-.0999-.1458-.0356-.0587-.0121-.025-.0043-.022-.0031-.2422-.0331-.0394-.004-.0388-.0028-.0192-.0009-.019-.0005h-.0188l-.0186,.0004-.0184,.0009-.0181,.0015-.0179,.002-.0177,.0027-.0087,.0016-.0087,.0017-.0086,.0019-.0085,.0021-.0084,.0022-.0084,.0024-.0083,.0026-.0082,.0028-.0082,.003-.0081,.0032-.008,.0034-.0079,.0036-.0078,.0038-.0078,.004-.0076,.0042-.0076,.0045-.0074,.0047-.0074,.0049-.0073,.0051-.0072,.0054-.0071,.0056-.007,.0058-.007,.006-.0069,.0062-.0067,.0064-.0067,.0066-.0065,.0068-.0065,.0069-.0063,.0071-.0063,.0073-.0062,.0075-.0061,.0077-.0119,.0158-.0115,.0164-.0111,.017-.0107,.0176-.0103,.0181-.0099,.0186-.0095,.0191-.009,.0196-.0087,.02-.0082,.0204-.0078,.0207-.0073,.021-.0069,.0213-.0065,.0216-.006,.0218-.0056,.022-.0051,.0222-.0046,.0223-.0042,.0224-.0037,.0225-.0032,.0225-.0027,.0225-.0023,.0225-.0018,.0224-.0013,.0224-.0009,.0223-.0004,.0222v.0221l.0005,.0221,.0009,.022,.0012,.0219,.0015,.0219,.0041,.0436,.0052,.0434,.0062,.0432,.0575,.7705,.0587,.6988,.0034,.0871,.0005,.0433-.0002,.0432-.0012,.043-.0022,.0428-.0033,.0426-.0045,.0424s-.016,.2214-.016,.344-.0038,.3143-.0038,.3143l-.0072,.0415-.0063,.0417-.0051,.0418-.002,.021-.0016,.021-.0012,.0211-.0009,.0211-.0004,.0212v.0212l.0007,.0213,.0011,.0214,.0015,.0214,.002,.0215,.0024,.0215,.0028,.0216,.0032,.0216,.0036,.0216,.0081,.0434,.0093,.0435,.0103,.0435,.0112,.0435,.0242,.087,.0758,.2577,.0222,.084,.02,.083,.0181,.0822,.0166,.0816,.119,.6525,.0661,.3341,.0728,.3396,.1216,.5187,.0184,.0869,.0081,.0433,.0071,.0432,.006,.0431,.0047,.0429,.0019,.0214,.0015,.0214,.001,.0213,.0007,.0212,.0002,.0212-.0002,.0211-.0007,.021-.0012,.021-.0017,.0209-.0022,.0208-.0028,.0208-.0034,.0207-.004,.0206-.0045,.0205-.005,.0204-.0055,.0204-.0059,.0203-.0063,.0203-.0136,.0404-.0147,.0403-.0792,.2011-.0147,.0406-.0137,.0408-.0063,.0205-.006,.0206-.0055,.0207-.005,.0208-.0045,.0209-.004,.021-.0034,.0211-.0027,.0212-.0021,.0213-.0015,.0214-.0009,.0215-.0004,.0216v.0217l.0006,.0218,.0022,.0436,.0034,.0437,.022,.2153,.0029,.0417,.0009,.0206,.0005,.0204v.0202l-.0002,.02-.0009,.0197-.0014,.0195-.001,.0096-.0011,.0096-.0013,.0095-.0015,.0094-.0016,.0094-.0018,.0093-.002,.0092-.0022,.0091-.0024,.0091-.0026,.009-.0027,.0089-.003,.0088-.0032,.0087-.0034,.0087-.0035,.0086-.0037,.0085-.0038,.0084-.0041,.0083-.0042,.0083-.0045,.0082-.0045,.0081-.0048,.008-.0049,.008-.0051,.0079-.0105,.0156-.0111,.0153-.0117,.015-.0122,.0147-.0128,.0144-.0132,.0141-.0137,.0138-.0141,.0135-.0146,.0132-.0149,.0129-.0153,.0126-.0157,.0123-.016,.0121-.0162,.0118-.0334,.0227-.0342,.0216-.035,.0205-.0355,.0195-.0358,.0184-.036,.0174-.0361,.0164-.0363,.0154-.0365,.0144-.0366,.0135-.0369,.0126-.0371,.0118-.0372,.0109-.0375,.0101-.0377,.0094-.038,.0086-.0383,.0079-.0773,.0138-.0784,.0113-.0797,.0089-.0401,.0034-.0403,.0026-.0404,.0017-.0405,.0007-.0404-.0004-.0404-.0015-.0403-.0027-.0402-.0041-.0399-.0055-.0199-.0033-.0198-.0037-.0197-.0041-.0197-.0044-.0195-.0049-.0194-.0053-.0193-.0057-.0192-.0062-.0191-.0066-.019-.0071-.1701-.0637-.045-.0178-.0445-.0186-.0432-.0195-.0208-.0101-.0201-.0103-.0195-.0106-.0186-.0108-.0089-.0055-.0087-.0056-.0084-.0056-.0082-.0057-.0079-.0058-.0076-.0058-.0073-.0059-.007-.006-.0067-.006-.0032-.003-.0031-.0031-.0031-.0031-.0029-.0031-.0028-.0031-.0027-.0031-.0026-.0032-.0026-.0032-.0024-.0032-.0023-.0032-.0023-.0032-.0021-.0032-.002-.0033-.002-.0033-.0018-.0033-.0017-.0033-.0016-.0033-.0015-.0034-.0013-.0034-.0007-.0017-.0006-.0017-.0005-.0017-.0005-.0017-.0005-.0017-.0005-.0017-.0005-.0017-.0004-.0017-.0004-.0017-.0004-.0017-.0003-.0017-.0004-.0017-.0002-.0018-.0002-.0018-.0002-.0018-.0002-.0018v-.0018l-.0002-.0018v-.0018l-.0002-.0018v-.0072l.0002-.0018v-.0018l.0003-.0018,.0002-.0018,.0002-.0018,.0003-.0018,.0003-.0018,.0004-.0018,.0004-.0019,.0004-.0019,.0004-.0019,.0005-.0019,.0005-.0019,.0005-.0019,.0935-.3062,.0175-.0518,.0183-.0511,.0193-.0501,.0203-.0488,.0106-.0238,.0109-.0233,.0113-.0228,.0116-.0223,.012-.0217,.0123-.021,.0127-.0204,.0131-.0197,.0135-.0189,.007-.0092,.007-.009,.0071-.0087,.0073-.0085,.0074-.0083,.0075-.0081,.0076-.0078,.0076-.0076,.0078-.0073,.0078-.0071,.0079-.0069,.0079-.0067,.0161-.0127,.0162-.012,.0164-.0113,.0165-.0106,.0167-.0101,.0168-.0096,.0168-.0092,.1347-.0668,.0327-.0175,.0161-.0092,.0159-.0097,.0156-.0101,.0154-.0107,.0076-.0056,.0075-.0058,.0074-.0059,.0074-.0061,.0072-.0063,.0072-.0065,.0071-.0067,.007-.0069,.0069-.0072,.0068-.0074,.0067-.0077,.0066-.0079,.0065-.0082,.0063-.0084,.0062-.0087,.0061-.009,.0118-.0184,.0114-.0186,.0109-.0189,.0105-.019,.0101-.0192,.0096-.0194,.0092-.0196,.0088-.0198,.0084-.0199,.008-.0201,.0076-.0202,.0072-.0204,.0069-.0205,.0066-.0206,.0121-.0416,.0108-.042,.0096-.0424,.0085-.0427,.0074-.0429,.0065-.0431,.0056-.0433,.0048-.0434,.0042-.0434,.0063-.0868,.0042-.0868,.0034-.1734-.0019-.3468-.0004-.0224-.001-.0239-.0016-.0253-.0022-.0266-.006-.0569-.008-.0614-.0099-.0653-.0116-.0688-.0275-.1457s-.0252-.1082-.0878-.3351c-.0626-.2269-.2933-.8834-.6275-1.9146-.3342-1.0311-.7417-2.3116-.7417-2.3116l-.0271-.0842-.0143-.0417-.0151-.0413-.0159-.0409-.0168-.0403-.0179-.0397-.0093-.0196-.0096-.0194-.01-.0193-.0103-.0191-.0107-.0189-.011-.0187-.0114-.0184-.0118-.0182-.0123-.018-.0126-.0177-.0131-.0174-.0135-.0172-.0139-.0169-.0143-.0165-.0145-.0162-.0149-.0158-.0151-.0155-.0154-.0151-.0156-.0146-.0159-.0142-.016-.0137-.0162-.0133-.0163-.0128-.0164-.0122-.0165-.0117-.0165-.0111-.0165-.0106-.0165-.0099-.0165-.0093-.0165-.0087-.0164-.008-.0162-.0073-.0161-.0066-.008-.0031-.0079-.0029-.0079-.0027-.0079-.0025-.0078-.0023-.0078-.0021-.0077-.0019-.0076-.0017-.0075-.0015-.0075-.0013-.0074-.0011-.0073-.0009-.0073-.0007-.0072-.0005-.0071-.0003h-.007l-.007,.0002-.0068,.0004-.0067,.0006-.0066,.0009-.0065,.0011-.0064,.0013-.0063,.0015-.0062,.0017-.0061,.0019-.006,.0022-.006,.0024-.0059,.0026-.0057,.0028-.0057,.003-.0056,.0032-.0055,.0034-.0054,.0036-.0054,.0038-.0052,.0039-.0052,.0041-.0051,.0043-.005,.0045-.0049,.0047-.0049,.0049-.0048,.005-.0047,.0052-.0046,.0054-.0046,.0056-.0045,.0057-.0045,.0059-.0043,.0061-.0043,.0062-.0042,.0064-.0041,.0065-.0081,.0135-.0078,.0141-.0076,.0147-.0073,.0153-.0071,.0158-.0069,.0164-.0066,.0169-.0065,.0174-.2202,.7833-.0236,.0814-.0251,.079-.0266,.077-.0279,.0755-.1221,.3018-.0161,.0428-.0162,.0457-.0163,.0493-.0164,.0534-.0164,.0582-.0165,.0635-.0164,.0695-.0164,.076-.0164,.0831-.0162,.0909-.0322,.2074-.0315,.243-.0302,.2712-.0537,.5869-.0401,.5797-.0133,.2622-.0078,.2305-.002,.1912,.001,.0815,.002,.073,.0031,.065,.0038,.0577,.0044,.051,.0049,.0449,.0053,.0395,.0054,.0346,.0056,.0304,.0214,.1015,.0016,.0092,.0015,.0091,.0012,.009,.001,.0089,.0009,.0088,.0006,.0087,.0004,.0085,.0002,.0084v.0166l-.0005,.0081-.0005,.008-.0007,.0079-.0009,.0078-.001,.0077-.0013,.0077-.0014,.0076-.0015,.0075-.0018,.0074-.0019,.0073-.0021,.0072-.0022,.0071-.0024,.0071-.0025,.007-.0027,.0069-.0028,.0068-.0029,.0068-.0031,.0067-.0032,.0066-.0034,.0066-.0035,.0065-.0036,.0065-.0038,.0064-.0079,.0126-.0083,.0124-.0089,.0122-.0092,.0121-.0096,.0119-.01,.0117-.0104,.0116-.0107,.0115-.0223,.0227-.0234,.0225-.1533,.1368-.0261,.0243-.0256,.0251-.0251,.026-.0244,.027-.0119,.0139-.0117,.0142-.0114,.0145-.0111,.0149-.0108,.0152-.0105,.0156-.0101,.016-.0098,.0164-.0093,.0168-.0089,.0172-.0085,.0177-.008,.0182-.0076,.0186-.007,.0191-.0065,.0197-.0059,.0202-.0054,.0207Z"/></g><g><path d="M12.135,9.2062l1.3789,1.8081,2.2295-1.7002-1.3789-1.8081,.8301-.6333,3.2764,4.2959-.8301,.6333-1.3838-1.8145-2.2295,1.7007,1.3838,1.814-.8301,.6333-3.2764-4.2959,.8301-.6333Z"/><path d="M20.9006,4.279c.5322-.1714,1.0469-.2158,1.5439-.1328,.4961,.0825,.9375,.29,1.3232,.6226s.6582,.7451,.8164,1.2383c.1543,.4814,.1748,.9673,.0605,1.4575-.1143,.4907-.3506,.9185-.709,1.2842-.3574,.3657-.8066,.6353-1.3467,.8086-.5322,.1714-1.0537,.2119-1.5635,.1211s-.9512-.2988-1.3242-.6245-.6377-.7324-.7949-1.2212c-.1514-.4712-.1719-.9531-.0625-1.4463s.3408-.9229,.6943-1.2896c.3535-.3672,.8076-.6396,1.3623-.8179Zm-.6865-.7705c.04,.125,.0283,.2534-.0352,.3848s-.1621,.2188-.2969,.2622c-.1357,.0435-.2676,.0327-.3965-.0327-.1299-.0654-.2158-.1646-.2588-.2969-.041-.1279-.0283-.2573,.0381-.3882s.167-.2183,.3018-.2617c.1328-.0425,.2627-.0303,.3916,.0366,.1289,.0674,.2139,.1655,.2559,.2959Zm-.2803,3.9941c.1104,.3408,.2861,.623,.5283,.8457s.5254,.3647,.8496,.4258c.3242,.0605,.6611,.0352,1.0088-.0771,.5283-.1694,.9092-.4746,1.1426-.9155,.2334-.4404,.2656-.9224,.0977-1.4453-.1094-.3408-.2852-.6235-.5264-.8481-.2422-.2241-.5264-.3667-.8525-.4268-.3271-.0601-.6641-.0342-1.0127,.0781-.3486,.1118-.6387,.2881-.8682,.5288-.2305,.2402-.376,.5205-.4385,.8398s-.0391,.6509,.0713,.9946Zm2.0957-4.5781c.042,.1328,.0303,.2632-.0352,.3911-.0654,.1284-.165,.2139-.2979,.2563-.1348,.0435-.2656,.0317-.3926-.0342-.127-.0664-.2119-.1655-.2539-.2983-.041-.125-.0293-.2534,.0342-.3848s.1631-.2188,.2979-.2622c.1279-.041,.2568-.0283,.3877,.0376,.1309,.0664,.2178,.1646,.2598,.2944Z"/><path d="M28.3137,3.0573c.5264-.0098,1.0352,.1128,1.5273,.3667l.0166,.9277c-.5654-.3271-1.0645-.4868-1.498-.479-.2627,.0049-.4678,.0596-.6143,.1641-.1455,.105-.2178,.2422-.2148,.4121,.0039,.2036,.1455,.3896,.4248,.5571,.0781,.0503,.3789,.189,.9014,.4165,.4473,.2007,.7705,.4268,.9717,.6782,.2002,.2515,.3037,.5566,.3105,.915,.0088,.4639-.1514,.8413-.4795,1.1323-.3291,.291-.7588,.4414-1.29,.4517-.3457,.0063-.6426-.0264-.8936-.0977-.25-.0718-.5312-.1973-.8438-.3774l-.0195-1.0283c.5869,.4688,1.1348,.6987,1.6455,.689,.2549-.0044,.46-.064,.6152-.1777s.2314-.2622,.2275-.4448c-.0039-.2505-.1445-.4512-.4209-.6035-.2285-.1196-.5244-.2627-.8857-.4287-.4287-.1855-.751-.4053-.9658-.6592s-.3252-.5508-.332-.8911c-.0078-.4536,.1543-.8184,.4873-1.0942,.332-.2754,.7754-.4185,1.3301-.4287Z"/><path d="M34.2805,3.654c.5146,.1118,.9814,.3481,1.4014,.709l-.1973,.9067c-.4756-.4487-.9238-.7197-1.3477-.812-.2568-.0557-.4688-.0498-.6348,.0181-.167,.0679-.2686,.1851-.3047,.3516-.043,.1987,.0518,.4121,.2842,.6396,.0645,.0669,.3252,.2715,.7812,.6133,.3887,.2988,.6514,.5933,.7891,.8848,.1367,.291,.167,.6118,.0908,.9619-.0986,.4531-.3418,.7837-.7285,.9907-.3867,.2075-.8398,.2544-1.3594,.1416-.3369-.0737-.6191-.1743-.8467-.3013-.2266-.1274-.4717-.3145-.7344-.562l.2197-1.0049c.4619,.5913,.9424,.9414,1.4414,1.0503,.249,.0542,.4619,.0439,.6396-.0308s.2852-.2017,.3242-.3809c.0537-.2441-.0371-.4722-.2705-.6841-.1953-.1694-.4492-.3765-.7627-.6216-.375-.2793-.6367-.5674-.7871-.8643-.1514-.2969-.1895-.6113-.1172-.9438,.0967-.4434,.3389-.7607,.7256-.9521,.3877-.1914,.8525-.228,1.3936-.1099Z"/><path d="M39.1799,5.3366l-2.0254,4.7871c-.2246,.5317-.5479,.897-.9678,1.0957s-.8652,.1987-1.335,0l-.0947-.04c-.0293-.0127-.0596-.0283-.0908-.0469l.2832-.8589c.5693,.2412,.9961,.0283,1.2783-.6392l1.9912-4.7051,.9609,.4072Z"/><path d="M44.1496,8.1916c.4473,.3359,.7803,.731,.999,1.1841,.2197,.4531,.3047,.9331,.2559,1.4399s-.2285,.9673-.54,1.3818c-.3037,.4043-.6885,.7012-1.1553,.8906-.4658,.1895-.9521,.2437-1.457,.1626s-.9844-.292-1.4375-.6323c-.4473-.3364-.7812-.7388-1.002-1.2075-.2207-.4683-.3047-.9492-.2549-1.4414,.0508-.4927,.2305-.9438,.5391-1.354,.2969-.396,.6787-.6914,1.1445-.8862,.4658-.1953,.9502-.2544,1.4541-.1777,.5029,.0767,.9883,.29,1.4541,.6401Zm-3.1904,1.0718c-.2148,.2866-.3438,.5933-.3857,.9194-.042,.3267,.0059,.6396,.1426,.9395,.1377,.3003,.3525,.5601,.6455,.7798,.4434,.333,.9121,.4678,1.4072,.4038,.4941-.0635,.9062-.3149,1.2363-.7544,.2148-.2861,.3447-.5928,.3887-.9194s-.0039-.6406-.1436-.9424c-.1396-.3013-.3555-.5625-.6484-.7822s-.6035-.3545-.9326-.4033-.6426-.0068-.9395,.1265-.5537,.3442-.7705,.6328Zm3.4229-2.0771c-.0791,.105-.1904,.1699-.334,.1938-.1445,.0244-.2725-.0063-.3857-.0913-.1133-.0854-.1807-.1997-.2021-.3428-.0215-.1436,.0098-.271,.0938-.3823,.0801-.1069,.1934-.1714,.3379-.1929,.1455-.022,.2744,.0103,.3877,.0952,.1113,.0835,.1768,.1973,.1963,.3408s-.0117,.27-.0938,.3794Zm1.5244,1.1455c-.083,.1113-.1963,.1768-.3389,.1973-.1426,.02-.2695-.0117-.3809-.0952-.1133-.085-.1797-.1987-.1992-.3403-.0195-.1421,.0127-.2686,.0967-.3799,.0791-.105,.1904-.1699,.334-.1938,.1445-.0239,.2725,.0063,.3857,.0918,.1074,.0801,.1719,.1934,.1934,.3384s-.0088,.2725-.0908,.3818Z"/></g><path d="M5.7116,25.8751c.0692,.012,.1368,.018,.2029,.018,.2158,0,.4152-.064,.5987-.192,.2397-.1683,.3858-.4003,.4381-.6973,.0502-.2928-.0098-.5588-.1818-.7996-.1711-.2397-.4013-.3857-.6913-.436-.068-.0118-.1345-.0176-.1995-.0176-.217,0-.4174,.0656-.6011,.1966-.2388,.1702-.384,.4003-.4341,.6904-.0513,.2968,.0078,.5648,.1769,.8035,.1693,.2388,.3994,.3839,.6913,.4341Z"/><polygon points="8.9247 34.1726 5.2349 33.3749 8.3483 31.2113 8.1376 30.1294 3.2373 33.5943 3.306 33.951 9.1345 35.2467 8.9247 34.1726"/><path d="M11.6552,37.3362c-.0617-.0225-.1223-.0337-.182-.0337-.0713,0-.1412,.0161-.2097,.0482-.1314,.061-.2194,.1596-.2659,.2948-.0464,.1354-.0406,.265,.0175,.3887,.059,.1267,.1556,.2137,.291,.2631,.0617,.0225,.1224,.0336,.1821,.0336,.0714,0,.1416-.016,.2106-.0482,.1237-.057,.2098-.1556,.259-.2938,.0494-.1384,.0456-.2679-.0106-.3897-.059-.1256-.1567-.2137-.292-.263Z"/><path d="M9.9128,36.8547l-5.8381,.2668,.4632,.9921,1.4127-.0832,1.0162,2.1766-.9543,1.0645,.4661,.9979,3.8859-4.4477-.4515-.967Zm-2.3718,2.7083l-.7377-1.5809,2.2895-.1509-1.5518,1.7318Z"/><path d="M10.5055,36.5696c.0626,.0209,.1233,.0314,.1819,.0314,.0709,0,.1388-.0153,.204-.0461,.1237-.0571,.2108-.1545,.261-.2919,.0492-.1373,.0454-.2688-.0135-.3946-.058-.1237-.1556-.2126-.293-.2649-.064-.025-.127-.0374-.1888-.0374-.0699,0-.1385,.0158-.2056,.047-.1287,.06-.2156,.1586-.2621,.2969-.0464,.1382-.0406,.2698,.0175,.3936,.0609,.1305,.1605,.2195,.2987,.266Z"/><path d="M13.5106,43.0186c-.1005-.5443-.316-1.0219-.6458-1.4318-.348-.4313-.733-.6943-1.1544-.7881-.105-.0236-.2078-.0353-.3087-.0353-.304,0-.5886,.1071-.8537,.3206-.265,.2137-.4321,.4835-.5009,.8083-.0696,.3258-.0454,.7146,.0706,1.1671,.09,.3877,.1586,.7088,.2041,.963,.0493,.3114-.0242,.5455-.2185,.703-.0981,.0783-.2059,.1176-.3235,.1176-.0538,0-.1097-.0082-.1677-.0247-.1856-.0533-.3578-.179-.5182-.3781-.3201-.3974-.4747-.9718-.4631-1.722-.2672,.2149-.5344,.4299-.8016,.6449,.0494,.3577,.1228,.6565,.2194,.8983,.0969,.2416,.2534,.4969,.471,.7657,.3327,.414,.7145,.6614,1.1458,.7426,.0945,.0178,.1874,.0266,.2785,.0266,.3255,0,.629-.1135,.9108-.3408,.2794-.2253,.4573-.4941,.5327-.8064,.0764-.3123,.0561-.7078-.0589-1.1835-.1401-.553-.2147-.8751-.2234-.9679-.0386-.3229,.0213-.5483,.1808-.6759,.0894-.0723,.1874-.1082,.2946-.1082,.0518,0,.1058,.0085,.1619,.0252,.1731,.0513,.3414,.1798,.5067,.3847,.2717,.3375,.4515,.8297,.5386,1.4775,.241-.1941,.4819-.388,.7231-.5822Z"/><polygon points="17.9623 46.3448 14.1334 43.3173 13.6276 43.9576 15.1322 45.1479 12.2876 48.7456 13.1065 49.3934 15.9512 45.7946 17.4556 46.9849 17.9623 46.3448"/><polygon points="21.3985 48.8374 21.7438 48.0978 18.5791 46.6203 16.2934 51.5167 19.5075 53.0163 19.8524 52.2777 17.5851 51.2189 18.2349 49.8276 20.3582 50.8187 20.7034 50.079 18.58 49.0879 19.1805 47.8019 21.3985 48.8374"/><path d="M24.6116,48.8219c-.6353-.1299-1.2705-.2598-1.9058-.3896-.361,1.7645-.722,3.5291-1.0829,5.2937,.3409,.0695,.6819,.1393,1.0229,.2089l.4574-2.2354,.3712,.0763c.1645,.0329,.3008,.1044,.411,.2118,.1093,.1083,.2118,.2737,.3085,.4979,.0966,.2233,.233,.6469,.4108,1.2706,.0823,.2823,.1499,.4892,.2042,.6215,.3803,.0778,.7606,.1555,1.1409,.2332-.1073-.2748-.2562-.7649-.4486-1.4736-.118-.411-.2272-.7078-.3268-.8916-.0995-.1838-.2244-.3383-.3751-.4631,.3326-.0667,.5994-.1954,.8006-.3878,.201-.1915,.3315-.438,.3934-.7387,.0909-.4418,.0068-.8325-.2495-1.172-.2571-.3393-.6342-.5598-1.1321-.6622Zm.3211,1.637c-.0485,.233-.1616,.4002-.3424,.5027-.1171,.0667-.2532,.1003-.4079,.1003-.0827,0-.1708-.0096-.2641-.0288-.2172-.0445-.4344-.0889-.6517-.1334,.1005-.4912,.2011-.9824,.3017-1.4736,.2124,.0432,.4247,.0864,.6372,.1296,.2803,.058,.4834,.1624,.611,.3132,.1267,.1509,.1653,.3471,.1161,.5898Z"/><path d="M30.6025,51.6908l-.001-.0464c.2428-.1199,.4265-.2755,.5491-.4689,.1238-.1924,.1808-.4128,.1721-.6603-.0144-.3859-.1816-.7029-.5037-.9486-.2987-.2295-.673-.3443-1.1219-.3443-.0333,0-.067,.0007-.1012,.002-.6599,.0239-1.3196,.0477-1.9794,.0715,.0658,1.8,.1315,3.6002,.1974,5.4001,.7535-.0277,1.507-.0554,2.2606-.0832,.3684-.0135,.6864-.0842,.9543-.2128,.2678-.1285,.4738-.3131,.6178-.5549,.145-.2407,.2117-.5116,.201-.8103-.0125-.3374-.1285-.6274-.347-.8712-.2196-.2437-.5183-.4012-.8983-.4728Zm-1.9125-1.6177c.2501-.009,.5002-.0181,.7504-.0272l.049-.0008c.2167,0,.3965,.0546,.537,.1635,.1518,.1169,.2311,.2794,.2387,.4882,.0087,.2348-.0646,.4206-.2194,.5579-.1557,.1374-.3704,.2108-.6469,.2214-.2189,.0077-.4377,.0156-.6565,.0233-.0175-.4755-.0349-.9508-.0523-1.4263Zm1.8314,3.5079c-.176,.1393-.4399,.2147-.7928,.2282l-.9012,.0329c-.0184-.5089-.0367-1.0178-.0551-1.5267,.3271-.0118,.6543-.0239,.9814-.0357,.0253-.001,.05-.0015,.0745-.0015,.2673,0,.4853,.0584,.6536,.1735,.1838,.1267,.2805,.3045,.2881,.5337,.0097,.2573-.0734,.4564-.2484,.5956Z"/><path d="M37.9615,48.6431c-.3877-.3307-.8295-.5366-1.3267-.6169-.1571-.0253-.316-.038-.4767-.038-.3474,0-.7028,.0593-1.0663,.1783-.554,.1807-1.0065,.4554-1.3585,.8237-.3521,.3683-.5811,.7986-.6885,1.2927-.1074,.4932-.0842,.9747,.0687,1.4456,.1594,.4882,.4263,.8934,.8005,1.2183,.3742,.3239,.817,.5298,1.3266,.6179,.1726,.0301,.3464,.0452,.5213,.0452,.3428,0,.6902-.0576,1.0422-.1729,.5395-.1759,.9872-.4475,1.343-.815,.3568-.3663,.5908-.7957,.703-1.287,.1121-.4911,.0899-.9765-.0667-1.457-.1605-.4921-.4351-.9041-.822-1.2347Zm-.2919,3.0138c-.2311,.4418-.6101,.7493-1.1371,.9215-.228,.074-.451,.1112-.6689,.1112-.1149,0-.2285-.0103-.3405-.0309-.325-.0591-.6082-.1992-.8518-.4216-.2427-.2214-.4206-.5029-.5318-.8431-.1113-.3432-.1373-.6749-.0764-.994,.062-.3201,.207-.6005,.4351-.8422,.2292-.2417,.5183-.4196,.8664-.5328,.2291-.0751,.4535-.1125,.6734-.1125,.1143,0,.2272,.0101,.3391,.0303,.3267,.0589,.6119,.1992,.8536,.4225,.2427,.2234,.4197,.5057,.5309,.8461,.1701,.5222,.1401,1.0046-.0919,1.4456Z"/><polygon points="42.6868 45.0502 42.2294 44.3743 38.185 47.1058 38.6422 47.7826 40.2318 46.7084 42.799 50.5092 43.6643 49.9252 41.0972 46.1243 42.6868 45.0502"/><polygon points="46.3842 40.9543 45.7711 40.4167 42.5533 44.087 43.1674 44.6247 44.432 43.1821 47.8809 46.2065 48.5694 45.4213 45.1205 42.397 46.3842 40.9543"/><polygon points="50.6124 41.0549 49.2568 40.3346 50.3571 38.2654 49.6369 37.8815 48.5365 39.9517 47.2833 39.2855 48.432 37.1235 47.7117 36.7406 46.0729 39.8241 50.8435 42.3602 52.5075 39.2284 51.7871 38.8456 50.6124 41.0549"/><polygon points="49.0809 31.7654 52.758 32.6003 48.3712 34.8968 48.168 35.7911 53.4376 36.9853 53.663 35.9894 49.926 35.1424 54.3775 32.8401 54.5758 31.9646 49.3071 30.7696 49.0809 31.7654"/><path d="M51.64,23.8699c-.064,0-.1293,.0057-.196,.0172-.295,.0494-.5271,.1943-.6971,.4323-.1701,.2378-.2301,.5057-.1788,.8035,.0492,.2919,.1953,.523,.437,.6922,.1872,.1311,.3889,.1965,.605,.1965,.0629,0,.1273-.0055,.1927-.0166,.2949-.0502,.5269-.1953,.6952-.436,.1683-.2399,.2272-.5057,.1779-.7949-.0502-.2979-.1953-.5309-.4341-.699-.1849-.1298-.3855-.1953-.6016-.1953Z"/><path d="M28.7489,46.9916c10.0751,0,18.2434-8.1674,18.2434-18.2424S38.824,10.5062,28.7489,10.5062,10.5065,18.6741,10.5065,28.7492s8.1674,18.2424,18.2424,18.2424Zm-16.2919-11.3591c-.452-1.0685-.7976-2.1821-1.0301-3.3187-.2398-1.1719-.3592-2.3684-.3592-3.5647s.1194-2.3928,.3592-3.5647c.2325-1.1367,.5781-2.2502,1.0301-3.3188,.4444-1.0505,.9915-2.0576,1.6301-3.0026,.6342-.9385,1.3586-1.8159,2.1594-2.6167,.8009-.8009,1.6782-1.5252,2.6165-2.1594,.9451-.6387,1.9521-1.1859,3.0026-1.6302,1.0685-.4521,2.1821-.7978,3.3188-1.0302,1.1719-.2397,2.3683-.3593,3.5646-.3593s2.3927,.1195,3.5647,.3593c1.1366,.2324,2.2503,.5782,3.3188,1.0302,1.0506,.4443,2.0576,.9915,3.0026,1.6302,.9384,.6342,1.8159,1.3585,2.6168,2.1594,.8009,.8009,1.5253,1.6782,2.1595,2.6167,.6387,.945,1.1858,1.9521,1.6303,3.0027,.452,1.0685,.7977,2.182,1.0303,3.3187,.2397,1.1719,.359,2.3684,.359,3.5647s-.1193,2.3928-.359,3.5647c-.2326,1.1366-.5782,2.2502-1.0303,3.3187-.4445,1.0505-.9916,2.0574-1.6303,3.0025-.6342,.9385-1.3586,1.8158-2.1595,2.6166-.801,.8009-1.6783,1.5252-2.6167,2.1593-.9451,.6387-1.9521,1.1859-3.0027,1.6302-1.0685,.452-2.1823,.7976-3.3188,1.0301-1.172,.2398-2.3684,.3593-3.5648,.3593s-2.3928-.1194-3.5646-.3593c-1.1367-.2325-2.2502-.5781-3.3188-1.0301-1.0506-.4443-2.0575-.9915-3.0026-1.6302-.9383-.6341-1.8156-1.3584-2.6165-2.1592-.8008-.8009-1.5252-1.6782-2.1594-2.6166-.6385-.9452-1.1857-1.9521-1.6301-3.0026Z"/><path d="M17.4514,2.758c-.1616,.0706-.3214,.1445-.4814,.218-.3807,.1747-.7567,.3577-1.1281,.5486-.1409,.0724-.2833,.1422-.4227,.2169-.4857,.2599-.9641,.5319-1.4324,.8188-.1027,.0629-.202,.1308-.3038,.1949-.3764,.2372-.7469,.4827-1.1111,.7368-.1453,.1014-.2897,.204-.433,.3081-.3595,.2609-.7123,.5302-1.0588,.8073-.0931,.0745-.189,.1454-.2811,.2211-.4236,.3475-.8358,.7085-1.2385,1.0796-.1137,.1048-.2237,.2135-.3357,.3201-.3023,.2877-.5984,.5818-.8879,.8826-.1183,.123-.2372,.2455-.3534,.3706-.3639,.3919-.72,.7912-1.0615,1.2032l-.0735,.0891c-.3394,.4128-.664,.838-.9801,1.2698-.1017,.139-.2004,.2803-.2997,.4211-.2402,.3409-.4728,.6874-.6981,1.0391-.0845,.1319-.1714,.2621-.2537,.3955-.2889,.4678-.5662,.9435-.8282,1.4287-.057,.1056-.1088,.2143-.1645,.3207-.2072,.3959-.4055,.7971-.5943,1.2036-.0754,.1622-.1492,.3253-.2215,.4892-.181,.41-.3522,.8252-.5141,1.2451-.0442,.1146-.0925,.2271-.1352,.3424-.1932,.5215-.3695,1.051-.5323,1.5862-.0469,.1542-.0883,.3108-.1327,.4661-.1166,.4086-.2245,.8209-.3229,1.2367-.0413,.1744-.0833,.3486-.1213,.5242-.1158,.5344-.2203,1.0729-.3054,1.6179-.2233,1.4308-.3411,2.8962-.3411,4.3887,0,15.6302,12.7155,28.3467,28.3462,28.3467l.0202-.0005c.6667-.0005,1.3261-.032,1.9814-.078,.1574-.011,.3148-.0223,.4715-.036,.6484-.0563,1.2921-.1293,1.9274-.2288,.0803-.0126,.1592-.0296,.2393-.0428,.5797-.0959,1.1527-.2116,1.7201-.3423,.1382-.0318,.277-.062,.4144-.0959,.6164-.1519,1.2257-.3218,1.8256-.5134,.1064-.0339,.2108-.0722,.3166-.1074,.5384-.179,1.0696-.3736,1.5932-.5836,.1047-.0419,.2108-.0812,.3148-.1243,.5829-.2419,1.1555-.5035,1.7181-.7825,.109-.054,.2162-.111,.3244-.1664,.5256-.2692,1.0433-.5518,1.5494-.8522,.0526-.0312,.1066-.06,.1589-.0915,.5473-.3297,1.0804-.6804,1.6029-1.0452,.0967-.0675,.1923-.1364,.2882-.2051,1.051-.7533,2.0488-1.5756,2.986-2.462,.076-.0719,.152-.144,.2272-.2167,.9413-.9101,1.8198-1.8843,2.6287-2.9162,.0519-.0663,.1047-.1318,.1561-.1985,.4026-.5231,.7894-1.0591,1.1555-1.6102,.0202-.0304,.0391-.0617,.0591-.0922,.355-.5387,.6911-1.0908,1.0095-1.6542,.0274-.0485,.0562-.096,.0833-.1447,.3248-.5827,.6292-1.1783,.9131-1.7852,.0269-.0576,.0521-.116,.0787-.1738,.2765-.6014,.5351-1.2126,.7698-1.8356,.0067-.0179,.0144-.0354,.0211-.0533,.0562-.1506,.1099-.3023,.1635-.4541l.0193-.057c.2574-.7301,.4869-1.4733,.6852-2.2289,.1866-.7111,.3401-1.4352,.4717-2.1667,.017-.095,.035-.1898,.0511-.2852,.1184-.6998,.2104-1.4084,.2762-2.1246,.0112-.1235,.0187-.2482,.0284-.3722,.0566-.7197,.093-1.4449,.0941-2.1788l.001-.0409c0-.5279-.0172-1.0517-.0458-1.5726-.0278-.5067-.0704-1.0095-.1247-1.5089-.0205-.1887-.0476-.3753-.0718-.5629-.0459-.3563-.0968-.7109-.1559-1.0629-.0341-.2028-.0703-.4049-.1086-.6063-.0666-.3496-.1411-.6963-.2204-1.0413-.0416-.1808-.0804-.3629-.1255-.5424-.1188-.4737-.2485-.9431-.3909-1.4071-.0157-.0512-.03-.103-.046-.1541-.2169-.6913-.4653-1.3682-.7325-2.0355l-.0144-.0364c-.5056-1.2587-1.0985-2.472-1.7722-3.6344l-.027-.0469c-.1697-.2914-.3437-.5798-.5232-.8644l-.0309-.0481c-.3194-.5042-.6535-.998-1.0032-1.48l-.0372-.0522c-.1227-.1685-.2465-.3362-.3727-.5018-.0151-.0197-.0309-.0388-.046-.0585-.2967-.3868-.6038-.7651-.9196-1.1359-.0478-.0561-.0965-.1113-.1447-.167-.2899-.3352-.5876-.6635-.8927-.9846-.0572-.0602-.1142-.1205-.1719-.1802-.3162-.3271-.6401-.6465-.9715-.9582-.0422-.0397-.0833-.0804-.1257-.1199-1.1373-1.0568-2.3615-2.0209-3.66-2.8817-.0809-.0536-.1638-.1046-.2454-.1574-.3409-.221-.6865-.4354-1.0372-.6419-.1174-.0691-.2357-.1365-.3542-.2039-.324-.1846-.6524-.3624-.9842-.5345-.1312-.0679-.2621-.1363-.3944-.2023-.3405-.1698-.6859-.331-1.0339-.4873-.1198-.0537-.238-.1103-.3586-.1624-.4379-.1893-.8812-.3683-1.3301-.5358-.0302-.0112-.0594-.0243-.0897-.0355-.4822-.1781-.9714-.3418-1.4655-.4939-.1302-.04-.2631-.0739-.394-.1121-.3573-.1043-.7164-.2044-1.0793-.2949-.1837-.0457-.3696-.0862-.5547-.1284-.3168-.0721-.6351-.1403-.9558-.2017-.2031-.0388-.407-.0751-.6116-.1095-.3121-.0526-.6262-.0989-.9415-.1412-.2073-.0278-.4144-.0563-.6232-.0795-.3329-.0372-.6686-.0648-1.005-.0901-.1907-.0144-.3802-.033-.5719-.0436-.4694-.0259-.9421-.0395-1.4173-.0422-.0545-.0003-.1082-.0042-.1628-.0042-.0286,0-.0568,.0021-.0854,.0021-.5554,.0017-1.1061,.0226-1.6533,.0563-.1602,.0098-.3191,.0241-.4785,.0365-.4584,.0361-.9141,.0815-1.366,.1395-.1182,.015-.2369,.0287-.3547,.0452-1.1924,.1682-2.3625,.4074-3.5035,.7183l-.0427,.0121c-.752,.2059-1.4939,.4366-2.2197,.7017-.0352,.0129-.0698,.0266-.1049,.0396-.5039,.1865-.9993,.3903-1.4893,.6042Zm16.8903-1.2291c.5325,.1093,1.058,.2372,1.5789,.3766,.1349,.0361,.2671,.0782,.4011,.1162,.0384,.0109,.0767,.0223,.115,.0333,.1345,.0388,.2693,.0759,.4029,.1167,.2249,.0686,.4484,.1402,.6709,.2144,.1713,.0571,.3409,.1172,.5107,.1776,.257,.0912,.5132,.1833,.7667,.2819,.1143,.0445,.2268,.0919,.3405,.1378,.1513,.0612,.3027,.1217,.4526,.1854,.4003,.1702,.7949,.3508,1.1854,.5389,.0922,.0444,.187,.0839,.2785,.1293l.0723,.0354c.4726,.236,.937,.486,1.3939,.7476,.0992,.0568,.195,.1187,.2935,.1767,.0438,.0258,.087,.0526,.1306,.0787,.1249,.0745,.2497,.1484,.3734,.2248,.1962,.1213,.3914,.2438,.5843,.3698,.1484,.0969,.294,.1972,.4404,.2968,.2211,.1505,.4423,.3004,.6588,.457,.0915,.0662,.1804,.1353,.271,.2026,.1393,.1034,.2781,.2069,.4155,.3127,.3142,.2422,.6216,.4924,.925,.7476,.0935,.0786,.191,.1523,.2835,.2322,.0284,.0246,.0562,.0499,.0846,.0745,.3943,.3434,.7795,.6968,1.1539,1.0615,.0543,.0529,.1052,.1091,.1591,.1624,.0562,.0555,.1101,.1132,.1658,.1693,.1068,.1075,.2128,.2153,.3179,.3246,.1595,.1659,.3187,.3318,.4741,.5016,.1179,.1289,.2317,.2613,.3472,.3924,.1767,.2005,.3545,.3998,.5255,.6053,.0672,.0809,.1306,.1645,.1969,.2461,.1166,.1435,.2319,.2878,.3458,.4336,.2305,.2953,.4535,.5962,.6721,.9009,.0776,.1082,.1606,.2121,.2368,.3215,.0278,.04,.0537,.0814,.0814,.1215,.297,.4315,.5849,.8696,.8577,1.3181,.08,.1315,.154,.2669,.2306,.4006,.078,.1331,.1533,.2674,.2291,.4019,.0848,.1472,.1712,.2932,.252,.4427,.1989,.3685,.3815,.7466,.564,1.1248,.0588,.1219,.1246,.2396,.1818,.3625,.2827,.6083,.5369,1.232,.7758,1.8631,.0808,.2136,.1552,.4297,.2308,.6458,.1718,.4902,.3293,.9864,.4739,1.4885,.0555,.1927,.1158,.3829,.1671,.5773,.1769,.6688,.3301,1.3468,.4572,2.0342,.0319,.1726,.0542,.3482,.0828,.5219,.0917,.555,.1667,1.1151,.2248,1.6805,.0222,.2159,.0444,.4311,.0615,.6484,.0562,.7095,.0938,1.4241,.0953,2.1475,0,.0192,.0025,.0378,.0025,.0571,0,.5532-.0209,1.1014-.0529,1.6467-.0089,.151-.0231,.3004-.0344,.4507-.0297,.3958-.0665,.7894-.1127,1.1804-.0202,.1708-.0418,.341-.0651,.5109-.0534,.3898-.1159,.7765-.1854,1.1609-.0261,.1441-.0491,.289-.0774,.4323-.2062,1.0465-.4712,2.0717-.7917,3.0728-.0439,.1372-.0925,.2722-.1385,.4084-.1229,.3641-.252,.7251-.3895,1.0823-.0593,.1541-.1198,.3075-.1818,.4603-.1437,.3542-.2952,.7042-.4529,1.051-.0589,.1295-.1152,.2603-.176,.3887-.4446,.9395-.9402,1.8499-1.4836,2.7283-.0736,.119-.151,.2349-.2263,.3527-.2043,.3195-.414,.6349-.6309,.9453-.0929,.1329-.1868,.2649-.2819,.3962-.2219,.3062-.4506,.6069-.6846,.9035-.0864,.1096-.1706,.2207-.2586,.329-.649,.7982-1.3413,1.5594-2.0734,2.2809-.0999,.0984-.2029,.1932-.3043,.2902-.2723,.2604-.5491,.5159-.8318,.7653-.1214,.1071-.2435,.213-.3668,.3179-.2878,.2451-.5812,.4834-.879,.7168-.0767,.0601-.1491,.1254-.2265,.1848-.033,.0253-.0682,.0479-.1013,.073-.8881,.675-1.8193,1.295-2.7862,1.8611-.1172,.0686-.2346,.1362-.3528,.2031-1.0499,.5942-2.1414,1.1216-3.2702,1.5775-.1288,.0521-.2579,.103-.3876,.1531-1.1351,.4386-2.3055,.8041-3.5065,1.092-.1391,.0333-.2783,.0655-.4181,.0967-1.2061,.2693-2.441,.4595-3.7001,.5658-.1479,.0125-.2959,.0237-.4445,.0339-.6326,.0433-1.2687,.0732-1.912,.0732-.5939,0-1.1818-.0251-1.7666-.0621-.1588-.01-.3163-.0235-.4743-.0362-.4582-.0368-.9131-.0846-1.3648-.1434-.136-.0177-.2728-.0323-.4082-.0521-.5687-.0826-1.1322-.1806-1.6892-.2973-.0947-.0198-.1874-.0444-.2818-.0652-.468-.1031-.9313-.2185-1.3902-.345-.1523-.042-.3039-.0851-.4551-.1296-.463-.1362-.9211-.2833-1.3737-.4427-.0809-.0284-.1631-.0533-.2437-.0826-.5283-.1916-1.0479-.4006-1.5609-.6229-.1209-.0524-.2394-.1088-.3594-.1628-.4047-.1823-.804-.3737-1.1982-.5744-.1295-.066-.2594-.1309-.3878-.1989-.9869-.5225-1.938-1.1024-2.8503-1.7357-.1163-.0807-.2307-.1636-.3456-.246-.3667-.2629-.7265-.5343-1.0797-.8143-.0905-.0718-.1828-.1412-.2724-.2141-.4329-.3521-.8558-.7157-1.2665-1.0927-.0591-.0543-.1156-.1113-.1743-.1661-.3511-.3278-.6929-.6652-1.0267-1.0106-.0958-.0991-.1909-.1985-.2852-.299-.3453-.3681-.6822-.744-1.0074-1.1304-.0333-.0395-.0683-.0773-.1013-.1169-.3605-.4333-.706-.8792-1.0401-1.334-.0671-.0915-.1313-.1851-.1974-.2774-.269-.3757-.5286-.7582-.7791-1.1475-.0677-.1053-.1364-.2098-.2028-.316-.5735-.9185-1.0955-1.8718-1.5605-2.8577-.0546-.1158-.1055-.2336-.1586-.3503-.1641-.3607-.3212-.725-.47-1.0937-.0564-.1397-.1119-.2797-.1661-.4205-.1445-.3754-.28-.7548-.4084-1.1378-.0399-.1188-.0823-.2364-.1207-.356-.3218-1.005-.5873-2.0344-.7939-3.0852-.0275-.14-.0502-.2816-.0756-.4222-.0699-.3871-.1326-.7766-.1862-1.1691-.0228-.1669-.0441-.334-.0639-.5018-.0463-.392-.083-.7867-.1127-1.1835-.0112-.1496-.0253-.2982-.0342-.4485-.0319-.5443-.0527-1.0914-.0527-1.6435,0-.6548,.0298-1.3025,.0747-1.9461,.0127-.1828,.0319-.3635,.0481-.5454,.0421-.4696,.095-.9358,.1603-1.3984,.0274-.1946,.0544-.389,.0858-.5823,.0829-.5092,.1802-1.0133,.2905-1.5128,.0256-.1161,.0454-.2341,.0725-.3497,.1406-.5997,.3024-1.1909,.4813-1.775,.0145-.0472,.0242-.0964,.0389-.1436,.0383-.123,.0886-.2405,.1287-.3629,.1439-.4393,.2972-.874,.4622-1.3033,.047-.1225,.0861-.2487,.1348-.3702,.0396-.099,.0864-.1941,.1271-.2925,.1758-.4244,.3637-.8423,.5597-1.2559,.0637-.1343,.1207-.2722,.1865-.4053,.0609-.1236,.1283-.243,.191-.3655,.2144-.4184,.4366-.8319,.6713-1.2378,.0502-.0869,.0986-.1748,.1498-.2611,.0993-.1677,.2061-.33,.3088-.4954,.1804-.2903,.3664-.5762,.5571-.8593,.0932-.1382,.1819-.2794,.2775-.4158,.0808-.1156,.1611-.2311,.2437-.3453,.2512-.3475,.5142-.6856,.7807-1.0209,.0598-.0751,.1149-.1537,.1754-.2281,.0314-.0387,.0646-.0757,.0963-.1143,.1739-.2121,.356-.4163,.5361-.623,.1891-.217,.3783-.4336,.5739-.6446,.0837-.0903,.1672-.1802,.252-.2693,.1647-.1732,.3307-.3444,.4998-.5133,.2001-.1998,.4071-.3923,.6132-.5861,.1304-.1226,.2592-.2466,.392-.3667,.2692-.2436,.5452-.4783,.8237-.7113,.2025-.1694,.4005-.344,.6078-.5077,.0571-.0451,.1194-.0838,.1769-.1285,.4219-.3278,.8564-.6383,1.297-.9418,.1741-.12,.3449-.2435,.5218-.3596,.4451-.2919,.9025-.5646,1.3647-.8311,.1884-.1088,.3731-.2227,.5643-.3271,.459-.2505,.9299-.48,1.4041-.7049,.2086-.0991,.413-.2049,.6244-.2989,.4644-.2062,.9401-.3894,1.4174-.5704,.2336-.0887,.4625-.186,.699-.2686,.4651-.162,.941-.2991,1.417-.4366,.2589-.075,.5128-.1606,.7747-.2283,.4664-.1201,.9429-.2128,1.4185-.3089,.2805-.0568,.556-.1266,.8394-.1749,.4824-.082,.9742-.1334,1.4647-.1899,.2838-.0328,.5627-.0812,.849-.1054,.6186-.0521,1.2463-.07,1.8757-.0807,.1597-.0027,.3157-.0205,.476-.0205,.5745,0,1.1435,.0232,1.7095,.0577,.1509,.0092,.3005,.0228,.4508,.0344,.4259,.033,.849,.0751,1.2693,.1272,.1558,.0193,.3116,.0376,.4666,.0594,.5027,.0709,1.0016,.1533,1.4953,.2507,.0464,.0092,.0936,.0157,.14,.0251,.0203,.0041,.0411,.0068,.0613,.011Z"/><path d="M50.1149,11.0104c-.171-.2056-.3488-.4048-.5255-.6053,.106,.1203,.2073,.2448,.3113,.3669,.0693,.0814,.1458,.1563,.2142,.2385Z"/></svg>