<?xml version="1.0" encoding="utf-8"?>
<!-- Generator: Adobe Illustrator 26.0.3, SVG Export Plug-In . SVG Version: 6.00 Build 0)  -->
<svg version="1.1" id="Lager_1" xmlns="http://www.w3.org/2000/svg" xmlns:xlink="http://www.w3.org/1999/xlink" x="0px" y="0px"
	 viewBox="0 0 133.2 133.2" style="enable-background:new 0 0 133.2 133.2;" xml:space="preserve">
<style type="text/css">
	.st0{fill:url(#SVGID_1_);}
	.st1{fill:url(#SVGID_00000046332388307121577160000001971972276429932955_);}
	.st2{fill:url(#SVGID_00000173874717428920423180000007047637650174456246_);}
	.st3{fill:url(#SVGID_00000036210814027257269270000013184781687570633632_);}
	.st4{fill:url(#SVGID_00000006687476495080098640000012962825982745137316_);}
	.st5{fill:url(#SVGID_00000098206352522384046790000016198856376461511323_);}
	.st6{fill:url(#SVGID_00000052800389953939110150000010182506709853841053_);}
	.st7{fill:url(#SVGID_00000157300862626758972940000001990925769245944193_);}
	.st8{fill:url(#SVGID_00000182496776662595325600000002386905978370906782_);}
	.st9{fill:url(#SVGID_00000020365015555917763720000000366791724863582338_);}
	.st10{fill:url(#SVGID_00000031908994219038942280000012625561849673234561_);}
	.st11{fill:url(#SVGID_00000028324360458344558710000004826447497491010435_);}
	.st12{fill:url(#SVGID_00000007399482550433920980000002240390173064573322_);}
	.st13{fill:url(#SVGID_00000105421385998316881120000007948404380434676396_);}
	.st14{fill:url(#SVGID_00000018200944701814798490000005128220254114977955_);}
	.st15{fill:url(#SVGID_00000062901802699143212410000016131952151621961097_);}
	.st16{fill:url(#SVGID_00000151515148447610170020000000424527857740257468_);}
	.st17{fill:url(#SVGID_00000035528702475749776590000010659931674866326145_);}
	.st18{fill:url(#SVGID_00000152973021145634712540000017526441503876926108_);}
	.st19{fill:url(#SVGID_00000080198556548907306350000005393831653809263244_);}
	.st20{fill:url(#SVGID_00000001626581488653457480000008663185612361064101_);}
	.st21{fill:url(#SVGID_00000151503520361361846340000007252564087513059495_);}
	.st22{fill:url(#SVGID_00000068671719030755077590000018063170014091186048_);}
	.st23{fill:url(#SVGID_00000052799263280973505160000002865617134316968323_);}
	.st24{fill:url(#SVGID_00000060026378141495462090000018206331402901932468_);}
	.st25{fill:url(#SVGID_00000135670956334816914590000011578770699460040093_);}
	.st26{fill:url(#SVGID_00000144324066704383209090000016766063338890314887_);}
	.st27{fill:url(#SVGID_00000038402097936615108630000000212494004210753699_);}
	.st28{fill:url(#SVGID_00000058586535291249743350000017606688067071205547_);}
	.st29{fill:url(#SVGID_00000075164475858926258710000012048268970034276753_);}
	.st30{fill:url(#SVGID_00000078032261875482376450000004738907175471431615_);}
	.st31{fill:url(#SVGID_00000067935633239966471430000011503797508993890183_);}
	.st32{fill:url(#SVGID_00000127749983973295458470000003885937088834484624_);}
	.st33{fill:url(#SVGID_00000034794546950505270710000003961855423766100139_);}
	.st34{fill:url(#SVGID_00000018217957956286856490000013498640623804842403_);}
	.st35{fill:url(#SVGID_00000052789904810131444780000004452417139296315048_);}
	.st36{fill:url(#SVGID_00000102507049939998297280000008114119780005354929_);}
	.st37{fill:url(#SVGID_00000170963616895209587010000003753183847431123629_);}
	.st38{fill:url(#SVGID_00000077326285367269661070000002971232147280162233_);}
	.st39{fill:url(#SVGID_00000065059692422798508620000015293832211650720903_);}
	.st40{fill:url(#SVGID_00000122688623195494424400000015247226991231102135_);}
	.st41{fill:url(#SVGID_00000008145926830416789260000009931755463686195338_);}
	.st42{fill:#C97D67;}
</style>
<radialGradient id="SVGID_1_" cx="89.9619" cy="26.8398" r="60.3351" fx="90.6281" fy="29.2068" gradientTransform="matrix(0.9012 0 0 -0.9012 -14.7635 89.5771)" gradientUnits="userSpaceOnUse">
	<stop  offset="0.3295" style="stop-color:#F9B26C"/>
	<stop  offset="0.4489" style="stop-color:#F5AB69"/>
	<stop  offset="0.6397" style="stop-color:#ED9960"/>
	<stop  offset="0.8766" style="stop-color:#E27E54"/>
	<stop  offset="1" style="stop-color:#DD6E4D"/>
</radialGradient>
<path class="st0" d="M101.3,62.8c2.9,1.8,5.6,3.8,8.5,6.3c0-7.5-1.1-14.5-3.2-21.5c-0.2-0.8-0.7-1-1.5-1.1c-1,0-1,0.6-1.1,1.2
	c-0.6,4.7-1.7,9.2-3.3,13.6C100.5,62.2,100.8,62.4,101.3,62.8z"/>
<radialGradient id="SVGID_00000055691539722158958930000008607596887409948044_" cx="89.9619" cy="26.8398" r="60.3349" fx="90.6281" fy="29.2068" gradientTransform="matrix(0.9012 0 0 -0.9012 -14.7635 89.5771)" gradientUnits="userSpaceOnUse">
	<stop  offset="0.3295" style="stop-color:#F9B26C"/>
	<stop  offset="0.4489" style="stop-color:#F5AB69"/>
	<stop  offset="0.6397" style="stop-color:#ED9960"/>
	<stop  offset="0.8766" style="stop-color:#E27E54"/>
	<stop  offset="1" style="stop-color:#DD6E4D"/>
</radialGradient>
<path style="fill:url(#SVGID_00000055691539722158958930000008607596887409948044_);" d="M97,24.3c-0.2-1.7-1.5-2.9-2.9-2.9
	C95.2,22.1,96,23.3,97,24.3z"/>
<radialGradient id="SVGID_00000012437200937641091430000010200780641101625502_" cx="89.9619" cy="26.8398" r="60.335" fx="90.6281" fy="29.2068" gradientTransform="matrix(0.9012 0 0 -0.9012 -14.7635 89.5771)" gradientUnits="userSpaceOnUse">
	<stop  offset="0.3295" style="stop-color:#F9B26C"/>
	<stop  offset="0.4489" style="stop-color:#F5AB69"/>
	<stop  offset="0.6397" style="stop-color:#ED9960"/>
	<stop  offset="0.8766" style="stop-color:#E27E54"/>
	<stop  offset="1" style="stop-color:#DD6E4D"/>
</radialGradient>
<path style="fill:url(#SVGID_00000012437200937641091430000010200780641101625502_);" d="M106.5,31.1c-1.3-2-3.1-3.5-5-5.2
	C101.7,29.3,104.3,30,106.5,31.1z"/>
<radialGradient id="SVGID_00000161622723111613510570000001846586163869237385_" cx="89.9619" cy="26.8398" r="60.335" fx="90.6281" fy="29.2068" gradientTransform="matrix(0.9012 0 0 -0.9012 -14.7635 89.5771)" gradientUnits="userSpaceOnUse">
	<stop  offset="0.3295" style="stop-color:#F9B26C"/>
	<stop  offset="0.4489" style="stop-color:#F5AB69"/>
	<stop  offset="0.6397" style="stop-color:#ED9960"/>
	<stop  offset="0.8766" style="stop-color:#E27E54"/>
	<stop  offset="1" style="stop-color:#DD6E4D"/>
</radialGradient>
<path style="fill:url(#SVGID_00000161622723111613510570000001846586163869237385_);" d="M96.8,62.4C91,59,84.9,56.2,78.7,53.7
	c-0.9-0.3-1.3-0.4-1.5,0.7C74.4,65,71.4,75.5,68,85.9c-0.3,0.8-0.1,1.1,0.6,1.5c2.7,1.2,5.3,2.6,7.7,4.2c0.7,0.5,1.5,0.5,1.9,0.6
	c1.2,0.2,1.5-0.5,1.9-0.9c7.4-7.9,13.1-16.9,17.3-26.9C98,63.3,97.7,62.9,96.8,62.4z"/>
<radialGradient id="SVGID_00000023249779213893104230000004471658680677436817_" cx="89.9619" cy="26.8398" r="60.3351" fx="90.6281" fy="29.2068" gradientTransform="matrix(0.9012 0 0 -0.9012 -14.7635 89.5771)" gradientUnits="userSpaceOnUse">
	<stop  offset="0.3295" style="stop-color:#F9B26C"/>
	<stop  offset="0.4489" style="stop-color:#F5AB69"/>
	<stop  offset="0.6397" style="stop-color:#ED9960"/>
	<stop  offset="0.8766" style="stop-color:#E27E54"/>
	<stop  offset="1" style="stop-color:#DD6E4D"/>
</radialGradient>
<path style="fill:url(#SVGID_00000023249779213893104230000004471658680677436817_);" d="M99,60.4c1.4-4.2,2.5-8.6,2.9-12.7
	c0-1.1,0-1.2-0.8-1.3c-6.8-0.7-13.4-2.1-20-3.9c-0.8-0.2-1,0-1.2,0.7c-0.5,2.4-1.1,4.9-1.8,7.3c-0.2,0.7-0.1,1,0.6,1.2
	c6.6,2.5,13.1,5.4,19.2,9C98.4,61,98.7,61.1,99,60.4z"/>
<radialGradient id="SVGID_00000069359683689178307820000008334759606496935103_" cx="89.9619" cy="26.8398" r="60.3349" fx="90.6281" fy="29.2068" gradientTransform="matrix(0.9012 0 0 -0.9012 -14.7635 89.5771)" gradientUnits="userSpaceOnUse">
	<stop  offset="0.3295" style="stop-color:#F9B26C"/>
	<stop  offset="0.4489" style="stop-color:#F5AB69"/>
	<stop  offset="0.6397" style="stop-color:#ED9960"/>
	<stop  offset="0.8766" style="stop-color:#E27E54"/>
	<stop  offset="1" style="stop-color:#DD6E4D"/>
</radialGradient>
<path style="fill:url(#SVGID_00000069359683689178307820000008334759606496935103_);" d="M60.3,111.3c2.2,0.1,4.4,0.3,6.7,0.4
	c6.7,0,13.1-1.1,19.4-3.4c1-0.3,1.2-0.7,0.9-1.8c-1.4-4.1-4.2-7-7.3-9.8c-0.8-0.7-1.3-0.9-2.2,0c-5.1,4.9-10.8,8.9-17.1,12
	c-0.4,0.2-0.8,0.4-1.1,0.9C58.9,110.6,58.8,111.2,60.3,111.3z"/>
<radialGradient id="SVGID_00000180326642520671104210000004841950851565739682_" cx="89.9619" cy="26.8398" r="60.3351" fx="90.6281" fy="29.2068" gradientTransform="matrix(0.9012 0 0 -0.9012 -14.7635 89.5771)" gradientUnits="userSpaceOnUse">
	<stop  offset="0.3295" style="stop-color:#F9B26C"/>
	<stop  offset="0.4489" style="stop-color:#F5AB69"/>
	<stop  offset="0.6397" style="stop-color:#ED9960"/>
	<stop  offset="0.8766" style="stop-color:#E27E54"/>
	<stop  offset="1" style="stop-color:#DD6E4D"/>
</radialGradient>
<path style="fill:url(#SVGID_00000180326642520671104210000004841950851565739682_);" d="M107.2,41.3c1.1,2.9,1.2,2.9,4.2,2.1
	c0.2,0,0.3-0.1,0.5-0.2c2.2-0.7,2.6-1.7,1.2-3.6c-2.4-3.3-5.9-5.2-9.7-7.5C104.3,35.7,106.2,38.3,107.2,41.3z"/>
<radialGradient id="SVGID_00000088854054075881075240000005528099155515774104_" cx="89.9619" cy="26.8398" r="60.3349" fx="90.6281" fy="29.2068" gradientTransform="matrix(0.9012 0 0 -0.9012 -14.7635 89.5771)" gradientUnits="userSpaceOnUse">
	<stop  offset="0.3295" style="stop-color:#F9B26C"/>
	<stop  offset="0.4489" style="stop-color:#F5AB69"/>
	<stop  offset="0.6397" style="stop-color:#ED9960"/>
	<stop  offset="0.8766" style="stop-color:#E27E54"/>
	<stop  offset="1" style="stop-color:#DD6E4D"/>
</radialGradient>
<path style="fill:url(#SVGID_00000088854054075881075240000005528099155515774104_);" d="M79.8,20c1.4,0.7,1.7,0.6,1.9-1
	c0.1-1,0.3-1.9,0-3.2c-1.2,1.1-1.6,2.4-2.3,3.5C79.2,19.7,79.5,19.8,79.8,20z"/>
<radialGradient id="SVGID_00000030484828302831478760000003636501582678162085_" cx="89.9619" cy="26.8398" r="60.3349" fx="90.6281" fy="29.2068" gradientTransform="matrix(0.9012 0 0 -0.9012 -14.7635 89.5771)" gradientUnits="userSpaceOnUse">
	<stop  offset="0.3295" style="stop-color:#F9B26C"/>
	<stop  offset="0.4489" style="stop-color:#F5AB69"/>
	<stop  offset="0.6397" style="stop-color:#ED9960"/>
	<stop  offset="0.8766" style="stop-color:#E27E54"/>
	<stop  offset="1" style="stop-color:#DD6E4D"/>
</radialGradient>
<path style="fill:url(#SVGID_00000030484828302831478760000003636501582678162085_);" d="M77.9,22.7c-1.9,4.3-3.5,8.8-5.2,13.2
	c-0.2,0.6-0.2,1,0.5,1.2c1.4,0.4,2.7,0.8,4,1.3c0.6,0.2,0.9,0.2,1-0.5c1.1-4.8,2.1-9.6,2.9-15c0-0.7-1.2-0.4-1.8-0.8
	C78.6,21.7,78.2,21.9,77.9,22.7z"/>
<radialGradient id="SVGID_00000021094741757382151240000001550252508921783741_" cx="89.9619" cy="26.8398" r="60.335" fx="90.6281" fy="29.2068" gradientTransform="matrix(0.9012 0 0 -0.9012 -14.7635 89.5771)" gradientUnits="userSpaceOnUse">
	<stop  offset="0.3295" style="stop-color:#F9B26C"/>
	<stop  offset="0.4489" style="stop-color:#F5AB69"/>
	<stop  offset="0.6397" style="stop-color:#ED9960"/>
	<stop  offset="0.8766" style="stop-color:#E27E54"/>
	<stop  offset="1" style="stop-color:#DD6E4D"/>
</radialGradient>
<path style="fill:url(#SVGID_00000021094741757382151240000001550252508921783741_);" d="M82.1,39.9c5.5,1.5,11,2.7,16.6,3.5
	c3.6,0.5,3.6,0.5,3.5-3.8c0.3-1.9-0.5-4.1-1.9-6.2c-0.7-1-1.3-2-1.9-3c-0.6-0.9-1.3-1.5-2.3-2c-3.5-1.6-7.1-3-10.7-4.4
	c-1.2-0.5-1.7-0.4-1.8,1c-0.6,4.4-1.4,8.7-2.5,13C80.8,39.2,81.1,39.6,82.1,39.9z"/>
<radialGradient id="SVGID_00000034779993425650815280000016083635187162949767_" cx="89.9619" cy="26.8398" r="60.3349" fx="90.6281" fy="29.2068" gradientTransform="matrix(0.9012 0 0 -0.9012 -14.7635 89.5771)" gradientUnits="userSpaceOnUse">
	<stop  offset="0.3295" style="stop-color:#F9B26C"/>
	<stop  offset="0.4489" style="stop-color:#F5AB69"/>
	<stop  offset="0.6397" style="stop-color:#ED9960"/>
	<stop  offset="0.8766" style="stop-color:#E27E54"/>
	<stop  offset="1" style="stop-color:#DD6E4D"/>
</radialGradient>
<path style="fill:url(#SVGID_00000034779993425650815280000016083635187162949767_);" d="M84.6,21.5c3,1.1,5.9,2.2,8.9,3.3
	C91,21.7,88,19.1,84.4,17c-0.1,1.4-0.2,2.5-0.3,3.6C84.2,21,84.1,21.3,84.6,21.5z"/>
<radialGradient id="SVGID_00000004543896599844890120000003561176051620793993_" cx="89.9619" cy="26.8398" r="60.3349" fx="90.6281" fy="29.2068" gradientTransform="matrix(0.9012 0 0 -0.9012 -14.7635 89.5771)" gradientUnits="userSpaceOnUse">
	<stop  offset="0.3295" style="stop-color:#F9B26C"/>
	<stop  offset="0.4489" style="stop-color:#F5AB69"/>
	<stop  offset="0.6397" style="stop-color:#ED9960"/>
	<stop  offset="0.8766" style="stop-color:#E27E54"/>
	<stop  offset="1" style="stop-color:#DD6E4D"/>
</radialGradient>
<path style="fill:url(#SVGID_00000004543896599844890120000003561176051620793993_);" d="M75.5,49.6c0.6-2.5,1.2-5,1.9-7.8
	c0.1-0.2-0.1-0.5-0.8-0.7c-1.4-0.4-2.8-0.8-4.2-1.4c-0.8-0.3-1.1-0.1-1.3,0.6c-0.8,2.3-1.5,4.7-2.3,7c-0.2,0.7-0.1,1,0.6,1.2
	c1.7,0.5,3.3,1,5,1.6C75.1,50.3,75.3,50.3,75.5,49.6z"/>
<radialGradient id="SVGID_00000105394851115479342170000003172732292588084614_" cx="89.9619" cy="26.8398" r="60.3349" fx="90.6281" fy="29.2068" gradientTransform="matrix(0.9012 0 0 -0.9012 -14.7635 89.5771)" gradientUnits="userSpaceOnUse">
	<stop  offset="0.3295" style="stop-color:#F9B26C"/>
	<stop  offset="0.4489" style="stop-color:#F5AB69"/>
	<stop  offset="0.6397" style="stop-color:#ED9960"/>
	<stop  offset="0.8766" style="stop-color:#E27E54"/>
	<stop  offset="1" style="stop-color:#DD6E4D"/>
</radialGradient>
<path style="fill:url(#SVGID_00000105394851115479342170000003172732292588084614_);" d="M74.3,18.3c2.9,0.8,2.9,0.8,4.3-2.4
	c-2.5,0.3-4.8,0.6-7.3,1.5C72.6,17.8,73.4,18.1,74.3,18.3z"/>
<radialGradient id="SVGID_00000039105140766745680510000018039289259839980177_" cx="89.9619" cy="26.8398" r="60.3349" fx="90.6281" fy="29.2068" gradientTransform="matrix(0.9012 0 0 -0.9012 -14.7635 89.5771)" gradientUnits="userSpaceOnUse">
	<stop  offset="0.3295" style="stop-color:#F9B26C"/>
	<stop  offset="0.4489" style="stop-color:#F5AB69"/>
	<stop  offset="0.6397" style="stop-color:#ED9960"/>
	<stop  offset="0.8766" style="stop-color:#E27E54"/>
	<stop  offset="1" style="stop-color:#DD6E4D"/>
</radialGradient>
<path style="fill:url(#SVGID_00000039105140766745680510000018039289259839980177_);" d="M64.3,88.3c0.2-0.5,0-0.7-0.4-0.9
	c-1.7-0.6-3.5-1.2-5.2-1.8c-0.5-0.2-0.7,0-0.8,0.5c-0.1,0.4-0.2,0.8,0.3,0.9c1.8,0.6,3.6,1.2,5.4,1.8C64,88.9,64.1,88.7,64.3,88.3z"
	/>
<radialGradient id="SVGID_00000166651835854593419410000015390935634714166669_" cx="89.9619" cy="26.8398" r="60.3349" fx="90.6281" fy="29.2068" gradientTransform="matrix(0.9012 0 0 -0.9012 -14.7635 89.5771)" gradientUnits="userSpaceOnUse">
	<stop  offset="0.3295" style="stop-color:#F9B26C"/>
	<stop  offset="0.4489" style="stop-color:#F5AB69"/>
	<stop  offset="0.6397" style="stop-color:#ED9960"/>
	<stop  offset="0.8766" style="stop-color:#E27E54"/>
	<stop  offset="1" style="stop-color:#DD6E4D"/>
</radialGradient>
<path style="fill:url(#SVGID_00000166651835854593419410000015390935634714166669_);" d="M61,106.1c4.7-2.1,12.6-7.8,15.5-11.2
	c-3.3-0.8-6.7-1.6-10-2.3c-0.8-0.2-0.8,0.5-1,0.9c-1.1,3-2.1,5.9-3.2,8.9C61.9,103.5,61.5,104.7,61,106.1z"/>
<radialGradient id="SVGID_00000014598582119011221910000008496340738393682058_" cx="89.9619" cy="26.8398" r="60.3349" fx="90.6281" fy="29.2068" gradientTransform="matrix(0.9012 0 0 -0.9012 -14.7635 89.5771)" gradientUnits="userSpaceOnUse">
	<stop  offset="0.3295" style="stop-color:#F9B26C"/>
	<stop  offset="0.4489" style="stop-color:#F5AB69"/>
	<stop  offset="0.6397" style="stop-color:#ED9960"/>
	<stop  offset="0.8766" style="stop-color:#E27E54"/>
	<stop  offset="1" style="stop-color:#DD6E4D"/>
</radialGradient>
<path style="fill:url(#SVGID_00000014598582119011221910000008496340738393682058_);" d="M75,20.8c-2.2-0.5-4.4-1.1-6.6-1.7
	c-0.7-0.2-1.4-0.1-2,0.2c-5,2.2-9.6,5.2-14,8.8c5.7,3.2,11.5,5.6,17.4,7.8c0.9,0.4,0.9-0.4,1.2-0.9c1.6-4.3,3.2-8.5,4.9-12.8
	C76.2,21.2,75.9,21,75,20.8z"/>
<radialGradient id="SVGID_00000013900962166900030910000002620445114524592542_" cx="89.9619" cy="26.8398" r="60.3349" fx="90.6281" fy="29.2068" gradientTransform="matrix(0.9012 0 0 -0.9012 -14.7635 89.5771)" gradientUnits="userSpaceOnUse">
	<stop  offset="0.3295" style="stop-color:#F9B26C"/>
	<stop  offset="0.4489" style="stop-color:#F5AB69"/>
	<stop  offset="0.6397" style="stop-color:#ED9960"/>
	<stop  offset="0.8766" style="stop-color:#E27E54"/>
	<stop  offset="1" style="stop-color:#DD6E4D"/>
</radialGradient>
<path style="fill:url(#SVGID_00000013900962166900030910000002620445114524592542_);" d="M49.5,30.5c-4,3.7-7.7,7.7-11.2,12.3
	c9.6,0.5,18.6,2.1,27.5,4.6c0.9,0.2,1-0.2,1.2-0.8c0.7-2.3,1.4-4.6,2.2-6.8c0.3-0.8,0.1-1.1-0.7-1.4c-6.1-2.2-12-4.8-17.7-8
	C50.4,30.1,50,30,49.5,30.5z"/>
<radialGradient id="SVGID_00000047758727691411125740000002562494673357196430_" cx="89.9619" cy="26.8398" r="60.3349" fx="90.6281" fy="29.2068" gradientTransform="matrix(0.9012 0 0 -0.9012 -14.7635 89.5771)" gradientUnits="userSpaceOnUse">
	<stop  offset="0.3295" style="stop-color:#F9B26C"/>
	<stop  offset="0.4489" style="stop-color:#F5AB69"/>
	<stop  offset="0.6397" style="stop-color:#ED9960"/>
	<stop  offset="0.8766" style="stop-color:#E27E54"/>
	<stop  offset="1" style="stop-color:#DD6E4D"/>
</radialGradient>
<path style="fill:url(#SVGID_00000047758727691411125740000002562494673357196430_);" d="M56,85.7c0.1-0.4,0.2-0.8-0.4-0.9
	c-2-0.4-3.9-1.1-6-0.8c1.8,0.7,3.6,1.4,5.4,2C55.4,86.2,55.9,86.3,56,85.7z"/>
<radialGradient id="SVGID_00000181774508816902164300000016078222449175650703_" cx="89.9619" cy="26.8398" r="60.3349" fx="90.6281" fy="29.2068" gradientTransform="matrix(0.9012 0 0 -0.9012 -14.7635 89.5771)" gradientUnits="userSpaceOnUse">
	<stop  offset="0.3295" style="stop-color:#F9B26C"/>
	<stop  offset="0.4489" style="stop-color:#F5AB69"/>
	<stop  offset="0.6397" style="stop-color:#ED9960"/>
	<stop  offset="0.8766" style="stop-color:#E27E54"/>
	<stop  offset="1" style="stop-color:#DD6E4D"/>
</radialGradient>
<path style="fill:url(#SVGID_00000181774508816902164300000016078222449175650703_);" d="M36.5,45.3c-1.1,1.7-2.5,3.3-2.7,5.5
	c-0.5,3.7-0.8,7.5-0.8,11.2c0,4.5,0.5,8.9,1.2,13.3c0.1,0.5,0.1,1.2,0.6,1.4c3,1.5,5.8,3.9,9.3,4.2c3.8,0.3,7.6,0.8,11.3,1.8
	c1.1,0.3,1.4-0.1,1.6-1c2.6-10.4,5.5-20.7,8.8-30.9c0.3-1,0.2-1.4-0.9-1.7c-8.8-2.4-17.8-4-26.9-4.3C37.4,44.9,36.9,44.7,36.5,45.3z
	"/>
<radialGradient id="SVGID_00000137098836755594212930000004750109099431118750_" cx="89.9619" cy="26.8398" r="60.3349" fx="90.6281" fy="29.2068" gradientTransform="matrix(0.9012 0 0 -0.9012 -14.7635 89.5771)" gradientUnits="userSpaceOnUse">
	<stop  offset="0.3295" style="stop-color:#F9B26C"/>
	<stop  offset="0.4489" style="stop-color:#F5AB69"/>
	<stop  offset="0.6397" style="stop-color:#ED9960"/>
	<stop  offset="0.8766" style="stop-color:#E27E54"/>
	<stop  offset="1" style="stop-color:#DD6E4D"/>
</radialGradient>
<path style="fill:url(#SVGID_00000137098836755594212930000004750109099431118750_);" d="M58.5,104.9c0.9-3.2,2.3-6.3,3.4-9.5
	c0.4-1.2,1.4-2.6,1-3.5c-0.4-1.1-2.2-0.9-3.5-1.4c-2.4-0.8-2.4-0.8-3,1.7c-1.2,5.6-2.5,11.1-3.2,16.9
	C56,108.8,57.7,107.6,58.5,104.9z"/>
<radialGradient id="SVGID_00000111165552393481856490000012535027402475471528_" cx="89.9619" cy="26.8398" r="60.3349" fx="90.6281" fy="29.2068" gradientTransform="matrix(0.9012 0 0 -0.9012 -14.7635 89.5771)" gradientUnits="userSpaceOnUse">
	<stop  offset="0.3295" style="stop-color:#F9B26C"/>
	<stop  offset="0.4489" style="stop-color:#F5AB69"/>
	<stop  offset="0.6397" style="stop-color:#ED9960"/>
	<stop  offset="0.8766" style="stop-color:#E27E54"/>
	<stop  offset="1" style="stop-color:#DD6E4D"/>
</radialGradient>
<path style="fill:url(#SVGID_00000111165552393481856490000012535027402475471528_);" d="M45,26.5c-0.7-0.7-1.1-0.5-1.6,0.2
	c-2.5,3.5-4.5,7.3-6.1,11.3c-0.2,0.6-0.6,1.1-0.5,1.8c0.5,0,0.7-0.4,0.9-0.7c2.4-3,4.9-5.8,7.7-8.5c0.7-0.7,2.1-1.5,2-2.2
	C47.2,27.5,45.7,27.2,45,26.5z"/>
<radialGradient id="SVGID_00000098912198400283860810000017234115423276837762_" cx="89.9619" cy="26.8398" r="60.3349" fx="90.6281" fy="29.2068" gradientTransform="matrix(0.9012 0 0 -0.9012 -14.7635 89.5771)" gradientUnits="userSpaceOnUse">
	<stop  offset="0.3295" style="stop-color:#F9B26C"/>
	<stop  offset="0.4489" style="stop-color:#F5AB69"/>
	<stop  offset="0.6397" style="stop-color:#ED9960"/>
	<stop  offset="0.8766" style="stop-color:#E27E54"/>
	<stop  offset="1" style="stop-color:#DD6E4D"/>
</radialGradient>
<path style="fill:url(#SVGID_00000098912198400283860810000017234115423276837762_);" d="M74.6,52.8c0.2-0.6-0.3-0.7-0.7-0.8
	c-1.6-0.5-3.2-1-4.8-1.6c-0.8-0.3-1.2-0.1-1.5,0.8c-3.2,10.4-6.2,20.9-8.9,31.4c-0.2,0.9,0.1,1.1,0.9,1.3c1.4,0.4,2.8,0.8,4.2,1.4
	c1.1,0.5,1.4,0.2,1.8-0.8c2.4-7.8,4.8-15.6,6.9-23.5C73.2,58.3,73.9,55.6,74.6,52.8z"/>
<radialGradient id="SVGID_00000003783974380263341280000000035525392765478063_" cx="89.9619" cy="26.8398" r="60.3349" fx="90.6281" fy="29.2068" gradientTransform="matrix(0.9012 0 0 -0.9012 -14.7635 89.5771)" gradientUnits="userSpaceOnUse">
	<stop  offset="0.3295" style="stop-color:#F9B26C"/>
	<stop  offset="0.4489" style="stop-color:#F5AB69"/>
	<stop  offset="0.6397" style="stop-color:#ED9960"/>
	<stop  offset="0.8766" style="stop-color:#E27E54"/>
	<stop  offset="1" style="stop-color:#DD6E4D"/>
</radialGradient>
<path style="fill:url(#SVGID_00000003783974380263341280000000035525392765478063_);" d="M66.9,16.2c2-0.9,4.2-1.4,6.3-2.2
	c-5-0.5-10-1.2-14.9,0.8c2.4,0.5,4.8,0.9,7.2,1.4C65.9,16.3,66.4,16.4,66.9,16.2z"/>
<radialGradient id="SVGID_00000084510772416842279440000017491954055822320037_" cx="89.9619" cy="26.8398" r="60.3349" fx="90.6281" fy="29.2068" gradientTransform="matrix(0.9012 0 0 -0.9012 -14.7635 89.5771)" gradientUnits="userSpaceOnUse">
	<stop  offset="0.3295" style="stop-color:#F9B26C"/>
	<stop  offset="0.4489" style="stop-color:#F5AB69"/>
	<stop  offset="0.6397" style="stop-color:#ED9960"/>
	<stop  offset="0.8766" style="stop-color:#E27E54"/>
	<stop  offset="1" style="stop-color:#DD6E4D"/>
</radialGradient>
<path style="fill:url(#SVGID_00000084510772416842279440000017491954055822320037_);" d="M57.8,113.3c3.4,2.9,10.4,5.3,16,5.3
	c3.6,0,7-0.5,10-2.6c2-1.4,3.6-3.1,3.8-5.9C77.8,113.7,67.9,114.7,57.8,113.3z"/>
<radialGradient id="SVGID_00000003075074308889263240000005345857483109638076_" cx="89.9619" cy="26.8398" r="60.3349" fx="90.6281" fy="29.2068" gradientTransform="matrix(0.9012 0 0 -0.9012 -14.7635 89.5771)" gradientUnits="userSpaceOnUse">
	<stop  offset="0.3295" style="stop-color:#F9B26C"/>
	<stop  offset="0.4489" style="stop-color:#F5AB69"/>
	<stop  offset="0.6397" style="stop-color:#ED9960"/>
	<stop  offset="0.8766" style="stop-color:#E27E54"/>
	<stop  offset="1" style="stop-color:#DD6E4D"/>
</radialGradient>
<path style="fill:url(#SVGID_00000003075074308889263240000005345857483109638076_);" d="M60.3,117.7c-1-0.5-2-1.1-3-1.6
	c-1.2-0.6-1,0.6-1.4,1c-0.6,0.8,0.3,0.7,0.6,0.8c1.2,0.3,2.3,0.5,3.5,0.8c0.2-0.1,0.7,0.2,0.8-0.2C61.1,118,60.6,117.9,60.3,117.7z"
	/>
<radialGradient id="SVGID_00000180354790241471512350000004773581733673005703_" cx="89.9619" cy="26.8398" r="60.3349" fx="90.6281" fy="29.2068" gradientTransform="matrix(0.9012 0 0 -0.9012 -14.7635 89.5771)" gradientUnits="userSpaceOnUse">
	<stop  offset="0.3295" style="stop-color:#F9B26C"/>
	<stop  offset="0.4489" style="stop-color:#F5AB69"/>
	<stop  offset="0.6397" style="stop-color:#ED9960"/>
	<stop  offset="0.8766" style="stop-color:#E27E54"/>
	<stop  offset="1" style="stop-color:#DD6E4D"/>
</radialGradient>
<path style="fill:url(#SVGID_00000180354790241471512350000004773581733673005703_);" d="M54,88.6c-3.8-1.4-7.7-2.8-11.3-4.7
	c-2.1-1.1-4.2-1.3-6.6-0.7c3,9.5,7.6,18.1,14.8,25.2c0.2-0.2,0.2-0.3,0.3-0.4c1-6.1,2.3-12.1,3.8-18.1C55.2,88.9,54.6,88.9,54,88.6z
	"/>
<radialGradient id="SVGID_00000043425273404114606180000006899159708442371218_" cx="89.9619" cy="26.8398" r="60.3349" fx="90.6281" fy="29.2068" gradientTransform="matrix(0.9012 0 0 -0.9012 -14.7635 89.5771)" gradientUnits="userSpaceOnUse">
	<stop  offset="0.3295" style="stop-color:#F9B26C"/>
	<stop  offset="0.4489" style="stop-color:#F5AB69"/>
	<stop  offset="0.6397" style="stop-color:#ED9960"/>
	<stop  offset="0.8766" style="stop-color:#E27E54"/>
	<stop  offset="1" style="stop-color:#DD6E4D"/>
</radialGradient>
<path style="fill:url(#SVGID_00000043425273404114606180000006899159708442371218_);" d="M52.7,113.2c0,1.2,0,2.4,0,3.8
	C54.8,114.2,54.8,114.1,52.7,113.2z"/>
<radialGradient id="SVGID_00000142883438255749975990000001743993454066242477_" cx="89.9619" cy="26.8398" r="60.3349" fx="90.6281" fy="29.2068" gradientTransform="matrix(0.9012 0 0 -0.9012 -14.7635 89.5771)" gradientUnits="userSpaceOnUse">
	<stop  offset="0.3295" style="stop-color:#F9B26C"/>
	<stop  offset="0.4489" style="stop-color:#F5AB69"/>
	<stop  offset="0.6397" style="stop-color:#ED9960"/>
	<stop  offset="0.8766" style="stop-color:#E27E54"/>
	<stop  offset="1" style="stop-color:#DD6E4D"/>
</radialGradient>
<path style="fill:url(#SVGID_00000142883438255749975990000001743993454066242477_);" d="M89.8,110c0.1,1.4-0.5,2.7-0.9,4.1
	c4.3-2.5,7.8-5.9,10.5-10c-2.9,1.8-5.8,3.4-8.9,4.8C90.1,109.1,89.8,109.4,89.8,110z"/>
<radialGradient id="SVGID_00000163785674987054540310000015885405427278156684_" cx="89.9619" cy="26.8398" r="60.335" fx="90.6281" fy="29.2068" gradientTransform="matrix(0.9012 0 0 -0.9012 -14.7635 89.5771)" gradientUnits="userSpaceOnUse">
	<stop  offset="0.3295" style="stop-color:#F9B26C"/>
	<stop  offset="0.4489" style="stop-color:#F5AB69"/>
	<stop  offset="0.6397" style="stop-color:#ED9960"/>
	<stop  offset="0.8766" style="stop-color:#E27E54"/>
	<stop  offset="1" style="stop-color:#DD6E4D"/>
</radialGradient>
<path style="fill:url(#SVGID_00000163785674987054540310000015885405427278156684_);" d="M82.3,95.7c0.1,0.3,0.1,0.4,0.1,0.4
	c3.1,2.8,5.7,6,7,10.1c0.3,1,0.8,0.5,1.2,0.3c4.3-2,8.3-4.6,11.9-7.6c0.9-0.8,1.4-1.8,1.8-3C96.9,97,89.6,96.6,82.3,95.7z"/>
<radialGradient id="SVGID_00000008144602095296445430000008529592602706212748_" cx="89.9619" cy="26.8398" r="60.3351" fx="90.6281" fy="29.2068" gradientTransform="matrix(0.9012 0 0 -0.9012 -14.7635 89.5771)" gradientUnits="userSpaceOnUse">
	<stop  offset="0.3295" style="stop-color:#F9B26C"/>
	<stop  offset="0.4489" style="stop-color:#F5AB69"/>
	<stop  offset="0.6397" style="stop-color:#ED9960"/>
	<stop  offset="0.8766" style="stop-color:#E27E54"/>
	<stop  offset="1" style="stop-color:#DD6E4D"/>
</radialGradient>
<path style="fill:url(#SVGID_00000008144602095296445430000008529592602706212748_);" d="M115.4,44.1c-1.7,1.5-3.6,1.9-5.4,2.2
	c-0.7,0.1-0.9,0.3-0.6,1c2.3,7.7,3.4,15.5,3.2,23.5c0,0.4-0.1,0.8,0.2,1.1c1.6,1.6,2.9,3.4,4.3,5.6C120.8,66,120.1,55.1,115.4,44.1z
	"/>
<radialGradient id="SVGID_00000153683184287208994940000009789519175463997880_" cx="89.9619" cy="26.8398" r="60.3351" fx="90.6281" fy="29.2068" gradientTransform="matrix(0.9012 0 0 -0.9012 -14.7635 89.5771)" gradientUnits="userSpaceOnUse">
	<stop  offset="0.3295" style="stop-color:#F9B26C"/>
	<stop  offset="0.4489" style="stop-color:#F5AB69"/>
	<stop  offset="0.6397" style="stop-color:#ED9960"/>
	<stop  offset="0.8766" style="stop-color:#E27E54"/>
	<stop  offset="1" style="stop-color:#DD6E4D"/>
</radialGradient>
<path style="fill:url(#SVGID_00000153683184287208994940000009789519175463997880_);" d="M112.4,75c-0.1,0.4-0.1,0.6-0.1,0.9
	c-0.5,4.9-1.4,9.7-2.9,14.4c-0.1,0.3-0.6,0.7-0.1,1c0.4,0.2,0.7-0.2,0.9-0.5c1.3-1.7,2.5-3.6,3.5-5.5c2.8-5,2.7-5.6-0.9-10
	C112.7,75.2,112.7,75.2,112.4,75z"/>
<radialGradient id="SVGID_00000096776450735838680000000002709087359514070951_" cx="89.9619" cy="26.8398" r="60.335" fx="90.6281" fy="29.2068" gradientTransform="matrix(0.9012 0 0 -0.9012 -14.7635 89.5771)" gradientUnits="userSpaceOnUse">
	<stop  offset="0.3295" style="stop-color:#F9B26C"/>
	<stop  offset="0.4489" style="stop-color:#F5AB69"/>
	<stop  offset="0.6397" style="stop-color:#ED9960"/>
	<stop  offset="0.8766" style="stop-color:#E27E54"/>
	<stop  offset="1" style="stop-color:#DD6E4D"/>
</radialGradient>
<path style="fill:url(#SVGID_00000096776450735838680000000002709087359514070951_);" d="M108.9,71.1c-2.5-2.3-5.2-4.3-8-6.2
	c-1-0.7-1.2-0.4-1.7,0.6c-2.5,6.2-5.8,12.1-9.7,17.6c-2.3,3.3-4.9,6.5-7.9,9.7c1.8,0.2,3.3,0.4,4.8,0.6c5.8,0.6,11.5,0.7,17.3-0.2
	c0.9-0.2,1.8-0.1,2.3-1.4c2.1-6.1,3.3-12.3,3.6-18.7C109.8,72.2,109.5,71.7,108.9,71.1z"/>
<radialGradient id="SVGID_00000118374129419137580310000001126357350041567387_" cx="89.9619" cy="26.8398" r="60.3349" fx="90.6281" fy="29.2068" gradientTransform="matrix(0.9012 0 0 -0.9012 -14.7635 89.5771)" gradientUnits="userSpaceOnUse">
	<stop  offset="0.3295" style="stop-color:#F9B26C"/>
	<stop  offset="0.4489" style="stop-color:#F5AB69"/>
	<stop  offset="0.6397" style="stop-color:#ED9960"/>
	<stop  offset="0.8766" style="stop-color:#E27E54"/>
	<stop  offset="1" style="stop-color:#DD6E4D"/>
</radialGradient>
<path style="fill:url(#SVGID_00000118374129419137580310000001126357350041567387_);" d="M42.4,113.3c1.5,0.6,2.9,1.2,4.4,1.8
	c3.5,1.3,3.5,1.3,3.7-2.5c0-0.1-0.1-0.2-0.2-0.3C47.8,112.8,45.1,113,42.4,113.3z"/>
<radialGradient id="SVGID_00000173872685320660697710000003740832247278268312_" cx="89.9619" cy="26.8398" r="60.3351" fx="90.6281" fy="29.2068" gradientTransform="matrix(0.9012 0 0 -0.9012 -14.7635 89.5771)" gradientUnits="userSpaceOnUse">
	<stop  offset="0.3295" style="stop-color:#F9B26C"/>
	<stop  offset="0.4489" style="stop-color:#F5AB69"/>
	<stop  offset="0.6397" style="stop-color:#ED9960"/>
	<stop  offset="0.8766" style="stop-color:#E27E54"/>
	<stop  offset="1" style="stop-color:#DD6E4D"/>
</radialGradient>
<path style="fill:url(#SVGID_00000173872685320660697710000003740832247278268312_);" d="M20.8,70.4c-2.6-2.3-5-4.8-7.1-8.1
	c0,8.1,3,18.8,6,22.2c0.1-4.3,0.6-8.5,1.6-12.6C21.6,71.1,21.3,70.8,20.8,70.4z"/>
<radialGradient id="SVGID_00000016076119804183706480000001292297072986023349_" cx="89.9619" cy="26.8398" r="60.3349" fx="90.6281" fy="29.2068" gradientTransform="matrix(0.9012 0 0 -0.9012 -14.7635 89.5771)" gradientUnits="userSpaceOnUse">
	<stop  offset="0.3295" style="stop-color:#F9B26C"/>
	<stop  offset="0.4489" style="stop-color:#F5AB69"/>
	<stop  offset="0.6397" style="stop-color:#ED9960"/>
	<stop  offset="0.8766" style="stop-color:#E27E54"/>
	<stop  offset="1" style="stop-color:#DD6E4D"/>
</radialGradient>
<path style="fill:url(#SVGID_00000016076119804183706480000001292297072986023349_);" d="M47.1,110.4c-9.2-3.4-16.8-8.5-23.2-15.3
	C27.5,107.8,38,111.6,47.1,110.4z"/>
<radialGradient id="SVGID_00000142150976241924343540000008083129785199250607_" cx="89.9619" cy="26.8398" r="60.3349" fx="90.6281" fy="29.2068" gradientTransform="matrix(0.9012 0 0 -0.9012 -14.7635 89.5771)" gradientUnits="userSpaceOnUse">
	<stop  offset="0.3295" style="stop-color:#F9B26C"/>
	<stop  offset="0.4489" style="stop-color:#F5AB69"/>
	<stop  offset="0.6397" style="stop-color:#ED9960"/>
	<stop  offset="0.8766" style="stop-color:#E27E54"/>
	<stop  offset="1" style="stop-color:#DD6E4D"/>
</radialGradient>
<path style="fill:url(#SVGID_00000142150976241924343540000008083129785199250607_);" d="M43.5,21.7c0.4,0.5,0.7,0.4,1.1,0
	c1.5-1.7,3.3-3.3,5.3-4.9c-2.7-0.4-4.5,0.9-6.6,1.6c-1.6,0.5-1.4,1.3-0.6,2.4C43,21,43.3,21.3,43.5,21.7z"/>
<radialGradient id="SVGID_00000016055792778066384730000002392715532893835152_" cx="89.9619" cy="26.8398" r="60.3349" fx="90.6281" fy="29.2068" gradientTransform="matrix(0.9012 0 0 -0.9012 -14.7635 89.5771)" gradientUnits="userSpaceOnUse">
	<stop  offset="0.3295" style="stop-color:#F9B26C"/>
	<stop  offset="0.4489" style="stop-color:#F5AB69"/>
	<stop  offset="0.6397" style="stop-color:#ED9960"/>
	<stop  offset="0.8766" style="stop-color:#E27E54"/>
	<stop  offset="1" style="stop-color:#DD6E4D"/>
</radialGradient>
<path style="fill:url(#SVGID_00000016055792778066384730000002392715532893835152_);" d="M49.3,26.2c0.4,0.2,0.7,0.2,1-0.1
	c3.8-3.1,7.8-5.8,12.3-8.1c-0.8-0.6-1.7-0.5-2.5-0.6c-6.3-1.1-7.2-0.8-11.9,3.6C45.5,23.8,45.6,24.5,49.3,26.2z"/>
<radialGradient id="SVGID_00000159436285549619170410000005419732627980653976_" cx="89.9619" cy="26.8398" r="60.335" fx="90.6281" fy="29.2068" gradientTransform="matrix(0.9012 0 0 -0.9012 -14.7635 89.5771)" gradientUnits="userSpaceOnUse">
	<stop  offset="0.3295" style="stop-color:#F9B26C"/>
	<stop  offset="0.4489" style="stop-color:#F5AB69"/>
	<stop  offset="0.6397" style="stop-color:#ED9960"/>
	<stop  offset="0.8766" style="stop-color:#E27E54"/>
	<stop  offset="1" style="stop-color:#DD6E4D"/>
</radialGradient>
<path style="fill:url(#SVGID_00000159436285549619170410000005419732627980653976_);" d="M33.9,41.4c1.5-5.2,3.8-10.2,6.9-14.7
	c1.5-2.2,1.5-2.2,0-4.4c-0.2-0.4-0.5-0.7-0.6-1.1c-0.3-1-0.8-0.9-1.5-0.5c-4.4,2.5-8.3,5.6-11.8,9.2c-4.6,4.8-8,10.3-10.4,16.9
	c5-2.9,10.2-3.7,15.6-4C33,42.8,33.5,42.5,33.9,41.4z"/>
<radialGradient id="SVGID_00000055673768457717529630000017224511809142242706_" cx="89.9619" cy="26.8398" r="60.335" fx="90.6281" fy="29.2068" gradientTransform="matrix(0.9012 0 0 -0.9012 -14.7635 89.5771)" gradientUnits="userSpaceOnUse">
	<stop  offset="0.3295" style="stop-color:#F9B26C"/>
	<stop  offset="0.4489" style="stop-color:#F5AB69"/>
	<stop  offset="0.6397" style="stop-color:#ED9960"/>
	<stop  offset="0.8766" style="stop-color:#E27E54"/>
	<stop  offset="1" style="stop-color:#DD6E4D"/>
</radialGradient>
<path style="fill:url(#SVGID_00000055673768457717529630000017224511809142242706_);" d="M33.3,81.1c0-0.8,0-1.9-0.8-2.4
	c-2.9-1.7-5.7-3.6-8.5-5.7c-1.1,4.5-1.5,8.8-1.5,13.6c2.8-2.8,6-4.1,9.4-4.9C32.3,81.6,33.3,81.7,33.3,81.1z"/>
<radialGradient id="SVGID_00000153690485736131768230000004625725788551224476_" cx="89.9619" cy="26.8398" r="60.3349" fx="90.6281" fy="29.2068" gradientTransform="matrix(0.9012 0 0 -0.9012 -14.7635 89.5771)" gradientUnits="userSpaceOnUse">
	<stop  offset="0.3295" style="stop-color:#F9B26C"/>
	<stop  offset="0.4489" style="stop-color:#F5AB69"/>
	<stop  offset="0.6397" style="stop-color:#ED9960"/>
	<stop  offset="0.8766" style="stop-color:#E27E54"/>
	<stop  offset="1" style="stop-color:#DD6E4D"/>
</radialGradient>
<path style="fill:url(#SVGID_00000153690485736131768230000004625725788551224476_);" d="M31,98.6c4.8,4.1,10.2,7.2,16.5,9.6
	c-1.5-1.9-2.8-3.4-3.9-5c-4.1-5.6-7.1-11.8-9.2-18.5c-0.2-0.5,0-1.4-0.9-1.2c-3.9,0.8-7.6,2.1-10,5.5c-0.5,0.7-0.3,1.2,0.1,1.8
	C25.8,93.7,28.2,96.3,31,98.6z"/>
<radialGradient id="SVGID_00000031201948736755096750000013344233656410020254_" cx="89.9619" cy="26.8398" r="60.3351" fx="90.6281" fy="29.2068" gradientTransform="matrix(0.9012 0 0 -0.9012 -14.7635 89.5771)" gradientUnits="userSpaceOnUse">
	<stop  offset="0.3295" style="stop-color:#F9B26C"/>
	<stop  offset="0.4489" style="stop-color:#F5AB69"/>
	<stop  offset="0.6397" style="stop-color:#ED9960"/>
	<stop  offset="0.8766" style="stop-color:#E27E54"/>
	<stop  offset="1" style="stop-color:#DD6E4D"/>
</radialGradient>
<path style="fill:url(#SVGID_00000031201948736755096750000013344233656410020254_);" d="M24.8,69.4c-0.1,0.5,0,0.8,0.4,1.1
	c2.1,1.6,4.3,3.1,6.9,4.7c-0.7-3.7-1-7-1.1-10.4c-0.2-3.3,0-6.7,0.2-10.3C29.3,57.1,25.4,66.4,24.8,69.4z"/>
<radialGradient id="SVGID_00000135660690914414284610000004438097922714266028_" cx="89.9619" cy="26.8398" r="60.3351" fx="90.6281" fy="29.2068" gradientTransform="matrix(0.9012 0 0 -0.9012 -14.7635 89.5771)" gradientUnits="userSpaceOnUse">
	<stop  offset="0.3295" style="stop-color:#F9B26C"/>
	<stop  offset="0.4489" style="stop-color:#F5AB69"/>
	<stop  offset="0.6397" style="stop-color:#ED9960"/>
	<stop  offset="0.8766" style="stop-color:#E27E54"/>
	<stop  offset="1" style="stop-color:#DD6E4D"/>
</radialGradient>
<path style="fill:url(#SVGID_00000135660690914414284610000004438097922714266028_);" d="M32.1,46.8c0.3-0.5,0.8-1.1,0.5-1.6
	c-0.3-0.6-1.1-0.1-1.6-0.2c-0.5,0-1,0.1-1.5,0.1c-4.1,0.5-8.1,1.2-11.6,3.4c-3.4,2.1-4.7,6.2-3.2,9.9c1.6,3.8,4.4,6.7,7.6,9.6
	c0.6-1.8,1.2-3.5,1.8-5.1C26.2,57.3,28.9,52,32.1,46.8z"/>
<g>
	<path class="st42" d="M4.4,85.6l2.1-3l-3.4-1.5l-0.3-1.2L9.7,78l0.4,1.3l-4.9,1.3l0,0l3,1.3l0.1,0.2l-1.9,2.7l0,0l4.9-1.3l0.4,1.3
		l-6.9,1.9L4.4,85.6z"/>
	<path class="st42" d="M1.9,74.1L9,73.2l0.2,1.4l-7.1,0.9L1.9,74.1z"/>
	<path class="st42" d="M1.4,66.7c0-0.8,0.1-1.4,0.4-2c0.3-0.6,0.7-1,1.3-1.4s1.2-0.5,1.9-0.5c0.7,0,1.3,0.2,1.9,0.5
		c0.5,0.3,1,0.8,1.3,1.4c0.3,0.6,0.4,1.3,0.5,2.1l0,2.9l-7.2,0L1.4,66.7z M7.5,66.8c0-0.8-0.2-1.4-0.7-1.8S5.7,64.3,5,64.3
		c-0.8,0-1.4,0.2-1.8,0.7s-0.7,1.1-0.7,1.9l0,1.4l5,0L7.5,66.8z"/>
	<path class="st42" d="M1.9,57.6l5.6-3.4l-4.9-0.8L2.8,52l7.1,1.2l-0.2,1.2L4,57.8l5,0.8l-0.2,1.3l-7.1-1.2L1.9,57.6z"/>
	<path class="st42" d="M4.4,46.4l6.9,2.1l-0.4,1.3L4,47.8L4.4,46.4z"/>
	<path class="st42" d="M7.3,38.8c0.4-0.8,0.9-1.5,1.6-2.2l1.2,0.5c-0.8,0.6-1.3,1.3-1.7,2.1c-0.2,0.5-0.3,1-0.3,1.4
		c0,0.5,0.2,0.9,0.4,1.2c0.3,0.4,0.6,0.7,1.1,0.8c0.7,0.3,1.3,0.3,1.9,0.1c0.6-0.3,1.1-0.8,1.4-1.5c0.1-0.2,0.2-0.4,0.2-0.6
		c0-0.2,0.1-0.5,0.1-0.7l-1.1-0.5l-0.5,1.1l-1-0.4l1.1-2.3l2.7,1.2c0.1,0.4,0.1,0.9,0,1.4c-0.1,0.5-0.2,1-0.4,1.5
		c-0.3,0.7-0.7,1.2-1.3,1.7s-1.1,0.7-1.8,0.8S9.6,44.3,9,44c-0.6-0.3-1.1-0.7-1.5-1.3c-0.4-0.5-0.6-1.2-0.6-1.9
		C6.8,40.2,7,39.5,7.3,38.8z"/>
	<path class="st42" d="M11.4,31.3l2.5,1.7l2.1-3.1l-2.5-1.7l0.8-1.1l6,4l-0.8,1.2l-2.5-1.7l-2.1,3.1l2.5,1.7l-0.8,1.2l-6-4
		L11.4,31.3z"/>
	<path class="st42" d="M21,19.4l0.8,0.7L20.1,22l4.5,4.1l-0.9,1L19.1,23l-1.7,1.9l-0.8-0.7L21,19.4z"/>
	<path class="st42" d="M29.8,12.2c0.6-0.4,1.2-0.6,2-0.7l0.7,1c-0.9,0-1.5,0.2-2,0.6c-0.3,0.2-0.5,0.4-0.6,0.6
		c-0.1,0.2-0.1,0.4,0.1,0.6c0.2,0.2,0.5,0.3,0.9,0.3c0.1,0,0.6-0.1,1.3-0.2c0.6-0.1,1.2-0.1,1.6,0c0.4,0.1,0.7,0.4,1,0.8
		c0.3,0.5,0.5,1,0.3,1.6c-0.2,0.6-0.5,1-1.1,1.4c-0.4,0.3-0.7,0.4-1.1,0.5S32.1,19,31.6,19l-0.8-1.1c1,0.1,1.8,0,2.3-0.4
		c0.3-0.2,0.5-0.4,0.5-0.6s0.1-0.5-0.1-0.7c-0.2-0.3-0.5-0.4-0.9-0.4c-0.3,0-0.8,0.1-1.3,0.2c-0.6,0.1-1.1,0.1-1.5,0
		c-0.4-0.1-0.8-0.4-1-0.8c-0.3-0.5-0.4-1-0.3-1.6C28.8,13.1,29.2,12.6,29.8,12.2z"/>
	<path class="st42" d="M36.4,8.3l1.8,3.8c0.2,0.4,0.4,0.7,0.6,0.8s0.5,0.3,0.8,0.3s0.7,0,1-0.2c0.4-0.2,0.7-0.4,0.9-0.7
		s0.3-0.6,0.3-0.9c0-0.3-0.1-0.7-0.3-1.1l-1.8-3.7L41.1,6l1.9,3.8c0.4,0.9,0.5,1.7,0.2,2.4c-0.3,0.7-0.9,1.3-1.9,1.8
		c-0.6,0.3-1.2,0.4-1.7,0.4s-1-0.1-1.5-0.4c-0.4-0.3-0.8-0.7-1-1.2l-1.9-3.9L36.4,8.3z"/>
	<path class="st42" d="M46.4,4.1l5.5,3.6l-1.4-4.8l1.3-0.4l2,6.9l-1.1,0.3L47.1,6l1.4,4.9l-1.3,0.4l-2-6.9L46.4,4.1z"/>
	<path class="st42" d="M64.2,1c0.7,0,1.2,0.1,1.7,0.5s0.7,0.8,0.7,1.4c0,0.4-0.1,0.8-0.3,1.1c-0.2,0.3-0.5,0.6-0.9,0.8
		C65.6,4.8,65.8,5,66,5.2c0.2,0.2,0.4,0.6,0.7,1.1c0.5,0.9,0.8,1.4,1,1.8l-1.5,0.1c-0.1-0.1-0.3-0.4-0.5-0.7
		c-0.4-0.8-0.7-1.2-0.9-1.5c-0.2-0.3-0.4-0.4-0.6-0.5c-0.2-0.1-0.4-0.1-0.6-0.1l-0.5,0l0.1,3l-1.4,0.1l-0.3-7.2L64.2,1z M64,4
		c0.4,0,0.6-0.1,0.8-0.3C65,3.5,65.1,3.3,65.1,3c0-0.3-0.1-0.6-0.3-0.7C64.5,2.1,64.2,2,63.9,2l-0.9,0l0.1,2L64,4z"/>
	<path class="st42" d="M75.1,1.5L77.4,9l-1.4-0.2L75.4,7l-3.2-0.4l-0.9,1.6l-1.4-0.2l3.8-6.8L75.1,1.5z M72.8,5.6l2.3,0.3l-0.9-3
		L72.8,5.6z"/>
	<path class="st42" d="M83,3l2.7,6l1.4-4.8l1.3,0.4l-2,6.9l-1.1-0.3L82.6,5l-1.4,4.9l-1.3-0.4l2-6.9L83,3z"/>
	<path class="st42" d="M95.3,7.6c0.7,0.3,1.2,0.8,1.6,1.3c0.4,0.5,0.6,1.1,0.6,1.8c0,0.6-0.1,1.3-0.4,1.9c-0.3,0.6-0.7,1.1-1.3,1.5
		c-0.5,0.3-1.1,0.5-1.8,0.5c-0.7,0-1.3-0.2-2-0.5l-2.6-1.3l3.2-6.4L95.3,7.6z M92.5,13c0.7,0.3,1.3,0.4,2,0.2s1.1-0.6,1.4-1.3
		c0.3-0.7,0.4-1.3,0.2-1.9s-0.7-1.1-1.4-1.4l-1.3-0.6l-2.2,4.5L92.5,13z"/>
	<path class="st42" d="M105.2,13.5c0.6,0.4,1.1,1,1.3,1.6c0.3,0.6,0.4,1.2,0.4,1.9s-0.3,1.3-0.7,1.8c-0.4,0.5-0.9,0.9-1.5,1.2
		c-0.6,0.3-1.3,0.3-1.9,0.2s-1.3-0.4-1.9-0.8c-0.6-0.4-1.1-1-1.3-1.6c-0.3-0.6-0.4-1.3-0.4-1.9s0.3-1.3,0.7-1.8
		c0.4-0.5,0.9-0.9,1.5-1.2s1.3-0.4,1.9-0.3C103.9,12.8,104.6,13,105.2,13.5z M101,15c-0.3,0.4-0.4,0.8-0.5,1.2
		c-0.1,0.4,0,0.9,0.2,1.2c0.2,0.4,0.5,0.7,0.9,1c0.6,0.4,1.2,0.6,1.9,0.5c0.7-0.1,1.2-0.4,1.6-1c0.3-0.4,0.4-0.8,0.5-1.2
		c0.1-0.4,0-0.9-0.2-1.2c-0.2-0.4-0.5-0.7-0.9-1s-0.8-0.5-1.2-0.5c-0.4-0.1-0.8,0-1.2,0.2C101.6,14.3,101.3,14.6,101,15z"/>
	<path class="st42" d="M112.3,19.6l-0.7,6.5l3.6-3.5l0.9,1l-5.2,4.9l-0.8-0.9l0.7-6.6l-3.7,3.5l-0.9-1l5.2-4.9L112.3,19.6z"/>
	<path class="st42" d="M119.6,28.2l-1.8,6.3l4.2-2.8l0.8,1.1l-6,4l-0.7-1l1.9-6.4l-4.2,2.8l-0.8-1.1l6-4L119.6,28.2z"/>
	<path class="st42" d="M126.8,41l-1,0.5l-1.4-3l-1.7,0.8l1.3,2.8l-1,0.5l-1.3-2.8l-1.8,0.8l1.4,3l-1,0.5l-2-4.3l6.5-3L126.8,41z
		 M128.6,39.5l-2.4-1l-0.3-0.7l2,0.2L128.6,39.5z"/>
	<path class="st42" d="M129.6,49.4l-1,0.3l-0.9-3.1l-1.8,0.5l0.9,3l-1,0.3l-0.9-3l-1.9,0.6l1,3.2l-1,0.3l-1.4-4.5l6.9-2.1
		L129.6,49.4z"/>
	<path class="st42" d="M131.6,61.5l-7.1,0.6l-0.1-1.3l7.1-0.6L131.6,61.5z"/>
	<path class="st42" d="M131.8,68.1c0,0.7-0.2,1.2-0.6,1.6s-0.9,0.6-1.6,0.6c-0.5,0-1-0.2-1.6-0.5c-0.6-0.3-1.3-0.9-2.2-1.7l-0.1,2.5
		l-1.2,0l0.2-4.6h0.1c0.6,0.6,1.2,1.1,1.8,1.5c0.5,0.4,0.9,0.7,1.3,0.9c0.3,0.2,0.6,0.4,0.9,0.5c0.2,0.1,0.5,0.2,0.8,0.2
		c0.3,0,0.6-0.1,0.8-0.3c0.2-0.2,0.4-0.4,0.4-0.8c0-0.5-0.3-1.1-0.9-1.7l1.4,0.1C131.6,66.8,131.8,67.4,131.8,68.1z"/>
	<path class="st42" d="M131,76.7c-0.1,0.7-0.5,1.2-1.2,1.6c-0.7,0.3-1.6,0.4-2.8,0.2c-1.1-0.2-2-0.5-2.6-1.1
		c-0.6-0.5-0.8-1.1-0.7-1.9c0.1-0.7,0.5-1.2,1.2-1.6c0.7-0.3,1.6-0.4,2.8-0.2c1.1,0.2,2,0.5,2.6,1.1S131.1,75.9,131,76.7z M127.5,75
		c-1.6-0.3-2.5-0.1-2.6,0.6c-0.1,0.7,0.7,1.2,2.4,1.4c1.6,0.3,2.4,0.1,2.6-0.6C129.9,75.8,129.2,75.3,127.5,75z"/>
	<path class="st42" d="M129.1,85c-0.2,0.7-0.7,1.2-1.4,1.4s-1.7,0.2-2.8-0.2c-1.1-0.3-1.9-0.8-2.4-1.4c-0.5-0.6-0.7-1.2-0.4-1.9
		c0.2-0.7,0.7-1.2,1.4-1.4s1.7-0.2,2.8,0.2s1.9,0.8,2.4,1.4C129.1,83.6,129.3,84.3,129.1,85z M125.8,82.9c-1.6-0.5-2.5-0.4-2.7,0.3
		c-0.2,0.7,0.5,1.2,2.2,1.7c1.5,0.5,2.4,0.4,2.6-0.3C128.1,84,127.4,83.4,125.8,82.9z"/>
</g>
<g>
	<path class="st42" d="M13.4,93.4c0.2,0.4,0.2,0.7,0.1,1.1c-0.1,0.4-0.4,0.7-0.7,0.8c-0.4,0.2-0.7,0.2-1.1,0.1
		c-0.4-0.1-0.6-0.3-0.8-0.7c-0.2-0.3-0.2-0.7-0.1-1.1s0.4-0.7,0.7-0.8s0.7-0.2,1.1-0.1C12.9,92.8,13.2,93,13.4,93.4z"/>
	<path class="st42" d="M21.5,102l-5.7,4.4l-0.8-1l5.7-4.4L21.5,102z"/>
	<path class="st42" d="M26,106.8c0.3,0.3,0.5,0.7,0.6,1.1c0.1,0.4,0.1,0.8,0,1.2c-0.1,0.4-0.4,0.8-0.7,1.2c-0.5,0.5-1.3,0.9-2.2,1.2
		c-0.9,0.3-1.9,0.4-3,0.4l-1.1-1.1c0.5,0,1.2,0,1.9-0.1s1.4-0.3,1.8-0.5c-0.3-0.1-0.5-0.3-0.7-0.5c-0.4-0.4-0.6-0.9-0.6-1.4
		s0.3-1.1,0.7-1.5c0.3-0.3,0.6-0.5,1-0.6c0.4-0.1,0.8-0.1,1.2,0S25.7,106.5,26,106.8z M23.7,107.8c-0.2,0.2-0.4,0.5-0.4,0.8
		c0,0.3,0.1,0.5,0.3,0.7c0.2,0.2,0.4,0.3,0.7,0.3c0.3,0,0.5-0.1,0.7-0.3c0.2-0.2,0.4-0.5,0.4-0.8s-0.1-0.5-0.3-0.7
		c-0.2-0.2-0.4-0.3-0.7-0.3C24.2,107.4,23.9,107.5,23.7,107.8z"/>
	<path class="st42" d="M32.1,117.4l-0.7,1l-2.2-1.5l0.7-1L32.1,117.4z"/>
	<path class="st42" d="M41.1,117.7c0.6,0.3,1,0.7,1.2,1.2c0.2,0.5,0.2,1.1-0.1,1.7c-0.2,0.4-0.6,0.9-1.1,1.2
		c-0.5,0.4-1.3,0.8-2.4,1.4l2.2,1.1l-0.5,1.1l-4.2-2l0.1-0.1c0.8-0.4,1.5-0.7,2-1c0.6-0.3,1-0.6,1.4-0.8c0.3-0.2,0.6-0.4,0.8-0.6
		s0.3-0.4,0.5-0.6c0.1-0.3,0.2-0.6,0.1-0.9c-0.1-0.3-0.3-0.5-0.5-0.6c-0.5-0.2-1.1-0.2-1.9,0.1l0.6-1.3
		C39.9,117.3,40.5,117.4,41.1,117.7z"/>
	<path class="st42" d="M47.7,120.4c0.6,0.2,1.1,0.5,1.4,1s0.3,0.9,0.2,1.4c-0.2,0.7-0.7,1.1-1.5,1.2c0.3,0.2,0.5,0.6,0.6,0.9
		s0.1,0.7-0.1,1.1c-0.2,0.6-0.6,1-1.1,1.2s-1.2,0.2-1.8,0c-0.5-0.2-1-0.5-1.4-0.9l0.4-1.2c0.2,0.3,0.4,0.5,0.6,0.7s0.4,0.3,0.7,0.4
		c0.3,0.1,0.6,0.1,0.9,0c0.3-0.1,0.4-0.3,0.5-0.6c0.1-0.3,0.1-0.6-0.1-0.9c-0.2-0.3-0.4-0.5-0.8-0.6l-0.1,0l0.4-1.1l0.1,0
		c0.4,0.1,0.7,0.1,0.9,0.1c0.3-0.1,0.4-0.3,0.5-0.6c0.1-0.3,0.1-0.5-0.1-0.8c-0.1-0.2-0.4-0.4-0.7-0.5c-0.4-0.1-0.8-0.2-1.3-0.1
		l0.4-1.1C46.7,120.2,47.2,120.2,47.7,120.4z"/>
	<path class="st42" d="M59.2,123.2l-1,6.8c-0.1,0.8-0.4,1.3-0.9,1.7c-0.5,0.4-1,0.6-1.7,0.5c0,0-0.1,0-0.1,0c0,0-0.1,0-0.1,0
		l0.1-1.2c0.8,0.1,1.3-0.3,1.4-1.3l1-6.7L59.2,123.2z"/>
	<path class="st42" d="M63.8,123.6l-0.1,4.2c0,0.4,0.1,0.8,0.2,1s0.3,0.5,0.6,0.6s0.6,0.3,1,0.3c0.4,0,0.8-0.1,1.1-0.2
		c0.3-0.1,0.5-0.4,0.7-0.6c0.1-0.3,0.2-0.6,0.2-1.1l0.1-4.1l1.4,0l-0.1,4.3c0,1-0.3,1.7-0.9,2.2c-0.6,0.5-1.4,0.8-2.5,0.7
		c-0.7,0-1.2-0.1-1.7-0.4s-0.8-0.6-1.1-1s-0.4-1-0.4-1.6l0.1-4.3L63.8,123.6z"/>
	<path class="st42" d="M73.2,123.3l5,4.3l-0.8-4.9l1.3-0.2l1.1,7.1l-1.2,0.2l-5-4.4l0.8,5l-1.3,0.2l-1.1-7.1L73.2,123.3z"/>
	<path class="st42" d="M86.2,120.3l0.3,1l-3.1,1l0.6,1.8l3-0.9l0.3,1l-3,0.9l0.6,1.9l3.2-1l0.3,1l-4.5,1.4l-2.2-6.8L86.2,120.3z"/>
	<path class="st42" d="M94.8,116.2c0.6-0.3,1.2-0.4,1.7-0.3c0.5,0.1,1,0.5,1.3,1.1c0.2,0.4,0.4,1,0.4,1.6c0,0.7-0.1,1.6-0.2,2.8
		l2.1-1.2l0.6,1.1l-4,2.3l-0.1-0.1c0.1-0.8,0.2-1.6,0.3-2.2s0.1-1.2,0.1-1.6c0-0.4,0-0.7-0.1-1c-0.1-0.3-0.1-0.5-0.3-0.7
		c-0.2-0.3-0.4-0.5-0.7-0.6c-0.3-0.1-0.6-0.1-0.8,0.1c-0.5,0.3-0.8,0.8-1,1.6l-0.7-1.2C93.8,117,94.2,116.5,94.8,116.2z"/>
	<path class="st42" d="M101.2,112c0.6-0.4,1.2-0.5,2-0.3c0.7,0.3,1.4,0.8,2.1,1.8c0.7,0.9,1.1,1.8,1.1,2.5c0.1,0.8-0.2,1.4-0.8,1.8
		c-0.6,0.4-1.2,0.5-2,0.3s-1.4-0.8-2.1-1.8c-0.7-0.9-1.1-1.8-1.1-2.5C100.3,113.1,100.6,112.5,101.2,112z M102.6,115.6
		c1,1.3,1.8,1.8,2.3,1.3c0.6-0.4,0.3-1.3-0.7-2.7c-1-1.3-1.7-1.7-2.3-1.3C101.3,113.4,101.5,114.3,102.6,115.6z"/>
	<path class="st42" d="M106.4,107.6c0.5-0.5,1-0.7,1.6-0.7s1.1,0.2,1.5,0.7c0.3,0.3,0.6,0.8,0.8,1.5c0.2,0.6,0.3,1.5,0.5,2.7
		l1.8-1.7l0.9,0.9l-3.3,3.2l-0.1-0.1c-0.1-0.9-0.2-1.6-0.2-2.3s-0.2-1.2-0.3-1.6s-0.2-0.7-0.3-1s-0.2-0.4-0.4-0.6
		c-0.2-0.2-0.5-0.4-0.8-0.4c-0.3,0-0.6,0.1-0.8,0.3c-0.4,0.4-0.6,1-0.6,1.8l-1-1C105.6,108.6,105.9,108,106.4,107.6z"/>
	<path class="st42" d="M111.3,102.2c0.4-0.5,0.9-0.8,1.5-0.9c0.6-0.1,1.1,0.1,1.6,0.5c0.4,0.3,0.7,0.8,1,1.3s0.5,1.5,0.8,2.7
		l1.5-1.9l1,0.8l-2.9,3.6l-0.1-0.1c-0.2-0.8-0.4-1.6-0.5-2.2c-0.2-0.6-0.3-1.2-0.5-1.5s-0.3-0.7-0.4-0.9s-0.3-0.4-0.5-0.6
		c-0.3-0.2-0.5-0.3-0.8-0.3c-0.3,0-0.6,0.2-0.7,0.4c-0.3,0.4-0.4,1.1-0.3,1.9l-1.1-0.9C110.7,103.4,110.9,102.7,111.3,102.2z"/>
	<path class="st42" d="M119.4,94c0.2-0.3,0.5-0.6,0.8-0.7c0.4-0.1,0.7-0.1,1.1,0.1c0.3,0.2,0.6,0.5,0.7,0.8c0.1,0.4,0.1,0.7-0.1,1.1
		c-0.2,0.3-0.5,0.6-0.8,0.7c-0.4,0.1-0.7,0.1-1.1-0.1s-0.6-0.5-0.7-0.8C119.2,94.7,119.2,94.4,119.4,94z"/>
</g>
</svg>
