<?xml version="1.0" encoding="utf-8"?>
<!-- Generator: Adobe Illustrator 26.2.1, SVG Export Plug-In . SVG Version: 6.00 Build 0)  -->
<svg version="1.1" id="Lager_1" xmlns="http://www.w3.org/2000/svg" xmlns:xlink="http://www.w3.org/1999/xlink" x="0px" y="0px"
	 viewBox="0 0 57.5 57.5" style="enable-background:new 0 0 57.5 57.5;" xml:space="preserve">
<path d="M28.7,57.4C13,57.4,0.1,44.5,0.1,28.7C0.1,13,13,0.1,28.7,0.1S57.4,13,57.4,28.7C57.4,44.5,44.5,57.4,28.7,57.4z M28.7,0.7
	C13.3,0.7,0.7,13.3,0.7,28.7s12.6,28.1,28.1,28.1c15.5,0,28.1-12.6,28.1-28.1S44.2,0.7,28.7,0.7z"/>
<path d="M29.6,22c-0.2,0.1-0.1,0.5,0,0.5c0.1-0.1-0.1,0.5,0,0.5s0.5,0.2,0.3,0.3c-0.6,0.4-0.2,0.6-0.1,0.5c0.1,0,0.2,0.4,0.1,0.5
	c-0.1,0.1,0.2,0.5,0.2,0.6c0.1,0.2,0.4,0.3,0.4,0.4c0,0.1-0.2,0-0.2,0.2c0.1,0.1,0.1,0.2,0.2,0.2c0.1,0,0.2,0,0.3,0
	c0.1,0,0.1,0.2-0.1,0.2c0.2,0.2,0.7,0.1,0.8,0.2c0.1,0.1-0.1,0.2-0.1,0.3c0,0.1,0.1,0.1,0.3,0.2c0.1,0,0.4,0,0.5,0.1
	c0.1,0.1,0,0.1-0.1,0.2c0.1,0.1,0.1,0,0.2,0c0.1,0,0.1,0.1,0.1,0.2c0,0.1,0.1,0.1,0.2,0.1c0.1,0,0.2,0.1,0.2,0.2c-0.1,0-0.1,0-0.2,0
	c0,0,0,0.1,0,0.1c0.1,0,0.5,0.1,0.4,0.2c0,0,0.4,0,0.4,0c0.3,0.1,0.1,0.3,0.2,0.4c0.2,0.1,0.2,0,0.4,0.2c0.2,0.1,0.2,0.3,0.3,0.4
	c0.3,0.1,0.3,0.2,0.6,0.4c0.2,0.1,0.1,0.1,0.1,0.3c0,0.2,0.4,0.1,0.5,0.2c0.2,0.1-0.1,0.2,0.1,0.3c0.1,0.1,0.1,0.2,0.3,0.3
	c0.2,0,0.3,0.1,0.4,0.2c0.1,0.1-0.1,0.3,0,0.4c0.1,0.1,0.4,0.1,0.5,0.2c0.2,0.2-0.1,0.4,0.1,0.6c0.2,0.1,0.2-0.1,0.3,0.2
	c0.1,0.1,0.4,0.4,0.1,0.4c-0.1,0.1-0.1,0.2,0,0.3c0.5,0.5,0.1,0.5,0.1,0.5c0,0.2,0.3,0.1,0.4,0.3c0,0.1-0.1,0.2-0.1,0.3
	c0,0.1,0.2,0.4,0.4,0.5c0.2,0.2-0.3,0.5-0.1,0.6c0.4,0.2-0.2,2.7-0.4,3.3c1-0.8,1.2-1.6,0.9-1.9c-0.1-0.1,0.9-1.1,0.4-1.5
	c-0.2-0.2,0.1-0.8,0.2-1c0.1-0.2-0.1-0.2-0.1-0.2c0.1-0.2,0.4-0.6,0.3-0.6c-0.2-0.1,0-0.2-0.1-0.4c0-0.2,0.3-0.5,0.3-0.5
	c0.1-0.1,0.1-0.7,0.5-0.8c0,0,0.1,0.1,0.1,0.1c0.2-0.1,0.3-0.3,0.5-0.4c0.2-0.2,0.5-0.5,0.6-0.4c0.1,0.2,0.3-0.3,0.4-0.2
	c0.2,0.2,0.4-0.1,0.5-0.1c0.2-0.1,0.6,0,0.8,0.2c0.1,0.1-0.3,0.2-0.3,0.4c-0.3,0.2-0.3,0.3-0.3,0.7c0.2-0.1,0.2,0.3,0.2,0.4
	c-0.2,0.1-0.3,0.6-0.3,0.7c0,0,0,0.4-0.1,0.6c0.1,0,0.1,0,0.2,0.1c0,0.3-0.2,0.2-0.2,0.4c0,0.1,0.1,0,0.3,0.1c0.3,0.1,0,0.8,0.1,0.9
	c0.2,0,0.2,0.7,0.2,0.7c0,0.1,0.2,0.2,0.2,0.4c0,0-0.3,0.3-0.3,0.4c-0.1,0.2-0.3,0-0.2,0.2c0.1,0.1,0,0.3,0.1,0.4
	c0.1,0.1,0.2,0.5-0.1,0.5s-0.1,0.1-0.4,0.2c0,0,0.2,0.3,0.2,0.3c0,0.2-0.2,0-0.4,0.2c0,0,0.4,0.3,0.1,0.4c-0.3,0-0.1,0.1-0.3,0.3
	c-0.1,0.1,0,0.6-0.2,0.5c-0.5-0.2-0.5,0.4-0.7,0.5c-0.6,0.1,0.1,0.5-0.4,0.6c-0.7,0.1-0.1,0.2-0.3,0.4c-0.1,0.2-0.4,0.3-0.3,0.4
	c0.1,0.2-0.1,0.6-0.4,0.5c-0.2-0.1-0.3,0.3-0.4,0.3c-0.2,0-0.3,0.4-0.5,0.1c-0.2-0.1-0.2,0.2-0.5-0.2c-0.1-0.1-0.3,0.3-0.5,0.1
	c-0.3-0.4-0.5-0.1-0.6,0.2c-0.4,0.6-0.5-0.2-1.5-0.2c-0.4,0-0.4,0.5-0.1,1c0.2,0.4,0,0.7-0.6,0.8c-1.5,0.4-2.5,0.3-2.6,0.3
	c-0.6,0-1.2,0-1.8,0c-0.1,0-0.3,0-0.4,0c-0.1,0-0.1,0-0.2,0c-0.4,0-0.2,0.2-0.5,0.2c-0.1,0-0.4,0-0.4,0.1c0,0-0.5,0.1-0.5,0.1
	c-0.3,0-0.6-0.1-0.9-0.1c-0.1,0-0.2-0.1-0.3-0.1c-0.1,0-0.1-0.1-0.2,0c-0.3,0-0.4-0.2-0.4-0.4c0-0.2,0-0.3,0.2-0.5
	c0.1-0.1,0.2-0.2,0.3-0.3c0,0,0.3-0.2,0.3-0.2c0.2,0,0.6-0.2,0.7-0.1c0.6,0.4,1.2-0.1,1.3-0.1c0,0,0-0.2,0-0.2
	c0.1-0.1,0-0.7,0.1-0.7c0.1-0.1,0.3-0.2,0.5-0.2c0.3,0,0.4-0.3,0.6-0.3c0.1,0,0.1,0,0.2,0c0.1,0,0.2,0,0.3,0c0.1,0,0.2,0.1,0.4,0.1
	c0.2,0,0.1,0,0.1-0.1c-0.1-0.2,0-0.1-0.2-0.3c-0.2-0.2-0.1-0.2-0.3-0.5c-0.1-0.1-0.1-0.2-0.2-0.3c-0.1-0.1-0.2-0.2-0.3,0
	c-0.1,0.1-0.1-0.5-0.4-0.2c-0.2,0.2,0.1-0.4-0.1-0.4c-0.1,0.2-0.3,0-0.3,0.2c-0.1,0-0.1-0.1-0.2-0.2c0,0,0-0.1-0.1-0.1
	c-0.1,0-0.2-0.1-0.2-0.2c-0.1-0.1-0.3-0.3-0.3-0.3c-0.2,0-0.2-0.1-0.3-0.3c-0.1-0.2,0.1-0.6,0-0.7c0,0,0-0.1,0-0.1
	c0-0.1,0-0.1-0.1-0.2c-0.1,0.1,0,0-0.2,0.2c0-0.1-0.2-0.2-0.2-0.3c0-0.2,0.3-0.4,0.1-0.5c-0.1-0.1,0-0.2,0-0.2
	c-0.1-0.2-0.3,0.2-0.2-0.3c0-0.2-0.5-0.4-0.5-0.3c0,0.1,0,0.1-0.1,0.2c-0.1,0-0.1,0-0.1-0.1c-0.1,0.2,0,0.4-0.1,0.7
	c-0.2,0-0.3-0.4-0.5-0.4c0,0.1,0,0.3,0,0.4c0.1,0.1,0,0.2,0,0.3c-0.1-0.1-0.2-0.1-0.2-0.2c-0.1,0.2,0,0.3-0.1,0.4
	c0,0.1,0.1,0.2,0,0.4c-0.2,0-0.3-0.2-0.4-0.2c0,0.1-0.1,0.3-0.1,0.2c-0.2-0.2-0.3,0.1-0.4,0.2c-0.1,0.7-0.3,1.3-0.6,3
	c0,0.1,0,0.3-0.1,0.4c-0.1,0.1-0.1,0.2-0.1,0.3c0,0.1,0,0.2,0,0.2c0,0.1,0,0.1,0,0.2c0,0.3,0.2,0.5,0.2,0.8c0,0.2,0,0.3-0.2,0.4
	c-0.1,0.1-0.2,0.2-0.2,0.3c0,0-0.1,0.1-0.1,0.1c-0.2,0.1-0.3,0.2-0.4,0.4c-0.1,0.1-0.2,0.2-0.3,0.3c-0.1,0.1-0.2,0.1-0.3,0.1
	c-0.3,0-0.5-0.1-0.8-0.1c-0.1,0-0.1,0-0.2,0.1c0,0-0.1,0-0.1,0c-0.3,0-0.5,0-0.8,0.1c0,0,0,0-0.1,0c-0.1-0.1-0.3-0.1-0.5,0
	c-0.1,0-0.3,0-0.4-0.1c0-0.1,0-0.2,0-0.3c0,0,0-0.7,0.2-0.9c0.2-0.2,0.8-0.4,0.8-0.4c0.2,0,1-0.2,1.1-0.3c0.1-0.1,0.3-0.4,0.5-0.9
	c0-0.1,0.6-1.8,0.7-2.2c0.1-0.5,0.2-1.7,0.2-1.9c0-0.3,0.3-0.8,0.1-0.9c-0.1-0.5-0.3-0.5-0.5-0.5c-0.1,0.1-0.3,0.8-0.4,0.9
	c-0.2,0.5-0.4,1.1-1,3.2c-0.1,0.2-0.1,0.3-0.1,0.5c0,0.1-0.1,0.1-0.1,0.2c0,0.2,0,0.4,0,0.5c0,0.1,0,0.2-0.1,0.3
	c0,0-0.1,0.3-0.5,0.6C21,41.6,19.9,42,19.9,42c0,0-0.1,0-0.1,0c-0.2,0.1-0.4,0.2-0.6,0.1c-0.1,0-0.2-0.1-0.3-0.1
	c-0.1-0.1-0.2-0.1-0.3-0.1c0,0-0.1,0-0.1,0c-0.2-0.1-0.1-0.1-0.3-0.2c-0.2,0-0.3,0-0.4-0.2c-0.1-0.2-0.1-0.5,0.1-0.7
	c0.1-0.2,0.3-0.4,0.5-0.4c0.2,0,0.6-0.2,0.8-0.2c0.2-0.1,0.5,0,0.8-0.1c0.2-0.1,0.5-0.7,0.5-0.8c0-0.1,0.9-2.7,0.9-2.8
	c0,0,0.1-0.4,0.1-0.6c0-0.4,0-0.7,0-1.1c0-0.1,0-0.2,0-0.3c0-0.1,0-0.2,0-0.4c0-0.2-0.1-0.1-0.2-0.2c-0.1-0.2,0-0.2,0-0.5
	c0-0.1,0-0.1,0.1-0.2c0,0,0,0,0,0c0-0.3,0.2-0.4,0.2-0.8c0-0.2-0.2,0-0.3,0c-0.1,0.1,0.1-0.4-0.1-0.5c0-0.2,0.7-0.6,0.1-0.5
	c-0.1-0.2,0.2-0.6-0.1-0.5c-0.2,0.1,0.1-0.4,0.1-0.6c0,0-0.3,0-0.3,0.1c-0.3-0.2,0.2-0.4,0.2-0.7c0-0.1,0.1-0.1,0.1-0.2
	c0,0-0.2-0.1-0.2,0c0,0.1-0.3,0.2-0.3,0.2c0-0.2,0.2-0.6,0.1-0.8c0,0-0.1,0-0.2,0c0-0.1,0.1-0.4,0.1-0.4c0-0.1-0.5,0-0.4-0.3
	c0.1-0.2,0.2-0.3,0.2-0.3c0-0.1,0.1-0.2,0-0.2c-0.1,0,0-0.2-0.1-0.2c-0.1,0-0.1-0.2-0.1-0.3c-0.1,0,0-0.1-0.1-0.1
	c0-0.1,0.1-0.1,0.1-0.2c0-0.2,0.2,0,0.3-0.1c0-0.1-0.3-0.2-0.3-0.4c0-0.1,0.2-0.2,0.2-0.2c0,0,0-0.1-0.2-0.1c-0.1,0,0-0.4,0.1-0.4
	c0.1-0.1,0.2-0.1,0.3-0.2c0,0,0.2-0.1,0.1-0.1c-0.1-0.2-0.1-0.1-0.2-0.1c-0.1-0.1,0-0.1,0-0.2c0-0.1,0.1-0.2,0.2-0.3
	c0.1-0.2,0.2,0,0.2-0.2c0,0,0-0.1,0-0.2c-0.1-0.1-0.2,0-0.3,0c-0.1-0.2,0.2-0.2,0.2-0.3c-0.1-0.2,0.1-0.2,0.3-0.3
	c-0.1,0-0.2-0.2-0.3-0.2c0,0,0.3-0.2,0.3-0.2c0.1-0.1,0-0.1,0.1-0.2c0,0,0,0,0,0c-0.1-0.1,0.2,0,0.2-0.1c0,0,0-0.1,0-0.1
	c-0.1-0.1,0-0.2,0.1-0.2c0.1,0-0.1-0.1-0.1-0.2c0,0,0.3,0,0.3,0c0,0,0,0,0-0.1c-0.1-0.1-0.3-0.1-0.2-0.2c0.1-0.1,0-0.2,0-0.3
	c0,0,0,0,0,0c0,0-0.1,0-0.1,0c0,0,0-0.1,0.1-0.1c0.1,0,0.1-0.1,0.2-0.1c0.1,0,0.1-0.1,0.1-0.2c-0.1,0-0.2,0-0.3,0
	c0-0.1,0-0.1,0.1-0.1c0.1,0,0.1,0,0.2-0.1c0.1-0.1,0.2-0.1,0.1-0.1c-0.1,0,0,0,0-0.1c0,0,0-0.2-0.1-0.1c0.1-0.2,0.2-0.2,0.4-0.2
	s-0.1-0.2-0.2-0.2c0.1-0.1,0.3-0.3,0.4-0.2c0.1,0.1,0.1-0.2,0-0.2s-0.3-0.1-0.1-0.2s-0.2-0.2,0-0.3s0-0.2,0.2-0.2
	c0.1,0-0.4-0.3-0.1-0.3s-0.1-0.5,0.1-0.5c0.2,0,0.1-0.1,0-0.1c0,0-0.2,0,0-0.1c0.2-0.1,0-0.3,0.1-0.4s0.1-0.2,0-0.3
	c0,0-0.1-0.1,0-0.1c0.1,0,0.1-0.3-0.1-0.5c0,0,0-0.1,0-0.1c0.1-0.3-0.1-0.5-0.2-0.7c-0.1-0.1-0.2-0.2-0.2-0.4
	c-0.1-0.2-0.2-0.4-0.3-0.7c0-0.1-0.1-0.2-0.1-0.2c0-0.2,0.1-0.4,0.2-0.6c0-0.1,0.1-0.2,0.2-0.3c0.1-0.1,0.2-0.1,0.3,0
	c0.1,0,0.3,0.2,0.3,0.2s0,0,0.1,0c0.1,0,0.2-0.1,0.3,0s-0.2,0.2-0.2,0.2s0.3,0.2,0.4,0.2c0.1,0,0.1,0,0.2,0.1c0,0,0.1,0.1,0.1,0.2
	c0-0.1,0-0.1,0-0.1c0-0.2,0-0.3,0-0.5c0-0.1,0-0.3,0-0.4c0,0,0-0.1,0-0.1c0,0,0.1-0.1,0.1-0.1c0-0.1,0.1-0.2,0.1-0.3
	c0.1-0.2,0.2-0.4,0.3-0.6c0,0,0.1-0.1,0.1-0.1c0.1-0.2,0.3-0.3,0.4-0.5c0.2-0.2,0.3-0.1,0.5,0c0.1,0.1,0.2,0.3,0.3,0.5
	c0.1,0.2,0.2,0.3,0.3,0.5c0.1,0.1,0.1,0.2,0.1,0.3c0.1,0.3,0.3,0.5,0.4,0.8c0.2,0.3,0.4,0.6,0.7,0.7c0.1,0,0.2,0.1,0.3,0.2
	c0,0.1,0.2,0.1,0.2,0.2c0.1,0.1,0.2,0.1,0.4,0.2c0,0,0,0,0,0c0.1,0.1,0.1,0.3,0.2,0.4c0,0.1,0.1,0.2,0.2,0.3c0.1,0.1,0.1,0.1,0,0.1
	c0,0.1,0,0.1,0,0.1c0,0.1,0,0.1,0.1,0.2c0,0.1,0.1,0.2,0.1,0.2c0,0.2,0.2,0.3,0.2,0.5c0,0,0,0,0,0c0,0.1,0.1,0.2,0.1,0.2
	c0.1,0.1,0,0.3,0.1,0.3c0,0,0,0,0,0c0,0.1,0,0.1,0,0.2c0,0.1,0.1,0.2,0.1,0.2c0.1,0.1,0.1,0.2,0.1,0.4c0,0,0,0,0,0c0,0,0,0,0,0.1
	c0.1,0.1,0.2,0.3,0.4,0.4c0.1,0,0.1,0.1,0.2,0.2c0.2,0.1,0.3,0.2,0.4,0.4c0.1,0.1,0.1,0.3,0,0.4c-0.1,0.1-0.3,0.3-0.5,0.4
	c-0.1,0-0.2,0-0.3,0.1c-0.1,0-0.2,0-0.2,0.1S29.8,22,29.6,22z"/>
<path d="M8,13.7l3.7,2.8l1.6-2.1l0.7,0.5l-2.2,2.9l-4.3-3.3L8,13.7z"/>
<path d="M11.4,9.8l2.2,0.6l-0.1-2.2l1-0.8l0.2,3.4l1.7,2.1l-0.8,0.7l-1.7-2.1l-3.3-0.8L11.4,9.8z"/>
<path d="M19,5c0.3-0.1,0.6-0.2,0.9-0.3c0.3-0.1,0.6-0.1,1-0.1l0.4,0.9c-0.4,0-0.7,0-1,0c-0.3,0-0.6,0.1-0.9,0.2
	c-0.4,0.2-0.6,0.4-0.9,0.6c-0.2,0.3-0.4,0.6-0.4,0.9c0,0.3,0,0.7,0.1,1c0.1,0.3,0.4,0.6,0.6,0.8s0.6,0.3,0.9,0.3
	c0.3,0,0.7,0,1.1-0.2c0.3-0.1,0.5-0.3,0.7-0.5c0.2-0.2,0.5-0.5,0.8-0.8l0.4,0.9c-0.2,0.3-0.5,0.6-0.7,0.7s-0.5,0.4-0.9,0.5
	c-0.5,0.2-1,0.3-1.5,0.3s-1-0.2-1.4-0.5c-0.4-0.3-0.7-0.7-0.9-1.1c-0.2-0.5-0.3-1-0.2-1.5c0.1-0.5,0.3-1,0.6-1.4
	C18,5.5,18.5,5.2,19,5z"/>
<path d="M25.2,3.4l0.2,2.5l0,0l1.7-2.7L28.3,3l-1.8,2.7l2.9,2.6l-1.3,0.1l-2.7-2.4l0.3,2.6l-1,0.1l-0.5-5.4L25.2,3.4z"/>
<path d="M33.1,3.4c0.5,0.1,1,0.3,1.4,0.6L34.4,5c-0.5-0.4-1-0.7-1.4-0.8c-0.3,0-0.5,0-0.6,0c-0.2,0.1-0.3,0.2-0.3,0.4
	c0,0.2,0.1,0.4,0.3,0.6c0.1,0.1,0.3,0.3,0.8,0.6c0.4,0.3,0.7,0.6,0.8,0.8c0.2,0.3,0.2,0.6,0.1,1c-0.1,0.5-0.3,0.8-0.7,1
	c-0.4,0.2-0.8,0.3-1.4,0.2c-0.3-0.1-0.6-0.1-0.9-0.3c-0.2-0.1-0.5-0.3-0.8-0.5l0.2-1c0.5,0.6,1,0.9,1.5,1c0.3,0,0.5,0,0.6-0.1
	s0.3-0.2,0.3-0.4c0-0.2-0.1-0.5-0.3-0.7c-0.2-0.2-0.5-0.4-0.8-0.6c-0.4-0.3-0.7-0.5-0.8-0.8c-0.2-0.3-0.2-0.6-0.2-0.9
	c0.1-0.4,0.3-0.8,0.7-1C32.1,3.4,32.6,3.3,33.1,3.4z"/>
<path d="M40.9,6.1l-0.3,0.7l-2.2-1l-0.6,1.3l2.1,1l-0.3,0.7l-2.1-1l-0.6,1.4l2.3,1l-0.3,0.7l-3.2-1.5l2.2-4.9L40.9,6.1z"/>
<path d="M44.4,8.4L41.5,12l2,1.6L43,14.3L40.2,12l3.4-4.2L44.4,8.4z"/>
<path d="M50.3,14.8l-0.7,0.5l-1.5-2l-1.1,0.9l1.4,1.9l-0.7,0.5l-1.4-1.9l-1.2,0.9l1.5,2L46,18.1l-2.1-2.8l4.3-3.2L50.3,14.8z"/>
<path d="M51.6,26c0.1,0,0.1,0,0.2,0c0.3-0.1,0.5-0.2,0.7-0.4c0.2-0.2,0.2-0.5,0.2-0.8c-0.1-0.3-0.2-0.5-0.4-0.7
	c-0.2-0.1-0.4-0.2-0.6-0.2c-0.1,0-0.1,0-0.2,0c-0.3,0-0.5,0.2-0.7,0.4c-0.2,0.2-0.2,0.5-0.2,0.8c0,0.3,0.2,0.5,0.4,0.7
	C51.2,25.9,51.4,26,51.6,26z"/>
<path d="M5.7,25.9c0.1,0,0.1,0,0.2,0c0.2,0,0.4-0.1,0.6-0.2C6.8,25.5,6.9,25.3,7,25c0.1-0.3,0-0.6-0.2-0.8c-0.2-0.2-0.4-0.4-0.7-0.4
	c-0.1,0-0.1,0-0.2,0c-0.2,0-0.4,0.1-0.6,0.2c-0.2,0.2-0.4,0.4-0.4,0.7c-0.1,0.3,0,0.6,0.2,0.8C5.2,25.7,5.4,25.8,5.7,25.9z"/>
<polygon points="8.9,34.2 5.2,33.4 8.3,31.2 8.1,30.1 3.2,33.6 3.3,34 9.1,35.2 "/>
<path d="M11.7,37.3c-0.1,0-0.1,0-0.2,0c-0.1,0-0.1,0-0.2,0c-0.1,0.1-0.2,0.2-0.3,0.3c0,0.1,0,0.3,0,0.4c0.1,0.1,0.2,0.2,0.3,0.3
	c0.1,0,0.1,0,0.2,0c0.1,0,0.1,0,0.2,0c0.1-0.1,0.2-0.2,0.3-0.3c0-0.1,0-0.3,0-0.4C11.9,37.5,11.8,37.4,11.7,37.3z"/>
<path d="M9.9,36.9l-5.8,0.3l0.5,1L6,38l1,2.2l-1,1.1l0.5,1l3.9-4.4L9.9,36.9z M7.5,39.6L6.8,38l2.3-0.2L7.5,39.6z"/>
<path d="M10.5,36.6c0.1,0,0.1,0,0.2,0c0.1,0,0.1,0,0.2,0c0.1-0.1,0.2-0.2,0.3-0.3c0-0.1,0-0.3,0-0.4c-0.1-0.1-0.2-0.2-0.3-0.3
	c-0.1,0-0.1,0-0.2,0c-0.1,0-0.1,0-0.2,0c-0.1,0.1-0.2,0.2-0.3,0.3c0,0.1,0,0.3,0,0.4C10.3,36.4,10.4,36.5,10.5,36.6z"/>
<path d="M13.5,43c-0.1-0.5-0.3-1-0.6-1.4c-0.3-0.4-0.7-0.7-1.2-0.8c-0.1,0-0.2,0-0.3,0c-0.3,0-0.6,0.1-0.9,0.3
	c-0.3,0.2-0.4,0.5-0.5,0.8c-0.1,0.3,0,0.7,0.1,1.2c0.1,0.4,0.2,0.7,0.2,1c0,0.3,0,0.5-0.2,0.7c-0.1,0.1-0.2,0.1-0.3,0.1
	c-0.1,0-0.1,0-0.2,0c-0.2-0.1-0.4-0.2-0.5-0.4c-0.3-0.4-0.5-1-0.5-1.7c-0.3,0.2-0.5,0.4-0.8,0.6C7.9,43.7,8,44,8,44.3
	c0.1,0.2,0.3,0.5,0.5,0.8c0.3,0.4,0.7,0.7,1.1,0.7c0.1,0,0.2,0,0.3,0c0.3,0,0.6-0.1,0.9-0.3c0.3-0.2,0.5-0.5,0.5-0.8
	c0.1-0.3,0.1-0.7-0.1-1.2c-0.1-0.6-0.2-0.9-0.2-1c0-0.3,0-0.5,0.2-0.7c0.1-0.1,0.2-0.1,0.3-0.1c0.1,0,0.1,0,0.2,0
	c0.2,0.1,0.3,0.2,0.5,0.4c0.3,0.3,0.5,0.8,0.5,1.5C13,43.4,13.3,43.2,13.5,43z"/>
<polygon points="18,46.3 14.1,43.3 13.6,44 15.1,45.1 12.3,48.7 13.1,49.4 16,45.8 17.5,47 "/>
<polygon points="21.4,48.8 21.7,48.1 18.6,46.6 16.3,51.5 19.5,53 19.9,52.3 17.6,51.2 18.2,49.8 20.4,50.8 20.7,50.1 18.6,49.1 
	19.2,47.8 "/>
<path d="M24.6,48.8c-0.6-0.1-1.3-0.3-1.9-0.4c-0.4,1.8-0.7,3.5-1.1,5.3c0.3,0.1,0.7,0.1,1,0.2c0.2-0.7,0.3-1.5,0.5-2.2
	c0.1,0,0.2,0.1,0.4,0.1c0.2,0,0.3,0.1,0.4,0.2c0.1,0.1,0.2,0.3,0.3,0.5c0.1,0.2,0.2,0.6,0.4,1.3c0.1,0.3,0.1,0.5,0.2,0.6
	c0.4,0.1,0.8,0.2,1.1,0.2c-0.1-0.3-0.3-0.8-0.4-1.5c-0.1-0.4-0.2-0.7-0.3-0.9c-0.1-0.2-0.2-0.3-0.4-0.5c0.3-0.1,0.6-0.2,0.8-0.4
	c0.2-0.2,0.3-0.4,0.4-0.7c0.1-0.4,0-0.8-0.2-1.2C25.5,49.1,25.1,48.9,24.6,48.8z M24.9,50.5c0,0.2-0.2,0.4-0.3,0.5
	c-0.1,0.1-0.3,0.1-0.4,0.1c-0.1,0-0.2,0-0.3,0c-0.2,0-0.4-0.1-0.7-0.1c0.1-0.5,0.2-1,0.3-1.5c0.2,0,0.4,0.1,0.6,0.1
	c0.3,0.1,0.5,0.2,0.6,0.3C24.9,50,25,50.2,24.9,50.5z"/>
<path d="M30.6,51.7C30.6,51.7,30.6,51.7,30.6,51.7c0.2-0.2,0.4-0.3,0.5-0.5c0.1-0.2,0.2-0.4,0.2-0.7c0-0.4-0.2-0.7-0.5-0.9
	c-0.3-0.2-0.7-0.3-1.1-0.3c0,0-0.1,0-0.1,0c-0.7,0-1.3,0-2,0.1c0.1,1.8,0.1,3.6,0.2,5.4c0.8,0,1.5-0.1,2.3-0.1c0.4,0,0.7-0.1,1-0.2
	c0.3-0.1,0.5-0.3,0.6-0.6c0.1-0.2,0.2-0.5,0.2-0.8c0-0.3-0.1-0.6-0.3-0.9C31.3,51.9,31,51.8,30.6,51.7z M28.7,50.1
	c0.3,0,0.5,0,0.8,0c0,0,0,0,0,0c0.2,0,0.4,0.1,0.5,0.2c0.2,0.1,0.2,0.3,0.2,0.5c0,0.2-0.1,0.4-0.2,0.6c-0.2,0.1-0.4,0.2-0.6,0.2
	c-0.2,0-0.4,0-0.7,0C28.7,51,28.7,50.5,28.7,50.1z M30.5,53.6c-0.2,0.1-0.4,0.2-0.8,0.2c-0.3,0-0.6,0-0.9,0c0-0.5,0-1-0.1-1.5
	c0.3,0,0.7,0,1,0c0,0,0,0,0.1,0c0.3,0,0.5,0.1,0.7,0.2c0.2,0.1,0.3,0.3,0.3,0.5C30.8,53.2,30.7,53.4,30.5,53.6z"/>
<path d="M38,48.6c-0.4-0.3-0.8-0.5-1.3-0.6c-0.2,0-0.3,0-0.5,0c-0.3,0-0.7,0.1-1.1,0.2c-0.6,0.2-1,0.5-1.4,0.8
	c-0.4,0.4-0.6,0.8-0.7,1.3c-0.1,0.5-0.1,1,0.1,1.4c0.2,0.5,0.4,0.9,0.8,1.2c0.4,0.3,0.8,0.5,1.3,0.6c0.2,0,0.3,0,0.5,0
	c0.3,0,0.7-0.1,1-0.2c0.5-0.2,1-0.4,1.3-0.8c0.4-0.4,0.6-0.8,0.7-1.3c0.1-0.5,0.1-1-0.1-1.5C38.6,49.4,38.3,49,38,48.6z M37.7,51.7
	c-0.2,0.4-0.6,0.7-1.1,0.9c-0.2,0.1-0.5,0.1-0.7,0.1c-0.1,0-0.2,0-0.3,0c-0.3-0.1-0.6-0.2-0.9-0.4c-0.2-0.2-0.4-0.5-0.5-0.8
	c-0.1-0.3-0.1-0.7-0.1-1c0.1-0.3,0.2-0.6,0.4-0.8c0.2-0.2,0.5-0.4,0.9-0.5c0.2-0.1,0.5-0.1,0.7-0.1c0.1,0,0.2,0,0.3,0
	c0.3,0.1,0.6,0.2,0.9,0.4c0.2,0.2,0.4,0.5,0.5,0.8C37.9,50.7,37.9,51.2,37.7,51.7z"/>
<polygon points="42.7,45.1 42.2,44.4 38.2,47.1 38.6,47.8 40.2,46.7 42.8,50.5 43.7,49.9 41.1,46.1 "/>
<polygon points="46.4,41 45.8,40.4 42.6,44.1 43.2,44.6 44.4,43.2 47.9,46.2 48.6,45.4 45.1,42.4 "/>
<polygon points="50.6,41.1 49.3,40.3 50.4,38.3 49.6,37.9 48.5,40 47.3,39.3 48.4,37.1 47.7,36.7 46.1,39.8 50.8,42.4 52.5,39.2 
	51.8,38.8 "/>
<polygon points="48.4,34.9 48.2,35.8 53.4,37 53.7,36 49.9,35.1 54.4,32.8 54.6,32 49.3,30.8 49.1,31.8 52.8,32.6 "/>
<path d="M28.7,47C38.8,47,47,38.8,47,28.7s-8.2-18.2-18.2-18.2c-10.1,0-18.2,8.2-18.2,18.2S18.7,47,28.7,47z M12.5,35.6
	c-0.5-1.1-0.8-2.2-1-3.3c-0.2-1.2-0.4-2.4-0.4-3.6c0-1.2,0.1-2.4,0.4-3.6c0.2-1.1,0.6-2.3,1-3.3c0.4-1.1,1-2.1,1.6-3
	c0.6-0.9,1.4-1.8,2.2-2.6c0.8-0.8,1.7-1.5,2.6-2.2c0.9-0.6,2-1.2,3-1.6c1.1-0.5,2.2-0.8,3.3-1c1.2-0.2,2.4-0.4,3.6-0.4
	s2.4,0.1,3.6,0.4c1.1,0.2,2.3,0.6,3.3,1c1.1,0.4,2.1,1,3,1.6c0.9,0.6,1.8,1.4,2.6,2.2c0.8,0.8,1.5,1.7,2.2,2.6c0.6,0.9,1.2,2,1.6,3
	c0.5,1.1,0.8,2.2,1,3.3c0.2,1.2,0.4,2.4,0.4,3.6c0,1.2-0.1,2.4-0.4,3.6c-0.2,1.1-0.6,2.3-1,3.3c-0.4,1.1-1,2.1-1.6,3
	c-0.6,0.9-1.4,1.8-2.2,2.6c-0.8,0.8-1.7,1.5-2.6,2.2c-0.9,0.6-2,1.2-3,1.6c-1.1,0.5-2.2,0.8-3.3,1c-1.2,0.2-2.4,0.4-3.6,0.4
	c-1.2,0-2.4-0.1-3.6-0.4c-1.1-0.2-2.3-0.6-3.3-1c-1.1-0.4-2.1-1-3-1.6c-0.9-0.6-1.8-1.4-2.6-2.2c-0.8-0.8-1.5-1.7-2.2-2.6
	C13.4,37.7,12.9,36.7,12.5,35.6z"/>
</svg>
