<?xml version="1.0" encoding="UTF-8"?><svg id="Lager_1" xmlns="http://www.w3.org/2000/svg" width="20.2847mm" height="20.2847mm" viewBox="0 0 57.5 57.5"><defs><style>.cls-1{fill:none;}.cls-2{fill:#231f20;}</style></defs><path class="cls-2" d="M28.7487,57.3784C12.9621,57.3784,.1188,44.5356,.1188,28.7495S12.9621,.1196,28.7487,.1196s28.6304,12.8428,28.6304,28.6299-12.8438,28.6289-28.6304,28.6289ZM28.7487,.686C13.2751,.686,.6862,13.2758,.6862,28.7495s12.5889,28.0625,28.0625,28.0625,28.063-12.5889,28.063-28.0625S44.2229,.686,28.7487,.686Z"/><path class="cls-2" d="M29.6435,22.0495c-.1859,.0778-.1221,.5451,0,.4761s-.1122,.5206-.0295,.4594,.4711,.169,.3419,.2633c-.5591,.4084-.2438,.5859-.1028,.537s.1676,.4111,.0693,.5024,.2072,.4845,.2456,.5573c.1225,.2322,.4083,.2819,.4404,.3782,.0239,.0716-.1963,.0144-.1902,.168,.0621,.1063,.0856,.1528,.1936,.1955,.11,.0434,.2115,.017,.2692,.0191s.0733,.1575-.0567,.1665c.1938,.2177,.6833,.0724,.7948,.1654s-.0767,.1694-.0675,.2613,.0626,.1285,.2733,.242c.0814,.0439,.4322,.0109,.4992,.0696,.0683,.0598-.019,.1024-.0903,.1906,.1119,.07,.1268-.0209,.2305,.0437,.0711,.0443,.1237,.0887,.1262,.1793,.0024,.0913,.0955,.1318,.1975,.1409,.1063,.0094,.1596,.0665,.2055,.1546l-.1725,.0334c-.0344,.0465-.0312,.0851,.0263,.1112,.1079,.049,.5051,.0635,.4235,.1873-.0126,.0191,.3596,.013,.3822,.0243,.2974,.1487,.1224,.2841,.2231,.3587,.1768,.131,.183,.0488,.3863,.1515,.1828,.0923,.1585,.2808,.3436,.3694,.2957,.1414,.2676,.2253,.5549,.3781,.1704,.0906,.0861,.1106,.1088,.3005,.0275,.2301,.4362,.0887,.516,.155,.1785,.1484-.0909,.1576,.0764,.3154,.0875,.0824,.1164,.2191,.3172,.2542,.1707,.0298,.3242,.0673,.4157,.1871,.065,.0851-.0612,.317,0,.3713,.0948,.0842,.4313,.0738,.508,.166,.1639,.1971-.1438,.4041,.0668,.5711,.1644,.1304,.1996-.0754,.2542,.1532,.069,.1434,.3824,.3977,.1224,.3747-.091,.1289-.0665,.207-.0061,.2751,.4883,.5498,.0772,.4662,.0956,.5417,.0475,.1949,.3316,.1139,.3558,.3186,.0137,.1157-.122,.2295-.085,.3452,.0435,.1359,.2486,.3726,.3583,.4586,.2321,.182-.3277,.4744-.0554,.6098,.4466,.222-.2107,2.7056-.4047,3.2876,1.0255-.7761,1.1735-1.6158,.8621-1.9295-.1292-.1302,.8646-1.1368,.367-1.5391-.2263-.1829,.1299-.7816,.1873-.997,.0626-.2348-.1386-.1985-.1247-.2494,.0626-.2296,.4445-.5973,.3007-.6473-.1759-.0612,.0306-.1836-.113-.3516-.0261-.1617,.263-.5311,.2733-.4854,.1118-.0695,.1074-.7003,.4611-.8239l.0904,.087c.1636-.1323,.3322-.2519,.4768-.39,.1726-.1649,.497-.5039,.5705-.384,.1351,.2202,.3258-.2526,.413-.1683,.2294,.2218,.426-.0581,.4971-.0841,.1631-.0597,.6271,.0153,.7571,.1836,.0994,.0918-.2753,.2218-.2753,.4283-.295,.1513-.2795,.3332-.2983,.673,.167-.0876,.2402,.334,.1912,.3747-.1587,.1319-.3454,.6028-.2823,.683,.032,.0406-.0333,.386-.0542,.5917,.0533-.0142,.1428,.0408,.2498,.0612-.0017,.2795-.1682,.1988-.2174,.4057-.0128,.0537,.0534,.0362,.2546,.0895,.3454,.0914-.0397,.8205,.1422,.9345,.2438,.0145,.2227,.7067,.2235,.7313,.0026,.084,.1717,.2249,.1524,.3758-.0042,.033-.3233,.3479-.3352,.3657-.114,.1697-.2919,.0315-.2087,.2146,.0618,.1361-.0185,.2822,.1136,.3652,.1386,.0871,.153,.4971-.0612,.4895s-.1229,.0608-.3583,.1902c-.0244,.0134,.1879,.2584,.1901,.284,.0209,.24-.2117,.0375-.3865,.1833-.0408,.0341,.3635,.3215,.1188,.352-.2901,.0363-.1085,.0868-.3365,.3059-.092,.0884-.0375,.5799-.1836,.5277-.5354-.1912-.4888,.4328-.6901,.4691-.6169,.1112,.1471,.5022-.35,.6016-.6736,.1347-.1123,.1792-.3059,.3977-.1344,.1516-.3717,.2574-.2842,.4033,.0914,.1524-.0829,.5935-.3583,.4558-.1625-.0812-.3151,.2535-.3934,.2721-.158,.0376-.2614,.3513-.5346,.1256-.1635-.1351-.2451,.1653-.4676-.1526-.0948-.1354-.335,.3205-.5146,.1083-.325-.3657-.5282-.0542-.6365,.1896-.4025,.5776-.474-.1896-1.489-.1877-.428,.0008-.4082,.4974-.1109,1.0249,.2426,.4304,.0336,.6849-.5635,.8374-1.4713,.3756-2.4556,.3107-2.551,.311-.6097,.0019-1.2194-.0024-1.8291,.0025-.1321,.0011-.2644,.0329-.3969,.048-.0635,.0073-.1279,.0116-.1918,.0121-.3659,.003-.1635,.1508-.5293,.1575-.0792,.0015-.3662,.0423-.4452,.0585-.0122,.0025-.455,.0791-.4669,.0797-.293,.016-.5548-.072-.8509-.1145-.1097-.0158-.2123-.0641-.3183-.0971-.0572-.0178-.1156-.0516-.1722-.0489-.2695,.0127-.4063-.184-.4413-.3691-.0319-.1688-.0129-.3298,.1735-.4558,.1293-.0874,.2282-.2084,.3408-.3144,.0172-.0162,.2628-.2236,.2806-.2241,.1794-.0054,.5641-.1823,.7276-.0831,.634,.3846,1.1839-.1279,1.3304-.1247,.0213,.0005-.0304-.179-.0104-.1975,.0558-.0516,.0203-.7014,.0813-.7478,.1347-.1024,.2871-.1791,.471-.1819,.2567-.0038,.3658-.2714,.6222-.2656,.0655,.0015,.1283,.0368,.1944,.0481,.1113,.019,.1602,.0409,.2733,.0455,.1211,.0049,.2394,.1018,.361,.1035,.1509,.0021,.1126-.0288,.073-.1045-.1332-.2454,.0149-.0615-.1515-.2916-.1756-.2427-.1487-.2368-.2865-.4932-.0513-.0954-.1179-.1856-.188-.2717-.0945-.1161-.1923-.1542-.3468,.032-.0972,.1171-.0979-.4921-.3655-.2397-.2077,.1958,.0612-.39-.1224-.4359-.0992,.1571-.2906-.0096-.2906,.153-.1177,.0407-.1462-.1481-.2221-.2247-.0227-.0229-.0418-.0639-.0674-.0665-.1446-.0149-.1682-.1121-.208-.2044-.06-.1391-.2839-.2765-.3384-.2873-.1842-.0362-.2442-.1377-.3069-.2853-.0679-.1601,.0834-.6013-.0357-.7467-.0257-.0314-.0236-.0851-.0207-.1281,.0076-.1094-.0179-.0973-.0781-.1983-.1403,.1003-.0419,.0478-.1759,.1683-.0426-.1443-.1658-.1721-.1745-.2964-.0133-.192,.2789-.3606,.1362-.4914-.0918-.0841-.0099-.1912-.0382-.2447-.1226-.2314-.28,.1608-.2402-.3411,.0135-.17-.4857-.3939-.4751-.3349,.0114,.0635,.0076,.1176-.0512,.1888l-.1453-.0525c-.0874,.157-.0394,.4361-.0707,.6509-.2005-.0221-.2775-.362-.4606-.3756-.0054,.1279-.0345,.2895,.0381,.4031,.0662,.1036,.0413,.2185-.0156,.3396-.0553-.0757-.1806-.0808-.2062-.2349-.0714,.1555-.0345,.2926-.0524,.4246-.0184,.1352,.1186,.1899,.0374,.4201-.1648-.0422-.2932-.1511-.3667-.2455-.0441,.0838-.0552,.3011-.1297,.2472-.2079-.1507-.3225,.0614-.3569,.2285-.1454,.7059-.335,1.2611-.5846,2.9873-.0214,.1483-.0487,.2692-.1324,.3877-.0651,.0921-.099,.185-.0931,.2942,.0043,.0803-.0246,.1623-.0342,.2438-.0071,.0602-.0135,.1215-.0088,.1814,.0215,.2751,.157,.5356,.1927,.8092,.0201,.154-.0439,.2622-.1637,.3716-.0981,.0895-.1644,.2044-.2484,.3059-.0362,.0437-.0727,.0974-.1243,.1198-.1828,.0795-.2711,.2361-.4075,.3525-.0969,.0828-.1587,.1992-.2633,.271-.0943,.0648-.2221,.1115-.3412,.1274-.324,.0432-.5193-.1355-.8454-.1057-.0768,.007-.149,.0112-.2119,.0645-.0324,.0275-.0921,.0392-.1407,.0433-.2748,.0229-.5499,.0415-.825,.061-.0188,.0013-.0434,.004-.056-.0043-.1428-.0932-.3055-.0602-.4615-.0413-.1487,.018-.277-.0011-.4165-.1149-.0066-.0797-.0112-.1783-.022-.2796-.0025-.0235-.0056-.6651,.1787-.9013s.8205-.4268,.8205-.4268c.1545-.0438,.9619-.2377,1.0506-.2864,.0962-.0528,.3491-.3764,.5282-.8921,.0402-.1157,.5659-1.8205,.6598-2.2275,.1247-.5405,.1502-1.7245,.1502-1.9437,0-.2504,.2547-.8296,.1022-.9406-.1247-.5405-.334-.5441-.4691-.4609-.067,.07-.3215,.7845-.3521,.8668-.1951,.525-.3521,1.0699-1.0157,3.1556-.0548,.1722-.0594,.3478-.1074,.4815-.0222,.0618-.0568,.1237-.0608,.1863-.0114,.1763-.0072,.3531-.0145,.5297-.004,.0978,.0014,.1965-.0769,.2852-.029,.0328-.0785,.2919-.5192,.5975s-1.4829,.6421-1.4829,.6421c-.0234,.0036-.0505,.0105-.0816,.0201-.2118,.0651-.3766,.1629-.6103,.1125-.1048-.0226-.2097-.0648-.2968-.1191-.1063-.0662-.2148-.1088-.3466-.1096-.0319-.0002-.0762,.0087-.0938-.0056-.1547-.1259-.0997-.1472-.279-.1542-.236-.0092-.2603-.0434-.3545-.2426-.1139-.2408-.061-.478,.05-.6869,.1004-.189,.2624-.3743,.5325-.4408,.1514-.0373,.6382-.1571,.7864-.2043,.1686-.0537,.5446-.0278,.7629-.0694,.2391-.1039,.476-.6744,.5122-.8095,.0375-.1405,.8982-2.721,.9173-2.7555,.0108-.0195,.1227-.3914,.137-.5865,.0263-.3584,.0306-.7179,.0339-1.0769,.0009-.1018-.044-.2028-.0483-.3051-.0052-.1198,.0428-.2424,.0196-.3608-.0446-.228-.1136-.0846-.172-.228-.0917-.2251-.0175-.2356,.0245-.4751,.0132-.0749,.0425-.148,.066-.2216,.005-.0157,.0236-.03,.0241-.045,.0096-.3129,.2294-.4445,.2139-.7661-.0117-.2426-.2462,.0073-.2591-.0232-.0739,.0716,.083-.4464-.0831-.4989-.0306-.169,.6576-.5876,.1333-.4898-.1307-.1768,.1996-.6104-.0626-.5009-.1759,.0735,.1352-.3993,.0509-.5674-.0264,.0486-.2663,.04-.2935,.09-.2518-.2473,.1514-.4487,.1661-.7428,.0039-.0771,.0827-.1285,.0835-.2056,0-.0082-.1811-.0807-.1853,.0119-.0045,.0994-.2551,.1842-.3066,.179-.04-.2281,.2365-.5518,.1188-.7753l-.1503,.0218c.0015-.0501,.1025-.3974,.11-.4402,.0236-.1356-.5195-.0251-.3914-.2539,.11-.1965,.1792-.3004,.1868-.3342,.0319-.1407,.1028-.1953,.0374-.1949-.1446,.0009-.0374-.1566-.0561-.2119-.0586-.0123-.0904-.2432-.147-.2641-.0751-.0276-.0493-.0931-.0534-.146-.0085-.1084,.0705-.0537,.0947-.1528,.0387-.1585,.2411,.0058,.3144-.1384,.0421-.0828-.2863-.17-.271-.4303,.005-.0838,.2027-.1608,.2381-.2348,.0094-.0198-.0412-.0525-.2459-.0713-.051-.0047,.0256-.3662,.0524-.3962,.0971-.1089,.1976-.1017,.332-.1931,.0247-.0168,.1628-.0619,.1369-.1449-.0512-.1558-.1278-.0913-.2422-.0536-.0747-.0594-.047-.1368-.0192-.1964,.0436-.0932,.1172-.1761,.1711-.2664,.098-.1645,.1574-.0012,.155-.1962-.0006-.0479,.0175-.0962,.0288-.1534-.1452-.0826-.1953-.0237-.3105-.0147-.0702-.1947,.1627-.2278,.2445-.3439-.0914-.2308,.1137-.1729,.2696-.3264-.0631-.0102-.2159-.158-.2713-.167,.0038-.0243,.2665-.1787,.2765-.1878,.0986-.0904-.0262-.0628,.0678-.1565,.0335-.0334-.0214,.0239-.0337-.0107-.0501-.1414,.1804-.0388,.1603-.0926-.0113-.0302-.0195-.0628-.0386-.0891-.0796-.1092-.0142-.1809,.1183-.1887,.0887-.0052-.1304-.0621-.1461-.167,.031-.0072,.282-.0397,.313-.047-.0024-.0109-.0052,0-.047-.073-.0678-.0991-.2775-.0503-.2297-.1565,.1381-.1168-.0005-.2212-.0036-.2623-.0108-.0088-.0182-.0184-.0287-.0229-.0412-.0177-.1161,.0407-.127-.0273-.0051-.0316,.0365-.079,.0714-.1045,.0579-.0425,.1229-.0852,.1932-.1057,.0931-.0272,.1133-.0789,.1161-.1545-.0804-.0026-.1744-.0027-.2881-.0335-.0473-.0592,.0341-.0723,.1252-.1148,.0827-.0386,.0814-.0433,.1576-.0906,.1252-.0777,.228-.1057,.0909-.1467-.0669-.02,.0106-.0374-.0427-.105-.0059-.0074-.0127-.1741-.0962-.1481,.1186-.1619,.2169-.2002,.4254-.2493s-.1404-.1687-.1906-.1942c.0672-.0909,.3247-.301,.3991-.1577s.1461-.1997,.02-.1848-.301-.1203-.1207-.1961-.1984-.1733-.0329-.252,.0161-.163,.1655-.1584-.3599-.2652-.1242-.276-.1149-.5071,.1108-.4847,.06-.1003-.0195-.1435c-.0203-.011-.247-.0212-.0248-.0949s-.0312-.3283,.0902-.355,.1101-.1962,.0031-.2868c-.0239-.0202-.1382-.0548-.0232-.1018s.0554-.3469-.0561-.5074c-.0138-.0199-.0007-.0626,.0071-.0929,.0681-.2622-.0565-.4874-.151-.7119-.0559-.1328-.1737-.2382-.2441-.3667-.1183-.2157-.2247-.4382-.3285-.6614-.0341-.0734-.0547-.1566-.0641-.2374-.0249-.2148,.1076-.3887,.1696-.5802,.0345-.1066,.1093-.2037,.1801-.294,.0854-.1089,.2118-.1163,.3268-.0348,.0623,.0441,.2598,.1524,.2598,.1524,0,0,.0353-.0115,.0816-.0239,.0633-.0169,.169-.0579,.2936-.0389s-.1505,.1882-.1505,.1882c0,0,.2583,.1633,.3744,.202,.0677,.0226,.1392,.0472,.1944,.0898,.0478,.0369,.0751,.1003,.1315,.1805,.0066-.0621,.01-.0845,.0112-.1071,.0083-.1542,.0188-.3084,.0232-.4627,.0037-.1291-.0024-.2585,.0018-.3875,.0009-.0264,.0266-.0532,.0441-.0776,.0202-.0282,.0533-.0504,.0644-.0812,.0408-.1136,.0781-.2288,.1108-.345,.0612-.217,.1639-.4116,.3066-.5851,.0275-.0335,.064-.0594,.0938-.0913,.1421-.1517,.2744-.3141,.4273-.4538,.1657-.1514,.3498-.1317,.4825,.05,.1093,.1496,.1919,.3185,.2896,.4769,.1091,.1769,.2275,.3484,.3305,.5287,.055,.0963,.0776,.2107,.1294,.3093,.1447,.2756,.3015,.5448,.4449,.8209,.1694,.326,.3673,.6095,.7423,.7381,.1131,.0388,.2428,.1018,.3193,.2348,.048,.0835,.1584,.1342,.2465,.1907,.1167,.0747,.2392,.1405,.3588,.2109,.0059,.0034,.0085,.0134,.0114,.0208,.0501,.1265,.0973,.2543,.1506,.3794,.043,.1009,.0545,.213,.176,.2779,.0968,.0518,.0851,.0837,.0212,.1409,.0083,.0537,.0106,.0966,.022,.1368,.0174,.0612,.0356,.1234,.0636,.1802,.04,.0812,.1261,.1575,.1269,.2365,.0017,.1818,.212,.285,.1607,.4779-.0025,.0095,.0298,.0249,.0393,.0414,.0472,.0822,.0957,.1639,.1369,.2491,.0525,.1086-.0206,.2722,.1458,.3321,.0083,.003,.0141,.0195,.0167,.0308,.0159,.0691,.0236,.1409,.0472,.2072,.0286,.0804,.0723,.1554,.1058,.2343,.0516,.1215,.1004,.2442,.1495,.3668,.0025,.0063-.0062,.0171-.0035,.0232,.0099,.023,.0181,.0487,.0345,.0666,.1269,.1386,.203,.3206,.3793,.419,.0756,.0422,.124,.1308,.1966,.1813,.1524,.1063,.2908,.2195,.3843,.3868,.0796,.1425,.0824,.2686-.0293,.3915-.1331,.1465-.2564,.3069-.4633,.3589-.0879,.0221-.1756,.0452-.2634,.0681-.0846,.022-.2488,.0071-.2488,.1345s.4408,.418,.2549,.4957Z"/><path d="M8.002,13.7271l3.6582,2.7676,1.582-2.0908,.6514,.4922-2.2129,2.9238-4.3086-3.2607,.6299-.832Z"/><path d="M11.4473,9.8198l2.1582,.5576-.1328-2.2344,.957-.791,.165,3.4023,1.7061,2.0615-.8037,.666-1.7119-2.0684-3.3154-.7852,.9775-.8086Z"/><path d="M19.0108,4.9634c.2812-.123,.5703-.2109,.8682-.2646,.2969-.0537,.6348-.0723,1.0137-.0547l.3936,.9004c-.3818-.042-.7188-.0449-1.0117-.0107-.292,.0352-.5791,.1143-.8604,.2363-.3525,.1543-.6387,.3652-.8584,.6348-.2207,.2686-.3516,.5703-.3936,.9033-.041,.333,.0088,.6611,.1494,.9854,.1445,.3311,.3516,.5938,.6221,.7881s.5791,.3008,.9248,.3203c.3457,.0186,.6963-.0488,1.0508-.2031,.2715-.1191,.5137-.2705,.7266-.457,.2129-.1855,.4639-.4619,.751-.8291l.3926,.9004c-.248,.3086-.4922,.5566-.7305,.7451s-.5371,.3604-.8965,.5176c-.5225,.2275-1.0342,.3271-1.5361,.2988s-.9561-.1875-1.3613-.4756c-.4062-.2891-.7109-.666-.9141-1.1318-.2168-.498-.291-.999-.2227-1.502,.0693-.502,.2695-.9541,.5996-1.3535,.3301-.4004,.7617-.7168,1.293-.9482Z"/><path d="M25.1602,3.3531l.2451,2.4824,.0234-.0029,1.7246-2.6768,1.1816-.1172-1.751,2.7305,2.875,2.5879-1.3311,.1318-2.6973-2.3994,.2607,2.6406-1.0391,.1025-.5322-5.377,1.04-.1025Z"/><path d="M33.1495,3.4312c.5186,.0889,.9951,.3047,1.4316,.6455l-.1572,.915c-.4941-.4268-.9551-.6777-1.3818-.751-.2598-.0439-.4707-.0283-.6338,.0469-.1641,.0752-.2598,.1963-.2881,.3643-.0342,.2012,.0693,.4102,.3125,.627,.0674,.0635,.3359,.2559,.8066,.5771,.4023,.2812,.6777,.5635,.8281,.8486,.1504,.2842,.1953,.6035,.1348,.957-.0791,.457-.3066,.7979-.6836,1.0225-.3779,.2246-.8281,.292-1.3516,.2021-.3408-.0586-.627-.1465-.8594-.2627-.2324-.1172-.4854-.2939-.7588-.5283l.1738-1.0146c.4883,.5703,.9834,.8984,1.4873,.9854,.251,.043,.4639,.0234,.6377-.0596s.2764-.2148,.3066-.3945c.043-.2471-.0576-.4707-.3008-.6719-.2021-.1602-.4658-.3555-.79-.5869-.3867-.2627-.6611-.5381-.8252-.8281-.1631-.2891-.2168-.6016-.1592-.9375,.0771-.4473,.3047-.7754,.6826-.9834,.3789-.209,.8408-.2666,1.3877-.1729Z"/><path d="M40.918,6.1275l-.335,.7432-2.2314-1.0068-.584,1.2939,2.1357,.9639-.335,.7441-2.1367-.9639-.6318,1.3994,2.2812,1.0293-.3359,.7432-3.2324-1.458,2.2227-4.9248,3.1826,1.4365Z"/><path d="M44.3633,8.4351l-2.8789,3.5703,2.041,1.6465-.5117,.6348-2.8545-2.3008,3.3906-4.2061,.8135,.6553Z"/><path d="M50.3311,14.8452l-.6533,.4893-1.4678-1.959-1.1357,.8516,1.4053,1.875-.6533,.4893-1.4053-1.875-1.2285,.9209,1.5,2.002-.6523,.4893-2.127-2.8379,4.3232-3.2402,2.0947,2.7949Z"/><path class="cls-1" d="M29.828,52.2782c-.0245,0-.0492,.0005-.0745,.0015-.3271,.0119-.6542,.0239-.9814,.0358,.0183,.5089,.0366,1.0178,.0551,1.5267l.9012-.0329c.353-.0135,.6168-.0889,.7928-.2282,.175-.1393,.2581-.3384,.2484-.5956-.0076-.2292-.1044-.407-.2881-.5337-.1683-.1151-.3862-.1735-.6536-.1735Z"/><path class="cls-1" d="M30.0456,51.2547c.1547-.1373,.2281-.3231,.2194-.5579-.0076-.2089-.0869-.3713-.2387-.4882-.1405-.1089-.3203-.1635-.537-.1635l-.049,.0009c-.2502,.0091-.5003,.0181-.7504,.0272,.0174,.4755,.0348,.9508,.0523,1.4263,.2188-.0077,.4376-.0156,.6565-.0233,.2765-.0107,.4911-.084,.6469-.2214Z"/><path class="cls-1" d="M37.2306,49.3653c-.2417-.2233-.5269-.3636-.8536-.4225-.1118-.0202-.2248-.0303-.3391-.0303-.2199,0-.4443,.0374-.6734,.1125-.3481,.1132-.6372,.2911-.8664,.5328-.2281,.2417-.3731,.5221-.4351,.8422-.0609,.3191-.0349,.6508,.0764,.994,.1112,.3403,.2891,.6218,.5318,.8431,.2437,.2224,.5269,.3625,.8517,.4216,.1121,.0207,.2257,.0309,.3406,.0309,.218,0,.4409-.0372,.6689-.1112,.527-.1722,.906-.4797,1.1371-.9215,.232-.4409,.262-.9233,.0919-1.4456-.1112-.3403-.2882-.6226-.5309-.8461Z"/><path class="cls-1" d="M24.2055,49.5559c-.2125-.0432-.4248-.0864-.6372-.1296-.1006,.4911-.2012,.9824-.3017,1.4735,.2172,.0445,.4345,.0889,.6517,.1334,.0933,.0192,.1814,.0288,.2641,.0288,.1547,0,.2908-.0336,.4079-.1003,.1808-.1025,.2939-.2698,.3424-.5027,.0492-.2428,.0106-.439-.1161-.5898-.1276-.1509-.3307-.2552-.611-.3132Z"/><polygon class="cls-1" points="7.5411 39.563 9.0928 37.8312 6.8033 37.9821 7.5411 39.563"/><path d="M51.61,26.0116c.0629,0,.1273-.0055,.1927-.0167,.2949-.0501,.5269-.1953,.6952-.436,.1683-.2399,.2272-.5057,.1779-.7949-.0502-.2979-.1953-.5309-.4341-.699-.1849-.1298-.3855-.1953-.6016-.1953-.064,0-.1293,.0057-.196,.0172-.295,.0494-.5271,.1943-.6971,.4323-.1701,.2378-.2301,.5057-.1788,.8035,.0492,.2919,.1953,.523,.437,.6922,.1872,.131,.3889,.1965,.605,.1965Z"/><path d="M5.7117,25.8751c.0692,.012,.1368,.018,.2029,.018,.2157,0,.4152-.064,.5987-.192,.2397-.1683,.3858-.4003,.4381-.6973,.0502-.2928-.0098-.5588-.1818-.7996-.1711-.2397-.4013-.3857-.6913-.436-.068-.0118-.1345-.0176-.1995-.0176-.217,0-.4174,.0656-.6011,.1966-.2388,.1702-.384,.4003-.4341,.6904-.0513,.2968,.0078,.5648,.1769,.8035,.1693,.2388,.3994,.3839,.6913,.4341Z"/><polygon points="8.9247 34.1726 5.2349 33.3749 8.3484 31.2113 8.1376 30.1294 3.2373 33.5943 3.3061 33.951 9.1345 35.2467 8.9247 34.1726"/><path d="M11.6553,37.3362c-.0617-.0225-.1223-.0338-.182-.0338-.0713,0-.1412,.0162-.2097,.0483-.1314,.061-.2194,.1595-.2659,.2948-.0464,.1354-.0406,.265,.0175,.3887,.059,.1267,.1556,.2137,.291,.2631,.0617,.0225,.1224,.0336,.1821,.0336,.0714,0,.1416-.016,.2106-.0482,.1238-.057,.2098-.1556,.259-.2938,.0494-.1384,.0456-.2679-.0106-.3897-.059-.1257-.1567-.2137-.292-.263Z"/><path d="M9.9128,36.8547l-5.8381,.2668,.4632,.9921,1.4127-.0832,1.0161,2.1766-.9542,1.0645,.466,.9979,3.8859-4.4478-.4515-.9669Zm-2.3718,2.7083l-.7377-1.5809,2.2895-.1509-1.5518,1.7318Z"/><path d="M10.5055,36.5696c.0626,.0209,.1233,.0314,.1819,.0314,.0709,0,.1388-.0153,.204-.0461,.1237-.0571,.2108-.1545,.261-.2919,.0492-.1373,.0454-.2688-.0135-.3946-.058-.1237-.1556-.2126-.293-.2649-.064-.025-.127-.0374-.1888-.0374-.0699,0-.1385,.0158-.2056,.047-.1287,.06-.2156,.1586-.2621,.2969-.0464,.1382-.0406,.2698,.0175,.3936,.0609,.1305,.1605,.2195,.2987,.266Z"/><path d="M13.5106,43.0186c-.1005-.5444-.3161-1.0219-.6458-1.4318-.348-.4313-.7329-.6943-1.1544-.7881-.105-.0236-.2078-.0353-.3087-.0353-.304,0-.5886,.1071-.8537,.3206-.265,.2137-.4321,.4835-.5009,.8083-.0696,.3258-.0454,.7146,.0706,1.1671,.09,.3877,.1586,.7088,.2041,.963,.0493,.3114-.0242,.5455-.2185,.703-.0981,.0783-.2059,.1176-.3235,.1176-.0538,0-.1097-.0082-.1677-.0247-.1856-.0533-.3578-.179-.5182-.3781-.3201-.3973-.4747-.9717-.4631-1.722-.2672,.2149-.5345,.4299-.8016,.6449,.0494,.3577,.1228,.6565,.2194,.8983,.0968,.2416,.2534,.4969,.471,.7657,.3327,.414,.7145,.6614,1.1458,.7426,.0945,.0178,.1874,.0266,.2785,.0266,.3255,0,.629-.1135,.9108-.3408,.2794-.2253,.4573-.4941,.5326-.8064,.0765-.3123,.0562-.7078-.0588-1.1835-.1401-.553-.2147-.8751-.2234-.9679-.0386-.3229,.0213-.5483,.1808-.6759,.0893-.0723,.1874-.1082,.2946-.1082,.0518,0,.1058,.0085,.1619,.0252,.1731,.0513,.3413,.1798,.5067,.3847,.2717,.3375,.4515,.8297,.5386,1.4775,.241-.1941,.4819-.388,.7231-.5822Z"/><polygon points="17.9623 46.3448 14.1334 43.3173 13.6277 43.9576 15.1322 45.1479 12.2876 48.7456 13.1066 49.3934 15.9512 45.7946 17.4557 46.9849 17.9623 46.3448"/><polygon points="21.3985 48.8374 21.7439 48.0978 18.5791 46.6203 16.2934 51.5166 19.5075 53.0163 19.8525 52.2777 17.5851 51.2189 18.235 49.8276 20.3582 50.8187 20.7034 50.079 18.5801 49.0879 19.1805 47.8019 21.3985 48.8374"/><path d="M24.6116,48.8219c-.6353-.1299-1.2705-.2598-1.9058-.3896-.361,1.7645-.722,3.5291-1.0829,5.2937,.3409,.0695,.6819,.1393,1.0229,.2089,.1525-.7452,.3049-1.4904,.4574-2.2354l.3712,.0763c.1645,.0329,.3008,.1044,.411,.2118,.1093,.1083,.2118,.2737,.3085,.4979,.0966,.2233,.233,.6469,.4108,1.2706,.0823,.2823,.1499,.4892,.2042,.6215,.3803,.0778,.7606,.1555,1.1409,.2332-.1073-.2748-.2562-.7649-.4486-1.4736-.118-.411-.2272-.7078-.3268-.8916-.0995-.1838-.2244-.3384-.3751-.4631,.3326-.0667,.5994-.1954,.8006-.3878,.201-.1915,.3315-.438,.3934-.7387,.0909-.4418,.0068-.8325-.2495-1.172-.2571-.3393-.6342-.5598-1.1321-.6622Zm.3211,1.637c-.0485,.233-.1616,.4002-.3424,.5027-.1171,.0667-.2532,.1003-.4079,.1003-.0827,0-.1708-.0096-.2641-.0288-.2172-.0445-.4344-.0889-.6517-.1334,.1005-.4911,.2011-.9824,.3017-1.4735,.2124,.0432,.4247,.0864,.6372,.1296,.2803,.058,.4834,.1624,.611,.3132,.1267,.1509,.1653,.347,.1161,.5898Z"/><path d="M30.6025,51.6908l-.001-.0464c.2428-.1199,.4265-.2755,.5491-.4689,.1238-.1924,.1808-.4128,.1721-.6603-.0144-.3859-.1816-.7029-.5037-.9486-.2987-.2296-.673-.3443-1.1219-.3443-.0333,0-.067,.0007-.1012,.002-.6599,.0239-1.3196,.0477-1.9794,.0715,.0658,1.8,.1315,3.6002,.1974,5.4001,.7535-.0277,1.507-.0554,2.2606-.0832,.3683-.0135,.6864-.0842,.9543-.2128,.2678-.1285,.4738-.3131,.6178-.5549,.145-.2407,.2117-.5116,.201-.8103-.0126-.3374-.1286-.6274-.347-.8712-.2196-.2437-.5183-.4012-.8983-.4728Zm-1.9125-1.6177c.2501-.009,.5002-.0181,.7504-.0272l.049-.0009c.2167,0,.3965,.0546,.537,.1635,.1518,.1169,.2311,.2794,.2387,.4882,.0087,.2348-.0646,.4206-.2194,.5579-.1557,.1374-.3704,.2108-.6469,.2214-.2189,.0077-.4377,.0156-.6565,.0233-.0175-.4755-.0349-.9508-.0523-1.4263Zm1.8314,3.5079c-.1761,.1393-.4399,.2147-.7928,.2282l-.9012,.0329c-.0184-.5089-.0367-1.0178-.0551-1.5267,.3271-.0118,.6543-.0239,.9814-.0358,.0253-.001,.05-.0015,.0745-.0015,.2673,0,.4853,.0584,.6536,.1735,.1838,.1267,.2805,.3044,.2881,.5337,.0097,.2573-.0734,.4564-.2484,.5956Z"/><path d="M37.9615,48.6431c-.3877-.3307-.8295-.5366-1.3267-.6169-.1571-.0253-.316-.038-.4767-.038-.3474,0-.7028,.0593-1.0663,.1783-.554,.1807-1.0065,.4554-1.3585,.8237-.3521,.3683-.5811,.7986-.6885,1.2927-.1074,.4932-.0842,.9747,.0687,1.4456,.1594,.4882,.4263,.8933,.8005,1.2183,.3742,.3239,.817,.5298,1.3266,.6179,.1726,.0301,.3464,.0452,.5213,.0452,.3428,0,.6902-.0576,1.0422-.1729,.5395-.1759,.9872-.4475,1.343-.8151,.3568-.3663,.5908-.7956,.703-1.2869,.1121-.4911,.0899-.9765-.0668-1.457-.1605-.4922-.435-.9041-.8219-1.2347Zm-.2919,3.0138c-.2311,.4418-.6101,.7493-1.1371,.9215-.228,.074-.451,.1112-.6689,.1112-.1149,0-.2285-.0103-.3406-.0309-.3249-.0591-.6081-.1992-.8517-.4216-.2427-.2213-.4206-.5028-.5318-.8431-.1113-.3432-.1373-.6749-.0764-.994,.062-.3201,.207-.6005,.4351-.8422,.2292-.2417,.5183-.4196,.8664-.5328,.2291-.0751,.4535-.1125,.6734-.1125,.1143,0,.2272,.0101,.3391,.0303,.3267,.0589,.6119,.1992,.8536,.4225,.2427,.2234,.4197,.5057,.5309,.8461,.1701,.5222,.1401,1.0046-.0919,1.4456Z"/><polygon points="42.6868 45.0502 42.2294 44.3743 38.1849 47.1058 38.6423 47.7826 40.2319 46.7084 42.799 50.5091 43.6644 49.9252 41.0973 46.1243 42.6868 45.0502"/><polygon points="46.3843 40.9543 45.7712 40.4167 42.5533 44.087 43.1674 44.6247 44.4321 43.1821 47.8809 46.2065 48.5694 45.4213 45.1205 42.397 46.3843 40.9543"/><polygon points="50.6125 41.0549 49.2568 40.3346 50.3572 38.2654 49.6369 37.8815 48.5365 39.9517 47.2834 39.2855 48.4321 37.1235 47.7118 36.7406 46.0729 39.8241 50.8436 42.3602 52.5076 39.2284 51.7872 38.8456 50.6125 41.0549"/><polygon points="48.3712 34.8968 48.1681 35.7911 53.4376 36.9852 53.6629 35.9894 49.926 35.1424 54.3775 32.8401 54.5758 31.9646 49.3072 30.7696 49.0809 31.7654 52.758 32.6003 48.3712 34.8968"/><path d="M28.7489,46.9916c10.0751,0,18.2434-8.1674,18.2434-18.2424S38.8241,10.5062,28.7489,10.5062,10.5065,18.6741,10.5065,28.7492s8.1674,18.2424,18.2424,18.2424Zm-16.2919-11.3591c-.452-1.0685-.7976-2.1821-1.0301-3.3187-.2398-1.1719-.3592-2.3684-.3592-3.5647s.1194-2.3928,.3592-3.5647c.2325-1.1367,.5781-2.2502,1.0301-3.3188,.4443-1.0505,.9915-2.0576,1.6301-3.0026,.6342-.9385,1.3586-1.8159,2.1594-2.6167,.8008-.8009,1.6782-1.5252,2.6165-2.1594,.9451-.6387,1.9521-1.1859,3.0026-1.6302,1.0685-.4521,2.1821-.7978,3.3188-1.0302,1.1719-.2397,2.3683-.3593,3.5646-.3593s2.3927,.1195,3.5647,.3593c1.1366,.2324,2.2503,.5782,3.3188,1.0302,1.0505,.4443,2.0576,.9915,3.0026,1.6302,.9384,.6342,1.8159,1.3585,2.6168,2.1594,.8009,.8009,1.5253,1.6782,2.1594,2.6167,.6387,.945,1.1859,1.9521,1.6303,3.0027,.4521,1.0685,.7977,2.182,1.0303,3.3187,.2396,1.1719,.359,2.3684,.359,3.5647s-.1194,2.3928-.359,3.5647c-.2326,1.1366-.5782,2.2502-1.0303,3.3187-.4445,1.0505-.9916,2.0574-1.6303,3.0025-.6342,.9385-1.3585,1.8158-2.1594,2.6166-.801,.8009-1.6783,1.5252-2.6167,2.1593-.9451,.6387-1.9522,1.1859-3.0027,1.6302-1.0685,.452-2.1823,.7976-3.3188,1.0301-1.172,.2398-2.3684,.3593-3.5648,.3593s-2.3928-.1194-3.5646-.3593c-1.1367-.2325-2.2502-.5781-3.3188-1.0301-1.0506-.4443-2.0575-.9915-3.0026-1.6302-.9383-.6341-1.8157-1.3584-2.6165-2.1592-.8008-.8009-1.5252-1.6782-2.1594-2.6166-.6385-.9452-1.1857-1.9521-1.6301-3.0026Z"/></svg>