<?xml version="1.0" encoding="UTF-8"?><svg id="a" xmlns="http://www.w3.org/2000/svg" width="20.2847mm" height="20.2847mm" viewBox="0 0 57.5 57.5"><defs><style>.cls-1{fill:#151514;}</style></defs><path class="cls-1" d="M17.1295,35.906c.1874,.5559,.3655,1.2743,.5786,1.3406,.0544-.0618,.1089-.1304,.1639-.1979-.1188-.3489-.2063-.9037-.3414-1.1519-.134,.0012-.2681,.0012-.4011,.0092Z"/><path class="cls-1" d="M18.3892,36.7159c.1251-.1716,.2508-.3604,.3759-.5353-.1351-.0938-.2702-.1841-.4031-.2425l-.022,.0011c-.0728,.0103-.1005,.4347-.1324,.8156,.0204-.008,.0414-.0229,.0623-.024,.0403-.0012,.0801-.0103,.1194-.0149Z"/><path class="cls-1" d="M17.1576,39.6724c.2861-.0244,.549-.4988,.8077-1.0308-.3085,.1197-.6159,.2416-.7488,.4124,.1228,.0377-.1776,.6296-.0588,.6185Z"/><path class="cls-1" d="M12.3185,34.4499l.0291,.0007c-.0172-.0289-.0291-.0389-.0291-.0007Z"/><path class="cls-1" d="M30.1547,24.0014c.077,.0025,.1325-.0758,.1824-.1755-.1002-.004-.2006-.0068-.3024-.0061,.0433,.0736,.12,.2802,.12,.1816Z"/><path class="cls-1" d="M15.7615,33.3661c.0969-.1018,.2604-.0101,.3903-.0181l.0016,.0043c.0198-.0455,.0406-.0917,.0609-.135-.1163-.0058-.2324-.0116-.3464-.026-.0932-.0123-.1917,.0599-.2915,.1465,.0743,.0571,.1339,.0831,.1851,.0282Z"/><path class="cls-1" d="M17.8354,38.1473c-.0613-.0137-.1712,.0057-.2974,.0355-.024,.0503-.0487,.0983-.0723,.1487,.1445-.056,.2901-.1121,.3697-.1841Z"/><path class="cls-1" d="M17.4127,37.4502c.0927-.0068,.1817-.0812,.2707-.1773-.1393,.0012-.267,.0023-.3785,.0034,.0377,.1064,.0733,.1762,.1078,.1739Z"/><path class="cls-1" d="M16.7546,37.4811c.0089,0,.0183-.032,.0267-.0755-.0188,.0217-.0377,.0435-.0565,.0709,.0099,.0012,.0199,.0046,.0298,.0046Z"/><path class="cls-1" d="M14.6257,33.8368l-.0129,.0007-.0135,.0123c.0007-.0015,.0106-.0065,.0265-.013Z"/><path class="cls-1" d="M33.1422,36.0636c.2254-.0029,.4538,.3917,.6795,.3925,.2842,.001,.5767-.7578,.8619-.8679-.0743-.1174-.1464-.2011-.2128-.1946-.2148,.0217-.4075,.1509-.6227,.1534-.0535,.0003-.1074,.009-.1613,.0209,.1365-.1611,.6947-.8507,.8325-.9868-.7267,.2422-1.8321,.5604-2.1601,.5248-.4017-.0435-.3759-.6447-.6863-.4239-.5287,.376-1.1724,.5292-1.6958,.5046,.1686,.039,.8069,.4227,.9772,.4321,.2284,.013,.4683,.2281,.6973,.2242,.3788-.0065,.7535-.3928,1.132-.4108,.1808-.0087,.3745,.204,.5592,.2711-.1464,.0794-.2928,.1797-.4389,.2819,.0777,.0448,.1563,.0795,.2383,.0784Z"/><polygon class="cls-1" points="20.5303 34.0072 20.5224 34.0072 20.5303 34.0101 20.5303 34.0072"/><path class="cls-1" d="M19.5216,36.2269c.0175,.0556,.0377,.2195,.0549,.2802,.0086,.0015,.0168,.0073,.0248,.0065l.0076-.0015c.0588-.0397,.1021-.1617,.1401-.3112-.0248-.0195-.0496-.0419-.074-.0636-.0324,.0448-.0727,.0809-.1362,.0903-.006,.0015-.0109-.0014-.0172-.0007Z"/><path class="cls-1" d="M20.7636,34.369l-.0109,.0209,.0086-.0015,.0023-.0195Z"/><path class="cls-1" d="M20.2877,33.4546c.0053,.078,.0139,.1733,.0234,.2715,.0387,.0101,.0826,.0152,.155-.0021,.0112-.0029,.081-.1379,.0866-.1863-.083-.0239-.2003-.0614-.2651-.0831Z"/><path class="cls-1" d="M24.5618,34.4458c.0066-.0571-.7738-.2739-.7665-.3374l-.0079-.013c-.0439,.1047-.0829,.2433-.1273,.3466,.0208-.0094,.0463-.0195,.079-.0303,.0112-.0383,.8112,.0739,.8228,.0341Z"/><path class="cls-1" d="M23.2913,35.4919c-.1936,.058-.3885,.1139-.5892,.1332-.8517,.0826-1.4296-.3149-2.5906,.1429,.2557,.35,.9412,.2751,1.1812,.5112,.2729,.2685-1.2704,.4417-1.0381,.4211,.1335-.0121,.6957,.2951,1.1639,.3048,.6757,.014,1.2755-.2842,1.1149-.4752-.4429-.5266,.1725-.6388,.6274-.8423-.0606,.0059-.1213,.0119-.1819,.0119l-.0004-.0491c.071,0,.1425-.0045,.2136-.0096,.0333-.0514,.0669-.0968,.0993-.1489Zm-2.0371,.329c.0079-.0045,.0153-.0134,.0237-.0156-.0017-.0216,.0058,.0015,.0112,.0134-.0116,.0015-.0233,.0015-.0349,.0023Z"/><path class="cls-1" d="M19.8496,33.9368c.0846-.0051,.1689-.0101,.2535-.0159-.0899-.1257-.1745-.2152-.2439-.2-.0179,.0043-.0179,.0903-.0096,.2159Z"/><path class="cls-1" d="M35.9611,36.3385c.0013,.012,.0797,.3051,.081,.317,.1963-.0239,.4191,.5141,.6157,.4917,.2257-.0256,.4673,.2318,.6931,.2104,.1953-.0184,.3444-.6433,.5377-.6744,.2991-.0487,.6078,.291,.9062,.3297,.0767,.0101,.315-.074,.4964-.117,.0526-.1105,.1051-.217,.1597-.296-.2383-.0148-.4772-.2217-.7152-.3574-.0175-.0025-.0341-.009-.0526-.0303-.0862-.0444-.1725-.0769-.2581-.0837-.2915-.0235-.6134,.4459-.9042,.4188-.1619-.0151-.3206-.2126-.4782-.4509,.2059,.0134,.4121,.0311,.617,.012,.0013,.0159-.1252-.6091-.1593-.7719,.0621-.0018,.1249-.0018,.1871-.0079,.1183-.0119,.4662-.4105,.5839-.5311-.0883-.0054-.3945,.304-.4857,.3098-.2991,.0195-.5916,.1513-.888,.2159,.1729,.0076,.3457,.0173,.5182,.017-.1411,.1166-.2651,.4257-.3893,.7318-.1811-.2762-.3612-.5975-.5453-.7535,.0049-.0003,.0099,.0004,.0145,0,.0331-.0014,.0668,.0004,.0995,0-.2095-.1447-.4352-.6704-.6385-.6603-.1349,.0068-.2535,.178-.389,.1729-.1418-.0051-.2135,.2592-.3063,.4445,.2677,.0104,.5317,.0314,.7982,.0415-.2998,.2704-.4393,1.0401-.8206,1.0347,0,.4033-.0165-.0462-.0165,.3571,.2069-.0087,.0605-.2592,.2661-.2841,.3239-.0394,.7552-.2971,1.08-.2487l.0034,.0065c.0029-.0502,.0046-.087,.0046-.0895,.1464-.0137,.2935-.0068,.4409,.0022-.1111,.274-.2228,.539-.347,.6534,.0056,.0274,.0112,.0484,.0156,.0509-.001,.0047-.0281-.0079-.0572-.0217-.0311,.0192-.0624,.0321-.0955,.0296-.0003-.0025,.001-.0289,.0033-.0639-.1729,.0018-.4048-.4278-.5751-.4047Z"/><path class="cls-1" d="M21.3043,22.8339c.0139-.0087,.0278-.017,.0417-.0292-.0301-.1404-.0734-.5354-.0992-.5661-.0089,.1469-.0274,.4347-.0347,.561,.004,0,.0086,.0029,.0126,.0021,.0016-.0057,.0426,.0145,.0796,.0322Z"/><path class="cls-1" d="M16.5771,33.3585c.0929,0,.1854-.0029,.2783-.0015-.0132-.1848-.0228-.387-.0558-.4354-.0764,.1704-.1527,.3394-.2225,.4368Z"/><path class="cls-1" d="M20.6263,34.5857c.0641,.0895,.347-.0419,.4273-.0649,0-.0137,.0067,.0014,.0067-.013-.0123-.2274-.0424-.4036-.432,.0607l-.002,.0173Z"/><path class="cls-1" d="M23.2166,32.9172c-.1102,.0421-.4266,.3037-.3919,.308,.0549,.0073,.3969,.0263,.4504,.0364-.0238-.1242,.9503-.4119-.0585-.3444Z"/><path class="cls-1" d="M18.2439,35.5514l-1.4592-.2078-.6529-.1251,.4231-.0957s-.001-.0946,.0132-.0961c.2459-.026,.7618-.0989,1.0074-.1271,.0367-.0043,.0664,.0332,.0938,.0837,.1187-.0007,.2373-.0014,.3547-.0115,.0555-.0043,.1127,.013,.1702,.0375,.0618-.0072,.124-.0087,.1864-.0057,.0048-.1044,.0107-.2344,.0154-.3389,.0558-.0428,.1113-.0787,.1652-.0763l.0066,.0024,.0092,.0034c.1318,.0197,.2621,.2069,.3924,.3791,.0444-.0101-.1059-.2505-.2451-.399,.0312-.0042,.0539-.0002,.0446,.038,.1017,.0101,.1794,.0621,.2479,.1285,.0776-.0137,.1556-.0267,.2333-.0405,.1696,.3474,.827,.4186,.9771,.5493,.1355-.1892-.4592-.7869-.1965-.8223,.1276,.1257,.8038,.6491,.8157,.6462,.0383-.0094,.0701-.0657,.0992-.135l-.0165,.0065-.0007,.0007c-.004-.0007-.0066-.0108-.0099-.0151-.0043-.0527,.0178-.0239,.0162,.0051,.041-.0867,.1219-.325,.0899-.317-.0231,.0051-.0628,.0289-.0605,.0289,.0278,.0007-.0862,.0592-.0638,.0433l-.2761,.0484c-.0016,0-.3109-.7004-.5009-.6708-.1788,.0281-.3665,.0057-.546,.0253-.2736,.0303-.5628-.1979-.8391-.2115-.0043-.091-.199,.0368-.2019,.0649-.0847-.0123-.1693-.0238-.2535-.0347l-.002-.0129c.0241-.0311,.0479-.0527,.0684-.0491,.007,.0015,.0251-.0123,.0469-.0311,.0201-.1401,1.7277-.1586,1.7449-.3204-.1477,.0722-1.0341-.5477-1.1815-.5477-.1087,0-.2906-.1874-.399-.1838-.2778,.1604-1.4796-.1191-1.471-.1017-.0078,.2661,1.1229,.1917,1.1932,.4656-.1408,.3013-.7881,.3531-.837,.356,.0859-.4695,.6385-.3206,.6414-.3365,.1995-.1682-.7016-.2297-.7472-.2347-.1448-.0167-.3477,.5914-.501,.6087-.0248,.0014-.8585-.0038-.8839-.0023,.007,.0094,.438,.1732,.4447,.1826-.002,.0166,.004,.2356,0,.2673,.0291,.0087,.33-.1536,.3456-.15,.0046,.0065,.1639,.0475,.1682,.0547-.0195,.0592-.1351,.0513-.1956,.2534-.0046,.0419-.0089,.078-.0122,.1097l-.0225,.0073c-.038,.1299-.0721,.2476-.0903,.3155,.002-.0577-.0036-.1523-.0132-.2642l.0082-.0137h-.0007l-.0082,.0051-.0016-.0195c-.0208-.0267-.0331-.109-.0416-.2166-.1097,.1076-.2089,.2643-.3361,.2766-.1438,.0145-.2839,.1119-.424,.2123-.0268-.1639-.0655-.4036-.0896-.5524,.1097-.0015,.2195,0,.3295-.0015-.0425-.0416-.084-.0953-.1251-.1531,.0134-.0135,.0267-.0275,.0407-.0469l-.0729,.0002c-.0308-.0448-.0616-.0903-.0925-.1346-.1038,.0917-.2065,.1711-.3034,.1625-.0056,.0094-.4078,.1697-.5152,.2188,.1348-.0238,.27-.0447,.4052-.0426,.0704,.0015,.1408-.0014,.2115-.0021-.0502,.1263-.0886,.3156-.1309,.483,.0899,.0693,.1791,.1199,.2684,.1213-.1348,.096-.27,.1819-.4085,.1906-.0073,.0043-.0132,.0151-.0204,.0173-.004,.0007-.0079-.0087-.0119-.0231-.1041-.0137-.2076-.1321-.3107-.2686-.1534,.0361-.4531,.2368-.4653,.2542-.5168-.0152-.4551,.0563-.6141,.0744-.1418,.1942,.7562,.3531,.926,.3386,.2928-.0238,.1914,.8781,.3748,.8694,.3021-.0137,.6808,.1705,.965,.0543,.0198-.0087,.0383-.0231,.0562-.0419,.1001-.0079,.5062-.4233,.5062-.4233l1.2413,.3243,.304-.4104Zm2.2554-.8091c-.0499-.013-.0972-.0375-.0959-.0888,0-.0043,.041,.0354,.0959,.0888Zm-1.6859-.8145c0,.0036,.0281,.0296,.0684,.0664-.0305-.0043-.0605-.0087-.0912-.0123,.0139-.0657,.0212-.1105,.0228-.0541Zm-.2714,.5921c-.0046,.0283,.0085,.0336,.0165,.0457l-.0477,.0084c-.0375,.0215-.0762,.0451-.114,.0689l.0071-.1613c.0466,0,.0925,.018,.1381,.0383Z"/><path class="cls-1" d="M18.2075,36.7547c-.1147,.04-.2256,.1579-.3356,.294,.0607,.1819,.1309,.3088,.222,.2939,.0582-.0103,.0869-.2859,.1136-.588Z"/><path class="cls-1" d="M14.2298,33.6513c.1199-.0686,.2277-.1206,.2571-.1213,.0532-.0007,.1071,.0202,.1613,.0484l.0251-.0029c.0698-.0621,.5648-.6108,.5771-.6094,.0905,.0123,.1729,.1112,.2545,.2274,.0439-.039,.0879-.0794,.1322-.1177-.1226-.0931-.2869-.2708-.5272-.3141-.0978-.0173-.2598,.1487-.3602,.1473-.1567-.0014-.3133-.0173-.4696-.0368l.0475,.0419c-.078-.0173-.1428-.0354-.1388-.0541-.0849-.0115-.1699-.0224-.2548-.0347-.0066,.0577-.0122,.1133-.0172,.1625-.0694-.0094-.1382-.0188-.2066-.0239-.0099-.0585-.0198-.1162-.0297-.1733l-.0122-.0015,.0099-.0115c-.0304-.1755-.0598-.3235-.0829-.3228-.0446,.0015-.0883,.0332-.1318,.0831,.0112,.0787,.0221,.1574,.0337,.2346-.0585-.0057-.1163-.0093-.1745-.0123-.0383,.0751-.0767,.1581-.1147,.2455-.271-.0758-.507-.517-.7737-.6426,.0945,.2361,.1864,.5054,.2941,.595,.0516,.0036,.1048,.0087,.1556,.0115,.0942,.0058,.1861,.0635,.2783,.1415l-.0033,.0065,.0181,.0079c.236,.2072,.4677,.5495,.7106,.5546,.114,.0014,.228-.0109,.3421-.0289Zm-.423-.2889c-.0073,.0015-.0159-.0144-.0248-.0419,.0245-.0202,.0493-.0447,.0744-.0707-.0212,.0571-.042,.1112-.0496,.1126Z"/><path class="cls-1" d="M16.9829,36.1473c.0052,.0675,.012,.1167,.0225,.1224-.0005,.0194-.0765,.1281-.077,.1475-.0487,.0161-.0984,.755-.1472,.9883,.0555-.064,.1121-.1132,.1702-.1178,.0686-.0046,.1943-.0092,.3535-.0115-.1052-.3054-.2178-.9323-.322-1.129Z"/><path class="cls-1" d="M21.3883,39.6606c.0385,.0178,.0766,.0396,.1151,.0593,.0502,.0051,.1049-.0066,.189-.0162,.4666-.0547-.0228-1.1076,.4429-1.1761,.0803-.0121,1.1282,.1735,1.2094,.174,.0274,0,.0552,.0279,.0831,.0751-.007-.0811-.0121-.1841-.0163-.2982-.0139-.001-.0278-.0005-.0413-.002,.0134-.002,.0273-.0076,.0413-.0112-.0074-.1927,.2131-.5792,.201-.715,.0687,.1166,.7098-.8145,.7758-.6476,.1207-.105,.4568-.1618,.8148-.2404-.0089,.1734,.9294-.246,1.0687-.5366-.2702-.0984-2.4216,.4747-2.7001,.4336-.0441-.0066-.0864-.0305-.1277-.0614-.7238-.0477-1.0014,.8769-1.715,.8799-.4294,.0015-2.0703-.2678-3.0402-.4064,.0037,0,.9762,.6187,1.0115,.4711,.1481,.0076,.3207-.1687,.3323-.1672,.0854,.0076,.175,.1821,.2656,.3971-.0172,0-.0349,.001-.0525,0-.1819-.0086-.728,1.3312-.9085,1.2978,.0446-.0568,.3969-.0431,.441-.0406,.4164,.0223,.8459-.252,1.2702-.4103,.0975-.0056,.1945-.0081,.292-.0178-.0037,.3809-.0079,.8089-.0594,.8165,.0417,.0654,.0766,.1111,.1072,.1425Zm1.7266-1.9769c.0506,.0046,.1003,.0386,.1486,.0872-.1184-.0198-.2382-.0334-.3607-.04,.0715-.0325,.1434-.0527,.2122-.0472Z"/><path class="cls-1" d="M43.6155,32.6498c.1616-.009,.317-.2256,.4776-.2726,.1054-.3007,.3275-.6549,.3275-.908-.2181-.0073-.6362,.4917-.8544,.4852-.0734-.0021-.1652,.2961-.2458,.4098,.04,.0711,.0793,.1401,.0952,.1401-.003,.0332-.0717,.0242-.0753,.0621,.1061-.0101,.1755,.0888,.2753,.0834Z"/><path class="cls-1" d="M32.3735,33.8426c-.0347-.0159-.069-.0317-.1034-.0462,.034,.1177,.0681,.2007,.1028,.2007,.0043,0,.0033-.0686,.0006-.1545Z"/><path class="cls-1" d="M36.3439,33.4487c.1061,.1177,.139,1.0216,.2352,.9935,.006-.0015,.9227-.5026,.9286-.5047-.0876-.33-1.0178-1.0144-1.0988-1.0007-.0548,.0094-.1001,.083-.1434,.1697,.037,.0845,.2156,.521,.2126,.508-.0274,.0144-.1442-.2286-.1343-.1658Z"/><path class="cls-1" d="M30.2065,25.298c-.1167-.1765-.2657-.5982-.3569-.5845,.001,.0115,.075,.487,.076,.4985,.0919-.0083,.1861,.0329,.2809,.0859Z"/><path class="cls-1" d="M43.2541,27.3919c-.0472,.0119-.0939,.0292-.1401,.0505,.0198,.1083,.0393,.2133,.0595,.3018,.0271-.1185,.0535-.2422,.0806-.3524Z"/><path class="cls-1" d="M25.83,41.2571c.5313,.0057,.4576,.2292,.5873,.0898,.0308-.0334,3.085,.8287,3.1086,.7846-.0367-.0249,1.1609-.2992,1.1229-.3063-.2601-.0483-.4868-.3632-.7109-.6922,.2372-.0284,.646-.0142,.7358-.1152,.0694-.0767-.8036-1.1796-.8351-1.348,.2535-.1038,.6795,.3989,.9415,.3548,.0845-.015-.0917-.1158-.04-.3383,.9802,.2198-.2429,.63-.2134,.6257,.3793-.0547,1.2003-.0356,1.5907,.024-.0072,.0164-.6658,.8568-.673,.876,.1245-.0071,1.5417-.0104,1.6649-.0225,.114,.0114,2.2922,.2994,2.3911,.2695,0-.027-2.0869-1.3969-2.1131-1.4431,.1061-.0135,.2145,.0925,.32,.0761,.1226,.1784,.4715,.2458,.4734,.2537,.053-.0114-.0466-.1851-.0172-.4012,.036-.0071,.0721-.0121,.1081-.0192-.0131,.1635-.0223,.2743-.0223,.2807,.674,.8811,2.0686,.937,1.6583,.1074,.5536-.1116,2.239-.6422,2.7984-.7637-.0092-.2153-1.549,.0873-1.7003,.1797-.0557,.0341-1.285-.3705-1.3445-.3542-.0623,.0178-.1009,.0782-.1645,.071-.0878-.0099-.1841-.0369-.2706-.0284-.2195,.022-.4396,.0647-.6597,.0995-.0118,.0021-.0229,.0064-.0341,.0085,.0236-.0724,.0472-.1414,.0714-.2139,.0779,.022,.1553,.037,.2313,.0327,.3348-.0213,.665-.2032,.9945-.4058-.2083-.1713-.4114-.2964-.6001-.2673-.1179,.0185-.2535,.0021-.3892-.0142,.0269-.0569,.0498-.0953,.0662-.0953,.3394-.0049,.6807,.1464,1.0214,.3156,.198-.3574-1.0251-1.5061,1.197-.538,.0633,.0276,.5935-.2791,.6603-.4297-.7102-.0597-.9956-.5887-1.7003-.6738-1.1158-.1348-2.6,.8055-2.8162,.8311,0,.0107,1.1386,.2227,1.1072,.5972-.0557,.0284-.2491,.1101-.3329,.0632-.0425,.071-.4572-.4873-.5601-.5243,.0374,.1158-.8549,.3101-1.229,.0063-.4318-.3506,.7131-1.9615,.2887-1.9394-.2522,.0132-2.0906,1.2198-2.3523,1.1894-.3148-.0366-1.5424-.6411-1.8453-.6054-.2097,.0242,1.2901,1.1471,1.0981,1.46s-.9417-.502-1.1512-.4941c-.2427,.0085,.7438,1.2578-1.7167,.9774-.5706-.065-1.1313,.0677-1.3562,.0609-.5424,.9025,.2922-.174,.3453,.9382-.0623,.005,.5594,.1957,.4959,.2021-.4514,.0469-.8575-.1653-1.3076-.0936-.1179,.0185-.2202,.1613-.3243,.2942-.3505-.2146-.7155-.4235-.9827-.5415-.059,.0142-.1133,.0192-.1703,.0291,.2208,.2914,.4435,.5792,.6978,.7242-.0164,.0128-.0321,.0256-.0459,.0355,.0269-.0049,.0583-.0085,.093-.0106,.0812,.0398,.1651,.0689,.2556,.0739,0,.0568,.0347,.1208,.0832,.1869,.0046,.0391,.0098,.0753,.0151,.1116-.382-.0476-.9018-.5322-1.059-.4952,.0033,.0277-1.756,.3309-1.7534,.3594,.1579,.0135,2.3519,.4485,2.6833,.6334-.0335,.1524-.0857,.3715-.1744,.5384-.0549,.1033,.7094-.2295,1.423,.1534,.3708,.204,1.5287,.5878,1.7003,.5615,0-.0988-1.238-1.1805-1.3638-1.3027Zm7.6841-1.3846c.0085-.0014,.4858,.1015,.4937,.1,.0013,.0249,.0562,.2156,.0464,.2213,.0007,.0021-.5283-.288-.5401-.3214Zm.3214-.3228l.0393-.0383c.0249,.071,.0472,.1343,.0675,.1961-.0164,.005-.0314,.0114-.0472,.0157-.019-.0555-.038-.1102-.0596-.1735Zm.4639,.0363c-.0321,.0107-.0642,.022-.097,.0334,.0151-.1521,.1075-.155,.097-.0334Zm-.1318-.6943c-.0072,.0817-.7146,.7491-.7186,.8123-.0374-.1713-.7106-.5477-.7283-.584,.0111,.0184,1.3873-.3157,1.4469-.2283Zm-2.1691-.184c-.017-.0391,.5698,.0735,.5797,.3933,.1703,.0782,.8663,1.3397,1.036,1.4142-.2889,.0405-1.6707-.7408-1.9589-.6819,.0367-.157,.0209-.067,.0551-.2382,.0157,.0064,.1968-.052,.2125-.0449-.0098-.0341-.1365-.2698-.147-.306,.0583-.28,.1232-.5153,.2227-.5366Zm-.2705-.3928c.0734,.0661-.91,.8561-.9113,.8477-.2084,.0362-.2005-.0483-.399-.022-.0164-.0427-.6058-1.1227-.6203-1.1625,.1035,.0199,1.8218,.334,1.9306,.3369Zm-1.4878,2.3135c-.1284,.0142-1.4034-.0537-1.5574,.1644-.0236-.1371-.0471-.2722-.0662-.3987,.1592-.0277,.3197-.0604,.4796-.0952,.0073,.0121,1.1361,.3181,1.144,.3295Zm-1.2822-.5299c-.057,.0057-.1147,.0107-.1717,.0164-.0092-.0753-.0275-.1762-.0511-.2906,.0635,.0597,.1395,.1564,.2228,.2743Zm-.3544-.3283c.0524,.1393,.0995,.2629,.133,.3497-.0524,.0043-.1042,.0099-.1566,.0149-.0209-.1933-.0197-.3304,.0236-.3646Zm-1.0732,.9031c.019-.0011,1.5588,.7464,1.7003,1.0107-.0203,.0057-.9324-.5245-.952-.5295-1.282-.0413-2.0137-.4073-.7483-.4813Zm-2.7122,.4585c-.0616-.0497-.1218-.0995-.1795-.1478,.0826-.0284,.1644-.0682,.247-.1172,.245,.0249,.4619,.037,.5811,.0093-.0498-.0356-.1526-.1059-.2856-.1933,.1743-.1095,.3485-.204,.5228-.2033,.2234,.0007,.4475,.0889,.6716,.118-.2726,.1343-.9473,.3483-1.5573,.5344Z"/><path class="cls-1" d="M40.3767,23.4623c-.0951-.0096-.1938,.3187-.2946,.7419,.1165-.0303,.2343-.0494,.3557-.0414-.0021,.0367-.0582-.7379-.061-.7004Z"/><path class="cls-1" d="M35.0219,33.7957c.0383-.0007,.1378-.4831,.1953-.6289-.0417,.0635-.1174,.1733-.1167,.1797-.0519,.013-.0707,.2556-.0972,.447l.0186,.0022Z"/><path class="cls-1" d="M33.7308,33.8804c-.0168,.0108-.0334,.0209-.0502,.031-.6747,.6519,.4385,.4622,.6335,.4362,.0338-.0051,.5123-.5087,.5289-.6322-.2171-.0036-.894,.2748-1.1122,.165Z"/><path class="cls-1" d="M41.4579,32.4418c-.0139,.0202-.0284,.0397-.0423,.0614,.0334-.0087,.0572-.0152,.0671-.0173l-.001-.0231-.0238-.0209Z"/><path class="cls-1" d="M43.5915,33.8432c-.3067,.0105-.3882-.2411-.6926-.1415-.0106-.074-.0181-.1274-.0185-.1231-.0334,.0134-.0588,.0762-.0816,.1512-.0195,.0047-.039,.009-.0582,.0127-.0046-.0297-.0096-.0646-.0149-.1008-.0185,.0217-.0377,.0375-.0579,.0502l-.0416-.0768-.0043,.014,.001-.0195c-.0582-.1065-.1229-.2235-.1659-.2993,.0714-.2686,.1407-.5603,.2472-.5975-.0007-.0181-.0016-.0314-.0053-.0339-.1276-.0964-.6266,.0783-.7502,.1133-.0754,.0213-.1517,.0231-.2281,.0245-.1424,.2235-.2852,.4293-.4349,.4354-.1237,.0051-.2496-.0707-.3768-.178-.0255,.0087-.0493,.0242-.0751,.0303-.0776,.0184-.1276,.2386-.1821,.4253,.0509,.0491,.1021,.1256,.1537,.2007,.0192-.0249,.0383-.0466,.0575-.0711,.0139,.0036,.0301,.0162,.0426,.0141-.0029,.0787-.0106,.139-.0294,.1531,.0598,.0787,.1193,.1397,.1758,.1252,.1104-.0278,.2258,.0112,.3421,.0654-.1025,.1271-.205,.2437-.3057,.2354-.0496-.0043-.0939-.0014-.1371,.0054-.0413-.0364-.084-.061-.1273-.0643-.004-.0004-.0185,.0437-.038,.1072-.0631,.0202-.1276,.0415-.2036,.0556l-.0073,.0018c.0073,.1805,.0198,.3754,.0204,.5238,.039-.0372,.0784-.066,.1177-.0819,.0522-.0033,.1088-.0062,.1279-.0062,.0069,0,.0135,.0032,.0208,.0032,.384,.1091,.7994,1.0116,1.1785,.9871,.549-.0358,.8636-.8221,.9307-.9156,.0129,.0007,.0255,.0033,.0383,.004,.0886,.0026,.1788-.0458,.2671-.0585,.037-.0054,.0776-.0217,.114-.0383l-.0129-.0649c-.1014,0-.2039,.0129-.306,.0242,.1008-.1267,.2023-.2245,.3051-.2502-.0109-.0224-.0222-.0582-.0327-.0997,.2241-.069,.9736-1.1422,1.1895-1.2421-.0565-.3126-.8787,.6977-.9421,.6998Zm-2.6851-.1888l-.0185-.0253c.007-.0079,.0139-.0191,.0208-.026,.0004,.0209-.0016,.0329-.0023,.0513Zm.78,1.5622c-.0746-.0058-.1467-.0697-.2168-.1628,.0787,.0527,.158,.1058,.2366,.1588-.0066,.0007-.0132,.0047-.0198,.004Zm-.1656-1.3521c-.0813-.0953-.1533-.1762-.1956-.2101,.11,.0213,.4346,.0538,.4125,.0552-.0711,.0043-.1434,.0712-.2169,.1549Zm.4174,.4747c-.0139,0-.072-.0643-.1477-.1534,.046,.0101,.0919,.0152,.1365,.0083,.0135-.0021,.0271-.0101,.0406-.0217-.0003,.0968-.0069,.1661-.0294,.1668Z"/><path class="cls-1" d="M43.8162,28.5067c.0519,.0032,.1061-.2007,.1609-.4394-.2066,.0188-.4141,.0859-.6207,.0968-.0139,.0007-.0278,.005-.0413,.0087,.0082,.0173,.0168,.0278,.0248,.0281,.1659,.0051,.3107,.295,.4763,.3058Z"/><path class="cls-1" d="M24.1076,38.6222l1.7318-.1408c.0241-.0812,.3676-.3462,.3934-.3462,.0003-.0058,.0125,.0776,.0251,.1625,1.94,.7372,.8491-1.3551,1.7098-2.3201-.1249-.0076-2.0051,1.6345-2.5821,1.6953-.004,.0004,.2126-.5283,.2086-.5269,.0037,.1368-1.4501,.2399-1.4866,1.4762Z"/><path class="cls-1" d="M31.1818,42.2239c.0261,.0996,.0526,.1964,.078,.2809,.1074,.0303,.2155,.0613,.3216,.0693,.0681-.1292,1.5489-.3898,1.6213-.5594-.0328,.0094-1.4732,.1039-1.504,.1031-.2102-.0079-.3179,.0469-.5169,.1061Z"/><path class="cls-1" d="M32.1972,34.7013c.2316-.1711,.4559-.3722,.7512-.5454-.0996-.0031-.1974,.0073-.2961,.0052-.1212,.0763-.2432,.1484-.3716,.1835,.0117,.0042,.0126-.0711,.0081-.1773-.0502,.0042-.1032-.0062-.1534,.0021-.0413,.0072,.0107,.2784,.0619,.532Z"/><path class="cls-1" d="M30.0094,34.5461c.0189,.0156-.012-.1194-.043-.2638-.1577,.1113-.321,.2-.5571,.2162,0,.3988-1.178,.0019-1.178,.4013,.0396-.0068,.806,.4376,.8455,.4326,.2797-.0388,.6638-.9963,.9326-.7863Z"/><path class="cls-1" d="M28.5774,36.7949c.0439-.0036,.0886-.0036,.1335-.0021,.1732-.1047,.3278-.3033,.4792-.5206-.23-.1891-.4604-.396-.6798-.3762-.0242,.0022,.0585,.6924,.0671,.8989Z"/><path class="cls-1" d="M30.4663,36.3008c-.1432-.2255-.2865-.451-.4313-.6765-.0859,.5261-.2148,1.3043-.2197,1.3662,.1894,.0309,.417-.2963,.6509-.6898Z"/><path class="cls-1" d="M38.9959,35.4132c.0998,.0166,.2013,.1314,.3027,.2585,.0082-.0405,.0156-.0744,.0159-.0794,.0178,.0021,.0393-.0167,.0621-.0419,.0155,0,.0314,0,.0472,.0007,.0469,.0015,.0945,.0065,.1415,.0094-.0552,.0455-.1173,.1429-.1771,.2217,.1097,.1365,.2191,.2585,.3265,.2578,.0641-.0015,.1273-.0751,.1904-.1661,.0046-.1473,.0298-.3624-.0231-.4253,.0522-.0447-.1024-.3899-.0552-.4303-.2759,0-.5532,.2101-.8309,.395Z"/><path class="cls-1" d="M25.2337,35.8149c-.1371,.3315,1.092-.5914,1.217-.6191,.3708-.0823,.7723,.0007,1.1372-.1408-.0433-.0325-.1002-.0696-.1437-.0732-.275-.0231-.5496-.1354-.825-.1296-.434,.0087-.8887-.0057-1.322,.0209-.4673,.4372-2.1227,.0924-2.1227,.2151,.4374,.31,2.3015,.1413,2.0591,.7267Z"/><path class="cls-1" d="M18.0515,37.4762c0,.1373,.5088,.7706,.5088,.9079,.3781-.0206,.7571-.0366,1.1556-.1418-.1943-.1384-1.0963-.392-1.6644-.7661Z"/><path class="cls-1" d="M23.2078,32.4944c.0268,.0007,.043,.0065,.0624,.0101,.2059-.0433,.4105-.1365,.6161-.2065-.1718-.0512-.068-.1821-.7643-.0352,.1223,.0758-.0385,.2266,.0858,.2316Z"/><path class="cls-1" d="M21.7475,34.8325c0-.0137,.0066,.0015,.0066-.0129-.0952,.0123-.1907,.0267-.2859,.0404,.0079,.0339,.0219,.0571,.0423,.0498,.079-.0274,.157-.0541,.237-.0773Z"/><path class="cls-1" d="M14.3559,32.6062c-.004,.0188,.0608,.0368,.1388,.0541-.0159-.0144-.0341-.0303-.0476-.0419,.1567,.0195,.3134,.0354,.47,.0369,.1002,.0007,.2628-.1654,.3602-.1473,.0826,.0152,.155,.0477,.2211,.0852,.082-.2606,.1411-.5343,.2122-.8073,.003,.0022,.0268,.0195,.0493,.0397,.3285,.2996,.6577,.6253,1.0665,.7032,.4448,.0838,.8943,.1357,1.3438,.1777,.0618-.0203,.124-.0426,.1857-.0737-.0029,.0303-.0062,.0607-.0096,.0909,.0552,.0047,.1101,.0105,.1653,.0159,.1375-.0545,.1688,.0133,.2895,.0422,.3226,.04,.6385,.1069,.9442,.2552,.3378,.1646,.6755,.3292,1.0153,.4866l-.0023-.0303-.0079-.0021-.0291,.0014-.0092-.0151,.0383,.0137,.0076-.0007c-.0079-.1249-.0076-.2108,.0103-.2151,.0522-.012,.1147,.0466,.1805,.1256,.0049,.0275,.0099,.0516,.0149,.0769-.0684,.0043-.1372,.0087-.2056,.0126l.0004,.0029c.0552,.0188,.1461,.048,.2238,.0712,.0241,.1036,.0493,.1747,.076,.1772,.0162,.0011,.0341-.0239,.0526-.0603,.0327,.0151,.0658,.0311,.0992,.0451l.0112,.0029c.0545-.0022,.1091-.0036,.1646-.0015-.034,.0087,.1121,.1069,.117,.1235-.0026-.0155,.1359-.0192,.2125-.0083-.0099,.0249-.0189,.0581-.0268,.0978,.0225,.0058,.045,.0151,.0671,.0224,.0162-.0433,.0321-.0784,.0476-.1091l.0251,.0029c.0281,.0317,.0565,.0682,.0876,.1278-.0294,.0007-.0588,.0007-.0883,.0021-.0238-.0094-.0479-.0159-.0721-.0238-.0472,.1263-.0961,.2729-.1365,.27-.0178-.0021-.0347-.0354-.0512-.0859-.0264,.0751-.1011,.1199-.196,.143,.1507,.0057,.3021,.0187,.4471-.0137,.0479-.0109,.0959-.0159,.1441-.0209,.8952-.6093,.7433-.8696,.6428-.8666-.0479,.0051-.725,.3143-.7729,.3251-.1137,.0264-.2317,.0228-.3494,.0173-.0023-.0137,.0813-.0986,.0981-.1458-.0069-.022-.0142-.0531-.0211-.0816,.0526,.0679,.1038,.1105,.1514,.1054,.2343-.0245,.3069-.3813,.5418-.3612,.6416,.0547,.7216-.3835,.8372-.4695-.0552,.0224-.4788,.1007-.535,.1058-.0234,.0018-.0287-.0422-.0293-.0995h0v-.0002c-.0002-.0115-.0018-.019-.0014-.0317l-.0059-.0084-.0031-.017c.0044,.006,.0047,.0022,.0096,.0102,.0476-.0693,.0952-.1473,.1431-.213,.0043-.0123,.0109-.0281,.0135-.0383l.0026,.0173c.049-.0635,.1446,.0415,.1945,.04,.0783-.0029,.1105-.1592,.1889-.162-.1683-.1047-.3354-.2245-.5063-.2325-.0089-.0007-.1509-.2634-.1599-.2627,.0816-.0412,.3326-.048,.4069-.0078,.2447,.1324,.3535,.3221,.6103,.2347-.0547-.2347-.5191-.4455-.9467-.4303-.1048,.0036-.4067,.4163-.5091,.565-.0027,.0845,.0016,.1473,.0314,.1444,.0562-.0051,.1117-.0223,.1669-.0447-.1154,.0859-.2303,.1689-.3431,.1755-.1477,.0086-.2806,.2307-.4174,.4007-.0383-.1101-.0724-.1906-.0909-.1921-.0532-.0057-.1206,.2516-.1811,.3784-.0423-.0068-.0863-.0419-.1319-.1014-.0482-.2032-.0922-.5484-.1388-.8062,.1071,.1921,.2122,.3625,.306,.3531,.2343-.0245,.4326-.5805,.6676-.5942,.113-.0065,.228-.0895,.3434-.1762-.0552,.0231-.1104,.0405-.1669,.0455-.0301,.0021-.0341-.0599-.0314-.1451,.1028-.1487,.2046-.3444,.3094-.348,.4276-.0145,.8543-.0361,1.282-.0556-.2571,.0873-.5123,.2151-.7717,.231-.0839,.0051-.1663,.0369-.2482,.0773,.009,0,.0179-.0036,.0268-.0036,.1709,.0087,.4646,.0862,.6325,.1902,.3494-.0137,.6835,.2037,1.0328,.1878-.2053,.0693-.5919-.059-.7981-.0157,.2436,.0505,.4438,.313,.7746,.313,0,.0722,.393-.1237,.393-.0515-.1259,.0101-.268,.2036-.4108,.3625,.0211,.0899-.0079,.1996,.1887,.2065-.2271,.0405-.5585,.1206-.5585,.0729-.3308,0-.0862-.2599-.3298-.3105-.0515,.0115-.1034,.0217-.1556,.0245-.0839,.0051-.1666,.0369-.2482,.078,.009-.0007,.0179-.0043,.0268-.0036,.2955,.0144,.58,.3711,.8755,.3827,.1371,.0051,.1738,.0541,.1877,.1119,.1325-.148,.264-.3195,.383-.352,.1666-.0264,.5734-.1794,.5966-.0834l.0056,.0021-.0046,.0015c.0116,.0477-.0211,.0657-.0482,.0166-.1924,.0831-.9112,.5051-.9323,.4152-.088,.0975-.7205,.0266-.8111,.149-.0583,.2198-.0971,.5781-.1513,.5842-.0188,.0022-.3245-.316-.3886-.2582,.005-.0592-.2008,.3312-.3782,.326,.0106,.0967,.2243,.1876,.2243,.1826-.2582-.0261-.0645,.1381-.0704,.2609-.1799,.2139-.0544-.0896-.0834-.0913-.4512-.0261-.2061,.3939-.5645-.0332-.0284,.1791-.0618,.3292-.1183,.343-.0981,.0231-.144,.1105-.1603,.1928,.2284-.0311,.4693,.0281,.6954-.0231,.1263-.0289,.2532-.0274,.3801-.0477,.0287-.0043,.0568-.0217,.0846-.0389,.006-.1228,.0109-.2224,.0106-.226,.0237-.0022,.0472,.0036,.0707,.013-.0049,.0556-.0096,.1105-.0145,.1639,.036-.0332,.0724-.0722,.1071-.1177,.0363,.0181,.2165,.0254,.2526,.0218,.0003,.005-.0494-.1171-.06-.2139,.1229-.187,.0394-.1827,.0831-.1899-.0443-.0253,.2662,.1959,.2612,.2551,.0641-.0578,.2058-.4912,.2246-.4933,.2604-.0296,.5522,.3682,.8124,.3394,.0109-.0015,.0681-.2397,.0681-.2397,0,0,.4611,.3842,.7549,.5502,.2598,.1465,.6805-.2968,.9426-.4246,.2102-.1025,.4188-.1054,.6137,.0267,.2386,.1603,.6947,.6982,.9152,.551,.2591-.1719,.2833-.7552,.5499-.6102,.1934,.1047,.3966,.1314,.6002,.0383,.2888-.1314,.7693-.3422,.7693-.3422l.7734,.66s.429-.0246,.6398-.1509c.2476-.1487,.6686-.634,.6686-.634,0,0-.1153-.5841,.0916-.5718,.2297,.0145,1.1032,.3105,1.1032,.3105,0,0,.6302-.0383,.897-.3177,.1609-.169,.3179-.1293,.4967,.0462,.1031,.1011,.192,.1487,.28,.1538-.076-.0708-.1527-.1444-.2284-.2073l.0499-.031c.1246,.0621,.2485,.1263,.3728,.1733,.0393-.0275,.0786-.0556,.1213-.0997,.0731-.0743,.1458-.1523,.2205-.2245,.0102-.0325,.0218-.0563,.036-.0599-.0007-.0072,.0753-.1162,.1166-.1797-.0135,.0339-.0294,.0881-.0463,.1494,.088-.0668,.1828-.1158,.2932-.126-.0115,.1325-.0234,.2625-.035,.3542,.0159,.0051,.0314,.0079,.0472,.0123,.0717,.0187,.1435,.0339,.2148,.0231,.0099-.0014-.003,.1257,.0516,.0931,.0211,.1481,.0063-.3682,.0139-.418-.0049-.0375-.0086-.0643-.0082-.0585-.0159,.0166-.0162,.1054-.0195,.1797-.0125-.061-.0255-.126-.038-.1899,.0255,.0004,.0509,.0004,.0767,0l-.0112-.0751c-.0238,.0144-.0476,.0306-.071,.0466l-.0106-.0509c.0245-.0199,.0486-.0383,.0731-.0556l-.0155-.104c-.0083,.0405-.0172,.0693-.0271,.0708-.0169,.0025-.0338-.0058-.0503-.0058-.0413-.1968-.0823-.3599-.1199-.3632-.0179-.0018-.0353,.1534-.0529,.3438l-.0394-.0101c.0354-.2766,.0707-.8989,.1061-.8961,.0602,.0057,.1279,.408,.194,.7278,.0033-.0751,.0036-.1639,.0195-.1798-.0003-.0058,.0033,.0209,.0079,.0585-.0069,.0491-.0139,.1025-.0208,.1523,.0145,.0701,.0291,.1343,.0433,.1899,.0023,.0455,.0057,.0981,.009,.1509,.1537-.0036,.307-.0065,.4604-.0007-.0063-.052-.0057-.0946,.0181-.1069,.0027,.013-.0582-.1299-.0952-.2144,.0433-.0874,.0889-.1603,.1437-.1697,.0671-.0116,.1392,.2296,.2119,.5004,.3064,.0195,.6131,.0441,.9194,.0686-.0562,.0671-.118,.183-.1827,.3256-.078,.0224-.1563,.0498-.2353,.0665l.0029,.0202c.0724-.0159,.1438-.0318,.2155-.0477-.0255,.0563-.0509,.1155-.0767,.1755,.1157-.0318,.2433-.1177,.3639-.1979,.0049-.1397,.0086-.2625,.0093-.335l.0701,.0051c.1035-.2729,.1758-.7199,.3229-.7516,.1144-.0245,.238-.0101,.3602,0,.0004,.1473,.001,.3141,.0004,.3047,.0704-.0159,.1176-.0946,.188-.0946,.1031-.0007,.2049,.0058,.3067,.0166,.0568,.0903,.116,.1971,.1748,.3026-.0608,.0018-.1226,.0051-.1841,.0076v-.0671c-.1226-.0101-.2462-.0249-.3606,0-.2016,.0433-.2624,.8755-.4564,.9556-.0731,.03-.156,.0852-.2429,.1434-.0043,.1299-.0093,.2693-.0129,.3834-.0142-.0895-.0228-.1581-.0186-.183-.0459,.0181-.076,.0997-.0981,.2101-.0317,.0054-.0631,.0151-.0948,.0166-.0274,.0022-.0539,.0181-.0806,.0296,.0532,.0469,.1051,.0798,.1533,.082-.0069,.0545-.0132,.1126-.0188,.1729,.0512-.0675,.1024-.131,.154-.1874-.001,.0599-.0007,.0975,.0023,.0967,.0132-.0025,.0274,0,.0413-.001-.0073-.0412-.0139-.082-.0208-.1217,.0618-.0646,.1249-.1068,.188-.1339-.0231-.0202-.0457-.0372-.0691-.0607l.004-.0473c.0764-.0296,.153-.0599,.229-.0917-.0063-.0401-.0132-.082-.0201-.1242,.0895-.0094,.1798,0,.271,.0166-.0833,.0369-.1669,.0726-.2509,.1076,.009,.057,.0152,.1076,.0198,.1523,.2099-.0275,.4188-.0903,.6273-.1635-.0112,.044-.0063,.1155-.0152,.1642-.2304,.1083-.4611,.2162-.6921,.3188,.1444,.0264,.2892,.0613,.4303,.039,.0364-.0058,.0698-.035,.1035-.065,.079,.0119,.1497,.0104,.2264,.0184,.0539,.1429,.1094,.2899,.1087,.2816,.0338-.03,.0146-.1559-.0029-.2729,.8242,.0685,.4705,.1246,1.1044-.0696-.0046-.0007,.2193-.2422,.2153-.2422-.2869-.039,.0503-.6907-.2018-.8748-.0568-.0415-.6364,.8354-1.1357,1.0419-.0023-.0426,.002-.0708,.0202-.0708,.0006,.0076-.0317-.0711-.0645-.1501l.0079-.0098-.0103,.0043c-.0208-.0509-.041-.0997-.0529-.1271,.1491-.0524,.2985-.1025,.4479-.1393-.0377-.0972-.0896-.2192-.0707-.2192-.0406,.0336-.0149-.1184,.0026-.2336,.0668-.0289,.1332-.0581,.2-.0856l-.004-.0007c-.0631,.0037-.1262,.0192-.1894,.0311,.0023-.0177,.0056-.0397,.0056-.0498,.0999-.0083,.195-.009,.2915-.0119-.0591-.1054-.1183-.2126-.1752-.3026-.0879-.009-.1758-.0134-.2643-.0145,.111-.0393,.5129-.1758,.5261-.1758,.0189-.0192,.0374-.0473,.0555-.0798,.0195-.0062,.082,.0826,.0925,.0834-.0066-.0361,.7826-.2145,1.0923-.2578,.117-.017,.2261-.0513,.3312-.095,.1068,.1105,.2138,.2264,.3203,.3224,.0076-.0101,.0145-.0217,.0221-.0311-.0066-.2151-.0013-.3906,.0486-.4058-.0347-.0239,.157,.27,.1474,.27-.0727-.0029-.1358,.0556-.196,.1357l.0016,.052,.0222,.0173c.1953-.0657,.3798-.1863,.5781-.2361,.0776-.0188,.1556-.0203,.2336-.0209,.0618-.0975,.1236-.1971,.1861-.2867-.1058-.0679-.2271-.1957-.3117-.1906-.0155,.0015,.0275-.1704,.0658-.3228-.0119,.1054-.0172,.2057-.0023,.2007,.1219-.0433,.2184-.2311,.3183-.3885-.0731,.0195-.1854,.0498-.2889,.0758,.0149-.0613,.0255-.1083,.0231-.1155-.0082-.0274-.0231,.0347-.036,.1191-.1061,.0267-.195,.0462-.2006,.039-.0446-.057,.0714-.191,.1507-.2874-.0109,.0505-.0185,.0903-.0168,.1047,.0231-.0361,.041-.078,.0628-.1148-.004-.0014-.004-.0234-.0046-.0411,.0222-.0296,.0341-.0505,.0222-.0549,.0383-.0578,.0747-.1451,.1107-.2361l.0628-.0166c.0909-.1848,.1781-.374,.2723-.5588,.5444,.2065,1.1105,.4274,1.6796,.6346,.2283,.0831,.4154,.0159,.5513-.179-.046-.0303-.0985-.0701-.1531-.1141,.0621,.0246,.1203,.0542,.1705,.0845,.0245-.039,.0509-.0737,.0714-.1213,.085-.1993,.1428-.4174,.2082-.6289,.0926-.299,.0469-.4794-.1672-.6325-.0701-.0505-.1524-.0787-.2321-.1025-.6537-.1971-1.3077-.3906-1.9783-.5899-.0201-1.0145-.2661-1.9582-.7859-2.7886-.593-.9473-1.481-1.2137-2.181-1.1783,.2859,.1075,.4214,.3278,.4574,.6318,.0291,.2448,.1312,.4195,.2845,.556,.1438,.1278,.2852,.2621,.4376,.3712,.2971,.213,.5671,.4606,.7637,.8463-.1249-.0181-.2435-.0347-.3622-.052l.0029-.0491c.0374-.0079,.0747-.0166,.1627-.0353-.1858-.174-.3358-.3235-.4931-.4592-.1937-.1675-.3979-.3163-.5896-.486-.1573-.1393-.2886-.3213-.315-.5682-.0347-.3314-.1639-.5379-.4247-.626-.0555-.0187-.0962-.1039-.1276-.1393-.0843-.0477-.1821-.0628-.2228-.1314-.2551-.4282-.4964-.8693-.7452-1.304-.0218-.0375-.0628-.0599-.0975-.0837-.0777-.0513-.1567-.0982-.2363-.148,.0483-.104,.1088-.1726,.1061-.2376-.0115-.2765,.0334,.0488,.0016-.2256-.0218-.1845-.2479-.2444-.2763-.4286-.069-.4505-.1576-.0621-.4677-.3675-.105-.1036-.2082-.2119-.3169-.3094-.0751-.0671-.4379-.3473-.6061-.4628-.1219-.0809-.079-.3163-.0635-.3643,.0208-.0642,.118-.105,.1296-.179,.0505-.321,.0148-.704-.1077-.8925-.2185-.335-.5665-.4672-1.0364-.4528-.2046,.0062-.8838,.1249-1.012,.5325-.032,.1368-.0842,.3188-.0932,.6495,.0113,0,.0099,.0231,.0565,.0339,.2519,.0588,.2383,.1318,.1976,.4603-.0076,.0617,0,.1332,.0182,.1917,.0278,.0902,.0635,.1797,.1088,.2585,.0975,.1711,.0344,.5083,.3179,.4697,.0076,.2228-.1243,.4769-.2598,.5614-.0609,.0383-1.1406,1.1116-.7155,1.6311,.119,.1451,.0307,.2903-.009,.4802-.0562,.2664-.0443,.5546-.0935,.8246-.0489,.2679-.0364,.4751,.1827,.5682-.0945,.078-.1811,.1495-.2881,.2375-.1074-.2144-.2793-.5112-.4115-.8333-.2112-.5134-.4948-.852-.9921-.7986-.1074,.0109-.0535-.0613-.1689-.0613,.1444-.122,.1147-.1632,.239-.2809,.155-.1466-.0228-.5141,.2148-.5639,.0961-.0203,.0859-.2549,.1001-.3704,.0529-.4268-.2842-1.1589-1.1597-1.1242-.2882,.0108-.7172,.1935-.897,.504-.1365,.2347-.1312,.5011-.0724,.7322,.0192,.0772,.0902,.1162,.1414,.174-.0538,.1335-.043,.1003-.0955,.3119,.0195,.0585,.0859,.0549,.112,.0621,.0992,.0267,.0258,.1473,.036,.1827,.0205,.0715,.0317,.2072,.0034,.2303-.2062,.1653-.4234,.3076-.6362,.4592-.1229,.0874-.2079,.1913-.2072,.3979,.0003,.1155-.0648,.2404-.119,.3458-.0599,.117-.1494,.2087-.2095,.325-.0661,.1271-.1293,.1314-.2102,.0347-.2932-.3495-.58-.7076-.8815-1.0455-.1047-.117-.2379-.2188-.3718-.265-.3011-.1039-.6105-.1682-.9132-.2469,.0602-.2274,.1362-.405,.1504-.5899,.0231-.3004,.2628-.4318,.2558-.7343-.0115-.512-.1583-.9545-.9006-1.0297-.9419-.096-1.1455,.5661-1.0338,1.2275,.0439,.0448,.1395,.0744,.1478,.1141,.0172,.0823-.1031,.2333-.0889,.278,.0291,.0924,.0049,.2021,.1054,.3112-.1236,.0975-.2587,.2043-.4339,.343-.0912-.3596-.1471-.1928-.2422-.5329-.1411-.504-.3474-.9336-.8196-1.0296-.1821-.0369-.3632-.0787-.584-.1271,.0463-.065,.082-.1278,.1273-.1776,.079-.0859,.1993-.143,.2402-.2499,.2324-.6072,.0364-1.4412-.7525-1.499-1.2076,0-1.2493,1.2347-1.1055,1.3712,.1401,.1336,.1352,.2852,.0568,.4658-.0188,.0433,.005,.1603,.0377,.1855,.1163,.0881,.2485,.4022,.2323,.5473-.0839,.0859-.1841,.1365-.2039,.2181-.0449,.1863-.0512,.387-.0654,.5119-.1897,.0563-.3354,.0997-.4808,.1423-.0169,.0043-.1289,.0202-.1464,.0173-.2902-.0462-.2614,.0043-.4634-.2404-.0469-.0563-.0175-.1589-.2168-.213-.1705-.0455-.3579-.0549-.4554,.1429-.0489,.0505,.005,.1177-.0304,.1523-.0872,.0859-.0406,.2238,.1606,.2534,.1309,.2859,.2637,.5387,.3675,.8087,.3024,.787,.5942,1.5806,.8864,2.3734,.0175,.0484,.0106,.1249-.0063,.1769-.0496,.1552-.0777,.2809-.0082,.4628,.0776,.2051,.1708,.2181,.312,.1848,.0192-.0043,.0423,.013,.0955,.0311-.0439,.3177-.0862,.6274-.1312,.9509-.8183-.3639-1.6247-.7292-2.4354-1.0787-.3546-.1523-.7139-.296-1.079-.4022-.4488-.13-.9062-.2159-1.3848-.3271,.0383-.1885,.076-.3755,.114-.5618,.0747,.1133,.116,.2188,.1378,.3307,.0334,.1733,.1107,.2635,.2551,.2751,.1639,.013,.3312,.0152,.4901,.0599,.2958,.0845,.5844,.2109,.8805,.2924,.6689,.1849,1.3629,.6166,2.0372,.7661,.233,.052,.6768,.395,.9465,.3899-.1877-.3956-.4819-1.1257-.739-1.3011-.0714-.0491-.1437-.1011-.2062-.1653-.2988-.3076-.5314-.6758-.6854-1.1264-.0562-.1632-.08-.2896-.0033-.452,.0311-.0664,.0264-.2151-.0126-.2657-.1392-.1805-.1593-.374-.111-.6029,.0162-.0787,.0261-.1943-.0073-.2462-.0994-.1538-.0892-.3235-.1001-.4997-.0189-.3004-.0268-.6332-.2403-.8224-.3384-.3004-.7383-.3372-1.1418-.3069-.0701,.0058-.1401,.0202-.2102,.0303l-.0115-.0635c.0558-.0744,.1117-.148,.1678-.2217,.0985-.1285,.1273-.2441,.1788-.3856,.034-.0925-.0261-.0845-.0063-.3842,.004-.0613,.1077-.0483,.0919-.1148-.0357-.1487-.079-.7379-.5539-.8823-.5424-.1719-.9984,.0693-1.3904,.5112-.1791,.2021-.2277,.553-.0546,.8195,.0103,.0159,.0135,.0383,.0215,.0621-.0433,.0368-.0846,.0722-.1255,.1076-.2079-.2347-.4554-.2499-.6911-.1964-.0972,.0224-.1943,.1913-.2476,.3213-.0469,.1148,.0354,.1971,.1368,.2275,.0235,.0072,.0532,.0649,.0529,.0989-.0013,.1697,.0069,.3444-.0222,.5084-.0575,.3198-.1395,.6325-.2083,.9495-.2128,.9805-.424,1.9619-.6359,2.9431-.1854-.0593-.4191,.1603-.3622,.3574,.073,.2527,.0013,.4044-.1438,.5502-.0453,.0455-.0809,.1069-.115,.1661-.4449,.7747-.5612,1.6123-.3209,2.5257,.0201,.0765,.004,.2022-.036,.2628-.2072,.3163-.4346,.6123-.6402,.9307-.077,.1184-.1358,.2701-.1646,.4188-.0146,.0751-.0119,.1444,.0033,.2072l.0255,.0036Zm24.4484,1.5755c.0486-.0462,.0962-.105,.1428-.1722l.0413,.1086c-.0916,.0361-.1586,.0603-.1841,.0635Zm.2194-1.3989l.0004-.0314c.0374-.0083,.0743-.0188,.1114-.0292-.0354,.0238-.0701,.0513-.1118,.0607Zm.2899-.1376c-.043,.0058-.0859,.0094-.1292,.013-.0532,.0245-.1068,.0494-.1603,.074v-.044c.0135-.0062,.0267-.0162,.041-.0184,.0394-.0043,.0797-.0079,.1193-.0115,.042-.0188,.0836-.0375,.1252-.0556-.0063-.0209-.0152-.0455-.0261-.0751,.105-.0253,.3189-.0513,.3199-.0513-.0981,.0404-.196,.0823-.2938,.1263,.0073,.0238,.0106,.0419,.004,.0426Zm2.9593-1.2889c-.2175,.0173-.4326,.0585-.6468,.1127-.0049,.0866-.0093,.1653-.0076,.2267,.0208-.0238,.0417-.0476,.0641-.0462,.0301,.0015,.0605,.0239,.0912,.0535-.0281,.0975-.0598,.17-.0952,.2159-.0413-.0379-.0826-.0794-.1243-.1216,.0126-.0246,.0245-.0535,.037-.0733-.0764-.0635-.1976-.1509-.1537-.1596-.0079,.0145-.0307,.0336-.0582,.0535-.1246-.1293-.2491-.2531-.3724-.33-.0304,.1892-.0677,.3452-.1339,.3625,.001,.0051-.0308-.0726-.0638-.1531,.0003-.0347,.0036-.0758,0-.1018l-.042-.0007c-.0168-.0419-.0304-.074-.0297-.0707,.0413,.0115,.1339-.013,.2386-.0527-.0727-.0411-.1451-.0657-.2164-.0628,.0684-.0281,.1365-.0556,.2052-.0816,.0205,.0188,.0406,.0333,.0602,.0397l-.0135,.091c.0585-.0231,.119-.0513,.1765-.0802,.037,.1849,.074,.3235,.1097,.3192,.0007,.0043-.0172-.1617-.0377-.3567,.0961-.0527,.1732-.1047,.1917-.1371-.0248,.0047,.0037,.0346,.0456,.0711,.0572,.0664,.1055,.1238,.1101,.1303,.0089,.0115,.0145,.0325,.0181,.0578,.2129,.0043,.4267,.0043,.6495-.0152,.001,.0152-.0034,.0939-.0023,.1097Zm.1068-2.1141c.1507,.052,.2062,.5661,.312,.7906-.0363,.087-.0724,.1794-.1091,.265-.0585-.2216-.1166-.4588-.2171-.4938-.0291-.0101-.2518,.683-.2822,.691-.0728,.0198-.1306,.1127-.1901,.1989-.0839,.0004-.1705,.0076-.2535,.0062-.004-.0253-.0089-.0462-.0185-.0585-.0056-.008-.0754-.091-.1534-.1813,.0975-.0505,.2053-.1509,.2932-.1812,.1266-.0441,.2079-.3112,.3364-.3459,.0301-.0087,.2529-.7011,.2823-.691Zm-1.1171-1.104c.1903-.2159,.3731-.4448,.5453-.6838,.0436-.0599,.0344-.1783,.0493-.2708l-.0231-.0838c.0809,.0245,.1622,.0491,.2518,.0765-.3097,.7293-.9442,1.4246-1.1974,1.2946,.1329-.1162,.2647-.2086,.3741-.3328Zm-.4393,2.6954c.0073,.0527,.0049,.1285,.0004,.2073-.1312,.0339-.2621,.0729-.392,.1177l.0119,.1148c-.0222,.0123-.0453,.0242-.0691,.0361l-.0079-.0722-.0073,.0069-.0112-.0582c-.0308,.0109-.0615,.0224-.0916,.0333-.0007,.0483-.0023,.0845-.0063,.0852-.0135,.0029-.0275,.0007-.0416-.0043l.0092-.0665c-.0231,.0094-.0463,.0181-.0694,.0267-.0883-.0794-.1887-.2549-.2899-.4361,.079-.0022,.4842-.1394,.5219-.1495-.0003-.0022,.3011,.1559,.4429,.1588Zm-.6547-4.3265c-.0452-.5004-.0889-.9899-.1318-1.4665,.4095,.465,.4346,.9632,.1318,1.4665Zm-.1318,2.5293c.2714-.0159,.4366-.3812,.7112-.3863l.0314,.0787c-.1851,.1379-.3698,.2758-.5546,.4137-.0476,.0354-.0916,.0831-.1428,.1055-.0829,.0368-.1705,.0577-.2562,.0852l-.0086-.078q.272-.1011,.2195-.2188Zm-.1252,2.5149c-.006,.0065-.0063,.0795-.0053,.1791l.0119,.0015c.0195-.0426,.0393-.0812,.0591-.1188,.0341,.0545,.0658,.0928,.0978,.1329-.0522-.0047-.1051-.0076-.157-.0141l-.0116,.0238,.0007,.0217-.0033-.0151c-.036,.0779-.0717,.1516-.11,.1906l-.0387-.0007c.0067-.0469,.0186-.1451,.0305-.2383-.0311-.0044-.0622-.0079-.0933-.0123l-.0002-.0171-.0099-.0014,.0041,.0177c-.1141-.0164-.2283-.0336-.3423-.0453-.0892-.1408-.1729-.2397-.2429-.2274-.081,.0137-.1666,.0086-.2529,.0014-.0003-.1162-.0007-.2195,0-.2123,.3497,.0036,.7112,.2332,1.0632,.3343Zm-1.284-5.1944c.0201-.1393,.0046-.2874,.0046-.5076,.1061,.1169,.2006,.2144,.2882,.3213,.0195,.0238,.0294,.0845,.0195,.1169-.0486,.1611-.1002,.3214-.16,.4766-.0803,.2087-.1797,.0729-.272,.0188,.0423-.1444,.0985-.2809,.1196-.426Zm-.8388,6.1707c-.1206,.0809-.2479,.1661-.3635,.1985,.0258-.0599,.2955-.6217,.3712-.6,.0056,.0015,0,.1885-.0076,.4015Zm-3.494-2.4333c.1124-.0397,.229-.057,.3434-.0866,.0905-.0239,.191-.0043,.2254-.1798,.0096-.0483,.19-.0996,.2654-.0635,.3619,.1762,.7258,.1155,1.0939,.0722,.4329-.0505,.8662-.0946,1.2998-.1292,.202-.0159,.4052-.0051,.6078-.0029,.0238,.0007,.0472,.0231,.0707,.0354l-.0043,.0354c-.3262,.0462-.6517,.1032-.9789,.1357-.5324,.0534-1.0659,.0924-1.5989,.1328-.153,.0123-.312-.0519-.4554,.0672-.0132,.0115-.0353,.0166-.0512,.0123-.3212-.0917-.6118,.1415-.9538,.0873,.0449-.0397,.0859-.0982,.1362-.1163Zm-.2733-1.4268c.0522,.1819,.1028,.3582,.1616,.5618-.1163,.0419-.2307,.0823-.3589,.1278,.0697-.2433,.1306-.457,.1973-.6896Zm-.2291,3.2196c.0502-.0115,.2026,.1221,.347,.2383-.1315-.0519-.2697-.0823-.3322-.0519-.0182,.0093-.0526-.0759-.0899-.1777,.0248-.0036,.0499-.0029,.075-.0087Zm-.0511,.8753c.0133,.0519-.0544,.1848-.1475,.345l-.0129-.0072c.0639-.1295,.1369-.2753,.1604-.3378Zm-.2368,.4966l.0007,.0022-.0083,.0145,.0076-.0167Zm-.0803-.231l-.0192-.0072c-.0033-.0361-.0063-.0672-.0082-.0931,.0056,.0281,.0148,.0606,.0274,.1003Zm-14.6426-.3502c-.0324-.1584-.0687-.2736-.1157-.2809-.0126-.0021-.0684,.1318-.1289,.2802-.0618-.0765-.1408-.1812-.163-.166,.0287,.0072,.277-.6809,.3057-.6766,.0833,.0137,.1355,.3531,.1861,.7105-.0281,.0325-.0562,.0862-.0843,.1328Zm.9697-1.8289c.0304-.2852,.0651-.5401,.1371-.5358,.1408,.0072,.2737,.1155,.4088,.1928-.1821,.1263-.3639,.2534-.546,.343Zm5.0281,.548c-.0112,.0491-.3298-.0202-.3483-.0549-.0106-.0203,.149-.0491,.1725-.0369-.0538-.0281-.1047-.0462-.1576-.0707,.0562-.0556,.1136-.0967,.1725-.1018,.2545-.0202,.5189-.0036,.7737-.0145,.0103-.0007,.0205,.0065,.0308,.008-.2148,.1429-.4293,.2708-.6435,.2708Zm3.4081,.8354c.0426,.0109,.0724-.257,.1292-.3069-.1355,.0058-.271,.0116-.4069,.0173,.1243-.0419,.2482-.0751,.3738-.0801,.0112-.0007,.0225,.0679,.0568,.0541-.0082-.0021-.0165,.0015-.0238,.0087,.084-.0036,.1679-.0079,.2518-.0115,.0588-.0021,.1438,.1069,.2234,.1906,.0103-.0007-.3844,.1278-.6045,.1278Zm2.374,.0881c.0657-.1697,.1388-.3004,.2303-.3271,.0274-.0087,.0869,.1733,.1404,.3199-.1236,.0173-.2472,.0145-.3708,.0072Zm-.7238-4.2218c.0625-.0101,.1312-.0469,.1857-.026,.1987,.0765,.2608-.0945,.3292-.2599,.0132-.0317,.0059-.0823,.0237-.1039,.1702-.2123,.3434-.421,.5212-.6361,.0875,.3624,.1711,.7076,.264,1.091-.11,.0202-.2112,.0455-.313,.0556-.2247,.0231-.4504,.0513-.6752,.0505-.1127,0-.2251-.0585-.3375-.091l.0016-.0801Zm.0995,.3488q-.0433,.3755-.4614,.5935c-.0754-.3314-.1523-.6678-.2287-1.0051,.2297,.1372,.4594,.2744,.6901,.4116Zm-1.0906-.5668c.1401,.0541,.27,.1047,.3999,.1552-.1302,.0325-.2598,.0657-.3999,.1011v-.2563Zm-2.7203,.0765c.1031,.2346,.1917,.4361,.2799,.6375-.2191,.1415-.5149,.1235-.7922-.0772,.1794-.1964,.351-.3834,.5123-.5603Zm-3.3069-.8549c-.3655-.9907-.7294-1.9785-1.0933-2.9662-.037-.1069,.0139-.0722,.036-.0635,.0668,.0441,.1322,.0917,.2,.1321,.0988,.0592,.1953,.1371,.3,.1639,.1468,.0383,.201,.1387,.2241,.3105,.0119,.0874,.0526,.1892,.1068,.2433,.1748,.1733,.3553,.322,.5992,.3372,.112,.0065,.2191,.1408,.3027,.1993-.0186,.1148-.0621,.2404-.0535,.3603,.0152,.2166,.0043,.3812-.2119,.3928-.0202,.0007-.0394,.0296-.0813,.0643,.2449,.2686-.1107,.4311-.0714,.683-.077,.0426-.155,.0859-.2574,.143Zm-2.4777,.7292c.5334,.2715,1.0731,.5235,1.6095,.7856,.4921,.2405,.9822,.4888,1.4777,.7192,.1074,.0498,.2346,.0339,.3523,.0527,.0175,.0029,.0324,.0297,.0489,.0455,.0787,.0238,.1729,.0209,.233,.0758,.2875,.2635,.6329,.2773,.9601,.3596,.5737,.1444,1.1501,.2758,1.7281,.3892,.8388,.1646,1.67,.4152,2.5266,.395,.074-.0022,.1461-.065,.2214-.0888,.0618-.0195,.1375-.0549,.1884-.0282,.503,.2657,1.0196,.1336,1.5325,.0953,.2869-.0217,.5728-.0657,.86-.0852,.0568-.0043,.1163,.0577,.2181,.1126-.1398,.0289-.237,.0599-.3354,.0679-.5453,.0455-1.0913,.0867-1.637,.1264-.237,.0173-.4882,.096-.7076,.026-.2502-.0809-.4931-.0333-.7364-.0715-.4544-.0722-.9095-.1393-1.3613-.231-.664-.1343-1.3263-.2831-1.9883-.4347-.4306-.0982-.8583-.2166-1.2896-.3141-.105-.0238-.2217,.026-.3248-.0036-.0925-.0267-.1742-.1148-.2608-.1762-.0928,.0267-.1722,.0224-.2171-.1105-.0112-.0325-.0512-.0556-.082-.07-1.2116-.5784-2.4146-1.1871-3.6391-1.7199-.6144-.2672-1.277-.2751-1.9304-.2708-.1454,.0007-.2941-.0628-.4373-.1155-.1818-.0665-.3593-.1517-.545-.2318,.0546-.0852,.1253-.1668,.2466-.1047,.0701,.0361,.1461,.0606,.2086,.1105,.1993,.1595,.4091,.213,.6484,.2057,.8329-.0238,1.6502,.0917,2.4318,.4896Zm-3.8129-1.8513c.1705-.7668,.345-1.5322,.5169-2.2983,.0443-.1971,.0803-.3979,.1302-.5928,.0139-.0534,.0909-.1335,.0932-.1314,.152,.1538,.275-.2787,.425-.0347,.1229,.2007,.2429,.4044,.3625,.6036-.3256,.3011-.5741,.6528-.811,1.0304-.1927,.3069-.191,.6007-.1223,.9415,.0132,.0671-.0436,.1985-.0975,.2375-.1838,.1314-.3563,.2296-.3331,.5733,.0148,.2152-.1216,.3726-.3186,.4318,.0522-.2578,.0988-.5112,.1547-.761Z"/><path class="cls-1" d="M21.413,34.7516c-.0387,.0087-.0701,.0607-.0995,.13,.0549-.0072,.1031-.0145,.1547-.0217-.0069-.0311-.0066-.0701,.002-.1141-.0192,.0029-.0383,.0021-.0572,.0057Z"/><path class="cls-1" d="M39.5714,31.6678c.037,.0051,.0737,.0109,.1107,.0152-.0287-.1257-.0572-.2101-.0856-.2065-.0004-.0057-.0123,.0874-.0251,.1913Z"/><polygon class="cls-1" points="39.3253 39.2698 40.8325 37.5877 38.6087 37.7342 39.3253 39.2698"/><path class="cls-1" d="M10.9976,37.6456c-.0464,.1354-.0406,.265,.0175,.3887,.059,.1267,.1556,.2137,.291,.2631,.0617,.0225,.1224,.0336,.1821,.0336,.0714,0,.1416-.016,.2106-.0482,.1237-.057,.2098-.1556,.259-.2938,.0494-.1384,.0456-.2679-.0106-.3897-.059-.1256-.1567-.2137-.292-.263-.0617-.0225-.1223-.0337-.182-.0337-.0713,0-.1412,.0161-.2097,.0482-.1314,.061-.2194,.1596-.2659,.2948Z"/><path class="cls-1" d="M10.8459,35.6035c-.064-.025-.127-.0374-.1888-.0374-.0699,0-.1385,.0158-.2056,.047-.1287,.06-.2156,.1586-.2621,.2969-.0464,.1382-.0406,.2698,.0175,.3936,.0609,.1305,.1605,.2195,.2987,.266,.0626,.0209,.1233,.0314,.1819,.0314,.0709,0,.1388-.0153,.204-.0461,.1237-.0571,.2108-.1545,.261-.2919,.0492-.1373,.0454-.2688-.0135-.3946-.058-.1237-.1556-.2126-.293-.2649Z"/><polygon class="cls-1" points="11.5513 18.0163 8.5073 15.7516 8.5259 15.7262 10.9849 15.6091 11.0728 15.4909 10.479 13.1012 10.4976 13.0768 13.5415 15.3415 14.1646 14.5046 9.8306 11.279 9.2739 12.026 9.9234 14.7223 7.1538 14.8747 6.5933 15.6286 10.9273 18.8542 11.5513 18.0163"/><path class="cls-1" d="M14.9712,13.6979l.9004-.6221-.3174-1.3789,1.9766-1.3643,1.209,.7637,.9072-.626-5.0332-3.0908-.8779,.6064,1.2354,5.7119Zm1.8291-3.8242l-1.4355,.9912-.5303-2.2334,1.9658,1.2422Z"/><path class="cls-1" d="M13.3657,7.4909c.2285,.041,.4395-.0049,.6328-.1387,.1973-.1357,.3154-.3184,.3555-.5479,.0391-.2285-.0078-.4385-.1396-.6299-.127-.1846-.3066-.2998-.5391-.3467-.2324-.0459-.4453-.0029-.6387,.1309-.1914,.1318-.3076,.3135-.3486,.5459-.042,.2324,.002,.4434,.1328,.6318,.1348,.1953,.3164,.3135,.5449,.3545Zm-.2959-.9189c.0244-.1279,.085-.2246,.1797-.291,.1045-.0713,.2207-.0957,.3496-.0723,.1299,.0244,.2285,.0859,.2969,.1855,.0674,.0977,.0918,.21,.0723,.3379-.0205,.1289-.083,.2295-.1895,.3018-.1035,.0723-.2178,.0967-.3428,.0752s-.2236-.0859-.2969-.1924c-.0703-.1016-.0938-.2168-.0693-.3447Z"/><path class="cls-1" d="M21.7056,9.7692l-.6992-2.1729,.3613-.1152c.1592-.0518,.3135-.0576,.4619-.0176,.1484,.041,.3193,.1348,.5127,.2822,.1943,.1475,.5215,.4492,.9824,.9043,.21,.2061,.3711,.3535,.4834,.4424l1.1084-.3574c-.2285-.1865-.5996-.541-1.1143-1.0625-.3057-.3008-.5459-.5059-.7227-.6172s-.3613-.1846-.5547-.2197c.2568-.2207,.4258-.4639,.5068-.7295s.0742-.5449-.0195-.8369c-.1387-.4297-.4033-.7295-.793-.8984-.3906-.1699-.8281-.1768-1.3115-.0215l-1.8516,.5967,1.6562,5.1426,.9932-.3193Zm-.792-4.5801c.2725-.0879,.502-.0977,.6865-.0283s.3145,.2217,.3906,.457c.0732,.2266,.0557,.4277-.0508,.6055-.1064,.1787-.29,.3096-.5498,.3926l-.6338,.2041-.4609-1.4316,.6182-.1992Z"/><path class="cls-1" d="M28.231,8.5319c.5801-.0068,1.0928-.126,1.5391-.3555,.4453-.2305,.7881-.5508,1.0264-.9629s.3545-.8818,.3477-1.4102c-.0068-.5186-.1338-.9834-.3809-1.3955-.248-.4121-.5928-.7305-1.0332-.9541-.4414-.2236-.9434-.332-1.5049-.3252l-2.2627,.0283,.0684,5.4033,2.2002-.0283Zm-.1387-4.585c.5947-.0078,1.0713,.1553,1.4277,.4883,.3555,.333,.5371,.791,.5449,1.374,.0068,.5615-.1621,1.0186-.5068,1.3701-.3447,.3506-.8066,.5303-1.3838,.5371l-1.1094,.0137-.0479-3.7705,1.0752-.0127Z"/><path class="cls-1" d="M34.023,9.2956c.5127,.1387,.9678,.1152,1.3643-.0732,.3965-.1875,.6562-.5049,.7773-.9531,.0938-.3457,.0791-.668-.043-.9648-.1221-.2979-.3701-.6055-.7432-.9229-.4385-.3652-.6885-.582-.749-.6523-.2217-.2383-.3057-.4561-.252-.6533,.0439-.1641,.1514-.2754,.3213-.335s.3818-.0557,.6357,.0137c.418,.1133,.8525,.4062,1.3047,.8779l.2422-.8955c-.4014-.3809-.8564-.6406-1.3633-.7783-.5352-.1445-1.001-.1318-1.3975,.04s-.6543,.4766-.7734,.915c-.0889,.3281-.0654,.6445,.0703,.9482,.1348,.3037,.3828,.6045,.7432,.9023,.2998,.2607,.5439,.4805,.7305,.6592,.2227,.2227,.3018,.4551,.2363,.6973-.0479,.1768-.1621,.2979-.3438,.3633-.1807,.0664-.3936,.0654-.6406-.001-.4922-.1338-.9551-.5078-1.3867-1.1211l-.2695,.9922c.25,.2607,.4854,.46,.7061,.5986,.2197,.1377,.4971,.2529,.8301,.3428Z"/><polygon class="cls-1" points="40.6021 11.2751 38.4175 10.0553 39.1646 8.7145 41.2114 9.8561 41.6089 9.1442 39.562 8.0016 40.2534 6.7624 42.3921 7.9548 42.7896 7.2419 39.7398 5.5407 37.1079 10.2594 40.2046 11.987 40.6021 11.2751"/><polygon class="cls-1" points="44.0513 15.3923 44.6099 14.7975 42.6968 13.0036 45.8335 9.6579 45.0718 8.943 41.3765 12.8854 44.0513 15.3923"/><polygon class="cls-1" points="46.688 19.2624 47.3706 18.8151 46.0015 16.7214 47.2857 15.8805 48.5689 17.8425 49.2515 17.3952 47.9693 15.4342 49.1568 14.6569 50.4966 16.7057 51.1802 16.2594 49.2681 13.3366 44.7466 16.2946 46.688 19.2624"/><path class="cls-1" d="M5.7116,25.8751c.0692,.012,.1368,.018,.2029,.018,.2158,0,.4152-.064,.5987-.192,.2397-.1683,.3858-.4003,.4381-.6973,.0502-.2928-.0098-.5588-.1818-.7996-.1711-.2397-.4013-.3857-.6913-.436-.068-.0118-.1345-.0176-.1995-.0176-.217,0-.4174,.0656-.6011,.1966-.2388,.1702-.384,.4003-.4341,.6904-.0513,.2968,.0078,.5648,.1769,.8035,.1693,.2388,.3994,.3839,.6913,.4341Z"/><polygon class="cls-1" points="8.9247 34.1726 5.2349 33.3749 8.3483 31.2113 8.1376 30.1294 3.2373 33.5943 3.306 33.951 9.1345 35.2467 8.9247 34.1726"/><path class="cls-1" d="M9.9128,36.8547l-5.8381,.2668,.4632,.9921,1.4127-.0832,1.0162,2.1766-.9543,1.0645,.4661,.9979,3.8859-4.4477-.4515-.967Zm-2.3718,2.7083l-.7377-1.5809,2.2895-.1509-1.5518,1.7318Z"/><path class="cls-1" d="M13.5106,43.0186c-.1005-.5443-.316-1.0219-.6458-1.4318-.348-.4313-.733-.6943-1.1544-.7881-.105-.0236-.2078-.0353-.3087-.0353-.304,0-.5886,.1071-.8537,.3206-.265,.2137-.4321,.4835-.5009,.8083-.0696,.3258-.0454,.7146,.0706,1.1671,.09,.3877,.1586,.7088,.2041,.963,.0493,.3114-.0242,.5455-.2185,.703-.0981,.0783-.2059,.1176-.3235,.1176-.0538,0-.1097-.0082-.1677-.0247-.1856-.0533-.3578-.179-.5182-.3781-.3201-.3974-.4747-.9718-.4631-1.722-.2672,.2149-.5344,.4299-.8016,.6449,.0494,.3577,.1228,.6565,.2194,.8983,.0969,.2416,.2534,.4969,.471,.7657,.3327,.414,.7145,.6614,1.1458,.7426,.0945,.0178,.1874,.0266,.2785,.0266,.3255,0,.629-.1135,.9108-.3408,.2794-.2253,.4573-.4941,.5327-.8064,.0764-.3123,.0561-.7078-.0589-1.1835-.1401-.553-.2147-.8751-.2234-.9679-.0386-.3229,.0213-.5483,.1808-.6759,.0894-.0723,.1874-.1082,.2946-.1082,.0518,0,.1058,.0085,.1619,.0252,.1731,.0513,.3414,.1798,.5067,.3847,.2717,.3375,.4515,.8297,.5386,1.4775,.241-.1941,.4819-.388,.7231-.5822Z"/><polygon class="cls-1" points="17.9623 46.3448 14.1334 43.3173 13.6276 43.9576 15.1322 45.1479 12.2876 48.7456 13.1065 49.3934 15.9512 45.7946 17.4556 46.9849 17.9623 46.3448"/><polygon class="cls-1" points="18.5791 46.6203 16.2934 51.5167 19.5075 53.0163 19.8524 52.2777 17.5851 51.2189 18.2349 49.8276 20.3582 50.8187 20.7034 50.079 18.58 49.0879 19.1805 47.8019 21.3985 48.8374 21.7438 48.0978 18.5791 46.6203"/><path class="cls-1" d="M24.6116,48.8219c-.6353-.1299-1.2705-.2598-1.9058-.3896-.361,1.7645-.722,3.5291-1.0829,5.2937,.3409,.0695,.6819,.1393,1.0229,.2089l.4574-2.2354,.3712,.0763c.1645,.0329,.3008,.1044,.411,.2118,.1093,.1083,.2118,.2737,.3085,.4979,.0966,.2233,.233,.6469,.4108,1.2706,.0823,.2823,.1499,.4892,.2042,.6215,.3803,.0778,.7606,.1555,1.1409,.2332-.1073-.2748-.2562-.7649-.4486-1.4736-.118-.411-.2272-.7078-.3268-.8916-.0995-.1838-.2244-.3383-.3751-.4631,.3326-.0667,.5994-.1954,.8006-.3878,.201-.1915,.3315-.438,.3934-.7387,.0909-.4418,.0068-.8325-.2495-1.172-.2571-.3393-.6342-.5598-1.1321-.6622Zm.3211,1.637c-.0485,.233-.1616,.4002-.3424,.5027-.1171,.0667-.2532,.1003-.4079,.1003-.0827,0-.1708-.0096-.2641-.0288-.2172-.0445-.4344-.0889-.6517-.1334,.1005-.4912,.2011-.9824,.3017-1.4736,.2124,.0432,.4247,.0864,.6372,.1296,.2803,.058,.4834,.1624,.611,.3132,.1267,.1509,.1653,.3471,.1161,.5898Z"/><path class="cls-1" d="M30.6025,51.6908l-.001-.0464c.2428-.1199,.4265-.2755,.5491-.4689,.1238-.1924,.1808-.4128,.1721-.6603-.0144-.3859-.1816-.7029-.5037-.9486-.2987-.2295-.673-.3443-1.1219-.3443-.0333,0-.067,.0007-.1012,.002-.6599,.0239-1.3196,.0477-1.9794,.0715,.0658,1.8,.1315,3.6002,.1974,5.4001,.7535-.0277,1.507-.0554,2.2606-.0832,.3684-.0135,.6864-.0842,.9543-.2128,.2678-.1285,.4738-.3131,.6178-.5549,.145-.2407,.2117-.5116,.201-.8103-.0125-.3374-.1285-.6274-.347-.8712-.2196-.2437-.5183-.4012-.8983-.4728Zm-1.9125-1.6177c.2501-.009,.5002-.0181,.7504-.0272l.049-.0008c.2167,0,.3965,.0546,.537,.1635,.1518,.1169,.2311,.2794,.2387,.4882,.0087,.2348-.0646,.4206-.2194,.5579-.1557,.1374-.3704,.2108-.6469,.2214-.2189,.0077-.4377,.0156-.6565,.0233-.0175-.4755-.0349-.9508-.0523-1.4263Zm1.8314,3.5079c-.176,.1393-.4399,.2147-.7928,.2282l-.9012,.0329c-.0184-.5089-.0367-1.0178-.0551-1.5267,.3271-.0118,.6543-.0239,.9814-.0357,.0253-.001,.05-.0015,.0745-.0015,.2673,0,.4853,.0584,.6536,.1735,.1838,.1267,.2805,.3045,.2881,.5337,.0097,.2573-.0734,.4564-.2484,.5956Z"/><path class="cls-1" d="M37.9615,48.6431c-.3877-.3307-.8295-.5366-1.3267-.6169-.1571-.0253-.316-.038-.4767-.038-.3474,0-.7028,.0593-1.0663,.1783-.554,.1807-1.0065,.4554-1.3585,.8237-.3521,.3683-.5811,.7986-.6885,1.2927-.1074,.4932-.0842,.9747,.0687,1.4456,.1594,.4882,.4263,.8934,.8005,1.2183,.3742,.3239,.817,.5298,1.3266,.6179,.1726,.0301,.3464,.0452,.5213,.0452,.3428,0,.6902-.0576,1.0422-.1729,.5395-.1759,.9872-.4475,1.343-.815,.3568-.3663,.5908-.7957,.703-1.287,.1121-.4911,.0899-.9765-.0667-1.457-.1605-.4921-.4351-.9041-.822-1.2347Zm-.2919,3.0138c-.2311,.4418-.6101,.7493-1.1371,.9215-.228,.074-.451,.1112-.6689,.1112-.1149,0-.2285-.0103-.3405-.0309-.325-.0591-.6082-.1992-.8518-.4216-.2427-.2214-.4206-.5029-.5318-.8431-.1113-.3432-.1373-.6749-.0764-.994,.062-.3201,.207-.6005,.4351-.8422,.2292-.2417,.5183-.4196,.8664-.5328,.2291-.0751,.4535-.1125,.6734-.1125,.1143,0,.2272,.0101,.3391,.0303,.3267,.0589,.6119,.1992,.8536,.4225,.2427,.2234,.4197,.5057,.5309,.8461,.1701,.5222,.1401,1.0046-.0919,1.4456Z"/><polygon class="cls-1" points="42.6868 45.0502 42.2294 44.3743 38.185 47.1058 38.6422 47.7826 40.2318 46.7084 42.799 50.5092 43.6643 49.9252 41.0972 46.1243 42.6868 45.0502"/><polygon class="cls-1" points="46.3842 40.9543 45.7711 40.4167 42.5533 44.087 43.1674 44.6247 44.432 43.1821 47.8809 46.2065 48.5694 45.4213 45.1205 42.397 46.3842 40.9543"/><polygon class="cls-1" points="50.6124 41.0549 49.2568 40.3346 50.3571 38.2654 49.6369 37.8815 48.5365 39.9517 47.2833 39.2855 48.432 37.1235 47.7117 36.7406 46.0729 39.8241 50.8435 42.3602 52.5075 39.2284 51.7871 38.8456 50.6124 41.0549"/><polygon class="cls-1" points="49.0809 31.7654 52.758 32.6003 48.3712 34.8968 48.168 35.7911 53.4376 36.9853 53.663 35.9894 49.926 35.1424 54.3775 32.8401 54.5758 31.9646 49.3071 30.7696 49.0809 31.7654"/><path class="cls-1" d="M50.568,25.1229c.0492,.2919,.1953,.523,.437,.6922,.1872,.1311,.3889,.1965,.605,.1965,.0629,0,.1273-.0055,.1927-.0166,.2949-.0502,.5269-.1953,.6952-.436,.1683-.2399,.2272-.5057,.1779-.7949-.0502-.2979-.1953-.5309-.4341-.699-.1849-.1298-.3855-.1953-.6016-.1953-.064,0-.1293,.0057-.196,.0172-.295,.0494-.5271,.1943-.6971,.4323-.1701,.2378-.2301,.5057-.1788,.8035Z"/><path class="cls-1" d="M46.9923,28.7492c0-10.0751-8.1683-18.243-18.2434-18.243S10.5065,18.6741,10.5065,28.7492s8.1674,18.2424,18.2424,18.2424,18.2434-8.1674,18.2434-18.2424Zm-25.1268,16.2919c-1.0506-.4443-2.0575-.9915-3.0026-1.6302-.9383-.6341-1.8156-1.3584-2.6165-2.1592-.8008-.8009-1.5252-1.6782-2.1594-2.6166-.6385-.9452-1.1857-1.9521-1.6301-3.0026-.452-1.0685-.7976-2.1821-1.0301-3.3187-.2398-1.1719-.3592-2.3684-.3592-3.5647s.1194-2.3928,.3592-3.5647c.2325-1.1367,.5781-2.2502,1.0301-3.3188,.4444-1.0505,.9915-2.0576,1.6301-3.0026,.6342-.9385,1.3586-1.8159,2.1594-2.6167,.8009-.8009,1.6782-1.5252,2.6165-2.1594,.9451-.6387,1.9521-1.1859,3.0026-1.6302,1.0685-.4521,2.1821-.7978,3.3188-1.0302,1.1719-.2397,2.3683-.3593,3.5646-.3593s2.3927,.1195,3.5647,.3593c1.1366,.2324,2.2503,.5782,3.3188,1.0302,1.0506,.4443,2.0576,.9915,3.0026,1.6302,.9384,.6342,1.8159,1.3585,2.6168,2.1594,.8009,.8009,1.5253,1.6782,2.1595,2.6167,.6387,.945,1.1858,1.9521,1.6303,3.0027,.452,1.0685,.7977,2.182,1.0303,3.3187,.2397,1.1719,.359,2.3684,.359,3.5647s-.1193,2.3928-.359,3.5647c-.2326,1.1366-.5782,2.2502-1.0303,3.3187-.4445,1.0505-.9916,2.0574-1.6303,3.0025-.6342,.9385-1.3586,1.8158-2.1595,2.6166-.801,.8009-1.6783,1.5252-2.6167,2.1593-.9451,.6387-1.9521,1.1859-3.0027,1.6302-1.0685,.452-2.1823,.7976-3.3188,1.0301-1.172,.2398-2.3684,.3593-3.5648,.3593s-2.3928-.1194-3.5646-.3593c-1.1367-.2325-2.2502-.5781-3.3188-1.0301Z"/><path class="cls-1" d="M57.0489,27.1762c-.0278-.5067-.0704-1.0095-.1247-1.5089-.0205-.1887-.0476-.3753-.0718-.5629-.0459-.3563-.0968-.7109-.1559-1.0629-.0341-.2028-.0703-.4049-.1086-.6063-.0666-.3496-.1411-.6963-.2204-1.0413-.0416-.1808-.0804-.3629-.1255-.5424-.1188-.4737-.2485-.9431-.3909-1.4071-.0157-.0512-.03-.103-.046-.1541-.2169-.6913-.4653-1.3682-.7325-2.0355l-.0144-.0364c-.5056-1.2587-1.0985-2.472-1.7722-3.6344l-.027-.0469c-.1697-.2914-.3437-.5798-.5232-.8644l-.0309-.0481c-.3194-.5042-.6535-.998-1.0032-1.48l-.0372-.0522c-.1227-.1685-.2465-.3362-.3727-.5018-.0151-.0197-.0309-.0388-.046-.0585-.2967-.3868-.6038-.7651-.9196-1.1359-.0478-.0561-.0965-.1113-.1447-.167-.2899-.3352-.5876-.6635-.8927-.9846-.0572-.0602-.1142-.1205-.1719-.1802-.3162-.3271-.6401-.6465-.9715-.9582-.0422-.0397-.0833-.0804-.1257-.1199-1.1373-1.0568-2.3615-2.0209-3.66-2.8817-.0809-.0536-.1638-.1046-.2454-.1574-.3409-.221-.6865-.4354-1.0372-.6419-.1174-.0691-.2357-.1365-.3542-.2039-.324-.1846-.6524-.3624-.9842-.5345-.1312-.0679-.2621-.1363-.3944-.2023-.3405-.1698-.6859-.331-1.0339-.4873-.1198-.0537-.238-.1103-.3586-.1624-.4379-.1893-.8812-.3683-1.3301-.5358-.0302-.0112-.0594-.0243-.0897-.0355-.4822-.1781-.9714-.3418-1.4655-.4939-.1302-.04-.2631-.0739-.394-.1121-.3573-.1043-.7164-.2044-1.0793-.2949-.1837-.0457-.3696-.0862-.5547-.1284-.3168-.0721-.6351-.1403-.9558-.2017-.2031-.0388-.407-.0751-.6116-.1095-.3121-.0526-.6262-.0989-.9415-.1412-.2073-.0278-.4144-.0563-.6232-.0795-.3329-.0372-.6686-.0648-1.005-.0901-.1907-.0144-.3802-.033-.5719-.0436-.4694-.0259-.9421-.0395-1.4173-.0422-.0545-.0003-.1082-.0042-.1628-.0042-.0286,0-.0568,.0021-.0854,.0021-.5554,.0017-1.1061,.0226-1.6533,.0563-.1602,.0098-.3191,.0241-.4785,.0365-.4584,.0361-.9141,.0815-1.366,.1395-.1182,.015-.2369,.0287-.3547,.0452-1.1924,.1682-2.3625,.4074-3.5035,.7183l-.0427,.0121c-.752,.2059-1.4939,.4366-2.2197,.7017-.0352,.0129-.0698,.0266-.1049,.0396-.5039,.1865-.9993,.3903-1.4893,.6042-.1616,.0706-.3214,.1445-.4814,.218-.3807,.1747-.7567,.3577-1.1281,.5486-.1409,.0724-.2833,.1422-.4227,.2169-.4857,.2599-.9641,.5319-1.4324,.8188-.1027,.0629-.202,.1308-.3038,.1949-.3764,.2372-.7469,.4827-1.1111,.7368-.1453,.1014-.2897,.204-.433,.3081-.3595,.2609-.7123,.5302-1.0588,.8073-.0931,.0745-.189,.1454-.2811,.2211-.4236,.3475-.8358,.7085-1.2385,1.0796-.1137,.1048-.2237,.2135-.3357,.3201-.3023,.2877-.5984,.5818-.8879,.8826-.1183,.123-.2372,.2455-.3534,.3706-.3639,.3919-.72,.7912-1.0615,1.2032l-.0735,.0891c-.3394,.4128-.664,.838-.9801,1.2698-.1017,.139-.2004,.2803-.2997,.4211-.2402,.3409-.4728,.6874-.6981,1.0391-.0845,.1319-.1714,.2621-.2537,.3955-.2889,.4678-.5662,.9435-.8282,1.4287-.057,.1056-.1088,.2143-.1645,.3207-.2072,.3959-.4055,.7971-.5943,1.2036-.0754,.1622-.1492,.3253-.2215,.4892-.181,.41-.3522,.8252-.5141,1.2451-.0442,.1146-.0925,.2271-.1352,.3424-.1932,.5215-.3695,1.051-.5323,1.5862-.0469,.1542-.0883,.3108-.1327,.4661-.1166,.4086-.2245,.8209-.3229,1.2367-.0413,.1744-.0833,.3486-.1213,.5242-.1158,.5344-.2203,1.0729-.3054,1.6179-.2233,1.4308-.3411,2.8962-.3411,4.3887,0,15.6302,12.7155,28.3467,28.3462,28.3467l.0202-.0005c.6667-.0005,1.3261-.032,1.9814-.078,.1574-.011,.3148-.0223,.4715-.036,.6484-.0563,1.2921-.1293,1.9274-.2288,.0803-.0126,.1592-.0296,.2393-.0428,.5797-.0959,1.1527-.2116,1.7201-.3423,.1382-.0318,.277-.062,.4144-.0959,.6164-.1519,1.2257-.3218,1.8256-.5134,.1064-.0339,.2108-.0722,.3166-.1074,.5384-.179,1.0696-.3736,1.5932-.5836,.1047-.0419,.2108-.0812,.3148-.1243,.5829-.2419,1.1555-.5035,1.7181-.7825,.109-.054,.2162-.111,.3244-.1664,.5256-.2692,1.0433-.5518,1.5494-.8522,.0526-.0312,.1066-.06,.1589-.0915,.5473-.3297,1.0804-.6804,1.6029-1.0452,.0967-.0675,.1923-.1364,.2882-.2051,1.051-.7533,2.0488-1.5756,2.986-2.462,.076-.0719,.152-.144,.2272-.2167,.9413-.9101,1.8198-1.8843,2.6287-2.9162,.0519-.0663,.1047-.1318,.1561-.1985,.4026-.5231,.7894-1.0591,1.1555-1.6102,.0202-.0304,.0391-.0617,.0591-.0922,.355-.5387,.6911-1.0908,1.0095-1.6542,.0274-.0485,.0562-.096,.0833-.1447,.3248-.5827,.6292-1.1783,.9131-1.7852,.0269-.0576,.0521-.116,.0787-.1738,.2765-.6014,.5351-1.2126,.7698-1.8356,.0067-.0179,.0144-.0354,.0211-.0533,.0562-.1506,.1099-.3023,.1635-.4541l.0193-.057c.2574-.7301,.4869-1.4733,.6852-2.2289,.1866-.7111,.3401-1.4352,.4717-2.1667,.017-.095,.035-.1898,.0511-.2852,.1184-.6998,.2104-1.4084,.2762-2.1246,.0112-.1235,.0187-.2482,.0284-.3722,.0566-.7197,.093-1.4449,.0941-2.1788l.001-.0409c0-.5279-.0172-1.0517-.0458-1.5726Zm-.5672,3.2193c-.0089,.151-.0231,.3004-.0344,.4507-.0297,.3958-.0665,.7894-.1127,1.1804-.0202,.1708-.0418,.341-.0651,.5109-.0534,.3898-.1159,.7765-.1854,1.1609-.0261,.1441-.0491,.289-.0774,.4323-.2062,1.0465-.4712,2.0717-.7917,3.0728-.0439,.1372-.0925,.2722-.1385,.4084-.1229,.3641-.252,.7251-.3895,1.0823-.0593,.1541-.1198,.3075-.1818,.4603-.1437,.3542-.2952,.7042-.4529,1.051-.0589,.1295-.1152,.2603-.176,.3887-.4446,.9395-.9402,1.8499-1.4836,2.7283-.0736,.119-.151,.2349-.2263,.3527-.2043,.3195-.414,.6349-.6309,.9453-.0929,.1329-.1868,.2649-.2819,.3962-.2219,.3062-.4506,.6069-.6846,.9035-.0864,.1096-.1706,.2207-.2586,.329-.649,.7982-1.3413,1.5594-2.0734,2.2809-.0999,.0984-.2029,.1932-.3043,.2902-.2723,.2604-.5491,.5159-.8318,.7653-.1214,.1071-.2435,.213-.3668,.3179-.2878,.2451-.5812,.4834-.879,.7168-.0767,.0601-.1491,.1254-.2265,.1848-.033,.0253-.0682,.0479-.1013,.073-.8881,.675-1.8193,1.295-2.7862,1.8611-.1172,.0686-.2346,.1362-.3528,.2031-1.0499,.5942-2.1414,1.1216-3.2702,1.5775-.1288,.0521-.2579,.103-.3876,.1531-1.1351,.4386-2.3055,.8041-3.5065,1.092-.1391,.0333-.2783,.0655-.4181,.0967-1.2061,.2693-2.441,.4595-3.7001,.5658-.1479,.0125-.2959,.0237-.4445,.0339-.6326,.0433-1.2687,.0732-1.912,.0732-.5939,0-1.1818-.0251-1.7666-.0621-.1588-.01-.3163-.0235-.4743-.0362-.4582-.0368-.9131-.0846-1.3648-.1434-.136-.0177-.2728-.0323-.4082-.0521-.5687-.0826-1.1322-.1806-1.6892-.2973-.0947-.0198-.1874-.0444-.2818-.0652-.468-.1031-.9313-.2185-1.3902-.345-.1523-.042-.3039-.0851-.4551-.1296-.463-.1362-.9211-.2833-1.3737-.4427-.0809-.0284-.1631-.0533-.2437-.0826-.5283-.1916-1.0479-.4006-1.5609-.6229-.1209-.0524-.2394-.1088-.3594-.1628-.4047-.1823-.804-.3737-1.1982-.5744-.1295-.066-.2594-.1309-.3878-.1989-.9869-.5225-1.938-1.1024-2.8503-1.7357-.1163-.0807-.2307-.1636-.3456-.246-.3667-.2629-.7265-.5343-1.0797-.8143-.0905-.0718-.1828-.1412-.2724-.2141-.4329-.3521-.8558-.7157-1.2665-1.0927-.0591-.0543-.1156-.1113-.1743-.1661-.3511-.3278-.6929-.6652-1.0267-1.0106-.0958-.0991-.1909-.1985-.2852-.299-.3453-.3681-.6822-.744-1.0074-1.1304-.0333-.0395-.0683-.0773-.1013-.1169-.3605-.4333-.706-.8792-1.0401-1.334-.0671-.0915-.1313-.1851-.1974-.2774-.269-.3757-.5286-.7582-.7791-1.1475-.0677-.1053-.1364-.2098-.2028-.316-.5735-.9185-1.0955-1.8718-1.5605-2.8577-.0546-.1158-.1055-.2336-.1586-.3503-.1641-.3607-.3212-.725-.47-1.0937-.0564-.1397-.1119-.2797-.1661-.4205-.1445-.3754-.28-.7548-.4084-1.1378-.0399-.1188-.0823-.2364-.1207-.356-.3218-1.005-.5873-2.0344-.7939-3.0852-.0275-.14-.0502-.2816-.0756-.4222-.0699-.3871-.1326-.7766-.1862-1.1691-.0228-.1669-.0441-.334-.0639-.5018-.0463-.392-.083-.7867-.1127-1.1835-.0112-.1496-.0253-.2982-.0342-.4485-.0319-.5443-.0527-1.0914-.0527-1.6435,0-.6548,.0298-1.3025,.0747-1.9461,.0127-.1828,.0319-.3635,.0481-.5454,.0421-.4696,.095-.9358,.1603-1.3984,.0274-.1946,.0544-.389,.0858-.5823,.0829-.5092,.1802-1.0133,.2905-1.5128,.0256-.1161,.0454-.2341,.0725-.3497,.1406-.5997,.3024-1.1909,.4813-1.775,.0145-.0472,.0242-.0964,.0389-.1436,.0383-.123,.0886-.2405,.1287-.3629,.1439-.4393,.2972-.874,.4622-1.3033,.047-.1225,.0861-.2487,.1348-.3702,.0396-.099,.0864-.1941,.1271-.2925,.1758-.4244,.3637-.8423,.5597-1.2559,.0637-.1343,.1207-.2722,.1865-.4053,.0609-.1236,.1283-.243,.191-.3655,.2144-.4184,.4366-.8319,.6713-1.2378,.0502-.0869,.0986-.1748,.1498-.2611,.0993-.1677,.2061-.33,.3088-.4954,.1804-.2903,.3664-.5762,.5571-.8593,.0932-.1382,.1819-.2794,.2775-.4158,.0808-.1156,.1611-.2311,.2437-.3453,.2512-.3475,.5142-.6856,.7807-1.0209,.0598-.0751,.1149-.1537,.1754-.2281,.0314-.0387,.0646-.0757,.0963-.1143,.1739-.2121,.356-.4163,.5361-.623,.1891-.217,.3783-.4336,.5739-.6446,.0837-.0903,.1672-.1802,.252-.2693,.1647-.1732,.3307-.3444,.4998-.5133,.2001-.1998,.4071-.3923,.6132-.5861,.1304-.1226,.2592-.2466,.392-.3667,.2692-.2436,.5452-.4783,.8237-.7113,.2025-.1694,.4005-.344,.6078-.5077,.0571-.0451,.1194-.0838,.1769-.1285,.4219-.3278,.8564-.6383,1.297-.9418,.1741-.12,.3449-.2435,.5218-.3596,.4451-.2919,.9025-.5646,1.3647-.8311,.1884-.1088,.3731-.2227,.5643-.3271,.459-.2505,.9299-.48,1.4041-.7049,.2086-.0991,.413-.2049,.6244-.2989,.4644-.2062,.9401-.3894,1.4174-.5704,.2336-.0887,.4625-.186,.699-.2686,.4651-.162,.941-.2991,1.417-.4366,.2589-.075,.5128-.1606,.7747-.2283,.4664-.1201,.9429-.2128,1.4185-.3089,.2805-.0568,.556-.1266,.8394-.1749,.4824-.082,.9742-.1334,1.4647-.1899,.2838-.0328,.5627-.0812,.849-.1054,.6186-.0521,1.2463-.07,1.8757-.0807,.1597-.0027,.3157-.0205,.476-.0205,.5745,0,1.1435,.0232,1.7095,.0577,.1509,.0092,.3005,.0228,.4508,.0344,.4259,.033,.849,.0751,1.2693,.1272,.1558,.0193,.3116,.0376,.4666,.0594,.5027,.0709,1.0016,.1533,1.4953,.2507,.0464,.0092,.0936,.0157,.14,.0251,.0203,.0041,.0411,.0068,.0613,.011,.5325,.1093,1.058,.2372,1.5789,.3766,.1349,.0361,.2671,.0782,.4011,.1162,.0384,.0109,.0767,.0223,.115,.0333,.1345,.0388,.2693,.0759,.4029,.1167,.2249,.0686,.4484,.1402,.6709,.2144,.1713,.0571,.3409,.1172,.5107,.1776,.257,.0912,.5132,.1833,.7667,.2819,.1143,.0445,.2268,.0919,.3405,.1378,.1513,.0612,.3027,.1217,.4526,.1854,.4003,.1702,.7949,.3508,1.1854,.5389,.0922,.0444,.187,.0839,.2785,.1293l.0723,.0354c.4726,.236,.937,.486,1.3939,.7476,.0992,.0568,.195,.1187,.2935,.1767,.0438,.0258,.087,.0526,.1306,.0787,.1249,.0745,.2497,.1484,.3734,.2248,.1962,.1213,.3914,.2438,.5843,.3698,.1484,.0969,.294,.1972,.4404,.2968,.2211,.1505,.4423,.3004,.6588,.457,.0915,.0662,.1804,.1353,.271,.2026,.1393,.1034,.2781,.2069,.4155,.3127,.3142,.2422,.6216,.4924,.925,.7476,.0935,.0786,.191,.1523,.2835,.2322,.0284,.0246,.0562,.0499,.0846,.0745,.3943,.3434,.7795,.6968,1.1539,1.0615,.0543,.0529,.1052,.1091,.1591,.1624,.0562,.0555,.1101,.1132,.1658,.1693,.1068,.1075,.2128,.2153,.3179,.3246,.1595,.1659,.3187,.3318,.4741,.5016,.1179,.1289,.2317,.2613,.3472,.3924,.1767,.2005,.3545,.3998,.5255,.6053,.0672,.0809,.1306,.1645,.1969,.2461,.1166,.1435,.2319,.2878,.3458,.4336,.2305,.2953,.4535,.5962,.6721,.9009,.0776,.1082,.1606,.2121,.2368,.3215,.0278,.04,.0537,.0814,.0814,.1215,.297,.4315,.5849,.8696,.8577,1.3181,.08,.1315,.154,.2669,.2306,.4006,.078,.1331,.1533,.2674,.2291,.4019,.0848,.1472,.1712,.2932,.252,.4427,.1989,.3685,.3815,.7466,.564,1.1248,.0588,.1219,.1246,.2396,.1818,.3625,.2827,.6083,.5369,1.232,.7758,1.8631,.0808,.2136,.1552,.4297,.2308,.6458,.1718,.4902,.3293,.9864,.4739,1.4885,.0555,.1927,.1158,.3829,.1671,.5773,.1769,.6688,.3301,1.3468,.4572,2.0342,.0319,.1726,.0542,.3482,.0828,.5219,.0917,.555,.1667,1.1151,.2248,1.6805,.0222,.2159,.0444,.4311,.0615,.6484,.0562,.7095,.0938,1.4241,.0953,2.1475,0,.0192,.0025,.0378,.0025,.0571,0,.5532-.0209,1.1014-.0529,1.6467Z"/></svg>