<?xml version="1.0" encoding="UTF-8"?><svg id="a" xmlns="http://www.w3.org/2000/svg" width="20.2847mm" height="20.2847mm" viewBox="0 0 57.5 57.5"><defs><style>.b{opacity:.88;}</style></defs><path class="b" d="M7.0662,24.6998l.0039-.0137-3.6338-2.2158,.1611-.6162,4.2383-.1016,.0039-.0137-3.9434-1.0303,.2061-.7861,4.7285,1.2363-.3379,1.2939-3.7852,.0527-.0029,.0137,3.2695,1.918-.3281,1.2539-4.7285-1.2354,.2051-.7861,3.9434,1.0303Z"/><path class="b" d="M7.6444,26.7233l-.0664,.8926-4.8672-.3613,.0664-.8926,4.8672,.3613Z"/><path class="b" d="M7.491,28.5563l.0918,1.2715c.1094,1.5234-.6562,2.3936-2.2705,2.5098-1.6426,.1182-2.5098-.8027-2.6074-2.1582l-.0918-1.2715,4.8779-.3516Zm-4.1289,1.1963l.0225,.3008c.0723,1.0059,.79,1.4111,1.8594,1.334,1.0684-.0771,1.7207-.5811,1.6484-1.5869l-.0215-.3008-3.5088,.2529Z"/><path class="b" d="M7.9041,32.9586l.2939,1.0225-3.2383,2.623,.0039,.0137,3.6875-1.0615,.2256,.7803-4.6973,1.3525-.2969-1.0293,3.2139-2.6084-.0039-.0137-3.6611,1.0537-.2246-.7803,4.6973-1.3525Z"/><path class="b" d="M9.3153,37.2106l.375,.8145-4.4414,2.0449-.375-.8145,4.4414-2.0449Z"/><path class="b" d="M9.3465,41.7291l.8691,1.3203-2.1338,1.4043c-.249-.1377-.5869-.4346-.9365-.9668-.8613-1.3086-.4307-2.5889,.7793-3.3848,1.209-.7959,2.5557-.6846,3.417,.624,.3076,.4678,.4443,.9053,.4775,1.1094l-.6982,.4014c-.0117-.3359-.1221-.7324-.3682-1.1064-.5225-.7949-1.458-.791-2.3057-.2334-.917,.6035-1.2285,1.4033-.7246,2.1689,.1152,.1748,.2539,.3096,.3604,.3818l1.0986-.7227-.4082-.6191,.5732-.377Z"/><path class="b" d="M12.6561,42.6373l.6348,.6309-1.3994,1.4082,1.0264,1.0205,1.4004-1.4082,.6348,.6309-3.4404,3.4609-.6348-.6309,1.5176-1.5273-1.0264-1.0205-1.5176,1.5273-.6348-.6309,3.4395-3.4609Z"/><path class="b" d="M15.9149,46.5084l-.8975-.6211,.4062-.5869,2.5254,1.748-.4062,.5869-.8916-.6172-2.373,3.4287-.7363-.5098,2.373-3.4287Z"/><path class="b" d="M18.2235,51.6119c.1211,.1689,.4092,.4873,.8506,.6631,.3643,.1455,.7695,.0742,.9512-.3809,.1299-.3252-.002-.5439-.3164-.9258l-.3291-.4023c-.3506-.4258-.5-.9004-.2666-1.4854,.3242-.8125,1.1621-.9678,1.9229-.6641,.4814,.1914,.7695,.4502,.8848,.541l-.3174,.6797c-.1699-.1582-.3896-.3818-.7734-.5342-.416-.166-.7188-.0312-.8428,.2812-.1348,.3379,.04,.5586,.2373,.8027l.3779,.4678c.4141,.5117,.5537,.8984,.2988,1.5361-.3682,.9229-1.2012,1.1025-2.0654,.7578-.4551-.1816-.7803-.3867-.9531-.6143l.3408-.7227Z"/><path class="b" d="M23.7274,49.36l-.6338,3.0967c-.1631,.7949,.0234,1.1045,.5371,1.209,.5,.1025,.7998-.1064,.9629-.9014l.6348-3.0967,.877,.1797-.6348,3.0967c-.2578,1.2607-1.0859,1.6045-1.9834,1.4209-.9043-.1855-1.5293-.8271-1.2705-2.0879l.6338-3.0967,.877,.1797Z"/><path class="b" d="M27.1258,49.9645l1.0645-.0166,1.6836,3.8135h.0137l-.0576-3.8379,.8115-.0127,.0752,4.8887-1.0713,.0166-1.6768-3.7852h-.0137l.0576,3.8096-.8115,.0127-.0752-4.8887Z"/><path class="b" d="M32.9451,49.5807l1.4707-.4023c.8359-.2295,1.5059-.0068,1.7422,.8564,.168,.6143-.1035,1.1309-.6074,1.3555l.0049,.0205c.1826-.0215,.4004,.0059,.6689,.4043l1.1055,1.626-.918,.251-.8838-1.4033c-.2168-.3398-.4727-.4004-.7891-.3135l-.1963,.0537,.5547,2.0225-.8633,.2363-1.2891-4.707Zm1.7754,1.7178c.458-.125,.7041-.4463,.5732-.9258-.1475-.5391-.4678-.5967-.9541-.4639l-.3506,.0967,.3809,1.3887,.3506-.0957Z"/><path class="b" d="M40.6961,50.6129l-1.502,.7588,.2178,1.209-.8008,.4043-.7402-5.1064,.876-.4424,3.6123,3.6562-.8262,.417-.8369-.8965Zm-.4785-.5273l-1.5801-1.7617-.0127,.0068,.4287,2.3418,1.1641-.5869Z"/><path class="b" d="M40.6082,46.3991l.8311-.665,3.667,1.9775,.0107-.0088-2.4004-2.9941,.6338-.5078,3.0566,3.8125-.835,.6709-3.6445-1.9609-.0107,.0088,2.3818,2.9717-.6338,.5088-3.0566-3.8135Z"/><path class="b" d="M44.0682,43.4967l.8057-.9863c.9648-1.1807,2.1172-1.2861,3.3682-.2646,1.2734,1.04,1.2715,2.3027,.4131,3.3535l-.8057,.9863-3.7812-3.0889Zm3.8174,1.9619l.1895-.2334c.6377-.7803,.3945-1.5654-.4346-2.2422-.8291-.6777-1.6475-.7588-2.2842,.0215l-.1904,.2324,2.7197,2.2217Z"/><path class="b" d="M47.5242,38.4235c.4639-.9023,1.5625-1.3848,3.125-.5801,1.5635,.8047,1.8096,1.9785,1.3447,2.8809-.4648,.9033-1.5635,1.3848-3.126,.5811-1.5625-.8047-1.8086-1.9785-1.3438-2.8818Zm3.8594,1.9873c.2598-.5049,.0381-1.1299-1.1572-1.7451s-1.833-.4316-2.0928,.0723c-.2588,.5039-.0381,1.1299,1.1572,1.7451s1.833,.4316,2.0928-.0723Z"/><path class="b" d="M48.7586,35.9616l.2764-1.0273,4.125-.5732,.0039-.0137-3.7041-.9951,.2109-.7842,4.7178,1.2676-.2773,1.0342-4.0967,.5732-.0039,.0137,3.6768,.9883-.21,.7842-4.7188-1.2676Z"/><path class="b" d="M49.8289,31.5592l.0537-1.0625,3.9111-1.4287,.001-.0146-3.8301-.1924,.041-.8105,4.8779,.2451-.0537,1.0693-3.8828,1.4238-.001,.0137,3.8018,.1904-.041,.8115-4.8779-.2451Z"/><path class="b" d="M48.4959,25.8649l-.1133-.8037,1.0967,.5664,.0762,.54-1.0596-.3027Zm1.4131,1.1504l-.3584-2.542,.7061-.0996,.2334,1.6553,1.2891-.1816-.2207-1.5654,.7061-.0996,.2207,1.5654,1.4268-.2012-.2432-1.7246,.707-.0996,.3682,2.6113-4.835,.6816Z"/><path class="b" d="M49.3563,23.653l-.7617-2.4531,.6816-.2119,.4961,1.5977,1.2432-.3857-.4688-1.5107,.6816-.2119,.4688,1.5107,1.377-.4277-.5166-1.6641,.6816-.2119,.7822,2.5205-4.665,1.4482Z"/><path d="M9.6943,12.0903l-.7334,.8096-.5293-.4795,2.0635-2.2773,.5283,.4795-.7275,.8037,3.0918,2.8018-.6016,.6641-3.0918-2.8018Z"/><path d="M12.6337,8.2983l2.2236,2.6533c.6836,.8164,.5283,1.5137,.0283,1.9326-.1611,.1348-.4023,.2725-.5703,.3223l-.4951-.5908c.1074-.0352,.2305-.0742,.375-.1953,.333-.2793,.2178-.6025-.0303-.8984l-2.2188-2.6475,.6875-.5762Z"/><path d="M18.2744,9.0336l-1.4531,.8428,.2861,1.1924-.7754,.4492-1.0322-5.0488,.8486-.4912,3.8125,3.4385-.7998,.4629-.8867-.8457Zm-.5068-.499l-1.6777-1.666-.0117,.0068,.5625,2.3125,1.127-.6533Z"/><path d="M19.3994,4.4135l.8535-.2734,.6328,1.9736,.0195-.0059,.6953-2.3994,.9795-.3135-.877,2.7002,2.4951,1.9131-1.0332,.3311-2.1016-1.7383-.0195,.0068,.7002,2.1865-.8535,.2734-1.4912-4.6543Z"/><path d="M25.4863,3.6469l-1.085,.1221-.0801-.71,3.0547-.3418,.0801,.71-1.0791,.1201,.4639,4.1475-.8906,.0996-.4639-4.1475Z"/><path d="M30.2275,2.7543l-.0908,3.46c-.0273,1.0645-.6064,1.4834-1.2578,1.4668-.21-.0059-.4814-.0615-.6406-.1357l.0195-.7705c.1045,.0439,.2217,.0967,.4111,.1016,.4346,.0117,.5615-.3076,.5723-.6934l.0898-3.4521,.8965,.0234Z"/><path d="M33.955,7.0356l-1.6475-.3301-.5742,1.085-.8789-.1758,2.5654-4.4707,.9609,.1924,.5869,5.1016-.9062-.1816-.1064-1.2207Zm-.0508-.71l-.1562-2.3594-.0137-.0029-1.1064,2.1064,1.2764,.2559Z"/><path d="M38.4697,4.5981l-1.2686,2.8965c-.3262,.7432-.209,1.085,.2725,1.2959,.4678,.2051,.8047,.0625,1.1309-.6807l1.2686-2.8965,.8203,.3594-1.2686,2.8965c-.5166,1.1787-1.3984,1.3428-2.2383,.9746-.8457-.3701-1.3232-1.1289-.8057-2.3086l1.2686-2.8965,.8203,.3594Z"/><path d="M42.788,6.7856l1.2373,.8945c.7041,.5088,.9512,1.1719,.4258,1.8984-.374,.5166-.9473,.6289-1.4395,.377l-.0127,.0166c.1309,.1299,.2471,.3164,.1045,.7754l-.5752,1.8838-.7715-.5586,.54-1.5713c.1289-.3818,.0156-.6201-.251-.8125l-.165-.1191-1.2314,1.7031-.7266-.5254,2.8652-3.9619Zm-.2256,2.4639c.3857,.2793,.79,.2695,1.082-.1338,.3281-.4541,.1719-.7402-.2373-1.0352l-.2949-.2139-.8457,1.1699,.2959,.2129Z"/><path d="M46.8476,10.0092l1.7637,1.8701-.5195,.4902-1.1484-1.2178-.9482,.8936,1.0859,1.1523-.5195,.4902-1.0859-1.1523-1.0498,.9902,1.1963,1.2695-.5195,.4902-1.8125-1.9219,3.5576-3.3545Z"/><path d="M6.1326,17.441c.2598-.5215,.8887-.7305,1.4092-.4697,.5215,.2607,.7305,.8887,.4697,1.4092-.2598,.5215-.8887,.7305-1.4092,.4707-.5215-.2607-.7305-.8887-.4697-1.4102Z"/><path d="M51.1727,17.068c.2695,.5166,.0713,1.1484-.4453,1.418s-1.1484,.0703-1.418-.4463c-.2695-.5156-.0713-1.1484,.4453-1.417,.5166-.2695,1.1494-.0713,1.418,.4453Z"/><path d="M41.3214,21.1296c-.1519-.363-.2863-.38-.5415-.0797-.173,.203-.3191,.48-.5414,.5781-.5415,.2384-1.1198,.3912-1.6824,.5788l-.058-.1074c.2997-.6217,.5985-1.2401,1.1776-1.6776,.1722-.1301,.3268-.2978,.4516-.4752,.1857-.2664,.0898-.5778-.2156-.6851-.1769-.0624-.3839-.0807-.5714-.0629-2.6223,.2452-5.2416,.5236-7.8648,.7441-1.4512,.1218-2.9171,.0842-4.3635,.2383-1.5064,.161-3.0129,.3954-4.4187,1.0336-.1084,.0488-.3007-.0068-.4188-.075-.7077-.4099-1.3846-.8813-2.1165-1.2401-.3423-.1672-.7842-.146-1.1826-.1693-.0967-.0057-.3036,.1765-.2901,.2264,.1866,.6932-.3316,1.1834-.5366,1.7438-.1519,.4152-.3201,.8044-.3259,1.2477-.0019,.1833,.0502,.3699,.0281,.5487-.0174,.1422-.1112,.2747-.1838,.4419,.2292,.0924,.4158,.1678,.6363,.2568-.3452,.3867-.6769,.7575-1.0085,1.1284-1.8371,2.0503-2.4144,4.4761-2.015,7.138,.2775,1.8464,1.3411,3.2396,2.8765,4.2616,.3644,.2427,.522,.5009,.5521,.9321,.0348,.5076,.1276,1.024,.2852,1.5065,.0861,.2639,.3268,.5095,.5579,.6816,.1827,.1354,.5096,.3277,.585-.1595l.1053-.0938c.4661-.206,.8644-.5927,1.4417-.5018,.176,.028,.3654-.0397,.5482-.0358,.1373,.0038,.2969,.0154,.408,.0851,.8799,.5569,1.7665,1.1071,2.6203,1.7017,.905,.6305,1.7733,1.3121,2.6648,1.9628,.1943,.1421,.4167,.2455,.6265,.3665-.0977-.6419,.5028-1.1835,.1179-1.7046,.0657-.0661,.1315-.1323,.1973-.1982,.2021-.6574,.174-1.3052-.0667-1.9474l.0619-.1769c-.032-.5937,.293-.9427,.7745-1.2164,.2156-.1219,.4496-.2814,.5705-.4854,.3848-.6459,.7203-1.3208,1.0906-2.0122-.377-.2968-.8266-.3625-1.2723-.3161-.7784,.0802-1.5587,.1789-2.3235,.3394-1.5828,.3336-3.1627,.5473-4.7068,.2292-.0493-.2175-.0657-.4119-.1392-.5822-.0793-.1875-.2108-.3528-.3404-.5618-.5549-.1082-1.1912-.1479-1.6515-.6584,.1558-.264,.3027-.5153,.4496-.7639,.3752,.1074,.7232,.2069,1.0927,.3132-.0784,.3675,.1653,.5279,.437,.704,.4457,.2872,.4921,.2987,.7968-.1451,.6459-.9398,.965-1.998,1.1186-3.1178,.0184-.1359,.0977-.3375,.1992-.3755,.9041-.3409,1.8148-.6639,2.7344-.9592,.1577-.0513,.3751,.0256,.5482,.0894,.3076,.1136,.5947,.2839,.9031,.3912,.4893,.1696,.9872,.3162,1.4861,.453,.1769,.0483,.3694,.0406,.5541,.0585,.0416,.1165,.0521,.351,.1731,.4482,.4825,.3887,.962,.2103,1.1196-.3882,.0299-.1161,.0397-.2411,.0377-.3616-.0126-.7808-.1256-1.538-.5637-2.2302,.1055-.0468,.1924-.0894,.2814-.1246,.499-.1964,.9147-.3228,1.0736-.4875-.6941,.0706-1.6564-.1276-2.2774-.8552-1.2382-1.4509-1.3862-2.4404-.0764-3.5583,.1638-.1398,.6872-.3353,.8524-.2938,.0768-.0312-1.242,.9765-1.294,1.5482-.1247,1.3717,.6501,1.819,1.1015,2.3382,.5677,.653,2.5137,.5396,2.9201,.4157,1.3135-.5673,2.2256-1.1021,3.4204-1.9243,1.1516-.7924,2.1755-1.7081,3.1425-2.702,.3393-.3495,.4167-.7643,.2272-1.2207Z"/><path d="M28.749,57.3784C12.9619,57.3784,.1191,44.5356,.1191,28.7495S12.9619,.1196,28.749,.1196s28.6299,12.8428,28.6299,28.6299-12.8428,28.6289-28.6299,28.6289ZM28.749,.686C13.2753,.686,.6855,13.2758,.6855,28.7495s12.5898,28.0625,28.0635,28.0625,28.0635-12.5889,28.0635-28.0625S44.2226,.686,28.749,.686Z"/><path d="M28.749,48.1665c-10.707,0-19.417-8.71-19.417-19.417S18.0419,9.3315,28.749,9.3315s19.417,8.7109,19.417,19.418-8.71,19.417-19.417,19.417Zm0-38.2686c-10.3945,0-18.8506,8.457-18.8506,18.8516s8.4561,18.8506,18.8506,18.8506,18.8506-8.4561,18.8506-18.8506S39.1435,9.8979,28.749,9.8979Z"/></svg>