<?xml version="1.0" encoding="UTF-8"?><svg id="a" xmlns="http://www.w3.org/2000/svg" width="20.2847mm" height="20.2847mm" viewBox="0 0 57.5 57.5"><defs><style>.b{opacity:.88;}</style></defs><path class="b" d="M7.0659,24.6995l.0039-.0137-3.6338-2.2158,.1611-.6162,4.2383-.1016,.0039-.0137-3.9434-1.0303,.2061-.7861,4.7285,1.2363-.3379,1.2939-3.7852,.0527-.0029,.0137,3.2695,1.918-.3281,1.2539-4.7285-1.2354,.2051-.7861,3.9434,1.0303Z"/><path class="b" d="M7.644,26.723l-.0664,.8926-4.8672-.3613,.0664-.8926,4.8672,.3613Z"/><path class="b" d="M7.4907,28.556l.0918,1.2715c.1094,1.5234-.6562,2.3936-2.2705,2.5098-1.6426,.1182-2.5098-.8027-2.6074-2.1582l-.0918-1.2715,4.8779-.3516Zm-4.1289,1.1963l.0225,.3008c.0723,1.0059,.79,1.4111,1.8594,1.334,1.0684-.0771,1.7207-.5811,1.6484-1.5869l-.0215-.3008-3.5088,.2529Z"/><path class="b" d="M7.9037,32.9583l.2939,1.0225-3.2383,2.623,.0039,.0137,3.6875-1.0615,.2256,.7803-4.6973,1.3525-.2969-1.0293,3.2139-2.6084-.0039-.0137-3.6611,1.0537-.2246-.7803,4.6973-1.3525Z"/><path class="b" d="M9.3149,37.2103l.375,.8145-4.4414,2.0449-.375-.8145,4.4414-2.0449Z"/><path class="b" d="M9.3461,41.7288l.8691,1.3203-2.1338,1.4043c-.249-.1377-.5869-.4346-.9365-.9668-.8613-1.3086-.4307-2.5889,.7793-3.3848,1.209-.7959,2.5557-.6846,3.417,.624,.3076,.4678,.4443,.9053,.4775,1.1094l-.6982,.4014c-.0117-.3359-.1221-.7324-.3682-1.1064-.5225-.7949-1.458-.791-2.3057-.2334-.917,.6035-1.2285,1.4033-.7246,2.1689,.1152,.1748,.2539,.3096,.3604,.3818l1.0986-.7227-.4082-.6191,.5732-.377Z"/><path class="b" d="M12.6557,42.637l.6348,.6309-1.3994,1.4082,1.0264,1.0205,1.4004-1.4082,.6348,.6309-3.4404,3.4609-.6348-.6309,1.5176-1.5273-1.0264-1.0205-1.5176,1.5273-.6348-.6309,3.4395-3.4609Z"/><path class="b" d="M15.9145,46.5081l-.8975-.6211,.4062-.5869,2.5254,1.748-.4062,.5869-.8916-.6172-2.373,3.4287-.7363-.5098,2.373-3.4287Z"/><path class="b" d="M18.2231,51.6117c.1211,.1689,.4092,.4873,.8506,.6631,.3643,.1455,.7695,.0742,.9512-.3809,.1299-.3252-.002-.5439-.3164-.9258l-.3291-.4023c-.3506-.4258-.5-.9004-.2666-1.4854,.3242-.8125,1.1621-.9678,1.9229-.6641,.4814,.1914,.7695,.4502,.8848,.541l-.3174,.6797c-.1699-.1582-.3896-.3818-.7734-.5342-.416-.166-.7188-.0312-.8428,.2812-.1348,.3379,.04,.5586,.2373,.8027l.3779,.4678c.4141,.5117,.5537,.8984,.2988,1.5361-.3682,.9229-1.2012,1.1025-2.0654,.7578-.4551-.1816-.7803-.3867-.9531-.6143l.3408-.7227Z"/><path class="b" d="M23.727,49.3597l-.6338,3.0967c-.1631,.7949,.0234,1.1045,.5371,1.209,.5,.1025,.7998-.1064,.9629-.9014l.6348-3.0967,.877,.1797-.6348,3.0967c-.2578,1.2607-1.0859,1.6045-1.9834,1.4209-.9043-.1855-1.5293-.8271-1.2705-2.0879l.6338-3.0967,.877,.1797Z"/><path class="b" d="M27.1254,49.9642l1.0645-.0166,1.6836,3.8135h.0137l-.0576-3.8379,.8115-.0127,.0752,4.8887-1.0713,.0166-1.6768-3.7852h-.0137l.0576,3.8096-.8115,.0127-.0752-4.8887Z"/><path class="b" d="M32.9448,49.5804l1.4707-.4023c.8359-.2295,1.5059-.0068,1.7422,.8564,.168,.6143-.1035,1.1309-.6074,1.3555l.0049,.0205c.1826-.0215,.4004,.0059,.6689,.4043l1.1055,1.626-.918,.251-.8838-1.4033c-.2168-.3398-.4727-.4004-.7891-.3135l-.1963,.0537,.5547,2.0225-.8633,.2363-1.2891-4.707Zm1.7754,1.7178c.458-.125,.7041-.4463,.5732-.9258-.1475-.5391-.4678-.5967-.9541-.4639l-.3506,.0967,.3809,1.3887,.3506-.0957Z"/><path class="b" d="M40.6957,50.6126l-1.502,.7588,.2178,1.209-.8008,.4043-.7402-5.1064,.876-.4424,3.6123,3.6562-.8262,.417-.8369-.8965Zm-.4785-.5273l-1.5801-1.7617-.0127,.0068,.4287,2.3418,1.1641-.5869Z"/><path class="b" d="M40.6078,46.3988l.8311-.665,3.667,1.9775,.0107-.0088-2.4004-2.9941,.6338-.5078,3.0566,3.8125-.835,.6709-3.6445-1.9609-.0107,.0088,2.3818,2.9717-.6338,.5088-3.0566-3.8135Z"/><path class="b" d="M44.0678,43.4964l.8057-.9863c.9648-1.1807,2.1172-1.2861,3.3682-.2646,1.2734,1.04,1.2715,2.3027,.4131,3.3535l-.8057,.9863-3.7812-3.0889Zm3.8174,1.9619l.1895-.2334c.6377-.7803,.3945-1.5654-.4346-2.2422-.8291-.6777-1.6475-.7588-2.2842,.0215l-.1904,.2324,2.7197,2.2217Z"/><path class="b" d="M47.5239,38.4232c.4639-.9023,1.5625-1.3848,3.125-.5801,1.5635,.8047,1.8096,1.9785,1.3447,2.8809-.4648,.9033-1.5635,1.3848-3.126,.5811-1.5625-.8047-1.8086-1.9785-1.3438-2.8818Zm3.8594,1.9873c.2598-.5049,.0381-1.1299-1.1572-1.7451s-1.833-.4316-2.0928,.0723c-.2588,.5039-.0381,1.1299,1.1572,1.7451s1.833,.4316,2.0928-.0723Z"/><path class="b" d="M48.7582,35.9613l.2764-1.0273,4.125-.5732,.0039-.0137-3.7041-.9951,.2109-.7842,4.7178,1.2676-.2773,1.0342-4.0967,.5732-.0039,.0137,3.6768,.9883-.21,.7842-4.7188-1.2676Z"/><path class="b" d="M49.8285,31.5589l.0537-1.0625,3.9111-1.4287,.001-.0146-3.8301-.1924,.041-.8105,4.8779,.2451-.0537,1.0693-3.8828,1.4238-.001,.0137,3.8018,.1904-.041,.8115-4.8779-.2451Z"/><path class="b" d="M48.4955,25.8646l-.1133-.8037,1.0967,.5664,.0762,.54-1.0596-.3027Zm1.4131,1.1504l-.3584-2.542,.7061-.0996,.2334,1.6553,1.2891-.1816-.2207-1.5654,.7061-.0996,.2207,1.5654,1.4268-.2012-.2432-1.7246,.707-.0996,.3682,2.6113-4.835,.6816Z"/><path class="b" d="M49.3559,23.6527l-.7617-2.4531,.6816-.2119,.4961,1.5977,1.2432-.3857-.4688-1.5107,.6816-.2119,.4688,1.5107,1.377-.4277-.5166-1.6641,.6816-.2119,.7822,2.5205-4.665,1.4482Z"/><path d="M15.4446,4.4351c.3623-.1982,.8184-.0664,1.0176,.2959s.0664,.8184-.2959,1.0176c-.3613,.1982-.8174,.0664-1.0166-.2959s-.0664-.8184,.2949-1.0176Zm.5537,1.0059c.1895-.1045,.2617-.3516,.1572-.541-.1045-.1904-.3516-.2627-.542-.1582s-.2617,.3525-.1572,.542c.1045,.1904,.3516,.2627,.542,.1572Zm2.7246,3.3594l-1.4717,.8086,.2598,1.1992-.7852,.4316-.9189-5.0703,.8594-.4727,3.7334,3.5234-.8096,.4453-.8672-.8652Zm-.4961-.5107l-1.6387-1.7031-.0127,.0068,.5107,2.3242,1.1406-.6279Z"/><path d="M24.054,3.9321l-.0137,.0029-.1934,4.251-.6182,.1553-2.1279-3.666-.0137,.0039,.9941,3.9512-.7871,.1982-1.1934-4.7393,1.2969-.3262,1.8682,3.291,.0137-.0029,.1074-3.7891,1.2568-.3164,1.1924,4.7393-.7871,.1992-.9951-3.9521Z"/><path d="M27.1292,6.6938c.1768,.1094,.5654,.292,1.042,.2852,.3916-.0059,.7383-.2285,.7314-.7188-.0059-.3506-.2109-.501-.6494-.7324l-.459-.2451c-.4873-.2588-.8076-.6396-.8174-1.2695-.0137-.876,.7012-1.3418,1.5205-1.3545,.5186-.0078,.8848,.1191,1.0254,.1592l-.0312,.75c-.2178-.0801-.5068-.2021-.9199-.1963-.4492,.0068-.6758,.249-.6709,.585,.0049,.3643,.2529,.501,.5283,.6504l.5293,.2861c.5791,.3135,.8574,.6172,.8682,1.3037,.0146,.9951-.6855,1.4814-1.6172,1.4961-.4902,.0078-.8691-.0566-1.1162-.2002l.0361-.7988Z"/><path d="M31.8118,2.8726l2.5361,.4199-.1162,.7051-1.6523-.2734-.2129,1.2861,1.5625,.2588-.1172,.7051-1.5615-.2588-.2363,1.4238,1.7217,.2852-.1172,.7051-2.6055-.4316,.7988-4.8252Z"/><path d="M36.3011,3.8218l.8457,.2949-1.373,3.9375,1.5195,.5303-.2354,.6738-2.3652-.8252,1.6084-4.6113Z"/><path d="M40.2894,5.3892l2.2451,1.249-.3467,.624-1.4629-.8125-.6328,1.1377,1.3828,.7686-.3467,.624-1.3828-.7686-.7012,1.2607,1.5234,.8467-.3467,.624-2.3066-1.2822,2.375-4.2715Z"/><path d="M6.1323,17.4408c.2598-.5215,.8887-.7305,1.4092-.4697,.5215,.2607,.7305,.8887,.4697,1.4092-.2598,.5215-.8887,.7305-1.4092,.4707-.5215-.2607-.7305-.8887-.4697-1.4102Z"/><path d="M51.1723,17.0677c.2695,.5166,.0713,1.1484-.4453,1.418s-1.1484,.0703-1.418-.4463c-.2695-.5156-.0713-1.1484,.4453-1.417,.5166-.2695,1.1494-.0713,1.418,.4453Z"/><path d="M28.749,57.3789C12.9619,57.3789,.1191,44.5361,.1191,28.749S12.9619,.1191,28.749,.1191s28.6299,12.8428,28.6299,28.6299-12.8428,28.6299-28.6299,28.6299ZM28.749,.6855C13.2753,.6855,.6855,13.2753,.6855,28.749s12.5898,28.0635,28.0635,28.0635,28.0635-12.5898,28.0635-28.0635S44.2226,.6855,28.749,.6855Z"/><path d="M28.749,48.166c-10.707,0-19.417-8.71-19.417-19.417S18.0419,9.332,28.749,9.332s19.417,8.71,19.417,19.417-8.71,19.417-19.417,19.417Zm0-38.2676c-10.3945,0-18.8506,8.4561-18.8506,18.8506s8.4561,18.8506,18.8506,18.8506,18.8506-8.4561,18.8506-18.8506S39.1435,9.8984,28.749,9.8984Z"/><path d="M16.8086,37.2651l1.2051-.6956c.8153,1.116,1.798,2.0988,2.9141,2.9141-.232,.4018-.4641,.8037-.6961,1.2056,.8116,.4684,1.6231,.9368,2.4347,1.4052l.691-1.197c1.2417,.5538,2.5795,.9284,3.9858,1.0768v1.373h2.8109v-1.373c1.4062-.1484,2.744-.523,3.9858-1.0764,.2302,.3988,.4603,.7977,.6905,1.1966,.8118-.4684,1.6236-.9368,2.4353-1.4052-.232-.4019-.4642-.8038-.6961-1.2056,1.116-.8153,2.0982-1.798,2.9141-2.9141l1.2045,.6956,1.4063-2.4348c-.399-.2303-.798-.4607-1.197-.691,.5527-1.2416,.9274-2.5785,1.0758-3.9843h1.374v-2.8125h-1.374c-.1484-1.4058-.5231-2.7431-1.0763-3.9849,.3991-.2303,.7983-.4607,1.1975-.691-.4687-.8118-.9375-1.6234-1.4063-2.4352-.4017,.232-.8034,.464-1.2051,.6961-.8153-1.116-1.7975-2.0982-2.9135-2.9136,.2319-.4018,.464-.8037,.6961-1.2056-.8118-.4684-1.6236-.9368-2.4353-1.4052-.2302,.3988-.4604,.7977-.6905,1.1965-1.2418-.5532-2.5796-.928-3.9858-1.0763v-1.373h-2.8109v1.373c-1.4063,.1483-2.7441,.5231-3.9858,1.0768-.2304-.399-.4607-.798-.691-1.197-.8116,.4684-1.6232,.9368-2.4347,1.4052,.232,.4019,.464,.8038,.6961,1.2056-1.116,.8154-2.0983,1.7976-2.9135,2.9136-.4019-.232-.8038-.464-1.2056-.6961-.4686,.8118-.9371,1.6234-1.4057,2.4352,.3989,.2303,.7979,.4608,1.197,.691-.5532,1.2418-.9275,2.5791-1.0758,3.9849h-1.374v2.8125h1.374c.1483,1.4057,.5226,2.7426,1.0758,3.9843-.3991,.2303-.7981,.4608-1.197,.691,.4686,.8116,.9371,1.6232,1.4057,2.4348Zm11.0754,1.9268c-.1811-.0171-.3617-.0352-.5407-.0593-.8978-.1207-1.7614-.349-2.5726-.683-.8771-.3606-1.6904-.8414-2.4297-1.4143-.7031-.5452-1.3338-1.1759-1.879-1.879-.1106-.1433-.2153-.2911-.3189-.4395,2.0136-1.1627,4.0272-2.3253,6.0409-3.488l.0307,.0529c.5361,.3095,1.0723,.6189,1.6084,.9284h.0609v6.9819Zm9.1516-4.0357c-.5452,.7031-1.1759,1.3338-1.8796,1.879-.7393,.5729-1.5526,1.0537-2.4292,1.4148-.8112,.3335-1.6747,.5618-2.5725,.6825-.1786,.0241-.3596,.0422-.5402,.0593v-6.9819h.0593c.5361-.3095,1.0723-.6189,1.6083-.9284l.0307-.0529c2.0137,1.1627,4.0275,2.3253,6.0413,3.488-.1036,.1484-.2077,.2962-.3183,.4395Zm1.1904-10.8791c.0775,.1629,.155,.3258,.2239,.4939,.3339,.8107,.5618,1.6743,.683,2.5715,.0623,.4611,.1056,.9284,.1056,1.4062s-.0433,.9451-.1056,1.4063c-.1212,.8973-.3491,1.7602-.6825,2.5711-.0694,.1679-.1469,.3318-.2249,.4953-2.0159-1.1639-4.0316-2.328-6.0474-3.4919l.0312-.0539v-1.8538l-.0312-.0532c2.016-1.1638,4.032-2.3276,6.0479-3.4914Zm-8.6118-5.9714c.1806,.0171,.3616,.0351,.5402,.0593,.8978,.1207,1.7612,.349,2.5725,.6825,.8766,.3612,1.69,.8419,2.4292,1.4148,.7036,.5447,1.3344,1.1754,1.8791,1.8784,.1112,.1434,.2157,.2917,.3193,.4406-2.014,1.1628-4.0279,2.3256-6.0418,3.4884l-.0323-.0563c-.5347-.3086-1.0693-.6173-1.6039-.9259h-.0623v-6.9818Zm-.4884,9.0368l.6513,.3761,.3772,.6534v.7533l-.3767,.6523-.6533,.3773h-.7514l-.6534-.3773-.3761-.6518v-.7544l.3767-.6529,.6512-.3761h.7545Zm-8.6632-5.0018c.5446-.7031,1.1753-1.3332,1.8784-1.8784,.7393-.5729,1.5526-1.0536,2.4297-1.4142,.8112-.3341,1.6749-.5624,2.5726-.6831,.179-.0242,.3596-.0422,.5407-.0593v6.9818h-.0644c-.5345,.3086-1.0689,.6173-1.6034,.9259l-.0321,.0558c-2.0137-1.1626-4.0273-2.3253-6.0409-3.4879,.1036-.1489,.2083-.2972,.3194-.4406Zm-2.0978,5.0018c.1207-.8973,.349-1.7603,.683-2.5715,.0689-.168,.1464-.331,.2238-.4939,2.0156,1.1636,4.0312,2.3273,6.0469,3.4909l-.0302,.0523v1.8569l.0307,.0528c-2.0156,1.1639-4.0313,2.3276-6.0469,3.4914-.0779-.1635-.1553-.3275-.2248-.4953-.3335-.8109-.5618-1.6738-.6825-2.5711-.0624-.4612-.1057-.9284-.1057-1.4063s.0433-.945,.1057-1.4062Z"/></svg>