<?xml version="1.0" encoding="UTF-8"?><svg id="a" xmlns="http://www.w3.org/2000/svg" width="20.2847mm" height="20.2847mm" viewBox="0 0 57.5 57.5"><defs><style>.b{isolation:isolate;opacity:.88;}</style></defs><path class="b" d="M7.1,24.7h0l-3.6-2.2,.2-.6,4.2-.1h0l-3.9-1,.2-.8,4.7,1.2-.3,1.3-3.8,.1h0l3.2,1.9-.3,1.3-4.7-1.2,.2-.8,3.9,.9Z"/><path class="b" d="M7.7,26.7l-.1,.9-4.9-.4,.1-.9,4.9,.4Z"/><path class="b" d="M7.5,28.6l.1,1.3c.1,1.5-.7,2.4-2.3,2.5-1.6,.1-2.5-.8-2.6-2.2l-.1-1.3,4.9-.3Zm-4.1,1.2v.3c.1,1,.8,1.4,1.9,1.3s1.7-.6,1.6-1.6v-.3l-3.5,.3Z"/><path class="b" d="M7.9,33l.3,1-3.2,2.6h0l3.7-1.1,.2,.8-4.7,1.4-.3-1,3.2-2.6h0l-3.7,1.1-.2-.8,4.7-1.4Z"/><path class="b" d="M9.3,37.2l.4,.8-4.4,2-.4-.8,4.4-2Z"/><path class="b" d="M9.4,41.8l.9,1.3-2.1,1.4c-.2-.1-.6-.4-.9-1-.9-1.3-.4-2.6,.8-3.4,1.2-.8,2.6-.7,3.4,.6,.3,.5,.4,.9,.5,1.1l-.7,.4c0-.3-.1-.7-.4-1.1-.5-.8-1.5-.8-2.3-.2-.9,.6-1.2,1.4-.7,2.2,.1,.2,.3,.3,.4,.4l1.1-.7-.4-.6,.4-.4Z"/><path class="b" d="M12.7,42.7l.6,.6-1.4,1.4,1,1,1.4-1.4,.6,.6-3.4,3.5-.6-.6,1.5-1.5-1-1-1.5,1.5-.6-.6,3.4-3.5Z"/><path class="b" d="M15.9,46.5l-.9-.6,.4-.6,2.5,1.7-.4,.6-.8-.6-2.4,3.4-.7-.4,2.3-3.5Z"/><path class="b" d="M18.2,51.6c.1,.2,.4,.5,.9,.7,.4,.1,.8,.1,1-.4,.1-.3,0-.5-.3-.9l-.3-.4c-.4-.4-.5-.9-.3-1.5,.3-.8,1.2-1,1.9-.7,.5,.2,.8,.5,.9,.5l-.3,.7c-.2-.2-.4-.4-.8-.5-.4-.2-.7,0-.8,.3-.1,.3,0,.6,.2,.8l.4,.5c.4,.5,.6,.9,.3,1.5-.4,.9-1.2,1.1-2.1,.8-.5-.2-.8-.4-1-.6l.3-.8Z"/><path class="b" d="M23.7,49.4l-.6,3.1c-.2,.8,0,1.1,.5,1.2,.5,.1,.8-.1,1-.9l.6-3.1,.9,.2-.6,3.1c-.3,1.3-1.1,1.6-2,1.4-.9-.2-1.5-.8-1.3-2.1l.6-3.1,.9,.2Z"/><path class="b" d="M27.1,50h1.1l1.7,3.8h0l-.1-3.8h.8l.1,4.9h-1.1l-1.6-3.8h0l.1,3.8h-.8l-.2-4.9Z"/><path class="b" d="M33,49.6l1.5-.4c.8-.2,1.5,0,1.7,.9,.2,.6-.1,1.1-.6,1.4h0c.2,0,.4,0,.7,.4l1.1,1.6-.9,.3-.9-1.4c-.2-.3-.5-.4-.8-.3l-.2,.1,.6,2-.9,.2-1.3-4.8Zm1.7,1.7c.5-.1,.7-.4,.6-.9-.1-.5-.5-.6-1-.5l-.3,.1,.4,1.4,.3-.1Z"/><path class="b" d="M40.7,50.6l-1.5,.8,.2,1.2-.8,.4-.7-5.1,.9-.4,3.6,3.7-.8,.4-.9-1Zm-.5-.5l-1.6-1.8h0l.4,2.3,1.2-.5Z"/><path class="b" d="M40.6,46.4l.8-.7,3.7,2h0l-2.4-3,.6-.5,3.1,3.8-.8,.7-3.6-2h0l2.4,3-.6,.5-3.2-3.8Z"/><path class="b" d="M44.1,43.5l.8-1c1-1.2,2.1-1.3,3.4-.3,1.3,1,1.3,2.3,.4,3.4l-.8,1-3.8-3.1Zm3.8,2l.2-.2c.6-.8,.4-1.6-.4-2.2-.8-.7-1.6-.8-2.3,0l-.2,.2,2.7,2.2Z"/><path class="b" d="M47.5,38.4c.5-.9,1.6-1.4,3.1-.6,1.6,.8,1.8,2,1.3,2.9s-1.6,1.4-3.1,.6-1.7-2-1.3-2.9Zm3.9,2c.3-.5,0-1.1-1.2-1.7s-1.8-.4-2.1,.1,0,1.1,1.2,1.7,1.8,.4,2.1-.1Z"/><path class="b" d="M48.8,36l.3-1,4.1-.6h0l-3.7-1,.2-.8,4.7,1.3-.3,1-4.1,.6h0l3.7,1-.2,.8-4.7-1.3Z"/><path class="b" d="M49.9,31.6l.1-1.1,3.9-1.4h0l-3.9-.2v-.8l4.9,.2-.1,1.1-3.8,1.4h0l3.8,.2v.8l-4.9-.2Z"/><path class="b" d="M48.5,25.9l-.1-.8,1.1,.6,.1,.5-1.1-.3Zm1.4,1.1l-.4-2.5,.7-.1,.2,1.7,1.3-.2-.2-1.6,.7-.1,.2,1.6,1.4-.2-.2-1.7,.7-.1,.4,2.6-4.8,.6Z"/><path class="b" d="M49.4,23.7l-.8-2.5,.7-.2,.5,1.6,1.2-.4-.5-1.5,.7-.2,.5,1.5,1.4-.4-.5-1.7,.7-.2,.8,2.5-4.7,1.5Z"/><path d="M7.2,13.3l.6-.7,1.5,1.3,.9-1.1-1.5-1.3,.6-.7,3.8,3.1-.6,.7-1.7-1.4-.9,1.1,1.7,1.4-.6,.6-3.8-3Z"/><path d="M15,10.6l-1.3,1.1,.5,1.1-.7,.6-1.8-4.8,.8-.6,4.3,2.8-.8,.5-1-.7Zm-.6-.5l-1.9-1.4h0l.9,2.2,1-.8Z"/><path d="M15.6,6.6l-.9,.5-.4-.6,2.6-1.5,.4,.6-.9,.5,2.1,3.6-.8,.4-2.1-3.5Z"/><path d="M19.4,4.7l-1,.4-.2-.7,2.8-1,.2,.6-1,.4,1.5,3.9-.8,.3-1.5-3.9Z"/><path d="M22.4,3l2.4-.5,.1,.7-1.5,.3,.3,1.3,1.5-.3,.1,.7-1.5,.3,.4,2.1-.9,.2-.9-4.8Z"/><path d="M27.3,2.3l.3,3.4c.1,1.1-.4,1.5-1.1,1.6-.2,0-.5,0-.7-.1l-.1-.8c.1,0,.2,.1,.4,.1,.4,0,.5-.4,.5-.8l-.3-3.4h1Z"/><path d="M28.9,2.2l2.6,.1v.7h-1.7l-.1,1.3,1.6,.1v.7l-1.6-.1-.1,1.4,1.7,.1v.7l-2.6-.1,.2-4.9Z"/><path d="M33.1,2.6l.9,.2-.8,4.1,1.6,.3-.1,.7-2.5-.5,.9-4.8Z"/><path d="M36.8,3.5l.8,.3-1.4,3.9,1.5,.6-.2,.7-2.4-.9,1.7-4.6Z"/><path d="M40.6,5l1.1,.6c1.3,.8,1.6,1.9,.8,3.3s-2.1,1.6-3.3,.9l-1.1-.6,2.5-4.2Zm-1.3,4l.3,.2c.9,.5,1.6,.1,2.2-.8,.5-.9,.5-1.7-.4-2.3l-.4-.1-1.7,3Z"/><path d="M44.5,12.2l-1.3-1.1-1,.7-.7-.6,4.5-2.6,.7,.6-2,4.7-.7-.6,.5-1.1Zm.3-.6l1-2.1h0l-2,1.3,1,.8Z"/><path d="M48.8,11.4l.6,.7-3.3,2.6,1,1.3-.6,.4-1.6-2,3.9-3Z"/><path d="M6.2,17.5c.2-.6,.8-.8,1.4-.5,.5,.3,.7,.9,.5,1.4-.3,.5-.9,.7-1.4,.5-.6-.3-.8-.9-.5-1.4Z"/><path d="M51.2,17.1c.3,.5,.1,1.1-.4,1.4s-1.1,.1-1.4-.4c-.3-.5-.1-1.1,.4-1.4s1.1-.1,1.4,.4Z"/><path d="M37.7,32.3l.9,.1,.3,.4,1.2,.3,.1,.1-.2,.1-1.1-.1,.1,.2,.2,.2v.1h-.3l-.8-.3-.2,.3-.3-.1-.4-.5-.1,.3,.1,.1v.2l-.5-.2-.1,.1,.7,.4h1.2l-.4,.3,.5,.2-.3,.1-.8-.1-.2,.1,.5,.3,.1,.1h-1.4v.1l1,.4v.2l-.1,.1-.4,.2-.4-.1,.1,.3-.1,.4,.3,.1,.3,.2h.3l.2-.1,.4-.6h.2l-.1,.6,.1,.2,.7-.7h.1l-.1,.1,.1,.2-.1,.2h.2l.7-.4-.3,.6,1.4-.6,.7-.3-.5,.7-1,.3-.1,.2,.7-.1-.2,.4-.8,.1-.4,.3,1.3-.1-.2,.3-.7-.2-.5,.1,.5,.1,.2,.2-.3,.1h-.6l.1,.4-.6-.1-.6,.2,.2,.3,1-.1,1.2-.2-.3,.4-1,.3v.2l.6-.1-.2,.4-.3,.1,.3,.2h-.5l-.2,.3-.6-.2,.1,.4,.3,.3v.2l-1.2-.7h-.1l.1,.5h-.1l-.2-.2,.1-.1-.2-.2-.2,.2-.1,.2-.1,.1-.2-.1-.1-.4v-.2l-.1-.2-.2,.1,.1,.6-.4-.1h-.3l-.6,.4-.8-.5v.3l.9,.6-.6,.2-.5-.3v-.2l-.5,.4h-.2l-.1-.6-.5,.3-.6-.6h-.5l1.7,1.3-.4,.1-.6-.2-.2,.4-.5-.5-.2-.5-.6,.5,.1,.4-.3-.1-.1-.1-.3-.1v.2l-.5,.1-.6,.6v2.4h-.6l-.6-.1v-3.1l-.6,.2v-.2l.2-.4v-.1h-.2l-.6,.2-.2-.4-.5,.4h-1.2l1.3-.9-.7,.1-.3,.3-.2,.1-.2-.1,.1-.3-.1-.2-.2,.1-.2,.3h-.8l.8-.9-1.1,.8-.1-.7-.2-.1-.3,.3v-.3l-.1-.2-.4,.4-.5,.3-.1-.2,.2-.6v-.2l-1.4,.7h-.3l.1-.2,.3-.1,.2-.4-.3-.6-.7,.6h-.3v-.2l.1-.1-.2-.1h-1l-.2-.1,.2-.4v-.2l-1.1-.1-.6-.3,1.7-.3-.9-.2,.5-.2h.4l-.1-.2h-1l.2-.2,.4-.1,.2-.1-.2-.2h-.9l.4-.3-.5-.1,.2-.1h.4l.1-.2-.5-.9,1.7,.5,.5-.5,.1-.2-.9,.3-.5-.3,.7-.1,.3-.4-.9,.1-.1-.3h-.9l-.5-.4,1.5,.1-.3-.2-1.4-.2-.1-.4,5.2,1.2,.6-.2,.1-.1-.2-.1-1.3,.1-.1-.1,.4-.3-1.6-.1v-.1l.9-.2-1.2-.8,.3-.1,.3-.2-1-.6h-.6l-.1-.1,.2-.1,.1-.2-.9-.1v-.1l.5-.1-.6-.3,.1-.1,2.5,.3,.2-.2h-1.1v-.1l.9-.2,.2-.1-.8-.2-.2-.3,2,.1-.3-.2h-1.3l-.4-.3,.7-.2-.7-.2-.2-.3,1.5,.4,.2-.2-1.5-.6-.4-.5,3.9,1.7,.2-.1,.4-.7h-.1l-.7,.3h-.2v-.1l-.2-.3h-.3l-.2-.1,.2-.1h1.3v-.1l-1.1-.2-.6-.4h-1l.2-.2h.1v-.2l-.8-.4v-.1l4.6,1.3h.2l-.1-.2-.6-.2-.2-.2v-.2l-.9,.1h-.2l.1-.1,.6-.2-.2-.1-.7-.1,.6-.3-.4-.1h-.6l-.6-.2,.5-.1-.5-.4v-.4l1,.6,.9,.5,.7-.1,.4,.5,.9,.2,.1-.1-.7-.2-.2-.1h.3l.4,.1,.3-.1-1.5-.8,.6-.1-2-.6-.2-.1h.8l-.6-.3-1.1-.2-.3-.2,.4-.2-.1-.1-.4-.2-.1-.4,1.6,.8h.1l-.2-.4,1.3,.6h.1l-1-.9v-.2l1.4,.6,.3-.1h-.2l-.2-.1,.1-.2-.3-.1-.4-.5,.6-.1-1.5-.6-.1-.4,2.3,1-.3-.5,.3-.1-.6-.3v-.1h.4l-1.1-.2-.4-.3,1.1,.1-.4-.2-1-.2-.2-.2,.9,.1h-.2l-.5-.1-.4-.2,.5-.1v-.1l-1.1-.6h.3l1.1,.5h.1l-.1-.2h.1l1.6,1h.2v-.1l-.3-.3v-.2h.3l.4,.2,.6-.1v-.2l-.3-.2,.7-.1-.1-.1-.5-.4,.2-.3-1.3-.9-.2-.6,1.2,.8,.3-.2-.2-.4v-.3l.8,1.1,.2,.1,.1-.1-.1-.4,.6,.2,.2-.1v-.1l-.6-.6-.5-.2-.2-.6,1.3,.7-.1-.3-1-.4-.5-.2-.1-.6,.9,.6,.6,.4,.7,.3h.4l.2-.2-1.2-.3-.5-.7h.5l1.3,.4-.1-.3-1.3-.5,.3-.4-1-.6-.2-.4,2.4,1.4v-.3l-1.1-.6v-.5l.6,.5,.6,.5v-.6l-.5-.2-.4-.4h.5l.4,.2v-.6l-1.1-.2v-.3l.7,.3,.4-.1-.1-1.3,.1-.2,.2,.2v1.4l1.1-.3-.1,.2-.9,.4-.1,.4,.6-.3,.1,.3-.5,.3h.4v.1h-.4l.2,.3-.2,.1-.1,.3,1-.7v.4l-.6,.2-.1,.1,.6-.1,.9-.5,.3-.1-.3,.5-1.7,.8-.1,.2h1.1l-.6,.5-.1,.2h.1l1.1-.5h.2v.2l-.7,.3-.2,.6,.6-.4h.1l-.1,.3-.8,.8,.1,.1,1-.3,.1,.1-.7,.6,.1,.2,.3-.1,2.1-1.5-.4,.6v.4l.5-.3h.1l-.1,.3h.1l.7-.2h0l-1,.6,.1,.1h.5l.1,.1-.8,.3-.1,.2,.2,.1h.4l-.7,.7v.2h.3l1.2-.2-.2,.4-.9,.1-.4,.2-.3,.2,.4,.1,.4-.1h.5l-.5,.3h-.6l-.4,.3,1.1-.1-.2,.4-.8,.4v.4l1.1-.4h.5l-.3,.6h-1l.1,.4,2.1-.5,.7-.3-.3,.5-1.6,.3-.3,.3,.3,.1,.6-.2-.2,.3-1,.2v.1l.5,.1,.1,.1-1.2,.2v.3l.3,.1,.3,.3h.3l.1-.1,1.3-.1,.2,.1-.8,.3,.6,.3v.1h-.3l-.3,.1,.2,.1,2.8-.8h.2l-1,.4v.1h.8l-.1,.2h-.3l-.2,.1,.2,.3h-1.3l.2,.1,.2,.1v.1h-1.3v.1l.4,.3,2.1-.3,.5,.2-1.5,.3,.6,.1v.1l-1.3,.1,.3,.3h-.3l-.3,.2v.2l-1.4-.1,.1,.3-1-.2h-.2l.3,.5,.5,.1,.2,.2,.8-.3,.3,.5,3.5-.6h.5l-1.3,.5,.6,.2v.1l-.7,.1,.2,.1,3.4,.2,.2,.1-1.1,.2v.1l.1,.2-1-.3h-.2l.1,.1,.7,.4,.1,.2-1.1-.4h-.1l.1,.2,.3,.2v.2h-.3l-1-.5v.3l.9,.5-.3,.1-.5-.1-1.1-.1h0l.2,.2,.7,.2,.5,.3h0Zm-6.6-11.3l.6-.3v-.2l-.7,.1-.3,.2,.4,.2h0Zm-10.5,15l.9-.2,.1-.1-.2-.1-.9,.1-.2,.1,.3,.2h0Zm.8-5.1h-.9l-.3,.1,.2,.1,.3,.1,.7-.3h0Zm-.1,8.7l-.2-.1h-.2l-.4,.4,.1,.1,.7-.4h0Zm13.5-5.8l-.2,.1v.1l.5,.3h.3l.1-.1-.7-.4h0Zm-7.4-12.1l-.1-.1-.5-.2h-.2v.2l.6,.2,.2-.1h0Zm-4,7.6l-.4,.2,.3,.2,.3-.2-.2-.2h0Zm1.5-4.6l-.4-.2-.3,.1,.3,.3,.4-.2h0Zm5-4.6h0l.1,.1,.1,.2,.2-.1,.1-.3v-.1h-.2l-.3,.2h0Zm-12.1,16.6l.7-.1,.1-.1-.2-.1-.6,.3h0Zm6.8-7l-.2-.2-.2,.1-.2,.1-.1,.2h.4l.3-.2h0Zm9.2-1.5l-.6-.3h-.2v.1l.6,.2h.2Zm-12,3l.5-.2-.2-.1-.5,.3h.2Zm-2.2,4.7l.4-.2v-.1h-.2l-.3,.1-.1,.1,.2,.1h0Zm6.4-8.7h0l-.4-.2-.3,.1,.3,.2,.4-.1h0Zm8.5,7.5l.2-.2-.4-.3-.1,.1,.3,.4h0Zm-8.3-13.3l-.1-.2h-.2v.1l.2,.3,.2-.1-.1-.1h0Zm-6.9,15.3l.1-.1-.2-.1-.5,.3,.1,.1h.1l.4-.2h0Zm12.1-17.6l-.2-.1h-.2l-.1,.1-.1,.2h.4l.2-.2h0Zm-9.5,19.8l-.2,.4,.1,.1,.2-.1-.1-.4h0Zm4.1-11.2l.3-.2,.1-.2-.4,.2-.2,.1,.2,.1h0Zm-5.2,5.4l.3-.2v-.2l-.4,.1-.2,.2,.3,.1h0Zm14.5,2.8l.4,.3,.2-.1-.1-.1-.5-.1h0Zm-6.5,6.4h.1l.1-.4-.1-.1-.1,.1v.4h0Zm-3.7-14h.1l.1-.1-.4-.2h-.1l.3,.3h0Zm9-.9h0l-.5-.3-.1,.1,.4,.2h.2Zm-2.8-3h.1l.3-.3-.2-.1-.2,.1v.3h0Zm-5.9,5.2l-.2-.2-.3,.2,.1,.1,.4-.1h0Zm5.4-9.9l.2,.2,.3-.2-.1-.1-.4,.1h0Zm7.4,18.5l-1.2,.3h-.8l1.1,.3,.3-.2,.6-.4Zm-4.8-3.6h0l.2,.3,.2-.1-.4-.2h0Zm-10.7-.1l-.3,.2,.2,.1,.3-.1-.2-.2h0Zm8.6-9l.2-.2-.3-.1-.2,.1,.3,.2h0Zm-1.9-7.9l-.2,.2,.2,.1,.2-.2-.2-.1h0Zm0,1.5l-.2,.2,.1,.1,.2-.1-.1-.2h0Zm6.1,14.5l-.2,.2,.7,.5,.4-.2-.9-.5h0Zm-16.8,4.4h-.5l.1,.1,.4-.1h0Zm11.9-16.5l-.2-.2-.1,.1,.1,.1h.2Zm.4,1.1l.2-.2-.2-.1-.2,.1,.2,.2h0Zm1.6,3.4l.2-.2-.1-.1-.2,.1,.1,.2h0Zm-1.5-4.9l-.2-.1-.2,.1,.2,.1,.2-.1h0Z"/><path d="M28.8,57.4C13,57.4,.1,44.6,.1,28.8S13,.1,28.8,.1s28.6,12.8,28.6,28.6c0,15.9-12.8,28.7-28.6,28.7ZM28.8,.7C13.3,.7,.7,13.3,.7,28.8s12.6,28.1,28.1,28.1,28.1-12.6,28.1-28.1S44.2,.7,28.8,.7Z"/><path d="M28.8,48.2c-10.7,0-19.4-8.7-19.4-19.4S18.1,9.4,28.8,9.4s19.4,8.7,19.4,19.4-8.7,19.4-19.4,19.4Zm0-38.3c-10.4,0-18.9,8.5-18.9,18.9s8.5,18.9,18.9,18.9,18.9-8.5,18.9-18.9S39.2,9.9,28.8,9.9Z"/></svg>