<?xml version="1.0" encoding="UTF-8"?><svg id="a" xmlns="http://www.w3.org/2000/svg" width="20.2847mm" height="20.2847mm" viewBox="0 0 57.5 57.5"><defs><style>.b{opacity:.88;}</style></defs><path class="b" d="M7.066,24.6998l.0039-.0137-3.6338-2.2158,.1611-.6162,4.2383-.1016,.0039-.0137-3.9434-1.0303,.2061-.7861,4.7285,1.2363-.3379,1.2939-3.7852,.0527-.0029,.0137,3.2695,1.918-.3281,1.2539-4.7285-1.2354,.2051-.7861,3.9434,1.0303Z"/><path class="b" d="M7.6441,26.7233l-.0664,.8926-4.8672-.3613,.0664-.8926,4.8672,.3613Z"/><path class="b" d="M7.4908,28.5563l.0918,1.2715c.1094,1.5234-.6562,2.3936-2.2705,2.5098-1.6426,.1182-2.5098-.8027-2.6074-2.1582l-.0918-1.2715,4.8779-.3516Zm-4.1289,1.1963l.0225,.3008c.0723,1.0059,.79,1.4111,1.8594,1.334,1.0684-.0771,1.7207-.5811,1.6484-1.5869l-.0215-.3008-3.5088,.2529Z"/><path class="b" d="M7.9039,32.9586l.2939,1.0225-3.2383,2.623,.0039,.0137,3.6875-1.0615,.2256,.7803-4.6973,1.3525-.2969-1.0293,3.2139-2.6084-.0039-.0137-3.6611,1.0537-.2246-.7803,4.6973-1.3525Z"/><path class="b" d="M9.315,37.2106l.375,.8145-4.4414,2.0449-.375-.8145,4.4414-2.0449Z"/><path class="b" d="M9.3463,41.7291l.8691,1.3203-2.1338,1.4043c-.249-.1377-.5869-.4346-.9365-.9668-.8613-1.3086-.4307-2.5889,.7793-3.3848,1.209-.7959,2.5557-.6846,3.417,.624,.3076,.4678,.4443,.9053,.4775,1.1094l-.6982,.4014c-.0117-.3359-.1221-.7324-.3682-1.1064-.5225-.7949-1.458-.791-2.3057-.2334-.917,.6035-1.2285,1.4033-.7246,2.1689,.1152,.1748,.2539,.3096,.3604,.3818l1.0986-.7227-.4082-.6191,.5732-.377Z"/><path class="b" d="M12.6559,42.6373l.6348,.6309-1.3994,1.4082,1.0264,1.0205,1.4004-1.4082,.6348,.6309-3.4404,3.4609-.6348-.6309,1.5176-1.5273-1.0264-1.0205-1.5176,1.5273-.6348-.6309,3.4395-3.4609Z"/><path class="b" d="M15.9146,46.5084l-.8975-.6211,.4062-.5869,2.5254,1.748-.4062,.5869-.8916-.6172-2.373,3.4287-.7363-.5098,2.373-3.4287Z"/><path class="b" d="M18.2232,51.6119c.1211,.1689,.4092,.4873,.8506,.6631,.3643,.1455,.7695,.0742,.9512-.3809,.1299-.3252-.002-.5439-.3164-.9258l-.3291-.4023c-.3506-.4258-.5-.9004-.2666-1.4854,.3242-.8125,1.1621-.9678,1.9229-.6641,.4814,.1914,.7695,.4502,.8848,.541l-.3174,.6797c-.1699-.1582-.3896-.3818-.7734-.5342-.416-.166-.7188-.0312-.8428,.2812-.1348,.3379,.04,.5586,.2373,.8027l.3779,.4678c.4141,.5117,.5537,.8984,.2988,1.5361-.3682,.9229-1.2012,1.1025-2.0654,.7578-.4551-.1816-.7803-.3867-.9531-.6143l.3408-.7227Z"/><path class="b" d="M23.7271,49.36l-.6338,3.0967c-.1631,.7949,.0234,1.1045,.5371,1.209,.5,.1025,.7998-.1064,.9629-.9014l.6348-3.0967,.877,.1797-.6348,3.0967c-.2578,1.2607-1.0859,1.6045-1.9834,1.4209-.9043-.1855-1.5293-.8271-1.2705-2.0879l.6338-3.0967,.877,.1797Z"/><path class="b" d="M27.1256,49.9645l1.0645-.0166,1.6836,3.8135h.0137l-.0576-3.8379,.8115-.0127,.0752,4.8887-1.0713,.0166-1.6768-3.7852h-.0137l.0576,3.8096-.8115,.0127-.0752-4.8887Z"/><path class="b" d="M32.9449,49.5807l1.4707-.4023c.8359-.2295,1.5059-.0068,1.7422,.8564,.168,.6143-.1035,1.1309-.6074,1.3555l.0049,.0205c.1826-.0215,.4004,.0059,.6689,.4043l1.1055,1.626-.918,.251-.8838-1.4033c-.2168-.3398-.4727-.4004-.7891-.3135l-.1963,.0537,.5547,2.0225-.8633,.2363-1.2891-4.707Zm1.7754,1.7178c.458-.125,.7041-.4463,.5732-.9258-.1475-.5391-.4678-.5967-.9541-.4639l-.3506,.0967,.3809,1.3887,.3506-.0957Z"/><path class="b" d="M40.6959,50.6129l-1.502,.7588,.2178,1.209-.8008,.4043-.7402-5.1064,.876-.4424,3.6123,3.6562-.8262,.417-.8369-.8965Zm-.4785-.5273l-1.5801-1.7617-.0127,.0068,.4287,2.3418,1.1641-.5869Z"/><path class="b" d="M40.608,46.3991l.8311-.665,3.667,1.9775,.0107-.0088-2.4004-2.9941,.6338-.5078,3.0566,3.8125-.835,.6709-3.6445-1.9609-.0107,.0088,2.3818,2.9717-.6338,.5088-3.0566-3.8135Z"/><path class="b" d="M44.068,43.4967l.8057-.9863c.9648-1.1807,2.1172-1.2861,3.3682-.2646,1.2734,1.04,1.2715,2.3027,.4131,3.3535l-.8057,.9863-3.7812-3.0889Zm3.8174,1.9619l.1895-.2334c.6377-.7803,.3945-1.5654-.4346-2.2422-.8291-.6777-1.6475-.7588-2.2842,.0215l-.1904,.2324,2.7197,2.2217Z"/><path class="b" d="M47.524,38.4235c.4639-.9023,1.5625-1.3848,3.125-.5801,1.5635,.8047,1.8096,1.9785,1.3447,2.8809-.4648,.9033-1.5635,1.3848-3.126,.5811-1.5625-.8047-1.8086-1.9785-1.3438-2.8818Zm3.8594,1.9873c.2598-.5049,.0381-1.1299-1.1572-1.7451s-1.833-.4316-2.0928,.0723c-.2588,.5039-.0381,1.1299,1.1572,1.7451s1.833,.4316,2.0928-.0723Z"/><path class="b" d="M48.7584,35.9616l.2764-1.0273,4.125-.5732,.0039-.0137-3.7041-.9951,.2109-.7842,4.7178,1.2676-.2773,1.0342-4.0967,.5732-.0039,.0137,3.6768,.9883-.21,.7842-4.7188-1.2676Z"/><path class="b" d="M49.8287,31.5592l.0537-1.0625,3.9111-1.4287,.001-.0146-3.8301-.1924,.041-.8105,4.8779,.2451-.0537,1.0693-3.8828,1.4238-.001,.0137,3.8018,.1904-.041,.8115-4.8779-.2451Z"/><path class="b" d="M48.4957,25.8649l-.1133-.8037,1.0967,.5664,.0762,.54-1.0596-.3027Zm1.4131,1.1504l-.3584-2.542,.7061-.0996,.2334,1.6553,1.2891-.1816-.2207-1.5654,.7061-.0996,.2207,1.5654,1.4268-.2012-.2432-1.7246,.707-.0996,.3682,2.6113-4.835,.6816Z"/><path class="b" d="M49.3561,23.653l-.7617-2.4531,.6816-.2119,.4961,1.5977,1.2432-.3857-.4688-1.5107,.6816-.2119,.4688,1.5107,1.377-.4277-.5166-1.6641,.6816-.2119,.7822,2.5205-4.665,1.4482Z"/><path d="M9.0405,11.6928l.625-.6426,1.4854,1.4453,.0146-.0156-.5137-2.4443,.7178-.7373,.4941,2.7959,3.1025,.5166-.7568,.7783-2.6719-.5479-.0146,.0156,1.6465,1.6016-.625,.6426-3.5039-3.4082Z"/><path d="M12.6938,8.2651l.7148-.541,2.9502,3.8975-.7148,.541-2.9502-3.8975Z"/><path d="M15.9233,6.9262l-.9502,.5381-.3516-.6211,2.6729-1.5137,.3516,.6211-.9434,.5342,2.0547,3.6289-.7793,.4414-2.0547-3.6289Z"/><path d="M19.9936,4.9985l-1.0303,.3594-.2354-.6738,2.9004-1.0117,.2354,.6738-1.0244,.3574,1.374,3.9375-.8457,.2949-1.374-3.9375Z"/><path d="M23.3002,3.2709l2.5361-.4141,.1152,.7051-1.6514,.2695,.21,1.2852,1.5615-.2549,.1152,.7051-1.5615,.2549,.2324,1.4238,1.7207-.2803,.1152,.7051-2.6055,.4248-.7881-4.8242Z"/><path d="M27.811,2.7094l.8965,.0137-.0635,4.1748,1.6104,.0244-.0107,.7148-2.5068-.0391,.0742-4.8887Z"/><path d="M31.895,2.892l2.4395,.3984-.1152,.7051-1.5547-.2539-.2148,1.3135,1.4863,.2422-.1152,.7051-1.4863-.2422-.3428,2.1016-.8848-.1445,.7881-4.8252Z"/><path d="M37.0297,4.0668l-1.002,3.3086c-.3086,1.0186-.9775,1.2695-1.6006,1.0801-.2002-.0605-.4473-.1865-.5811-.2998l.2227-.7373c.0889,.0703,.1885,.1523,.3691,.207,.415,.126,.6221-.1484,.7344-.5166l1-3.3018,.8574,.2598Z"/><path d="M39.4106,9.1293l-1.5049-.7471-.8359,.8975-.8027-.3984,3.6396-3.6484,.8779,.4355-.7617,5.0771-.8271-.4102,.2148-1.2061Zm.1357-.6992l.4629-2.3184-.0117-.0059-1.6172,1.7451,1.166,.5791Zm.4883-4.4941l.6016,.2988-.3418,.6895-.6025-.2988,.3428-.6895Zm1.0537,.5225l.6016,.2988-.3418,.6904-.6025-.2988,.3428-.6904Z"/><path d="M43.6118,7.3706l.7129,.541-2.5195,3.3193,1.2812,.9717-.4307,.5684-1.9941-1.5137,2.9502-3.8867Z"/><path d="M46.7827,9.9575l.6211,.6465-3.0107,2.8926,1.1162,1.1611-.5146,.4951-1.7373-1.8076,3.5254-3.3877Z"/><path d="M6.1324,17.441c.2598-.5215,.8887-.7305,1.4092-.4697,.5215,.2607,.7305,.8887,.4697,1.4092-.2598,.5215-.8887,.7305-1.4092,.4707-.5215-.2607-.7305-.8887-.4697-1.4102Z"/><path d="M51.1725,17.068c.2695,.5166,.0713,1.1484-.4453,1.418s-1.1484,.0703-1.418-.4463c-.2695-.5156-.0713-1.1484,.4453-1.417,.5166-.2695,1.1494-.0713,1.418,.4453Z"/><path d="M16.7719,39.3998c-.0053-.5292,.3582-.6424,.0494-.7538-.539-.1942-.8653-1.1786-.5562-1.2654,.4938-.1387,.0594-.6826,.4257-1.1835,.3684-.5038,.6434,.3778,1.1158,.6191,.2563,.1298-.135-.6552,.012-.8867,.2299-.3623-.2152-.2588-.8824-.5946-.5441-.2744-.8627-.8407-.5356-1.371,.7282-1.1805-1.5831-.3817-1.8658-.7381-.3085-.3897,1.5639-1.6478,.6155-1.8777-.4019-.0972-.5451-1.1191-.9149-1.1894-1.1157-.2118-.1399-.3886,.2294-1.0301,.219-.3794,.8728-.7431,1.3187-.3882,.3249,.2578,.4145,.1963,.5835,.1937,1.0155-.0156,.4924-.3139,1.5167-1.406,.2701-.2882,.512,.0639,.8391-.1525,.3598-.2382,.3574,.381-.0665,.622-.4388,.2495-.184,.646-.161,.8754,.0211,.2129-.0843,.7231-.4374,.8144-.2486,.0645-.1672,.3702,.0216,.6328,.0843,.1176,.1504-.601,.3281-.4414,.2036,.1831,.1236,.8431-.218,1.1508-.0944,.085-.1969,.1772-.2994,.2784-.287,.2815,.363,.4764-.5485,.5282-.4014,.0224-.0704,.6123,.7302,.2168,.4056-.2002,.4962-1.7479,.7601-1.4125,.1322,.168-.1457,.4023,.1035,.6465,.1997,.1958,.835-.3223,.6716,.4427-.0988,.4623-1.2148,.6596-.5557,.7939,.4378,.0893-.2621,.8865,.422,.9724,.8598,.1094-.3947,1.127-.0287,1.0849,.3056-.0352,.6989-.2842,.6122-.5663-.1188-.3877,.3621-.3379,.3439-.8759-.012-.3651-.3506-.3272-.4934-.3846-.2573-.1026,.2481-.3594-.0254-.6739-.1845-.2118,.1331-.6947,.3506-.9042,.319-.3076-.0997-.516,.2318-.6346,.3195-.1148,.2979,.3348,.5504,.1508,.3031-.2216,.2754,.8144,.6894,.8006,.6625-.0223,.7717,.9014,.2816,1.5981-.2567,.3632-.6543,.8797-.0489,.6113,.6056-.2686,.7748,1.8592,.858,.952,.0805-.873,.8766-1.7567,.1389-1.9622-.5695-.159-.0479-1.7096-.3865-1.9294-.6749-.4379-.0125-1.0029-.7449-1.0482-.2778-.0171-.0877-.5088,.069-.7031,.3608-.4483,.5624-.765-.1873-.8568-.2524-.0313-.1624-.377,.0618-.7646,.2417-.4165,1.2533-3.5107,1.347-.6826,.0501,1.5113,1.9368,1.5022,.6228,2.409-.1739,.1201-1.3,.5472-.3986,1.1414,.6922,.4565-.2242,1.2621,.2971,1.93,.4737,.6073,.3855-.0118,.2615-.2646-.2093-.4277,.7186-.4014,.2592-.913-.7066-.7871-.6802-1.3417-.2002-1.4022,.8838-.1114,1.1343,.1728,.9227-.3041-.6051-1.3622,.4876-1.1044-.0184-1.4028-1.1332-.6688-1.2794-1.4767-.6959-1.5436,2.1602-.2475,.3266-.5161,.4325-.8715,.1312-.439,1.1435,.1076,1.5905-.0574,.5919-.2184,.0866-1.4809,.6318-1.6218,.58-.1498,.5681-1.646-.5228-2.0356-.9638-.3442-.4447-1.5892,1.017,.0345,.2932,.3257,.7712,1.0446,1.4496,1.1626,1.3399,.2331-.6377,.5164-.3906,.9468,.5287,.9206-.5232,1.7864,.0844,1.5923,.4904-.1564,.8784-.1531,1.1949-.0501,.5275,.1716-.7726,1.169,1.1304,1.0677,.7382-.0393,.6697,1.2765,1.2533,1.1019,.9302-.2782-.478,.9361-1.3829,.7209-1.0587-.2514-1.565,.9046-2.2677,.8562-.5164-.0351-.179,2.7172-.8181,2.7387-.97,.0327,.3206,.7338,.7722,.1509,.2711-.3496,.2505-.8643,.6635-.9686,.7468-.1885,.672,.5784,1.0361,.1092,.4671-.602-.032-.9687,.7199-1.183,.3592-.1025,.5035,.2392,.9716,.02,.5016-.2347,.4652-1.0359,.9935-1.6794,1.1143-1.3563,1.9721-.2749,1.5023-.0036-1.2537,.7237,.3578,.4926,1.266,.5264,.5926,.022,.7051,.2691,.4772,.4599-.1888,.1573-.6683,.2352-.8015,.4796-.0882,.1605-.0038,.3828-.0403,.5331-.0982,.4067,.0485,.6044,.1897,.263,.1644-.3964,.2237-.2513,.5883-.7538,.1983-.2733,.2865,.2247,.6213-.2118,.3348-.4365,.5533,.5698-.0364,.7167-.3358,.0835-.5701,.0489-.7741,.4072-.137,.2402,.4805,.6699,1.0501,.5273,.7674-.1924,.2198,.6858,.7592,.4911,1.1401-.4121,.2188,.9701,.5878,1.0933,.9801,.327,.4689,.1963,.9619,.5292,.2381,.161,.642,.0838,.6304-.2325-.0172-.4707-.2136-.9237,.3271-.7606,.9456,.286-.0024,1.7059,.5821,1.8533,.4359,.1104,1.0059-.2949,1.1502,1.1767,.0316,.3251,1.3887,1.2761,1.8337,.8466,.1854-.1777,.6635,.1464,.8053,.0332,.4742-.3789-1.2556,.0781-1.5075-.6201-.0882-.2451-.3842-.2275-.5246-.4911-.0575-.1084,.1107-.3213,.3512-.2606,.2477,.0624,.1878-.2296-.1059-.3067-.5106-.1329-.7981-.3701-.7981-.6318,.0005-.4775-.7899-.4199-.9355-.9413-.2227-.7959,.3482-1.2885-.4455-1.5642-.3132-.1089-.8498,.3867-1.5535,.2436-.5623-.1138-.1413-.3755-.5169-.6353-.434-.2997-.5787,.0196-.9711,.0519-.479,.0391-1.0874-.2046-1.151-.356-.1897-.4482,.4196-.0161,.5078-.208,.1317-.2866,.2889-.2324,.6352-.1279,.2765,.0835,.2387-.162,.5783-.0712,.2615,.0698,.5231-.1289,.2261-.3227-.1576-.1026-.5725-.2608-.5102-.3701,.2357-.4126,.1715-.7309-.5403-.6831-.5902,.0395,.0608-.8447,.4862-.4008,.3204,.334,.7689,.4228,.7606,.703-.0101,.3628,.3032,.44,.5026,.4058,.3487-.0591,.3161-.6948,.7717-.7192,.9911-.0527,.413,.6714,1.0722,1.1376,.6916,.4893,.0325-1.0072,.6696-.5228,.4302,.3275-.3535,1.1243-.1988,1.4207,.2889,.5541,.4197-.4712,.8742-.1075,.3014,.2403-.6327,.5884-.397,.9462,.4684,.7129,.2222-.0923,.846,.2803,.2595,.1548-.3899,.8393,.0402,.9457,.1537,.038,.5058,.0723,.5705,.2324,.0872,.2187-.1297,.6093,.2074,.5752,.4953-.0509,.3827,.1612,.6362,.3457,.1236,.0899,.4958,.0946,.6711,.1904,.2702,.1483,.2341-.2911-.4762-.6163-.32-.1464-1.1501-.5838-1.0318-1.366,.1026-.682,.3138-.5375,.4512-.2788,.1365,.2564-.0244,.3687,.2361,.6215,.3191,.3096,.5778,.2139,1.0433,.2695,.6607,.0801-.2438-.2031-.7429-.6415-.3981-.3501-.1129-.6034-.5307-.994-.517-.4843-.1471-.8344-1.3672-1.5145-1.0456-.5824-.5661-1.1971-.9163-1.5106-.6094-.5458-.8879-.8334-1.0158-1.1512-.1278-.3183-.627-.1635-.8918-.2154-.2654-.0516-.3139-.5907-.5251-.6156-.4728-.0561-.651-1.1972-.8221-1.8353-.1184-.4419-.384-.5335-.6121-.8431-.2835-.3851-.5422-.8958-.8842-1.1757-.5217-.4266-.4341-.0442-.7205-.8591-.3373-.9597-.1693-1.2744-.9976-1.8844-.2923-.2153,.1108-.9422-.9976-1.3302-2.2946-.8031-1.9673-1.5561-4.2676-2.6049-.4955-.2259-1.5097-1.3783-2.3428-1.2172-.8163,.1578-1.1177,.6128-1.4356,.6455-.3952,.041-.6457,.552-1.1541,.6742-.7499,.1803-1.0511,.574-1.5694,1.1835-.5489,.6455-.6963,1.9564-1.3301,2.9264-.1087,.167-.5138,.9792-.6709,1.0149-.5323,.1216-.1444,.4702-.441,.6993-.1279,.0988-.2771,.2124-.4088,.4281-.1883,.3091-.3836,.7465-.7178,.9038-.3659,.1721-.1784,.462-.8016,.6621-.1697,.0547-.7037,.4304-1.0134,.5595-.3851,.1606-.641,1.1548-.9571,1.5063-.6352,.705-.4332,.9862-.7826,1.0173-.5458,.0486-.4239,1.0855-.869,.8857-.429-.1926-.3203,.6962-.7789,.8533-.6925,.2372-.3881-.0986-.7728,.3974-.4402,.5674-.3702,.1514-.7012,.8129-.3257,.6513-.619-.0453-.8891,.6665-.0627,.1654,.2916-.2481,.6855-.088,.3865,.1562,.2261-.3984,.4526-.2948,.3306,.1508,.6933-.1158,.9345,.1382,.391,.4105-1.0131,.7528-1.2492,.7123-.4839-.0821-.8574,.3934-.7483,.4339,.835,.3096-.1494,.6567,.0624,1.0551,.1091,.2046,.2313-.3109,.422-.4159,.639-.354,.5332,.1685,.7406,.0923,.3948-.1455,.6865-.0523,.7441,.3656,.0804,.5884,.3562,2.1116,1.1208,1.6966,.7651-.414,1.0227,1.245,.0048,1.6122-.3939,.1426,.3636,.8827,.1092,1.199-.3535,.4395-.731,.9111-.3339,.7704,.2907-.1034,.6236,.1514,.9322,.459,.4728,.4717,.9695,1.4686,.9662,1.0858Zm21.0482-12.4407c.2802-.0063,.1561,.1293,.3285,.2802,.1644,.1445,.3407,.5167,.0959,.5508-.2453,.0342,.1595,.3061-.0556,.2799-.4158-.0514-.7315-1.1026-.3688-1.1108Zm-4.4949-7.5168c.2097,.3282-.2176,.523,.3875,.6963,.4676,.1338,.4487,.2437,.4052,.6498-.0767,.7166,1.1694,.9437,.7678,1.1039-.2315,.0923-.6047,1.1731,.0422,1.5708,1.0704,.658,1.6016,1.1277,.3589,1.162-.7812,.0215-.2745-.9898-1.5623-1.3556-.2945-.0836,.0568-.596,.1478-1.248,.0922-.6609-.0431-1.5375-.2732-1.5854-.5739-.1201-.5136-1.3671-.274-.9937Zm-3.4279-2.3755c.1082-.1545,.2198,.3737,.5099,.5252,.2301,.1202,.4744,.2648,.6644,.32,.9589,.2784,.1899,.5158,1.5712,.9329,.1497,.0452-.0025,.4494-.1568,.5584-.3039,.2146-.3433,1.0032,.4406,1.2293,.2493,.0719,.139,.5785,.0158,.7567-.133,.193,.2122,.8423-.0957,.9732-.4997,.2119,.2863-.513-.3899-.9467-1.5048-.9653-.1541-1.6907-.6604-1.6682-1.6116,.0717-.3825-.7455-.6243-1.1705-.2697-.4741-.5542-.6235-.9976-.7066-.3651-.0684-.36-.6852-.2771-.8036Zm-.3592,3.6306c.4115,.2182-.2046,.7118,.0938,1.1254,.1786,.2485,.8397,.1718,1.2891,.2108,.3789,.0327,.2543,.6148,.2481,.9058-.0096,.4472,.7474,.2045,.9533,.4624,.2955,.5609,.1988,.0537,.5695,.8592,.1476,.3204,.8005,.791-.1455,.9418-.4379,.0704-.2516,.6851-.7948,1.3774-.3449,.4394,.4269-1.41-.5863-.9389-.4522,.2105-.3818-1.1058,.3003-1.0472,.6817,.0585,.2468-1.1225-.3218-1.0698-.4934,.0454-.8158-1.594-1.3882-1.1062-.273,.2324-.8882-2.077-.2174-1.7206Zm-6.2916-1.2266c.0365-1.0585,1.1006-1.2832,1.247-2.1407,.1455-.8521,.4626-.7966,.7208-.5697,.1522,.1338,.3055,.0975,.6103,.1252,.283,.0257-.2578,.4969-.5265,.4018-.2951-.1045-.9288,.1657-.5611,.811,.2593,.4549-.7627,.9437-1.0751,1.3558-.1874,.2473-.1033,.5012,.6213,.6081,.4681,.0691,1.0422,.8827,.4918,.7928-.3354-.0552-.5918,.1569-.5498,.3473,.0465,.2094,1.2952,.7693,.8664,.947-.1997,.0825-.1146,.1818,.0579,.5097,.1117,.2122-.2565,1.0055-.483,1.0885-.2697,.0987,.1328-1.3951-.0167-1.4937-.1946-.2042-.2037,.218-.3055,.3271-.4897,.4423-.2399-2.1261-.9878-2.0479-.3175,.0332-.1269-.578-.1102-1.0622Z"/><path d="M21.4146,38.1989c-1.3728-.6504,.0336-.8536-.3042-1.2636-.6552-.7968,1.1425-1.0321,.7345-1.6824-.426-.6786,.1303,.5848-1.2638,1.0428-.2621,.086-.677,.9462-.8675,1.7342-.1797,.745-.1572,1.3945,.4033,1.3163,1.3216-.1826-.7201,3.1159,.1529,2.3885,.1178-.0986,.3908-.6161,.5446-.5342,.263,.1405,.6654,2.2547,.7089,1.785,.047-.5,.241-.8798-.0652-1.1669-.4363-.4101-.2155-.6718,.1385-.8173,.7607-.3115-.4191-.3418-.4986-.6631-.0723-.2919-.0201-.3729,.5715-.3163,.971,.0938,.4728-1.4783-.2549-1.823Z"/><path d="M25.5612,34.7928c.4828-.0272,1.6009-1.492,.9537-1.5135-.6471-.0214-1.2143-.8983-.8924-1.3978,.322-.499-.9026-1.7953-.7085-1.1381,.1944,.6577,.6342,1.4218-.0873,1.47-.7213,.0479,.5175,1.7094-.2203,1.7347-.2874,.0098-.8249,.4531-.9269,.9022-.1605,.705,.0009,1.7469,.1748,1.2079,.1087-.3397,.5686-.3496,.2683-.8534-.7946-1.3348,1.1405-.3945,1.4386-.4121Z"/><path d="M29.6976,42.4531c.2691-1.1423-.4072-.7909-.8422-1.5085-.3032-.3252-1.4262,.0439-1.4089-.5458,.0115-.3828,.2007-1.1572-.3603-1.1758-.6644-.0224-1.6431,.1212-1.9055-.1943-.437-.5262,.3679-1.0339-.1261-1.4773-.8339-.7489-.1039,2.5769,.3029,2.2527,.8526-.6787,1.3158,1.4588,2.0473,1.366,.8426-.1064,1.4807,1.4189,.4696,1.3868-1.0118-.0314-1.1377,1.6921-.4528,1.3981,1.4097-.6044,.7215,2.4705,1.2349,1.869,.8086-.9472,.8327-1.4265,1.4827-1.5487,1.4045-.2627-.6822-.8026-.4416-1.8221Z"/><path d="M27.4715,36.1433c-.8876-.3524-.5557,2.1727-.1883,1.1942,.3669-.9774,.5935-.3105,1.1267-.2977,.7501,.0166,.5322-1.1493,1.2857-1.2099,.7531-.0605-.5073-1.3543,.8617-1.4842,.5064-.0469-.1476-.8173-.341-.95-.4503-.3085,.674-.4462,.3224-.746-.3516-.2993-1.5067,1.4852-1.0645,2.1413,.4422,.6562-1.1151,1.7049-2.0028,1.3524Z"/><path d="M37.3347,40.7698c-.8684-.285-.3276-.4248-.559-.4941-1.3385-.4022,.2285-.7889-.9465-.9111-.46-.0479-.3565-1.1063,.1782-.578,.5848,.578,1.2679,.7871,1.1237,.4658-.4239-.9413,.2506-1.1005-.5996-1.3046-.8643-.207,.1445-.7089-.3771-.953-.4298-.2021-1.097,.0937-1.4016-.2783-.8153-.995,.3482-.3955,.5624-.2373,.445,.3272,.4604-.7177-.0201-.6494-.4948,.0713-1.187-.0713-.9839-.5536,.1265-.2997,.2621,.0986,.7775-.0644,.5158-.1641-.7105-.5147-.4624-1.1113,.2486-.5966-1.7412,.7724-1.6794-1.2158,.0176-.5692-.1873,.167-.6061,.0235-.2155-.0731,.1682,.4003-.249,.6708-.2966,.1924,.1939,.6973,.4411,.6573,.3386-.0558,.469,.3651,.8317,.4012,.4239,.043,.1949,.7275-.3358,.9365-.5868,.2304,.043,.9061-.4699,1.0799-.3838,.1289,.4282,1.1083-.6956,1.0292-.5946-.041,.0249,.6757-.7266,.8857-.1615,.0449-.4086,.2304-.1232,.8905,.0948,.2189-.4752,.5469-.5514,.7481-.1486,.3924,.0709,.6073,.7688,.1756,.4887-.3026-.1072-1.6355,.8906-1.7058,.3123-.0214-.0331,.3066,.7463,.4736,.7862,.1691-.0852-1.5555,.5298-1.5535,.8685,.0029-.0905-.7089,.7128-.9091,.376-.0937,1.0706,1.0194,.321,1.0624-.2587,.0146-.3186,.4082-.4508,.5839-.2918,.3867-.013,1.0019-.653,1.2402-1.0381,.3867-.4991,.5195-.7401,.665-.8029,.4834,.4326,1.3065,.3056,.8905-.0455-.1475-.1097-.4794,.0239-.7362,.1619-.3106,.8206-.7079,1.0951-.7354,.7943-.078,.5572,.6035,.0033,.9522-.4239,.2665-.2012,.7957,.3272,.576,.8034-.3349,.1184,.2706,.8594,.1768,.947-.1191,.8431,.9403-.3439,.5752-.7147-.2189-.2457,.9451-.8373,.9617-.2951,.0078-.012,.2423-.2678,.5342-.4455,.5098,.0416,1.6268,.0416,1.1278,.0006-.288,.5821-.3759,.106-.6395-.2041-.1122,.0388-.332,.6477-.4902,.8747-.2275,1.2637-.1601,1.3484-.5458,.082-.374,.4552-.4091,.8532-.5546,.3928-.1436-.3229-.2794-.2845-.5918,.0435-.3525,.4158-.2325-.2209-.7529-.1729-.1415-.0167-.374,.2348-.3017,.1561,.0449,.3544,.3643,.5211,.417,.6233,.2002,1.0759-.0898,.3344-.333Z"/><path d="M41.121,39.1363c-.0431-.4405,.7544-.5147-.025-.9043-.775-.3867-.0344-.9893-.2447-1.2148-.4843-.5195-1.497-.4775-1.6589-1.7362-.0465-.3612-.7266-.5683-1.382-.5107-.6338,.0546-.5361-1.1825-1.0007-.996-.4648,.1875,.8373,.7909-.0244,1.1356-.8613,.3438,2.0838,.5313,1.5707,1.2099-.2634,.3486,.3075,1.0156,.2089,1.4501-.1428,.6298,.0963,1.2049,.409,.9472,.3172-.2617,.7426-.5312,.8585-.4521,.2467,.167,.2473,.9247,.4805,.7782,.6361-.3984,.3143,.2079,.8053,.8524,.0621,.0821,.5312,.2519,.8752,.2118,1.0136-.12-.8202-.2402-.8724-.7712Z"/><path d="M28.7485,57.3784C12.9624,57.3784,.1196,44.5356,.1196,28.7495S12.9624,.1196,28.7485,.1196s28.6299,12.8428,28.6299,28.6299-12.8428,28.6289-28.6299,28.6289ZM28.7485,.686C13.2749,.686,.686,13.2758,.686,28.7495s12.5889,28.0625,28.0625,28.0625,28.0635-12.5889,28.0635-28.0625S44.2221,.686,28.7485,.686Z"/><path d="M28.7485,48.1665c-10.707,0-19.417-8.71-19.417-19.417S18.0415,9.3315,28.7485,9.3315s19.418,8.7109,19.418,19.418-8.7109,19.417-19.418,19.417Zm0-38.2686c-10.3945,0-18.8506,8.457-18.8506,18.8516s8.4561,18.8506,18.8506,18.8506,18.8516-8.4561,18.8516-18.8506S39.143,9.8979,28.7485,9.8979Z"/></svg>