<?xml version="1.0" encoding="UTF-8"?><svg id="a" xmlns="http://www.w3.org/2000/svg" width="20.2847mm" height="20.2847mm" viewBox="0 0 57.5 57.5"><defs><style>.b{opacity:.88;}</style></defs><polygon points="40.1877 25.2101 40.1882 25.2081 39.9868 25.1608 40.1877 25.2101"/><path class="b" d="M7.0663,24.6998l.0039-.0137-3.6338-2.2158,.1611-.6162,4.2383-.1016,.0039-.0137-3.9434-1.0303,.2061-.7861,4.7285,1.2363-.3379,1.2939-3.7852,.0527-.0029,.0137,3.2695,1.918-.3281,1.2539-4.7285-1.2354,.2051-.7861,3.9434,1.0303Z"/><path class="b" d="M7.6445,26.7233l-.0664,.8926-4.8672-.3613,.0664-.8926,4.8672,.3613Z"/><path class="b" d="M7.4911,28.5563l.0918,1.2715c.1094,1.5234-.6562,2.3936-2.2705,2.5098-1.6426,.1182-2.5098-.8027-2.6074-2.1582l-.0918-1.2715,4.8779-.3516Zm-4.1289,1.1963l.0225,.3008c.0723,1.0059,.79,1.4111,1.8594,1.334,1.0684-.0771,1.7207-.5811,1.6484-1.5869l-.0215-.3008-3.5088,.2529Z"/><path class="b" d="M7.9042,32.9586l.2939,1.0225-3.2383,2.623,.0039,.0137,3.6875-1.0615,.2256,.7803-4.6973,1.3525-.2969-1.0293,3.2139-2.6084-.0039-.0137-3.6611,1.0537-.2246-.7803,4.6973-1.3525Z"/><path class="b" d="M9.3154,37.2106l.375,.8145-4.4414,2.0449-.375-.8145,4.4414-2.0449Z"/><path class="b" d="M9.3466,41.7291l.8691,1.3203-2.1338,1.4043c-.249-.1377-.5869-.4346-.9365-.9668-.8613-1.3086-.4307-2.5889,.7793-3.3848,1.209-.7959,2.5557-.6846,3.417,.624,.3076,.4678,.4443,.9053,.4775,1.1094l-.6982,.4014c-.0117-.3359-.1221-.7324-.3682-1.1064-.5225-.7949-1.458-.791-2.3057-.2334-.917,.6035-1.2285,1.4033-.7246,2.1689,.1152,.1748,.2539,.3096,.3604,.3818l1.0986-.7227-.4082-.6191,.5732-.377Z"/><path class="b" d="M12.6562,42.6373l.6348,.6309-1.3994,1.4082,1.0264,1.0205,1.4004-1.4082,.6348,.6309-3.4404,3.4609-.6348-.6309,1.5176-1.5273-1.0264-1.0205-1.5176,1.5273-.6348-.6309,3.4395-3.4609Z"/><path class="b" d="M15.915,46.5084l-.8975-.6211,.4062-.5869,2.5254,1.748-.4062,.5869-.8916-.6172-2.373,3.4287-.7363-.5098,2.373-3.4287Z"/><path class="b" d="M18.2236,51.6119c.1211,.1689,.4092,.4873,.8506,.6631,.3643,.1455,.7695,.0742,.9512-.3809,.1299-.3252-.002-.5439-.3164-.9258l-.3291-.4023c-.3506-.4258-.5-.9004-.2666-1.4854,.3242-.8125,1.1621-.9678,1.9229-.6641,.4814,.1914,.7695,.4502,.8848,.541l-.3174,.6797c-.1699-.1582-.3896-.3818-.7734-.5342-.416-.166-.7188-.0312-.8428,.2812-.1348,.3379,.04,.5586,.2373,.8027l.3779,.4678c.4141,.5117,.5537,.8984,.2988,1.5361-.3682,.9229-1.2012,1.1025-2.0654,.7578-.4551-.1816-.7803-.3867-.9531-.6143l.3408-.7227Z"/><path class="b" d="M23.7275,49.36l-.6338,3.0967c-.1631,.7949,.0234,1.1045,.5371,1.209,.5,.1025,.7998-.1064,.9629-.9014l.6348-3.0967,.877,.1797-.6348,3.0967c-.2578,1.2607-1.0859,1.6045-1.9834,1.4209-.9043-.1855-1.5293-.8271-1.2705-2.0879l.6338-3.0967,.877,.1797Z"/><path class="b" d="M27.1259,49.9645l1.0645-.0166,1.6836,3.8135h.0137l-.0576-3.8379,.8115-.0127,.0752,4.8887-1.0713,.0166-1.6768-3.7852h-.0137l.0576,3.8096-.8115,.0127-.0752-4.8887Z"/><path class="b" d="M32.9452,49.5807l1.4707-.4023c.8359-.2295,1.5059-.0068,1.7422,.8564,.168,.6143-.1035,1.1309-.6074,1.3555l.0049,.0205c.1826-.0215,.4004,.0059,.6689,.4043l1.1055,1.626-.918,.251-.8838-1.4033c-.2168-.3398-.4727-.4004-.7891-.3135l-.1963,.0537,.5547,2.0225-.8633,.2363-1.2891-4.707Zm1.7754,1.7178c.458-.125,.7041-.4463,.5732-.9258-.1475-.5391-.4678-.5967-.9541-.4639l-.3506,.0967,.3809,1.3887,.3506-.0957Z"/><path class="b" d="M40.6962,50.6129l-1.502,.7588,.2178,1.209-.8008,.4043-.7402-5.1064,.876-.4424,3.6123,3.6562-.8262,.417-.8369-.8965Zm-.4785-.5273l-1.5801-1.7617-.0127,.0068,.4287,2.3418,1.1641-.5869Z"/><path class="b" d="M40.6083,46.3991l.8311-.665,3.667,1.9775,.0107-.0088-2.4004-2.9941,.6338-.5078,3.0566,3.8125-.835,.6709-3.6445-1.9609-.0107,.0088,2.3818,2.9717-.6338,.5088-3.0566-3.8135Z"/><path class="b" d="M44.0683,43.4967l.8057-.9863c.9648-1.1807,2.1172-1.2861,3.3682-.2646,1.2734,1.04,1.2715,2.3027,.4131,3.3535l-.8057,.9863-3.7812-3.0889Zm3.8174,1.9619l.1895-.2334c.6377-.7803,.3945-1.5654-.4346-2.2422-.8291-.6777-1.6475-.7588-2.2842,.0215l-.1904,.2324,2.7197,2.2217Z"/><path class="b" d="M47.5243,38.4235c.4639-.9023,1.5625-1.3848,3.125-.5801,1.5635,.8047,1.8096,1.9785,1.3447,2.8809-.4648,.9033-1.5635,1.3848-3.126,.5811-1.5625-.8047-1.8086-1.9785-1.3438-2.8818Zm3.8594,1.9873c.2598-.5049,.0381-1.1299-1.1572-1.7451s-1.833-.4316-2.0928,.0723c-.2588,.5039-.0381,1.1299,1.1572,1.7451s1.833,.4316,2.0928-.0723Z"/><path class="b" d="M48.7587,35.9616l.2764-1.0273,4.125-.5732,.0039-.0137-3.7041-.9951,.2109-.7842,4.7178,1.2676-.2773,1.0342-4.0967,.5732-.0039,.0137,3.6768,.9883-.21,.7842-4.7188-1.2676Z"/><path class="b" d="M49.829,31.5592l.0537-1.0625,3.9111-1.4287,.001-.0146-3.8301-.1924,.041-.8105,4.8779,.2451-.0537,1.0693-3.8828,1.4238-.001,.0137,3.8018,.1904-.041,.8115-4.8779-.2451Z"/><path class="b" d="M48.496,25.8649l-.1133-.8037,1.0967,.5664,.0762,.54-1.0596-.3027Zm1.4131,1.1504l-.3584-2.542,.7061-.0996,.2334,1.6553,1.2891-.1816-.2207-1.5654,.7061-.0996,.2207,1.5654,1.4268-.2012-.2432-1.7246,.707-.0996,.3682,2.6113-4.835,.6816Z"/><path class="b" d="M49.3564,23.653l-.7617-2.4531,.6816-.2119,.4961,1.5977,1.2432-.3857-.4688-1.5107,.6816-.2119,.4688,1.5107,1.377-.4277-.5166-1.6641,.6816-.2119,.7822,2.5205-4.665,1.4482Z"/><path d="M12.3757,13.8803c.2031-.042,.6113-.1768,.9512-.5098,.2803-.2744,.3789-.6738,.0361-1.0244-.2451-.25-.498-.2188-.9746-.085l-.502,.1387c-.5312,.1475-1.0264,.0928-1.4668-.3584-.6123-.625-.415-1.4551,.1709-2.0283,.3701-.3623,.7236-.5215,.8525-.5898l.4941,.5654c-.2139,.0918-.5068,.2021-.8027,.4912-.3203,.3135-.3184,.6455-.084,.8857,.2549,.2598,.5283,.1885,.8311,.1074l.5811-.1572c.6357-.1709,1.0469-.1416,1.5264,.3486,.6953,.7109,.5234,1.5459-.1426,2.1973-.3496,.3428-.6689,.5576-.9473,.623l-.5234-.6045Z"/><path d="M14.0085,8.1743l-.8975,.6221-.4062-.5869,2.5254-1.749,.4062,.5869-.8916,.6172,2.374,3.4287-.7363,.5098-2.374-3.4287Z"/><path d="M18.3415,4.8188c.9316-.4043,2.0869-.082,2.7881,1.5303s.1484,2.6777-.7832,3.082c-.9316,.4053-2.0879,.083-2.7881-1.5293-.7012-1.6123-.1484-2.6777,.7832-3.083Zm1.7314,3.9834c.5205-.2266,.7451-.8516,.209-2.085s-1.1465-1.4951-1.667-1.2686-.7451,.8506-.209,2.084,1.1465,1.4951,1.667,1.2695Z"/><path d="M22.2312,3.5122l1.4971-.2969c.8516-.168,1.5049,.1025,1.6787,.9814,.123,.625-.1855,1.1211-.7041,1.3096l.0039,.0205c.1836-.0078,.3994,.0352,.6387,.4512l.9854,1.7031-.9336,.1846-.7822-1.4648c-.1914-.3545-.4424-.4336-.7646-.3691l-.1992,.0391,.4072,2.0596-.8789,.1738-.9482-4.792Zm1.6494,1.8428c.4668-.0928,.7354-.3955,.6387-.8828-.1084-.5498-.4238-.6299-.9189-.5322l-.3564,.0713,.2793,1.4141,.3574-.0703Z"/><path d="M28.1853,2.7133l-.0479,3.166c-.0127,.8125,.2285,1.082,.7539,1.0908,.5107,.0078,.7676-.2549,.7793-1.0674l.0488-3.166,.8965,.0137-.0488,3.166c-.0195,1.2891-.7695,1.7822-1.6865,1.7676-.9248-.0137-1.6602-.5293-1.6396-1.8184l.0479-3.166,.8965,.0137Z"/><path d="M36.6355,4.7465l-.0137-.0039-2.2158,3.6338-.6162-.1611-.1016-4.2383-.0137-.0039-1.0303,3.9434-.7861-.2061,1.2363-4.7285,1.2939,.3379,.0527,3.7852,.0137,.0029,1.918-3.2695,1.2539,.3281-1.2354,4.7285-.7861-.2051,1.0303-3.9434Z"/><path d="M40.3444,9.6713l-1.4648-.8203-.8799,.8545-.7812-.4375,3.8145-3.4609,.8545,.4785-1.0127,5.0293-.8057-.4512,.2754-1.1924Zm.1699-.6904l.5771-2.291-.0117-.0059-1.7002,1.6611,1.1348,.6357Z"/><path d="M44.8532,8.2348l.791,.7119-1.3604,3.9385,.0107,.0098,2.5674-2.8516,.6035,.543-3.2695,3.6318-.7969-.7168,1.3467-3.9121-.0098-.0098-2.5488,2.8311-.6035-.5439,3.2695-3.6318Z"/><path d="M6.1327,17.441c.2598-.5215,.8887-.7305,1.4092-.4697,.5215,.2607,.7305,.8887,.4697,1.4092-.2598,.5215-.8887,.7305-1.4092,.4707-.5215-.2607-.7305-.8887-.4697-1.4102Z"/><path d="M51.1728,17.068c.2695,.5166,.0713,1.1484-.4453,1.418s-1.1484,.0703-1.418-.4463c-.2695-.5156-.0713-1.1484,.4453-1.417,.5166-.2695,1.1494-.0713,1.418,.4453Z"/><path d="M28.7497,57.3784C12.9626,57.3784,.1193,44.5356,.1193,28.7495S12.9626,.1196,28.7497,.1196s28.6289,12.8428,28.6289,28.6299-12.8428,28.6289-28.6289,28.6289ZM28.7497,.686C13.2761,.686,.6867,13.2758,.6867,28.7495s12.5894,28.0625,28.063,28.0625,28.0625-12.5889,28.0625-28.0625S44.2233,.686,28.7497,.686Z"/><path d="M28.7497,48.1665c-10.707,0-19.418-8.71-19.418-19.417S18.0427,9.3315,28.7497,9.3315s19.417,8.7109,19.417,19.418-8.71,19.417-19.417,19.417Zm0-38.2686c-10.3945,0-18.8516,8.457-18.8516,18.8516s8.457,18.8506,18.8516,18.8506,18.8506-8.4561,18.8506-18.8506S39.1442,9.8979,28.7497,9.8979Z"/><path d="M21.612,13.9383c.3044,.1085,.6087,.2172,.9132,.3254,.1707,.0607,.3418,.1203,.5125,.1809,.0229,.0081,.0447,.019,.0671,.0286l.0063,.0289c-.1138,.0416-.226,.0887-.342,.1226-.0596,.0174-.0897,.0386-.0962,.1042-.0165,.1669-.0409,.3331-.0635,.5101l.2263-.0145,.6979,4.8163-1.6607,.4326-.9849-5.0722,.1992-.0247c-.0446-.1446-.0839-.2806-.1309-.4139-.0058-.0166-.0523-.0271-.0796-.0265-.1145,.0024-.2289,.0141-.3433,.0141-.0535,0-.1071-.0187-.1879-.0342,.4141-.3539,.7643-.7363,1.2283-.9777h.0383Zm.8893,.7734l-1.3864,.2208,.1364,.4313,1.1812-.107,.0688-.5451Z"/><path d="M39.779,24.0425v.1841h-.9349l-.0084,.1611h1.0333l-.1537,1.1993c-.0362,0-.0698,0-.1034,0-.2518,0-.5036-.0006-.7554,.0009-.0275,.0002-.0622-.0044-.0897,.0024,.0017,.0105,.0106,.1041,.0123,.1145h.9322c.0119,.398,.0234,.7186,.0353,1.117h-1.001l-.0101,.1951s.6216,.0287,.9152,.0287c-.0194,.4109-.0384,.7087-.0581,1.1257h-.3862c-.1466,0-.5439-.0082-.5439-.0082l.0007,.1407h1.0775l-.0988,1.2029h-1.0399l-.0106,.2227h1.0054l-.1349,1.215h-.9216c-.0026,.0373-.0048,.1241-.0076,.1642h1.0182c-.0198,.4149-.0391,.7631-.059,1.1798h-.3277c-.1817,0-.6767-.0055-.6767-.0055,0,0-.0276,.0055-.0169,.1828h1.1871c-.0512,.3861-.1002,.6992-.1508,1.0811-.1088,0-.2132-.0005-.3175,.0001l-.7593,.0042-.012,.227,.9301-.019,.0143,.1564s.0454,.5457,.0679,.8186c.0039,.047,.0052,.0943,.0082,.1502-.0779,.0047-.1497,.0121-.2216,.0129-.2485,.0029-.8651-.001-.8651-.001l-.0058,.1312s.0006,.0624,.0006,.1004h.9154l.0391,1.2627h-1.0129l-.0089,.1364h.9755l-.1271,1.1312h-.8922c-.0057,.0423-.0098,.1339-.0149,.172h1.0554c-.0751,.3985-.1484,.7268-.225,1.1336-.1986,0-.8955,.0072-.8955,.0072,0,0,.0016,.2352,.0016,.2721h.9299c-.0374,.376-.0736,.6384-.1117,1.0213h-.8712v.2602h.9333c-.0197,.4127-.0389,.7173-.0585,1.1267-2.7951,0-8.3782,.0541-8.3782,.0541l-6.6785,.0139s-2.9179,.0298-4.0206,.0298l-.0518-1.2205h.6391c-.0022-.0338-.0037-.1428-.0056-.1719h-.7114c-.0121-.4233-.024-.7566-.0363-1.1875h.6984l-.0078-.1768h-.7692l-.175-1.1547h.8962l-.0079-.174h-.784l-.0501-1.1605h.7806v-.1321h-.7839c-.0355-.4278-.0699-.7858-.1057-1.2163,.0634,0,.1191-.0005,.1748,0,.1975,.0023,.6542,.0133,.6542,.0133l.0006-.1518h-.7799l-.0512-1.2387h.7832c0-.0376-.0106-.1946-.0106-.1946,0,0-.494,.0012-.6917,.0012-.034,0-.068,0-.1173,0v-1.0983h.759v-.1835h-.7841l-.0344-1.1365h.7608v-.2732h-.8417v-1.1795h.785v-.1826h-.7843l-.0521-1.14h.7839v-.1512h-.8225v-1.2389h.7638v-.155c-.0992,0-.194,0-.2888,0-.1402,0-.5115,.0007-.5115,.0007,0,0-.0643-.674-.1174-1.0631h.8605v-.2142h-.8262v-1.1625h.7714v-.1742h-.7765c-.0064-.1192-.0146-.37-.0146-.37,0,0,8.9221-2.1811,9.904-2.4164,.0806-.0193,.1754-.0041,.2586,.0159,1.0215,.246,10.5962,2.5805,10.5962,2.5805Zm-1.7386,5.4786h-3.9658l.0291-1.2229h3.9845l.0086-.1298h-3.9912c.0105-.4181,.0206-.7594,.0308-1.1683h.1763c1.2431,0,3.8203-.0274,3.8203-.0274l.0118-.1307h-3.9867c0-.4003,.0178-.724,.0178-1.1329,1.361,0,2.6848-.0066,4.0264-.0066l.0009-.1154c-.4411,0-.8822,0-1.3233,0-.4526,0-.9053,0-1.3579,0h-1.3319v-1.2229h4.0678l.0072-.1373h-4.059v-.242c.0807,0,.3118,.004,.3118,.004,0,0,.0078-.6667,.0078-.796l-10.3598-.0773,.0459,.8694c.0698,0,.3715,.0006,.3715,.0006,0,0,.0172,.2316,.0071,.2469h-4.1921c-.0294,.0997-.0022,.1772-.0022,.1772,0,0,2.7615-.0072,4.0939-.0072h.1323v1.1762h-4.1713v.1855h4.1927v1.0823h-4.1483c.003,.0479,.0053,.1137,.0079,.1561h4.1657c0,.4121-.0025,.7656-.0025,1.1819-1.3693,0-2.7391,.0518-4.1201,.0518l.0088,.1384,4.1405-.0782v1.2359h-4.0923v.1794h4.1162v1.2339l-4.0583-.0423v.2387c1.3625-.0241,4.087-.0534,4.087-.0534l.0061,1.1188s-2.6948,.0957-4.0475,.0957l.0093,.1589,4.0575-.098v1.2316h-4.0138l.0061,.1826h4.0295v1.2382h-3.9763l.0015,.1519s1.4012,.0095,2.0639,.0134c.4589,.0027,.9179,.0035,1.3768,.0048,.1836,.0005,.3672,0,.5644,0v1.1856h-3.9528v.13h3.9755v1.1616h-3.9235v.1826l3.9489-.0611v1.2088h-3.9108l.0134,.1632h3.9244v1.1457l-3.8716,.0429,.0145,.18s2.5366,0,3.7638,0h.1294v.9617h1.3281v-.745h6.2027v.7458h1.3366v-.9657h3.7576v-.2355l-3.7465,.0677c.0104-.4186,.0204-.7198,.0303-1.1211h3.7732v-.2474l-3.7706,.0912c.0101-.4196,.0198-.7615,.0296-1.1719l3.7976-.0594v-.1733l-3.7729,.0493v-1.2319l3.8295,.0307v-.1433h-3.8203l.0305-1.2481h3.8491c.0039-.0451,.0079-.0799,.0095-.1148,.0015-.0331,.0003-.0663,.0003-.1045l-3.8557,.039,.0293-1.2312,3.875,.0458c.0041-.0491,.0076-.1487,.0122-.2039l-3.8648,.0393v-1.1743l3.9093,.034,.0114-.1731h-3.9091c.0101-.4177,.0197-.7635,.0296-1.1735h3.9285c.0021-.0395,.0038-.1283,.0061-.1719h-3.9329l.0295-1.219h3.956l.0147-.2005Z"/><path d="M17.5528,24.0028l-.1261-.3876,3.2946-.8443c-.0014-.0057,.0883-.1352,.087-.1409-1.1955,.2856-2.5078,.594-3.7166,.8827-.1865-.4899-.3468-.8773-.5368-1.3761,.2109-.0553,.4125-.1089,.6146-.1608,1.6538-.4251,3.3078-.8496,4.9615-1.2747,2.2791-.5859,4.5579-1.1724,6.8375-1.7562,.0579-.0148,.1263-.0141,.1842,.0009,3.3522,.8679,6.7039,1.7379,10.0555,2.6082,.9418,.2446,1.8833,.4905,2.8249,.7359,.0303,.0079,.0601,.0173,.0982,.0284-.1774,.5467-.5148,1.5547-.5148,1.5547l-4.2159-1.1529,.2532,.2042,3.5331,1.0212-.0876,.2995c-.1837-.043-.3623-.0845-.5407-.1267-1.8229-.4308-3.5965-.911-5.4194-1.3417-1.7952-.4242-3.5916-.9285-5.3868-1.3527-.2475-.0585-.4946-.119-.7428-.1746-.0447-.01-.0959-.0094-.1407,.0012-3.383,.7986-6.7644,1.6792-10.1471,2.4789-.3863,.0913-.773,.1808-1.1691,.2734Z"/><polygon points="20.7635 42.8461 19.8354 41.9646 24.508 41.9427 33.4123 41.8802 38.9283 41.915 38.2496 42.6767 20.7635 42.8461"/><path d="M32.7824,24.0119c0,.4321-.0062,1.092-.0089,1.5152-.0017,.2675-.0102,.535-.0158,.8025-.0191,.9173-.0377,1.8347-.0577,2.752-.0114,.5223-.0253,1.0445-.0379,1.5668-.0192,.7896-.0382,1.5793-.0574,2.3689-.0191,.7865-.0382,1.573-.0574,2.3595-.0191,.7865-.0383,1.5729-.0573,2.3594-.0192,.7929-.0382,1.9529-.0579,2.7457-.001,.0406-.0082,.081-.0129,.1256h-6.1602c-.0048-.0896-.0127-.1772-.0137-.265-.0108-.8953-.0197-2.1578-.0308-3.0531-.0118-.9526-.0253-1.9051-.0381-2.8576-.0063-.4651-.0128-.9303-.019-1.3954-.0128-.9525-.0255-1.9051-.0383-2.8576-.0063-.4651-.0128-.9303-.0191-1.3954-.0128-.9525-.0255-1.9051-.0383-2.8576-.0063-.4651-.0129-.9302-.0189-1.3954-.0012-.0915,.008-.4198,.008-.5185h6.7316Zm-1.0394,1.6603h-2.1079v2.4504h2.0751l.0328-2.4504Zm-2.4086,2.4526v-2.4552h-1.9953v2.4552h1.9953Zm2.3738,.282h-.1116c-.6119,0-1.9433-.0019-1.9433-.0019,0,0-.0093,1.4563-.013,2.1287-.0003,.0594,0,.1187,0,.1798h2.0372l.0307-2.3067Zm-4.3568-.0196v2.3263h1.9723v-2.3263h-1.9723Z"/><path d="M33.7158,41.3335h-1.0873c0-.1165-.0016-.2235,.0003-.3303,.007-.3853,.0159-.7706,.0228-1.156,.0133-.7452,.0254-1.4905,.0386-2.2357,.0123-.6911,.0255-1.3821,.0381-2.0731,.013-.7134,.0254-1.4267,.0384-2.1401,.0125-.6815,.0256-1.363,.038-2.0445,.0131-.7197,.0254-1.4395,.0384-2.1592,.0125-.691,.0255-1.3821,.0381-2.0731,.0129-.7101,.0253-1.4203,.0385-2.1305,.0056-.3025,.0125-.605,.019-.9075,.0006-.0282,.0026-.0563,.0043-.0915h1.096c0,.1112,.0017,.2214-.0003,.3316-.0054,.2961-.0131,.5922-.0185,.8884-.0132,.7261-.0254,1.4522-.0386,2.1783-.0123,.6751-.0255,1.3502-.0381,2.0254-.0129,.6911-.0254,1.3821-.0384,2.0732-.0125,.6687-.0256,1.3374-.0381,2.0061-.013,.6942-.0255,1.3885-.0384,2.0827-.0126,.6751-.0255,1.3502-.0381,2.0253-.0129,.6879-.0248,1.3758-.0385,2.0636-.011,.5539-.024,1.1077-.0362,1.6668Z"/><path d="M26.0938,41.3288l-1.0583,.0412c0-.1511,.0015-.2932-.0003-.4353-.008-.6594-.016-1.3188-.0257-1.9781-.0118-.7994-.0253-1.5987-.038-2.3981-.0128-.8025-.0255-1.605-.0383-2.4076-.0128-.8026-.0255-1.6051-.0383-2.4077-.0127-.7994-.0255-1.5987-.0382-2.3981-.0128-.8025-.0255-1.605-.0383-2.4076-.0127-.7994-.026-1.5988-.0378-2.3982-.0027-.1807-.0004-.3616-.0004-.5485h1.0966c0,.1144-.001,.2248,.0002,.3352,.0083,.7773,.0165,1.5546,.0258,2.3319,.0054,.4554,.0128,.9109,.0189,1.3663,.0129,.9651,.0255,1.9302,.0384,2.8953,.0062,.4618,.0128,.9237,.019,1.3855,.0128,.9555,.0255,1.911,.0383,2.8666,.0062,.4618,.0128,.9237,.019,1.3855,.0129,.9555,.0255,1.911,.0384,2.8666,.0062,.4618,.0133,.9237,.0187,1.3855,.002,.1685,.0003,.337,.0003,.5195Z"/><path d="M24.4072,23.7841c-.0095-.1633-.0183-.2385-.027-.3885h9.9775v.4702l-9.9505-.0817Z"/></svg>