<?xml version="1.0" encoding="UTF-8"?><svg id="a" xmlns="http://www.w3.org/2000/svg" width="20.2847mm" height="20.2847mm" viewBox="0 0 57.5 57.5"><defs><style>.b{opacity:.88;}</style></defs><path class="b" d="M7.066,24.6998l.0039-.0137-3.6338-2.2158,.1611-.6162,4.2383-.1016,.0039-.0137-3.9434-1.0303,.2061-.7861,4.7285,1.2363-.3379,1.2939-3.7852,.0527-.0029,.0137,3.2695,1.918-.3281,1.2539-4.7285-1.2354,.2051-.7861,3.9434,1.0303Z"/><path class="b" d="M7.6441,26.7233l-.0664,.8926-4.8672-.3613,.0664-.8926,4.8672,.3613Z"/><path class="b" d="M7.4908,28.5563l.0918,1.2715c.1094,1.5234-.6562,2.3936-2.2705,2.5098-1.6426,.1182-2.5098-.8027-2.6074-2.1582l-.0918-1.2715,4.8779-.3516Zm-4.1289,1.1963l.0225,.3008c.0723,1.0059,.79,1.4111,1.8594,1.334,1.0684-.0771,1.7207-.5811,1.6484-1.5869l-.0215-.3008-3.5088,.2529Z"/><path class="b" d="M7.9039,32.9586l.2939,1.0225-3.2383,2.623,.0039,.0137,3.6875-1.0615,.2256,.7803-4.6973,1.3525-.2969-1.0293,3.2139-2.6084-.0039-.0137-3.6611,1.0537-.2246-.7803,4.6973-1.3525Z"/><path class="b" d="M9.315,37.2106l.375,.8145-4.4414,2.0449-.375-.8145,4.4414-2.0449Z"/><path class="b" d="M9.3463,41.7291l.8691,1.3203-2.1338,1.4043c-.249-.1377-.5869-.4346-.9365-.9668-.8613-1.3086-.4307-2.5889,.7793-3.3848,1.209-.7959,2.5557-.6846,3.417,.624,.3076,.4678,.4443,.9053,.4775,1.1094l-.6982,.4014c-.0117-.3359-.1221-.7324-.3682-1.1064-.5225-.7949-1.458-.791-2.3057-.2334-.917,.6035-1.2285,1.4033-.7246,2.1689,.1152,.1748,.2539,.3096,.3604,.3818l1.0986-.7227-.4082-.6191,.5732-.377Z"/><path class="b" d="M12.6558,42.6373l.6348,.6309-1.3994,1.4082,1.0264,1.0205,1.4004-1.4082,.6348,.6309-3.4404,3.4609-.6348-.6309,1.5176-1.5273-1.0264-1.0205-1.5176,1.5273-.6348-.6309,3.4395-3.4609Z"/><path class="b" d="M15.9146,46.5084l-.8975-.6211,.4062-.5869,2.5254,1.748-.4062,.5869-.8916-.6172-2.373,3.4287-.7363-.5098,2.373-3.4287Z"/><path class="b" d="M18.2232,51.6119c.1211,.1689,.4092,.4873,.8506,.6631,.3643,.1455,.7695,.0742,.9512-.3809,.1299-.3252-.002-.5439-.3164-.9258l-.3291-.4023c-.3506-.4258-.5-.9004-.2666-1.4854,.3242-.8125,1.1621-.9678,1.9229-.6641,.4814,.1914,.7695,.4502,.8848,.541l-.3174,.6797c-.1699-.1582-.3896-.3818-.7734-.5342-.416-.166-.7188-.0312-.8428,.2812-.1348,.3379,.04,.5586,.2373,.8027l.3779,.4678c.4141,.5117,.5537,.8984,.2988,1.5361-.3682,.9229-1.2012,1.1025-2.0654,.7578-.4551-.1816-.7803-.3867-.9531-.6143l.3408-.7227Z"/><path class="b" d="M23.7271,49.36l-.6338,3.0967c-.1631,.7949,.0234,1.1045,.5371,1.209,.5,.1025,.7998-.1064,.9629-.9014l.6348-3.0967,.877,.1797-.6348,3.0967c-.2578,1.2607-1.0859,1.6045-1.9834,1.4209-.9043-.1855-1.5293-.8271-1.2705-2.0879l.6338-3.0967,.877,.1797Z"/><path class="b" d="M27.1255,49.9645l1.0645-.0166,1.6836,3.8135h.0137l-.0576-3.8379,.8115-.0127,.0752,4.8887-1.0713,.0166-1.6768-3.7852h-.0137l.0576,3.8096-.8115,.0127-.0752-4.8887Z"/><path class="b" d="M32.9449,49.5807l1.4707-.4023c.8359-.2295,1.5059-.0068,1.7422,.8564,.168,.6143-.1035,1.1309-.6074,1.3555l.0049,.0205c.1826-.0215,.4004,.0059,.6689,.4043l1.1055,1.626-.918,.251-.8838-1.4033c-.2168-.3398-.4727-.4004-.7891-.3135l-.1963,.0537,.5547,2.0225-.8633,.2363-1.2891-4.707Zm1.7754,1.7178c.458-.125,.7041-.4463,.5732-.9258-.1475-.5391-.4678-.5967-.9541-.4639l-.3506,.0967,.3809,1.3887,.3506-.0957Z"/><path class="b" d="M40.6959,50.6129l-1.502,.7588,.2178,1.209-.8008,.4043-.7402-5.1064,.876-.4424,3.6123,3.6562-.8262,.417-.8369-.8965Zm-.4785-.5273l-1.5801-1.7617-.0127,.0068,.4287,2.3418,1.1641-.5869Z"/><path class="b" d="M40.608,46.3991l.8311-.665,3.667,1.9775,.0107-.0088-2.4004-2.9941,.6338-.5078,3.0566,3.8125-.835,.6709-3.6445-1.9609-.0107,.0088,2.3818,2.9717-.6338,.5088-3.0566-3.8135Z"/><path class="b" d="M44.0679,43.4967l.8057-.9863c.9648-1.1807,2.1172-1.2861,3.3682-.2646,1.2734,1.04,1.2715,2.3027,.4131,3.3535l-.8057,.9863-3.7812-3.0889Zm3.8174,1.9619l.1895-.2334c.6377-.7803,.3945-1.5654-.4346-2.2422-.8291-.6777-1.6475-.7588-2.2842,.0215l-.1904,.2324,2.7197,2.2217Z"/><path class="b" d="M47.524,38.4235c.4639-.9023,1.5625-1.3848,3.125-.5801,1.5635,.8047,1.8096,1.9785,1.3447,2.8809-.4648,.9033-1.5635,1.3848-3.126,.5811-1.5625-.8047-1.8086-1.9785-1.3438-2.8818Zm3.8594,1.9873c.2598-.5049,.0381-1.1299-1.1572-1.7451s-1.833-.4316-2.0928,.0723c-.2588,.5039-.0381,1.1299,1.1572,1.7451s1.833,.4316,2.0928-.0723Z"/><path class="b" d="M48.7584,35.9616l.2764-1.0273,4.125-.5732,.0039-.0137-3.7041-.9951,.2109-.7842,4.7178,1.2676-.2773,1.0342-4.0967,.5732-.0039,.0137,3.6768,.9883-.21,.7842-4.7188-1.2676Z"/><path class="b" d="M49.8287,31.5592l.0537-1.0625,3.9111-1.4287,.001-.0146-3.8301-.1924,.041-.8105,4.8779,.2451-.0537,1.0693-3.8828,1.4238-.001,.0137,3.8018,.1904-.041,.8115-4.8779-.2451Z"/><path class="b" d="M48.4957,25.8649l-.1133-.8037,1.0967,.5664,.0762,.54-1.0596-.3027Zm1.4131,1.1504l-.3584-2.542,.7061-.0996,.2334,1.6553,1.2891-.1816-.2207-1.5654,.7061-.0996,.2207,1.5654,1.4268-.2012-.2432-1.7246,.707-.0996,.3682,2.6113-4.835,.6816Z"/><path class="b" d="M49.356,23.653l-.7617-2.4531,.6816-.2119,.4961,1.5977,1.2432-.3857-.4688-1.5107,.6816-.2119,.4688,1.5107,1.377-.4277-.5166-1.6641,.6816-.2119,.7822,2.5205-4.665,1.4482Z"/><path d="M19.2717,4.5024l1.0625,2.9795c.2725,.7646,.5928,.9326,1.0869,.7568,.4814-.1719,.6289-.5068,.3564-1.2715l-1.0615-2.9795,.8438-.3008,1.0615,2.9795c.4326,1.2129-.0967,1.9365-.96,2.2441-.8701,.3105-1.7383,.085-2.1709-1.1279l-1.0625-2.9795,.8438-.3008Z"/><path d="M27.8674,3.5131l-.0137,.001-.8389,4.1729-.6348,.0596-1.5459-3.9482-.0137,.001,.3818,4.0586-.8096,.0762-.458-4.8672,1.332-.126,1.3457,3.5391,.0146-.001,.6826-3.7295,1.29-.1221,.458,4.8672-.8086,.0762-.3818-4.0576Z"/><path d="M30.9113,2.7876l2.5479,.3301-.0918,.708-1.6592-.2148-.168,1.291,1.5693,.2041-.0918,.708-1.5693-.2031-.1855,1.4297,1.7285,.2246-.0918,.708-2.6172-.3398,.6289-4.8457Z"/><path d="M36.6926,7.8764l-1.5938-.5381-.708,1.0029-.8496-.2871,3.1182-4.1084,.9297,.3145-.0723,5.1377-.876-.2969,.0518-1.2246Zm.04-.7109l.1475-2.3613-.0137-.0049-1.3682,1.9492,1.2344,.417Zm.9609-4.6602c.3916,.1328,.6025,.5586,.4707,.9502-.1328,.3916-.5586,.6025-.9502,.4707-.3916-.1328-.6025-.5586-.4707-.9502,.1328-.3916,.5586-.6025,.9502-.4707Zm-.3672,1.0889c.2051,.0693,.4365-.0449,.5059-.251,.0693-.2051-.0449-.4365-.251-.5059-.2051-.0693-.4365,.0449-.5059,.251-.0693,.2051,.0449,.4365,.251,.5059Z"/><path d="M6.1324,17.441c.2598-.5215,.8887-.7305,1.4092-.4697,.5215,.2607,.7305,.8887,.4697,1.4092-.2598,.5215-.8887,.7305-1.4092,.4707-.5215-.2607-.7305-.8887-.4697-1.4102Z"/><path d="M51.1724,17.068c.2695,.5166,.0713,1.1484-.4453,1.418s-1.1484,.0703-1.418-.4463c-.2695-.5156-.0713-1.1484,.4453-1.417,.5166-.2695,1.1494-.0713,1.418,.4453Z"/><path d="M16.2983,31.2687c.4017,.6289,.5088,1.2939,1.3075,1.8544-.0856,.0749-.2164,.0596-.2588,.2183,.613,.5394,1.989,.9718,1.902,1.5975,1.4253,.511,2.9645,1.1157,3.5873,1.8125-.7745,1.4606-2.5457,2.6904-3.3551,3.8192-.2438,.3393-.3179,1.5794,.4087,1.9001,.7485-1.6263,2.4675-3.6413,3.9113-4.7524,2.1105,2.1351,5.8166,2.4232,8.3013,2.5013-.1122-.8611,.7573-.5897,1.7697-.4831,.0284-1.3094,.9714-.6489,1.4611-1.0357,.0368-.2304,.0606-.5028-.0339-.7206,.4371-.066,.5222-.0176,.9263-.1773,.0088-.1545-.2607-.2774-.1648-.4427,.7926-.0805,.9472-.3817,1.4625-.9309-.5474-.309-1.0069-.6303-1.3769-.9636,.2667-.2113,.9398-.2276,1.1655-.565-.3073-.1438-.7364-.3831-.7922-.5591,.5217-.0386,.6107-.2708,.9267-.5231,.0177-.2323-.1778-.4059-.1689-.5731,.208-.1033,.4692-.0554,.64-.2709,.2117-.3882,.532-.9421,.9323-1.1361-.5535-.5726-1.0012-.8919-1.6324-1.133,.3672-.3999,.29-.7396,.6181-1.1389-.363-.1584-.6386-.0601-1.0356-.3171,.4496-.5813,1.0771-.6539,1.5397-1.2358-.1471-.1377-1.0636-.5301-.9444-.7084,.5795-.2927,.9375-.5982,1.315-1.0771-.7308-.4887-1.3662-.4715-1.7823-.8589,.5749-.6759,.8495-1.4188,1.0445-2.2598-.3379,.1531-.7732,.0027-1.2149-.1676,.2621-.8275,.9165-1.3326,1.0026-2.2003-.2597,.0429-.5822-.1117-.8922-.2276,.2876-.2802,.8043-1.2088,1.2754-1.7832-.1913-.2644-.6499,.0214-.5558-.2947,.3924-.7099,.924-1.4532,.6796-2.0592-1.0474,.2806-1.8884,1.1762-2.7957,1.8116-.1852-.1513-.1457-.3449-.4338-.4781-.6582,.7369-.5325,1.2578-1.105,1.6245-.3231-.0618-.2998-.6977-.553-.29-.3343,.1942-.5618,1.0311-1.0082,1.4965-.189-.2472-.5874-.4576-.7024-.7192-.613,.2807-.9854,1.2032-1.6836,1.2186-.2449-.3607-.6754-.6903-1.0887-1.024-.352,.4641-1.2912,1.3545-1.4188,1.0929-.3682,.1964-.2519,.8048-.7457,.9542-.2351-.1568-.3831-.3296-.5437-.4999-.303,.3137-.6497,.512-.8876,.9728-.4776-.9659-1.3373-.3901-2.0826-1.3741-.2379,.4423-.917,1.1568-1.0599,1.0841-.0721,.534-.3538,.271-.4543,.9194-.2923-.2239-.3956-.0191-.6879-.243-.378,.694-.4287,1.3238-.5987,1.9671-.0824-.1983-.4985-.3394-.7968-.5008-.4334,.1755-.5325,1.0668-.9696,1.2186-.3011-.4627-1.3102-.4143-1.6319-.9128-.2002,.4947-.1778,1.1516-.7215,1.3075,.1121,.4161,.2304,.8285,.3663,1.2354-.2467-.0261-1.1269,.0735-1.2945,.2043,.2579,.3827,1.0274,1.7405,1.0366,2.0858-.1829-.0102-.3808-.0498-.4645,.1364,.317,.4455,.8188,.8597,.8966,1.335-.2454-.0387-.4226,.0564-.54,.269Zm8.5414,3.6828c1.1642-1.6269,1.139-1.2912,1.6794-1.9266,1.3197-1.5523,1.8899-2.0588,2.6984-3.2443,1.0571-1.5496,3.3788-5.0155,3.5925-5.0351,.2132-.02-3.846,6.9695-3.846,6.9695-.5977,.8974-1.9415,1.9303-3.068,3.1763-.895,.992-1.7941,1.6856-2.355,1.728-.4902,.0373,.2104-.3547,1.2986-1.6678Z"/><path d="M28.7487,57.3784C12.9621,57.3784,.1188,44.5356,.1188,28.7495S12.9621,.1196,28.7487,.1196s28.6304,12.8428,28.6304,28.6299-12.8438,28.6289-28.6304,28.6289ZM28.7487,.686C13.2751,.686,.6862,13.2758,.6862,28.7495s12.5889,28.0625,28.0625,28.0625,28.063-12.5889,28.063-28.0625S44.2229,.686,28.7487,.686Z"/><path d="M28.7487,48.1665c-10.7065,0-19.4175-8.71-19.4175-19.417S18.0422,9.3315,28.7487,9.3315s19.418,8.7109,19.418,19.418-8.7109,19.417-19.418,19.417Zm0-38.2686c-10.394,0-18.8501,8.457-18.8501,18.8516s8.4561,18.8506,18.8501,18.8506,18.8506-8.4561,18.8506-18.8506S39.1433,9.8979,28.7487,9.8979Z"/></svg>