<?xml version="1.0" encoding="utf-8"?>
<!-- Generator: Adobe Illustrator 26.0.3, SVG Export Plug-In . SVG Version: 6.00 Build 0)  -->
<svg version="1.1" id="Lager_1" xmlns="http://www.w3.org/2000/svg" xmlns:xlink="http://www.w3.org/1999/xlink" x="0px" y="0px"
	 viewBox="0 0 57.5 57.5" style="enable-background:new 0 0 57.5 57.5;" xml:space="preserve">
<style type="text/css">
	.st0{fill:none;}
	.st1{opacity:0.88;}
</style>
<polygon class="st0" points="40.2,25.2 40.2,25.2 40,25.2 "/>
<path class="st1" d="M7.1,24.7L7.1,24.7l-3.6-2.2l0.2-0.6l4.2-0.1l0,0l-3.9-1l0.2-0.8l4.7,1.2l-0.3,1.3l-3.8,0.1l0,0L8,24.5
	l-0.3,1.3l-4.7-1.2l0.2-0.8L7.1,24.7z"/>
<path class="st1" d="M7.7,26.7l-0.1,0.9l-4.9-0.4l0.1-0.9L7.7,26.7z"/>
<path class="st1" d="M7.5,28.6l0.1,1.3c0.1,1.5-0.7,2.4-2.3,2.5c-1.6,0.1-2.5-0.8-2.6-2.2l-0.1-1.3L7.5,28.6z M3.4,29.8l0,0.3
	c0.1,1,0.8,1.4,1.9,1.3c1.1-0.1,1.7-0.6,1.6-1.6l0-0.3L3.4,29.8z"/>
<path class="st1" d="M7.9,33l0.3,1L5,36.6l0,0l3.7-1.1l0.2,0.8l-4.7,1.4l-0.3-1l3.2-2.6l0,0l-3.7,1.1l-0.2-0.8L7.9,33z"/>
<path class="st1" d="M9.3,37.2L9.7,38l-4.4,2l-0.4-0.8L9.3,37.2z"/>
<path class="st1" d="M9.4,41.8l0.9,1.3l-2.1,1.4c-0.2-0.1-0.6-0.4-0.9-1c-0.9-1.3-0.4-2.6,0.8-3.4c1.2-0.8,2.6-0.7,3.4,0.6
	c0.3,0.5,0.4,0.9,0.5,1.1l-0.7,0.4c0-0.3-0.1-0.7-0.4-1.1c-0.5-0.8-1.5-0.8-2.3-0.2c-0.9,0.6-1.2,1.4-0.7,2.2
	c0.1,0.2,0.3,0.3,0.4,0.4l1.1-0.7l-0.4-0.6L9.4,41.8z"/>
<path class="st1" d="M12.7,42.7l0.6,0.6l-1.4,1.4l1,1l1.4-1.4l0.6,0.6l-3.4,3.5l-0.6-0.6l1.5-1.5l-1-1l-1.5,1.5l-0.6-0.6L12.7,42.7z
	"/>
<path class="st1" d="M15.9,46.5L15,45.9l0.4-0.6l2.5,1.7l-0.4,0.6L16.7,47l-2.4,3.4L13.6,50L15.9,46.5z"/>
<path class="st1" d="M18.2,51.6c0.1,0.2,0.4,0.5,0.9,0.7c0.4,0.1,0.8,0.1,1-0.4c0.1-0.3,0-0.5-0.3-0.9l-0.3-0.4
	c-0.4-0.4-0.5-0.9-0.3-1.5c0.3-0.8,1.2-1,1.9-0.7c0.5,0.2,0.8,0.5,0.9,0.5l-0.3,0.7c-0.2-0.2-0.4-0.4-0.8-0.5
	c-0.4-0.2-0.7,0-0.8,0.3c-0.1,0.3,0,0.6,0.2,0.8l0.4,0.5c0.4,0.5,0.6,0.9,0.3,1.5c-0.4,0.9-1.2,1.1-2.1,0.8c-0.5-0.2-0.8-0.4-1-0.6
	L18.2,51.6z"/>
<path class="st1" d="M23.8,49.4l-0.6,3.1c-0.2,0.8,0,1.1,0.5,1.2c0.5,0.1,0.8-0.1,1-0.9l0.6-3.1l0.9,0.2L25.5,53
	c-0.3,1.3-1.1,1.6-2,1.4c-0.9-0.2-1.5-0.8-1.3-2.1l0.6-3.1L23.8,49.4z"/>
<path class="st1" d="M27.1,50l1.1,0l1.7,3.8h0l-0.1-3.8l0.8,0l0.1,4.9l-1.1,0L28,51.1h0l0.1,3.8l-0.8,0L27.1,50z"/>
<path class="st1" d="M33,49.6l1.5-0.4c0.8-0.2,1.5,0,1.7,0.9c0.2,0.6-0.1,1.1-0.6,1.4l0,0c0.2,0,0.4,0,0.7,0.4l1.1,1.6l-0.9,0.3
	l-0.9-1.4c-0.2-0.3-0.5-0.4-0.8-0.3l-0.2,0.1l0.6,2l-0.9,0.2L33,49.6z M34.7,51.3c0.5-0.1,0.7-0.4,0.6-0.9c-0.1-0.5-0.5-0.6-1-0.5
	L34,50l0.4,1.4L34.7,51.3z"/>
<path class="st1" d="M40.7,50.6l-1.5,0.8l0.2,1.2L38.6,53l-0.7-5.1l0.9-0.4l3.6,3.7l-0.8,0.4L40.7,50.6z M40.2,50.1l-1.6-1.8l0,0
	l0.4,2.3L40.2,50.1z"/>
<path class="st1" d="M40.6,46.4l0.8-0.7l3.7,2l0,0l-2.4-3l0.6-0.5l3.1,3.8l-0.8,0.7l-3.6-2l0,0l2.4,3l-0.6,0.5L40.6,46.4z"/>
<path class="st1" d="M44.1,43.5l0.8-1c1-1.2,2.1-1.3,3.4-0.3c1.3,1,1.3,2.3,0.4,3.4l-0.8,1L44.1,43.5z M47.9,45.5l0.2-0.2
	c0.6-0.8,0.4-1.6-0.4-2.2c-0.8-0.7-1.6-0.8-2.3,0l-0.2,0.2L47.9,45.5z"/>
<path class="st1" d="M47.5,38.4c0.5-0.9,1.6-1.4,3.1-0.6c1.6,0.8,1.8,2,1.3,2.9c-0.5,0.9-1.6,1.4-3.1,0.6
	C47.3,40.5,47.1,39.3,47.5,38.4z M51.4,40.4c0.3-0.5,0-1.1-1.2-1.7s-1.8-0.4-2.1,0.1c-0.3,0.5,0,1.1,1.2,1.7S51.1,40.9,51.4,40.4z"
	/>
<path class="st1" d="M48.8,36l0.3-1l4.1-0.6l0,0l-3.7-1l0.2-0.8l4.7,1.3l-0.3,1L50,35.5l0,0l3.7,1l-0.2,0.8L48.8,36z"/>
<path class="st1" d="M49.9,31.6l0.1-1.1l3.9-1.4l0,0L50,28.9l0-0.8l4.9,0.2l-0.1,1.1L51,30.8l0,0l3.8,0.2l0,0.8L49.9,31.6z"/>
<path class="st1" d="M48.5,25.9l-0.1-0.8l1.1,0.6l0.1,0.5L48.5,25.9z M49.9,27l-0.4-2.5l0.7-0.1l0.2,1.7l1.3-0.2l-0.2-1.6l0.7-0.1
	l0.2,1.6l1.4-0.2l-0.2-1.7l0.7-0.1l0.4,2.6L49.9,27z"/>
<path class="st1" d="M49.4,23.7l-0.8-2.5l0.7-0.2l0.5,1.6l1.2-0.4l-0.5-1.5l0.7-0.2l0.5,1.5l1.4-0.4l-0.5-1.7l0.7-0.2l0.8,2.5
	L49.4,23.7z"/>
<path d="M12.4,13.9c0.2,0,0.6-0.2,1-0.5c0.3-0.3,0.4-0.7,0-1c-0.2-0.2-0.5-0.2-1-0.1l-0.5,0.1c-0.5,0.1-1,0.1-1.5-0.4
	c-0.6-0.6-0.4-1.5,0.2-2c0.4-0.4,0.7-0.5,0.9-0.6L12,10c-0.2,0.1-0.5,0.2-0.8,0.5c-0.3,0.3-0.3,0.6-0.1,0.9c0.3,0.3,0.5,0.2,0.8,0.1
	l0.6-0.2c0.6-0.2,1-0.1,1.5,0.3c0.7,0.7,0.5,1.5-0.1,2.2c-0.3,0.3-0.7,0.6-0.9,0.6L12.4,13.9z"/>
<path d="M14,8.2l-0.9,0.6l-0.4-0.6l2.5-1.7l0.4,0.6l-0.9,0.6l2.4,3.4l-0.7,0.5L14,8.2z"/>
<path d="M18.4,4.8c0.9-0.4,2.1-0.1,2.8,1.5s0.1,2.7-0.8,3.1c-0.9,0.4-2.1,0.1-2.8-1.5C16.9,6.3,17.4,5.2,18.4,4.8z M20.1,8.8
	c0.5-0.2,0.7-0.9,0.2-2.1s-1.1-1.5-1.7-1.3s-0.7,0.9-0.2,2.1S19.6,9.1,20.1,8.8z"/>
<path d="M22.3,3.5l1.5-0.3c0.9-0.2,1.5,0.1,1.7,1c0.1,0.6-0.2,1.1-0.7,1.3l0,0c0.2,0,0.4,0,0.6,0.5l1,1.7l-0.9,0.2l-0.8-1.5
	c-0.2-0.4-0.4-0.4-0.8-0.4l-0.2,0l0.4,2.1l-0.9,0.2L22.3,3.5z M23.9,5.4c0.5-0.1,0.7-0.4,0.6-0.9c-0.1-0.5-0.4-0.6-0.9-0.5L23.3,4
	l0.3,1.4L23.9,5.4z"/>
<path d="M28.2,2.7l0,3.2c0,0.8,0.2,1.1,0.8,1.1c0.5,0,0.8-0.3,0.8-1.1l0-3.2l0.9,0l0,3.2c0,1.3-0.8,1.8-1.7,1.8
	c-0.9,0-1.7-0.5-1.6-1.8l0-3.2L28.2,2.7z"/>
<path d="M36.7,4.8L36.7,4.8l-2.2,3.6l-0.6-0.2L33.7,4l0,0l-1,3.9l-0.8-0.2L33.1,3l1.3,0.3l0.1,3.8l0,0l1.9-3.3l1.3,0.3l-1.2,4.7
	l-0.8-0.2L36.7,4.8z"/>
<path d="M40.4,9.7l-1.5-0.8L38,9.7l-0.8-0.4l3.8-3.5l0.9,0.5l-1,5l-0.8-0.5L40.4,9.7z M40.5,9l0.6-2.3l0,0l-1.7,1.7L40.5,9z"/>
<path d="M44.9,8.3L45.7,9l-1.4,3.9l0,0l2.6-2.9l0.6,0.5l-3.3,3.6l-0.8-0.7l1.3-3.9l0,0l-2.5,2.8l-0.6-0.5L44.9,8.3z"/>
<path d="M6.2,17.5C6.4,16.9,7,16.7,7.6,17c0.5,0.3,0.7,0.9,0.5,1.4c-0.3,0.5-0.9,0.7-1.4,0.5C6.1,18.6,5.9,18,6.2,17.5z"/>
<path d="M51.2,17.1c0.3,0.5,0.1,1.1-0.4,1.4s-1.1,0.1-1.4-0.4c-0.3-0.5-0.1-1.1,0.4-1.4C50.3,16.4,50.9,16.6,51.2,17.1z"/>
<path d="M28.8,57.4C13,57.4,0.1,44.6,0.1,28.8C0.1,13,13,0.1,28.8,0.1c15.8,0,28.6,12.8,28.6,28.6C57.4,44.6,44.6,57.4,28.8,57.4z
	 M28.8,0.7C13.3,0.7,0.7,13.3,0.7,28.8s12.6,28.1,28.1,28.1s28.1-12.6,28.1-28.1S44.2,0.7,28.8,0.7z"/>
<path d="M28.8,48.2c-10.7,0-19.4-8.7-19.4-19.4S18.1,9.4,28.8,9.4s19.4,8.7,19.4,19.4S39.5,48.2,28.8,48.2z M28.8,9.9
	c-10.4,0-18.9,8.5-18.9,18.9s8.5,18.9,18.9,18.9s18.9-8.5,18.9-18.9S39.2,9.9,28.8,9.9z"/>
<path d="M21.6,14c0.3,0.1,0.6,0.2,0.9,0.3c0.2,0.1,0.3,0.1,0.5,0.2c0,0,0,0,0.1,0c0,0,0,0,0,0c-0.1,0-0.2,0.1-0.3,0.1
	c-0.1,0-0.1,0-0.1,0.1c0,0.2,0,0.3-0.1,0.5c0.1,0,0.1,0,0.2,0c0.2,1.6,0.5,3.2,0.7,4.8c-0.6,0.1-1.1,0.3-1.7,0.4
	c-0.3-1.7-0.7-3.4-1-5.1c0.1,0,0.1,0,0.2,0c0-0.1-0.1-0.3-0.1-0.4c0,0-0.1,0-0.1,0c-0.1,0-0.2,0-0.3,0c-0.1,0-0.1,0-0.2,0
	C20.8,14.6,21.1,14.2,21.6,14C21.6,14,21.6,14,21.6,14z M22.5,14.7c-0.5,0.1-0.9,0.1-1.4,0.2c0,0.1,0.1,0.3,0.1,0.4
	c0.4,0,0.8-0.1,1.2-0.1C22.5,15.1,22.5,14.9,22.5,14.7z"/>
<path d="M39.8,24.1c0,0,0,0.1,0,0.2c-0.3,0-0.6,0-0.9,0c0,0.1,0,0.1,0,0.2c0.3,0,0.7,0,1,0c-0.1,0.4-0.1,0.8-0.2,1.2
	c0,0-0.1,0-0.1,0c-0.3,0-0.5,0-0.8,0c0,0-0.1,0-0.1,0c0,0,0,0.1,0,0.1c0.3,0,0.6,0,0.9,0c0,0.4,0,0.7,0,1.1c-0.3,0-1,0-1,0l0,0.2
	c0,0,0.6,0,0.9,0c0,0.4,0,0.7-0.1,1.1c-0.1,0-0.3,0-0.4,0c-0.1,0-0.5,0-0.5,0l0,0.1c0,0,0.7,0,1.1,0c0,0.4-0.1,0.8-0.1,1.2
	c-0.3,0-0.7,0-1,0c0,0.1,0,0.1,0,0.2c0.3,0,0.7,0,1,0c0,0.4-0.1,0.8-0.1,1.2c-0.3,0-0.6,0-0.9,0c0,0,0,0.1,0,0.2c0.3,0,0.7,0,1,0
	c0,0.4,0,0.8-0.1,1.2c-0.1,0-0.2,0-0.3,0c-0.2,0-0.7,0-0.7,0s0,0,0,0.2c0.4,0,0.8,0,1.2,0c-0.1,0.4-0.1,0.7-0.2,1.1
	c-0.1,0-0.2,0-0.3,0c-0.2,0-0.8,0-0.8,0l0,0.2l0.9,0l0,0.2c0,0,0,0.5,0.1,0.8c0,0,0,0.1,0,0.2c-0.1,0-0.1,0-0.2,0
	c-0.2,0-0.9,0-0.9,0l0,0.1c0,0,0,0.1,0,0.1c0.3,0,0.6,0,0.9,0c0,0.4,0,0.8,0,1.3c-0.3,0-0.7,0-1,0c0,0,0,0.1,0,0.1c0.3,0,0.6,0,1,0
	c0,0.4-0.1,0.8-0.1,1.1c-0.3,0-0.6,0-0.9,0c0,0,0,0.1,0,0.2c0.4,0,0.7,0,1.1,0c-0.1,0.4-0.1,0.7-0.2,1.1c-0.2,0-0.9,0-0.9,0
	s0,0.2,0,0.3c0.3,0,0.6,0,0.9,0c0,0.4-0.1,0.6-0.1,1c-0.3,0-0.6,0-0.9,0c0,0.1,0,0.2,0,0.3c0.3,0,0.6,0,0.9,0c0,0.4,0,0.7-0.1,1.1
	c-2.8,0-8.4,0.1-8.4,0.1l-6.7,0c0,0-2.9,0-4,0c0-0.4,0-0.8-0.1-1.2c0.2,0,0.4,0,0.6,0c0,0,0-0.1,0-0.2c-0.2,0-0.5,0-0.7,0
	c0-0.4,0-0.8,0-1.2c0.2,0,0.5,0,0.7,0c0-0.1,0-0.1,0-0.2c-0.3,0-0.5,0-0.8,0c-0.1-0.4-0.1-0.8-0.2-1.2c0.3,0,0.6,0,0.9,0
	c0-0.1,0-0.1,0-0.2c-0.3,0-0.5,0-0.8,0c0-0.4,0-0.8-0.1-1.2c0.3,0,0.5,0,0.8,0c0,0,0-0.1,0-0.1c-0.3,0-0.5,0-0.8,0
	c0-0.4-0.1-0.8-0.1-1.2c0.1,0,0.1,0,0.2,0c0.2,0,0.7,0,0.7,0l0-0.2c0,0-0.5,0-0.8,0c0-0.4,0-0.8-0.1-1.2c0.3,0,0.5,0,0.8,0
	c0,0,0-0.2,0-0.2s-0.5,0-0.7,0c0,0-0.1,0-0.1,0c0-0.4,0-0.7,0-1.1c0.2,0,0.5,0,0.8,0c0-0.1,0-0.1,0-0.2c-0.3,0-0.5,0-0.8,0
	c0-0.4,0-0.7,0-1.1c0.3,0,0.5,0,0.8,0c0-0.1,0-0.2,0-0.3c-0.3,0-0.6,0-0.8,0c0-0.4,0-0.8,0-1.2c0.3,0,0.5,0,0.8,0c0-0.1,0-0.1,0-0.2
	c-0.3,0-0.5,0-0.8,0c0-0.4,0-0.8-0.1-1.1c0.3,0,0.5,0,0.8,0c0-0.1,0-0.1,0-0.2c-0.3,0-0.5,0-0.8,0c0-0.4,0-0.8,0-1.2
	c0.3,0,0.5,0,0.8,0c0,0,0-0.1,0-0.2c-0.1,0-0.2,0-0.3,0c-0.1,0-0.5,0-0.5,0s-0.1-0.7-0.1-1.1c0.3,0,0.6,0,0.9,0c0,0,0-0.2,0-0.2
	c-0.3,0-0.5,0-0.8,0c0-0.4,0-0.8,0-1.2c0.3,0,0.5,0,0.8,0c0,0,0-0.1,0-0.2c-0.3,0-0.5,0-0.8,0c0-0.1,0-0.4,0-0.4s8.9-2.2,9.9-2.4
	c0.1,0,0.2,0,0.3,0C30.2,21.7,39.8,24.1,39.8,24.1z M38.1,29.5c-1.3,0-2.6,0-4,0c0-0.4,0-0.8,0-1.2c1.3,0,2.7,0,4,0c0,0,0-0.1,0-0.1
	c-1.3,0-2.7,0-4,0c0-0.4,0-0.8,0-1.2c0.1,0,0.1,0,0.2,0c1.2,0,3.8,0,3.8,0l0-0.1c0,0-2.7,0-4,0c0-0.4,0-0.7,0-1.1c1.4,0,2.7,0,4,0
	c0,0,0-0.1,0-0.1c-0.4,0-0.9,0-1.3,0c-0.5,0-0.9,0-1.4,0c-0.4,0-0.9,0-1.3,0c0-0.4,0-0.8,0-1.2c1.4,0,2.7,0,4.1,0c0,0,0-0.1,0-0.1
	c-1.4,0-2.7,0-4.1,0c0-0.1,0-0.2,0-0.2c0.1,0,0.3,0,0.3,0s0-0.7,0-0.8c-3.4,0-6.9-0.1-10.4-0.1c0,0.3,0,0.6,0,0.9c0.1,0,0.4,0,0.4,0
	s0,0.2,0,0.2c-1.4,0-2.8,0-4.2,0c0,0.1,0,0.2,0,0.2s2.8,0,4.1,0c0,0,0.1,0,0.1,0c0,0.4,0,0.8,0,1.2c-1.4,0-2.8,0-4.2,0
	c0,0,0,0.2,0,0.2c1.4,0,2.8,0,4.2,0c0,0.4,0,0.7,0,1.1c-1.4,0-2.8,0-4.1,0c0,0,0,0.1,0,0.2c1.4,0,2.8,0,4.2,0c0,0.4,0,0.8,0,1.2
	c-1.4,0-2.7,0.1-4.1,0.1c0,0.1,0,0.1,0,0.1c1.4,0,2.8-0.1,4.1-0.1c0,0.4,0,0.8,0,1.2c-1.4,0-2.7,0-4.1,0c0,0.1,0,0.1,0,0.2
	c1.4,0,2.7,0,4.1,0c0,0.4,0,0.8,0,1.2c-1.3,0-2.7,0-4.1,0c0,0.1,0,0.2,0,0.2c1.4,0,4.1-0.1,4.1-0.1l0,1.1c0,0-2.7,0.1-4,0.1
	c0,0.1,0,0.1,0,0.2c1.4,0,2.7-0.1,4.1-0.1c0,0.4,0,0.8,0,1.2c-1.3,0-4,0-4,0l0,0.2c0,0,2.7,0,3.9,0c0,0,0.1,0,0.1,0
	c0,0.4,0,0.8,0,1.2c-1.3,0-4,0-4,0l0,0.2c0,0,1.4,0,2.1,0c0.5,0,0.9,0,1.4,0c0.2,0,0.4,0,0.6,0c0,0.4,0,0.8,0,1.2c-1.3,0-2.6,0-4,0
	c0,0,0,0.1,0,0.1c1.3,0,2.6,0,4,0c0,0.4,0,0.8,0,1.2c-1.3,0-2.6,0-3.9,0c0,0.1,0,0.1,0,0.2c1.3,0,2.6,0,3.9-0.1c0,0.4,0,0.8,0,1.2
	c-1.3,0-2.6,0-3.9,0c0,0.1,0,0.1,0,0.2c1.3,0,2.6,0,3.9,0c0,0.4,0,0.7,0,1.1c-1.3,0-3.9,0-3.9,0l0,0.2c0,0,2.5,0,3.8,0
	c0,0,0.1,0,0.1,0c0,0.3,0,0.6,0,1c0.5,0,0.9,0,1.3,0c0-0.3,0-0.4,0-0.7c2.1,0,4.1,0,6.2,0c0,0.3,0,0.4,0,0.7c0.4,0,0.9,0,1.3,0
	c0-0.3,0-0.6,0-1c1.3,0,2.5,0,3.8,0c0,0,0-0.2,0-0.2c-1.3,0-2.5,0-3.7,0.1c0-0.4,0-0.7,0-1.1c1.3,0,2.5,0,3.8,0c0-0.1,0-0.2,0-0.2
	c-1.3,0-2.5,0.1-3.8,0.1c0-0.4,0-0.8,0-1.2c1.3,0,2.5,0,3.8-0.1c0,0,0-0.1,0-0.2c-1.3,0-2.5,0-3.8,0c0-0.4,0-0.8,0-1.2
	c1.3,0,2.6,0,3.8,0c0-0.1,0-0.1,0-0.1c-1.3,0-2.5,0-3.8,0c0-0.4,0-0.8,0-1.2c1.3,0,2.6,0,3.8,0c0,0,0-0.1,0-0.1c0,0,0-0.1,0-0.1
	c-1.3,0-2.6,0-3.9,0c0-0.4,0-0.8,0-1.2c1.3,0,2.6,0,3.9,0c0,0,0-0.1,0-0.2c-1.3,0-2.6,0-3.9,0c0-0.4,0-0.8,0-1.2c1.3,0,2.6,0,3.9,0
	c0-0.1,0-0.1,0-0.2c-1.3,0-2.6,0-3.9,0c0-0.4,0-0.8,0-1.2c1.3,0,2.6,0,3.9,0c0,0,0-0.1,0-0.2c-1.3,0-2.6,0-3.9,0c0-0.4,0-0.8,0-1.2
	c1.3,0,2.6,0,4,0C38.1,29.7,38.1,29.6,38.1,29.5z"/>
<path d="M17.6,24c0-0.1-0.1-0.3-0.1-0.4c1.1-0.3,2.2-0.6,3.3-0.8c0,0,0.1-0.1,0.1-0.1c-1.2,0.3-2.5,0.6-3.7,0.9
	c-0.2-0.5-0.3-0.9-0.5-1.4c0.2-0.1,0.4-0.1,0.6-0.2c1.7-0.4,3.3-0.8,5-1.3c2.3-0.6,4.6-1.2,6.8-1.8c0.1,0,0.1,0,0.2,0
	c3.4,0.9,6.7,1.7,10.1,2.6c0.9,0.2,1.9,0.5,2.8,0.7c0,0,0.1,0,0.1,0c-0.2,0.5-0.5,1.6-0.5,1.6l-4.2-1.2l0.3,0.2l3.5,1
	c0,0-0.1,0.2-0.1,0.3c-0.2,0-0.4-0.1-0.5-0.1c-1.8-0.4-3.6-0.9-5.4-1.3c-1.8-0.4-3.6-0.9-5.4-1.4c-0.2-0.1-0.5-0.1-0.7-0.2
	c0,0-0.1,0-0.1,0c-3.4,0.8-6.8,1.7-10.1,2.5C18.4,23.8,18,23.9,17.6,24z"/>
<polygon points="20.8,42.9 19.9,42 24.5,42 33.4,41.9 39,41.9 38.3,42.7 "/>
<path d="M32.8,24c0,0.4,0,1.1,0,1.5c0,0.3,0,0.5,0,0.8c0,0.9,0,1.8-0.1,2.8c0,0.5,0,1,0,1.6c0,0.8,0,1.6-0.1,2.4
	c0,0.8,0,1.6-0.1,2.4c0,0.8,0,1.6-0.1,2.4c0,0.8,0,2-0.1,2.7c0,0,0,0.1,0,0.1c-2.1,0-4.1,0-6.2,0c0-0.1,0-0.2,0-0.3
	c0-0.9,0-2.2,0-3.1c0-1,0-1.9,0-2.9c0-0.5,0-0.9,0-1.4c0-1,0-1.9,0-2.9c0-0.5,0-0.9,0-1.4c0-1,0-1.9,0-2.9c0-0.5,0-0.9,0-1.4
	c0-0.1,0-0.4,0-0.5C28.3,24,30.6,24,32.8,24z M31.8,25.7c-0.7,0-1.4,0-2.1,0c0,0.8,0,1.6,0,2.5c0.7,0,1.4,0,2.1,0
	C31.7,27.3,31.8,26.5,31.8,25.7z M29.4,28.1c0-0.8,0-1.6,0-2.5c-0.7,0-1.3,0-2,0c0,0.8,0,1.6,0,2.5C28,28.1,28.7,28.1,29.4,28.1z
	 M31.7,28.4c0,0-0.1,0-0.1,0c-0.6,0-1.9,0-1.9,0s0,1.5,0,2.1c0,0.1,0,0.1,0,0.2c0.7,0,1.4,0,2,0C31.7,30,31.7,29.2,31.7,28.4z
	 M27.4,28.4c0,0.8,0,1.6,0,2.3c0.7,0,1.3,0,2,0c0-0.8,0-1.5,0-2.3C28.7,28.4,28,28.4,27.4,28.4z"/>
<path d="M33.7,41.4c-0.4,0-0.7,0-1.1,0c0-0.1,0-0.2,0-0.3c0-0.4,0-0.8,0-1.2c0-0.7,0-1.5,0-2.2c0-0.7,0-1.4,0-2.1c0-0.7,0-1.4,0-2.1
	c0-0.7,0-1.4,0-2c0-0.7,0-1.4,0-2.2c0-0.7,0-1.4,0-2.1c0-0.7,0-1.4,0-2.1c0-0.3,0-0.6,0-0.9c0,0,0-0.1,0-0.1c0.4,0,0.7,0,1.1,0
	c0,0.1,0,0.2,0,0.3c0,0.3,0,0.6,0,0.9c0,0.7,0,1.5,0,2.2c0,0.7,0,1.4,0,2c0,0.7,0,1.4,0,2.1c0,0.7,0,1.3,0,2c0,0.7,0,1.4,0,2.1
	c0,0.7,0,1.4,0,2c0,0.7,0,1.4,0,2.1C33.8,40.2,33.8,40.8,33.7,41.4z"/>
<path d="M26.1,41.4c-0.3,0-0.7,0-1.1,0c0-0.2,0-0.3,0-0.4c0-0.7,0-1.3,0-2c0-0.8,0-1.6,0-2.4c0-0.8,0-1.6,0-2.4c0-0.8,0-1.6,0-2.4
	c0-0.8,0-1.6,0-2.4c0-0.8,0-1.6,0-2.4c0-0.8,0-1.6,0-2.4c0-0.2,0-0.4,0-0.5c0.4,0,0.7,0,1.1,0c0,0.1,0,0.2,0,0.3c0,0.8,0,1.6,0,2.3
	c0,0.5,0,0.9,0,1.4c0,1,0,1.9,0,2.9c0,0.5,0,0.9,0,1.4c0,1,0,1.9,0,2.9c0,0.5,0,0.9,0,1.4c0,1,0,1.9,0,2.9c0,0.5,0,0.9,0,1.4
	C26.1,41,26.1,41.2,26.1,41.4z"/>
<path d="M24.4,23.8c0-0.2,0-0.2,0-0.4c3.3,0,6.7,0,10,0c0,0.2,0,0.3,0,0.5C31.1,23.9,27.8,23.8,24.4,23.8z"/>
</svg>
