<?xml version="1.0" encoding="UTF-8"?><svg id="a" xmlns="http://www.w3.org/2000/svg" width="20.2847mm" height="20.2847mm" viewBox="0 0 57.5 57.5"><defs><style>.b{opacity:.88;}</style></defs><path class="b" d="M7.0661,24.6998l.0039-.0137-3.6338-2.2158,.1611-.6162,4.2383-.1016,.0039-.0137-3.9434-1.0303,.2061-.7861,4.7285,1.2363-.3379,1.2939-3.7852,.0527-.0029,.0137,3.2695,1.918-.3281,1.2539-4.7285-1.2354,.2051-.7861,3.9434,1.0303Z"/><path class="b" d="M7.6442,26.7233l-.0664,.8926-4.8672-.3613,.0664-.8926,4.8672,.3613Z"/><path class="b" d="M7.4909,28.5563l.0918,1.2715c.1094,1.5234-.6562,2.3936-2.2705,2.5098-1.6426,.1182-2.5098-.8027-2.6074-2.1582l-.0918-1.2715,4.8779-.3516Zm-4.1289,1.1963l.0225,.3008c.0723,1.0059,.79,1.4111,1.8594,1.334,1.0684-.0771,1.7207-.5811,1.6484-1.5869l-.0215-.3008-3.5088,.2529Z"/><path class="b" d="M7.904,32.9586l.2939,1.0225-3.2383,2.623,.0039,.0137,3.6875-1.0615,.2256,.7803-4.6973,1.3525-.2969-1.0293,3.2139-2.6084-.0039-.0137-3.6611,1.0537-.2246-.7803,4.6973-1.3525Z"/><path class="b" d="M9.3151,37.2106l.375,.8145-4.4414,2.0449-.375-.8145,4.4414-2.0449Z"/><path class="b" d="M9.3464,41.7291l.8691,1.3203-2.1338,1.4043c-.249-.1377-.5869-.4346-.9365-.9668-.8613-1.3086-.4307-2.5889,.7793-3.3848,1.209-.7959,2.5557-.6846,3.417,.624,.3076,.4678,.4443,.9053,.4775,1.1094l-.6982,.4014c-.0117-.3359-.1221-.7324-.3682-1.1064-.5225-.7949-1.458-.791-2.3057-.2334-.917,.6035-1.2285,1.4033-.7246,2.1689,.1152,.1748,.2539,.3096,.3604,.3818l1.0986-.7227-.4082-.6191,.5732-.377Z"/><path class="b" d="M12.6559,42.6373l.6348,.6309-1.3994,1.4082,1.0264,1.0205,1.4004-1.4082,.6348,.6309-3.4404,3.4609-.6348-.6309,1.5176-1.5273-1.0264-1.0205-1.5176,1.5273-.6348-.6309,3.4395-3.4609Z"/><path class="b" d="M15.9147,46.5084l-.8975-.6211,.4062-.5869,2.5254,1.748-.4062,.5869-.8916-.6172-2.373,3.4287-.7363-.5098,2.373-3.4287Z"/><path class="b" d="M18.2233,51.6119c.1211,.1689,.4092,.4873,.8506,.6631,.3643,.1455,.7695,.0742,.9512-.3809,.1299-.3252-.002-.5439-.3164-.9258l-.3291-.4023c-.3506-.4258-.5-.9004-.2666-1.4854,.3242-.8125,1.1621-.9678,1.9229-.6641,.4814,.1914,.7695,.4502,.8848,.541l-.3174,.6797c-.1699-.1582-.3896-.3818-.7734-.5342-.416-.166-.7188-.0312-.8428,.2812-.1348,.3379,.04,.5586,.2373,.8027l.3779,.4678c.4141,.5117,.5537,.8984,.2988,1.5361-.3682,.9229-1.2012,1.1025-2.0654,.7578-.4551-.1816-.7803-.3867-.9531-.6143l.3408-.7227Z"/><path class="b" d="M23.7272,49.36l-.6338,3.0967c-.1631,.7949,.0234,1.1045,.5371,1.209,.5,.1025,.7998-.1064,.9629-.9014l.6348-3.0967,.877,.1797-.6348,3.0967c-.2578,1.2607-1.0859,1.6045-1.9834,1.4209-.9043-.1855-1.5293-.8271-1.2705-2.0879l.6338-3.0967,.877,.1797Z"/><path class="b" d="M27.1257,49.9645l1.0645-.0166,1.6836,3.8135h.0137l-.0576-3.8379,.8115-.0127,.0752,4.8887-1.0713,.0166-1.6768-3.7852h-.0137l.0576,3.8096-.8115,.0127-.0752-4.8887Z"/><path class="b" d="M32.945,49.5807l1.4707-.4023c.8359-.2295,1.5059-.0068,1.7422,.8564,.168,.6143-.1035,1.1309-.6074,1.3555l.0049,.0205c.1826-.0215,.4004,.0059,.6689,.4043l1.1055,1.626-.918,.251-.8838-1.4033c-.2168-.3398-.4727-.4004-.7891-.3135l-.1963,.0537,.5547,2.0225-.8633,.2363-1.2891-4.707Zm1.7754,1.7178c.458-.125,.7041-.4463,.5732-.9258-.1475-.5391-.4678-.5967-.9541-.4639l-.3506,.0967,.3809,1.3887,.3506-.0957Z"/><path class="b" d="M40.696,50.6129l-1.502,.7588,.2178,1.209-.8008,.4043-.7402-5.1064,.876-.4424,3.6123,3.6562-.8262,.417-.8369-.8965Zm-.4785-.5273l-1.5801-1.7617-.0127,.0068,.4287,2.3418,1.1641-.5869Z"/><path class="b" d="M40.6081,46.3991l.8311-.665,3.667,1.9775,.0107-.0088-2.4004-2.9941,.6338-.5078,3.0566,3.8125-.835,.6709-3.6445-1.9609-.0107,.0088,2.3818,2.9717-.6338,.5088-3.0566-3.8135Z"/><path class="b" d="M44.068,43.4967l.8057-.9863c.9648-1.1807,2.1172-1.2861,3.3682-.2646,1.2734,1.04,1.2715,2.3027,.4131,3.3535l-.8057,.9863-3.7812-3.0889Zm3.8174,1.9619l.1895-.2334c.6377-.7803,.3945-1.5654-.4346-2.2422-.8291-.6777-1.6475-.7588-2.2842,.0215l-.1904,.2324,2.7197,2.2217Z"/><path class="b" d="M47.5241,38.4235c.4639-.9023,1.5625-1.3848,3.125-.5801,1.5635,.8047,1.8096,1.9785,1.3447,2.8809-.4648,.9033-1.5635,1.3848-3.126,.5811-1.5625-.8047-1.8086-1.9785-1.3438-2.8818Zm3.8594,1.9873c.2598-.5049,.0381-1.1299-1.1572-1.7451s-1.833-.4316-2.0928,.0723c-.2588,.5039-.0381,1.1299,1.1572,1.7451s1.833,.4316,2.0928-.0723Z"/><path class="b" d="M48.7585,35.9616l.2764-1.0273,4.125-.5732,.0039-.0137-3.7041-.9951,.2109-.7842,4.7178,1.2676-.2773,1.0342-4.0967,.5732-.0039,.0137,3.6768,.9883-.21,.7842-4.7188-1.2676Z"/><path class="b" d="M49.8288,31.5592l.0537-1.0625,3.9111-1.4287,.001-.0146-3.8301-.1924,.041-.8105,4.8779,.2451-.0537,1.0693-3.8828,1.4238-.001,.0137,3.8018,.1904-.041,.8115-4.8779-.2451Z"/><path class="b" d="M48.4958,25.8649l-.1133-.8037,1.0967,.5664,.0762,.54-1.0596-.3027Zm1.4131,1.1504l-.3584-2.542,.7061-.0996,.2334,1.6553,1.2891-.1816-.2207-1.5654,.7061-.0996,.2207,1.5654,1.4268-.2012-.2432-1.7246,.707-.0996,.3682,2.6113-4.835,.6816Z"/><path class="b" d="M49.3561,23.653l-.7617-2.4531,.6816-.2119,.4961,1.5977,1.2432-.3857-.4688-1.5107,.6816-.2119,.4688,1.5107,1.377-.4277-.5166-1.6641,.6816-.2119,.7822,2.5205-4.665,1.4482Z"/><path d="M15.7011,10.8901c.207-.001,.6328-.0518,1.0322-.3096,.3291-.2129,.5049-.585,.2393-.9961-.1895-.2939-.4434-.3125-.9375-.2773l-.5186,.0361c-.5498,.0381-1.0225-.1133-1.3652-.6426-.4746-.7344-.1162-1.5068,.5713-1.9521,.4346-.2812,.8125-.3672,.9521-.4072l.3711,.6514c-.2275,.0469-.5361,.0967-.8828,.3213-.376,.2432-.4414,.5684-.2588,.8506,.1973,.3047,.4795,.29,.792,.2705l.6006-.0381c.6562-.041,1.0527,.0693,1.4248,.6445,.5391,.834,.2041,1.6172-.5771,2.123-.4111,.2656-.7666,.4121-1.0518,.4219l-.3916-.6963Z"/><path d="M19.3281,4.4096c.9473-.3672,2.0898,.001,2.7256,1.6406,.6357,1.6387,.04,2.6807-.9062,3.0479-.9473,.3682-2.0898-.001-2.7256-1.6396-.6357-1.6396-.04-2.6816,.9062-3.0488Zm1.5703,4.0488c.5293-.2051,.7793-.8203,.293-2.0742s-1.0859-1.54-1.6143-1.335c-.5293,.2051-.7793,.8203-.293,2.0742s1.0859,1.54,1.6143,1.335Z"/><path d="M23.3457,3.2563l1.5068-.2295c.8564-.1309,1.4961,.168,1.6309,1.0527,.0967,.6289-.2334,1.1113-.7598,1.2764l.0029,.0205c.1836,0,.3965,.0527,.6172,.4785l.9092,1.7432-.9395,.1426-.7168-1.4961c-.1748-.3623-.4219-.4521-.7471-.4023l-.2002,.0303,.3154,2.0742-.8848,.1348-.7344-4.8252Zm1.5645,1.9121c.4697-.0713,.751-.3623,.6758-.8525-.084-.5537-.3955-.6475-.8926-.5713l-.3604,.0547,.2178,1.4238,.3594-.0547Z"/><path d="M28.2724,6.6391c.1709,.1182,.5479,.3213,1.0234,.3389,.3906,.0146,.749-.1885,.7666-.6777,.0127-.3496-.1836-.5107-.6084-.7646l-.4453-.2686c-.4717-.2832-.7725-.6797-.749-1.3086,.0322-.873,.7695-1.3008,1.5869-1.2705,.5176,.0186,.876,.165,1.0137,.2129l-.0693,.7461c-.2139-.0918-.4951-.2285-.9082-.2441-.4473-.0166-.6865,.2129-.6992,.5479-.0127,.3633,.2266,.5127,.4932,.6768l.5137,.3125c.5605,.3428,.8223,.6602,.7969,1.3457-.0371,.9922-.7607,1.4414-1.6904,1.4062-.4893-.0176-.8633-.1016-1.1025-.2578l.0781-.7949Z"/><path d="M33.1035,3.0668l2.5088,.5488-.1523,.6973-1.6338-.3574-.2783,1.2715,1.5449,.3379-.1523,.6973-1.5449-.3379-.3086,1.4082,1.7021,.373-.1523,.6973-2.5771-.5645,1.0439-4.7715Z"/><path d="M37.5527,4.2338l.8301,.3379-1.5732,3.8643,1.4922,.6074-.2695,.6621-2.3213-.9453,1.8418-4.5264Z"/><path d="M41.4316,5.9887l2.1846,1.3555-.377,.6074-1.4219-.8828-.6875,1.1064,1.3447,.835-.376,.6074-1.3447-.835-.7607,1.2256,1.4814,.9199-.377,.6064-2.2432-1.3916,2.5771-4.1543Z"/><path d="M6.1325,17.441c.2598-.5215,.8887-.7305,1.4092-.4697,.5215,.2607,.7305,.8887,.4697,1.4092-.2598,.5215-.8887,.7305-1.4092,.4707-.5215-.2607-.7305-.8887-.4697-1.4102Z"/><path d="M51.1725,17.068c.2695,.5166,.0713,1.1484-.4453,1.418s-1.1484,.0703-1.418-.4463c-.2695-.5156-.0713-1.1484,.4453-1.417,.5166-.2695,1.1494-.0713,1.418,.4453Z"/><path d="M34.3965,23.8241c.066-.046,.1271-.0941,.1932-.1337,.1611-.0965,.288-.0743,.4202,.0552,.1123,.1101,.1721,.2488,.229,.389,.0505,.1246,.094,.2523,.1344,.3806,.0363,.1153,.0607,.2344,.0967,.3498,.0334,.107,.0791,.2101,.1125,.3171,.058,.1859,.1248,.3706,.1625,.5609,.0692,.3495,.1223,.7024,.1768,1.0547,.0125,.0809,.0445,.1428,.0951,.2065,.3529,.4442,.6991,.8937,1.0519,1.3379,.2533,.3189,.5133,.6326,.7711,.9479,.0271,.0331,.0594,.0619,.0914,.0948,.1433-.0415,.2578-.1279,.3739-.2091,.3467-.2427,.6361-.5475,.9131-.8637,.3725-.4252,.7079-.8801,1.015-1.3535,.2755-.4247,.5345-.8609,.784-1.3015,.391-.6905,.7269-1.4084,1.0161-2.1476,.1612-.412,.2936-.8335,.3921-1.2651,.0064-.028,.0032-.0583,.0029-.0875-.0003-.0254-.0144-.061-.0025-.0744,.069-.078,.0474-.1788,.071-.2673,.0181-.0678,.0051-.1441,.0051-.2166,0-.0173-.0093-.0364-.0045-.0515,.0496-.1544,.0044-.3104,.0085-.4654,.0025-.0955-.0172-.19-.0822-.2901-.0426,.0058-.093,.0122-.1432,.0197-.3013,.0448-.603,.0723-.909,.0692-.3165-.0032-.6332,.023-.95,.0297-.221,.0047-.4423-.0032-.6635-.0027-.2385,.0005-.4774,.0128-.7155,.0044-.3893-.0138-.778-.0406-1.1671-.0612-.1165-.0062-.2331-.0098-.3497-.015-.0304-.0013-.0612-.0014-.091-.0066-.2305-.04-.461-.08-.6912-.122-.5517-.1006-1.0326-.3725-1.5096-.6446-.4625-.2638-.9117-.5514-1.3631-.8342-.4149-.2599-.8255-.5268-1.2372-.792-.1617-.1041-.2726-.0871-.3868,.0924-.228,.3581-.4672,.709-.6999,1.0641-.2734,.4172-.5288,.8448-.698,1.3165-.0626,.1744-.1011,.3573-.1551,.535-.0247,.0813,.0043,.1274,.0707,.1733,.5492,.3796,1.1008,.7559,1.677,1.0932,.6168,.3611,1.2402,.7109,1.8609,1.0654,.0297,.0169,.0609,.0311,.0939,.0479Z"/><path d="M33.7008,24.0576c-.0269-.16-.1021-.2636-.2195-.3325-.1756-.1029-.3547-.2-.5333-.2976-.3378-.1846-.6818-.3587-1.0124-.5552-.204-.1213-.4014-.2613-.5775-.4198-.201-.1809-.3769-.081-.5422,.0827-.1214,.1201-.2172,.3554-.408,.8541-.0688,.1798-.0881,.3748-.136,.5612-.0636,.2474-.1382,.4922-.1961,.7408-.1179,.5067-.3109,.9782-.5887,1.4205-.5131,.8171-1.0702,1.6015-1.6913,2.3395-.4575,.5436-.922,1.0815-1.3893,1.6168-.3675,.421-.7418,.8361-1.1171,1.2501-.3635,.401-.7351,.7947-1.098,1.1963-.3484,.3857-.6915,.7763-1.0346,1.1667-.4756,.5412-.9229,1.1052-1.3648,1.6741-.526,.6771-.9715,1.4041-1.3797,2.1564-.3002,.5534-.5816,1.1156-.8289,1.6943-.1242,.2907-.245,.5837-.3497,.8818-.1022,.2909-.0267,.5567,.1751,.7839,.1579,.1779,.3594,.2965,.5772,.3864,.2972,.1227,.6061,.2048,.9231,.2575,.111,.0184,.2206,.049,.3322,.0581,.0753,.0061,.1597,.0009,.2283-.0276,.3144-.1309,.5494-.3515,.712-.6526,.1246-.2306,.2036-.4773,.2776-.7264,.0986-.3319,.1737-.6726,.2974-.9948,.2095-.5455,.4066-1.0978,.6794-1.6164,.137-.2604,.291-.5123,.4457-.7629,.3208-.52,.6853-1.0094,1.0711-1.4822,.2793-.3423,.5702-.6755,.8631-1.0064,.5026-.5676,1.0126-1.1287,1.5161-1.6956,.2331-.2624,.4499-.5397,.689-.7964,.3453-.3707,.7064-.7267,1.0565-1.0931,.2002-.2096,.3968-.4231,.5866-.6421,.6504-.7508,1.2723-1.525,1.853-2.3308,.3266-.4532,.6466-.9125,.9444-1.3849,.4016-.6372,.6654-1.0786,1.0494-1.7268,.0858-.1449,.159-.2991,.1795-.471,.005-.0423,.0083-.0848,.0104-.1061Z"/><path d="M35.8937,19.9433c.1124-.2154,.0791-.3228-.0583-.477-.1409-.1582-.3348-.2418-.5241-.3267-.2206-.099-.4462-.1872-.6642-.2915-.1161-.0556-.2195-.1373-.3309-.2033-.1595-.0945-.3168-.1943-.4833-.2748-.1049-.0507-.216-.0283-.3182,.0636,.7539,.5784,1.5828,1.0176,2.379,1.5098Z"/><path d="M23.3014,23.8241c-.066-.046-.1271-.0941-.1932-.1337-.1611-.0965-.288-.0743-.4202,.0552-.1123,.1101-.1721,.2488-.229,.389-.0505,.1246-.094,.2523-.1344,.3806-.0363,.1153-.0607,.2344-.0967,.3498-.0334,.107-.0791,.2101-.1125,.3171-.058,.1859-.1248,.3706-.1625,.5609-.0692,.3495-.1223,.7024-.1768,1.0547-.0125,.0809-.0445,.1428-.0951,.2065-.3529,.4442-.6991,.8937-1.0519,1.3379-.2533,.3189-.5133,.6326-.7711,.9479-.0271,.0331-.0594,.0619-.0914,.0948-.1433-.0415-.2578-.1279-.3739-.2091-.3467-.2427-.6361-.5475-.9131-.8637-.3725-.4252-.7079-.8801-1.015-1.3535-.2755-.4247-.5345-.8609-.784-1.3015-.391-.6905-.7269-1.4084-1.0161-2.1476-.1612-.412-.2936-.8335-.3921-1.2651-.0064-.028-.0032-.0583-.0029-.0875,.0003-.0254,.0144-.061,.0025-.0744-.069-.078-.0474-.1788-.071-.2673-.0181-.0678-.0051-.1441-.0051-.2166,0-.0173,.0093-.0364,.0045-.0515-.0496-.1544-.0044-.3104-.0085-.4654-.0025-.0955,.0172-.19,.0822-.2901,.0426,.0058,.093,.0122,.1432,.0197,.3013,.0448,.603,.0723,.909,.0692,.3165-.0032,.6332,.023,.95,.0297,.221,.0047,.4423-.0032,.6635-.0027,.2385,.0005,.4774,.0128,.7155,.0044,.3893-.0138,.778-.0406,1.1671-.0612,.1165-.0062,.2331-.0098,.3497-.015,.0304-.0013,.0612-.0014,.091-.0066,.2305-.04,.461-.08,.6912-.122,.5517-.1006,1.0326-.3725,1.5096-.6446,.4625-.2638,.9117-.5514,1.3631-.8342,.4149-.2599,.8255-.5268,1.2372-.792,.1617-.1041,.2726-.0871,.3868,.0924,.228,.3581,.4672,.709,.6999,1.0641,.2734,.4172,.5288,.8448,.698,1.3165,.0626,.1744,.1011,.3573,.1551,.535,.0247,.0813-.0043,.1274-.0707,.1733-.5492,.3796-1.1008,.7559-1.677,1.0932-.6168,.3611-1.2402,.7109-1.8609,1.0654-.0297,.0169-.0609,.0311-.0939,.0479Z"/><path d="M23.9759,24.0952c.0269-.16,.1021-.2636,.2195-.3325,.1756-.1029,.3547-.2,.5333-.2976,.3378-.1846,.6818-.3587,1.0124-.5552,.204-.1213,.4014-.2613,.5775-.4198,.201-.1809,.4042-.1046,.5422,.0827,.1593,.2163,.3452,.6189,.3819,.6958,.0186,.0389,.0794,.2295,.0898,.2712,.0467,.1867,.0455,.2244,.0934,.4108,.0636,.2474,.1382,.4922,.1961,.7408,.1179,.5067,.3109,.9782,.5887,1.4205,.5131,.8171,1.0702,1.6015,1.6913,2.3395,.4575,.5436,.922,1.0815,1.3893,1.6168,.3675,.421,.7418,.8361,1.1171,1.2501,.3635,.401,.7351,.7947,1.098,1.1963,.3484,.3857,.6915,.7763,1.0346,1.1667,.4756,.5412,.9229,1.1052,1.3648,1.6741,.526,.6771,.9715,1.4041,1.3797,2.1564,.3002,.5534,.5816,1.1156,.8289,1.6943,.1242,.2907,.245,.5837,.3497,.8818,.1022,.2909,.0267,.5567-.1751,.7839-.1579,.1779-.3594,.2965-.5772,.3864-.2972,.1227-.6061,.2048-.9231,.2575-.111,.0184-.2206,.049-.3322,.0581-.0753,.0061-.1597,.0009-.2283-.0276-.3144-.1309-.5494-.3515-.712-.6526-.1246-.2306-.2036-.4773-.2776-.7264-.0986-.3319-.1737-.6726-.2974-.9948-.2095-.5455-.4066-1.0978-.6794-1.6164-.137-.2604-.291-.5123-.4457-.7629-.3208-.52-.6853-1.0094-1.0711-1.4822-.2793-.3423-.5702-.6755-.8631-1.0064-.5026-.5676-1.0126-1.1287-1.5161-1.6956-.2331-.2624-.4499-.5397-.689-.7964-.3453-.3707-.7064-.7267-1.0565-1.0931-.2002-.2096-.3968-.4231-.5866-.6421-.6504-.7508-1.2723-1.525-1.853-2.3308-.3266-.4532-.6466-.9125-.9444-1.3849-.4016-.6372-.6865-1.041-1.0705-1.6892-.0858-.1449-.159-.2991-.1795-.471-.005-.0423-.0083-.0848-.0104-.1061Z"/><path d="M21.973,19.9215c-.1124-.2154-.0791-.3228,.0583-.477,.1409-.1582,.3348-.2418,.5241-.3267,.2206-.099,.4462-.1872,.6642-.2915,.1161-.0556,.2195-.1373,.3309-.2033,.1595-.0945,.3168-.1943,.4833-.2748,.1049-.0507,.216-.0283,.3182,.0636-.7539,.5784-1.5828,1.0176-2.379,1.5098Z"/><path d="M28.749,57.3784C12.9619,57.3784,.1191,44.5356,.1191,28.7495S12.9619,.1196,28.749,.1196s28.6299,12.8428,28.6299,28.6299-12.8428,28.6289-28.6299,28.6289ZM28.749,.686C13.2753,.686,.6855,13.2758,.6855,28.7495s12.5898,28.0625,28.0635,28.0625,28.0635-12.5889,28.0635-28.0625S44.2226,.686,28.749,.686Z"/><path d="M28.749,48.1665c-10.707,0-19.417-8.71-19.417-19.417S18.0419,9.3315,28.749,9.3315s19.417,8.7109,19.417,19.418-8.71,19.417-19.417,19.417Zm0-38.2686c-10.3945,0-18.8506,8.457-18.8506,18.8516s8.4561,18.8506,18.8506,18.8506,18.8506-8.4561,18.8506-18.8506S39.1435,9.8979,28.749,9.8979Z"/></svg>