<?xml version="1.0" encoding="UTF-8"?><svg id="a" xmlns="http://www.w3.org/2000/svg" width="20.2847mm" height="20.2847mm" viewBox="0 0 57.5 57.5"><defs><style>.b{opacity:.88;}</style></defs><path class="b" d="M7.0658,24.6998l.0039-.0137-3.6338-2.2158,.1611-.6162,4.2383-.1016,.0039-.0137-3.9434-1.0303,.2061-.7861,4.7285,1.2363-.3379,1.2939-3.7852,.0527-.0029,.0137,3.2695,1.918-.3281,1.2539-4.7285-1.2354,.2051-.7861,3.9434,1.0303Z"/><path class="b" d="M7.6439,26.7233l-.0664,.8926-4.8672-.3613,.0664-.8926,4.8672,.3613Z"/><path class="b" d="M7.4906,28.5563l.0918,1.2715c.1094,1.5234-.6562,2.3936-2.2705,2.5098-1.6426,.1182-2.5098-.8027-2.6074-2.1582l-.0918-1.2715,4.8779-.3516Zm-4.1289,1.1963l.0225,.3008c.0723,1.0059,.79,1.4111,1.8594,1.334,1.0684-.0771,1.7207-.5811,1.6484-1.5869l-.0215-.3008-3.5088,.2529Z"/><path class="b" d="M7.9037,32.9586l.2939,1.0225-3.2383,2.623,.0039,.0137,3.6875-1.0615,.2256,.7803-4.6973,1.3525-.2969-1.0293,3.2139-2.6084-.0039-.0137-3.6611,1.0537-.2246-.7803,4.6973-1.3525Z"/><path class="b" d="M9.3148,37.2106l.375,.8145-4.4414,2.0449-.375-.8145,4.4414-2.0449Z"/><path class="b" d="M9.3461,41.7291l.8691,1.3203-2.1338,1.4043c-.249-.1377-.5869-.4346-.9365-.9668-.8613-1.3086-.4307-2.5889,.7793-3.3848,1.209-.7959,2.5557-.6846,3.417,.624,.3076,.4678,.4443,.9053,.4775,1.1094l-.6982,.4014c-.0117-.3359-.1221-.7324-.3682-1.1064-.5225-.7949-1.458-.791-2.3057-.2334-.917,.6035-1.2285,1.4033-.7246,2.1689,.1152,.1748,.2539,.3096,.3604,.3818l1.0986-.7227-.4082-.6191,.5732-.377Z"/><path class="b" d="M12.6557,42.6373l.6348,.6309-1.3994,1.4082,1.0264,1.0205,1.4004-1.4082,.6348,.6309-3.4404,3.4609-.6348-.6309,1.5176-1.5273-1.0264-1.0205-1.5176,1.5273-.6348-.6309,3.4395-3.4609Z"/><path class="b" d="M15.9144,46.5084l-.8975-.6211,.4062-.5869,2.5254,1.748-.4062,.5869-.8916-.6172-2.373,3.4287-.7363-.5098,2.373-3.4287Z"/><path class="b" d="M18.223,51.6119c.1211,.1689,.4092,.4873,.8506,.6631,.3643,.1455,.7695,.0742,.9512-.3809,.1299-.3252-.002-.5439-.3164-.9258l-.3291-.4023c-.3506-.4258-.5-.9004-.2666-1.4854,.3242-.8125,1.1621-.9678,1.9229-.6641,.4814,.1914,.7695,.4502,.8848,.541l-.3174,.6797c-.1699-.1582-.3896-.3818-.7734-.5342-.416-.166-.7188-.0312-.8428,.2812-.1348,.3379,.04,.5586,.2373,.8027l.3779,.4678c.4141,.5117,.5537,.8984,.2988,1.5361-.3682,.9229-1.2012,1.1025-2.0654,.7578-.4551-.1816-.7803-.3867-.9531-.6143l.3408-.7227Z"/><path class="b" d="M23.7269,49.36l-.6338,3.0967c-.1631,.7949,.0234,1.1045,.5371,1.209,.5,.1025,.7998-.1064,.9629-.9014l.6348-3.0967,.877,.1797-.6348,3.0967c-.2578,1.2607-1.0859,1.6045-1.9834,1.4209-.9043-.1855-1.5293-.8271-1.2705-2.0879l.6338-3.0967,.877,.1797Z"/><path class="b" d="M27.1254,49.9645l1.0645-.0166,1.6836,3.8135h.0137l-.0576-3.8379,.8115-.0127,.0752,4.8887-1.0713,.0166-1.6768-3.7852h-.0137l.0576,3.8096-.8115,.0127-.0752-4.8887Z"/><path class="b" d="M32.9447,49.5807l1.4707-.4023c.8359-.2295,1.5059-.0068,1.7422,.8564,.168,.6143-.1035,1.1309-.6074,1.3555l.0049,.0205c.1826-.0215,.4004,.0059,.6689,.4043l1.1055,1.626-.918,.251-.8838-1.4033c-.2168-.3398-.4727-.4004-.7891-.3135l-.1963,.0537,.5547,2.0225-.8633,.2363-1.2891-4.707Zm1.7754,1.7178c.458-.125,.7041-.4463,.5732-.9258-.1475-.5391-.4678-.5967-.9541-.4639l-.3506,.0967,.3809,1.3887,.3506-.0957Z"/><path class="b" d="M40.6957,50.6129l-1.502,.7588,.2178,1.209-.8008,.4043-.7402-5.1064,.876-.4424,3.6123,3.6562-.8262,.417-.8369-.8965Zm-.4785-.5273l-1.5801-1.7617-.0127,.0068,.4287,2.3418,1.1641-.5869Z"/><path class="b" d="M40.6078,46.3991l.8311-.665,3.667,1.9775,.0107-.0088-2.4004-2.9941,.6338-.5078,3.0566,3.8125-.835,.6709-3.6445-1.9609-.0107,.0088,2.3818,2.9717-.6338,.5088-3.0566-3.8135Z"/><path class="b" d="M44.0678,43.4967l.8057-.9863c.9648-1.1807,2.1172-1.2861,3.3682-.2646,1.2734,1.04,1.2715,2.3027,.4131,3.3535l-.8057,.9863-3.7812-3.0889Zm3.8174,1.9619l.1895-.2334c.6377-.7803,.3945-1.5654-.4346-2.2422-.8291-.6777-1.6475-.7588-2.2842,.0215l-.1904,.2324,2.7197,2.2217Z"/><path class="b" d="M47.5238,38.4235c.4639-.9023,1.5625-1.3848,3.125-.5801,1.5635,.8047,1.8096,1.9785,1.3447,2.8809-.4648,.9033-1.5635,1.3848-3.126,.5811-1.5625-.8047-1.8086-1.9785-1.3438-2.8818Zm3.8594,1.9873c.2598-.5049,.0381-1.1299-1.1572-1.7451s-1.833-.4316-2.0928,.0723c-.2588,.5039-.0381,1.1299,1.1572,1.7451s1.833,.4316,2.0928-.0723Z"/><path class="b" d="M48.7582,35.9616l.2764-1.0273,4.125-.5732,.0039-.0137-3.7041-.9951,.2109-.7842,4.7178,1.2676-.2773,1.0342-4.0967,.5732-.0039,.0137,3.6768,.9883-.21,.7842-4.7188-1.2676Z"/><path class="b" d="M49.8285,31.5592l.0537-1.0625,3.9111-1.4287,.001-.0146-3.8301-.1924,.041-.8105,4.8779,.2451-.0537,1.0693-3.8828,1.4238-.001,.0137,3.8018,.1904-.041,.8115-4.8779-.2451Z"/><path class="b" d="M48.4955,25.8649l-.1133-.8037,1.0967,.5664,.0762,.54-1.0596-.3027Zm1.4131,1.1504l-.3584-2.542,.7061-.0996,.2334,1.6553,1.2891-.1816-.2207-1.5654,.7061-.0996,.2207,1.5654,1.4268-.2012-.2432-1.7246,.707-.0996,.3682,2.6113-4.835,.6816Z"/><path class="b" d="M49.3558,23.653l-.7617-2.4531,.6816-.2119,.4961,1.5977,1.2432-.3857-.4688-1.5107,.6816-.2119,.4688,1.5107,1.377-.4277-.5166-1.6641,.6816-.2119,.7822,2.5205-4.665,1.4482Z"/><path d="M11.7338,14.2973l-1.041,1.3184,.707,1.0029-.5547,.7031-2.8203-4.3096,.6064-.7695,4.8096,1.7891-.5723,.7246-1.1348-.459Zm-.6562-.2754l-2.1719-.9297-.0088,.0107,1.375,1.9404,.8057-1.0215Z"/><path d="M10.6665,9.9819l1.1572-.9951c.6582-.5654,1.3604-.6514,1.9443,.0283,.415,.4834,.3906,1.0674,.0312,1.4873l.0137,.0156c.1562-.0977,.3652-.166,.7783,.0791l1.6973,.9971-.7227,.6201-1.4023-.8906c-.3408-.2139-.5986-.1592-.8477,.0557l-.1543,.1318,1.3691,1.5928-.6797,.584-3.1846-3.7061Zm2.3428,.793c.3613-.3105,.4453-.7061,.1211-1.083-.3643-.4248-.6787-.3398-1.0615-.0107l-.2754,.2373,.9395,1.0938,.2764-.2373Z"/><path d="M19.4272,9.5854c-.1064,.1768-.4414,.4629-.8213,.6875-1.2773,.7529-2.4854,.207-3.2109-1.0225-.7246-1.2305-.6191-2.5518,.6348-3.291,.4277-.2529,.8447-.3447,1.0371-.377l.3672,.7188c-.2031,.0137-.5391,.0088-.9316,.2402-.6387,.377-.9307,1.1338-.2871,2.2246,.6436,1.0918,1.4473,1.2021,2.0869,.8252,.373-.2207,.5674-.457,.667-.6865l.458,.6807Z"/><path d="M19.4897,5.1899l-1.0234,.3809-.249-.6689,2.8809-1.0723,.249,.6699-1.0176,.3779,1.4551,3.9102-.8398,.3125-1.4551-3.9102Z"/><path d="M22.2124,3.5561l.8711-.209,1.1396,4.751-.8711,.209-1.1396-4.751Z"/><path d="M28.2153,7.4526c-.1709,.1162-.5947,.2363-1.0332,.2822-1.4746,.1514-2.3447-.8486-2.4912-2.2676-.1455-1.4199,.501-2.5762,1.9482-2.7256,.4941-.0508,.9121,.04,1.0996,.0908l.0342,.8047c-.1904-.0713-.4941-.2158-.9463-.1699-.7373,.0762-1.3184,.6426-1.1895,1.9023,.1299,1.2588,.8154,1.6953,1.5527,1.6191,.4316-.0449,.7061-.1787,.8926-.3457l.1328,.8096Z"/><path d="M33.4448,7.9653c-.1943,.0713-.6348,.0859-1.0713,.0234-1.4688-.2109-2.0693-1.3926-1.8672-2.8057s1.1113-2.3789,2.5518-2.1729c.4922,.0703,.875,.2598,1.0449,.3545l-.1621,.79c-.168-.1162-.4268-.3301-.877-.3945-.7344-.1045-1.4365,.3037-1.6152,1.5576-.1797,1.2539,.3789,1.8428,1.1133,1.9482,.4297,.0615,.7285-.002,.9502-.1182l-.0674,.8174Z"/><path d="M35.4331,3.5971l.8613,.2441-1.3311,4.6963-.8613-.2441,1.3311-4.6963Z"/><path d="M37.8247,4.3159l1.3975,.6123c.7939,.3477,1.1758,.9424,.8164,1.7627-.2559,.583-.792,.8145-1.3262,.6719l-.0078,.0195c.1553,.0986,.3066,.2568,.2656,.7354l-.1641,1.96-.8711-.3818,.1953-1.6484c.0449-.4004-.1152-.6084-.417-.7402l-.1855-.0811-.8428,1.9229-.8203-.3594,1.96-4.4736Zm.2998,2.4531c.4355,.1914,.8291,.0957,1.0283-.3584,.2246-.5137,.0117-.7598-.4502-.9609l-.333-.1465-.5781,1.3203,.333,.1455Z"/><path d="M41.9682,12.0424c-.2061-.0205-.6094-.1982-.9756-.4443-1.2324-.8281-1.2607-2.1553-.4639-3.3418,.7969-1.1855,2.0361-1.6611,3.2451-.8486,.4131,.2773,.6758,.6143,.7881,.7744l-.4902,.6406c-.1006-.1768-.2412-.4824-.6191-.7363-.6162-.4141-1.4268-.3506-2.1338,.7012-.707,1.0527-.459,1.8262,.1572,2.2402,.3604,.2422,.6572,.3154,.9082,.3066l-.416,.708Z"/><path d="M45.7719,9.0463l.6523,.6133-2.8555,3.0371,1.1729,1.1025-.4893,.5195-1.8242-1.7148,3.3438-3.5576Z"/><path d="M48.478,11.7417l1.585,2.0215-.5615,.4404-1.0322-1.3164-1.0244,.8027,.9756,1.2451-.5615,.4404-.9756-1.2451-1.1348,.8896,1.0752,1.3721-.5625,.4404-1.6279-2.0771,3.8447-3.0137Z"/><path d="M6.1322,17.441c.2598-.5215,.8887-.7305,1.4092-.4697,.5215,.2607,.7305,.8887,.4697,1.4092-.2598,.5215-.8887,.7305-1.4092,.4707-.5215-.2607-.7305-.8887-.4697-1.4102Z"/><path d="M51.1723,17.068c.2695,.5166,.0713,1.1484-.4453,1.418s-1.1484,.0703-1.418-.4463c-.2695-.5156-.0713-1.1484,.4453-1.417,.5166-.2695,1.1494-.0713,1.418,.4453Z"/><path d="M28.7485,57.3784C12.9624,57.3784,.1196,44.5356,.1196,28.7495S12.9624,.1196,28.7485,.1196s28.6299,12.8428,28.6299,28.6299-12.8428,28.6289-28.6299,28.6289ZM28.7485,.686C13.2749,.686,.686,13.2758,.686,28.7495s12.5889,28.0625,28.0625,28.0625,28.0635-12.5889,28.0635-28.0625S44.2221,.686,28.7485,.686Z"/><path d="M28.7485,48.1655c-10.707,0-19.417-8.71-19.417-19.417S18.0415,9.3315,28.7485,9.3315s19.417,8.71,19.417,19.417-8.71,19.417-19.417,19.417Zm0-38.2676c-10.3945,0-18.8506,8.4561-18.8506,18.8506s8.4561,18.8506,18.8506,18.8506,18.8506-8.4561,18.8506-18.8506S39.143,9.8979,28.7485,9.8979Z"/><path d="M42.9829,32.3959c1.7578-5.3018,.6143-10.0957-3.3984-14.249-.5889-.6094-1.2793-1.1035-1.9473-1.5811-.3027-.2168-.6045-.4326-.8984-.6602-.8447-.6533-1.6768-1.0742-2.543-1.2891-.0752-.0186-.1533-.0322-.2314-.0459-.2529-.0439-.4717-.082-.6182-.292-.1025-.1465-.3037-.1719-.4512-.1182-.1436,.0488-.2646,.0029-.4199-.0566l-.0752-.0283c-1.416-.5176-2.8662-.666-4.3174-.4307-.1953,.0312-.3877,.0732-.5801,.1162-.2725,.0605-.5547,.124-.8359,.1475-.9717,.085-1.9131,.3496-2.8242,.6045-.4951,.1387-1.0078,.2832-1.5156,.3945-.2842,.0625-.4824,.2383-.6748,.4072-.124,.1084-.2412,.2119-.376,.2812-1.0498,.5391-2.0557,1.2354-2.9883,2.0713-1.459,1.3086-2.5107,2.7061-3.2139,4.2734-.748,1.665-1.2588,3.1084-1.3193,4.7441-.1162,3.127,.6064,5.8457,2.21,8.3096,.1436,.2207,.1865,.3945,.1475,.5977-.0898,.4775-.0449,.9697,.1318,1.4609,.3779,1.0518,.9883,1.9385,1.8682,2.7129,.9385,.8262,1.9678,1.4619,2.9404,2.0273l.0928,.043c.9834,.46,2.001,.9355,3.0713,1.2471,.0879,.0264,.1533,.0801,.2188,.1816,.1562,.2412,.4219,.3379,.6396,.2285,.2256-.1143,.4346-.0586,.6807,.0059,.0684,.0186,.1367,.0361,.2051,.0508,.9766,.2031,2.1816,.4102,3.4756,.4102,.4951,0,1.0039-.0303,1.5166-.1025,1.833-.2588,3.3555-.791,4.6621-1.6299,1.4014-1.0098,2.5039-2.209,3.2783-3.5635,.7109-1.2451,1.582-2.1182,2.7402-2.748,1.1504-.626,1.582-1.6504,1.2842-3.0449-.0371-.1699,.0107-.3115,.0654-.4756Zm-.6621-.8877c-.3252-.4834-.6504-.8916-1.0078-1.2676-.0283-.0303-.0303-.0674-.0264-.1885,.043-2.1982-.25-4.3418-.8701-6.374-.0137-.043-.0176-.0684-.0225-.0762,.0127-.0039,.0361-.0107,.0811-.0176,.4336-.0664,.9277-.166,1.3857-.502,1.1592,2.7969,1.3105,5.5586,.46,8.4258Zm-5.208,7.9697c-.6104,.7832-1.2949,1.4121-2.0732,1.9033,.0752-.2568,.1416-.5234,.1318-.8076-.002-.0723,.0146-.1133,.123-.1611,.5732-.251,1.1621-.5527,1.8184-.9346Zm-2.8594,1.3564c-.1123,.5029-.4092,.9014-.9404,1.2695-.833,.5781-1.7822,.6611-2.6016,.666h-.0312c-1.2197,0-2.752-.4541-3.7539-1.083,2.5391,.2598,4.9453-.0195,7.3271-.8525Zm-17.792-10.5488c-.2334,.9404-.375,1.9355-.4316,3.0293-.6543-1.042-1.2373-3.251-1.3379-5.0898,.4492,.6279,.9736,1.1963,1.6562,1.7959,.1172,.1035,.1436,.1445,.1133,.2646Zm6.5498-14.4316c.2979-.126,.583-.2471,.9092-.2676-.4561,.3809-.8301,.7393-1.1592,1.1123-.0283,.0322-.0469,.0479-.0518,.0557-.0068-.0059-.0166-.0176-.0303-.0361-.0381-.0518-.0791-.1006-.1201-.1504-.0342-.04-.0674-.0811-.0996-.123-.1211-.1621-.1338-.2393-.1221-.2754,.0146-.0469,.0957-.0977,.2207-.1387,.1533-.0498,.3027-.1133,.4531-.1768Zm10.5254,1.6865c.0029-.0029,.0107-.0049,.0244-.0049,.0303,0,.0908,.0107,.2129,.0566,1.0498,.3965,1.9922,.7793,2.8799,1.1699,.2617,.1152,.4326,.2598,.5557,.4678,.1729,.2959,.3496,.5732,.5254,.8232,.3838,.5488,.5596,1.1016,.4941,1.5576l-.001,.0244c.0137,.4922,.0234,.8164-.0596,.8916-.0732,.0645-.3447,.0264-.7236-.0273-1.3564-.1914-2.8115-.4971-4.4502-.9346-.2178-.0586-.2461-.082-.1924-.3057,.3057-1.2754,.5244-2.4219,.6689-3.5059,.0244-.1846,.0605-.2109,.0654-.2129Zm-7.7243,16.3217c.0078,.0522-.0097,.0725-.013,.0991-.0024,.019-.0229,.0562-.0234,.0538-.0205-.0059-.0478-.0156-.0723-.0254-.1699-.0625-.6248-.2303-.7937-.2938,.0498,.0117,.1116,.0131,.1512,.0176,.1878,.0209,.607,.1031,.7512,.1487Zm3.4118-17.6215c.5293,.1455,1.1553,.3145,1.7891,.4668,.1143,.0273,.1377,.0469,.1406,.0479,0,.001,.0078,.0322-.0361,.1426-.3359,.8438-.6611,1.707-.9756,2.541l-.3408,.9014c-.0098,.0264-.0186,.0547-.0273,.083-.0088,.0312-.0244,.083-.0273,.0898,.001,.002-.0176,.0049-.0703-.0166-1.4355-.5459-2.9678-1.166-4.4775-1.999,1.1826-.9414,2.3525-1.666,3.5703-2.21,.1641-.0742,.3018-.0898,.4551-.0469Zm-8.2324,15.6729c-.2314-.1377-.4707-.2803-.7178-.4014-.0508-.0254-.0645-.085-.0801-.207l-.0117-.0781c-.2217-1.251-.3291-2.416-.3281-3.5605,0-1.0703,.1133-2.1191,.2246-3.0049,.0547-.4297,.2812-.7646,.5205-1.1191,.0664-.0967,.1328-.1953,.1953-.2949,.0293-.0469,.0596-.0605,.1338-.0605,.0225,0,.0488,.001,.0801,.0029l.0537,.0029c2.2676,.0859,4.625,.4629,7.2061,1.1543,.1357,.0361,.1611,.0664,.166,.0752,.0068,.0127,.0117,.0547-.0303,.1904-.916,2.9131-1.6885,5.6377-2.3613,8.3311-.0107,.043-.0391,.1592-.0771,.1807-.0117,.0088-.0537,.0215-.1787-.0127-.8975-.2412-1.8691-.3984-3.0596-.4961-.6426-.0527-1.1729-.3682-1.7354-.7021Zm3.4971-12.6367c1.375,.7852,2.9375,1.4941,4.7783,2.1689,.1455,.0537,.1465,.0557,.0938,.2002-.1748,.4844-.334,.9834-.4883,1.4658l-.123,.3838c-.0146,.0449-.0361,.1113-.0508,.123,0,0-.0215,.0098-.0986-.0127-2.4707-.6924-4.8154-1.0977-7.1582-1.2363,.8672-1.1338,1.7939-2.1475,2.8291-3.0918,.0703-.0664,.0957-.0713,.2178-.001Zm3.5049,15.4668s-.7208-.1707-1.458-.4531c-.001-.0137,.0056-.054,.0215-.0986,.0115-.0324,.0193-.0819,.0767-.0793,.2869,.0678,.8164,.3182,1.3627,.5373,.0342,.0117,.0343,.016,.0254,.0371,0,0-.0225,.0576-.0283,.0566Zm-.9473-1.2832l-.1191-.0361c-.167-.0508-.1689-.0664-.1357-.1934,.7314-2.8389,1.5352-5.6787,2.3887-8.4385,.0342-.1143,.0645-.1357,.0723-.1406,.0039-.001,.0107-.0039,.0254-.0039,.0215,0,.0586,.0059,.1211,.0273,.2666,.0967,.5371,.1846,.8076,.2715,.1631,.0518,.3252,.1045,.4873,.1592l.04,.0127c.0234,.0068,.0557,.0234,.0713,.0166,0,0,.001,.0078-.0039,.0264l-.5977,2.2021c-.5557,2.0566-1.1875,4.1289-1.7998,6.1318l-.0547,.1797c-.0439,.1455-.0781,.1797-.0947,.1875-.0117,.0059-.0547,.0137-.1904-.0469-.3301-.1465-.6797-.2529-1.0176-.3555Zm1.5723,2.7246c.0098-.0273,.0186-.0557,.0264-.085,.0078-.0283,.0205-.0771,.0254-.085l.0107-.001c.0078,0,.0215,.001,.042,.0059,.5645,.1338,1.1309,.2656,1.6992,.3975l.748,.1748c-.7979,.8223-2.4873,2.042-3.6592,2.6455l1.1074-3.0527Zm3.7266-.7412c-.0205,.0215-.04,.0459-.0596,.0693-.085,.1064-.1396,.1758-.3379,.1416l-.043-.0059c-.1094-.0146-.2754-.0361-.4209-.1328-.6523-.4297-1.3584-.8164-2.0986-1.1494-.1377-.0625-.1465-.0703-.0977-.2217,.9082-2.7939,1.7373-5.6475,2.4648-8.4814,.0303-.1221,.0566-.1436,.0557-.1436,.0117,0,.0488,.001,.168,.0479,1.8115,.7168,3.3984,1.4756,4.8525,2.3193,.2051,.1182,.2207,.1582,.1396,.3564-1.1016,2.6699-2.6572,5.0918-4.623,7.2002Zm-1.3262-11.1484c-.0078,.0312-.0146,.0488-.0146,.0557-.0117-.001-.0352-.0059-.0752-.0205-.4043-.1475-.8447-.291-1.3447-.4385-.0742-.0225-.0918-.0391-.0928-.0391,0-.002-.0039-.0244,.0186-.0898,.2148-.6221,.4199-1.248,.623-1.875,.0293-.0908,.0508-.1025,.0508-.1025-.001-.001,.0244-.0098,.1113,.0254,.3955,.1582,.7988,.2773,1.1416,.373,.0527,.0146,.0811,.0293,.0957,.0391l-.1328,.5342c-.1348,.5381-.2607,1.0381-.3809,1.5381Zm7.1211-.499c-.1182,1.0234-.3828,2.1631-.7871,3.3857-.0068,.0205-.0127,.0342-.0176,.0449-.0127-.0059-.0312-.0156-.0586-.0322-1.542-.9062-3.2354-1.7051-5.1787-2.4434q-.1035-.0391-.0732-.1543c.1719-.6523,.3311-1.3145,.4756-1.9688,.0186-.0869,.0352-.1064,.0332-.1064,.002-.001,.0293-.0068,.1123,.0176,1.9111,.5332,3.6787,.8818,5.4043,1.0645,.0282-.001,.1123,.0165,.1064-.001,.0078,.0234-.0137,.1065-.0166,.1934Zm-19.1113,4.6143c.0459,.9404,.125,1.7285,.2549,2.5078-.5996-.3682-1.1084-.7383-1.5723-1.0869-.0527-.04-.0674-.0557-.0469-.1514,.1328-.6406,.8701-2.4746,1.3984-3.4775-.042,.7578-.0693,1.4873-.0342,2.208Zm15.0166,11.5703c-1.6689,.5967-3.4072,.8994-5.1641,.8994-.4189-.002-.8457-.0322-1.2588-.0615-.1777-.0117-.3555-.0244-.5332-.0352-.1484-.0088-.1914-.0332-.1973-.0332h-.001c-.002-.0156,.0078-.0645,.083-.21,.043-.083,.1104-.1182,.2344-.1787,1.6836-.8242,3.2461-1.9209,4.6445-3.2588,.1758-.1738,.2188-.1611,.4023,.0029,.9102,.8164,1.5869,1.5684,1.9355,2.583,.0674,.1963,.0547,.2207-.1455,.292Zm-2.2666-18.8467c-.0078,.0352-.0156,.0537-.0146,.0596-.0107-.001-.0325-.0071-.0762-.0195-.3738-.1065-.7181-.216-1.0918-.3564l-.0684-.0254c-.001-.0088,.002-.0352,.0273-.1055,.4121-1.127,.8643-2.3359,1.3838-3.5449,.0488-.1123,.083-.1289,.0898-.1309,.0107-.0049,.0742,.022,.137,.0335,.1097,.0202,.1697,.0661,.2654,.0768,.0459,.0039,.1037,.0509,.1154,.0431-.2314,1.4873-.5011,2.7557-.7677,3.9696Zm-9.1484-2.8916c.0811-.1143,.1123-.123,.1152-.123,0,0,.0293,.0029,.0977,.0742,.0928,.0967,.2139,.165,.3301,.2305,.1299,.0723,.2637,.1475,.2695,.2227-.0039,.0605-.1904,.2119-.291,.2939-.0742,.0596-.1475,.1201-.207,.1777-.6729,.6543-1.3154,1.3564-1.9121,2.0908,.3994-1.041,.9365-2.0391,1.5977-2.9668Zm3.6973,17.1094c.0068-.0049,.0176-.0059,.0312-.0059,.082,0,.2707,.0758,.4406,.1344,.1113,.0381,.8646,.266,.8646,.266,0,0-.9546,2.7738-1.2153,3.417-.2315,.5711-.4922,.8945-1.1084,1.0039,.2168-1.5186,.5469-3.0195,.8408-4.3496,.0479-.2158,.0967-.4385,.1465-.4658Zm11.7783-7.8076c.4355-1.2246,.7344-2.4658,.8867-3.6895l.0049-.043c.0316-.1582,.0234-.1709,.1055-.1709l.0322,.001c.1846,.0068,.2206-.0196,.2754,.1875,.4903,1.8518,.8281,3.6143,.8506,5.4277-.6836-.5645-1.3633-1.0576-2.0674-1.502-.1221-.0771-.1318-.0879-.0879-.2109Zm2.8174-5.0664l-.0342,.0117c-.0264,.0088-.0537,.0186-.0869,.0273q-.7139,.1865-.957-.4785c-.1182-.3213-.2666-.6201-.4229-.9365-.1826-.3682-.3701-.7461-.5127-1.1719,.8701,.5273,1.6865,1.0332,2.2607,1.8047,.1572,.2119,.2217,.3691,.1904,.4668-.0322,.0986-.1787,.1914-.4375,.2764Zm-8.2129-6.5293l-.0117,.1133c-.0215,.2002-.0459,.2451-.0469,.251-.0166,0-.0664,0-.2773-.1055,.0381-.0703,.0742-.1426,.1104-.2148,.0742-.1484,.1494-.2988,.2539-.4443,.001,.1436-.0137,.2734-.0283,.4004Zm-1.8252-.1816l-.3467-.0947c.4121-.1172,.8154-.1748,1.2344-.2305-.2334,.502-.3018,.4854-.8877,.3252Zm-2.0859-.5664c-.0811,.0342-.167,.0176-.3057-.0098-.4678-.0898-.9365-.1777-1.4053-.2666,.9014-.2432,1.8125-.1826,2.7646-.0967-.3486,.1123-.708,.2285-1.0537,.373Zm-4.498,2.7021c-.04,.0361-.0469,.0391-.1201,.0049-.3574-.168-.6914-.3438-.7168-.5-.0254-.1504,.2285-.417,.4795-.6572,.8447-.8076,1.2012-1.0859,1.8857-1.0859,.3057,0,.6758,.0557,1.1836,.1436,.0576,.0098,.1162,.0156,.1758,.0215s.1182,.0117,.1758,.0215c-1.0938,.585-2.0986,1.2578-3.0635,2.0518Zm-2.6045,.1621c-.8115,1.2031-1.4395,2.5498-1.8662,4.0029-.0752,.2539-.1592,.2959-.4102,.3096-1.2529,.0664-2.5889,.2266-3.9141,.8994,.6152-1.5635,1.4834-2.9229,2.6445-4.1475,.8906-.9385,1.9492-1.7656,3.1475-2.457,.1084-.0635,.1445-.0713,.1494-.0732,0,0,.0215,.0186,.0459,.1074,.0293,.1143,.0986,.2129,.1602,.2998l.0332,.0488q.3467,.5098,.0098,1.0098Zm-5.9463,6.1084c.8838-.5508,1.8682-.7588,3.0742-.9004l.0762-.0098c.0898-.0117,.1758-.0225,.2568-.0225,.0127,0,.0244,0,.0371,.001,.0635-.0029,.1318-.0107,.1895-.0225,.0391-.0098,.1123-.0225,.1338-.0068,.0254,.0469-.042,.1484-.0967,.2305l-.042,.0635c-.8975,1.4189-1.6338,2.8896-2.1885,4.3711-.1113,.2979-.2129,.5986-.3213,.9189l-.0869,.2559c-.7256-.6719-1.4424-1.416-1.8379-2.3809-.3828-.9355-.0518-1.9629,.8057-2.498Zm1.626,6.6934c.7334,.5234,1.4307,.9863,2.1279,1.4102,.1318,.0801,.1475,.2568,.1553,.4814l.0117,.0264c-.0215,.0146-.1055,.0215-.1504,.0254-.0527,.0049-.1045,.0098-.1475,.0205-.9863,.2393-1.7246,.5928-2.3477,1.1299,.0127-1.1621,.123-2.1367,.3506-3.0938Zm-.1162,4.1465c.6006-.8428,1.4814-1.1797,2.6201-1.4277,.0195-.0049,.0303-.0039,.0322-.0059,.0127,.0205,.0234,.085,.0293,.1211,.0068,.0449,.0146,.0879,.0264,.1221,.6113,1.9004,1.4268,3.5391,2.4941,5.0098,.209,.2881,.4365,.5723,.6768,.8721,.0176,.0225,.0361,.0449,.0537,.0674-1.4551-.5908-2.7393-1.3652-3.9121-2.3574-.709-.5986-1.3564-1.2773-1.9824-2.0742-.1172-.1484-.124-.2061-.0381-.3271Zm3.4854-1.5361c.5586-.1045,1.0322-.0371,1.5186,.2158,.9834,.5127,2.0098,.8936,3.0625,1.2705l.0518,.0176c.1514,.0508,.1543,.0518,.126,.1621-.3799,1.5186-.7168,3.1201-1.0049,4.75-1.6826-1.6963-2.9131-3.7979-3.7539-6.416Zm14.3545,6.0693c-.0117,.0068-.0264,.0156-.04,.0225-.0049-.0107-.0107-.0254-.0166-.0459-.3506-1.124-1.0967-1.9756-1.7549-2.6084,1.6113,.1826,3.4785,.3066,5.4219,.0293-.0801,.2109-.1836,.3867-.3525,.5303-.9785,.8232-2.0498,1.5068-3.1846,2.0322-.0234,.0117-.0488,.0254-.0732,.04Zm-.9521-3.583c-.2725-.0273-.5449-.0615-.8447-.0996l-.1855-.0234c.7695-.8633,1.3936-1.6406,1.9521-2.4316,1.0645-1.5107,1.9453-3.1104,2.6182-4.7539,.0518-.126,.0781-.1621,.083-.1689,.0049,0,.041,.0029,.1504,.0791,.6592,.458,1.4287,1.0137,2.1455,1.6562,.1406,.127,.1875,.2363,.1777,.418-.085,1.6641-.4121,3.3447-.9736,4.9951-.0723,.2129-.1885,.2373-.4219,.2705l-.0811,.0117c-1.3506,.2129-2.8184,.2275-4.6201,.0469Zm4.248-17.6133c.2305,.2031,.4512,.4043,.6475,.6221-.4147-.0156-.7589-.1721-.6475-.6221Zm-4.751-1.7275c-.0059-.0127-.002-.0605,0-.0898l.0527-.7432c.7275,.457,1.3447,.9678,1.8701,1.5479l-.0059-.002c-.6309-.2354-1.2607-.4697-1.917-.7129Zm-10.75,23.9795c-.083,.0029-.167,.0049-.251,.0049-1.9639,0-4.082-.9209-5.0596-3.5039,1.5723,1.5381,3.3193,2.6895,5.3105,3.499Zm1.3994,.7461c-.0098,.3301-.0234,.625-.083,.6641-.0654,.043-.377-.0771-.7051-.2021-.2217-.084-.4404-.1738-.6592-.2646,.4941-.0469,.9717-.1016,1.4473-.1973Zm1.0432,.3542c.1845,.0893-.0678,.326-.193,.4277l.0417-.5425c.0713,.0371,.1304,.1046,.1513,.1148Zm.7981,.5947c.0107-.0322,.0283-.0869,.0283-.0938,.0039,0,.0273,.001,.0811,.0303,.2637,.1465,.4749,.3556,.7388,.5433l-.2168-.0479c-.2285-.0488-.4502-.0977-.6709-.1543-.0215-.0049-.0469-.0088-.0742-.0137l-.0049-.001c.0303-.0459,.102-.2113,.1186-.2631Zm15.19-8.4508c-.2646,.4795-.5518,.9316-.8613,1.3555,.3525-1.1172,.5967-2.3428,.7451-3.7393,.8184,1.0107,.7959,1.1523,.1162,2.3838Z"/></svg>