<?xml version="1.0" encoding="utf-8"?>
<!-- Generator: Adobe Illustrator 26.0.3, SVG Export Plug-In . SVG Version: 6.00 Build 0)  -->
<svg version="1.1" id="Lager_1" xmlns="http://www.w3.org/2000/svg" xmlns:xlink="http://www.w3.org/1999/xlink" x="0px" y="0px"
	 viewBox="0 0 57.5 57.5" style="enable-background:new 0 0 57.5 57.5;" xml:space="preserve">
<style type="text/css">
	.st0{opacity:0.88;}
</style>
<path class="st0" d="M7.1,24.7L7.1,24.7l-3.6-2.2l0.2-0.6l4.2-0.1l0,0l-3.9-1l0.2-0.8l4.7,1.2l-0.3,1.3l-3.8,0.1l0,0L8,24.5
	l-0.3,1.3l-4.7-1.2l0.2-0.8L7.1,24.7z"/>
<path class="st0" d="M7.7,26.7l-0.1,0.9l-4.9-0.4l0.1-0.9L7.7,26.7z"/>
<path class="st0" d="M7.5,28.6l0.1,1.3c0.1,1.5-0.7,2.4-2.3,2.5c-1.6,0.1-2.5-0.8-2.6-2.2l-0.1-1.3L7.5,28.6z M3.4,29.8l0,0.3
	c0.1,1,0.8,1.4,1.9,1.3c1.1-0.1,1.7-0.6,1.6-1.6l0-0.3L3.4,29.8z"/>
<path class="st0" d="M7.9,33l0.3,1L5,36.6l0,0l3.7-1.1l0.2,0.8l-4.7,1.4l-0.3-1l3.2-2.6l0,0l-3.7,1.1l-0.2-0.8L7.9,33z"/>
<path class="st0" d="M9.3,37.2L9.7,38l-4.4,2l-0.4-0.8L9.3,37.2z"/>
<path class="st0" d="M9.4,41.8l0.9,1.3l-2.1,1.4c-0.2-0.1-0.6-0.4-0.9-1c-0.9-1.3-0.4-2.6,0.8-3.4c1.2-0.8,2.6-0.7,3.4,0.6
	c0.3,0.5,0.4,0.9,0.5,1.1l-0.7,0.4c0-0.3-0.1-0.7-0.4-1.1c-0.5-0.8-1.5-0.8-2.3-0.2c-0.9,0.6-1.2,1.4-0.7,2.2
	c0.1,0.2,0.3,0.3,0.4,0.4l1.1-0.7l-0.4-0.6L9.4,41.8z"/>
<path class="st0" d="M12.7,42.7l0.6,0.6l-1.4,1.4l1,1l1.4-1.4l0.6,0.6l-3.4,3.5l-0.6-0.6l1.5-1.5l-1-1l-1.5,1.5l-0.6-0.6L12.7,42.7z
	"/>
<path class="st0" d="M15.9,46.5L15,45.9l0.4-0.6l2.5,1.7l-0.4,0.6L16.7,47l-2.4,3.4L13.6,50L15.9,46.5z"/>
<path class="st0" d="M18.2,51.6c0.1,0.2,0.4,0.5,0.9,0.7c0.4,0.1,0.8,0.1,1-0.4c0.1-0.3,0-0.5-0.3-0.9l-0.3-0.4
	c-0.4-0.4-0.5-0.9-0.3-1.5c0.3-0.8,1.2-1,1.9-0.7c0.5,0.2,0.8,0.5,0.9,0.5l-0.3,0.7c-0.2-0.2-0.4-0.4-0.8-0.5
	c-0.4-0.2-0.7,0-0.8,0.3c-0.1,0.3,0,0.6,0.2,0.8l0.4,0.5c0.4,0.5,0.6,0.9,0.3,1.5c-0.4,0.9-1.2,1.1-2.1,0.8c-0.5-0.2-0.8-0.4-1-0.6
	L18.2,51.6z"/>
<path class="st0" d="M23.7,49.4l-0.6,3.1c-0.2,0.8,0,1.1,0.5,1.2c0.5,0.1,0.8-0.1,1-0.9l0.6-3.1l0.9,0.2L25.5,53
	c-0.3,1.3-1.1,1.6-2,1.4c-0.9-0.2-1.5-0.8-1.3-2.1l0.6-3.1L23.7,49.4z"/>
<path class="st0" d="M27.1,50l1.1,0l1.7,3.8h0l-0.1-3.8l0.8,0l0.1,4.9l-1.1,0L28,51.1h0l0.1,3.8l-0.8,0L27.1,50z"/>
<path class="st0" d="M33,49.6l1.5-0.4c0.8-0.2,1.5,0,1.7,0.9c0.2,0.6-0.1,1.1-0.6,1.4l0,0c0.2,0,0.4,0,0.7,0.4l1.1,1.6l-0.9,0.3
	l-0.9-1.4c-0.2-0.3-0.5-0.4-0.8-0.3l-0.2,0.1l0.6,2l-0.9,0.2L33,49.6z M34.7,51.3c0.5-0.1,0.7-0.4,0.6-0.9c-0.1-0.5-0.5-0.6-1-0.5
	L34,50l0.4,1.4L34.7,51.3z"/>
<path class="st0" d="M40.7,50.6l-1.5,0.8l0.2,1.2L38.6,53l-0.7-5.1l0.9-0.4l3.6,3.7l-0.8,0.4L40.7,50.6z M40.2,50.1l-1.6-1.8l0,0
	l0.4,2.3L40.2,50.1z"/>
<path class="st0" d="M40.6,46.4l0.8-0.7l3.7,2l0,0l-2.4-3l0.6-0.5l3.1,3.8l-0.8,0.7l-3.6-2l0,0l2.4,3l-0.6,0.5L40.6,46.4z"/>
<path class="st0" d="M44.1,43.5l0.8-1c1-1.2,2.1-1.3,3.4-0.3c1.3,1,1.3,2.3,0.4,3.4l-0.8,1L44.1,43.5z M47.9,45.5l0.2-0.2
	c0.6-0.8,0.4-1.6-0.4-2.2c-0.8-0.7-1.6-0.8-2.3,0l-0.2,0.2L47.9,45.5z"/>
<path class="st0" d="M47.5,38.4c0.5-0.9,1.6-1.4,3.1-0.6c1.6,0.8,1.8,2,1.3,2.9c-0.5,0.9-1.6,1.4-3.1,0.6
	C47.3,40.5,47.1,39.3,47.5,38.4z M51.4,40.4c0.3-0.5,0-1.1-1.2-1.7s-1.8-0.4-2.1,0.1c-0.3,0.5,0,1.1,1.2,1.7S51.1,40.9,51.4,40.4z"
	/>
<path class="st0" d="M48.8,36l0.3-1l4.1-0.6l0,0l-3.7-1l0.2-0.8l4.7,1.3l-0.3,1L50,35.5l0,0l3.7,1l-0.2,0.8L48.8,36z"/>
<path class="st0" d="M49.9,31.6l0.1-1.1l3.9-1.4l0,0L50,28.9l0-0.8l4.9,0.2l-0.1,1.1L51,30.8l0,0l3.8,0.2l0,0.8L49.9,31.6z"/>
<path class="st0" d="M48.5,25.9l-0.1-0.8l1.1,0.6l0.1,0.5L48.5,25.9z M49.9,27l-0.4-2.5l0.7-0.1l0.2,1.7l1.3-0.2l-0.2-1.6l0.7-0.1
	l0.2,1.6l1.4-0.2l-0.2-1.7l0.7-0.1l0.4,2.6L49.9,27z"/>
<path class="st0" d="M49.4,23.7l-0.8-2.5l0.7-0.2l0.5,1.6l1.2-0.4l-0.5-1.5l0.7-0.2l0.5,1.5l1.4-0.4l-0.5-1.7l0.7-0.2l0.8,2.5
	L49.4,23.7z"/>
<path d="M7.2,13.3l0.6-0.7l1.5,1.3l0.9-1.1l-1.5-1.3l0.6-0.7l3.8,3.1l-0.6,0.7l-1.7-1.4l-0.9,1.1l1.7,1.4L11,16.3L7.2,13.3z"/>
<path d="M15,10.6l-1.3,1.1l0.5,1.1l-0.7,0.6l-1.8-4.8l0.8-0.6l4.3,2.8L16,11.3L15,10.6z M14.4,10.1l-1.9-1.4l0,0l0.9,2.2L14.4,10.1z
	"/>
<path d="M15.6,6.6l-0.9,0.5l-0.4-0.6L16.9,5l0.4,0.6l-0.9,0.5l2.1,3.6l-0.8,0.4L15.6,6.6z"/>
<path d="M19.4,4.7l-1,0.4l-0.2-0.7L21,3.4L21.2,4l-1,0.4l1.5,3.9l-0.8,0.3L19.4,4.7z"/>
<path d="M22.4,3l2.4-0.5l0.1,0.7l-1.5,0.3l0.3,1.3l1.5-0.3l0.1,0.7l-1.5,0.3l0.4,2.1l-0.9,0.2L22.4,3z"/>
<path d="M27.3,2.3l0.3,3.4c0.1,1.1-0.4,1.5-1.1,1.6c-0.2,0-0.5,0-0.7-0.1l-0.1-0.8c0.1,0,0.2,0.1,0.4,0.1c0.4,0,0.5-0.4,0.5-0.8
	l-0.3-3.4L27.3,2.3z"/>
<path d="M28.9,2.2l2.6,0.1l0,0.7L29.8,3l-0.1,1.3l1.6,0.1l0,0.7L29.7,5l-0.1,1.4l1.7,0.1l0,0.7l-2.6-0.1L28.9,2.2z"/>
<path d="M33.1,2.6L34,2.8l-0.8,4.1l1.6,0.3l-0.1,0.7l-2.5-0.5L33.1,2.6z"/>
<path d="M36.8,3.5l0.8,0.3l-1.4,3.9l1.5,0.6l-0.2,0.7l-2.4-0.9L36.8,3.5z"/>
<path d="M40.6,5l1.1,0.6c1.3,0.8,1.6,1.9,0.8,3.3c-0.8,1.4-2.1,1.6-3.3,0.9l-1.1-0.6L40.6,5z M39.3,9l0.3,0.2
	c0.9,0.5,1.6,0.1,2.2-0.8c0.5-0.9,0.5-1.7-0.4-2.3L41,6L39.3,9z"/>
<path d="M44.5,12.2l-1.3-1.1l-1,0.7l-0.7-0.6L46,8.6l0.7,0.6l-2,4.7L44,13.3L44.5,12.2z M44.8,11.6l1-2.1l0,0l-2,1.3L44.8,11.6z"/>
<path d="M48.8,11.4l0.6,0.7l-3.3,2.6l1,1.3l-0.6,0.4l-1.6-2L48.8,11.4z"/>
<path d="M6.2,17.5C6.4,16.9,7,16.7,7.6,17c0.5,0.3,0.7,0.9,0.5,1.4c-0.3,0.5-0.9,0.7-1.4,0.5C6.1,18.6,5.9,18,6.2,17.5z"/>
<path d="M51.2,17.1c0.3,0.5,0.1,1.1-0.4,1.4s-1.1,0.1-1.4-0.4c-0.3-0.5-0.1-1.1,0.4-1.4C50.3,16.4,50.9,16.6,51.2,17.1z"/>
<path d="M37.7,32.3l0.9,0.1l0.3,0.4l1.2,0.3l0.1,0.1L40,33.3l-1.1-0.1l0.1,0.2l0.2,0.2l0,0.1l-0.3,0l-0.8-0.3l-0.2,0.3l-0.3-0.1
	l-0.4-0.5l-0.1,0.3l0.1,0.1l0,0.2l-0.5-0.2l-0.1,0.1l0.7,0.4l1.2,0l-0.4,0.3l0.5,0.2l-0.3,0.1l-0.8-0.1l-0.2,0.1l0.5,0.3l0.1,0.1
	L36.5,35l0,0.1l1,0.4l0,0.2l-0.1,0.1L37,36l-0.4-0.1l0.1,0.3l-0.1,0.4l0.3,0.1l0.3,0.2l0.3,0l0.2-0.1l0.4-0.6l0.2,0l-0.1,0.6
	l0.1,0.2l0.7-0.7l0.1,0L39,36.4l0.1,0.2L39,36.8l0.2,0l0.7-0.4l-0.3,0.6l1.4-0.6l0.7-0.3l-0.5,0.7l-1,0.3l-0.1,0.2l0.7-0.1l-0.2,0.4
	l-0.8,0.1l-0.4,0.3l1.3-0.1l-0.2,0.3L39.8,38l-0.5,0.1l0.5,0.1l0.2,0.2l-0.3,0.1l-0.6,0l0.1,0.4l-0.6-0.1l-0.6,0.2l0.2,0.3l1-0.1
	l1.2-0.2l-0.3,0.4l-1,0.3l0,0.2l0.6-0.1l-0.2,0.4l-0.3,0.1l0.3,0.2L39,40.5l-0.2,0.3l-0.6-0.2l0.1,0.4l0.3,0.3l0,0.2l-1.2-0.7
	l-0.1,0l0.1,0.5l-0.1,0l-0.2-0.2L37.2,41L37,40.8L36.8,41l-0.1,0.2l-0.1,0.1l-0.2-0.1l-0.1-0.4l0-0.2l-0.1-0.2l-0.2,0.1l0.1,0.6
	l-0.4-0.1L35.4,41l-0.6,0.4L34,40.9l0,0.3l0.9,0.6l-0.6,0.2l-0.5-0.3l0-0.2l-0.5,0.4l-0.2,0l-0.1-0.6l-0.5,0.3L31.9,41l-0.5,0
	l1.7,1.3l-0.4,0.1l-0.6-0.2l-0.2,0.4l-0.5-0.5l-0.2-0.5l-0.6,0.5l0.1,0.4l-0.3-0.1l-0.1-0.1l-0.3-0.1L30,42.4l-0.5,0.1l-0.6,0.6
	l0,2.4l-0.6,0l-0.6-0.1l0-3.1l-0.6,0.2l0-0.2l0.2-0.4l0-0.1l-0.2,0l-0.6,0.2l-0.2-0.4l-0.5,0.4l-1.2,0l1.3-0.9l-0.7,0.1l-0.3,0.3
	l-0.2,0.1l-0.2-0.1l0.1-0.3l-0.1-0.2l-0.2,0.1l-0.2,0.3l-0.8,0l0.8-0.9L23,41.3l-0.1-0.7l-0.2-0.1l-0.3,0.3l0-0.3l-0.1-0.2l-0.4,0.4
	L21.4,41l-0.1-0.2l0.2-0.6l0-0.2l-1.4,0.7l-0.3,0l0.1-0.2l0.3-0.1l0.2-0.4l-0.3-0.6l-0.7,0.6l-0.3,0l0-0.2l0.1-0.1l-0.2-0.1L18,39.6
	l-0.2-0.1l0.2-0.4l0-0.2l-1.1-0.1l-0.6-0.3l1.7-0.3L17.1,38l0.5-0.2l0.4,0l-0.1-0.2l-1,0l0.2-0.2l0.4-0.1l0.2-0.1L17.5,37l-0.9,0
	l0.4-0.3l-0.5-0.1l0.2-0.1l0.4,0l0.1-0.2l-0.5-0.9l1.7,0.5l0.5-0.5l0.1-0.2l-0.9,0.3l-0.5-0.3l0.7-0.1l0.3-0.4l-0.9,0.1l-0.1-0.3
	l-0.9,0l-0.5-0.4l1.5,0.1l-0.3-0.2L16,33.8l-0.1-0.4l5.2,1.2l0.6-0.2l0.1-0.1l-0.2-0.1l-1.3,0.1l-0.1-0.1l0.4-0.3L19,33.8l0-0.1
	l0.9-0.2l-1.2-0.8l0.3-0.1l0.3-0.2l-1-0.6l-0.6,0l-0.1-0.1l0.2-0.1l0.1-0.2L17,31.3l0-0.1l0.5-0.1l-0.6-0.3l0.1-0.1l2.5,0.3l0.2-0.2
	l-1.1,0l0-0.1l0.9-0.2l0.2-0.1l-0.8-0.2l-0.2-0.3l2,0.1l-0.3-0.2l-1.3,0l-0.4-0.3l0.7-0.2l-0.7-0.2l-0.2-0.3l1.5,0.4l0.2-0.2
	l-1.5-0.6l-0.4-0.5l3.9,1.7l0.2-0.1l0.4-0.7l-0.1,0l-0.7,0.3l-0.2,0l0-0.1l-0.2-0.3l-0.3,0l-0.2-0.1l0.2-0.1l1.3,0l0-0.1l-1.1-0.2
	l-0.6-0.4l-1,0l0.2-0.2l0.1,0l0-0.2L19.4,27l0-0.1l4.6,1.3l0.2,0l-0.1-0.2l-0.6-0.2l-0.2-0.2l0-0.2l-0.9,0.1l-0.2,0l0.1-0.1l0.6-0.2
	l-0.2-0.1L22,27l0.6-0.3l-0.4-0.1l-0.6,0L21,26.4l0.5-0.1L21,25.9l0-0.4l1,0.6l0.9,0.5l0.7-0.1L24,27l0.9,0.2l0.1-0.1l-0.7-0.2
	l-0.2-0.1l0.3,0l0.4,0.1l0.3-0.1L23.6,26l0.6-0.1l-2-0.6L22,25.2l0.8,0l-0.6-0.3l-1.1-0.2l-0.3-0.2l0.4-0.2l-0.1-0.1l-0.4-0.2
	l-0.1-0.4l1.6,0.8l0.1,0l-0.2-0.4l1.3,0.6l0.1,0l-1-0.9l0-0.2l1.4,0.6l0.3-0.1L24,24l-0.2-0.1l0.1-0.2l-0.3-0.1l-0.4-0.5l0.6-0.1
	l-1.5-0.6l-0.1-0.4l2.3,1l-0.3-0.5l0.3-0.1l-0.6-0.3l0-0.1l0.4,0l-1.1-0.2l-0.4-0.3l1.1,0.1l-0.4-0.2l-1-0.2l-0.2-0.2l0.9,0.1
	L23,21.1l-0.5-0.1l-0.4-0.2l0.5-0.1l0-0.1l-1.1-0.6L21.5,20l0.3,0l1.1,0.5l0.1,0l-0.1-0.2l0.1,0l1.6,1l0.2,0l0-0.1l-0.3-0.3l0-0.2
	l0.3,0l0.4,0.2l0.6-0.1l0-0.2l-0.3-0.2l0.7-0.1l-0.1-0.1l-0.5-0.4l0.2-0.3l-1.3-0.9l-0.2-0.6l1.2,0.8l0.3-0.2l-0.2-0.4l0-0.3
	l0.8,1.1l0.2,0.1l0.1-0.1l-0.1-0.4l0.6,0.2l0.2-0.1l0-0.1L26.8,18l-0.5-0.2l-0.2-0.6l1.3,0.7l-0.1-0.3l-1-0.4L25.8,17l-0.1-0.6
	l0.9,0.6l0.6,0.4l0.7,0.3l0.4,0l0.2-0.2l-1.2-0.3l-0.5-0.7l0.5,0l1.3,0.4l-0.1-0.3l-1.3-0.5l0.3-0.4l-1-0.6l-0.2-0.4l2.4,1.4l0-0.3
	l-1.1-0.6l0-0.5l0.6,0.5l0.6,0.5l0-0.6l-0.5-0.2l-0.4-0.4h0.5l0.4,0.2l0-0.6l-1.1-0.2l0-0.3l0.7,0.3l0.4-0.1l-0.1-1.3l0.1-0.2
	l0.2,0.2l0,1.4l1.1-0.3L30,13.8l-0.9,0.4l-0.1,0.4l0.6-0.3l0.1,0.3l-0.5,0.3l0.4,0L29.6,15h-0.4l0.2,0.3l-0.2,0.1l-0.1,0.3l1-0.7
	l0,0.4l-0.6,0.2l-0.1,0.1l0.6-0.1l0.9-0.5l0.3-0.1l-0.3,0.5l-1.7,0.8l-0.1,0.2l1,0l0.1,0L29.6,17l-0.1,0.2l0.1,0l1.1-0.5l0.2,0
	l0,0.2l-0.7,0.3L30,17.8l0.6-0.4l0.1,0l-0.1,0.3l-0.8,0.8l0.1,0.1l1-0.3l0.1,0.1L30.3,19l0.1,0.2l0.3-0.1l2.1-1.5l-0.4,0.6l0,0.4
	l0.5-0.3l0.1,0l-0.1,0.3l0.1,0l0.7-0.2l0,0l-1,0.6l0.1,0.1l0.5,0l0.1,0.1l-0.8,0.3l-0.1,0.2l0.2,0.1l0.4,0l-0.7,0.7l0,0.2l0.3,0
	l1.2-0.2l-0.2,0.4L32.8,21l-0.4,0.2l-0.3,0.2l0.4,0.1l0.4-0.1l0.5,0l-0.5,0.3l-0.6,0l-0.4,0.3l1.1-0.1l-0.2,0.4l-0.8,0.4l0,0.4
	l1.1-0.4l0.5,0l-0.3,0.6l-1,0l0.1,0.4l2.1-0.5l0.7-0.3l-0.3,0.5l-1.6,0.3L33,24l0.3,0.1l0.6-0.2l-0.2,0.3l-1,0.2l0,0.1l0.5,0.1
	l0.1,0.1l-1.2,0.2l0,0.3l0.3,0.1l0.3,0.3l0.3,0l0.1-0.1l1.3-0.1l0.2,0.1l-0.8,0.3l0.6,0.3l0,0.1l-0.3,0l-0.3,0.1l0.2,0.1l2.8-0.8
	l0.2,0l-1,0.4L36,26.1l0.8,0l-0.1,0.2l-0.3,0l-0.2,0.1l0.2,0.3l-1.3,0l0.2,0.1l0.2,0.1l0,0.1l-1.3,0l0,0.1l0.4,0.3l2.1-0.3l0.5,0.2
	l-1.5,0.3l0.6,0.1l0,0.1l-1.3,0.1l0.3,0.3l-0.3,0l-0.3,0.2l0,0.2l-1.4-0.1l0.1,0.3l-1-0.2l-0.2,0l0.3,0.5l0.5,0.1l0.2,0.2l0.8-0.3
	l0.3,0.5l3.5-0.6l0.5,0L37,29.5l0.6,0.2l0,0.1l-0.7,0.1l0.2,0.1l3.4,0.2l0.2,0.1l-1.1,0.2l0,0.1l0.1,0.2l-1-0.3l-0.2,0l0.1,0.1
	l0.7,0.4l0.1,0.2l-1.1-0.4l-0.1,0l0.1,0.2l0.3,0.2l0,0.2l-0.3,0l-1-0.5l0,0.3l0.9,0.5l-0.3,0.1l-0.5-0.1l-1.1-0.1l0,0l0.2,0.2
	l0.7,0.2L37.7,32.3z M31.1,21l0.6-0.3l0-0.2L31,20.6l-0.3,0.2L31.1,21L31.1,21z M20.6,36l0.9-0.2l0.1-0.1l-0.2-0.1l-0.9,0.1
	l-0.2,0.1L20.6,36L20.6,36z M21.4,30.9l-0.9,0L20.2,31l0.2,0.1l0.3,0.1L21.4,30.9L21.4,30.9z M21.3,39.6l-0.2-0.1l-0.2,0l-0.4,0.4
	l0.1,0.1L21.3,39.6L21.3,39.6z M34.8,33.8l-0.2,0.1l0,0.1l0.5,0.3l0.3,0l0.1-0.1L34.8,33.8L34.8,33.8z M27.4,21.7l-0.1-0.1l-0.5-0.2
	l-0.2,0l0,0.2l0.6,0.2L27.4,21.7L27.4,21.7z M23.4,29.3L23,29.5l0.3,0.2l0.3-0.2L23.4,29.3L23.4,29.3z M24.9,24.7l-0.4-0.2l-0.3,0.1
	l0.3,0.3L24.9,24.7L24.9,24.7z M29.9,20.1L29.9,20.1l0.1,0.1l0.1,0.2l0.2-0.1l0.1-0.3l0-0.1l-0.2,0L29.9,20.1L29.9,20.1z M17.8,36.7
	l0.7-0.1l0.1-0.1l-0.2-0.1L17.8,36.7L17.8,36.7z M24.6,29.7l-0.2-0.2l-0.2,0.1L24,29.7l-0.1,0.2l0.4,0L24.6,29.7L24.6,29.7z
	 M33.8,28.2l-0.6-0.3l-0.2,0l0,0.1l0.6,0.2L33.8,28.2L33.8,28.2z M21.8,31.2l0.5-0.2l-0.2-0.1l-0.5,0.3L21.8,31.2L21.8,31.2z
	 M19.6,35.9l0.4-0.2l0-0.1l-0.2,0l-0.3,0.1l-0.1,0.1L19.6,35.9L19.6,35.9z M26,27.2L26,27.2L25.6,27l-0.3,0.1l0.3,0.2L26,27.2
	L26,27.2z M34.5,34.7l0.2-0.2l-0.4-0.3l-0.1,0.1L34.5,34.7L34.5,34.7z M26.2,21.4l-0.1-0.2l-0.2,0l0,0.1l0.2,0.3l0.2-0.1L26.2,21.4
	L26.2,21.4z M19.3,36.7l0.1-0.1l-0.2-0.1l-0.5,0.3l0.1,0.1l0.1,0L19.3,36.7L19.3,36.7z M31.4,19.1L31.2,19l-0.2,0l-0.1,0.1l-0.1,0.2
	l0.4,0L31.4,19.1L31.4,19.1z M21.9,38.9l-0.2,0.4l0.1,0.1l0.2-0.1L21.9,38.9L21.9,38.9z M26,27.7l0.3-0.2l0.1-0.2L26,27.5l-0.2,0.1
	L26,27.7L26,27.7z M20.8,33.1l0.3-0.2l0-0.2l-0.4,0.1L20.5,33L20.8,33.1L20.8,33.1z M35.3,35.9l0.4,0.3l0.2-0.1L35.8,36L35.3,35.9
	L35.3,35.9z M28.8,42.3l0.1,0l0.1-0.4l-0.1-0.1l-0.1,0.1L28.8,42.3L28.8,42.3z M25.1,28.3l0.1,0l0.1-0.1L24.9,28L24.8,28L25.1,28.3
	L25.1,28.3z M34.1,27.4L34.1,27.4l-0.5-0.3l-0.1,0.1l0.4,0.2L34.1,27.4L34.1,27.4z M31.3,24.4l0.1,0l0.3-0.3L31.5,24l-0.2,0.1
	L31.3,24.4L31.3,24.4z M25.4,29.6l-0.2-0.2l-0.3,0.2l0.1,0.1L25.4,29.6L25.4,29.6z M30.8,19.7l0.2,0.2l0.3-0.2l-0.1-0.1L30.8,19.7
	L30.8,19.7z M38.2,38.2L37,38.5l-0.8,0l1.1,0.3l0.3-0.2L38.2,38.2z M33.4,34.6l-0.1,0.1l0.3,0.2l0.2-0.1L33.4,34.6L33.4,34.6z
	 M22.7,34.5l-0.3,0.2l0.2,0.1l0.3-0.1L22.7,34.5L22.7,34.5z M31.3,25.5l0.2-0.2l-0.3-0.1L31,25.3L31.3,25.5L31.3,25.5z M29.4,17.6
	l-0.2,0.2l0.2,0.1l0.2-0.2L29.4,17.6L29.4,17.6z M29.4,19.1l-0.2,0.2l0.1,0.1l0.2-0.1L29.4,19.1L29.4,19.1z M35.5,33.6l-0.2,0.2
	l0.7,0.5l0.4-0.2L35.5,33.6L35.5,33.6z M18.7,38L18.7,38l-0.5,0l0.1,0.1L18.7,38L18.7,38z M30.6,21.5l-0.2-0.2l-0.1,0.1l0.1,0.1
	L30.6,21.5L30.6,21.5z M31,22.6l0.2-0.2L31,22.3l-0.2,0.1L31,22.6L31,22.6z M32.6,26l0.2-0.2l-0.1-0.1l-0.2,0.1L32.6,26L32.6,26z
	 M31.1,21.1L30.9,21l-0.2,0.1l0.2,0.1L31.1,21.1L31.1,21.1z"/>
<path d="M28.8,57.4C13,57.4,0.1,44.6,0.1,28.8C0.1,13,13,0.1,28.8,0.1c15.8,0,28.6,12.8,28.6,28.6C57.4,44.6,44.6,57.4,28.8,57.4z
	 M28.8,0.7C13.3,0.7,0.7,13.3,0.7,28.8s12.6,28.1,28.1,28.1s28.1-12.6,28.1-28.1S44.2,0.7,28.8,0.7z"/>
<path d="M28.8,48.2c-10.7,0-19.4-8.7-19.4-19.4S18.1,9.4,28.8,9.4s19.4,8.7,19.4,19.4S39.5,48.2,28.8,48.2z M28.8,9.9
	c-10.4,0-18.9,8.5-18.9,18.9s8.5,18.9,18.9,18.9s18.9-8.5,18.9-18.9S39.2,9.9,28.8,9.9z"/>
</svg>
