<?xml version="1.0" encoding="utf-8"?>
<!-- Generator: Adobe Illustrator 26.0.3, SVG Export Plug-In . SVG Version: 6.00 Build 0)  -->
<svg version="1.1" id="Lager_1" xmlns="http://www.w3.org/2000/svg" xmlns:xlink="http://www.w3.org/1999/xlink" x="0px" y="0px"
	 viewBox="0 0 57.5 57.5" style="enable-background:new 0 0 57.5 57.5;" xml:space="preserve">
<style type="text/css">
	.st0{opacity:0.88;enable-background:new    ;}
</style>
<path class="st0" d="M7.1,24.7L7.1,24.7l-3.6-2.2l0.2-0.6l4.2-0.1l0,0l-3.9-1L4.2,20l4.7,1.2l-0.3,1.3l-3.8,0.1l0,0L8,24.5l-0.3,1.3
	L3,24.6l0.2-0.8L7.1,24.7z"/>
<path class="st0" d="M7.7,26.7l-0.1,0.9l-4.9-0.4l0.1-0.9L7.7,26.7z"/>
<path class="st0" d="M7.5,28.6l0.1,1.3c0.1,1.5-0.7,2.4-2.3,2.5c-1.6,0.1-2.5-0.8-2.6-2.2l-0.1-1.3L7.5,28.6z M3.4,29.8v0.3
	c0.1,1,0.8,1.4,1.9,1.3s1.7-0.6,1.6-1.6v-0.3L3.4,29.8z"/>
<path class="st0" d="M7.9,33l0.3,1L5,36.6l0,0l3.7-1.1l0.2,0.8l-4.7,1.4l-0.3-1l3.2-2.6l0,0l-3.7,1.1l-0.2-0.8L7.9,33z"/>
<path class="st0" d="M9.3,37.2L9.7,38l-4.4,2l-0.4-0.8L9.3,37.2z"/>
<path class="st0" d="M9.4,41.8l0.9,1.3l-2.1,1.4c-0.2-0.1-0.6-0.4-0.9-1c-0.9-1.3-0.4-2.6,0.8-3.4c1.2-0.8,2.6-0.7,3.4,0.6
	c0.3,0.5,0.4,0.9,0.5,1.1l-0.7,0.4c0-0.3-0.1-0.7-0.4-1.1c-0.5-0.8-1.5-0.8-2.3-0.2c-0.9,0.6-1.2,1.4-0.7,2.2
	c0.1,0.2,0.3,0.3,0.4,0.4l1.1-0.7L9,42.2L9.4,41.8z"/>
<path class="st0" d="M12.7,42.7l0.6,0.6l-1.4,1.4l1,1l1.4-1.4l0.6,0.6l-3.4,3.5l-0.6-0.6l1.5-1.5l-1-1l-1.5,1.5l-0.6-0.6L12.7,42.7z
	"/>
<path class="st0" d="M15.9,46.5L15,45.9l0.4-0.6l2.5,1.7l-0.4,0.6L16.7,47l-2.4,3.4L13.6,50L15.9,46.5z"/>
<path class="st0" d="M18.2,51.6c0.1,0.2,0.4,0.5,0.9,0.7c0.4,0.1,0.8,0.1,1-0.4c0.1-0.3,0-0.5-0.3-0.9l-0.3-0.4
	c-0.4-0.4-0.5-0.9-0.3-1.5c0.3-0.8,1.2-1,1.9-0.7c0.5,0.2,0.8,0.5,0.9,0.5l-0.3,0.7c-0.2-0.2-0.4-0.4-0.8-0.5
	c-0.4-0.2-0.7,0-0.8,0.3c-0.1,0.3,0,0.6,0.2,0.8l0.4,0.5c0.4,0.5,0.6,0.9,0.3,1.5c-0.4,0.9-1.2,1.1-2.1,0.8c-0.5-0.2-0.8-0.4-1-0.6
	L18.2,51.6z"/>
<path class="st0" d="M23.8,49.4l-0.6,3.1c-0.2,0.8,0,1.1,0.5,1.2c0.5,0.1,0.8-0.1,1-0.9l0.6-3.1l0.9,0.2L25.5,53
	c-0.3,1.3-1.1,1.6-2,1.4c-0.9-0.2-1.5-0.8-1.3-2.1l0.6-3.1L23.8,49.4z"/>
<path class="st0" d="M27.1,50h1.1l1.7,3.8l0,0L29.8,50h0.8l0.1,4.9h-1.1L28,51.1l0,0l0.1,3.8h-0.8L27.1,50z"/>
<path class="st0" d="M33,49.6l1.5-0.4c0.8-0.2,1.5,0,1.7,0.9c0.2,0.6-0.1,1.1-0.6,1.4l0,0c0.2,0,0.4,0,0.7,0.4l1.1,1.6l-0.9,0.3
	l-0.9-1.4c-0.2-0.3-0.5-0.4-0.8-0.3l-0.2,0.1l0.6,2l-0.9,0.2L33,49.6z M34.7,51.3c0.5-0.1,0.7-0.4,0.6-0.9c-0.1-0.5-0.5-0.6-1-0.5
	L34,50l0.4,1.4L34.7,51.3z"/>
<path class="st0" d="M40.7,50.6l-1.5,0.8l0.2,1.2L38.6,53l-0.7-5.1l0.9-0.4l3.6,3.7l-0.8,0.4L40.7,50.6z M40.2,50.1l-1.6-1.8l0,0
	l0.4,2.3L40.2,50.1z"/>
<path class="st0" d="M40.6,46.4l0.8-0.7l3.7,2l0,0l-2.4-3l0.6-0.5l3.1,3.8l-0.8,0.7l-3.6-2l0,0l2.4,3l-0.6,0.5L40.6,46.4z"/>
<path class="st0" d="M44.1,43.5l0.8-1c1-1.2,2.1-1.3,3.4-0.3c1.3,1,1.3,2.3,0.4,3.4l-0.8,1L44.1,43.5z M47.9,45.5l0.2-0.2
	c0.6-0.8,0.4-1.6-0.4-2.2c-0.8-0.7-1.6-0.8-2.3,0l-0.2,0.2L47.9,45.5z"/>
<path class="st0" d="M47.5,38.4c0.5-0.9,1.6-1.4,3.1-0.6c1.6,0.8,1.8,2,1.3,2.9s-1.6,1.4-3.1,0.6S47.1,39.3,47.5,38.4z M51.4,40.4
	c0.3-0.5,0-1.1-1.2-1.7s-1.8-0.4-2.1,0.1s0,1.1,1.2,1.7S51.1,40.9,51.4,40.4z"/>
<path class="st0" d="M48.8,36l0.3-1l4.1-0.6l0,0l-3.7-1l0.2-0.8l4.7,1.3l-0.3,1L50,35.5l0,0l3.7,1l-0.2,0.8L48.8,36z"/>
<path class="st0" d="M49.9,31.6l0.1-1.1l3.9-1.4l0,0L50,28.9v-0.8l4.9,0.2l-0.1,1.1L51,30.8l0,0l3.8,0.2v0.8L49.9,31.6z"/>
<path class="st0" d="M48.5,25.9l-0.1-0.8l1.1,0.6l0.1,0.5L48.5,25.9z M49.9,27l-0.4-2.5l0.7-0.1l0.2,1.7l1.3-0.2l-0.2-1.6l0.7-0.1
	l0.2,1.6l1.4-0.2l-0.2-1.7l0.7-0.1l0.4,2.6L49.9,27z"/>
<path class="st0" d="M49.4,23.7l-0.8-2.5l0.7-0.2l0.5,1.6l1.2-0.4l-0.5-1.5l0.7-0.2l0.5,1.5l1.4-0.4l-0.5-1.7l0.7-0.2l0.8,2.5
	L49.4,23.7z"/>
<path d="M9.7,12.1L9,12.9l-0.5-0.5l2.1-2.3l0.5,0.5l-0.7,0.8l3.1,2.8l-0.6,0.7L9.7,12.1z"/>
<path d="M12.7,8.3l2.2,2.7c0.7,0.8,0.5,1.5,0,1.9c-0.2,0.1-0.4,0.3-0.6,0.3l-0.5-0.6c0.1,0,0.2-0.1,0.4-0.2c0.3-0.3,0.2-0.6,0-0.9
	L12,8.9L12.7,8.3z"/>
<path d="M18.3,9.1l-1.5,0.8l0.3,1.2l-0.8,0.4l-1-5L16.2,6L20,9.4l-0.8,0.5L18.3,9.1z M17.8,8.6l-1.7-1.7l0,0l0.6,2.3L17.8,8.6z"/>
<path d="M19.4,4.4l0.9-0.3l0.6,2l0,0l0.7-2.4l1-0.3l-0.9,2.7L24.2,8l-1,0.3l-2.1-1.7l0,0l0.7,2.2l-0.9,0.3L19.4,4.4z"/>
<path d="M25.5,3.7l-1.1,0.1l-0.1-0.7l3.1-0.3l0.1,0.7l-1.1,0.1l0.5,4.1L26,7.8L25.5,3.7z"/>
<path d="M30.3,2.8l-0.1,3.5c0,1.1-0.6,1.5-1.3,1.5c-0.2,0-0.5-0.1-0.6-0.1V6.9c0.1,0,0.2,0.1,0.4,0.1c0.4,0,0.6-0.3,0.6-0.7l0.1-3.5
	L30.3,2.8z"/>
<path d="M34,7.1l-1.6-0.3l-0.6,1.1l-0.9-0.2l2.6-4.5l1,0.2L35,8.5l-0.9-0.2L34,7.1z M33.9,6.3L33.8,4l0,0l-1.1,2.1L33.9,6.3z"/>
<path d="M38.5,4.6l-1.3,2.9c-0.3,0.7-0.2,1.1,0.3,1.3s0.8,0.1,1.1-0.7l1.3-2.9l0.8,0.4l-1.3,2.9c-0.5,1.2-1.4,1.3-2.2,1
	c-0.8-0.4-1.3-1.1-0.8-2.3l1.3-2.9L38.5,4.6z"/>
<path d="M42.8,6.8L44,7.7c0.7,0.5,1,1.2,0.4,1.9C44,10.1,43.5,10.2,43,10l0,0c0.1,0.1,0.2,0.3,0.1,0.8l-0.6,1.9l-0.8-0.6l0.5-1.6
	c0.1-0.4,0-0.6-0.3-0.8l-0.2-0.1l-1.2,1.7l-0.7-0.5L42.8,6.8z M42.6,9.3c0.4,0.3,0.8,0.3,1.1-0.1c0.3-0.5,0.2-0.7-0.2-1L43.2,8
	l-0.8,1.2L42.6,9.3z"/>
<path d="M46.9,10l1.8,1.9l-0.5,0.5L47,11.2l-1,0.9l1.1,1.2l-0.5,0.5l-1.1-1.2l-1,1l1.2,1.3l-0.5,0.5l-1.8-1.9L46.9,10z"/>
<path d="M6.2,17.5C6.4,16.9,7,16.7,7.6,17c0.5,0.3,0.7,0.9,0.5,1.4c-0.3,0.5-0.9,0.7-1.4,0.5C6.1,18.6,5.9,18,6.2,17.5z"/>
<path d="M51.2,17.1c0.3,0.5,0.1,1.1-0.4,1.4s-1.1,0.1-1.4-0.4c-0.3-0.5-0.1-1.1,0.4-1.4C50.3,16.4,50.9,16.6,51.2,17.1z"/>
<path d="M41.3,21.2c-0.2-0.4-0.3-0.4-0.5-0.1c-0.2,0.3-0.3,0.5-0.5,0.6c-0.5,0.2-1.1,0.4-1.7,0.6c0,0,0-0.1-0.1-0.1
	c0.3-0.6,0.6-1.2,1.2-1.7c0.2-0.1,0.3-0.3,0.5-0.5c0.2-0.3,0.1-0.6-0.2-0.7c-0.2-0.1-0.4-0.1-0.6-0.1c-2.6,0.2-5.2,0.5-7.9,0.7
	C30,20,28.6,20,27.1,20.1c-1.5,0.2-3,0.4-4.4,1c-0.1,0-0.3,0-0.4-0.1c-0.7-0.4-1.4-0.9-2.1-1.2c-0.3-0.2-0.8-0.1-1.2-0.2
	c-0.1,0-0.3,0.2-0.3,0.2c0.2,0.7-0.3,1.2-0.5,1.7c-0.2,0.4-0.3,0.8-0.3,1.2c0,0.2,0.1,0.4,0,0.5c0,0.1-0.1,0.3-0.2,0.4
	c0.2,0.1,0.4,0.2,0.6,0.3c-0.3,0.4-0.7,0.8-1,1.1c-1.8,2.1-2.4,4.5-2,7.1c0.3,1.8,1.3,3.2,2.9,4.3c0.4,0.2,0.5,0.5,0.6,0.9
	c0,0.5,0.1,1,0.3,1.5c0.1,0.3,0.3,0.5,0.6,0.7c0.2,0.1,0.5,0.3,0.6-0.2l0.1-0.1c0.5-0.2,0.9-0.6,1.4-0.5c0.2,0,0.4,0,0.5,0
	s0.3,0,0.4,0.1c0.9,0.6,1.8,1.1,2.6,1.7c0.9,0.6,1.8,1.3,2.7,2c0.2,0.1,0.4,0.2,0.6,0.4c-0.1-0.6,0.5-1.2,0.1-1.7
	c0.1-0.1,0.1-0.1,0.2-0.2c0.2-0.7,0.2-1.3-0.1-1.9c0-0.1,0-0.1,0.1-0.2c0-0.6,0.3-0.9,0.8-1.2c0.2-0.1,0.4-0.3,0.6-0.5
	c0.4-0.6,0.7-1.3,1.1-2c-0.4-0.3-0.8-0.4-1.3-0.3c-0.8,0.1-1.6,0.2-2.3,0.3c-1.6,0.3-3.2,0.5-4.7,0.2c0-0.2-0.1-0.4-0.1-0.6
	c-0.1-0.2-0.2-0.4-0.3-0.6c-0.6-0.1-1.2-0.1-1.7-0.7c0.2-0.3,0.3-0.5,0.4-0.8c0.4,0.1,0.7,0.2,1.1,0.3c-0.1,0.4,0.2,0.5,0.4,0.7
	c0.4,0.3,0.5,0.3,0.8-0.1c0.6-0.9,1-2,1.1-3.1c0-0.1,0.1-0.3,0.2-0.4c0.9-0.3,1.8-0.7,2.7-1c0.2-0.1,0.4,0,0.5,0.1
	c0.3,0.1,0.6,0.3,0.9,0.4c0.5,0.2,1,0.3,1.5,0.5c0.2,0,0.4,0,0.6,0.1c0,0.1,0.1,0.4,0.2,0.4c0.5,0.4,1,0.2,1.1-0.4
	c0-0.1,0-0.2,0-0.4c0-0.8-0.1-1.5-0.6-2.2c0.1,0,0.2-0.1,0.3-0.1c0.5-0.2,0.9-0.3,1.1-0.5c-0.7,0.1-1.7-0.1-2.3-0.9
	c-1.2-1.5-1.4-2.4-0.1-3.6c0.2-0.1,0.7-0.3,0.9-0.3c0.1,0-1.2,1-1.3,1.5c-0.1,1.4,0.7,1.8,1.1,2.3c0.6,0.7,2.5,0.5,2.9,0.4
	c1.3-0.6,2.2-1.1,3.4-1.9s2.2-1.7,3.1-2.7C41.3,21.6,41.5,21.6,41.3,21.2z"/>
<path d="M28.8,57.4C13,57.4,0.1,44.6,0.1,28.8S13,0.1,28.8,0.1S57.4,13,57.4,28.8S44.6,57.4,28.8,57.4z M28.8,0.7
	C13.3,0.7,0.7,13.3,0.7,28.8s12.6,28.1,28.1,28.1s28.1-12.6,28.1-28.1S44.2,0.7,28.8,0.7z"/>
<path d="M28.8,48.2c-10.7,0-19.4-8.7-19.4-19.4S18.1,9.4,28.8,9.4s19.4,8.7,19.4,19.4S39.5,48.2,28.8,48.2z M28.8,9.9
	c-10.4,0-18.9,8.5-18.9,18.9s8.5,18.9,18.9,18.9s18.9-8.5,18.9-18.9S39.2,9.9,28.8,9.9z"/>
</svg>
