<?xml version="1.0" encoding="utf-8"?>
<!-- Generator: Adobe Illustrator 26.0.3, SVG Export Plug-In . SVG Version: 6.00 Build 0)  -->
<svg version="1.1" id="Lager_1" xmlns="http://www.w3.org/2000/svg" xmlns:xlink="http://www.w3.org/1999/xlink" x="0px" y="0px"
	 viewBox="0 0 57.5 57.5" style="enable-background:new 0 0 57.5 57.5;" xml:space="preserve">
<style type="text/css">
	.st0{opacity:0.88;}
</style>
<path class="st0" d="M7.1,24.7L7.1,24.7l-3.6-2.2l0.2-0.6l4.2-0.1l0,0l-3.9-1l0.2-0.8l4.7,1.2l-0.3,1.3l-3.8,0.1l0,0L8,24.5
	l-0.3,1.3l-4.7-1.2l0.2-0.8L7.1,24.7z"/>
<path class="st0" d="M7.7,26.7l-0.1,0.9l-4.9-0.4l0.1-0.9L7.7,26.7z"/>
<path class="st0" d="M7.5,28.6l0.1,1.3c0.1,1.5-0.7,2.4-2.3,2.5c-1.6,0.1-2.5-0.8-2.6-2.2l-0.1-1.3L7.5,28.6z M3.4,29.8l0,0.3
	c0.1,1,0.8,1.4,1.9,1.3c1.1-0.1,1.7-0.6,1.6-1.6l0-0.3L3.4,29.8z"/>
<path class="st0" d="M7.9,33l0.3,1L5,36.6l0,0l3.7-1.1l0.2,0.8l-4.7,1.4l-0.3-1l3.2-2.6l0,0l-3.7,1.1l-0.2-0.8L7.9,33z"/>
<path class="st0" d="M9.3,37.2L9.7,38l-4.4,2l-0.4-0.8L9.3,37.2z"/>
<path class="st0" d="M9.4,41.8l0.9,1.3l-2.1,1.4c-0.2-0.1-0.6-0.4-0.9-1c-0.9-1.3-0.4-2.6,0.8-3.4c1.2-0.8,2.6-0.7,3.4,0.6
	c0.3,0.5,0.4,0.9,0.5,1.1l-0.7,0.4c0-0.3-0.1-0.7-0.4-1.1c-0.5-0.8-1.5-0.8-2.3-0.2c-0.9,0.6-1.2,1.4-0.7,2.2
	c0.1,0.2,0.3,0.3,0.4,0.4l1.1-0.7l-0.4-0.6L9.4,41.8z"/>
<path class="st0" d="M12.7,42.7l0.6,0.6l-1.4,1.4l1,1l1.4-1.4l0.6,0.6l-3.4,3.5l-0.6-0.6l1.5-1.5l-1-1l-1.5,1.5l-0.6-0.6L12.7,42.7z
	"/>
<path class="st0" d="M15.9,46.5L15,45.9l0.4-0.6l2.5,1.7l-0.4,0.6L16.7,47l-2.4,3.4L13.6,50L15.9,46.5z"/>
<path class="st0" d="M18.2,51.6c0.1,0.2,0.4,0.5,0.9,0.7c0.4,0.1,0.8,0.1,1-0.4c0.1-0.3,0-0.5-0.3-0.9l-0.3-0.4
	c-0.4-0.4-0.5-0.9-0.3-1.5c0.3-0.8,1.2-1,1.9-0.7c0.5,0.2,0.8,0.5,0.9,0.5l-0.3,0.7c-0.2-0.2-0.4-0.4-0.8-0.5
	c-0.4-0.2-0.7,0-0.8,0.3c-0.1,0.3,0,0.6,0.2,0.8l0.4,0.5c0.4,0.5,0.6,0.9,0.3,1.5c-0.4,0.9-1.2,1.1-2.1,0.8c-0.5-0.2-0.8-0.4-1-0.6
	L18.2,51.6z"/>
<path class="st0" d="M23.7,49.4l-0.6,3.1c-0.2,0.8,0,1.1,0.5,1.2c0.5,0.1,0.8-0.1,1-0.9l0.6-3.1l0.9,0.2L25.5,53
	c-0.3,1.3-1.1,1.6-2,1.4c-0.9-0.2-1.5-0.8-1.3-2.1l0.6-3.1L23.7,49.4z"/>
<path class="st0" d="M27.1,50l1.1,0l1.7,3.8h0l-0.1-3.8l0.8,0l0.1,4.9l-1.1,0L28,51.1h0l0.1,3.8l-0.8,0L27.1,50z"/>
<path class="st0" d="M33,49.6l1.5-0.4c0.8-0.2,1.5,0,1.7,0.9c0.2,0.6-0.1,1.1-0.6,1.4l0,0c0.2,0,0.4,0,0.7,0.4l1.1,1.6l-0.9,0.3
	l-0.9-1.4c-0.2-0.3-0.5-0.4-0.8-0.3l-0.2,0.1l0.6,2l-0.9,0.2L33,49.6z M34.7,51.3c0.5-0.1,0.7-0.4,0.6-0.9c-0.1-0.5-0.5-0.6-1-0.5
	L34,50l0.4,1.4L34.7,51.3z"/>
<path class="st0" d="M40.7,50.6l-1.5,0.8l0.2,1.2L38.6,53l-0.7-5.1l0.9-0.4l3.6,3.7l-0.8,0.4L40.7,50.6z M40.2,50.1l-1.6-1.8l0,0
	l0.4,2.3L40.2,50.1z"/>
<path class="st0" d="M40.6,46.4l0.8-0.7l3.7,2l0,0l-2.4-3l0.6-0.5l3.1,3.8l-0.8,0.7l-3.6-2l0,0l2.4,3l-0.6,0.5L40.6,46.4z"/>
<path class="st0" d="M44.1,43.5l0.8-1c1-1.2,2.1-1.3,3.4-0.3c1.3,1,1.3,2.3,0.4,3.4l-0.8,1L44.1,43.5z M47.9,45.5l0.2-0.2
	c0.6-0.8,0.4-1.6-0.4-2.2c-0.8-0.7-1.6-0.8-2.3,0l-0.2,0.2L47.9,45.5z"/>
<path class="st0" d="M47.5,38.4c0.5-0.9,1.6-1.4,3.1-0.6c1.6,0.8,1.8,2,1.3,2.9c-0.5,0.9-1.6,1.4-3.1,0.6
	C47.3,40.5,47.1,39.3,47.5,38.4z M51.4,40.4c0.3-0.5,0-1.1-1.2-1.7s-1.8-0.4-2.1,0.1c-0.3,0.5,0,1.1,1.2,1.7S51.1,40.9,51.4,40.4z"
	/>
<path class="st0" d="M48.8,36l0.3-1l4.1-0.6l0,0l-3.7-1l0.2-0.8l4.7,1.3l-0.3,1L50,35.5l0,0l3.7,1l-0.2,0.8L48.8,36z"/>
<path class="st0" d="M49.9,31.6l0.1-1.1l3.9-1.4l0,0L50,28.9l0-0.8l4.9,0.2l-0.1,1.1L51,30.8l0,0l3.8,0.2l0,0.8L49.9,31.6z"/>
<path class="st0" d="M48.5,25.9l-0.1-0.8l1.1,0.6l0.1,0.5L48.5,25.9z M49.9,27l-0.4-2.5l0.7-0.1l0.2,1.7l1.3-0.2l-0.2-1.6l0.7-0.1
	l0.2,1.6l1.4-0.2l-0.2-1.7l0.7-0.1l0.4,2.6L49.9,27z"/>
<path class="st0" d="M49.4,23.7l-0.8-2.5l0.7-0.2l0.5,1.6l1.2-0.4l-0.5-1.5l0.7-0.2l0.5,1.5l1.4-0.4l-0.5-1.7l0.7-0.2l0.8,2.5
	L49.4,23.7z"/>
<path d="M14,8.4L14,8.4l1.7,3.9l-0.5,0.4l-3.5-2.4l0,0l2.6,3.1L13.6,14l-3.1-3.7l1-0.9l3.1,2.2l0,0l-1.6-3.5l1-0.8l3.1,3.7l-0.6,0.5
	L14,8.4z"/>
<path d="M17.9,5.1c0.9-0.4,2.1-0.1,2.8,1.5c0.7,1.6,0.2,2.7-0.7,3.1c-0.9,0.4-2.1,0.1-2.8-1.5C16.5,6.6,17,5.5,17.9,5.1z M19.8,9
	c0.5-0.2,0.7-0.9,0.2-2.1s-1.2-1.5-1.7-1.2c-0.5,0.2-0.7,0.9-0.2,2.1S19.3,9.2,19.8,9z"/>
<path d="M23.7,3.2l0.9-0.2l0.9,4.8L24.6,8L23.7,3.2z"/>
<path d="M28.7,2.7l1.5,0.1c0.9,0,1.4,0.5,1.4,1.3c0,0.6-0.4,1-1,1.1v0c0.2,0,0.4,0.1,0.5,0.6l0.6,1.9l-1,0L30.3,6
	c-0.1-0.4-0.3-0.5-0.7-0.5l-0.2,0l-0.1,2.1l-0.9,0L28.7,2.7z M29.8,4.8c0.5,0,0.8-0.2,0.8-0.7c0-0.6-0.3-0.7-0.8-0.7l-0.4,0
	l-0.1,1.4L29.8,4.8z"/>
<path d="M35.6,7.4L34,7l-0.6,1l-0.9-0.2l2.8-4.3l0.9,0.3l0.3,5.1l-0.9-0.2L35.6,7.4z M35.6,6.7l0-2.4l0,0l-1.2,2L35.6,6.7z"/>
<path d="M39.7,4.9l0.9,0.5l-0.4,4.2l0,0L42,6.2l0.7,0.4l-2.3,4.3l-0.9-0.5l0.4-4.1l0,0l-1.8,3.4l-0.7-0.4L39.7,4.9z"/>
<path d="M44.3,12.4L43,11.3l-1,0.7l-0.7-0.6l4.4-2.6l0.7,0.6l-2,4.7l-0.7-0.6L44.3,12.4z M44.6,11.8l1-2.1l0,0l-2,1.3L44.6,11.8z"/>
<path d="M6.2,17.5C6.4,16.9,7,16.7,7.6,17c0.5,0.3,0.7,0.9,0.5,1.4c-0.3,0.5-0.9,0.7-1.4,0.5C6.1,18.6,5.9,18,6.2,17.5z"/>
<path d="M51.2,17.1c0.3,0.5,0.1,1.1-0.4,1.4s-1.1,0.1-1.4-0.4c-0.3-0.5-0.1-1.1,0.4-1.4C50.3,16.4,50.9,16.6,51.2,17.1z"/>
<path d="M28.8,57.4C13,57.4,0.1,44.6,0.1,28.8C0.1,13,13,0.1,28.8,0.1c15.8,0,28.6,12.8,28.6,28.6C57.4,44.6,44.6,57.4,28.8,57.4z
	 M28.8,0.7C13.3,0.7,0.7,13.3,0.7,28.8s12.6,28.1,28.1,28.1c15.5,0,28.1-12.6,28.1-28.1S44.2,0.7,28.8,0.7z"/>
<path d="M28.8,48.2c-10.7,0-19.4-8.7-19.4-19.4S18.1,9.4,28.8,9.4s19.4,8.7,19.4,19.4S39.5,48.2,28.8,48.2z M28.8,9.9
	c-10.4,0-18.9,8.5-18.9,18.9s8.5,18.9,18.9,18.9s18.9-8.5,18.9-18.9S39.2,9.9,28.8,9.9z"/>
<path d="M30.2,34.3c0,0.5,0,0.9,0.1,1.4c0.1,0.8,0.2,1.7,0.5,2.5c0.1,0.3,0.3,0.7,0.6,0.9c0.2,0.2,0.5,0.4,0.8,0.5
	c0.1,0,0.2,0.1,0.4,0.1c0.4,0.1,0.7,0.1,1.1,0.1c0.2,0,0.5-0.1,0.7-0.1c0.5-0.1,0.8-0.2,1.2-0.4c0.2-0.1,0.4-0.2,0.6-0.3
	c0.4-0.2,0.8-0.4,1.2-0.6c0.1,0,0.1-0.1,0.2-0.1c0.3-0.2,0.7-0.4,1-0.7c0.2-0.1,0.3-0.3,0.5-0.4c0.3-0.3,0.7-0.6,1-0.9
	c0.2-0.2,0.4-0.4,0.5-0.6c0.1-0.1,0.1-0.3,0-0.4c-0.1-0.2-0.3-0.3-0.4-0.5c0,0-0.1-0.1-0.1-0.1c-0.1-0.1-0.1-0.2,0-0.3
	c0.1-0.1,0.2-0.1,0.3-0.2c0.5-0.3,1-0.6,1.5-0.9c0.2-0.1,0.5-0.3,0.7-0.4c0.1-0.1,0.3-0.1,0.4-0.2c0.2-0.1,0.3,0,0.3,0.2
	c0,0.1,0,0.1,0,0.2c0,0.2,0,0.4,0,0.7c0,0.5-0.1,0.9-0.2,1.4c-0.1,0.4-0.1,0.8-0.2,1.2c0,0,0,0.1,0,0.1c0,0.2-0.1,0.2-0.3,0.1
	c-0.1,0-0.2-0.1-0.2-0.2c-0.1-0.1-0.2-0.1-0.3-0.2c-0.1-0.1-0.2-0.1-0.4,0c0,0,0,0-0.1,0.1c-0.3,0.3-0.5,0.6-0.7,0.9
	c-0.4,0.5-0.9,0.9-1.4,1.3c-0.4,0.3-0.8,0.6-1.3,0.9c-0.5,0.3-1,0.6-1.5,0.8c-0.3,0.2-0.7,0.3-1,0.5c-0.3,0.1-0.6,0.2-0.8,0.3
	c-0.3,0.1-0.6,0.2-0.9,0.4c-0.4,0.2-0.9,0.3-1.3,0.5c-0.3,0.1-0.6,0.3-0.9,0.4c-0.5,0.2-1,0.5-1.5,0.8c-0.3,0.2-0.6,0.3-0.9,0.5
	c-0.2,0.1-0.3,0.2-0.5,0.3c-0.1,0.1-0.3,0.2-0.5,0.3c-0.1,0.1-0.3,0.1-0.4,0c-0.2-0.2-0.4-0.3-0.6-0.5c-0.5-0.4-0.9-0.7-1.4-1
	c-0.3-0.2-0.7-0.4-1-0.6c-0.4-0.2-0.7-0.4-1.1-0.6c-0.8-0.5-1.6-0.9-2.4-1.4c-0.7-0.4-1.4-0.8-2.1-1.2c-0.2-0.1-0.4-0.2-0.6-0.3
	c-0.6-0.3-1.1-0.7-1.6-1.2c-0.2-0.2-0.5-0.5-0.7-0.7c-0.3-0.3-0.6-0.7-0.9-1c-0.1-0.2-0.3-0.3-0.4-0.5c0-0.1-0.1-0.1-0.1-0.1
	c-0.1-0.1-0.3-0.1-0.4-0.1c-0.1,0.1-0.2,0.1-0.4,0.2c0,0-0.1,0-0.1,0.1c-0.1,0-0.2,0-0.2-0.1c0-0.2-0.1-0.4-0.1-0.5
	c0-0.4-0.1-0.7-0.1-1.1c0-0.3,0-0.6-0.1-1c0-0.2,0-0.3,0-0.5c0-0.1,0-0.3,0-0.4c0-0.2,0.1-0.2,0.3-0.2c0.1,0,0.3,0.1,0.4,0.2
	c0.2,0.1,0.5,0.3,0.7,0.4c0,0,0.1,0,0.1,0.1c0.5,0.3,0.9,0.6,1.4,0.9c0,0,0.1,0,0.1,0.1c0.2,0.1,0.2,0.2,0,0.4
	c-0.1,0.1-0.2,0.2-0.3,0.3c0,0-0.1,0.1-0.1,0.2c-0.1,0.2-0.1,0.3,0,0.4c0,0,0,0,0,0c0.3,0.3,0.6,0.7,0.9,1c0.4,0.4,0.7,0.7,1.2,1.1
	c0.3,0.2,0.5,0.4,0.8,0.6c0.4,0.3,0.8,0.5,1.2,0.8c0.7,0.4,1.1,0.6,1.9,0.9c0.4,0.1,0.8,0.2,1.2,0.2c0.2,0,0.6,0,0.7,0
	c0.4,0,0.5-0.1,0.9-0.2c0.2-0.1,0.4-0.2,0.6-0.3c0.2-0.2,0.4-0.4,0.6-0.6c0.2-0.3,0.3-0.6,0.4-0.9c0.1-0.3,0.2-0.7,0.3-1
	c0-0.2,0.5-3.6,0.7-5.5s0.5-7.9,0.5-8.2c0-0.2,0-0.5-0.2-0.5c-0.1,0-0.1,0-0.2,0c-0.3,0-8-0.8-8.3-0.8c-0.4,0-0.4,0-0.5,0.3
	c-0.1,0.3-0.2,1.5-0.2,2.3c0,0.2,0,0.6,0.2,0.8c0,0.1,0.1,0.1,0.1,0.2c0.2,0.3,0.2,0.7,0,1c-0.1,0.1-0.1,0.2-0.2,0.3
	c-0.1,0.1-0.4,0.3-0.5,0.3c-0.3,0-0.6,0-0.8-0.2c-0.2-0.1-0.4-0.3-0.5-0.5C17,25.5,17,25.3,17,25c0-0.2,0.1-0.4,0.3-0.5
	c0.2-0.1,0.3-0.3,0.3-0.5c0-0.3,0.2-2.9,0.3-3.3c0.1-0.4,0.2-0.9,1.2-0.8c0.4,0,8.4,0.8,8.7,0.8c0.2,0,0.5,0,0.5-0.3
	c0-0.3,0-0.7,0.1-1c0-0.1-0.1-0.2-0.2-0.2c-0.2-0.1-0.1-0.3-0.2-0.5c-0.2-0.2-0.4-0.4-0.5-0.7c-0.2-0.4-0.3-0.8-0.3-1.2
	c0-0.1,0-0.2,0-0.2c0.1-0.4,0.2-0.9,0.4-1.3c0.1-0.2,0.3-0.4,0.4-0.5c0.2-0.1,0.4-0.3,0.6-0.4c0.3-0.2,0.7-0.3,1.1-0.3
	c0,0,0.1,0,0.1,0c0.3,0,0.6,0,0.9,0.2c0.2,0.1,0.3,0.1,0.5,0.2c0.4,0.2,0.7,0.6,1,1c0.3,0.6,0.4,1.2,0.3,1.9
	c-0.1,0.4-0.3,0.7-0.5,1.1c-0.2,0.2-0.3,0.4-0.4,0.5c-0.2,0.1-0.1,0.5-0.3,0.5c-0.1,0-0.2,0.1-0.3,0.2c0,0.3,0,0.5,0,0.8
	c0,0.2,0,0.5,0.3,0.5c0.2,0,0.1,0,0.2,0c0.1,0,5.7,0.6,6.2,0.6c0.1,0,1.5,0.1,1.6,0.1c0.2,0,0.3,0,0.5-0.2c0.1-0.2,0.3-0.3,0.5-0.3
	c0.1,0,0.2,0,0.2,0c0.1,0,0.3,0,0.4,0c0.1,0,0.2,0,0.3,0.1c0.3,0.3,0.6,0.6,0.5,1.1c-0.1,0.3-0.3,0.7-0.6,0.9
	c-0.2,0.1-0.5,0.2-0.7,0.2c-0.3,0-0.6-0.1-0.8-0.3c-0.2-0.2-0.4-0.3-0.7-0.3c-1.1-0.1-6.7-0.7-7.7-0.8c-0.1,0-0.2,0-0.2,0
	c-0.2,0-0.3,0.1-0.3,0.3c0,0.1,0,0.1,0,0.2C30.6,23.1,30.4,28.4,30.2,34.3z M29.6,18.4c0.1,0,0.2,0,0.3,0c0,0,0.1,0,0.1,0
	c0.7-0.1,1.2-0.8,1.3-1.4c0-0.1,0-0.2,0-0.2c0-0.4-0.2-0.7-0.4-1c-0.1-0.1-0.2-0.1-0.3-0.2c-0.3-0.2-0.6-0.3-0.9-0.3
	c-0.3,0-0.6,0.1-0.8,0.3c-0.1,0.1-0.2,0.2-0.3,0.3c-0.1,0.1-0.2,0.3-0.3,0.4c-0.2,0.5-0.2,0.9,0.1,1.4c0.1,0.1,0.1,0.2,0.2,0.3
	C28.8,18.2,29.2,18.4,29.6,18.4z"/>
</svg>
