<?xml version="1.0" encoding="utf-8"?>
<!-- Generator: Adobe Illustrator 26.0.3, SVG Export Plug-In . SVG Version: 6.00 Build 0)  -->
<svg version="1.1" id="Lager_1" xmlns="http://www.w3.org/2000/svg" xmlns:xlink="http://www.w3.org/1999/xlink" x="0px" y="0px"
	 viewBox="0 0 57.5 57.5" style="enable-background:new 0 0 57.5 57.5;" xml:space="preserve">
<style type="text/css">
	.st0{opacity:0.88;}
</style>
<path class="st0" d="M7.1,24.7L7.1,24.7l-3.6-2.2l0.2-0.6l4.2-0.1l0,0l-3.9-1l0.2-0.8l4.7,1.2l-0.3,1.3l-3.8,0.1l0,0L8,24.5
	l-0.3,1.3l-4.7-1.2l0.2-0.8L7.1,24.7z"/>
<path class="st0" d="M7.7,26.7l-0.1,0.9l-4.9-0.4l0.1-0.9L7.7,26.7z"/>
<path class="st0" d="M7.5,28.6l0.1,1.3c0.1,1.5-0.7,2.4-2.3,2.5c-1.6,0.1-2.5-0.8-2.6-2.2l-0.1-1.3L7.5,28.6z M3.4,29.8l0,0.3
	c0.1,1,0.8,1.4,1.9,1.3c1.1-0.1,1.7-0.6,1.6-1.6l0-0.3L3.4,29.8z"/>
<path class="st0" d="M7.9,33l0.3,1L5,36.6l0,0l3.7-1.1l0.2,0.8l-4.7,1.4l-0.3-1l3.2-2.6l0,0l-3.7,1.1l-0.2-0.8L7.9,33z"/>
<path class="st0" d="M9.3,37.2L9.7,38l-4.4,2l-0.4-0.8L9.3,37.2z"/>
<path class="st0" d="M9.4,41.8l0.9,1.3l-2.1,1.4c-0.2-0.1-0.6-0.4-0.9-1c-0.9-1.3-0.4-2.6,0.8-3.4c1.2-0.8,2.6-0.7,3.4,0.6
	c0.3,0.5,0.4,0.9,0.5,1.1l-0.7,0.4c0-0.3-0.1-0.7-0.4-1.1c-0.5-0.8-1.5-0.8-2.3-0.2c-0.9,0.6-1.2,1.4-0.7,2.2
	c0.1,0.2,0.3,0.3,0.4,0.4l1.1-0.7l-0.4-0.6L9.4,41.8z"/>
<path class="st0" d="M12.7,42.7l0.6,0.6l-1.4,1.4l1,1l1.4-1.4l0.6,0.6l-3.4,3.5l-0.6-0.6l1.5-1.5l-1-1l-1.5,1.5l-0.6-0.6L12.7,42.7z
	"/>
<path class="st0" d="M15.9,46.5L15,45.9l0.4-0.6l2.5,1.7l-0.4,0.6L16.7,47l-2.4,3.4L13.6,50L15.9,46.5z"/>
<path class="st0" d="M18.2,51.6c0.1,0.2,0.4,0.5,0.9,0.7c0.4,0.1,0.8,0.1,1-0.4c0.1-0.3,0-0.5-0.3-0.9l-0.3-0.4
	c-0.4-0.4-0.5-0.9-0.3-1.5c0.3-0.8,1.2-1,1.9-0.7c0.5,0.2,0.8,0.5,0.9,0.5l-0.3,0.7c-0.2-0.2-0.4-0.4-0.8-0.5
	c-0.4-0.2-0.7,0-0.8,0.3c-0.1,0.3,0,0.6,0.2,0.8l0.4,0.5c0.4,0.5,0.6,0.9,0.3,1.5c-0.4,0.9-1.2,1.1-2.1,0.8c-0.5-0.2-0.8-0.4-1-0.6
	L18.2,51.6z"/>
<path class="st0" d="M23.7,49.4l-0.6,3.1c-0.2,0.8,0,1.1,0.5,1.2c0.5,0.1,0.8-0.1,1-0.9l0.6-3.1l0.9,0.2L25.5,53
	c-0.3,1.3-1.1,1.6-2,1.4c-0.9-0.2-1.5-0.8-1.3-2.1l0.6-3.1L23.7,49.4z"/>
<path class="st0" d="M27.1,50l1.1,0l1.7,3.8h0l-0.1-3.8l0.8,0l0.1,4.9l-1.1,0L28,51.1h0l0.1,3.8l-0.8,0L27.1,50z"/>
<path class="st0" d="M33,49.6l1.5-0.4c0.8-0.2,1.5,0,1.7,0.9c0.2,0.6-0.1,1.1-0.6,1.4l0,0c0.2,0,0.4,0,0.7,0.4l1.1,1.6l-0.9,0.3
	l-0.9-1.4c-0.2-0.3-0.5-0.4-0.8-0.3l-0.2,0.1l0.6,2l-0.9,0.2L33,49.6z M34.7,51.3c0.5-0.1,0.7-0.4,0.6-0.9c-0.1-0.5-0.5-0.6-1-0.5
	L34,50l0.4,1.4L34.7,51.3z"/>
<path class="st0" d="M40.7,50.6l-1.5,0.8l0.2,1.2L38.6,53l-0.7-5.1l0.9-0.4l3.6,3.7l-0.8,0.4L40.7,50.6z M40.2,50.1l-1.6-1.8l0,0
	l0.4,2.3L40.2,50.1z"/>
<path class="st0" d="M40.6,46.4l0.8-0.7l3.7,2l0,0l-2.4-3l0.6-0.5l3.1,3.8l-0.8,0.7l-3.6-2l0,0l2.4,3l-0.6,0.5L40.6,46.4z"/>
<path class="st0" d="M44.1,43.5l0.8-1c1-1.2,2.1-1.3,3.4-0.3c1.3,1,1.3,2.3,0.4,3.4l-0.8,1L44.1,43.5z M47.9,45.5l0.2-0.2
	c0.6-0.8,0.4-1.6-0.4-2.2c-0.8-0.7-1.6-0.8-2.3,0l-0.2,0.2L47.9,45.5z"/>
<path class="st0" d="M47.5,38.4c0.5-0.9,1.6-1.4,3.1-0.6c1.6,0.8,1.8,2,1.3,2.9c-0.5,0.9-1.6,1.4-3.1,0.6
	C47.3,40.5,47.1,39.3,47.5,38.4z M51.4,40.4c0.3-0.5,0-1.1-1.2-1.7s-1.8-0.4-2.1,0.1c-0.3,0.5,0,1.1,1.2,1.7S51.1,40.9,51.4,40.4z"
	/>
<path class="st0" d="M48.8,36l0.3-1l4.1-0.6l0,0l-3.7-1l0.2-0.8l4.7,1.3l-0.3,1L50,35.5l0,0l3.7,1l-0.2,0.8L48.8,36z"/>
<path class="st0" d="M49.9,31.6l0.1-1.1l3.9-1.4l0,0L50,28.9l0-0.8l4.9,0.2l-0.1,1.1L51,30.8l0,0l3.8,0.2l0,0.8L49.9,31.6z"/>
<path class="st0" d="M48.5,25.9l-0.1-0.8l1.1,0.6l0.1,0.5L48.5,25.9z M49.9,27l-0.4-2.5l0.7-0.1l0.2,1.7l1.3-0.2l-0.2-1.6l0.7-0.1
	l0.2,1.6l1.4-0.2l-0.2-1.7l0.7-0.1l0.4,2.6L49.9,27z"/>
<path class="st0" d="M49.4,23.7l-0.8-2.5l0.7-0.2l0.5,1.6l1.2-0.4l-0.5-1.5l0.7-0.2l0.5,1.5l1.4-0.4l-0.5-1.7l0.7-0.2l0.8,2.5
	L49.4,23.7z"/>
<path d="M11.8,14.3l-1,1.3l0.7,1l-0.6,0.7L8,13l0.6-0.8l4.8,1.8l-0.6,0.7L11.8,14.3z M11.1,14l-2.2-0.9l0,0l1.4,1.9L11.1,14z"/>
<path d="M10.7,10l1.2-1c0.7-0.6,1.4-0.7,1.9,0c0.4,0.5,0.4,1.1,0,1.5l0,0c0.2-0.1,0.4-0.2,0.8,0.1l1.7,1l-0.7,0.6l-1.4-0.9
	c-0.3-0.2-0.6-0.2-0.8,0.1l-0.2,0.1l1.4,1.6l-0.7,0.6L10.7,10z M13,10.8c0.4-0.3,0.4-0.7,0.1-1.1c-0.4-0.4-0.7-0.3-1.1,0l-0.3,0.2
	l0.9,1.1L13,10.8z"/>
<path d="M19.4,9.6c-0.1,0.2-0.4,0.5-0.8,0.7c-1.3,0.8-2.5,0.2-3.2-1C14.7,8,14.8,6.7,16.1,6c0.4-0.3,0.8-0.3,1-0.4l0.4,0.7
	c-0.2,0-0.5,0-0.9,0.2c-0.6,0.4-0.9,1.1-0.3,2.2c0.6,1.1,1.4,1.2,2.1,0.8c0.4-0.2,0.6-0.5,0.7-0.7L19.4,9.6z"/>
<path d="M19.5,5.2l-1,0.4l-0.2-0.7l2.9-1.1l0.2,0.7l-1,0.4l1.5,3.9L21,9.1L19.5,5.2z"/>
<path d="M22.2,3.6l0.9-0.2l1.1,4.8l-0.9,0.2L22.2,3.6z"/>
<path d="M28.2,7.5c-0.2,0.1-0.6,0.2-1,0.3c-1.5,0.2-2.3-0.8-2.5-2.3c-0.1-1.4,0.5-2.6,1.9-2.7c0.5-0.1,0.9,0,1.1,0.1l0,0.8
	c-0.2-0.1-0.5-0.2-0.9-0.2c-0.7,0.1-1.3,0.6-1.2,1.9c0.1,1.3,0.8,1.7,1.6,1.6c0.4,0,0.7-0.2,0.9-0.3L28.2,7.5z"/>
<path d="M33.5,8c-0.2,0.1-0.6,0.1-1.1,0c-1.5-0.2-2.1-1.4-1.9-2.8s1.1-2.4,2.6-2.2c0.5,0.1,0.9,0.3,1,0.4L34,4.2
	c-0.2-0.1-0.4-0.3-0.9-0.4c-0.7-0.1-1.4,0.3-1.6,1.6c-0.2,1.3,0.4,1.8,1.1,1.9c0.4,0.1,0.7,0,1-0.1L33.5,8z"/>
<path d="M35.5,3.6l0.9,0.2L35,8.6l-0.9-0.2L35.5,3.6z"/>
<path d="M37.8,4.3L39.2,5c0.8,0.3,1.2,0.9,0.8,1.8c-0.3,0.6-0.8,0.8-1.3,0.7l0,0C38.9,7.5,39,7.7,39,8.1l-0.2,2L38,9.7l0.2-1.6
	c0-0.4-0.1-0.6-0.4-0.7l-0.2-0.1l-0.8,1.9l-0.8-0.4L37.8,4.3z M38.1,6.8c0.4,0.2,0.8,0.1,1-0.4c0.2-0.5,0-0.8-0.5-1l-0.3-0.1
	l-0.6,1.3L38.1,6.8z"/>
<path d="M42,12.1c-0.2,0-0.6-0.2-1-0.4c-1.2-0.8-1.3-2.2-0.5-3.3c0.8-1.2,2-1.7,3.2-0.8c0.4,0.3,0.7,0.6,0.8,0.8l-0.5,0.6
	c-0.1-0.2-0.2-0.5-0.6-0.7c-0.6-0.4-1.4-0.4-2.1,0.7c-0.7,1.1-0.5,1.8,0.2,2.2c0.4,0.2,0.7,0.3,0.9,0.3L42,12.1z"/>
<path d="M45.8,9.1l0.7,0.6l-2.9,3l1.2,1.1l-0.5,0.5l-1.8-1.7L45.8,9.1z"/>
<path d="M48.5,11.8l1.6,2l-0.6,0.4l-1-1.3l-1,0.8l1,1.2l-0.6,0.4l-1-1.2L45.8,15l1.1,1.4l-0.6,0.4l-1.6-2.1L48.5,11.8z"/>
<path d="M6.2,17.5C6.4,16.9,7,16.7,7.6,17c0.5,0.3,0.7,0.9,0.5,1.4c-0.3,0.5-0.9,0.7-1.4,0.5C6.1,18.6,5.9,18,6.2,17.5z"/>
<path d="M51.2,17.1c0.3,0.5,0.1,1.1-0.4,1.4s-1.1,0.1-1.4-0.4c-0.3-0.5-0.1-1.1,0.4-1.4C50.3,16.4,50.9,16.6,51.2,17.1z"/>
<path d="M28.8,57.4C13,57.4,0.1,44.6,0.1,28.8C0.1,13,13,0.1,28.8,0.1c15.8,0,28.6,12.8,28.6,28.6C57.4,44.6,44.6,57.4,28.8,57.4z
	 M28.8,0.7C13.3,0.7,0.7,13.3,0.7,28.8s12.6,28.1,28.1,28.1s28.1-12.6,28.1-28.1S44.2,0.7,28.8,0.7z"/>
<path d="M28.8,48.2c-10.7,0-19.4-8.7-19.4-19.4S18.1,9.4,28.8,9.4s19.4,8.7,19.4,19.4S39.5,48.2,28.8,48.2z M28.8,9.9
	c-10.4,0-18.9,8.5-18.9,18.9s8.5,18.9,18.9,18.9s18.9-8.5,18.9-18.9S39.2,9.9,28.8,9.9z"/>
<path d="M43,32.4c1.8-5.3,0.6-10.1-3.4-14.2c-0.6-0.6-1.3-1.1-1.9-1.6c-0.3-0.2-0.6-0.4-0.9-0.7c-0.8-0.7-1.7-1.1-2.5-1.3
	c-0.1,0-0.2,0-0.2,0c-0.3,0-0.5-0.1-0.6-0.3c-0.1-0.1-0.3-0.2-0.5-0.1c-0.1,0-0.3,0-0.4-0.1l-0.1,0c-1.4-0.5-2.9-0.7-4.3-0.4
	c-0.2,0-0.4,0.1-0.6,0.1c-0.3,0.1-0.6,0.1-0.8,0.1c-1,0.1-1.9,0.3-2.8,0.6c-0.5,0.1-1,0.3-1.5,0.4c-0.3,0.1-0.5,0.2-0.7,0.4
	c-0.1,0.1-0.2,0.2-0.4,0.3c-1,0.5-2.1,1.2-3,2.1c-1.5,1.3-2.5,2.7-3.2,4.3c-0.7,1.7-1.3,3.1-1.3,4.7c-0.1,3.1,0.6,5.8,2.2,8.3
	c0.1,0.2,0.2,0.4,0.1,0.6c-0.1,0.5,0,1,0.1,1.5c0.4,1.1,1,1.9,1.9,2.7c0.9,0.8,2,1.5,2.9,2l0.1,0c1,0.5,2,0.9,3.1,1.2
	c0.1,0,0.2,0.1,0.2,0.2c0.2,0.2,0.4,0.3,0.6,0.2c0.2-0.1,0.4-0.1,0.7,0c0.1,0,0.1,0,0.2,0.1c1,0.2,2.2,0.4,3.5,0.4
	c0.5,0,1,0,1.5-0.1c1.8-0.3,3.4-0.8,4.7-1.6c1.4-1,2.5-2.2,3.3-3.6c0.7-1.2,1.6-2.1,2.7-2.7c1.2-0.6,1.6-1.7,1.3-3
	C42.9,32.7,43,32.6,43,32.4z M42.3,31.5c-0.3-0.5-0.7-0.9-1-1.3c0,0,0-0.1,0-0.2c0-2.2-0.2-4.3-0.9-6.4c0,0,0-0.1,0-0.1
	c0,0,0,0,0.1,0c0.4-0.1,0.9-0.2,1.4-0.5C43,25.9,43.2,28.7,42.3,31.5z M37.1,39.5c-0.6,0.8-1.3,1.4-2.1,1.9c0.1-0.3,0.1-0.5,0.1-0.8
	c0-0.1,0-0.1,0.1-0.2C35.9,40.2,36.5,39.9,37.1,39.5z M34.3,40.9c-0.1,0.5-0.4,0.9-0.9,1.3c-0.8,0.6-1.8,0.7-2.6,0.7c0,0,0,0,0,0
	c-1.2,0-2.8-0.5-3.8-1.1C29.5,42,31.9,41.7,34.3,40.9z M16.5,30.3c-0.2,0.9-0.4,1.9-0.4,3c-0.7-1-1.2-3.3-1.3-5.1
	c0.4,0.6,1,1.2,1.7,1.8C16.5,30.1,16.5,30.2,16.5,30.3z M23,15.9c0.3-0.1,0.6-0.2,0.9-0.3c-0.5,0.4-0.8,0.7-1.2,1.1c0,0,0,0-0.1,0.1
	c0,0,0,0,0,0c0-0.1-0.1-0.1-0.1-0.2c0,0-0.1-0.1-0.1-0.1c-0.1-0.2-0.1-0.2-0.1-0.3c0,0,0.1-0.1,0.2-0.1C22.7,16,22.9,15.9,23,15.9z
	 M33.6,17.6C33.6,17.6,33.6,17.6,33.6,17.6c0.1,0,0.1,0,0.2,0.1c1,0.4,2,0.8,2.9,1.2c0.3,0.1,0.4,0.3,0.6,0.5
	c0.2,0.3,0.3,0.6,0.5,0.8c0.4,0.5,0.6,1.1,0.5,1.6l0,0c0,0.5,0,0.8-0.1,0.9c-0.1,0.1-0.3,0-0.7,0c-1.4-0.2-2.8-0.5-4.5-0.9
	c-0.2-0.1-0.2-0.1-0.2-0.3c0.3-1.3,0.5-2.4,0.7-3.5C33.5,17.6,33.6,17.6,33.6,17.6z M25.8,33.9C25.8,33.9,25.8,34,25.8,33.9
	c0,0.1,0,0.2,0,0.2c0,0,0,0-0.1,0c-0.2-0.1-0.6-0.2-0.8-0.3c0,0,0.1,0,0.2,0C25.3,33.8,25.7,33.8,25.8,33.9z M29.2,16.3
	c0.5,0.1,1.2,0.3,1.8,0.5c0.1,0,0.1,0,0.1,0c0,0,0,0,0,0.1c-0.3,0.8-0.7,1.7-1,2.5l-0.3,0.9c0,0,0,0.1,0,0.1c0,0,0,0.1,0,0.1
	c0,0,0,0-0.1,0c-1.4-0.5-3-1.2-4.5-2c1.2-0.9,2.4-1.7,3.6-2.2C29,16.2,29.1,16.2,29.2,16.3z M21,31.9c-0.2-0.1-0.5-0.3-0.7-0.4
	c-0.1,0-0.1-0.1-0.1-0.2l0-0.1c-0.2-1.3-0.3-2.4-0.3-3.6c0-1.1,0.1-2.1,0.2-3c0.1-0.4,0.3-0.8,0.5-1.1c0.1-0.1,0.1-0.2,0.2-0.3
	c0,0,0.1-0.1,0.1-0.1c0,0,0,0,0.1,0l0.1,0c2.3,0.1,4.6,0.5,7.2,1.2c0.1,0,0.2,0.1,0.2,0.1c0,0,0,0.1,0,0.2c-0.9,2.9-1.7,5.6-2.4,8.3
	c0,0,0,0.2-0.1,0.2c0,0-0.1,0-0.2,0c-0.9-0.2-1.9-0.4-3.1-0.5C22.1,32.6,21.6,32.3,21,31.9z M24.5,19.3c1.4,0.8,2.9,1.5,4.8,2.2
	c0.1,0.1,0.1,0.1,0.1,0.2c-0.2,0.5-0.3,1-0.5,1.5l-0.1,0.4c0,0,0,0.1-0.1,0.1c0,0,0,0-0.1,0c-2.5-0.7-4.8-1.1-7.2-1.2
	c0.9-1.1,1.8-2.1,2.8-3.1C24.4,19.2,24.4,19.2,24.5,19.3z M28,34.8c0,0-0.7-0.2-1.5-0.5c0,0,0-0.1,0-0.1c0,0,0-0.1,0.1-0.1
	C26.9,34.2,27.5,34.5,28,34.8C28.1,34.7,28.1,34.7,28,34.8C28,34.7,28,34.8,28,34.8z M27.1,33.5l-0.1,0c-0.2-0.1-0.2-0.1-0.1-0.2
	c0.7-2.8,1.5-5.7,2.4-8.4c0-0.1,0.1-0.1,0.1-0.1c0,0,0,0,0,0c0,0,0.1,0,0.1,0c0.3,0.1,0.5,0.2,0.8,0.3c0.2,0.1,0.3,0.1,0.5,0.2l0,0
	c0,0,0.1,0,0.1,0c0,0,0,0,0,0l-0.6,2.2c-0.6,2.1-1.2,4.1-1.8,6.1l-0.1,0.2c0,0.1-0.1,0.2-0.1,0.2c0,0-0.1,0-0.2,0
	C27.8,33.7,27.4,33.6,27.1,33.5z M28.6,36.2C28.7,36.2,28.7,36.2,28.6,36.2c0-0.1,0-0.2,0.1-0.2c0,0,0,0,0,0s0,0,0,0
	c0.6,0.1,1.1,0.3,1.7,0.4l0.7,0.2c-0.8,0.8-2.5,2-3.7,2.6L28.6,36.2z M32.4,35.5C32.3,35.5,32.3,35.5,32.4,35.5
	c-0.1,0.2-0.2,0.2-0.4,0.2l0,0c-0.1,0-0.3,0-0.4-0.1c-0.7-0.4-1.4-0.8-2.1-1.1c-0.1-0.1-0.1-0.1-0.1-0.2c0.9-2.8,1.7-5.6,2.5-8.5
	c0-0.1,0.1-0.1,0.1-0.1c0,0,0,0,0.2,0c1.8,0.7,3.4,1.5,4.9,2.3c0.2,0.1,0.2,0.2,0.1,0.4C35.9,30.9,34.3,33.4,32.4,35.5z M31,24.3
	C31,24.3,31,24.4,31,24.3C31,24.4,31,24.4,31,24.3c-0.5-0.1-0.9-0.3-1.4-0.4c-0.1,0-0.1,0-0.1,0c0,0,0,0,0-0.1
	c0.2-0.6,0.4-1.2,0.6-1.9c0-0.1,0.1-0.1,0.1-0.1c0,0,0,0,0.1,0c0.4,0.2,0.8,0.3,1.1,0.4c0.1,0,0.1,0,0.1,0l-0.1,0.5
	C31.3,23.3,31.2,23.8,31,24.3z M38.2,23.8c-0.1,1-0.4,2.2-0.8,3.4c0,0,0,0,0,0c0,0,0,0-0.1,0c-1.5-0.9-3.2-1.7-5.2-2.4
	c-0.1,0-0.1,0-0.1-0.2c0.2-0.7,0.3-1.3,0.5-2c0-0.1,0-0.1,0-0.1c0,0,0,0,0.1,0c1.9,0.5,3.7,0.9,5.4,1.1c0,0,0.1,0,0.1,0
	C38.2,23.6,38.2,23.7,38.2,23.8z M19.1,28.4c0,0.9,0.1,1.7,0.3,2.5c-0.6-0.4-1.1-0.7-1.6-1.1c-0.1,0-0.1-0.1,0-0.2
	c0.1-0.6,0.9-2.5,1.4-3.5C19,27,19,27.7,19.1,28.4z M34.1,40c-1.7,0.6-3.4,0.9-5.2,0.9c-0.4,0-0.8,0-1.3-0.1c-0.2,0-0.4,0-0.5,0
	c-0.1,0-0.2,0-0.2,0c0,0,0,0,0,0c0,0,0-0.1,0.1-0.2c0-0.1,0.1-0.1,0.2-0.2c1.7-0.8,3.2-1.9,4.6-3.3c0.2-0.2,0.2-0.2,0.4,0
	c0.9,0.8,1.6,1.6,1.9,2.6C34.3,39.9,34.3,39.9,34.1,40z M31.8,21.2C31.8,21.2,31.8,21.2,31.8,21.2C31.8,21.2,31.8,21.2,31.8,21.2
	c-0.5-0.1-0.8-0.2-1.2-0.3c0,0-0.1,0-0.1,0c0,0,0,0,0-0.1c0.4-1.1,0.9-2.3,1.4-3.5c0-0.1,0.1-0.1,0.1-0.1c0,0,0.1,0,0.1,0
	c0.1,0,0.2,0.1,0.3,0.1c0,0,0.1,0.1,0.1,0C32.3,18.7,32.1,19.9,31.8,21.2z M22.7,18.3c0.1-0.1,0.1-0.1,0.1-0.1c0,0,0,0,0.1,0.1
	c0.1,0.1,0.2,0.2,0.3,0.2c0.1,0.1,0.3,0.1,0.3,0.2c0,0.1-0.2,0.2-0.3,0.3C23.1,19,23,19.1,23,19.1c-0.7,0.7-1.3,1.4-1.9,2.1
	C21.5,20.2,22,19.2,22.7,18.3z M26.4,35.4C26.4,35.4,26.4,35.4,26.4,35.4c0.1,0,0.3,0.1,0.5,0.1c0.1,0,0.9,0.3,0.9,0.3
	s-1,2.8-1.2,3.4c-0.2,0.6-0.5,0.9-1.1,1c0.2-1.5,0.5-3,0.8-4.3C26.3,35.6,26.3,35.4,26.4,35.4z M38.1,27.6c0.4-1.2,0.7-2.5,0.9-3.7
	l0,0c0-0.2,0-0.2,0.1-0.2c0,0,0,0,0,0c0.2,0,0.2,0,0.3,0.2c0.5,1.9,0.8,3.6,0.9,5.4c-0.7-0.6-1.4-1.1-2.1-1.5
	C38.1,27.7,38.1,27.7,38.1,27.6z M40.9,22.5L40.9,22.5c-0.1,0-0.1,0-0.1,0c-0.7,0.2-0.7,0.2-1-0.5c-0.1-0.3-0.3-0.6-0.4-0.9
	c-0.2-0.4-0.4-0.7-0.5-1.2c0.9,0.5,1.7,1,2.3,1.8c0.2,0.2,0.2,0.4,0.2,0.5C41.4,22.3,41.2,22.4,40.9,22.5z M32.7,16l0,0.1
	c0,0.2,0,0.2,0,0.3c0,0-0.1,0-0.3-0.1c0-0.1,0.1-0.1,0.1-0.2c0.1-0.1,0.1-0.3,0.3-0.4C32.8,15.7,32.7,15.8,32.7,16z M30.9,15.8
	l-0.3-0.1c0.4-0.1,0.8-0.2,1.2-0.2C31.6,16,31.5,15.9,30.9,15.8z M28.8,15.2c-0.1,0-0.2,0-0.3,0c-0.5-0.1-0.9-0.2-1.4-0.3
	c0.9-0.2,1.8-0.2,2.8-0.1C29.5,15,29.2,15.1,28.8,15.2z M24.3,17.9c0,0,0,0-0.1,0c-0.4-0.2-0.7-0.3-0.7-0.5c0-0.2,0.2-0.4,0.5-0.7
	c0.8-0.8,1.2-1.1,1.9-1.1c0.3,0,0.7,0.1,1.2,0.1c0.1,0,0.1,0,0.2,0s0.1,0,0.2,0C26.3,16.5,25.3,17.1,24.3,17.9z M21.7,18.1
	c-0.8,1.2-1.4,2.5-1.9,4c-0.1,0.3-0.2,0.3-0.4,0.3c-1.3,0.1-2.6,0.2-3.9,0.9c0.6-1.6,1.5-2.9,2.6-4.1c0.9-0.9,1.9-1.8,3.1-2.5
	c0.1-0.1,0.1-0.1,0.1-0.1c0,0,0,0,0,0.1c0,0.1,0.1,0.2,0.2,0.3l0,0C22.1,17.6,22.1,17.6,21.7,18.1z M15.8,24.2
	c0.9-0.6,1.9-0.8,3.1-0.9l0.1,0c0.1,0,0.2,0,0.3,0c0,0,0,0,0,0c0.1,0,0.1,0,0.2,0c0,0,0.1,0,0.1,0c0,0,0,0.1-0.1,0.2l0,0.1
	c-0.9,1.4-1.6,2.9-2.2,4.4c-0.1,0.3-0.2,0.6-0.3,0.9l-0.1,0.3c-0.7-0.7-1.4-1.4-1.8-2.4C14.6,25.8,14.9,24.7,15.8,24.2z M17.4,30.9
	c0.7,0.5,1.4,1,2.1,1.4c0.1,0.1,0.1,0.3,0.2,0.5l0,0c0,0-0.1,0-0.2,0c-0.1,0-0.1,0-0.1,0c-1,0.2-1.7,0.6-2.3,1.1
	C17.1,32.8,17.2,31.8,17.4,30.9z M17.3,35c0.6-0.8,1.5-1.2,2.6-1.4c0,0,0,0,0,0c0,0,0,0.1,0,0.1c0,0,0,0.1,0,0.1
	c0.6,1.9,1.4,3.5,2.5,5c0.2,0.3,0.4,0.6,0.7,0.9c0,0,0,0,0.1,0.1c-1.5-0.6-2.7-1.4-3.9-2.4c-0.7-0.6-1.4-1.3-2-2.1
	C17.2,35.2,17.2,35.2,17.3,35z M20.8,33.5c0.6-0.1,1,0,1.5,0.2c1,0.5,2,0.9,3.1,1.3l0.1,0c0.2,0.1,0.2,0.1,0.1,0.2
	c-0.4,1.5-0.7,3.1-1,4.8C22.8,38.2,21.6,36.1,20.8,33.5z M35.1,39.6C35.1,39.6,35.1,39.6,35.1,39.6C35.1,39.6,35.1,39.6,35.1,39.6
	c-0.4-1.1-1.2-2-1.8-2.6c1.6,0.2,3.5,0.3,5.4,0c-0.1,0.2-0.2,0.4-0.4,0.5C37.4,38.3,36.3,39,35.1,39.6
	C35.2,39.5,35.1,39.6,35.1,39.6z M34.2,36c-0.3,0-0.5-0.1-0.8-0.1l-0.2,0c0.8-0.9,1.4-1.6,2-2.4c1.1-1.5,1.9-3.1,2.6-4.8
	c0.1-0.1,0.1-0.2,0.1-0.2c0,0,0,0,0.2,0.1c0.7,0.5,1.4,1,2.1,1.7c0.1,0.1,0.2,0.2,0.2,0.4c-0.1,1.7-0.4,3.3-1,5
	c-0.1,0.2-0.2,0.2-0.4,0.3l-0.1,0C37.4,36.2,36,36.2,34.2,36z M38.4,18.4c0.2,0.2,0.5,0.4,0.6,0.6C38.7,19,38.3,18.8,38.4,18.4z
	 M33.7,16.6C33.7,16.6,33.7,16.6,33.7,16.6l0.1-0.8c0.7,0.5,1.3,1,1.9,1.5l0,0C35,17.1,34.3,16.9,33.7,16.6z M22.9,40.6
	c-0.1,0-0.2,0-0.3,0c-2,0-4.1-0.9-5.1-3.5C19.2,38.7,20.9,39.8,22.9,40.6z M24.3,41.4c0,0.3,0,0.6-0.1,0.7c-0.1,0-0.4-0.1-0.7-0.2
	c-0.2-0.1-0.4-0.2-0.7-0.3C23.4,41.5,23.8,41.5,24.3,41.4z M25.4,41.7c0.2,0.1-0.1,0.3-0.2,0.4l0-0.5C25.3,41.6,25.3,41.7,25.4,41.7
	z M26.2,42.3C26.2,42.3,26.2,42.2,26.2,42.3c0-0.1,0.1-0.1,0.1-0.1c0.3,0.1,0.5,0.4,0.7,0.5l-0.2,0c-0.2,0-0.5-0.1-0.7-0.2
	c0,0,0,0-0.1,0c0,0,0,0,0,0C26.1,42.5,26.1,42.4,26.2,42.3z M41.3,33.9c-0.3,0.5-0.6,0.9-0.9,1.4c0.4-1.1,0.6-2.3,0.7-3.7
	C42.1,32.5,42,32.6,41.3,33.9z"/>
</svg>
