<?xml version="1.0" encoding="UTF-8"?><svg id="a" xmlns="http://www.w3.org/2000/svg" width="20.2847mm" height="20.2847mm" viewBox="0 0 57.5 57.5"><defs><style>.b{opacity:.88;}</style></defs><path class="b" d="M7.0659,24.7012l.0039-.0137-3.6338-2.2158,.1611-.6162,4.2383-.1016,.0039-.0137-3.9434-1.0303,.2061-.7861,4.7285,1.2363-.3379,1.2939-3.7852,.0527-.0029,.0137,3.2695,1.918-.3281,1.2539-4.7285-1.2354,.2051-.7861,3.9434,1.0303Z"/><path class="b" d="M7.644,26.7247l-.0664,.8926-4.8672-.3613,.0664-.8926,4.8672,.3613Z"/><path class="b" d="M7.4907,28.5577l.0918,1.2715c.1094,1.5234-.6562,2.3936-2.2705,2.5098-1.6426,.1182-2.5098-.8027-2.6074-2.1582l-.0918-1.2715,4.8779-.3516Zm-4.1289,1.1963l.0225,.3008c.0723,1.0059,.79,1.4111,1.8594,1.334,1.0684-.0771,1.7207-.5811,1.6484-1.5869l-.0215-.3008-3.5088,.2529Z"/><path class="b" d="M7.9038,32.96l.2939,1.0225-3.2383,2.623,.0039,.0137,3.6875-1.0615,.2256,.7803-4.6973,1.3525-.2969-1.0293,3.2139-2.6084-.0039-.0137-3.6611,1.0537-.2246-.7803,4.6973-1.3525Z"/><path class="b" d="M9.3149,37.212l.375,.8145-4.4414,2.0449-.375-.8145,4.4414-2.0449Z"/><path class="b" d="M9.3462,41.7305l.8691,1.3203-2.1338,1.4043c-.249-.1377-.5869-.4346-.9365-.9668-.8613-1.3086-.4307-2.5889,.7793-3.3848,1.209-.7959,2.5557-.6846,3.417,.624,.3076,.4678,.4443,.9053,.4775,1.1094l-.6982,.4014c-.0117-.3359-.1221-.7324-.3682-1.1064-.5225-.7949-1.458-.791-2.3057-.2334-.917,.6035-1.2285,1.4033-.7246,2.1689,.1152,.1748,.2539,.3096,.3604,.3818l1.0986-.7227-.4082-.6191,.5732-.377Z"/><path class="b" d="M12.6558,42.6387l.6348,.6309-1.3994,1.4082,1.0264,1.0205,1.4004-1.4082,.6348,.6309-3.4404,3.4609-.6348-.6309,1.5176-1.5273-1.0264-1.0205-1.5176,1.5273-.6348-.6309,3.4395-3.4609Z"/><path class="b" d="M15.9145,46.5098l-.8975-.6211,.4062-.5869,2.5254,1.748-.4062,.5869-.8916-.6172-2.373,3.4287-.7363-.5098,2.373-3.4287Z"/><path class="b" d="M18.2231,51.6134c.1211,.1689,.4092,.4873,.8506,.6631,.3643,.1455,.7695,.0742,.9512-.3809,.1299-.3252-.002-.5439-.3164-.9258l-.3291-.4023c-.3506-.4258-.5-.9004-.2666-1.4854,.3242-.8125,1.1621-.9678,1.9229-.6641,.4814,.1914,.7695,.4502,.8848,.541l-.3174,.6797c-.1699-.1582-.3896-.3818-.7734-.5342-.416-.166-.7188-.0312-.8428,.2812-.1348,.3379,.04,.5586,.2373,.8027l.3779,.4678c.4141,.5117,.5537,.8984,.2988,1.5361-.3682,.9229-1.2012,1.1025-2.0654,.7578-.4551-.1816-.7803-.3867-.9531-.6143l.3408-.7227Z"/><path class="b" d="M23.727,49.3614l-.6338,3.0967c-.1631,.7949,.0234,1.1045,.5371,1.209,.5,.1025,.7998-.1064,.9629-.9014l.6348-3.0967,.877,.1797-.6348,3.0967c-.2578,1.2607-1.0859,1.6045-1.9834,1.4209-.9043-.1855-1.5293-.8271-1.2705-2.0879l.6338-3.0967,.877,.1797Z"/><path class="b" d="M27.1255,49.9659l1.0645-.0166,1.6836,3.8135h.0137l-.0576-3.8379,.8115-.0127,.0752,4.8887-1.0713,.0166-1.6768-3.7852h-.0137l.0576,3.8096-.8115,.0127-.0752-4.8887Z"/><path class="b" d="M32.9448,49.5821l1.4707-.4023c.8359-.2295,1.5059-.0068,1.7422,.8564,.168,.6143-.1035,1.1309-.6074,1.3555l.0049,.0205c.1826-.0215,.4004,.0059,.6689,.4043l1.1055,1.626-.918,.251-.8838-1.4033c-.2168-.3398-.4727-.4004-.7891-.3135l-.1963,.0537,.5547,2.0225-.8633,.2363-1.2891-4.707Zm1.7754,1.7178c.458-.125,.7041-.4463,.5732-.9258-.1475-.5391-.4678-.5967-.9541-.4639l-.3506,.0967,.3809,1.3887,.3506-.0957Z"/><path class="b" d="M40.6958,50.6143l-1.502,.7588,.2178,1.209-.8008,.4043-.7402-5.1064,.876-.4424,3.6123,3.6562-.8262,.417-.8369-.8965Zm-.4785-.5273l-1.5801-1.7617-.0127,.0068,.4287,2.3418,1.1641-.5869Z"/><path class="b" d="M40.6079,46.4005l.8311-.665,3.667,1.9775,.0107-.0088-2.4004-2.9941,.6338-.5078,3.0566,3.8125-.835,.6709-3.6445-1.9609-.0107,.0088,2.3818,2.9717-.6338,.5088-3.0566-3.8135Z"/><path class="b" d="M44.0679,43.4981l.8057-.9863c.9648-1.1807,2.1172-1.2861,3.3682-.2646,1.2734,1.04,1.2715,2.3027,.4131,3.3535l-.8057,.9863-3.7812-3.0889Zm3.8174,1.9619l.1895-.2334c.6377-.7803,.3945-1.5654-.4346-2.2422-.8291-.6777-1.6475-.7588-2.2842,.0215l-.1904,.2324,2.7197,2.2217Z"/><path class="b" d="M47.5239,38.4249c.4639-.9023,1.5625-1.3848,3.125-.5801,1.5635,.8047,1.8096,1.9785,1.3447,2.8809-.4648,.9033-1.5635,1.3848-3.126,.5811-1.5625-.8047-1.8086-1.9785-1.3438-2.8818Zm3.8594,1.9873c.2598-.5049,.0381-1.1299-1.1572-1.7451s-1.833-.4316-2.0928,.0723c-.2588,.5039-.0381,1.1299,1.1572,1.7451s1.833,.4316,2.0928-.0723Z"/><path class="b" d="M48.7583,35.963l.2764-1.0273,4.125-.5732,.0039-.0137-3.7041-.9951,.2109-.7842,4.7178,1.2676-.2773,1.0342-4.0967,.5732-.0039,.0137,3.6768,.9883-.21,.7842-4.7188-1.2676Z"/><path class="b" d="M49.8286,31.5606l.0537-1.0625,3.9111-1.4287,.001-.0146-3.8301-.1924,.041-.8105,4.8779,.2451-.0537,1.0693-3.8828,1.4238-.001,.0137,3.8018,.1904-.041,.8115-4.8779-.2451Z"/><path class="b" d="M48.4956,25.8663l-.1133-.8037,1.0967,.5664,.0762,.54-1.0596-.3027Zm1.4131,1.1504l-.3584-2.542,.7061-.0996,.2334,1.6553,1.2891-.1816-.2207-1.5654,.7061-.0996,.2207,1.5654,1.4268-.2012-.2432-1.7246,.707-.0996,.3682,2.6113-4.835,.6816Z"/><path class="b" d="M49.3559,23.6544l-.7617-2.4531,.6816-.2119,.4961,1.5977,1.2432-.3857-.4688-1.5107,.6816-.2119,.4688,1.5107,1.377-.4277-.5166-1.6641,.6816-.2119,.7822,2.5205-4.665,1.4482Z"/><path d="M12.2512,8.5946l.7168-.5391,2.5098,3.3379,1.2881-.9688,.4297,.5713-2.0049,1.5078-2.9395-3.9092Z"/><path d="M17.5285,8.5595l-2.6445-1.9072,.8525-.4531,1.7559,1.2783-.124-2.1436,.8525-.4531,.1084,3.2773,.9082,1.7119-.791,.4199-.918-1.7305Z"/><path d="M24.0979,7.953c-.1445,.1465-.5361,.3477-.957,.4775-1.417,.4365-2.4648-.374-2.8848-1.7373-.4209-1.3643-.0117-2.624,1.3789-3.0527,.4746-.1465,.9014-.1387,1.0957-.126l.1895,.7832c-.2002-.0332-.5254-.1162-.96,.0186-.709,.2178-1.168,.8867-.7959,2.0967,.373,1.209,1.1299,1.5029,1.8379,1.2852,.415-.1279,.6582-.3125,.8086-.5127l.2871,.7676Z"/><path d="M24.7385,2.9921l.8926-.0859,.1982,2.0645,.0205-.002,1.1895-2.1982,1.0254-.0986-1.4326,2.4531,2.0332,2.4014-1.0811,.1045-1.6846-2.1465-.0205,.002,.2197,2.2871-.8926,.0859-.4678-4.8672Z"/><path d="M29.6799,6.6552c.1631,.1289,.5264,.3555,1,.4033,.3896,.0391,.7588-.1416,.8086-.6289,.0352-.3477-.1514-.5215-.5596-.8008l-.4268-.2969c-.4531-.3125-.7275-.7266-.665-1.3535,.0879-.8691,.8506-1.249,1.6641-1.167,.5156,.0518,.8643,.2207,.999,.2764l-.1172,.7402c-.207-.1055-.4795-.2598-.8906-.3008-.4453-.0449-.6982,.1689-.7324,.5029-.0361,.3613,.1934,.5254,.4492,.7061l.4922,.3447c.5381,.377,.7793,.7109,.71,1.3926-.0996,.9883-.8496,1.3906-1.7754,1.2969-.4873-.0488-.8555-.1562-1.085-.3271l.1289-.7881Z"/><path d="M34.7209,3.3935l2.4697,.7061-.1963,.6855-1.6084-.459-.3574,1.252,1.5205,.4336-.1953,.6865-1.5215-.4346-.3955,1.3867,1.6748,.4785-.1953,.6865-2.5371-.7246,1.3418-4.6973Z"/><path d="M39.0607,4.8358l.8066,.3887-1.8096,3.7559,1.4492,.6982-.3096,.6436-2.2559-1.0879,2.1191-4.3984Z"/><path d="M42.8381,6.8476l2.0889,1.4893-.4141,.5801-1.3604-.9697-.7549,1.0586,1.2871,.917-.4141,.5811-1.2871-.918-.8359,1.1729,1.417,1.0107-.4141,.5801-2.1455-1.5293,2.833-3.9727Z"/><path d="M6.1323,17.4425c.2598-.5215,.8887-.7305,1.4092-.4697,.5215,.2607,.7305,.8887,.4697,1.4092-.2598,.5215-.8887,.7305-1.4092,.4707-.5215-.2607-.7305-.8887-.4697-1.4102Z"/><path d="M51.1724,17.0694c.2695,.5166,.0713,1.1484-.4453,1.418s-1.1484,.0703-1.418-.4463c-.2695-.5156-.0713-1.1484,.4453-1.417,.5166-.2695,1.1494-.0713,1.418,.4453Z"/><path d="M28.7487,57.3798C12.9621,57.3798,.1188,44.537,.1188,28.7509S12.9621,.121,28.7487,.121s28.6304,12.8428,28.6304,28.6299-12.8438,28.6289-28.6304,28.6289ZM28.7487,.6874C13.2751,.6874,.6862,13.2772,.6862,28.7509s12.5889,28.0625,28.0625,28.0625,28.063-12.5889,28.063-28.0625S44.2229,.6874,28.7487,.6874Z"/><path d="M28.7487,48.1679c-10.7065,0-19.4175-8.71-19.4175-19.417S18.0422,9.3329,28.7487,9.3329s19.4175,8.7109,19.4175,19.418-8.7109,19.417-19.4175,19.417Zm0-38.2686c-10.394,0-18.8501,8.457-18.8501,18.8516s8.4561,18.8506,18.8501,18.8506,18.8501-8.4561,18.8501-18.8506S39.1428,9.8993,28.7487,9.8993Z"/><path d="M29.6435,22.0509c-.1859,.0778-.1221,.5451,0,.4761s-.1122,.5206-.0295,.4594,.4711,.169,.3419,.2633c-.5591,.4084-.2438,.5859-.1028,.537s.1676,.4111,.0693,.5024,.2072,.4845,.2456,.5573c.1225,.2322,.4083,.2819,.4404,.3782,.0239,.0716-.1963,.0144-.1902,.168,.0621,.1063,.0856,.1528,.1936,.1955,.11,.0434,.2115,.017,.2692,.0191s.0733,.1575-.0567,.1665c.1938,.2177,.6833,.0724,.7948,.1654s-.0767,.1694-.0675,.2613,.0626,.1285,.2733,.242c.0814,.0439,.4322,.0109,.4992,.0696,.0683,.0598-.019,.1024-.0903,.1906,.1119,.07,.1268-.0209,.2305,.0437,.0711,.0443,.1237,.0887,.1262,.1793,.0024,.0913,.0955,.1318,.1975,.1409,.1063,.0094,.1596,.0665,.2055,.1546l-.1725,.0334c-.0344,.0465-.0312,.0851,.0263,.1112,.1079,.049,.5051,.0635,.4235,.1873-.0126,.0191,.3596,.013,.3822,.0243,.2974,.1487,.1224,.2841,.2231,.3587,.1768,.131,.183,.0488,.3863,.1515,.1828,.0923,.1585,.2808,.3436,.3694,.2957,.1414,.2676,.2253,.5549,.3781,.1704,.0906,.0861,.1106,.1088,.3005,.0275,.2301,.4362,.0887,.516,.155,.1785,.1484-.0909,.1576,.0764,.3154,.0875,.0824,.1164,.2191,.3172,.2542,.1707,.0298,.3242,.0673,.4157,.1871,.065,.0851-.0612,.317,0,.3713,.0948,.0842,.4313,.0738,.508,.166,.1639,.1971-.1438,.4041,.0668,.5711,.1644,.1304,.1996-.0754,.2542,.1532,.069,.1434,.3824,.3977,.1224,.3747-.091,.1289-.0665,.207-.0061,.2751,.4883,.5498,.0772,.4662,.0956,.5417,.0475,.1949,.3316,.1139,.3558,.3186,.0137,.1157-.122,.2295-.085,.3452,.0435,.1359,.2486,.3726,.3583,.4586,.2321,.182-.3277,.4744-.0554,.6098,.4466,.222-.2107,2.7056-.4047,3.2876,1.0255-.7761,1.1735-1.6158,.8621-1.9295-.1292-.1302,.8646-1.1368,.367-1.5391-.2263-.1829,.1299-.7816,.1873-.997,.0626-.2348-.1386-.1985-.1247-.2494,.0626-.2296,.4445-.5973,.3007-.6473-.1759-.0612,.0306-.1836-.113-.3516-.0261-.1617,.263-.5311,.2733-.4854,.1118-.0695,.1074-.7003,.4611-.8239l.0904,.087c.1636-.1323,.3322-.2519,.4768-.39,.1726-.1649,.497-.5039,.5705-.384,.1351,.2202,.3258-.2526,.413-.1683,.2294,.2218,.426-.0581,.4971-.0841,.1631-.0597,.6271,.0153,.7571,.1836,.0994,.0918-.2753,.2218-.2753,.4283-.295,.1513-.2795,.3332-.2983,.673,.167-.0876,.2402,.334,.1912,.3747-.1587,.1319-.3454,.6028-.2823,.683,.032,.0406-.0333,.386-.0542,.5917,.0533-.0142,.1428,.0408,.2498,.0612-.0017,.2795-.1682,.1988-.2174,.4057-.0128,.0537,.0534,.0362,.2546,.0895,.3454,.0914-.0397,.8205,.1422,.9345,.2438,.0145,.2227,.7067,.2235,.7313,.0026,.084,.1717,.2249,.1524,.3758-.0042,.033-.3233,.3479-.3352,.3657-.114,.1697-.2919,.0315-.2087,.2146,.0618,.1361-.0185,.2822,.1136,.3652,.1386,.0871,.153,.4971-.0612,.4895s-.1229,.0608-.3583,.1902c-.0244,.0134,.1879,.2584,.1901,.284,.0209,.24-.2117,.0375-.3865,.1833-.0408,.0341,.3635,.3215,.1188,.352-.2901,.0363-.1085,.0868-.3365,.3059-.092,.0884-.0375,.5799-.1836,.5277-.5354-.1912-.4888,.4328-.6901,.4691-.6169,.1112,.1471,.5022-.35,.6016-.6736,.1347-.1123,.1792-.3059,.3977-.1344,.1516-.3717,.2574-.2842,.4033,.0914,.1524-.0829,.5935-.3583,.4558-.1625-.0812-.3151,.2535-.3934,.2721-.158,.0376-.2614,.3513-.5346,.1256-.1635-.1351-.2451,.1653-.4676-.1526-.0948-.1354-.335,.3205-.5146,.1083-.325-.3657-.5282-.0542-.6365,.1896-.4025,.5776-.474-.1896-1.489-.1877-.428,.0008-.4082,.4974-.1109,1.0249,.2426,.4304,.0336,.6849-.5635,.8374-1.4713,.3756-2.4556,.3107-2.551,.311-.6097,.0019-1.2194-.0024-1.8291,.0025-.1321,.0011-.2644,.0329-.3969,.048-.0635,.0073-.1279,.0116-.1918,.0121-.3659,.003-.1635,.1508-.5293,.1575-.0792,.0015-.3662,.0423-.4452,.0585-.0122,.0025-.455,.0791-.4669,.0797-.293,.016-.5548-.072-.8509-.1145-.1097-.0158-.2123-.0641-.3183-.0971-.0572-.0178-.1156-.0516-.1722-.0489-.2695,.0127-.4063-.184-.4413-.3691-.0319-.1688-.0129-.3298,.1735-.4558,.1293-.0874,.2282-.2084,.3408-.3144,.0172-.0162,.2628-.2236,.2806-.2241,.1794-.0054,.5641-.1823,.7276-.0831,.634,.3846,1.1839-.1279,1.3304-.1247,.0213,.0005-.0304-.179-.0104-.1975,.0558-.0516,.0203-.7014,.0813-.7478,.1347-.1024,.2871-.1791,.471-.1819,.2567-.0038,.3658-.2714,.6222-.2656,.0655,.0015,.1283,.0368,.1944,.0481,.1113,.019,.1602,.0409,.2733,.0455,.1211,.0049,.2394,.1018,.361,.1035,.1509,.0021,.1126-.0288,.073-.1045-.1332-.2454,.0149-.0615-.1515-.2916-.1756-.2427-.1487-.2368-.2865-.4932-.0513-.0954-.1179-.1856-.188-.2717-.0945-.1161-.1923-.1542-.3468,.032-.0972,.1171-.0979-.4921-.3655-.2397-.2077,.1958,.0612-.39-.1224-.4359-.0992,.1571-.2906-.0096-.2906,.153-.1177,.0407-.1462-.1481-.2221-.2247-.0227-.0229-.0418-.0639-.0674-.0665-.1446-.0149-.1682-.1121-.208-.2044-.06-.1391-.2839-.2765-.3384-.2873-.1842-.0362-.2442-.1377-.3069-.2853-.0679-.1601,.0834-.6013-.0357-.7467-.0257-.0314-.0236-.0851-.0207-.1281,.0076-.1094-.0179-.0973-.0781-.1983-.1403,.1003-.0419,.0478-.1759,.1683-.0426-.1443-.1658-.1721-.1745-.2964-.0133-.192,.2789-.3606,.1362-.4914-.0918-.0841-.0099-.1912-.0382-.2447-.1226-.2314-.28,.1608-.2402-.3411,.0135-.17-.4857-.3939-.4751-.3349,.0114,.0635,.0076,.1176-.0512,.1888l-.1453-.0525c-.0874,.157-.0394,.4361-.0707,.6509-.2005-.0221-.2775-.362-.4606-.3756-.0054,.1279-.0345,.2895,.0381,.4031,.0662,.1036,.0413,.2185-.0156,.3396-.0553-.0757-.1806-.0808-.2062-.2349-.0714,.1555-.0345,.2926-.0524,.4246-.0184,.1352,.1186,.1899,.0374,.4201-.1648-.0422-.2932-.1511-.3667-.2455-.0441,.0838-.0552,.3011-.1297,.2472-.2079-.1507-.3225,.0614-.3569,.2285-.1454,.7059-.335,1.2611-.5846,2.9873-.0214,.1483-.0487,.2692-.1324,.3877-.0651,.0921-.099,.185-.0931,.2942,.0043,.0803-.0246,.1623-.0342,.2438-.0071,.0602-.0135,.1215-.0088,.1814,.0215,.2751,.157,.5356,.1927,.8092,.0201,.154-.0439,.2622-.1637,.3716-.0981,.0895-.1644,.2044-.2484,.3059-.0362,.0437-.0727,.0974-.1243,.1198-.1828,.0795-.2711,.2361-.4075,.3525-.0969,.0828-.1587,.1992-.2633,.271-.0943,.0648-.2221,.1115-.3412,.1274-.324,.0432-.5193-.1355-.8454-.1057-.0768,.007-.149,.0112-.2119,.0645-.0324,.0275-.0921,.0392-.1407,.0433-.2748,.0229-.5499,.0415-.825,.061-.0188,.0013-.0434,.004-.056-.0043-.1428-.0932-.3055-.0602-.4615-.0413-.1487,.018-.277-.0011-.4165-.1149-.0066-.0797-.0112-.1783-.022-.2796-.0025-.0235-.0056-.6651,.1787-.9013s.8205-.4268,.8205-.4268c.1545-.0438,.9619-.2377,1.0506-.2864,.0962-.0528,.3491-.3764,.5282-.8921,.0402-.1157,.5659-1.8205,.6598-2.2275,.1247-.5405,.1502-1.7245,.1502-1.9437,0-.2504,.2547-.8296,.1022-.9406-.1247-.5405-.334-.5441-.4691-.4609-.067,.07-.3215,.7845-.3521,.8668-.1951,.525-.3521,1.0699-1.0157,3.1556-.0548,.1722-.0594,.3478-.1074,.4815-.0222,.0618-.0568,.1237-.0608,.1863-.0114,.1763-.0072,.3531-.0145,.5297-.004,.0978,.0014,.1965-.0769,.2852-.029,.0328-.0785,.2919-.5192,.5975s-1.4829,.6421-1.4829,.6421c-.0234,.0036-.0505,.0105-.0816,.0201-.2118,.0651-.3766,.1629-.6103,.1125-.1048-.0226-.2097-.0648-.2968-.1191-.1063-.0662-.2148-.1088-.3466-.1096-.0319-.0002-.0762,.0087-.0938-.0056-.1547-.1259-.0997-.1472-.279-.1542-.236-.0092-.2603-.0434-.3545-.2426-.1139-.2408-.061-.478,.05-.6869,.1004-.189,.2624-.3743,.5325-.4408,.1514-.0373,.6382-.1571,.7864-.2043,.1686-.0537,.5446-.0278,.7629-.0694,.2391-.1039,.476-.6744,.5122-.8095,.0375-.1405,.8982-2.721,.9173-2.7555,.0108-.0195,.1227-.3914,.137-.5865,.0263-.3584,.0306-.7179,.0339-1.0769,.0009-.1018-.044-.2028-.0483-.3051-.0052-.1198,.0428-.2424,.0196-.3608-.0446-.228-.1136-.0846-.172-.228-.0917-.2251-.0175-.2356,.0245-.4751,.0132-.0749,.0425-.148,.066-.2216,.005-.0157,.0236-.03,.0241-.045,.0096-.3129,.2294-.4445,.2139-.7661-.0117-.2426-.2462,.0073-.2591-.0232-.0739,.0716,.083-.4464-.0831-.4989-.0306-.169,.6576-.5876,.1333-.4898-.1307-.1768,.1996-.6104-.0626-.5009-.1759,.0735,.1352-.3993,.0509-.5674-.0264,.0486-.2663,.04-.2935,.09-.2518-.2473,.1514-.4487,.1661-.7428,.0039-.0771,.0827-.1285,.0835-.2056,0-.0082-.1811-.0807-.1853,.0119-.0045,.0994-.2551,.1842-.3066,.179-.04-.2281,.2365-.5518,.1188-.7753l-.1503,.0218c.0015-.0501,.1025-.3974,.11-.4402,.0236-.1356-.5195-.0251-.3914-.2539,.11-.1965,.1792-.3004,.1868-.3342,.0319-.1407,.1028-.1953,.0374-.1949-.1446,.0009-.0374-.1566-.0561-.2119-.0586-.0123-.0904-.2432-.147-.2641-.0751-.0276-.0493-.0931-.0534-.146-.0085-.1084,.0705-.0537,.0947-.1528,.0387-.1585,.2411,.0058,.3144-.1384,.0421-.0828-.2863-.17-.271-.4303,.005-.0838,.2027-.1608,.2381-.2348,.0094-.0198-.0412-.0525-.2459-.0713-.051-.0047,.0256-.3662,.0524-.3962,.0971-.1089,.1976-.1017,.332-.1931,.0247-.0168,.1628-.0619,.1369-.1449-.0512-.1558-.1278-.0913-.2422-.0536-.0747-.0594-.047-.1368-.0192-.1964,.0436-.0932,.1172-.1761,.1711-.2664,.098-.1645,.1574-.0012,.155-.1962-.0006-.0479,.0175-.0962,.0288-.1534-.1452-.0826-.1953-.0237-.3105-.0147-.0702-.1947,.1627-.2278,.2445-.3439-.0914-.2308,.1137-.1729,.2696-.3264-.0631-.0102-.2159-.158-.2713-.167,.0038-.0243,.2665-.1787,.2765-.1878,.0986-.0904-.0262-.0628,.0678-.1565,.0335-.0334-.0214,.0239-.0337-.0107-.0501-.1414,.1804-.0388,.1603-.0926-.0113-.0302-.0195-.0628-.0386-.0891-.0796-.1092-.0142-.1809,.1183-.1887,.0887-.0052-.1304-.0621-.1461-.167,.031-.0072,.282-.0397,.313-.047-.0024-.0109-.0052,0-.047-.073-.0678-.0991-.2775-.0503-.2297-.1565,.1381-.1168-.0005-.2212-.0036-.2623-.0108-.0088-.0182-.0184-.0287-.0229-.0412-.0177-.1161,.0407-.127-.0273-.0051-.0316,.0365-.079,.0714-.1045,.0579-.0425,.1229-.0852,.1932-.1057,.0931-.0272,.1133-.0789,.1161-.1545-.0804-.0026-.1744-.0027-.2881-.0335-.0473-.0592,.0341-.0723,.1252-.1148,.0827-.0386,.0814-.0433,.1576-.0906,.1252-.0777,.228-.1057,.0909-.1467-.0669-.02,.0106-.0374-.0427-.105-.0059-.0074-.0127-.1741-.0962-.1481,.1186-.1619,.2169-.2002,.4254-.2493s-.1404-.1687-.1906-.1942c.0672-.0909,.3247-.301,.3991-.1577s.1461-.1997,.02-.1848-.301-.1203-.1207-.1961-.1984-.1733-.0329-.252,.0161-.163,.1655-.1584-.3599-.2652-.1242-.276-.1149-.5071,.1108-.4847,.06-.1003-.0195-.1435c-.0203-.011-.247-.0212-.0248-.0949s-.0312-.3283,.0902-.355,.1101-.1962,.0031-.2868c-.0239-.0202-.1382-.0548-.0232-.1018s.0554-.3469-.0561-.5074c-.0138-.0199-.0007-.0626,.0071-.0929,.0681-.2622-.0565-.4874-.151-.7119-.0559-.1328-.1737-.2382-.2441-.3667-.1183-.2157-.2247-.4382-.3285-.6614-.0341-.0734-.0547-.1566-.0641-.2374-.0249-.2148,.1076-.3887,.1696-.5802,.0345-.1066,.1093-.2037,.1801-.294,.0854-.1089,.2118-.1163,.3268-.0348,.0623,.0441,.2598,.1524,.2598,.1524,0,0,.0353-.0115,.0816-.0239,.0633-.0169,.169-.0579,.2936-.0389s-.1505,.1882-.1505,.1882c0,0,.2583,.1633,.3744,.202,.0677,.0226,.1392,.0472,.1944,.0898,.0478,.0369,.0751,.1003,.1315,.1805,.0066-.0621,.01-.0845,.0112-.1071,.0083-.1542,.0188-.3084,.0232-.4627,.0037-.1291-.0024-.2585,.0018-.3875,.0009-.0264,.0266-.0532,.0441-.0776,.0202-.0282,.0533-.0504,.0644-.0812,.0408-.1136,.0781-.2288,.1108-.345,.0612-.217,.1639-.4116,.3066-.5851,.0275-.0335,.064-.0594,.0938-.0913,.1421-.1517,.2744-.3141,.4273-.4538,.1657-.1514,.3498-.1317,.4825,.05,.1093,.1496,.1919,.3185,.2896,.4769,.1091,.1769,.2275,.3484,.3305,.5287,.055,.0963,.0776,.2107,.1294,.3093,.1447,.2756,.3015,.5448,.4449,.8209,.1694,.326,.3673,.6095,.7423,.7381,.1131,.0388,.2428,.1018,.3193,.2348,.048,.0835,.1584,.1342,.2465,.1907,.1167,.0747,.2392,.1405,.3588,.2109,.0059,.0034,.0085,.0134,.0114,.0208,.0501,.1265,.0973,.2543,.1506,.3794,.043,.1009,.0545,.213,.176,.2779,.0968,.0518,.0851,.0837,.0212,.1409,.0083,.0537,.0106,.0966,.022,.1368,.0174,.0612,.0356,.1234,.0636,.1802,.04,.0812,.1261,.1575,.1269,.2365,.0017,.1818,.212,.285,.1607,.4779-.0025,.0095,.0298,.0249,.0393,.0414,.0472,.0822,.0957,.1639,.1369,.2491,.0525,.1086-.0206,.2722,.1458,.3321,.0083,.003,.0141,.0195,.0167,.0308,.0159,.0691,.0236,.1409,.0472,.2072,.0286,.0804,.0723,.1554,.1058,.2343,.0516,.1215,.1004,.2442,.1495,.3668,.0025,.0063-.0062,.0171-.0035,.0232,.0099,.023,.0181,.0487,.0345,.0666,.1269,.1386,.203,.3206,.3793,.419,.0756,.0422,.124,.1308,.1966,.1813,.1524,.1063,.2908,.2195,.3843,.3868,.0796,.1425,.0824,.2686-.0293,.3915-.1331,.1465-.2564,.3069-.4633,.3589-.0879,.0221-.1756,.0452-.2634,.0681-.0846,.022-.2488,.0071-.2488,.1345s.4408,.418,.2549,.4957Z"/></svg>