<?xml version="1.0" encoding="UTF-8"?><svg id="a" xmlns="http://www.w3.org/2000/svg" width="20.2847mm" height="20.2847mm" viewBox="0 0 57.5 57.5"><defs><style>.b{opacity:.88;}</style></defs><path class="b" d="M7.0662,24.6998l.0039-.0137-3.6338-2.2158,.1611-.6162,4.2383-.1016,.0039-.0137-3.9434-1.0303,.2061-.7861,4.7285,1.2363-.3379,1.2939-3.7852,.0527-.0029,.0137,3.2695,1.918-.3281,1.2539-4.7285-1.2354,.2051-.7861,3.9434,1.0303Z"/><path class="b" d="M7.6443,26.7233l-.0664,.8926-4.8672-.3613,.0664-.8926,4.8672,.3613Z"/><path class="b" d="M7.491,28.5563l.0918,1.2715c.1094,1.5234-.6562,2.3936-2.2705,2.5098-1.6426,.1182-2.5098-.8027-2.6074-2.1582l-.0918-1.2715,4.8779-.3516Zm-4.1289,1.1963l.0225,.3008c.0723,1.0059,.79,1.4111,1.8594,1.334,1.0684-.0771,1.7207-.5811,1.6484-1.5869l-.0215-.3008-3.5088,.2529Z"/><path class="b" d="M7.904,32.9586l.2939,1.0225-3.2383,2.623,.0039,.0137,3.6875-1.0615,.2256,.7803-4.6973,1.3525-.2969-1.0293,3.2139-2.6084-.0039-.0137-3.6611,1.0537-.2246-.7803,4.6973-1.3525Z"/><path class="b" d="M9.3152,37.2106l.375,.8145-4.4414,2.0449-.375-.8145,4.4414-2.0449Z"/><path class="b" d="M9.3464,41.7291l.8691,1.3203-2.1338,1.4043c-.249-.1377-.5869-.4346-.9365-.9668-.8613-1.3086-.4307-2.5889,.7793-3.3848,1.209-.7959,2.5557-.6846,3.417,.624,.3076,.4678,.4443,.9053,.4775,1.1094l-.6982,.4014c-.0117-.3359-.1221-.7324-.3682-1.1064-.5225-.7949-1.458-.791-2.3057-.2334-.917,.6035-1.2285,1.4033-.7246,2.1689,.1152,.1748,.2539,.3096,.3604,.3818l1.0986-.7227-.4082-.6191,.5732-.377Z"/><path class="b" d="M12.656,42.6373l.6348,.6309-1.3994,1.4082,1.0264,1.0205,1.4004-1.4082,.6348,.6309-3.4404,3.4609-.6348-.6309,1.5176-1.5273-1.0264-1.0205-1.5176,1.5273-.6348-.6309,3.4395-3.4609Z"/><path class="b" d="M15.9148,46.5084l-.8975-.6211,.4062-.5869,2.5254,1.748-.4062,.5869-.8916-.6172-2.373,3.4287-.7363-.5098,2.373-3.4287Z"/><path class="b" d="M18.2234,51.6119c.1211,.1689,.4092,.4873,.8506,.6631,.3643,.1455,.7695,.0742,.9512-.3809,.1299-.3252-.002-.5439-.3164-.9258l-.3291-.4023c-.3506-.4258-.5-.9004-.2666-1.4854,.3242-.8125,1.1621-.9678,1.9229-.6641,.4814,.1914,.7695,.4502,.8848,.541l-.3174,.6797c-.1699-.1582-.3896-.3818-.7734-.5342-.416-.166-.7188-.0312-.8428,.2812-.1348,.3379,.04,.5586,.2373,.8027l.3779,.4678c.4141,.5117,.5537,.8984,.2988,1.5361-.3682,.9229-1.2012,1.1025-2.0654,.7578-.4551-.1816-.7803-.3867-.9531-.6143l.3408-.7227Z"/><path class="b" d="M23.7273,49.36l-.6338,3.0967c-.1631,.7949,.0234,1.1045,.5371,1.209,.5,.1025,.7998-.1064,.9629-.9014l.6348-3.0967,.877,.1797-.6348,3.0967c-.2578,1.2607-1.0859,1.6045-1.9834,1.4209-.9043-.1855-1.5293-.8271-1.2705-2.0879l.6338-3.0967,.877,.1797Z"/><path class="b" d="M27.1257,49.9645l1.0645-.0166,1.6836,3.8135h.0137l-.0576-3.8379,.8115-.0127,.0752,4.8887-1.0713,.0166-1.6768-3.7852h-.0137l.0576,3.8096-.8115,.0127-.0752-4.8887Z"/><path class="b" d="M32.9451,49.5807l1.4707-.4023c.8359-.2295,1.5059-.0068,1.7422,.8564,.168,.6143-.1035,1.1309-.6074,1.3555l.0049,.0205c.1826-.0215,.4004,.0059,.6689,.4043l1.1055,1.626-.918,.251-.8838-1.4033c-.2168-.3398-.4727-.4004-.7891-.3135l-.1963,.0537,.5547,2.0225-.8633,.2363-1.2891-4.707Zm1.7754,1.7178c.458-.125,.7041-.4463,.5732-.9258-.1475-.5391-.4678-.5967-.9541-.4639l-.3506,.0967,.3809,1.3887,.3506-.0957Z"/><path class="b" d="M40.696,50.6129l-1.502,.7588,.2178,1.209-.8008,.4043-.7402-5.1064,.876-.4424,3.6123,3.6562-.8262,.417-.8369-.8965Zm-.4785-.5273l-1.5801-1.7617-.0127,.0068,.4287,2.3418,1.1641-.5869Z"/><path class="b" d="M40.6081,46.3991l.8311-.665,3.667,1.9775,.0107-.0088-2.4004-2.9941,.6338-.5078,3.0566,3.8125-.835,.6709-3.6445-1.9609-.0107,.0088,2.3818,2.9717-.6338,.5088-3.0566-3.8135Z"/><path class="b" d="M44.0681,43.4967l.8057-.9863c.9648-1.1807,2.1172-1.2861,3.3682-.2646,1.2734,1.04,1.2715,2.3027,.4131,3.3535l-.8057,.9863-3.7812-3.0889Zm3.8174,1.9619l.1895-.2334c.6377-.7803,.3945-1.5654-.4346-2.2422-.8291-.6777-1.6475-.7588-2.2842,.0215l-.1904,.2324,2.7197,2.2217Z"/><path class="b" d="M47.5242,38.4235c.4639-.9023,1.5625-1.3848,3.125-.5801,1.5635,.8047,1.8096,1.9785,1.3447,2.8809-.4648,.9033-1.5635,1.3848-3.126,.5811-1.5625-.8047-1.8086-1.9785-1.3438-2.8818Zm3.8594,1.9873c.2598-.5049,.0381-1.1299-1.1572-1.7451s-1.833-.4316-2.0928,.0723c-.2588,.5039-.0381,1.1299,1.1572,1.7451s1.833,.4316,2.0928-.0723Z"/><path class="b" d="M48.7585,35.9616l.2764-1.0273,4.125-.5732,.0039-.0137-3.7041-.9951,.2109-.7842,4.7178,1.2676-.2773,1.0342-4.0967,.5732-.0039,.0137,3.6768,.9883-.21,.7842-4.7188-1.2676Z"/><path class="b" d="M49.8289,31.5592l.0537-1.0625,3.9111-1.4287,.001-.0146-3.8301-.1924,.041-.8105,4.8779,.2451-.0537,1.0693-3.8828,1.4238-.001,.0137,3.8018,.1904-.041,.8115-4.8779-.2451Z"/><path class="b" d="M48.4958,25.8649l-.1133-.8037,1.0967,.5664,.0762,.54-1.0596-.3027Zm1.4131,1.1504l-.3584-2.542,.7061-.0996,.2334,1.6553,1.2891-.1816-.2207-1.5654,.7061-.0996,.2207,1.5654,1.4268-.2012-.2432-1.7246,.707-.0996,.3682,2.6113-4.835,.6816Z"/><path class="b" d="M49.3562,23.653l-.7617-2.4531,.6816-.2119,.4961,1.5977,1.2432-.3857-.4688-1.5107,.6816-.2119,.4688,1.5107,1.377-.4277-.5166-1.6641,.6816-.2119,.7822,2.5205-4.665,1.4482Z"/><path d="M15.7822,10.728l-1.3184,1.0449,.4561,1.1387-.7031,.5566-1.75-4.8516,.7686-.6074,4.2715,2.8555-.7246,.5742-1-.7109Zm-.5742-.4199l-1.9014-1.4082-.0107,.0078,.8896,2.209,1.0225-.8086Z"/><path d="M16.1425,6.062l1.3672-.6758c.7773-.3828,1.4775-.293,1.874,.5098,.2822,.5723,.1133,1.1309-.3389,1.4473l.0098,.0195c.1748-.0566,.3945-.0703,.7334,.2695l1.3945,1.3848-.8525,.4219-1.1357-1.209c-.2773-.293-.54-.3027-.835-.1582l-.1816,.0898,.9297,1.8809-.8027,.3965-2.1621-4.377Zm2.0703,1.3496c.4268-.2109,.6064-.5723,.3867-1.0176-.248-.502-.5732-.498-1.0244-.2754l-.3262,.1621,.6377,1.291,.3262-.1602Z"/><path d="M22.3515,3.5737l.9727,3.3164c.2988,1.0215-.1221,1.5977-.7471,1.7793-.2012,.0586-.4766,.0898-.6514,.0684l-.2158-.7402c.1123,.0117,.2402,.0254,.4219-.0273,.416-.123,.4395-.4648,.3311-.834l-.9707-3.3105,.8594-.252Z"/><path d="M24.3544,3.1108l2.5479-.3301,.0918,.709-1.6592,.2148,.167,1.291,1.5693-.2031,.0918,.709-1.5693,.2031,.1855,1.4297,1.7285-.2246,.0918,.709-2.6172,.3398-.6279-4.8477Z"/><path d="M28.9511,2.7026l1.3984,.0703c1.0059,.0508,1.502,.6348,1.4561,1.5586-.0469,.9219-.5996,1.4609-1.6055,1.4121l-.5029-.0254-.0957,1.9062-.8945-.0449,.2441-4.877Zm1.1152,2.3477c.5596,.0273,.8174-.2324,.8447-.7637,.0264-.5312-.2051-.8086-.7637-.8379l-.3359-.0156-.0801,1.5996,.335,.0176Z"/><path d="M33.7011,3.1459l.873,.1992-.9268,4.0664,1.5684,.3574-.1592,.6953-2.4414-.5566,1.0859-4.7617Z"/><path d="M39.4824,4.8706c.9287,.4082,1.4766,1.4766,.7676,3.0859-.708,1.6074-1.8652,1.9238-2.7949,1.5156-.9287-.4102-1.4766-1.4766-.7676-3.0859,.708-1.6094,1.8652-1.9258,2.7949-1.5156Zm-1.75,3.9727c.5186,.2285,1.1299-.0293,1.6719-1.2598s.3203-1.8555-.1982-2.0859c-.5195-.2285-1.1309,.0312-1.6729,1.2617s-.3203,1.8555,.1992,2.084Z"/><path d="M43.4834,9.81l1.2627,.9512-1.5371,2.0391c-.2812-.0469-.6992-.2129-1.208-.5957-1.251-.9434-1.2754-2.293-.4033-3.4492s2.1768-1.5039,3.4277-.5605c.4463,.3379,.7227,.7031,.8232,.8828l-.5234,.6133c-.124-.3125-.3613-.6484-.7188-.918-.7588-.5723-1.6387-.2539-2.249,.5547-.6611,.877-.6855,1.7344,.0459,2.2871,.167,.125,.3438,.2051,.4678,.2383l.792-1.0488-.5918-.4473,.4121-.5469Z"/><path d="M6.1326,17.441c.2598-.5215,.8887-.7305,1.4092-.4697,.5215,.2607,.7305,.8887,.4697,1.4092-.2598,.5215-.8887,.7305-1.4092,.4707-.5215-.2607-.7305-.8887-.4697-1.4102Z"/><path d="M51.1726,17.068c.2695,.5166,.0713,1.1484-.4453,1.418s-1.1484,.0703-1.418-.4463c-.2695-.5156-.0713-1.1484,.4453-1.417,.5166-.2695,1.1494-.0713,1.418,.4453Z"/><path d="M28.749,57.3784C12.9619,57.3784,.1191,44.5356,.1191,28.7495S12.9619,.1196,28.749,.1196s28.6299,12.8428,28.6299,28.6299-12.8428,28.6289-28.6299,28.6289ZM28.749,.686C13.2753,.686,.6855,13.2758,.6855,28.7495s12.5898,28.0625,28.0635,28.0625,28.0635-12.5889,28.0635-28.0625S44.2226,.686,28.749,.686Z"/><path d="M28.749,48.1665c-10.707,0-19.417-8.71-19.417-19.417S18.0419,9.3315,28.749,9.3315s19.417,8.7109,19.417,19.418-8.71,19.417-19.417,19.417Zm0-38.2686c-10.3945,0-18.8506,8.457-18.8506,18.8516s8.4561,18.8506,18.8506,18.8506,18.8506-8.4561,18.8506-18.8506S39.1435,9.8979,28.749,9.8979Z"/><path d="M41.5766,39.78c-.0347-.3844-.1334-1.0478-.1724-1.2956-.1591-1.0118-.1758-1.0307-.2141-1.7314-.0676-1.2376-.0972-2.3797-.1041-2.4524-.0104-.1092-.0216-.2183-.0456-.3215-.0349-.15-.1253-.2521-.2652-.2895-.1046-.028-.2135-.0445-.3168-.0762-.2823-.0866-.5486-.2093-.7851-.3906-.228-.1748-.422-.3892-.5609-.6602-.2243-.4374-.2806-.9343-.2222-1.4635,.0533-.4839,.1958-.9489,.3911-1.4025,.0687-.1596,.1265-.3243,.1629-.4935,.0076-.0351,.0202-.0596,.0368-.1005,.0636,.0695,.1152,.1432,.1817,.1921,.0635,.0465,.1408,.0717,.2152,.0971,.0773,.0263,.1597,.0323,.2497,.0273-.0026-.0344-.002-.0571-.0062-.0779-.0242-.1213-.0597-.2394-.071-.3638-.0113-.1248-.0065-.2555,.0045-.3837,.024-.2799,.0478-.5599,.0857-.8381,.0595-.4375,.0683-.865,.0063-1.292-.025-.1715-.0659-.3383-.1244-.494-.1047-.2781-.2416-.5228-.4381-.7088-.1928-.1825-.4043-.3136-.6545-.3565-.0823-.0141-.1632-.0361-.2459-.0461-.4733-.0573-.9345-.1684-1.3737-.3612-.106-.0464-.2141-.0857-.3249-.1144-.277-.0717-.5505-.1564-.8335-.1968-.2159-.0308-.4299-.0712-.6487-.0784-.1002-.0033-.2001-.0096-.3-.0144-.0922-.0044-.185-.0014-.278,.007-.1076,.0096-.2152,.0199-.3228,.0311-.0531,.0055-.1397,.0226-.192,.0397-.1269,.0417-.2527,.0898-.382,.1156-.0818,.0163-.1625,.0501-.2443,.0705-.1045,.026-.2095,.0489-.3146,.0677-.1512,.0272-.3027,.0494-.4542,.0722-.0918,.0138-.1836,.0273-.2755,.0386-.0541,.0067-.1085,.0058-.1624,.0146-.1556,.0255-.3112,.0463-.4664,.0474-.1488,.0012-.2981,.0167-.4471,.024-.1561,.0076-.3123,.0162-.4679,.017-.1647,.0009-.3284-.0086-.4928-.0108-.2098-.0028-.4204,.0017-.6294-.0077-.2175-.0097-.4334-.0311-.6495-.0494-.018-.0015-.0363-.0015-.0541-.004-.1737-.0238-.3469-.0497-.5201-.0744-.1286-.0183-.2586-.0296-.3859-.0534-.2062-.0385-.4103-.0852-.6144-.1305-.1057-.0235-.2119-.0448-.3139-.081-.0803-.0285-.1631-.0486-.249-.0511-.0467-.0014-.0915-.013-.1369-.0216-.0567-.0107-.1123-.0287-.1698-.0314-.2405-.0114-.4757-.0547-.7216-.035-.1845,.0148-.3674,.033-.551,.0798-.491,.1253-.9655,.344-1.4419,.5532-.1189,.0522-.2393,.0989-.3614,.1361-.558,.1701-1.1245,.271-1.6933,.3129-.2221,.0164-.4447,.0314-.6661,.0301-.2213-.0012-.4438-.0035-.6592-.0522-.0287-.0065-.0549-.023-.0801-.0339,.0371-.2081,.1467-.3902,.1459-.5992-.1702-.0852-.3431-.0883-.523-.015-.2867,.1169-.5846,.1413-.8809,.1749-.0327,.0038-.0685,.0022-.0962-.0256,.0356-.0544,.0758-.0926,.1253-.1212,.0925-.0533,.1775-.1205,.2728-.1709,.1649-.0872,.3313-.1717,.504-.2342,.3163-.1144,.6356-.2186,.9491-.3465,.2677-.1093,.5381-.2001,.8091-.2916,.2347-.0793,.4667-.173,.6933-.286,.2365-.1177,.4691-.2455,.695-.3943,.2134-.1408,.4235-.2886,.6209-.4618,.2157-.1894,.4251-.3893,.6201-.6111,.249-.283,.4751-.5904,.682-.9177,.1284-.2033,.2557-.4076,.3822-.6131,.1259-.2045,.2845-.3461,.4716-.4336,.1866-.0873,.3721-.1314,.5579-.1265,.1147,.003,.2295,.0053,.3446,.0058,.0229,.0001,.0469-.0075,.0764-.0126,.0081-.1047-.0142-.1792-.0603-.2394-.0555-.0725-.1212-.1271-.198-.1622-.1353-.0618-.274-.1078-.4291-.1163-.1079-.006-.2142-.0223-.3083-.0708-.0665-.0343-.1645-.0169-.2071-.1038,.0306-.1012,.0692-.1969,.0867-.2933,.0418-.2309,.0903-.4611,.1068-.6926,.0156-.2183,.0302-.4361,.0287-.6481-.003-.4452-.0033-.8898-.079-1.2979-.0174-.0939-.0139-.2007,.0174-.3082,.0396-.1356,.0923-.2667,.165-.3902,.1183-.2014,.2588-.3688,.4121-.5178,.0967-.0942,.1956-.1831,.2906-.2796,.0507-.0515,.0973-.1123,.1441-.1713,.0104-.013,.0149-.0349,.0228-.054-.1171-.0215-.1744-.0098-.3241,.0553-.2788,.1213-.5465,.3131-.8135,.5184-.113,.0869-.2243,.181-.3421,.2748-.1464-.1068-.3188-.15-.4956-.1821-.0969-.0177-.1921-.0396-.2892-.0554-.0901-.0146-.1818-.0238-.2729-.0348-.0175-.0021-.0368,.0011-.054-.002-.0801-.0141-.112-.0779-.0911-.1881,.01-.0525,.0211-.1068,.0403-.1584,.058-.1569,.1067-.3143,.1521-.4731,.0459-.1603,.0699-.316,.0873-.4707,.0152-.1355,.024-.2691,.037-.4035,.022-.2313,.087-.4633,.1784-.6982,.0447-.115,.1022-.2231,.1597-.3322,.0104-.0198,.0297-.0433,.0075-.0651-.1139,.0952-.2221,.2086-.3202,.3443-.0857,.1185-.1623,.2443-.2315,.3753-.0739,.1401-.1378,.2842-.1795,.4315-.047,.1655-.0762,.3307-.1397,.4967-.05,.1307-.0847,.2652-.14,.3936-.0554,.1288-.1218,.2564-.1947,.3765-.1315,.2168-.3133,.2946-.4892,.383-.0892,.0049-.1825,.0568-.2732,.0777-.0817,.0188-.1685,.0625-.2434,.0413-.0126-.0792,.0061-.1607,.0343-.2441,.0218-.0642,.0427-.1286,.0676-.1925,.0583-.1499,.1129-.3013,.1787-.4496,.084-.1894,.1775-.3767,.2658-.5659,.0057-.0123,.0081-.0255,.0121-.0381l-.0212-.0012c-.293,.2991-.5656,.6199-.7974,.9824-.0271,.0003-.0282-.0226-.026-.0431,.0111-.101,.0209-.2016,.038-.3036,.0178-.1065,.0441-.2147,.0649-.3218,.0065-.0335,.0112-.0692-.0209-.0838-.0765,.1045-.1402,.2086-.1952,.3171-.0527,.1041-.1049,.2086-.151,.3141-.0482,.1102-.0941,.2216-.1313,.3329-.0364,.1092-.0605,.2189-.0942,.3439-.0193-.0192-.0312-.0296-.0418-.042-.0532-.0623-.1213-.1056-.1969-.1341-.1049-.0395-.2115-.0726-.3358-.0662-.0328,.0017-.0644-.001-.0964-.002-.2062-.0068-.4183,.008-.6399,.0645-.0767,.0197-.1118-.0023-.1264-.0618-.0189-.0767-.0386-.1541-.0422-.2379-.0141-.3311,.0083-.6677,.1183-1.0311,.0062-.0203,.0138-.0423-.0141-.0442-.0602,.0606-.1162,.1277-.1687,.2014-.1697,.2386-.2639,.485-.3299,.732-.0537,.2007-.0781,.398-.0691,.5861,.0016,.0333-.0032,.0694-.0053,.1101-.0339,.0207-.0629,.0405-.0926,.0561-.2869,.1501-.5573,.3394-.8112,.5696-.1537,.1393-.2913,.2908-.4138,.4559-.0965,.1299-.1654,.2652-.2097,.4075-.0065,.021-.0021,.0421-.0029,.0678,.0555-.0189,.0883-.0598,.1244-.0914,.2225-.1951,.4519-.3783,.6955-.5408,.2744-.183,.5525-.3309,.8403-.4317,.1605-.0562,.3201-.098,.4703-.1057,.1659-.0085,.3304-.0081,.4844,.0274,.1522,.0351,.294,.0882,.4338,.1485,.0138,.006,.0232,.0202,.0385,.034-.2621,.269-.4838,.5565-.6897,.8598-.0989,.1455-.1792,.3016-.2417,.4607-.0268,.0682-.0277,.065-.0213,.1599,.1896-.1899,.3722-.3819,.5742-.5489,.2059-.1702,.4201-.3137,.6321-.4708,.0257,.0309,.052,.0544,.0704,.0857,.1117,.1905,.2115,.3953,.2777,.6293,.1044,.3694,.1453,.7754,.12,1.2136-.0137,.2356-.0342,.4749-.0863,.7135-.0742,.3396-.1591,.6805-.2825,1.0158-.0748,.2035-.1519,.4055-.242,.6028-.117,.2564-.2443,.5075-.3977,.743-.0144,.0223-.0346,.0405-.0533,.0618-.0724-.0979-.1372-.1895-.2053-.2772-.1974-.2542-.4204-.4726-.649-.6794-.1021-.0924-.2038-.1836-.326-.2463-.0241-.0124-.0452-.0301-.0689-.0434-.093-.0523-.1541-.1476-.1736-.262-.0375-.2192-.0829-.4332-.1234-.6466-.0099-.0518-.0221-.1019-.0532-.1493-.017,.0181-.0311,.0296-.0411,.0438-.1275,.1805-.2335,.3699-.3174,.5726-.1409-.0553-.2706-.1171-.4112-.1589-.0831-.0248-.1654-.041-.2552-.0397-.0134,.0002-.0279,.0073-.0497,.0133,.033,.0635,.0644,.1162,.0887,.1734,.0198,.0465,.0368,.0965,.0445,.1487,.0129,.0867-.0181,.1728-.121,.2285-.0763,.0414-.1621,.0319-.2213-.0134-.0427-.0326-.0813-.0703-.123-.1041-.0651-.0527-.1303-.105-.1972-.1546-.0129-.0096-.0353-.0074-.0602-.0119-.0056,.0379-.0128,.0668-.0137,.095-.0033,.0957-.0042,.1915-.0061,.2877-.0004,.0198,.0068,.0413-.0234,.059-.0113-.0062-.0255-.0118-.037-.0208-.0724-.057-.142-.1173-.216-.1713-.0954-.0696-.1936-.1349-.291-.2007-.0204-.0138-.0443-.0164-.0668,.0205,.0364,.2347,.0786,.4746,.1656,.7058-.1467,.0976-.2945,.186-.4186,.3157,.0349,.0354,.0761,.0425,.1163,.0404,.0609-.0032,.1143,.0138,.1693,.0278l.225,.0574c.1971,.0506,.3882,.1119,.5696,.2013,.251,.1237,.4755,.283,.6719,.4852,.2703,.2783,.4782,.6125,.6206,1.0068,.0309,.0856,.0375,.1817,.0242,.2776-.008,.0571-.0141,.1149-.029,.1708-.0522,.1955-.1921,.3105-.3844,.331-.1613,.0173-.3114-.0241-.4643-.0499-.0412-.007-.079-.0316-.1165-.0514-.1666-.0883-.3341-.1759-.5202-.2145-.1384-.0288-.2763-.0606-.4166-.0846-.1571-.0268-.315-.0431-.473-.0602-.1586-.0172-.3178-.0197-.4797,.0006-.1343,.0169-.2719,.0115-.4054,.0009-.1073-.0085-.2136-.0249-.3184-.0471-.1281-.0272-.2555-.0516-.3704-.1281-.1317-.0876-.2366-.1907-.3059-.326-.0685-.1338-.1166-.2733-.1284-.4222-.0042-.0528-.0099-.1054-.0176-.1575-.0019-.0134-.0141-.0252-.0278-.0481-.1493,.191-.2693,.3812-.3521,.6076-.0276-.0335-.0515-.0558-.0671-.0825-.1116-.192-.2188-.3836-.2995-.5843-.0129-.0322-.0327-.0608-.0513-.0902-.0195-.0306-.0234-.072-.0625-.0922-.0916,.078-.1322,.1792-.1901,.2696-.0601,.0938-.0767,.2073-.1416,.3034-.1213-.0642-.2311-.1359-.3567-.1736-.0387,.0274-.0316,.0635-.0275,.099,.017,.1462,.0485,.2914,.0965,.4354,.0179,.0538,.0353,.1077,.0353,.169-.0706,.0111-.1252,.0214-.1918,.0244-.0419,.002-.0834,.0081-.1241,.0155-.086,.0155-.1804,.0202-.2382,.0877-.0009,.0512,.0255,.0916,.0611,.1232,.0448,.04,.0936,.0779,.1458,.1083,.1386,.0807,.2838,.1499,.4486,.2068-.0736,.0638-.1397,.1173-.202,.1745-.0617,.0567-.1424,.0944-.1879,.1646,.0304,.0659,.0765,.1006,.1447,.108,.0561,.0062,.1123,.0192,.1684,.0224,.113,.0066,.226,.0074,.3392,.0103,.0271,.0007,.0523,.0088,.0616,.0446-.0505,.0786-.0902,.1637-.0514,.2684,.0899,.0798,.1141,.0904,.2423,.0957,.0707,.0029,.1856-.0026,.2551-.0124,.1442-.0203,.2878-.0449,.431-.0724,.1547-.0297,.4064-.0881,.5569-.1358,.2117-.0671,.4268-.1206,.6479-.1565,.463-.0751,.9176-.0732,1.3672,.0616,.0293,.0088,.0598,.0144,.0891,.0233,.0416,.0125,.0831,.0254,.1239,.0403,.0658,.0241,.1302,.0524,.1969,.0741,.0875,.0283,.1596,.0841,.2514,.123-.0539,.0702-.0554,.1438-.0556,.2169-.0006,.146-.0134,.1542-.144,.1899-.0131,.0036-.0261,.0078-.0392,.0108-.2497,.0572-.5021,.0845-.7567,.0734-.1121-.0049-.2237,.0203-.3272,.0645-.1694,.0725-.3395,.1425-.5058,.2186-.136,.0621-.2745,.1187-.419,.156-.2562,.0659-.5181,.1003-.7806,.1272-.1662,.017-.331,.0412-.4841,.0985-.1734,.0648-.3624,.0799-.5534,.0591-.0714-.0077-.1406-.007-.2101,.0011-.1928,.0227-.3684,.0877-.5499,.1349-.0282,.0073-.0547,.023-.0766,.0407-.0412,.0335-.0859,.0658-.0938,.1251-.0091,.0675-.0208,.1351,.0025,.2077,.0225,.0698,.046,.1398,.0683,.2101,.0096,.0305,.0252,.0632,.0234,.0917-.0063,.0981,.0281,.1954,.0459,.2936,.0155,.0857,.0568,.1608,.1183,.2254,.0896,.0941,.1559,.1955,.1968,.3165,.0584,.1724,.1931,.2858,.3542,.353,.1596,.0665,.3258,.1095,.4923,.1134,.0963,.0023,.1936,.0054,.2876-.0049,.1192-.0131,.2205,.0285,.3179,.1091,.0283,.0235,.0583,.0445,.091,.0601,.264,.1262,.5191,.2813,.7991,.3634,.0421,.0123,1.3148,.4782,1.3383,.4837,.0773,.0179,.2899,.1073,.3653,.1539-.0244,.3983-.0066,1.0262,.0794,1.4372,.0318,.1394,.1139-.0816,.1248,.0482,.0063,.0752,.0394,.2497,.0709,.1473,.0431-.14,.139,.4573,.2391,.7345,.0293,.0813,.0986,.1572,.1112,.3157,.0394,.0431,.0615-.0512,.0567-.1025-.003-.0328,.0268-.0991,.0693-.0928,.039,.0057,.0545,.3153,.0804,.288,.0426-.0447,.0315-.1776,.0804-.1408,.1101,.083,.0441,.229,.1249,.2872,.0391,.0283,.1311,.3254,.1568,.3657,.0703,.1101,.1036-.0599,.2101-.0005,.0636,.0355,.1235-.174,.187-.1344,.0061,.0649-.0231,.2816,.0253,.4076,.0167,.0437,.071,.2126,.119,.2261,.0553,.0156,.0655-.0932,.1212-.0812,.0611,.0131,.1116,.0597,.1327,.1221,.0134,.0397,.0317,.0779,.0509,.1246,.1062-.0375,.1677-.13,.2619-.1761,.0297,.0654-.0228,.1275,.0251,.1857,.0515-.0187,.0645-.0737,.0963-.1106,.03-.0348,.0371-.0942,.1001-.1076,.0301,.1048,.0785,.154,.0953,.2541,.0165,.0983-.0134,.2499,.0253,.3542,.0543-.0479,.0783-.1039,.1047-.1593,.0164-.0346,.0319-.0779,.0858-.0726,.035,.0384,.05,.0634,.094,.1115,.0528-.0817-.0209-.2083,.0795-.2891,.0234,.0252,.0792,.194,.1317,.2389,.0249,.0213,.0247-.1512,.0315-.1793,.0116-.0477,.0958,.1171,.1324,.0833,.0177-.0163,.0227-.1783,.042-.2006,.1051,.0598,.0805,.1997,.1303,.2859,.0567-.022,.0497-.1324,.042-.1835-.0294-.1941-.0306-.2401,.0778-.4033,.0176-.0266,.0673,.2603,.1345,.2646,.063-.0768,.0512-.3408,.0988-.3179,.0756,.0362,.0978,.189,.1072,.239,.0104,.0556,.1323,.162,.1345,.1088,.0231-.5484,.1333-.1726,.2353-.2102,.0095-.0353,.0181-.0829,.0347-.1268,.0352-.0932,.0678-.1889,.114-.2756,.0401-.0755,.0769-.0781,.1487-.0224,.1291,.1002,.2586,.2008,.3835,.3081,.1007,.0863,.1968,.18,.2906,.2758,.137,.14,.2229,.3078,.2246,.5133,.0017,.2195,.007,.4398,.0004,.6596-.0076,.2534-.027,.5062-.0406,.7599-.0117,.2154-.016,.4324-.036,.6469-.0196,.21-.0522,.4183-.0846,.6262-.0273,.1751-.0575,.3485-.0718,.5278-.0238,.3013-.0278,.6032-.0031,.9103,.0121,.1492,.0068,.298-.0136,.4432-.0177,.1262-.0325,.2533-.0488,.38-.0108,.0836-.0195,.1677-.0336,.2504-.0541,.3166-.1397,.6212-.2402,.9206-.1117,.3329-.2605,.6496-.4695,.9182-.2161,.2779-.4785,.4957-.8255,.5995-.0773,.0231-.1546,.0476-.2229,.0869-.2594,.149-.4161,.448-.5657,.7051-.0544,.0935-.0753,.1955-.0824,.264-.0045,.0435-.0047,.0948,.0364,.1271,.5213,.411,1.1929,.43,1.714,.4765,.0619,.0055,.1188,.0056,.161-.0333,.0592-.0546,.237-.3292,.3336-.4425,.0256,.0841,.0277,.1217,.0518,.1973,.0323,.1015,.1202,.0761,.1691,.0499,.0795-.0425,.1549-.085,.2651-.2891,.1478-.2736,.2513-.5755,.2985-.8898,.2634-1.7531,.3399-2.3338,.4294-2.7002,.029-.1187,.0639-.2353,.1037-.3499,.1023-.2935,.4088-2.0782,.4821-2.3793,.0128-.0525,.0272-.2629,.1361-.3649,.0387,.0468,.074,.3336,.0921,.4166,.0702,.322,.224,1.4853,.2568,1.7741,.0273,.2408,.1385,1.2109,.2193,2.0299,.0278,.2815-.0053,.9607-.0501,1.2334-.0397,.2417-.0884,.4782-.1808,.7002-.1198,.2879-.3037,.5115-.6091,.6071-.0384,.0121-.0751,.028-.1121,.0431-.0901,.0368-.1689,.0957-.2214,.1766-.09,.139-.1477,.2941-.2067,.4499-.0442,.1164-.0821,.2326-.0854,.3589,.0184,.0194,.0304,.0347,.0449,.0466,.0145,.0119,.0317,.0203,.0474,.0304,.4319,.2775,1.5053,.3863,1.6434,.3197,.1382-.0667,.1902-.1402,.2567-.2316,.0717-.0987,.1276-.1867,.1978-.2934,.0796,.1634,.1772,.2452,.256,.2452,.0309,.0047,.0576,.0083,.1087-.0112,.0441-.0169,.0986-.0921,.138-.3754,.0355-.2555,.026-.4025,.0112-.6971-.0201-.3985-.1378-.7791-.1786-1.179-.2422-2.3699-.137-2.5874-.1396-3.1175-.0006-.1222,.1005-.5016,.134-.6971,.0264-.1539,.0943-.6285,.1124-.8178,.0098-.1019,.0763-.6231,.0886-.7764,.0232-.2902-.0005-.5727,.0226-.8631,.0257-.3231,.0814-.6429,.1327-.9621,.025-.1554,.0708-.3066,.1536-.4378,.0204-.0055,.0352-.0112,.0503-.0132,.17-.0227-.0383,.0019,.1331,.0024,.1713,.0005,.3427-.0117,.5134,.0117,.3463,.0473,.6956,.0705,1.0385,.1482,.1529,.0345,.3079,.0585,.4619,.0883,.0873,.0168,.1742,.0354,.2604,.0573,.1775,.0451,.3547,.0919,.5326,.1362,.1724,.0429,.3447,.0871,.5185,.1245,.1179,.0255,.2375,.0429,.3565,.0625,.0685,.0113,.1379,.0176,.2061,.0303,.0455,.0085,.0913,.0151,.1377,.0154,.4618,.003,.9225,.0472,1.3867-.0175,.1375-.0191,.2738-.046,.4107-.0682,.083-.0135,.1624-.0688,.2481-.05,.0104,.0173,.0212,.0302,.0271,.0457,.0692,.1843,.1489,.2417,.3275,.2176,.0683-.0093,.1366-.0347,.203-.06,.2913-.1113,.5493-.3005,.805-.4917l.1222-.0912c.0555,.1402,.0967,.2789,.1624,.3997,.1467,.2699,.3111,.5272,.5281,.7346,.1439,.1376,.2794,.2872,.3923,.4575,.1848,.2792,.3407,.5796,.4712,.8987,.1458,.3561,.2652,.7255,.3825,1.0966,.0133,.0421,.0189,.0874,.0164,.1336-.0085,.1567-.0184,.3147-.0443,.471-.0618,.3735-.1184,.748-.2074,1.1205-.1622,.6781-.39,1.3373-.7278,1.9607-.2138,.3944-.4669,.7622-.7753,1.0899-.2116,.2248-.4122,.4704-.6787,.6218-.4638,.2636-.5269,.541-.5626,.8568-.009,.0801-.0094,.2036-.0094,.29,.3067,.2637,.8639,.2291,1.0727,.2124,.1923-.0153,.519-.026,.6935-.1215,.2534-.139,.3632-.3523,.5084-.6048,.0259-.0449,.0319-.1078,.0779-.0978,.0349,.0922,.035,.2378,.1419,.2928,.1166,.0496,.1942-.1785,.2191-.2497,.0587-.1677,.0871-.3506,.1356-.5205,.1088-.3817,.2355-.7597,.3157-1.1459,.125-.6011,.3056-1.1912,.4928-1.7782,.1587-.4975,.3311-.9906,.5115-1.4803,.1776-.4817,.3509-.9632,.5893-1.421,.0959-.1842,.1276-.3782,.1222-.5713-.0039-.1426-.037-.2756-.0966-.3998-.0658-.1369-.1529-.2551-.2256-.3854-.0125-.0226-.029-.0482,.012-.083,.0439,.0195,.0934,.0374,.1393,.062,.1908,.1024,.3773,.2094,.5509,.3426,.3583,.2747,.6314,.6276,.848,1.0444,.1137,.2188,.2511,.6056,.3126,.8547,.0583,.2358,.1402,.3606,.1234,1.1726-.007,.34-.0391,.7765-.3305,1.4052-.0923,.1992-.2547,.3571-.3731,.5406-.1627,.2523-.2896,.5152-.3435,.8043-.0294,.1579-.013,.2952,.0431,.4242,.0121,.0278,.043,.0447,.0711,.0725,.0388-.0449,.0705-.0787,.0985-.1151,.082-.1064,.1618-.2145,.2435-.321,.0131-.0171,.0346-.0278,.0753-.0595-.0175,.1783-.0261,.3475-.0011,.5042,.0661,.0029,.3838,.0123,.7526-.1093,.2706-.0893,.4073-.2991,.584-.5557,.0628-.0913,.1145-.1828,.1429-.2862,.0302-.1108,.1283,.1553,.2679,.136,.2272-.0314,.1488-.8062,.1348-.9618ZM22.0759,21.644c.1704-.2884,.3782-.6925,.5007-1.0058,.0917-.2343,.1923-.466,.2828-.7015,.0448-.1166,.08-.2364,.1201-.3546,.0498-.1466,.1002-.2932,.1501-.4401,.0049-.0143,.0102-.0285,.0145-.0427,.056-.1911,.1168-.3819,.1652-.5738,.0264-.1044,.074-.1684,.157-.2172,.1672-.0984,.3366-.1659,.5067-.2005,.1044-.0211,.2077-.0187,.3103-.0208,.0468-.0009,.0908,.0134,.1358,.022,.0905,.0173,.1805,.0385,.294-.0267-.02-.1108-.0813-.1653-.1382-.2202-.0919-.0886-.2045-.1342-.3246-.1689-.1718-.0498-.3562-.0435-.5391-.0385-.1387,.0038-.2841,.0294-.4294,.0729-.0353,.0106-.0707,.0158-.1143,.0251-.0045-.1378-.0062-.2688-.0128-.3973-.0067-.13-.0154-.259-.028-.3853-.0127-.1263-.0289-.2507-.048-.3727-.0191-.1217-.0419-.2409-.0665-.3582-.0245-.1169-.0533-.2304-.0817-.3534,.0186-.0103,.0359-.0229,.053-.029,.1672-.0596,.3326-.1012,.4984-.1435,.1793-.0458,.3508-.0544,.5249-.076,.0523-.0065,.1014,.0061,.1519,.0103,.0217,.0018,.0429,.0055,.0648,.0068,.2593,.0151,.4853,.1046,.6871,.2595,.1507,.1158,.2663,.2765,.3641,.4635,.0224,.0426,.0375,.0927,.0573,.1384,.0908,.2106,.1689,.4331,.2108,.6852,.0465,.2797,.0553,.5732,.0331,.8811-.0208,.289-.075,.5796-.1509,.8653-.1274,.4798-.2965,.9504-.5603,1.3733-.1067,.1709-.2287,.3301-.3498,.4877-.1745,.2271-.3623,.4372-.5668,.6253-.6663,.6129-.8571,.8046-1.699,1.1173-.3606,.134-.688,.2267-.9433,.2948,.201-.2947,.5003-.7447,.7703-1.2017Zm-2.6957-.5896c-.1023-.0886-.1815-.2002-.2592-.311-.0404-.0576-.1071-.0973-.1077-.2069,.0356-.0057,.0658-.0171,.0921-.0139,.1337,.0166,.2685,.0299,.3993,.0556,.1828,.0359,.3561,.0971,.5306,.1573,.2224,.0767,.4199,.1928,.5968,.3472,.1766,.1543,.3104,.3487,.3715,.6047l.0041,.0126c.0481,.2868,.0617,.2383-.1023,.4851-.0781,.1176-.2768,.3962-.5147,.625-.0961-.3169-.21-.6446-.3236-.8718-.1745-.3491-.4047-.6394-.6869-.8839Z"/></svg>