<?xml version="1.0" encoding="utf-8"?>
<!-- Generator: Adobe Illustrator 26.0.3, SVG Export Plug-In . SVG Version: 6.00 Build 0)  -->
<svg version="1.1" id="Lager_1" xmlns="http://www.w3.org/2000/svg" xmlns:xlink="http://www.w3.org/1999/xlink" x="0px" y="0px"
	 viewBox="0 0 57.5 57.5" style="enable-background:new 0 0 57.5 57.5;" xml:space="preserve">
<style type="text/css">
	.st0{opacity:0.88;}
</style>
<path class="st0" d="M7.1,24.7L7.1,24.7l-3.6-2.2l0.2-0.6l4.2-0.1l0,0l-3.9-1l0.2-0.8l4.7,1.2l-0.3,1.3l-3.8,0.1l0,0L8,24.5
	l-0.3,1.3l-4.7-1.2l0.2-0.8L7.1,24.7z"/>
<path class="st0" d="M7.7,26.7l-0.1,0.9l-4.9-0.4l0.1-0.9L7.7,26.7z"/>
<path class="st0" d="M7.5,28.6l0.1,1.3c0.1,1.5-0.7,2.4-2.3,2.5c-1.6,0.1-2.5-0.8-2.6-2.2l-0.1-1.3L7.5,28.6z M3.4,29.8l0,0.3
	c0.1,1,0.8,1.4,1.9,1.3c1.1-0.1,1.7-0.6,1.6-1.6l0-0.3L3.4,29.8z"/>
<path class="st0" d="M7.9,33l0.3,1L5,36.6l0,0l3.7-1.1l0.2,0.8l-4.7,1.4l-0.3-1l3.2-2.6l0,0l-3.7,1.1l-0.2-0.8L7.9,33z"/>
<path class="st0" d="M9.3,37.2L9.7,38l-4.4,2l-0.4-0.8L9.3,37.2z"/>
<path class="st0" d="M9.4,41.8l0.9,1.3l-2.1,1.4c-0.2-0.1-0.6-0.4-0.9-1c-0.9-1.3-0.4-2.6,0.8-3.4c1.2-0.8,2.6-0.7,3.4,0.6
	c0.3,0.5,0.4,0.9,0.5,1.1l-0.7,0.4c0-0.3-0.1-0.7-0.4-1.1c-0.5-0.8-1.5-0.8-2.3-0.2c-0.9,0.6-1.2,1.4-0.7,2.2
	c0.1,0.2,0.3,0.3,0.4,0.4l1.1-0.7l-0.4-0.6L9.4,41.8z"/>
<path class="st0" d="M12.7,42.7l0.6,0.6l-1.4,1.4l1,1l1.4-1.4l0.6,0.6l-3.4,3.5l-0.6-0.6l1.5-1.5l-1-1l-1.5,1.5l-0.6-0.6L12.7,42.7z
	"/>
<path class="st0" d="M15.9,46.5L15,45.9l0.4-0.6l2.5,1.7l-0.4,0.6L16.7,47l-2.4,3.4L13.6,50L15.9,46.5z"/>
<path class="st0" d="M18.2,51.6c0.1,0.2,0.4,0.5,0.9,0.7c0.4,0.1,0.8,0.1,1-0.4c0.1-0.3,0-0.5-0.3-0.9l-0.3-0.4
	c-0.4-0.4-0.5-0.9-0.3-1.5c0.3-0.8,1.2-1,1.9-0.7c0.5,0.2,0.8,0.5,0.9,0.5l-0.3,0.7c-0.2-0.2-0.4-0.4-0.8-0.5
	c-0.4-0.2-0.7,0-0.8,0.3c-0.1,0.3,0,0.6,0.2,0.8l0.4,0.5c0.4,0.5,0.6,0.9,0.3,1.5c-0.4,0.9-1.2,1.1-2.1,0.8c-0.5-0.2-0.8-0.4-1-0.6
	L18.2,51.6z"/>
<path class="st0" d="M23.7,49.4l-0.6,3.1c-0.2,0.8,0,1.1,0.5,1.2c0.5,0.1,0.8-0.1,1-0.9l0.6-3.1l0.9,0.2L25.5,53
	c-0.3,1.3-1.1,1.6-2,1.4c-0.9-0.2-1.5-0.8-1.3-2.1l0.6-3.1L23.7,49.4z"/>
<path class="st0" d="M27.1,50l1.1,0l1.7,3.8h0l-0.1-3.8l0.8,0l0.1,4.9l-1.1,0L28,51.1h0l0.1,3.8l-0.8,0L27.1,50z"/>
<path class="st0" d="M33,49.6l1.5-0.4c0.8-0.2,1.5,0,1.7,0.9c0.2,0.6-0.1,1.1-0.6,1.4l0,0c0.2,0,0.4,0,0.7,0.4l1.1,1.6l-0.9,0.3
	l-0.9-1.4c-0.2-0.3-0.5-0.4-0.8-0.3l-0.2,0.1l0.6,2l-0.9,0.2L33,49.6z M34.7,51.3c0.5-0.1,0.7-0.4,0.6-0.9c-0.1-0.5-0.5-0.6-1-0.5
	L34,50l0.4,1.4L34.7,51.3z"/>
<path class="st0" d="M40.7,50.6l-1.5,0.8l0.2,1.2L38.6,53l-0.7-5.1l0.9-0.4l3.6,3.7l-0.8,0.4L40.7,50.6z M40.2,50.1l-1.6-1.8l0,0
	l0.4,2.3L40.2,50.1z"/>
<path class="st0" d="M40.6,46.4l0.8-0.7l3.7,2l0,0l-2.4-3l0.6-0.5l3.1,3.8l-0.8,0.7l-3.6-2l0,0l2.4,3l-0.6,0.5L40.6,46.4z"/>
<path class="st0" d="M44.1,43.5l0.8-1c1-1.2,2.1-1.3,3.4-0.3c1.3,1,1.3,2.3,0.4,3.4l-0.8,1L44.1,43.5z M47.9,45.5l0.2-0.2
	c0.6-0.8,0.4-1.6-0.4-2.2c-0.8-0.7-1.6-0.8-2.3,0l-0.2,0.2L47.9,45.5z"/>
<path class="st0" d="M47.5,38.4c0.5-0.9,1.6-1.4,3.1-0.6c1.6,0.8,1.8,2,1.3,2.9c-0.5,0.9-1.6,1.4-3.1,0.6
	C47.3,40.5,47.1,39.3,47.5,38.4z M51.4,40.4c0.3-0.5,0-1.1-1.2-1.7s-1.8-0.4-2.1,0.1c-0.3,0.5,0,1.1,1.2,1.7S51.1,40.9,51.4,40.4z"
	/>
<path class="st0" d="M48.8,36l0.3-1l4.1-0.6l0,0l-3.7-1l0.2-0.8l4.7,1.3l-0.3,1L50,35.5l0,0l3.7,1l-0.2,0.8L48.8,36z"/>
<path class="st0" d="M49.9,31.6l0.1-1.1l3.9-1.4l0,0L50,28.9l0-0.8l4.9,0.2l-0.1,1.1L51,30.8l0,0l3.8,0.2l0,0.8L49.9,31.6z"/>
<path class="st0" d="M48.5,25.9l-0.1-0.8l1.1,0.6l0.1,0.5L48.5,25.9z M49.9,27l-0.4-2.5l0.7-0.1l0.2,1.7l1.3-0.2l-0.2-1.6l0.7-0.1
	l0.2,1.6l1.4-0.2l-0.2-1.7l0.7-0.1l0.4,2.6L49.9,27z"/>
<path class="st0" d="M49.4,23.7l-0.8-2.5l0.7-0.2l0.5,1.6l1.2-0.4l-0.5-1.5l0.7-0.2l0.5,1.5l1.4-0.4l-0.5-1.7l0.7-0.2l0.8,2.5
	L49.4,23.7z"/>
<path d="M15.5,4.5c0.4-0.2,0.8-0.1,1,0.3s0.1,0.8-0.3,1c-0.4,0.2-0.8,0.1-1-0.3S15.1,4.7,15.5,4.5z M16,5.5c0.2-0.1,0.3-0.4,0.2-0.5
	c-0.1-0.2-0.4-0.3-0.5-0.2s-0.3,0.4-0.2,0.5C15.6,5.5,15.8,5.6,16,5.5z M18.7,8.8l-1.5,0.8l0.3,1.2l-0.8,0.4l-0.9-5.1l0.9-0.5
	l3.7,3.5l-0.8,0.4L18.7,8.8z M18.2,8.3l-1.6-1.7l0,0l0.5,2.3L18.2,8.3z"/>
<path d="M24.1,4L24.1,4l-0.2,4.3l-0.6,0.2l-2.1-3.7l0,0l1,4l-0.8,0.2l-1.2-4.7l1.3-0.3l1.9,3.3l0,0l0.1-3.8L24.7,3l1.2,4.7l-0.8,0.2
	L24.1,4z"/>
<path d="M27.2,6.7c0.2,0.1,0.6,0.3,1,0.3c0.4,0,0.7-0.2,0.7-0.7c0-0.4-0.2-0.5-0.6-0.7l-0.5-0.2C27.3,5,27,4.7,27,4
	c0-0.9,0.7-1.3,1.5-1.4c0.5,0,0.9,0.1,1,0.2l0,0.8c-0.2-0.1-0.5-0.2-0.9-0.2c-0.4,0-0.7,0.2-0.7,0.6c0,0.4,0.3,0.5,0.5,0.7L29,4.9
	c0.6,0.3,0.9,0.6,0.9,1.3c0,1-0.7,1.5-1.6,1.5c-0.5,0-0.9-0.1-1.1-0.2L27.2,6.7z"/>
<path d="M31.8,2.9l2.5,0.4L34.3,4l-1.7-0.3L32.4,5L34,5.3L33.8,6l-1.6-0.3L32,7.2l1.7,0.3l-0.1,0.7L31,7.7L31.8,2.9z"/>
<path d="M36.3,3.8l0.8,0.3l-1.4,3.9l1.5,0.5l-0.2,0.7l-2.4-0.8L36.3,3.8z"/>
<path d="M40.3,5.4l2.2,1.2l-0.3,0.6l-1.5-0.8l-0.6,1.1l1.4,0.8L41.2,9l-1.4-0.8l-0.7,1.3l1.5,0.8L40.2,11l-2.3-1.3L40.3,5.4z"/>
<path d="M6.2,17.5C6.4,16.9,7,16.7,7.6,17c0.5,0.3,0.7,0.9,0.5,1.4c-0.3,0.5-0.9,0.7-1.4,0.5C6.1,18.6,5.9,18,6.2,17.5z"/>
<path d="M51.2,17.1c0.3,0.5,0.1,1.1-0.4,1.4s-1.1,0.1-1.4-0.4c-0.3-0.5-0.1-1.1,0.4-1.4C50.3,16.4,50.9,16.6,51.2,17.1z"/>
<path d="M28.8,57.4C13,57.4,0.1,44.6,0.1,28.8S13,0.1,28.8,0.1S57.4,13,57.4,28.8S44.6,57.4,28.8,57.4z M28.8,0.7
	C13.3,0.7,0.7,13.3,0.7,28.8s12.6,28.1,28.1,28.1s28.1-12.6,28.1-28.1S44.2,0.7,28.8,0.7z"/>
<path d="M28.8,48.2c-10.7,0-19.4-8.7-19.4-19.4S18.1,9.4,28.8,9.4s19.4,8.7,19.4,19.4S39.5,48.2,28.8,48.2z M28.8,9.9
	c-10.4,0-18.9,8.5-18.9,18.9s8.5,18.9,18.9,18.9s18.9-8.5,18.9-18.9S39.2,9.9,28.8,9.9z"/>
<path d="M16.8,37.3c0.4-0.2,0.8-0.5,1.2-0.7c0.8,1.1,1.8,2.1,2.9,2.9c-0.2,0.4-0.5,0.8-0.7,1.2c0.8,0.5,1.6,0.9,2.4,1.4
	c0.2-0.4,0.5-0.8,0.7-1.2c1.2,0.6,2.6,0.9,4,1.1c0,0.5,0,0.9,0,1.4c0.9,0,1.9,0,2.8,0c0-0.5,0-0.9,0-1.4c1.4-0.1,2.7-0.5,4-1.1
	c0.2,0.4,0.5,0.8,0.7,1.2c0.8-0.5,1.6-0.9,2.4-1.4c-0.2-0.4-0.5-0.8-0.7-1.2c1.1-0.8,2.1-1.8,2.9-2.9c0.4,0.2,0.8,0.5,1.2,0.7
	c0.5-0.8,0.9-1.6,1.4-2.4c-0.4-0.2-0.8-0.5-1.2-0.7c0.6-1.2,0.9-2.6,1.1-4c0.5,0,0.9,0,1.4,0c0-0.9,0-1.9,0-2.8c-0.5,0-0.9,0-1.4,0
	c-0.1-1.4-0.5-2.7-1.1-4c0.4-0.2,0.8-0.5,1.2-0.7c-0.5-0.8-0.9-1.6-1.4-2.4c-0.4,0.2-0.8,0.5-1.2,0.7c-0.8-1.1-1.8-2.1-2.9-2.9
	c0.2-0.4,0.5-0.8,0.7-1.2c-0.8-0.5-1.6-0.9-2.4-1.4c-0.2,0.4-0.5,0.8-0.7,1.2c-1.2-0.6-2.6-0.9-4-1.1c0-0.5,0-0.9,0-1.4
	c-0.9,0-1.9,0-2.8,0c0,0.5,0,0.9,0,1.4c-1.4,0.1-2.7,0.5-4,1.1c-0.2-0.4-0.5-0.8-0.7-1.2c-0.8,0.5-1.6,0.9-2.4,1.4
	c0.2,0.4,0.5,0.8,0.7,1.2c-1.1,0.8-2.1,1.8-2.9,2.9c-0.4-0.2-0.8-0.5-1.2-0.7c-0.5,0.8-0.9,1.6-1.4,2.4c0.4,0.2,0.8,0.5,1.2,0.7
	c-0.6,1.2-0.9,2.6-1.1,4c-0.5,0-0.9,0-1.4,0c0,0.9,0,1.9,0,2.8c0.5,0,0.9,0,1.4,0c0.1,1.4,0.5,2.7,1.1,4c-0.4,0.2-0.8,0.5-1.2,0.7
	C15.9,35.7,16.4,36.5,16.8,37.3z M27.9,39.2c-0.2,0-0.4,0-0.5-0.1c-0.9-0.1-1.8-0.3-2.6-0.7c-0.9-0.4-1.7-0.8-2.4-1.4
	c-0.7-0.5-1.3-1.2-1.9-1.9c-0.1-0.1-0.2-0.3-0.3-0.4c2-1.2,4-2.3,6-3.5c0,0,0,0,0,0.1c0.5,0.3,1.1,0.6,1.6,0.9c0,0,0,0,0.1,0
	C27.9,34.6,27.9,36.9,27.9,39.2z M37.1,35.2c-0.5,0.7-1.2,1.3-1.9,1.9c-0.7,0.6-1.6,1.1-2.4,1.4c-0.8,0.3-1.7,0.6-2.6,0.7
	c-0.2,0-0.4,0-0.5,0.1c0-2.3,0-4.7,0-7c0,0,0,0,0.1,0c0.5-0.3,1.1-0.6,1.6-0.9c0,0,0,0,0-0.1c2,1.2,4,2.3,6,3.5
	C37.3,34.9,37.2,35,37.1,35.2z M38.2,24.3c0.1,0.2,0.2,0.3,0.2,0.5c0.3,0.8,0.6,1.7,0.7,2.6c0.1,0.5,0.1,0.9,0.1,1.4
	c0,0.5,0,0.9-0.1,1.4c-0.1,0.9-0.3,1.8-0.7,2.6c-0.1,0.2-0.1,0.3-0.2,0.5c-2-1.2-4-2.3-6-3.5c0,0,0,0,0-0.1c0-0.6,0-1.2,0-1.9
	c0,0,0,0,0-0.1C34.2,26.6,36.2,25.5,38.2,24.3z M29.6,18.3c0.2,0,0.4,0,0.5,0.1c0.9,0.1,1.8,0.3,2.6,0.7c0.9,0.4,1.7,0.8,2.4,1.4
	c0.7,0.5,1.3,1.2,1.9,1.9c0.1,0.1,0.2,0.3,0.3,0.4c-2,1.2-4,2.3-6,3.5c0,0,0,0,0-0.1c-0.5-0.3-1.1-0.6-1.6-0.9c0,0,0,0-0.1,0
	C29.6,23,29.6,20.7,29.6,18.3z M29.1,27.4l0.7,0.4l0.4,0.7v0.8l-0.4,0.7l-0.7,0.4h-0.8l-0.7-0.4l-0.4-0.7v-0.8l0.4-0.7l0.7-0.4H29.1
	z M20.5,22.4c0.5-0.7,1.2-1.3,1.9-1.9c0.7-0.6,1.6-1.1,2.4-1.4c0.8-0.3,1.7-0.6,2.6-0.7c0.2,0,0.4,0,0.5-0.1c0,2.3,0,4.7,0,7
	c0,0,0,0-0.1,0c-0.5,0.3-1.1,0.6-1.6,0.9c0,0,0,0,0,0.1c-2-1.2-4-2.3-6-3.5C20.3,22.7,20.4,22.5,20.5,22.4z M18.4,27.4
	c0.1-0.9,0.3-1.8,0.7-2.6c0.1-0.2,0.1-0.3,0.2-0.5c2,1.2,4,2.3,6,3.5c0,0,0,0,0,0.1c0,0.6,0,1.2,0,1.9c0,0,0,0,0,0.1
	c-2,1.2-4,2.3-6,3.5c-0.1-0.2-0.2-0.3-0.2-0.5c-0.3-0.8-0.6-1.7-0.7-2.6c-0.1-0.5-0.1-0.9-0.1-1.4C18.3,28.3,18.3,27.8,18.4,27.4z"
	/>
</svg>
