<?xml version="1.0" encoding="UTF-8"?><svg id="a" xmlns="http://www.w3.org/2000/svg" width="20.2847mm" height="20.2847mm" viewBox="0 0 57.5 57.5"><defs><style>.b{opacity:.88;}</style></defs><path class="b" d="M7.0659,24.6998l.0039-.0137-3.6338-2.2158,.1611-.6162,4.2383-.1016,.0039-.0137-3.9434-1.0303,.2061-.7861,4.7285,1.2363-.3379,1.2939-3.7852,.0527-.0029,.0137,3.2695,1.918-.3281,1.2539-4.7285-1.2354,.2051-.7861,3.9434,1.0303Z"/><path class="b" d="M7.644,26.7233l-.0664,.8926-4.8672-.3613,.0664-.8926,4.8672,.3613Z"/><path class="b" d="M7.4907,28.5563l.0918,1.2715c.1094,1.5234-.6562,2.3936-2.2705,2.5098-1.6426,.1182-2.5098-.8027-2.6074-2.1582l-.0918-1.2715,4.8779-.3516Zm-4.1289,1.1963l.0225,.3008c.0723,1.0059,.79,1.4111,1.8594,1.334,1.0684-.0771,1.7207-.5811,1.6484-1.5869l-.0215-.3008-3.5088,.2529Z"/><path class="b" d="M7.9038,32.9586l.2939,1.0225-3.2383,2.623,.0039,.0137,3.6875-1.0615,.2256,.7803-4.6973,1.3525-.2969-1.0293,3.2139-2.6084-.0039-.0137-3.6611,1.0537-.2246-.7803,4.6973-1.3525Z"/><path class="b" d="M9.3149,37.2106l.375,.8145-4.4414,2.0449-.375-.8145,4.4414-2.0449Z"/><path class="b" d="M9.3462,41.7291l.8691,1.3203-2.1338,1.4043c-.249-.1377-.5869-.4346-.9365-.9668-.8613-1.3086-.4307-2.5889,.7793-3.3848,1.209-.7959,2.5557-.6846,3.417,.624,.3076,.4678,.4443,.9053,.4775,1.1094l-.6982,.4014c-.0117-.3359-.1221-.7324-.3682-1.1064-.5225-.7949-1.458-.791-2.3057-.2334-.917,.6035-1.2285,1.4033-.7246,2.1689,.1152,.1748,.2539,.3096,.3604,.3818l1.0986-.7227-.4082-.6191,.5732-.377Z"/><path class="b" d="M12.6557,42.6373l.6348,.6309-1.3994,1.4082,1.0264,1.0205,1.4004-1.4082,.6348,.6309-3.4404,3.4609-.6348-.6309,1.5176-1.5273-1.0264-1.0205-1.5176,1.5273-.6348-.6309,3.4395-3.4609Z"/><path class="b" d="M15.9145,46.5084l-.8975-.6211,.4062-.5869,2.5254,1.748-.4062,.5869-.8916-.6172-2.373,3.4287-.7363-.5098,2.373-3.4287Z"/><path class="b" d="M18.2231,51.6119c.1211,.1689,.4092,.4873,.8506,.6631,.3643,.1455,.7695,.0742,.9512-.3809,.1299-.3252-.002-.5439-.3164-.9258l-.3291-.4023c-.3506-.4258-.5-.9004-.2666-1.4854,.3242-.8125,1.1621-.9678,1.9229-.6641,.4814,.1914,.7695,.4502,.8848,.541l-.3174,.6797c-.1699-.1582-.3896-.3818-.7734-.5342-.416-.166-.7188-.0312-.8428,.2812-.1348,.3379,.04,.5586,.2373,.8027l.3779,.4678c.4141,.5117,.5537,.8984,.2988,1.5361-.3682,.9229-1.2012,1.1025-2.0654,.7578-.4551-.1816-.7803-.3867-.9531-.6143l.3408-.7227Z"/><path class="b" d="M23.727,49.36l-.6338,3.0967c-.1631,.7949,.0234,1.1045,.5371,1.209,.5,.1025,.7998-.1064,.9629-.9014l.6348-3.0967,.877,.1797-.6348,3.0967c-.2578,1.2607-1.0859,1.6045-1.9834,1.4209-.9043-.1855-1.5293-.8271-1.2705-2.0879l.6338-3.0967,.877,.1797Z"/><path class="b" d="M27.1254,49.9645l1.0645-.0166,1.6836,3.8135h.0137l-.0576-3.8379,.8115-.0127,.0752,4.8887-1.0713,.0166-1.6768-3.7852h-.0137l.0576,3.8096-.8115,.0127-.0752-4.8887Z"/><path class="b" d="M32.9448,49.5807l1.4707-.4023c.8359-.2295,1.5059-.0068,1.7422,.8564,.168,.6143-.1035,1.1309-.6074,1.3555l.0049,.0205c.1826-.0215,.4004,.0059,.6689,.4043l1.1055,1.626-.918,.251-.8838-1.4033c-.2168-.3398-.4727-.4004-.7891-.3135l-.1963,.0537,.5547,2.0225-.8633,.2363-1.2891-4.707Zm1.7754,1.7178c.458-.125,.7041-.4463,.5732-.9258-.1475-.5391-.4678-.5967-.9541-.4639l-.3506,.0967,.3809,1.3887,.3506-.0957Z"/><path class="b" d="M40.6958,50.6129l-1.502,.7588,.2178,1.209-.8008,.4043-.7402-5.1064,.876-.4424,3.6123,3.6562-.8262,.417-.8369-.8965Zm-.4785-.5273l-1.5801-1.7617-.0127,.0068,.4287,2.3418,1.1641-.5869Z"/><path class="b" d="M40.6079,46.3991l.8311-.665,3.667,1.9775,.0107-.0088-2.4004-2.9941,.6338-.5078,3.0566,3.8125-.835,.6709-3.6445-1.9609-.0107,.0088,2.3818,2.9717-.6338,.5088-3.0566-3.8135Z"/><path class="b" d="M44.0678,43.4967l.8057-.9863c.9648-1.1807,2.1172-1.2861,3.3682-.2646,1.2734,1.04,1.2715,2.3027,.4131,3.3535l-.8057,.9863-3.7812-3.0889Zm3.8174,1.9619l.1895-.2334c.6377-.7803,.3945-1.5654-.4346-2.2422-.8291-.6777-1.6475-.7588-2.2842,.0215l-.1904,.2324,2.7197,2.2217Z"/><path class="b" d="M47.5239,38.4235c.4639-.9023,1.5625-1.3848,3.125-.5801,1.5635,.8047,1.8096,1.9785,1.3447,2.8809-.4648,.9033-1.5635,1.3848-3.126,.5811-1.5625-.8047-1.8086-1.9785-1.3438-2.8818Zm3.8594,1.9873c.2598-.5049,.0381-1.1299-1.1572-1.7451s-1.833-.4316-2.0928,.0723c-.2588,.5039-.0381,1.1299,1.1572,1.7451s1.833,.4316,2.0928-.0723Z"/><path class="b" d="M48.7583,35.9616l.2764-1.0273,4.125-.5732,.0039-.0137-3.7041-.9951,.2109-.7842,4.7178,1.2676-.2773,1.0342-4.0967,.5732-.0039,.0137,3.6768,.9883-.21,.7842-4.7188-1.2676Z"/><path class="b" d="M49.8286,31.5592l.0537-1.0625,3.9111-1.4287,.001-.0146-3.8301-.1924,.041-.8105,4.8779,.2451-.0537,1.0693-3.8828,1.4238-.001,.0137,3.8018,.1904-.041,.8115-4.8779-.2451Z"/><path class="b" d="M48.4956,25.8649l-.1133-.8037,1.0967,.5664,.0762,.54-1.0596-.3027Zm1.4131,1.1504l-.3584-2.542,.7061-.0996,.2334,1.6553,1.2891-.1816-.2207-1.5654,.7061-.0996,.2207,1.5654,1.4268-.2012-.2432-1.7246,.707-.0996,.3682,2.6113-4.835,.6816Z"/><path class="b" d="M49.3559,23.653l-.7617-2.4531,.6816-.2119,.4961,1.5977,1.2432-.3857-.4688-1.5107,.6816-.2119,.4688,1.5107,1.377-.4277-.5166-1.6641,.6816-.2119,.7822,2.5205-4.665,1.4482Z"/><path d="M13.9428,8.3823l-.0107,.0088,1.6797,3.9131-.4883,.4102-3.5166-2.374-.0107,.0088,2.6191,3.126-.623,.5225-3.1416-3.749,1.0264-.8604,3.1182,2.1504,.0107-.0088-1.5557-3.46,.9941-.833,3.1416,3.749-.623,.5225-2.6201-3.126Z"/><path d="M17.9272,5.0473c.9199-.4297,2.084-.1377,2.8271,1.4561,.7432,1.5928,.2188,2.6719-.7021,3.1016-.9199,.4287-2.084,.1377-2.8271-1.4561-.7432-1.5928-.2188-2.6729,.7021-3.1016Zm1.835,3.9355c.5146-.2402,.7227-.8701,.1543-2.0889s-1.1855-1.4648-1.6992-1.2246c-.5146,.2393-.7227,.8701-.1543,2.0889s1.1855,1.4639,1.6992,1.2246Z"/><path d="M23.6743,3.2124l.8809-.166,.9062,4.8027-.8809,.166-.9062-4.8027Z"/><path d="M28.6489,2.644l1.5234,.0664c.8662,.0381,1.4365,.4551,1.3975,1.3496-.0283,.6357-.4453,1.0449-.9941,1.1055v.0205c.1797,.0361,.3789,.1289,.5127,.5898l.5547,1.8867-.9502-.042-.4131-1.6074c-.1016-.3896-.3271-.5254-.6553-.54l-.2031-.0088-.0908,2.0967-.8945-.0391,.2129-4.8779Zm1.165,2.1797c.4756,.0205,.8076-.21,.8291-.7061,.0244-.5596-.2637-.7119-.7666-.7334l-.3633-.0156-.0625,1.4395,.3633,.0156Z"/><path d="M35.561,7.3686l-1.6221-.4355-.6426,1.0449-.8652-.2324,2.8486-4.293,.9463,.2539,.2539,5.127-.8926-.2402-.0264-1.2246Zm-.0039-.7109l-.0029-2.3633-.0137-.0039-1.2412,2.0293,1.2578,.3379Z"/><path d="M39.6381,4.9018l.9395,.501-.373,4.1514,.0127,.0068,1.8057-3.3867,.7168,.3828-2.2998,4.3135-.9463-.5049,.3662-4.123-.0127-.0068-1.793,3.3623-.7168-.3828,2.3008-4.3135Z"/><path d="M44.2299,12.4184l-1.2666-1.1025-1.0361,.6572-.6758-.5879,4.4414-2.6104,.7393,.6436-2.0176,4.7178-.6973-.6055,.5127-1.1123Zm.3076-.6416l1.0332-2.125-.0107-.0098-2.0039,1.2803,.9814,.8545Z"/><path d="M6.1323,17.441c.2598-.5215,.8887-.7305,1.4092-.4697,.5215,.2607,.7305,.8887,.4697,1.4092-.2598,.5215-.8887,.7305-1.4092,.4707-.5215-.2607-.7305-.8887-.4697-1.4102Z"/><path d="M51.1723,17.068c.2695,.5166,.0713,1.1484-.4453,1.418s-1.1484,.0703-1.418-.4463c-.2695-.5156-.0713-1.1484,.4453-1.417,.5166-.2695,1.1494-.0713,1.418,.4453Z"/><path d="M28.7485,57.3784C12.9624,57.3784,.1196,44.5356,.1196,28.7495S12.9624,.1196,28.7485,.1196s28.6299,12.8428,28.6299,28.6299-12.8428,28.6289-28.6299,28.6289ZM28.7485,.686C13.2749,.686,.686,13.2758,.686,28.7495s12.5889,28.0625,28.0625,28.0625,28.0635-12.5889,28.0635-28.0625S44.2221,.686,28.7485,.686Z"/><path d="M28.7485,48.1665c-10.707,0-19.417-8.71-19.417-19.417S18.0415,9.3315,28.7485,9.3315s19.417,8.7109,19.417,19.418-8.71,19.417-19.417,19.417Zm0-38.2686c-10.3945,0-18.8506,8.457-18.8506,18.8516s8.4561,18.8506,18.8506,18.8506,18.8506-8.4561,18.8506-18.8506S39.143,9.8979,28.7485,9.8979Z"/><path d="M30.179,34.2664c-.0137,.4632,.0238,.9274,.0663,1.3884,.0772,.8386,.2385,1.6621,.5294,2.4558,.1276,.3483,.3187,.6632,.553,.9476,.2014,.2445,.4575,.4217,.765,.5166,.1183,.0365,.2345,.08,.3531,.1155,.3566,.1071,.7262,.1138,1.0923,.1103,.227-.0021,.4533-.063,.6802-.0952,.4931-.07,.7549-.2206,1.2308-.3574,.2147-.0617,.422-.1552,.6251-.2505,.4114-.193,.8179-.3964,1.2257-.5971,.0658-.0324,.1289-.0707,.191-.1098,.3455-.2176,.6898-.4374,1.0163-.6831,.1686-.1269,.3345-.2579,.4958-.394,.3332-.2812,.6688-.5601,.9911-.8535,.1894-.1724,.3582-.368,.5306-.5583,.133-.1467,.1465-.2925,.0254-.4483-.1263-.1625-.2724-.3096-.4108-.4626-.0431-.0476-.0927-.0896-.1334-.139-.0976-.1186-.0952-.2386,.0188-.3419,.081-.0733,.1725-.1385,.2679-.1918,.5128-.2863,1.0284-.5679,1.5431-.8509,.2373-.1305,.4724-.2653,.7133-.3887,.1257-.0644,.2583-.1219,.3942-.1587,.1957-.053,.3094,.0416,.32,.2454,.0026,.0503-.0008,.101-.0034,.1514-.0115,.2201-.0267,.4401-.0352,.6603-.0182,.473-.0772,.9412-.1526,1.4081-.0666,.4121-.1264,.8253-.1895,1.238-.0062,.0408-.0122,.082-.0232,.1216-.044,.1576-.1382,.1984-.2793,.1187-.0839-.0474-.1639-.1015-.2465-.1514-.1139-.0688-.2272-.139-.3433-.204-.1449-.0812-.2423-.0659-.3595,.0498-.0196,.0193-.0372,.0406-.0551,.0615-.2504,.293-.5072,.5809-.7496,.8805-.4039,.4992-.8882,.9128-1.3775,1.3219-.3987,.3333-.8259,.6278-1.2625,.9081-.4792,.3076-.9699,.5957-1.4884,.8343-.3376,.1554-.6685,.3254-1.0077,.4771-.2719,.1216-.5512,.2268-.8281,.3369-.3029,.1204-.607,.2378-.9103,.357-.44,.173-.8822,.3409-1.319,.5215-.3138,.1297-.6235,.2702-.9294,.4175-.5087,.2449-1.0173,.4908-1.5175,.7524-.3005,.1572-.5875,.341-.8756,.5206-.1632,.1017-.3133,.2243-.4752,.3284-.1465,.0942-.3008,.1763-.452,.263-.1303,.0747-.2557,.0638-.3717-.0297-.1965-.1583-.3919-.3179-.5867-.4782-.4501-.3704-.9031-.736-1.4097-1.0301-.3493-.2028-.6893-.4215-1.0361-.6286-.3507-.2095-.703-.4164-1.0577-.6192-.8131-.4649-1.6278-.927-2.4422-1.3896-.7025-.3991-1.405-.7984-2.1087-1.1954-.2039-.115-.4129-.2208-.6181-.3337-.5824-.3204-1.1147-.7082-1.5865-1.178-.2374-.2363-.4822-.4653-.716-.7051-.3176-.3258-.6029-.6792-.8705-1.0472-.1241-.1706-.2505-.3396-.3792-.5068-.0417-.0542-.092-.1022-.1416-.1496-.1207-.1152-.2592-.1287-.4072-.0612-.1211,.0553-.2402,.1149-.3606,.1717-.0415,.0196-.0833,.0392-.1266,.0542-.1238,.0428-.1971,.0071-.2214-.1241-.0326-.1759-.0538-.354-.076-.5316-.0457-.3642-.095-.7281-.1312-1.0933-.0315-.3188-.0474-.6392-.0693-.959-.0107-.1556-.0231-.3112-.0281-.467-.0042-.1326-.0101-.2668,.005-.3979,.0179-.1555,.1137-.2203,.2634-.1711,.1333,.0438,.2612,.1106,.3828,.1821,.245,.144,.484,.2981,.7257,.4478,.039,.0242,.0804,.0446,.1186,.07,.4586,.3048,.9169,.61,1.375,.9156,.0305,.0203,.0601,.0426,.0875,.0669,.1534,.1363,.1642,.2483,.0289,.4014-.088,.0995-.1875,.1888-.2796,.2849-.0474,.0494-.0967,.0992-.1334,.1564-.0996,.155-.0891,.2997,.0239,.4462l.0174,.0214c.3091,.3455,.6084,.7004,.9299,1.0338,.3631,.3765,.7486,.731,1.1647,1.0503,.2802,.215,.5474,.4488,.839,.6468,.3906,.2653,.7947,.5119,1.2012,.7526,.6678,.3954,1.1332,.6347,1.8671,.8717,.3832,.1237,.7775,.2208,1.1862,.2294,.1514,.0032,.5649,.0352,.7161,.0446,.3867,.0239,.4993-.0636,.8596-.1952,.2137-.078,.4317-.1527,.6166-.2991,.2106-.1668,.395-.356,.5505-.5739,.1962-.2751,.3317-.5798,.4498-.8954,.1211-.3238,.1955-.6596,.2851-.9916,.0466-.1727,.5306-3.5877,.6587-5.5097s.4975-7.9439,.5027-8.1595c.0046-.1923-.0126-.4803-.1959-.5284-.0577-.0151-.1156-.0329-.1745-.0394-.3372-.0375-7.9511-.8047-8.278-.8467-.3534-.0454-.4429,.0443-.4604,.3008-.0557,.3476-.163,1.47-.2003,2.294-.0257,.2425,.0207,.5782,.1728,.7928,.0398,.0562,.0756,.1151,.1139,.1723,.2192,.3284,.1834,.6619,.0073,.9901-.0601,.1119-.1469,.2106-.2285,.3096-.1195,.145-.3538,.2579-.546,.33-.2883,.036-.6162-.0492-.8254-.1609-.2308-.105-.3752-.2824-.4511-.5255-.0804-.2575-.0814-.5132-.0249-.7738,.0469-.2163,.1468-.4006,.3389-.5139,.2011-.1186,.2716-.291,.2837-.5135,.0145-.2653,.2205-2.9044,.2806-3.2836,.0622-.4189,.2003-.9192,1.1828-.819,.4118,.0317,8.3592,.8223,8.6664,.8374,.1859,.0149,.4611-.0206,.4793-.2681,.0239-.3249,.0351-.6506,.0551-.9758,.0088-.1432-.0811-.1511-.2153-.2102-.2419-.1137-.0745-.3283-.2217-.5069-.2307-.1791-.38-.4236-.5158-.6731-.2029-.3729-.2808-.7845-.3276-1.2018-.0086-.0768-.007-.1571,.0048-.2335,.0688-.4466,.1779-.8825,.4-1.2802,.108-.1934,.2572-.3588,.4314-.496,.18-.1418,.362-.2831,.5553-.4053,.3218-.2035,.6799-.2938,1.0609-.2914,.0459,.0003,.0922,.003,.1376-.0023,.3284-.0381,.6404,.0286,.9418,.1513,.1657,.0674,.3289,.1418,.4889,.222,.431,.216,.7271,.5699,.9582,.9791,.34,.6021,.4383,1.2469,.3142,1.9287-.0738,.4057-.2738,.7465-.5177,1.0666-.1511,.1983-.2512,.359-.4393,.5208-.1671,.1438-.0697,.4689-.296,.5032-.1241,.0456-.2113,.1047-.257,.2057-.0184,.2886-.0333,.4969-.039,.7859-.005,.2491,.0138,.4877,.2617,.5232,.1634,.0234,.0541,.0069,.2181,.0269,.1183,.0144,5.7362,.5822,6.2072,.6217,.0958,.008,1.4569,.1361,1.6442,.1408,.1806,.0046,.3284-.0137,.4562-.1501,.1426-.1521,.2976-.2895,.511-.3329,.0803-.0163,.1627-.031,.2442-.0308,.1468,.0004,.2935,.0142,.4403,.0195,.1287,.0046,.2438,.048,.3449,.1235,.342,.2555,.5938,.6006,.5362,1.0859-.0655,.3156-.2657,.7086-.5757,.93-.1588,.0837-.5415,.1763-.7262,.1921-.3028,.0258-.5566-.0713-.7508-.2964-.1751-.203-.3884-.2711-.6524-.2837-1.0549-.0503-6.6757-.6967-7.7303-.7523-.0778-.0041-.1567-.0089-.2337-.0004-.1666,.0183-.2533,.1055-.2785,.2717-.0103,.068-.016,.1368-.0199,.2055-.0178,.3163-.2834,5.6117-.4567,11.4659Zm-.5893-15.8682c.087,.0046,.1741,.0121,.2611,.0128,.0454,.0004,.0911-.0105,.1365-.0171,.7075-.1035,1.1913-.7804,1.2577-1.3908,.0084-.0768-.0024-.1558-.0052-.2337-.0144-.3939-.1638-.7322-.4342-1.0146-.0816-.0852-.187-.1473-.2805-.2213-.2774-.2199-.6071-.3186-.9468-.3291-.2827-.0088-.5664,.0667-.7956,.2603-.1051,.0888-.2153,.1757-.3021,.2808-.1044,.1264-.2158,.2602-.2726,.4103-.1737,.4592-.1653,.9182,.0876,1.3533,.0687,.1182,.1484,.232,.2361,.337,.2753,.3294,.6081,.5567,1.058,.5522Z"/></svg>