<?xml version="1.0" encoding="UTF-8"?><svg id="a" xmlns="http://www.w3.org/2000/svg" width="20.2847mm" height="20.2847mm" viewBox="0 0 57.5 57.5"><defs><style>.cls-1{fill:none;}.cls-2{fill:#151514;}</style></defs><path d="M31.8414,31.3393c.0554,.0125,.1094,.0319,.1674,.0341,.1075,.004,.2189-.0074,.3262-.002,.0536,.0027,.1169,.0112,.1489,.0474,.0664,.0751,.1473,.1083,.2471,.1136,.0238,.0013,.0459,.0107,.0675,.0191,.1608,.062,.3159,.1376,.4833,.1829,.246,.0662,.427,.2291,.6127,.3834,.105,.0867,.2227,.1608,.2986,.2836,.0103,.0166,.0271,.0307,.0452,.0369,.1665,.0562,.2512,.2142,.3657,.3319,.1228,.1257,.2183,.2818,.325,.4247,.0156,.0209,.033,.0433,.0386,.0704,.0237,.1168,.0864,.2023,.1575,.2774,.1123,.118,.4116,.9105,.4749,1.1188,.0168,.0554,.0425,.1073,.0486,.1669,.0073,.071,.0317,.1257,.0651,.1797,.0837,.1354,.16,.2769,.2394,.4153l.0037,.0094c.0195,.1077,.0862,.1769,.1436,.2542,.0684,.0918,.1318,.1879,.197,.2823,.0072,.0104,.0098,.0249,.016,.0363,.0204,.0368,.0377,.0766,.0631,.1087,.0808,.1022,.1641,.2018,.2482,.3004,.0223,.0262,.0525,.0444,.0759,.0695,.0338,.036,.0682,.0718,.0961,.1131,.0609,.0905,.1226,.1783,.2506,.1815,.0547,.0013,.0758,.0403,.0936,.0839,.0198,.0483,.0377,.0984,.0629,.1425,.1129,.1976,.326,.2829,.4783,.4357,.038,.038,.1027,.047,.1531,.0723,.0363,.0181,.0721,.0378,.1029,.0629,.114,.0922,.2524,.1451,.4016,.1808,.1738,.0413,.3494,.0787,.5237,.1185,.168,.038,.3352,.0773,.5028,.1155,.1476,.0333,.3131,.0352,.422,.1364,.0125,.0117,.0337,.0172,.0536,.0176,.098,.0021,.1648,.0468,.2177,.1118,.0358,.0441,.0862,.0694,.153,.0608,.1167-.015,.1901,.0321,.256,.0975,.0287,.0285,.0669,.0611,.1102,.059,.1373-.0068,.267,.002,.3939,.0217,.041,.0063,.0913-.007,.1376-.0123,.0498-.0057,.1024-.019,.1493-.017,.046,.002,.09,.0139,.1287,.0305,.0563,.0241,.1068,.0566,.1602,.0848,.0696,.0366,.1394,.0728,.2097,.1082,.0217,.0109,.0432,.0233,.0681,.0281,.1622,.0314,.3254,.0578,.5172,.0109,.1014-.0248,.2013-.033,.3021-.05,.0359-.006,.0725-.0127,.1089-.0248,.1079-.0359,.166-.1338,.124-.211-.0125-.0227-.0326-.0445-.0579-.0524-.0958-.0302-.1545-.0998-.2218-.1614-.0345-.0317-.0729-.0601-.1149-.0835-.0789-.0441-.1621-.0825-.2417-.126-.0181-.0098-.0297-.0284-.0421-.0449-.0927-.1224-.1704-.2588-.3087-.3406-.0223-.0132-.0354-.0397-.048-.0635-.0431-.082-.1034-.1454-.1918-.1835-.0391-.017-.074-.0429-.1028-.0724-.1399-.1442-.2749-.2939-.4161-.4382-.0479-.0491-3.3077-2.9883-4.4575-5.5881-.0323-.1693-.0004-.2164,.1696-.2237,.1243-.0053,.2426-.0391,.3608-.1093,.0803-.0475,.1615-.0601,.2451-.0748,.1709-.0302,.3423-.0725,.5137-.1097l.0106-.0039c.082-.0237,.1639-.0496,.246-.0699,.0536-.0132,.1018-.0336,.1307-.0898,.0311-.0604,.0026-.0989-.0262-.1358-.006-.0077-.011-.0172-.0189-.0222-.1102-.0701-.1979-.1661-.2841-.2638-.0469-.0534-.0847-.1191-.1415-.1591-.098-.0693-.1603-.1719-.2357-.2626-.0337-.0405-.0623-.0906-.1064-.1152-.1096-.0611-.1753-.166-.2524-.2609-.0457-.0563-.0973-.1068-.1481-.158-.0392-.0397-.0865-.071-.1206-.1153-.1199-.1565-.2335-.3193-.3536-.4767-.0381-.0501-.0858-.0924-.135-.1306-.0513-.0399-.0908-.0875-.1079-.1561-.0283-.1129-.094-.1904-.1799-.2521-.0425-.0307-.0818-.0685-.1138-.1113-.1074-.1443-.2104-.2934-.3163-.4401-.0219-.0303-.0443-.0636-.0751-.0811-.078-.0443-.129-.1163-.1802-.1896-.0688-.0988-.1365-.199-.2078-.2958-.0303-.0412-.0684-.0751-.1034-.1116-.0514-.0536-.1051-.1047-.1542-.1608-.0449-.0512-.0763-.1212-.1296-.1586-.0878-.0618-.1558-.1428-.208-.2386-.1454-.2673-.3845-.4386-.5464-.6907-.011-.0172-.031-.0262-.0459-.0403-.1318-.1239-.2744-.2351-.375-.3969-.0413-.0666-.0835-.1327-.1299-.1946-.0333-.0447-.0736-.0824-.1116-.1225-.1064-.1132-.2148-.2248-.3196-.3408-.0511-.0569-.0945-.1229-.1439-.1821-.0514-.0617-.1102-.1157-.158-.181-.0629-.0863-.1166-.182-.1772-.2709-.026-.0381-.0597-.0687-.09-.1027-.042-.047-.0874-.0903-.125-.1418-.0695-.0954-.1372-.1899-.224-.2685-.11-.1001-.2001-.2277-.3026-.3393-.0833-.091-.1721-.1754-.2585-.2629-.0417-.0424-.0841-.084-.1255-.127-.0244-.0255-.0465-.0538-.071-.0792-.0972-.1006-.2239-.1677-.2659-.3316-.0046-.0176-.0198-.0311-.0325-.0431-.1282-.1208-.2573-.2408-.3853-.3628-.0586-.0561-.1154-.115-.1729-.1727-.0953-.0958-.1868-.1976-.2869-.2863-.1139-.1013-.2371-.1887-.3534-.2868-.0754-.0637-.152-.128-.2174-.2053-.0715-.085-.1494-.1549-.2439-.2017-.0369-.0184-.0808-.0342-.1036-.0692-.0884-.1358-.2272-.1769-.3488-.2492-.1028-.0614-.2014-.1251-.2756-.2324-.0228-.0329-.0554-.0569-.0867-.0787-.0751-.0522-.1521-.1008-.228-.1512-.0264-.0175-.0518-.0529-.0786-.0501-.1204,.0121-.1997-.0602-.2731-.1501-.007-.0084-.0167-.0134-.0258-.0189-.1125-.0688-.2334-.1177-.3372-.209-.077-.0678-.1768-.098-.2629-.1523-.0344-.0218-.0586-.0645-.0891-.0953-.0302-.0308-.0585-.0682-.0942-.0864-.1733-.088-.3499-.1687-.5233-.2567-.0839-.0427-.1628-.098-.2462-.1423-.1047-.0557-.2159-.0967-.3167-.1606-.2529-.1614-.5015-.3332-.7518-.5016-.0383-.0259-.0806-.0442-.1166-.0739-.0806-.0665-.166-.1275-.2352-.2101-.1036-.1238-.2137-.2413-.2906-.3997-.0151-.0311-.0452-.0497-.0698-.0712-.1494-.1304-.2687-.3031-.3984-.462-.0894-.1098-.1788-.2171-.2488-.3505-.0144-.0276-.04-.0444-.0614-.0654-.4768-.466-.954-1.7253-3.38-1.4511-.8752,.1555-1.1379,.4304-1.2898,.5316-.0645,.043-.1216,.1169-.1775,.1844-.0728,.0882-.1409,.184-.2112,.2766-.0297,.0392-.063,.0746-.0886,.1181-.0735,.1246-.1434,.2529-.2156,.3792-.0984,.1722-.2212,.3003-.3654,.3743-.2896,.1491-.3112,.0965-.6085,.1473-.1893,.0325-.6045,.1222-1.7379,.8643-.1378,.0872-.3289,.2556-.4686,.428-.02,.0247-.0413,.0496-.0568,.0792-.0426,.081-.0334,.1487,.0248,.1788,.0247,.0128,.0529,.0168,.0802,.021,.1029,.0155,2.2501,.3991,2.3546,.4999,.0229,.0222,.0582,.0219,.0867,.0352,.0444,.0206,.0872,.0458,.1318,.0656,.0825,.0366,.1631,.085,.25,.1016,.0796,.0151,.1296,.056,.1592,.1543,.0371,.1233,.1056,.2105,.1722,.304,.0922,.1288,.1581,.2928,.233,.4436,.0103,.0205,.0085,.0537,.0115,.0814,.0298,.2905,.0571,.5818,.0902,.8701,.0322,.2788,.0708,.5544,.1057,.8311,.004,.0314,.0048,.0654,.0021,.0985-.0186,.2374,.0059,.4601,.0333,.6826,.0206,.1672,.0386,.3362,.0466,.5079,.0123,.2606,.025,.5194,.076,.7635,.0308,.1467,.0519,.2992,.0725,.4512,.0164,.1201,.022,.2454,.0388,.365,.0164,.1156,.0408,.2272,.0621,.3401,.0248,.1296,.0405,.2662,.1207,.3519,.0095,.0103,.0156,.0277,.0199,.0441,.0464,.1734,.0911,.3478,.1388,.5198,.0181,.0651,.0361,.1324,.0652,.187,.2524,.4724,.5078,.9388,.7632,1.4022,.0188,.0338,.0364,.0714,.0618,.0953,.1223,.1149,.9121,1.1578,.9954,1.3222,.0184,.0362,.053,.0589,.0846,.0791,.0944,.0602,.8541,.6866,.9061,.5403-.5562-.52-.6313-.7136-.8685-1.0232-.2775-.426-.4301-.9989-.3998-1.1758,.0081-.0463,.0667-.1485,.0654-.193-.0051-.1978-.0051-.3981-.0225-.5914-.0161-.1805-.0342-.3663-.0846-.5257-.0425-.1346-.0631-.2709-.0714-.4201-.0048-.0875,.0096-.1632,.0541-.2419,.129-.2286,.2482-.4658,.3857-.6848,.1439-.2289,.2085-.4945,.3182-.7376,.0056-.0125,.0079-.0273,.0105-.0413,.0325-.1809,.0658-.3618,.0961-.5428,.0068-.0408,.0088-.0851,.0026-.1228-.0197-.1206-.0061-.2441,.0183-.3707,.0251-.1298,.0469-.2598,.0701-.3898h.0004c.0208-.116,.0411-.2319,.0624-.3478,.0127-.0695,.0242-.1396,.0414-.2082,.0292-.1154,.085-.1555,.1674-.1293,.0649,.0206,.0868,.0841,.0942,.1641,.0076,.0799,.0088,.1631,.0237,.239,.0603,.3049,.1,.6193,.1993,.9033,.0745,.2118,.1202,.4457,.1686,.6749,.0261,.1235,.063,.2338,.1207,.3308,.0515,.0862,.0946,.1785,.1134,.2924,.0081,.049,.0338,.0909,.0562,.1313,.1816,.3287,.3635,.6556,.5487,.9778,.0319,.0553,.0795,.0941,.1161,.1449,.0342,.0472,.0637,.0997,.0944,.1509,.0287,.0479,.0546,.0988,.0846,.1451,.0203,.0312,.0515,.0515,.0676,.0859,.0742,.1589,.2136,.2314,.3064,.3653,.0481,.0692,.1123,.1204,.157,.1926,.0658,.106,.1279,.2104,.2451,.2424,.0366,.0099,.0625,.0542,.0922,.0845,.0223,.0227,.0402,.0521,.0642,.0717,.1041,.0846,.1801,.2159,.316,.2484,.0269,.0064,.0447,.0437,.0659,.0676,.019,.0212,.035,.0468,.0558,.0651,.224,.1957,.486,.3205,.7277,.4817l.0093,.0045c.0994,.0585,.2012,.1127,.2976,.1766,.0916,.0604,.1812,.1177,.2933,.1352,.1075,.0167,.2169,.0424,.3096,.0955,.1309,.0748,.2629,.1381,.4171,.1508,.0234,.0019,.0482,.0104,.0652,.0261,.123,.1135,.2903,.1258,.4386,.1757,.1852,.0619,.36,.1291,.4884,.2917,.0731,.0922,.0455,.3255-.0634,.4117-.1263,.1003-.2501,.2159-.3937,.265-.1322,.0453-.2649,.0852-.3972,.1277-.0288,.0092-.0574,.0207-.0861,.0276-.0785,.0191-.1569,.0387-.2351,.0536-.0643,.0123-.1305,.0022-.1919,.03-.1248,.0565-.243,.0646-.3636,.0695-.0627,.0026-.1279,.0186-.1921,.0317-.0818,.0168-.1677,.0551-.245,.0517-.2001-.0089-.4006,.0942-.6006,.1393-.0751,.017-.1508,.0411-.2249,.0504-.9962,.0134-1.2426-.04-1.4357-.1173-.396-.1364-.7144-.2469-.7209-.2111-.0063,.0352,.5237,.2607,.54,.292,.0079,.015,.0271,.0214,.0432,.0258,.1978,.053,1.5422,.5197,1.6936,.6454,.0441,.0364,.0913,.0681,.1392,.0983,.0653,.0413,.1382,.0709,.1969,.1218,.0333,.0287,.0626,.0849,.0629,.1377,.0005,.1804-.0321,.3634-.1082,.5466-.0381,.0918-.0654,.1879-.0942,.2828-.0225,.0737-.0293,.1528-.0605,.2219-.0796,.1755-.1693,.3467-.2544,.5203-.0223,.0455-.04,.0936-.0642,.1379-.0986,.1805-.199,.3604-.2988,.5408l-.0084,.0107c-.0463,.0681-.0979,.1329-.1375,.2051-.1368,.2504-.2816,.4905-.483,.6816-.0625,.0596-.114,.1413-.1696,.2141-.0499,.0654-.0966,.1349-.1483,.1981-.0607,.0743-.1384,.1352-.1855,.2175-.0989,.1726-.2291,.3-.353,.4387-.1062,.1188-.2087,.239-.2983,.3811-.0793,.1262-.1776,.2578-.2972,.3034-.1801,.0688-.361,.1112-.5411,.1595-.054,.0145-.1069,.0106-.1602,.0147-.1064,.0082-.2123,.0112-.3197,.0259-.0673,.0092-.1368,.0352-.2054,.0552-.0759,.0222-.1526,.0543-.2273,.0671-.0969,.0165-.1917,.0151-.2883,.0275-.0494,.0064-.1008,.0249-.1514,.0407-.0758,.0237-.1527,.0593-.2273,.0729-.1677,.0306-.3176,.1289-.4548,.2976-.0724,.0891-.0964,.1888-.101,.2919-.0026,.0597,.0184,.1049,.0658,.1014,.084-.0063,.1709-.0088,.2559-.043,.1302-.0524,.2598-.1302,.3895-.1968,.0144-.0074,.0309-.0198,.0431-.0185,.0216,.0024,.0537,.0054,.0574,.0234,.0039,.0202-.0139,.0638-.0312,.0856-.0286,.0361-.0693,.0576-.0964,.0946-.1204,.1642-.241,.3293-.3553,.5002-.0657,.0983-.0348,.2022,.0552,.1724,.1073-.0355,.2225-.082,.3217-.1618,.125-.1006,.2482-.1826,.38-.2477,.1033-.051,.2072-.1226,.3043-.2029,.0752-.0621,.1445-.1031,.2224-.1099,.0996-.0086,.1995-.0178,.3003-.0362,.045-.0082,.1003-.025,.1379-.0625,.0991-.0988,.1997-.1448,.3069-.1629,.0212-.0035,.0444-.0135,.0652-.0269,.0914-.0587,.1804-.0734,.2705-.0839,.0601-.0069,.1245-.0118,.1829-.0442,.0967-.0535,.188-.0742,.2809-.0804,.1205-.0082,.2413-.0179,.3622-.0282,.0825-.007,.1598-.001,.229,.0358,.0698,.0371,.1533,.0339,.238-.015,.1572-.0906,.293-.0819,.4266-.0399,.1139,.0356,.2312,.0634,.349,.0889,.0786,.017,.1429-.0152,.1697-.0742,.0284-.0628,.009-.1212-.0713-.1504-.1453-.0532-.2832-.1283-.4563-.108-.1072,.0125-.1926-.0286-.2747-.0816-.1195-.0775-.2402-.1536-.3662-.2195-.1094-.0575-.1155-.1229-.0067-.2531,.0704-.0843,.1498-.1606,.2112-.2524,.134-.2005,.2583-.4089,.3879-.6122,.0697-.1092,.1379-.2206,.215-.3221,.1504-.1982,.3241-.3663,.4734-.5671,.116-.1554,.2512-.2904,.3777-.4343,.0088-.01,.0157-.0225,.0242-.0331,.0562-.0703,.1094-.1446,.1692-.2094,.1479-.1599,.3005-.3122,.4475-.4723,.0774-.084,.1528-.174,.2185-.2703,.0815-.1193,.1693-.2209,.2838-.2797,.1515-.0777,.2894-.1859,.4152-.326,.1038-.1154,.2142-.2169,.3425-.276,.1168-.0537,.1726-.1531,.1913-.2888,.0117-.0851,.0288-.1724,.0548-.2568,.0461-.1497,.1296-.2022,.2437-.17,.0645,.0182,.1326,.0261,.199,.0393,.043,.0086,.0908,.0092,.1274,.0298,.0693,.0391,.1481,.0407,.2273,.048,.0813,.0074,.1586,.0312,.2373,.0489,.0396,.0089,.0632,.0941,.0397,.2896-.0111,.0921-.0177,.1843-.0188,.2744-.0007,.0593,.0079,.286-.0055,.3653-.0144,.0845-.1788,.6345-.2009,.7542-.0288,.1565-.1206,.2947-.1829,.4417-.0132,.031-.4863,.8006-.6952,1.0717-.0316,.0411-.0712,.0905-.1093,.1058-.0891,.0359-.1815,.067-.2686,.0751-.1312,.0123-.2593,.0049-.3879,.0023-.0518-.001-.1084,.002-.1501-.0204-.0758-.0406-.1597-.044-.2485-.0407-.0771,.0029-.1639,.0189-.226-.0115-.118-.058-.2491-.0531-.3839-.0444-.1062,.0069-.212,.0102-.3191,.0214-.1244,.0129-.1643,.0574-.1981,.2086-.0138,.0615-.0265,.1231-.0408,.1846-.0182,.0789-.0596,.1321-.1251,.1619-.0396,.0179-.0796,.0379-.1174,.064-.0498,.0344-.0787,.0887-.0786,.1497,.0001,.055,.0365,.0741,.0764,.0695,.0742-.0085,.1514-.0137,.2251-.0458,.1477-.0641,.2937-.1454,.4404-.2192,.0287-.0144,.0583-.0361,.0861-.0406,.1207-.0196,.2369-.0749,.3546-.1467,.0835-.0509,.1367-.0331,.1416,.0233,.0046,.0541-.0288,.1012-.1135,.1431-.1035,.0515-.2083,.1068-.3124,.1406-.1742,.0567-.3235,.1902-.475,.3199-.0747,.0641-.1176,.2181-.0867,.2888,.0295,.0673,.1194,.0585,.2107-.0208l.0192-.0185c.1235-.1094,.2516-.1898,.3903-.2145,.0354-.0063,.0723-.0238,.1084-.0354,.0754-.0241,.1511-.0507,.2263-.0709,.1945-.0519,.3887-.1005,.5831-.151,.0143-.0037,.0287-.0134,.0431-.0199,.2017-.091,.3879-.101,.5615-.0378,.0872,.0315,.1754,.0597,.281,.0352,.0757-.0175,.152-.0328,.2261-.0386,.0876-.007,.172-.0364,.2583-.0886,.0665-.04,.1362-.0877,.2026-.1028,.1924-.0438,.3781-.0448,.5574-.0204,.0803,.0109,.1597,.0254,.2395,.0379,.0334,.0052,.0713,.0017,.0996,.0159,.0907,.0453,.1936,.0479,.3015,.037,.129-.0129,.2511-.0073,.3644,.0369,.056,.0218,.1279,.014,.1943,.0111,.0457-.002,.0978-.0143,.1211-.0839,.016-.0474-.0201-.0878-.0814-.0986l-.0205-.0016c-.0652-.0138-.1321-.024-.1952-.0428-.1393-.0415-.3641-.2841-.8754-.1517-.1102,.0219-.2285,.0386-.3237,.0108-.1395-.041-.2764-.0517-.4348,.0179-.0718,.0316-.1265,.0132-.1636-.0451-.0149-.0234-.0269-.0502-.0444-.0704-.0642-.074-.0458-.1675,.0092-.2738,.0392-.0757,.0734-.1537,.1104-.2303,.0798-.1653,.3485-.6708,.3975-.7612,.0653-.1207,.1478-.2222,.2415-.3138,.1304-.1273,.2606-.254,.3168-.4444,.0059-.0201,.022-.0388,.0305-.059,.0592-.1418,.1223-.2793,.1196-.432-.002-.1029,.0291-.2163,.049-.3251,.0157-.0861,.0543-.1652,.1089-.2371,.066-.0871,.1327-.1736,.1974-.2617,.0332-.045,.0698-.0559,.1102-.0552,.0594,.001,.118,.0071,.1785,.0011,.1915-.0192,.3833-.0434,.567-.0166,.0715,.0104,.146-.0131,.2208-.0715,.0348-.0272,.085-.0355,.1249-.0357,.1226-.0006,.2444,.0041,.365,.0122,.0476,.0032,.0913,.0214,.1372,.0318Zm-.8818-7.3361c.0413,.0245,.0687,.0633,.0476,.1509-.0393-.0303-.072-.0514-.0994-.0793-.0085-.0087-.009-.0464-.0022-.0525,.0146-.0133,.0422-.0262,.054-.0192Zm.2078,1.2243c-.0431,.0272-.0889,.0533-.1343,.066-.1274,.0357-.2555,.0645-.3833,.0955-.0105,.0026-.0217,.0025-.0315,.0004-.2231-.0471-.4631,.0153-.6906-.0109-.2266-.0262-.4591-.0264-.6888-.0382-.23-.0118-.4595-.0247-.6897-.0351-.1088-.0049-.2134-.017-.3047-.081-.035-.0247-.0834-.0294-.1277-.034-.0861-.009-.1733-.0129-.2606-.0161-.0847-.0032-.1611-.025-.235-.0663-.0551-.0309-.1233-.0386-.1882-.0436-.115-.0089-.2251-.0235-.3247-.0873-.0525-.0337-.125-.0327-.1902-.038-.1042-.0084-.2081-.0131-.2935-.083-.0232-.019-.0566-.0271-.0874-.0269-.1284,.0007-.2267-.0681-.3267-.14-.1184-.0852-.2484-.145-.3831-.1975-.1423-.0557-.272-.1459-.407-.2216-.006-.0034-.01-.0112-.0161-.0137-.1589-.0635-.2681-.2124-.4004-.3217-.0297-.0246-.0653-.039-.0975-.0595-.038-.0242-.0834-.0401-.1115-.0769-.1366-.1796-.3152-.2907-.4783-.4268-.1265-.106-.2457-.2164-.3284-.3828-.0325-.0655-.0854-.1122-.1299-.1664-.014-.0172-.0332-.028-.0459-.0466-.1232-.1821-.245-.3665-.3682-.5498-.0405-.0602-.0806-.1215-.127-.1738-.0479-.0538-.0693-.1177-.0632-.2077,.0093-.1367,.0334-.2775-.004-.4045-.0154-.0522-.0292-.1055-.0438-.1583l-.005-.011c-.0621-.1153-.0177-.2641-.0294-.3948-.0122-.1369,.0116-.2528,.0659-.3866,.1404-.3455,.3591-.4951,.6246-.5731,.1398-.0408,.2748-.0626,.4103-.0427,.0298,.0044,.0646-.0007,.0947-.0148,.0931-.0436,.1825-.0404,.2729-.0293,.3962,.0487,.793,.0958,1.1896,.1425,.0902,.0106,.1787,.0251,.2517,.0897,.0106,.0094,.0233,.0189,.0365,.0203,.1511,.0153,.2781,.1017,.415,.1581,.0991,.0408,.2017,.0745,.2944,.1292,.1077,.0635,.2131,.136,.3077,.2231,.1309,.1202,.272,.2191,.4235,.2958,.1252,.0634,.2322,.1564,.3442,.2424,.1062,.0812,.2251,.14,.3301,.2226,.2141,.1677,.4221,.3452,.6345,.5146,.0737,.0587,.1177,.1357,.1143,.2532-.0037,.1353,.0588,.2214,.1311,.2991,.0439,.0471,.0898,.0915,.1328,.1395,.0514,.0573,.106,.0952,.1862,.0353,.0521-.039,.097-.0228,.1384,.0066,.0709,.0504,.14,.1043,.2118,.1532,.0627,.0428,.1283,.0809,.1926,.1208l.0095,.0038c.0691,.0339,.2126,.2812,.2159,.3817l-.1069,.0589c.0085,.0412,.0089,.0848,.0254,.1141,.0583,.1037,.1198,.2048,.1857,.301,.0188,.0275,.0541,.045,.0859,.051,.0461,.0086,.0789-.0418,.0596-.09-.0122-.0308-.035-.0552-.0559-.079-.0424-.048-.0546-.1038-.0178-.1816,.0635-.019,.1128,.0071,.1499,.0494,.0442,.0504,.0825,.1092,.1163,.1705,.028,.0507,.0214,.1023-.0319,.155-.0605,.0601-.0645,.0952-.0291,.1622,.017,.0322,.0417,.0585,.0659,.0838,.0509,.0535,.103,.1054,.1558,.1561,.0641,.0612,.1182,.1295,.1416,.2298,.0073,.0314,.0322,.059,.0564,.0766,.126,.0923,.2023,.2362,.2751,.3815,.0599,.1195,.0134,.2498-.1091,.3273Z"/><g><path d="M11.0693,10.1453l4.8818,.8311-2.4209-2.8916,.7832-.6553,3.4688,4.1431-.6885,.5757-4.9365-.8657,2.46,2.939-.7822,.6553-3.4688-4.1431,.7031-.5884Z"/><path d="M20.1982,4.5169c.5273-.187,1.04-.2466,1.5391-.1782,.499,.0679,.9463,.2622,1.3418,.583s.6797,.7251,.8525,1.2139c.1689,.4761,.2031,.9614,.1035,1.4551s-.3232,.9282-.6699,1.3042-.7881,.6587-1.3223,.8481c-.5273,.187-1.0469,.2427-1.5596,.1675-.5127-.0757-.96-.2705-1.3418-.5854-.3828-.3145-.6592-.7134-.8311-1.1968-.165-.4668-.2002-.9482-.1055-1.4438,.0947-.4961,.3135-.9326,.6562-1.3101,.3418-.377,.7881-.6626,1.3369-.8574Zm-.8701,3.2505c.1191,.3379,.3037,.6147,.5527,.8301,.248,.2153,.5361,.3491,.8613,.4004,.3262,.0513,.6621,.0156,1.0068-.1069,.5225-.1851,.8936-.5015,1.1143-.9487,.2197-.4473,.2383-.9297,.0547-1.4473-.1191-.3379-.3027-.6152-.5508-.8325s-.5361-.3511-.8652-.4014c-.3281-.0503-.665-.0146-1.0098,.1079-.3447,.1221-.6289,.3071-.8516,.5542-.2236,.2471-.3613,.5312-.4141,.8525-.0527,.3208-.0195,.6519,.1016,.9917Z"/><path d="M28.3545,3.1268c.5078-.0078,.9238,.127,1.2471,.4028,.3242,.2764,.4893,.6401,.4961,1.0913,.0049,.3066-.0713,.5757-.2256,.8062-.1553,.2305-.3887,.4136-.6982,.5498,.1738,.0903,.3291,.2144,.4658,.3721s.3066,.4248,.5107,.8008c.3398,.6499,.5918,1.0977,.7549,1.3428l-1.1641,.0171c-.082-.1172-.1924-.3052-.333-.5635-.3076-.5703-.5322-.9546-.6748-1.1523s-.2783-.3374-.4082-.4194c-.1309-.082-.2793-.1216-.4473-.1191l-.3789,.0054,.0342,2.2817-1.0439,.0156-.0801-5.4023,1.9453-.0288Zm-.2021,2.3081c.2734-.0039,.4873-.0752,.6406-.2144,.1543-.1392,.2295-.3271,.2256-.5645-.0029-.2471-.083-.4312-.2402-.5513-.1562-.1201-.3779-.1782-.6641-.1738l-.6494,.0098,.0225,1.5039,.665-.0098Z"/><path d="M35.0928,3.8465c.5107,.1284,.9697,.3799,1.3779,.7539l-.2275,.9004c-.46-.4644-.8994-.7495-1.3193-.8555-.2549-.064-.4668-.0649-.6357-.0024s-.2734,.1763-.3154,.3413c-.0498,.1973,.0381,.4136,.2637,.6484,.0625,.0688,.3154,.2817,.7598,.6387,.3789,.3105,.6328,.6138,.7607,.9092,.127,.2954,.1475,.6172,.0596,.9644-.1133,.4502-.3672,.7725-.7598,.9673-.3936,.1948-.8477,.2271-1.3633,.0972-.335-.0845-.6133-.1938-.8359-.3286-.2227-.1343-.4619-.3296-.7168-.585l.252-.9976c.4424,.606,.9121,.9717,1.4062,1.0962,.248,.0625,.4619,.0591,.6406-.0098,.1797-.0693,.292-.1924,.3369-.3701,.0615-.2427-.0215-.4736-.248-.6929-.1895-.1753-.4375-.3906-.7432-.6455-.3652-.2915-.6182-.5879-.7588-.8896-.1406-.3013-.1689-.6167-.0859-.9468,.1104-.4399,.3633-.7495,.7559-.9282,.3936-.1787,.8594-.2002,1.3965-.0649Z"/><path d="M40.1631,5.8016l-2.2256,4.6973c-.2471,.522-.585,.8735-1.0137,1.0542-.4277,.1812-.8721,.1621-1.334-.0566-.0322-.0151-.0635-.0298-.0928-.0439-.0293-.0137-.0586-.0308-.0889-.0508l.3193-.8457c.5596,.2651,.9941,.0703,1.3047-.5845l2.1875-4.6167,.9434,.4468Z"/><path d="M45.1846,9.014c.4297,.3589,.7422,.77,.9375,1.2339,.1953,.4644,.2549,.9478,.1807,1.4517-.0752,.5034-.2783,.9541-.6113,1.3521-.3232,.3877-.7236,.6641-1.1992,.8296-.4756,.165-.9639,.1938-1.4639,.0869-.5-.1074-.9678-.3428-1.4033-.7065-.4297-.3589-.7422-.7778-.9375-1.2573-.1963-.4795-.2559-.9639-.1797-1.4526,.0762-.4893,.2793-.9307,.6074-1.3242,.3184-.3799,.7139-.6553,1.1895-.8262,.4756-.1704,.9629-.2046,1.4609-.1016,.499,.1025,.9727,.3408,1.4189,.7144Zm-3.2412,.9053c-.2295,.2749-.374,.5742-.4326,.8979s-.0273,.6392,.0938,.9458c.1221,.3066,.3232,.5771,.6045,.812,.4248,.3555,.8867,.5142,1.3838,.4761s.9219-.2676,1.2744-.689c.2295-.2749,.375-.5747,.4355-.8984,.0605-.3242,.0293-.6401-.0947-.9482-.124-.3086-.3262-.5801-.6064-.8149-.2812-.2349-.585-.3853-.9111-.4512s-.6416-.04-.9443,.0776c-.3037,.1177-.5713,.3149-.8027,.5923Zm3.5264-1.897c-.084,.1006-.1992,.1597-.3438,.1763-.1455,.0166-.2725-.021-.3809-.1118s-.1699-.2085-.1836-.3525c-.0146-.1445,.0234-.27,.1123-.377,.0869-.1025,.2021-.1611,.3486-.1753,.1465-.0137,.2734,.0244,.3828,.1157,.1064,.0889,.166,.2061,.1777,.3506,.0117,.144-.0254,.269-.1133,.374Zm1.4629,1.2227c-.0889,.1064-.2061,.1665-.3486,.1792-.1436,.0132-.2686-.0254-.376-.1147-.1084-.0908-.1689-.2075-.1807-.3501s.0264-.2676,.1162-.374c.084-.1011,.1982-.1597,.3438-.1768,.1445-.0166,.2715,.0205,.3809,.1118,.1025,.0859,.1611,.2021,.1748,.3481s-.0225,.2715-.1104,.3765Z"/></g><polygon class="cls-1" points="7.541 39.563 9.0928 37.8312 6.8033 37.9821 7.541 39.563"/><path d="M5.7116,25.8751c.0692,.012,.1368,.018,.2029,.018,.2158,0,.4152-.064,.5987-.192,.2397-.1683,.3858-.4003,.4381-.6973,.0502-.2928-.0098-.5588-.1818-.7996-.1711-.2397-.4013-.3857-.6913-.436-.068-.0118-.1345-.0176-.1995-.0176-.217,0-.4174,.0656-.6011,.1966-.2388,.1702-.384,.4003-.4341,.6904-.0513,.2968,.0078,.5648,.1769,.8035,.1693,.2388,.3994,.3839,.6913,.4341Z"/><polygon points="8.9247 34.1726 5.2349 33.3749 8.3483 31.2113 8.1376 30.1294 3.2373 33.5943 3.306 33.951 9.1345 35.2467 8.9247 34.1726"/><path d="M11.6552,37.3362c-.0617-.0225-.1223-.0337-.182-.0337-.0713,0-.1412,.0161-.2097,.0482-.1314,.061-.2194,.1596-.2659,.2948-.0464,.1354-.0406,.265,.0175,.3887,.059,.1267,.1556,.2137,.291,.2631,.0617,.0225,.1224,.0336,.1821,.0336,.0714,0,.1416-.016,.2106-.0482,.1237-.057,.2098-.1556,.259-.2938,.0494-.1384,.0456-.2679-.0106-.3897-.059-.1256-.1567-.2137-.292-.263Z"/><path d="M9.9128,36.8547l-5.8381,.2668,.4632,.9921,1.4127-.0832,1.0162,2.1766-.9543,1.0645,.4661,.9979,3.8859-4.4477-.4515-.967Zm-2.3718,2.7083l-.7377-1.5809,2.2895-.1509-1.5518,1.7318Z"/><path d="M10.5055,36.5696c.0626,.0209,.1233,.0314,.1819,.0314,.0709,0,.1388-.0153,.204-.0461,.1237-.0571,.2108-.1545,.261-.2919,.0492-.1373,.0454-.2688-.0135-.3946-.058-.1237-.1556-.2126-.293-.2649-.064-.025-.127-.0374-.1888-.0374-.0699,0-.1385,.0158-.2056,.047-.1287,.06-.2156,.1586-.2621,.2969-.0464,.1382-.0406,.2698,.0175,.3936,.0609,.1305,.1605,.2195,.2987,.266Z"/><path d="M13.5106,43.0186c-.1005-.5443-.316-1.0219-.6458-1.4318-.348-.4313-.733-.6943-1.1544-.7881-.105-.0236-.2078-.0353-.3087-.0353-.304,0-.5886,.1071-.8537,.3206-.265,.2137-.4321,.4835-.5009,.8083-.0696,.3258-.0454,.7146,.0706,1.1671,.09,.3877,.1586,.7088,.2041,.963,.0493,.3114-.0242,.5455-.2185,.703-.0981,.0783-.2059,.1176-.3235,.1176-.0538,0-.1097-.0082-.1677-.0247-.1856-.0533-.3578-.179-.5182-.3781-.3201-.3974-.4747-.9718-.4631-1.722-.2672,.2149-.5344,.4299-.8016,.6449,.0494,.3577,.1228,.6565,.2194,.8983,.0969,.2416,.2534,.4969,.471,.7657,.3327,.414,.7145,.6614,1.1458,.7426,.0945,.0178,.1874,.0266,.2785,.0266,.3255,0,.629-.1135,.9108-.3408,.2794-.2253,.4573-.4941,.5327-.8064,.0764-.3123,.0561-.7078-.0589-1.1835-.1401-.553-.2147-.8751-.2234-.9679-.0386-.3229,.0213-.5483,.1808-.6759,.0894-.0723,.1874-.1082,.2946-.1082,.0518,0,.1058,.0085,.1619,.0252,.1731,.0513,.3414,.1798,.5067,.3847,.2717,.3375,.4515,.8297,.5386,1.4775,.241-.1941,.4819-.388,.7231-.5822Z"/><polygon points="17.9623 46.3448 14.1334 43.3173 13.6276 43.9576 15.1322 45.1479 12.2876 48.7456 13.1065 49.3934 15.9512 45.7946 17.4556 46.9849 17.9623 46.3448"/><polygon points="21.3985 48.8374 21.7438 48.0978 18.5791 46.6203 16.2934 51.5167 19.5075 53.0163 19.8524 52.2777 17.5851 51.2189 18.2349 49.8276 20.3582 50.8187 20.7034 50.079 18.58 49.0879 19.1805 47.8019 21.3985 48.8374"/><path d="M24.6116,48.8219c-.6353-.1299-1.2705-.2598-1.9058-.3896-.361,1.7645-.722,3.5291-1.0829,5.2937,.3409,.0695,.6819,.1393,1.0229,.2089l.4574-2.2354,.3712,.0763c.1645,.0329,.3008,.1044,.411,.2118,.1093,.1083,.2118,.2737,.3085,.4979,.0966,.2233,.233,.6469,.4108,1.2706,.0823,.2823,.1499,.4892,.2042,.6215,.3803,.0778,.7606,.1555,1.1409,.2332-.1073-.2748-.2562-.7649-.4486-1.4736-.118-.411-.2272-.7078-.3268-.8916-.0995-.1838-.2244-.3383-.3751-.4631,.3326-.0667,.5994-.1954,.8006-.3878,.201-.1915,.3315-.438,.3934-.7387,.0909-.4418,.0068-.8325-.2495-1.172-.2571-.3393-.6342-.5598-1.1321-.6622Zm.3211,1.637c-.0485,.233-.1616,.4002-.3424,.5027-.1171,.0667-.2532,.1003-.4079,.1003-.0827,0-.1708-.0096-.2641-.0288-.2172-.0445-.4344-.0889-.6517-.1334,.1005-.4912,.2011-.9824,.3017-1.4736,.2124,.0432,.4247,.0864,.6372,.1296,.2803,.058,.4834,.1624,.611,.3132,.1267,.1509,.1653,.3471,.1161,.5898Z"/><path d="M30.6025,51.6908l-.001-.0464c.2428-.1199,.4265-.2755,.5491-.4689,.1238-.1924,.1808-.4128,.1721-.6603-.0144-.3859-.1816-.7029-.5037-.9486-.2987-.2295-.673-.3443-1.1219-.3443-.0333,0-.067,.0007-.1012,.002-.6599,.0239-1.3196,.0477-1.9794,.0715,.0658,1.8,.1315,3.6002,.1974,5.4001,.7535-.0277,1.507-.0554,2.2606-.0832,.3684-.0135,.6864-.0842,.9543-.2128,.2678-.1285,.4738-.3131,.6178-.5549,.145-.2407,.2117-.5116,.201-.8103-.0125-.3374-.1285-.6274-.347-.8712-.2196-.2437-.5183-.4012-.8983-.4728Zm-1.9125-1.6177c.2501-.009,.5002-.0181,.7504-.0272l.049-.0008c.2167,0,.3965,.0546,.537,.1635,.1518,.1169,.2311,.2794,.2387,.4882,.0087,.2348-.0646,.4206-.2194,.5579-.1557,.1374-.3704,.2108-.6469,.2214-.2189,.0077-.4377,.0156-.6565,.0233-.0175-.4755-.0349-.9508-.0523-1.4263Zm1.8314,3.5079c-.176,.1393-.4399,.2147-.7928,.2282l-.9012,.0329c-.0184-.5089-.0367-1.0178-.0551-1.5267,.3271-.0118,.6543-.0239,.9814-.0357,.0253-.001,.05-.0015,.0745-.0015,.2673,0,.4853,.0584,.6536,.1735,.1838,.1267,.2805,.3045,.2881,.5337,.0097,.2573-.0734,.4564-.2484,.5956Z"/><path d="M37.9615,48.6431c-.3877-.3307-.8295-.5366-1.3267-.6169-.1571-.0253-.316-.038-.4767-.038-.3474,0-.7028,.0593-1.0663,.1783-.554,.1807-1.0065,.4554-1.3585,.8237-.3521,.3683-.5811,.7986-.6885,1.2927-.1074,.4932-.0842,.9747,.0687,1.4456,.1594,.4882,.4263,.8934,.8005,1.2183,.3742,.3239,.817,.5298,1.3266,.6179,.1726,.0301,.3464,.0452,.5213,.0452,.3428,0,.6902-.0576,1.0422-.1729,.5395-.1759,.9872-.4475,1.343-.815,.3568-.3663,.5908-.7957,.703-1.287,.1121-.4911,.0899-.9765-.0667-1.457-.1605-.4921-.4351-.9041-.822-1.2347Zm-.2919,3.0138c-.2311,.4418-.6101,.7493-1.1371,.9215-.228,.074-.451,.1112-.6689,.1112-.1149,0-.2285-.0103-.3405-.0309-.325-.0591-.6082-.1992-.8518-.4216-.2427-.2214-.4206-.5029-.5318-.8431-.1113-.3432-.1373-.6749-.0764-.994,.062-.3201,.207-.6005,.4351-.8422,.2292-.2417,.5183-.4196,.8664-.5328,.2291-.0751,.4535-.1125,.6734-.1125,.1143,0,.2272,.0101,.3391,.0303,.3267,.0589,.6119,.1992,.8536,.4225,.2427,.2234,.4197,.5057,.5309,.8461,.1701,.5222,.1401,1.0046-.0919,1.4456Z"/><polygon points="42.6868 45.0502 42.2294 44.3743 38.185 47.1058 38.6422 47.7826 40.2318 46.7084 42.799 50.5092 43.6643 49.9252 41.0972 46.1243 42.6868 45.0502"/><polygon points="46.3842 40.9543 45.7711 40.4167 42.5533 44.087 43.1674 44.6247 44.432 43.1821 47.8809 46.2065 48.5694 45.4213 45.1205 42.397 46.3842 40.9543"/><polygon points="50.6124 41.0549 49.2568 40.3346 50.3571 38.2654 49.6369 37.8815 48.5365 39.9517 47.2833 39.2855 48.432 37.1235 47.7117 36.7406 46.0729 39.8241 50.8435 42.3602 52.5075 39.2284 51.7871 38.8456 50.6124 41.0549"/><polygon points="49.0809 31.7654 52.758 32.6003 48.3712 34.8968 48.168 35.7911 53.4376 36.9853 53.663 35.9894 49.926 35.1424 54.3775 32.8401 54.5758 31.9646 49.3071 30.7696 49.0809 31.7654"/><path d="M51.64,23.8699c-.064,0-.1293,.0057-.196,.0172-.295,.0494-.5271,.1943-.6971,.4323-.1701,.2378-.2301,.5057-.1788,.8035,.0492,.2919,.1953,.523,.437,.6922,.1872,.1311,.3889,.1965,.605,.1965,.0629,0,.1273-.0055,.1927-.0166,.2949-.0502,.5269-.1953,.6952-.436,.1683-.2399,.2272-.5057,.1779-.7949-.0502-.2979-.1953-.5309-.4341-.699-.1849-.1298-.3855-.1953-.6016-.1953Z"/><path d="M28.7489,46.9916c10.0751,0,18.2434-8.1674,18.2434-18.2424S38.824,10.5062,28.7489,10.5062,10.5065,18.6741,10.5065,28.7492s8.1674,18.2424,18.2424,18.2424Zm-16.2919-11.3591c-.452-1.0685-.7976-2.1821-1.0301-3.3187-.2398-1.1719-.3592-2.3684-.3592-3.5647s.1194-2.3928,.3592-3.5647c.2325-1.1367,.5781-2.2502,1.0301-3.3188,.4444-1.0505,.9915-2.0576,1.6301-3.0026,.6342-.9385,1.3586-1.8159,2.1594-2.6167,.8009-.8009,1.6782-1.5252,2.6165-2.1594,.9451-.6387,1.9521-1.1859,3.0026-1.6302,1.0685-.4521,2.1821-.7978,3.3188-1.0302,1.1719-.2397,2.3683-.3593,3.5646-.3593s2.3927,.1195,3.5647,.3593c1.1366,.2324,2.2503,.5782,3.3188,1.0302,1.0506,.4443,2.0576,.9915,3.0026,1.6302,.9384,.6342,1.8159,1.3585,2.6168,2.1594,.8009,.8009,1.5253,1.6782,2.1595,2.6167,.6387,.945,1.1858,1.9521,1.6303,3.0027,.452,1.0685,.7977,2.182,1.0303,3.3187,.2397,1.1719,.359,2.3684,.359,3.5647s-.1193,2.3928-.359,3.5647c-.2326,1.1366-.5782,2.2502-1.0303,3.3187-.4445,1.0505-.9916,2.0574-1.6303,3.0025-.6342,.9385-1.3586,1.8158-2.1595,2.6166-.801,.8009-1.6783,1.5252-2.6167,2.1593-.9451,.6387-1.9521,1.1859-3.0027,1.6302-1.0685,.452-2.1823,.7976-3.3188,1.0301-1.172,.2398-2.3684,.3593-3.5648,.3593s-2.3928-.1194-3.5646-.3593c-1.1367-.2325-2.2502-.5781-3.3188-1.0301-1.0506-.4443-2.0575-.9915-3.0026-1.6302-.9383-.6341-1.8156-1.3584-2.6165-2.1592-.8008-.8009-1.5252-1.6782-2.1594-2.6166-.6385-.9452-1.1857-1.9521-1.6301-3.0026Z"/><path class="cls-2" d="M17.4514,2.758c-.1616,.0706-.3214,.1445-.4814,.218-.3807,.1747-.7567,.3577-1.1281,.5486-.1409,.0724-.2833,.1422-.4227,.2169-.4857,.2599-.9641,.5319-1.4324,.8188-.1027,.0629-.202,.1308-.3038,.1949-.3764,.2372-.7469,.4827-1.1111,.7368-.1453,.1014-.2897,.204-.433,.3081-.3595,.2609-.7123,.5302-1.0588,.8073-.0931,.0745-.189,.1454-.2811,.2211-.4236,.3475-.8358,.7085-1.2385,1.0796-.1137,.1048-.2237,.2135-.3357,.3201-.3023,.2877-.5984,.5818-.8879,.8826-.1183,.123-.2372,.2455-.3534,.3706-.3639,.3919-.72,.7912-1.0615,1.2032l-.0735,.0891c-.3394,.4128-.664,.838-.9801,1.2698-.1017,.139-.2004,.2803-.2997,.4211-.2402,.3409-.4728,.6874-.6981,1.0391-.0845,.1319-.1714,.2621-.2537,.3955-.2889,.4678-.5662,.9435-.8282,1.4287-.057,.1056-.1088,.2143-.1645,.3207-.2072,.3959-.4055,.7971-.5943,1.2036-.0754,.1622-.1492,.3253-.2215,.4892-.181,.41-.3522,.8252-.5141,1.2451-.0442,.1146-.0925,.2271-.1352,.3424-.1932,.5215-.3695,1.051-.5323,1.5862-.0469,.1542-.0883,.3108-.1327,.4661-.1166,.4086-.2245,.8209-.3229,1.2367-.0413,.1744-.0833,.3486-.1213,.5242-.1158,.5344-.2203,1.0729-.3054,1.6179-.2233,1.4308-.3411,2.8962-.3411,4.3887,0,15.6302,12.7155,28.3467,28.3462,28.3467l.0202-.0005c.6667-.0005,1.3261-.032,1.9814-.078,.1574-.011,.3148-.0223,.4715-.036,.6484-.0563,1.2921-.1293,1.9274-.2288,.0803-.0126,.1592-.0296,.2393-.0428,.5797-.0959,1.1527-.2116,1.7201-.3423,.1382-.0318,.277-.062,.4144-.0959,.6164-.1519,1.2257-.3218,1.8256-.5134,.1064-.0339,.2108-.0722,.3166-.1074,.5384-.179,1.0696-.3736,1.5932-.5836,.1047-.0419,.2108-.0812,.3148-.1243,.5829-.2419,1.1555-.5035,1.7181-.7825,.109-.054,.2162-.111,.3244-.1664,.5256-.2692,1.0433-.5518,1.5494-.8522,.0526-.0312,.1066-.06,.1589-.0915,.5473-.3297,1.0804-.6804,1.6029-1.0452,.0967-.0675,.1923-.1364,.2882-.2051,1.051-.7533,2.0488-1.5756,2.986-2.462,.076-.0719,.152-.144,.2272-.2167,.9413-.9101,1.8198-1.8843,2.6287-2.9162,.0519-.0663,.1047-.1318,.1561-.1985,.4026-.5231,.7894-1.0591,1.1555-1.6102,.0202-.0304,.0391-.0617,.0591-.0922,.355-.5387,.6911-1.0908,1.0095-1.6542,.0274-.0485,.0562-.096,.0833-.1447,.3248-.5827,.6292-1.1783,.9131-1.7852,.0269-.0576,.0521-.116,.0787-.1738,.2765-.6014,.5351-1.2126,.7698-1.8356,.0067-.0179,.0144-.0354,.0211-.0533,.0562-.1506,.1099-.3023,.1635-.4541l.0193-.057c.2574-.7301,.4869-1.4733,.6852-2.2289,.1866-.7111,.3401-1.4352,.4717-2.1667,.017-.095,.035-.1898,.0511-.2852,.1184-.6998,.2104-1.4084,.2762-2.1246,.0112-.1235,.0187-.2482,.0284-.3722,.0566-.7197,.093-1.4449,.0941-2.1788l.001-.0409c0-.5279-.0172-1.0517-.0458-1.5726-.0278-.5067-.0704-1.0095-.1247-1.5089-.0205-.1887-.0476-.3753-.0718-.5629-.0459-.3563-.0968-.7109-.1559-1.0629-.0341-.2028-.0703-.4049-.1086-.6063-.0666-.3496-.1411-.6963-.2204-1.0413-.0416-.1808-.0804-.3629-.1255-.5424-.1188-.4737-.2485-.9431-.3909-1.4071-.0157-.0512-.03-.103-.046-.1541-.2169-.6913-.4653-1.3682-.7325-2.0355l-.0144-.0364c-.5056-1.2587-1.0985-2.472-1.7722-3.6344l-.027-.0469c-.1697-.2914-.3437-.5798-.5232-.8644l-.0309-.0481c-.3194-.5042-.6535-.998-1.0032-1.48l-.0372-.0522c-.1227-.1685-.2465-.3362-.3727-.5018-.0151-.0197-.0309-.0388-.046-.0585-.2967-.3868-.6038-.7651-.9196-1.1359-.0478-.0561-.0965-.1113-.1447-.167-.2899-.3352-.5876-.6635-.8927-.9846-.0572-.0602-.1142-.1205-.1719-.1802-.3162-.3271-.6401-.6465-.9715-.9582-.0422-.0397-.0833-.0804-.1257-.1199-1.1373-1.0568-2.3615-2.0209-3.66-2.8817-.0809-.0536-.1638-.1046-.2454-.1574-.3409-.221-.6865-.4354-1.0372-.6419-.1174-.0691-.2357-.1365-.3542-.2039-.324-.1846-.6524-.3624-.9842-.5345-.1312-.0679-.2621-.1363-.3944-.2023-.3405-.1698-.6859-.331-1.0339-.4873-.1198-.0537-.238-.1103-.3586-.1624-.4379-.1893-.8812-.3683-1.3301-.5358-.0302-.0112-.0594-.0243-.0897-.0355-.4822-.1781-.9714-.3418-1.4655-.4939-.1302-.04-.2631-.0739-.394-.1121-.3573-.1043-.7164-.2044-1.0793-.2949-.1837-.0457-.3696-.0862-.5547-.1284-.3168-.0721-.6351-.1403-.9558-.2017-.2031-.0388-.407-.0751-.6116-.1095-.3121-.0526-.6262-.0989-.9415-.1412-.2073-.0278-.4144-.0563-.6232-.0795-.3329-.0372-.6686-.0648-1.005-.0901-.1907-.0144-.3802-.033-.5719-.0436-.4694-.0259-.9421-.0395-1.4173-.0422-.0545-.0003-.1082-.0042-.1628-.0042-.0286,0-.0568,.0021-.0854,.0021-.5554,.0017-1.1061,.0226-1.6533,.0563-.1602,.0098-.3191,.0241-.4785,.0365-.4584,.0361-.9141,.0815-1.366,.1395-.1182,.015-.2369,.0287-.3547,.0452-1.1924,.1682-2.3625,.4074-3.5035,.7183l-.0427,.0121c-.752,.2059-1.4939,.4366-2.2197,.7017-.0352,.0129-.0698,.0266-.1049,.0396-.5039,.1865-.9993,.3903-1.4893,.6042Zm16.8903-1.2291c.5325,.1093,1.058,.2372,1.5789,.3766,.1349,.0361,.2671,.0782,.4011,.1162,.0384,.0109,.0767,.0223,.115,.0333,.1345,.0388,.2693,.0759,.4029,.1167,.2249,.0686,.4484,.1402,.6709,.2144,.1713,.0571,.3409,.1172,.5107,.1776,.257,.0912,.5132,.1833,.7667,.2819,.1143,.0445,.2268,.0919,.3405,.1378,.1513,.0612,.3027,.1217,.4526,.1854,.4003,.1702,.7949,.3508,1.1854,.5389,.0922,.0444,.187,.0839,.2785,.1293l.0723,.0354c.4726,.236,.937,.486,1.3939,.7476,.0992,.0568,.195,.1187,.2935,.1767,.0438,.0258,.087,.0526,.1306,.0787,.1249,.0745,.2497,.1484,.3734,.2248,.1962,.1213,.3914,.2438,.5843,.3698,.1484,.0969,.294,.1972,.4404,.2968,.2211,.1505,.4423,.3004,.6588,.457,.0915,.0662,.1804,.1353,.271,.2026,.1393,.1034,.2781,.2069,.4155,.3127,.3142,.2422,.6216,.4924,.925,.7476,.0935,.0786,.191,.1523,.2835,.2322,.0284,.0246,.0562,.0499,.0846,.0745,.3943,.3434,.7795,.6968,1.1539,1.0615,.0543,.0529,.1052,.1091,.1591,.1624,.0562,.0555,.1101,.1132,.1658,.1693,.1068,.1075,.2128,.2153,.3179,.3246,.1595,.1659,.3187,.3318,.4741,.5016,.1179,.1289,.2317,.2613,.3472,.3924,.1767,.2005,.3545,.3998,.5255,.6053,.0672,.0809,.1306,.1645,.1969,.2461,.1166,.1435,.2319,.2878,.3458,.4336,.2305,.2953,.4535,.5962,.6721,.9009,.0776,.1082,.1606,.2121,.2368,.3215,.0278,.04,.0537,.0814,.0814,.1215,.297,.4315,.5849,.8696,.8577,1.3181,.08,.1315,.154,.2669,.2306,.4006,.078,.1331,.1533,.2674,.2291,.4019,.0848,.1472,.1712,.2932,.252,.4427,.1989,.3685,.3815,.7466,.564,1.1248,.0588,.1219,.1246,.2396,.1818,.3625,.2827,.6083,.5369,1.232,.7758,1.8631,.0808,.2136,.1552,.4297,.2308,.6458,.1718,.4902,.3293,.9864,.4739,1.4885,.0555,.1927,.1158,.3829,.1671,.5773,.1769,.6688,.3301,1.3468,.4572,2.0342,.0319,.1726,.0542,.3482,.0828,.5219,.0917,.555,.1667,1.1151,.2248,1.6805,.0222,.2159,.0444,.4311,.0615,.6484,.0562,.7095,.0938,1.4241,.0953,2.1475,0,.0192,.0025,.0378,.0025,.0571,0,.5532-.0209,1.1014-.0529,1.6467-.0089,.151-.0231,.3004-.0344,.4507-.0297,.3958-.0665,.7894-.1127,1.1804-.0202,.1708-.0418,.341-.0651,.5109-.0534,.3898-.1159,.7765-.1854,1.1609-.0261,.1441-.0491,.289-.0774,.4323-.2062,1.0465-.4712,2.0717-.7917,3.0728-.0439,.1372-.0925,.2722-.1385,.4084-.1229,.3641-.252,.7251-.3895,1.0823-.0593,.1541-.1198,.3075-.1818,.4603-.1437,.3542-.2952,.7042-.4529,1.051-.0589,.1295-.1152,.2603-.176,.3887-.4446,.9395-.9402,1.8499-1.4836,2.7283-.0736,.119-.151,.2349-.2263,.3527-.2043,.3195-.414,.6349-.6309,.9453-.0929,.1329-.1868,.2649-.2819,.3962-.2219,.3062-.4506,.6069-.6846,.9035-.0864,.1096-.1706,.2207-.2586,.329-.649,.7982-1.3413,1.5594-2.0734,2.2809-.0999,.0984-.2029,.1932-.3043,.2902-.2723,.2604-.5491,.5159-.8318,.7653-.1214,.1071-.2435,.213-.3668,.3179-.2878,.2451-.5812,.4834-.879,.7168-.0767,.0601-.1491,.1254-.2265,.1848-.033,.0253-.0682,.0479-.1013,.073-.8881,.675-1.8193,1.295-2.7862,1.8611-.1172,.0686-.2346,.1362-.3528,.2031-1.0499,.5942-2.1414,1.1216-3.2702,1.5775-.1288,.0521-.2579,.103-.3876,.1531-1.1351,.4386-2.3055,.8041-3.5065,1.092-.1391,.0333-.2783,.0655-.4181,.0967-1.2061,.2693-2.441,.4595-3.7001,.5658-.1479,.0125-.2959,.0237-.4445,.0339-.6326,.0433-1.2687,.0732-1.912,.0732-.5939,0-1.1818-.0251-1.7666-.0621-.1588-.01-.3163-.0235-.4743-.0362-.4582-.0368-.9131-.0846-1.3648-.1434-.136-.0177-.2728-.0323-.4082-.0521-.5687-.0826-1.1322-.1806-1.6892-.2973-.0947-.0198-.1874-.0444-.2818-.0652-.468-.1031-.9313-.2185-1.3902-.345-.1523-.042-.3039-.0851-.4551-.1296-.463-.1362-.9211-.2833-1.3737-.4427-.0809-.0284-.1631-.0533-.2437-.0826-.5283-.1916-1.0479-.4006-1.5609-.6229-.1209-.0524-.2394-.1088-.3594-.1628-.4047-.1823-.804-.3737-1.1982-.5744-.1295-.066-.2594-.1309-.3878-.1989-.9869-.5225-1.938-1.1024-2.8503-1.7357-.1163-.0807-.2307-.1636-.3456-.246-.3667-.2629-.7265-.5343-1.0797-.8143-.0905-.0718-.1828-.1412-.2724-.2141-.4329-.3521-.8558-.7157-1.2665-1.0927-.0591-.0543-.1156-.1113-.1743-.1661-.3511-.3278-.6929-.6652-1.0267-1.0106-.0958-.0991-.1909-.1985-.2852-.299-.3453-.3681-.6822-.744-1.0074-1.1304-.0333-.0395-.0683-.0773-.1013-.1169-.3605-.4333-.706-.8792-1.0401-1.334-.0671-.0915-.1313-.1851-.1974-.2774-.269-.3757-.5286-.7582-.7791-1.1475-.0677-.1053-.1364-.2098-.2028-.316-.5735-.9185-1.0955-1.8718-1.5605-2.8577-.0546-.1158-.1055-.2336-.1586-.3503-.1641-.3607-.3212-.725-.47-1.0937-.0564-.1397-.1119-.2797-.1661-.4205-.1445-.3754-.28-.7548-.4084-1.1378-.0399-.1188-.0823-.2364-.1207-.356-.3218-1.005-.5873-2.0344-.7939-3.0852-.0275-.14-.0502-.2816-.0756-.4222-.0699-.3871-.1326-.7766-.1862-1.1691-.0228-.1669-.0441-.334-.0639-.5018-.0463-.392-.083-.7867-.1127-1.1835-.0112-.1496-.0253-.2982-.0342-.4485-.0319-.5443-.0527-1.0914-.0527-1.6435,0-.6548,.0298-1.3025,.0747-1.9461,.0127-.1828,.0319-.3635,.0481-.5454,.0421-.4696,.095-.9358,.1603-1.3984,.0274-.1946,.0544-.389,.0858-.5823,.0829-.5092,.1802-1.0133,.2905-1.5128,.0256-.1161,.0454-.2341,.0725-.3497,.1406-.5997,.3024-1.1909,.4813-1.775,.0145-.0472,.0242-.0964,.0389-.1436,.0383-.123,.0886-.2405,.1287-.3629,.1439-.4393,.2972-.874,.4622-1.3033,.047-.1225,.0861-.2487,.1348-.3702,.0396-.099,.0864-.1941,.1271-.2925,.1758-.4244,.3637-.8423,.5597-1.2559,.0637-.1343,.1207-.2722,.1865-.4053,.0609-.1236,.1283-.243,.191-.3655,.2144-.4184,.4366-.8319,.6713-1.2378,.0502-.0869,.0986-.1748,.1498-.2611,.0993-.1677,.2061-.33,.3088-.4954,.1804-.2903,.3664-.5762,.5571-.8593,.0932-.1382,.1819-.2794,.2775-.4158,.0808-.1156,.1611-.2311,.2437-.3453,.2512-.3475,.5142-.6856,.7807-1.0209,.0598-.0751,.1149-.1537,.1754-.2281,.0314-.0387,.0646-.0757,.0963-.1143,.1739-.2121,.356-.4163,.5361-.623,.1891-.217,.3783-.4336,.5739-.6446,.0837-.0903,.1672-.1802,.252-.2693,.1647-.1732,.3307-.3444,.4998-.5133,.2001-.1998,.4071-.3923,.6132-.5861,.1304-.1226,.2592-.2466,.392-.3667,.2692-.2436,.5452-.4783,.8237-.7113,.2025-.1694,.4005-.344,.6078-.5077,.0571-.0451,.1194-.0838,.1769-.1285,.4219-.3278,.8564-.6383,1.297-.9418,.1741-.12,.3449-.2435,.5218-.3596,.4451-.2919,.9025-.5646,1.3647-.8311,.1884-.1088,.3731-.2227,.5643-.3271,.459-.2505,.9299-.48,1.4041-.7049,.2086-.0991,.413-.2049,.6244-.2989,.4644-.2062,.9401-.3894,1.4174-.5704,.2336-.0887,.4625-.186,.699-.2686,.4651-.162,.941-.2991,1.417-.4366,.2589-.075,.5128-.1606,.7747-.2283,.4664-.1201,.9429-.2128,1.4185-.3089,.2805-.0568,.556-.1266,.8394-.1749,.4824-.082,.9742-.1334,1.4647-.1899,.2838-.0328,.5627-.0812,.849-.1054,.6186-.0521,1.2463-.07,1.8757-.0807,.1597-.0027,.3157-.0205,.476-.0205,.5745,0,1.1435,.0232,1.7095,.0577,.1509,.0092,.3005,.0228,.4508,.0344,.4259,.033,.849,.0751,1.2693,.1272,.1558,.0193,.3116,.0376,.4666,.0594,.5027,.0709,1.0016,.1533,1.4953,.2507,.0464,.0092,.0936,.0157,.14,.0251,.0203,.0041,.0411,.0068,.0613,.011Z"/><path class="cls-2" d="M50.1149,11.0104c-.171-.2056-.3488-.4048-.5255-.6053,.106,.1203,.2073,.2448,.3113,.3669,.0693,.0814,.1458,.1563,.2142,.2385Z"/></svg>