<?xml version="1.0" encoding="utf-8"?>
<!-- Generator: Adobe Illustrator 26.3.1, SVG Export Plug-In . SVG Version: 6.00 Build 0)  -->
<svg version="1.1" id="a" xmlns="http://www.w3.org/2000/svg" xmlns:xlink="http://www.w3.org/1999/xlink" x="0px" y="0px"
	 viewBox="0 0 57.5 57.5" style="enable-background:new 0 0 57.5 57.5;" xml:space="preserve">
<style type="text/css">
	.st0{fill:none;}
	.st1{fill:#151514;}
</style>
<path d="M31.8,31.3c0.1,0,0.1,0,0.2,0c0.1,0,0.2,0,0.3,0c0.1,0,0.1,0,0.1,0c0.1,0.1,0.1,0.1,0.2,0.1c0,0,0,0,0.1,0
	c0.2,0.1,0.3,0.1,0.5,0.2c0.2,0.1,0.4,0.2,0.6,0.4c0.1,0.1,0.2,0.2,0.3,0.3c0,0,0,0,0,0c0.2,0.1,0.3,0.2,0.4,0.3
	c0.1,0.1,0.2,0.3,0.3,0.4c0,0,0,0,0,0.1c0,0.1,0.1,0.2,0.2,0.3c0.1,0.1,0.4,0.9,0.5,1.1c0,0.1,0,0.1,0,0.2c0,0.1,0,0.1,0.1,0.2
	c0.1,0.1,0.2,0.3,0.2,0.4c0,0,0,0,0,0c0,0.1,0.1,0.2,0.1,0.3c0.1,0.1,0.1,0.2,0.2,0.3c0,0,0,0,0,0c0,0,0,0.1,0.1,0.1
	c0.1,0.1,0.2,0.2,0.2,0.3c0,0,0.1,0,0.1,0.1c0,0,0.1,0.1,0.1,0.1c0.1,0.1,0.1,0.2,0.3,0.2c0.1,0,0.1,0,0.1,0.1c0,0,0,0.1,0.1,0.1
	c0.1,0.2,0.3,0.3,0.5,0.4c0,0,0.1,0,0.2,0.1c0,0,0.1,0,0.1,0.1c0.1,0.1,0.3,0.1,0.4,0.2c0.2,0,0.3,0.1,0.5,0.1
	c0.2,0,0.3,0.1,0.5,0.1c0.1,0,0.3,0,0.4,0.1c0,0,0,0,0.1,0c0.1,0,0.2,0,0.2,0.1c0,0,0.1,0.1,0.2,0.1c0.1,0,0.2,0,0.3,0.1
	c0,0,0.1,0.1,0.1,0.1c0.1,0,0.3,0,0.4,0c0,0,0.1,0,0.1,0c0,0,0.1,0,0.1,0c0,0,0.1,0,0.1,0c0.1,0,0.1,0.1,0.2,0.1
	c0.1,0,0.1,0.1,0.2,0.1c0,0,0,0,0.1,0c0.2,0,0.3,0.1,0.5,0c0.1,0,0.2,0,0.3-0.1c0,0,0.1,0,0.1,0c0.1,0,0.2-0.1,0.1-0.2
	c0,0,0,0-0.1-0.1c-0.1,0-0.2-0.1-0.2-0.2c0,0-0.1-0.1-0.1-0.1c-0.1,0-0.2-0.1-0.2-0.1c0,0,0,0,0,0c-0.1-0.1-0.2-0.3-0.3-0.3
	c0,0,0,0,0-0.1c0-0.1-0.1-0.1-0.2-0.2c0,0-0.1,0-0.1-0.1c-0.1-0.1-0.3-0.3-0.4-0.4c0,0-3.3-3-4.5-5.6c0-0.2,0-0.2,0.2-0.2
	c0.1,0,0.2,0,0.4-0.1c0.1,0,0.2-0.1,0.2-0.1c0.2,0,0.3-0.1,0.5-0.1c0,0,0,0,0,0c0.1,0,0.2,0,0.2-0.1c0.1,0,0.1,0,0.1-0.1
	c0-0.1,0-0.1,0-0.1c0,0,0,0,0,0c-0.1-0.1-0.2-0.2-0.3-0.3c0-0.1-0.1-0.1-0.1-0.2c-0.1-0.1-0.2-0.2-0.2-0.3c0,0-0.1-0.1-0.1-0.1
	c-0.1-0.1-0.2-0.2-0.3-0.3c0-0.1-0.1-0.1-0.1-0.2c0,0-0.1-0.1-0.1-0.1c-0.1-0.2-0.2-0.3-0.4-0.5c0-0.1-0.1-0.1-0.1-0.1
	c-0.1,0-0.1-0.1-0.1-0.2c0-0.1-0.1-0.2-0.2-0.3c0,0-0.1-0.1-0.1-0.1c-0.1-0.1-0.2-0.3-0.3-0.4c0,0,0-0.1-0.1-0.1
	c-0.1,0-0.1-0.1-0.2-0.2c-0.1-0.1-0.1-0.2-0.2-0.3c0,0-0.1-0.1-0.1-0.1c-0.1-0.1-0.1-0.1-0.2-0.2c0-0.1-0.1-0.1-0.1-0.2
	c-0.1-0.1-0.2-0.1-0.2-0.2c-0.1-0.3-0.4-0.4-0.5-0.7c0,0,0,0,0,0c-0.1-0.1-0.3-0.2-0.4-0.4c0-0.1-0.1-0.1-0.1-0.2
	c0,0-0.1-0.1-0.1-0.1c-0.1-0.1-0.2-0.2-0.3-0.3c-0.1-0.1-0.1-0.1-0.1-0.2c-0.1-0.1-0.1-0.1-0.2-0.2c-0.1-0.1-0.1-0.2-0.2-0.3
	c0,0-0.1-0.1-0.1-0.1c0,0-0.1-0.1-0.1-0.1c-0.1-0.1-0.1-0.2-0.2-0.3c-0.1-0.1-0.2-0.2-0.3-0.3c-0.1-0.1-0.2-0.2-0.3-0.3
	c0,0-0.1-0.1-0.1-0.1c0,0,0-0.1-0.1-0.1c-0.1-0.1-0.2-0.2-0.3-0.3c0,0,0,0,0,0c-0.1-0.1-0.3-0.2-0.4-0.4c-0.1-0.1-0.1-0.1-0.2-0.2
	c-0.1-0.1-0.2-0.2-0.3-0.3c-0.1-0.1-0.2-0.2-0.4-0.3C30,21,29.9,21,29.8,20.9c-0.1-0.1-0.1-0.2-0.2-0.2c0,0-0.1,0-0.1-0.1
	c-0.1-0.1-0.2-0.2-0.3-0.2c-0.1-0.1-0.2-0.1-0.3-0.2c0,0-0.1-0.1-0.1-0.1c-0.1-0.1-0.2-0.1-0.2-0.2c0,0-0.1-0.1-0.1-0.1
	c-0.1,0-0.2-0.1-0.3-0.2c0,0,0,0,0,0c-0.1-0.1-0.2-0.1-0.3-0.2c-0.1-0.1-0.2-0.1-0.3-0.2c0,0-0.1-0.1-0.1-0.1c0,0-0.1-0.1-0.1-0.1
	C27.2,19,27,19,26.9,18.9c-0.1,0-0.2-0.1-0.2-0.1c-0.1-0.1-0.2-0.1-0.3-0.2c-0.3-0.2-0.5-0.3-0.8-0.5c0,0-0.1,0-0.1-0.1
	c-0.1-0.1-0.2-0.1-0.2-0.2c-0.1-0.1-0.2-0.2-0.3-0.4c0,0,0,0-0.1-0.1c-0.1-0.1-0.3-0.3-0.4-0.5c-0.1-0.1-0.2-0.2-0.2-0.4
	c0,0,0,0-0.1-0.1c-0.5-0.5-1-1.7-3.4-1.5c-0.9,0.2-1.1,0.4-1.3,0.5c-0.1,0-0.1,0.1-0.2,0.2c-0.1,0.1-0.1,0.2-0.2,0.3
	c0,0-0.1,0.1-0.1,0.1c-0.1,0.1-0.1,0.3-0.2,0.4c-0.1,0.2-0.2,0.3-0.4,0.4C18.1,17,18.1,17,17.8,17c-0.2,0-0.6,0.1-1.7,0.9
	c-0.1,0.1-0.3,0.3-0.5,0.4c0,0,0,0-0.1,0.1c0,0.1,0,0.1,0,0.2c0,0,0.1,0,0.1,0c0.1,0,2.3,0.4,2.4,0.5c0,0,0.1,0,0.1,0
	c0,0,0.1,0,0.1,0.1c0.1,0,0.2,0.1,0.2,0.1c0.1,0,0.1,0.1,0.2,0.2c0,0.1,0.1,0.2,0.2,0.3c0.1,0.1,0.2,0.3,0.2,0.4c0,0,0,0.1,0,0.1
	c0,0.3,0.1,0.6,0.1,0.9c0,0.3,0.1,0.6,0.1,0.8c0,0,0,0.1,0,0.1c0,0.2,0,0.5,0,0.7c0,0.2,0,0.3,0,0.5c0,0.3,0,0.5,0.1,0.8
	c0,0.1,0.1,0.3,0.1,0.5c0,0.1,0,0.2,0,0.4c0,0.1,0,0.2,0.1,0.3c0,0.1,0,0.3,0.1,0.4c0,0,0,0,0,0c0,0.2,0.1,0.3,0.1,0.5
	c0,0.1,0,0.1,0.1,0.2c0.3,0.5,0.5,0.9,0.8,1.4c0,0,0,0.1,0.1,0.1c0.1,0.1,0.9,1.2,1,1.3c0,0,0.1,0.1,0.1,0.1
	c0.1,0.1,0.9,0.7,0.9,0.5c-0.6-0.5-0.6-0.7-0.9-1c-0.3-0.4-0.4-1-0.4-1.2c0,0,0.1-0.1,0.1-0.2c0-0.2,0-0.4,0-0.6
	c0-0.2,0-0.4-0.1-0.5c0-0.1-0.1-0.3-0.1-0.4c0-0.1,0-0.2,0.1-0.2c0.1-0.2,0.2-0.5,0.4-0.7c0.1-0.2,0.2-0.5,0.3-0.7c0,0,0,0,0,0
	c0-0.2,0.1-0.4,0.1-0.5c0,0,0-0.1,0-0.1c0-0.1,0-0.2,0-0.4c0-0.1,0-0.3,0.1-0.4c0,0,0,0,0,0c0-0.1,0-0.2,0.1-0.3c0-0.1,0-0.1,0-0.2
	c0-0.1,0.1-0.2,0.2-0.1c0.1,0,0.1,0.1,0.1,0.2c0,0.1,0,0.2,0,0.2c0.1,0.3,0.1,0.6,0.2,0.9c0.1,0.2,0.1,0.4,0.2,0.7
	c0,0.1,0.1,0.2,0.1,0.3c0.1,0.1,0.1,0.2,0.1,0.3c0,0,0,0.1,0.1,0.1c0.2,0.3,0.4,0.7,0.5,1c0,0.1,0.1,0.1,0.1,0.1
	c0,0,0.1,0.1,0.1,0.2c0,0,0.1,0.1,0.1,0.1c0,0,0.1,0.1,0.1,0.1c0.1,0.2,0.2,0.2,0.3,0.4c0,0.1,0.1,0.1,0.2,0.2
	c0.1,0.1,0.1,0.2,0.2,0.2c0,0,0.1,0.1,0.1,0.1c0,0,0,0.1,0.1,0.1c0.1,0.1,0.2,0.2,0.3,0.2c0,0,0,0,0.1,0.1c0,0,0,0,0.1,0.1
	c0.2,0.2,0.5,0.3,0.7,0.5c0,0,0,0,0,0c0.1,0.1,0.2,0.1,0.3,0.2c0.1,0.1,0.2,0.1,0.3,0.1c0.1,0,0.2,0,0.3,0.1
	c0.1,0.1,0.3,0.1,0.4,0.2c0,0,0,0,0.1,0c0.1,0.1,0.3,0.1,0.4,0.2c0.2,0.1,0.4,0.1,0.5,0.3c0.1,0.1,0,0.3-0.1,0.4
	c-0.1,0.1-0.3,0.2-0.4,0.3c-0.1,0-0.3,0.1-0.4,0.1c0,0-0.1,0-0.1,0c-0.1,0-0.2,0-0.2,0.1c-0.1,0-0.1,0-0.2,0
	c-0.1,0.1-0.2,0.1-0.4,0.1c-0.1,0-0.1,0-0.2,0c-0.1,0-0.2,0.1-0.2,0.1c-0.2,0-0.4,0.1-0.6,0.1c-0.1,0-0.2,0-0.2,0.1
	c-1,0-1.2,0-1.4-0.1c-0.4-0.1-0.7-0.2-0.7-0.2c0,0,0.5,0.3,0.5,0.3c0,0,0,0,0,0c0.2,0.1,1.5,0.5,1.7,0.6c0,0,0.1,0.1,0.1,0.1
	c0.1,0,0.1,0.1,0.2,0.1c0,0,0.1,0.1,0.1,0.1c0,0.2,0,0.4-0.1,0.5c0,0.1-0.1,0.2-0.1,0.3c0,0.1,0,0.2-0.1,0.2
	c-0.1,0.2-0.2,0.3-0.3,0.5c0,0,0,0.1-0.1,0.1c-0.1,0.2-0.2,0.4-0.3,0.5c0,0,0,0,0,0c0,0.1-0.1,0.1-0.1,0.2c-0.1,0.3-0.3,0.5-0.5,0.7
	c-0.1,0.1-0.1,0.1-0.2,0.2c0,0.1-0.1,0.1-0.1,0.2c-0.1,0.1-0.1,0.1-0.2,0.2c-0.1,0.2-0.2,0.3-0.4,0.4c-0.1,0.1-0.2,0.2-0.3,0.4
	c-0.1,0.1-0.2,0.3-0.3,0.3c-0.2,0.1-0.4,0.1-0.5,0.2c-0.1,0-0.1,0-0.2,0c-0.1,0-0.2,0-0.3,0c-0.1,0-0.1,0-0.2,0.1
	c-0.1,0-0.2,0.1-0.2,0.1c-0.1,0-0.2,0-0.3,0c0,0-0.1,0-0.2,0c-0.1,0-0.2,0.1-0.2,0.1c-0.2,0-0.3,0.1-0.5,0.3
	c-0.1,0.1-0.1,0.2-0.1,0.3c0,0.1,0,0.1,0.1,0.1c0.1,0,0.2,0,0.3,0c0.1-0.1,0.3-0.1,0.4-0.2c0,0,0,0,0,0c0,0,0.1,0,0.1,0
	c0,0,0,0.1,0,0.1c0,0-0.1,0.1-0.1,0.1c-0.1,0.2-0.2,0.3-0.4,0.5c-0.1,0.1,0,0.2,0.1,0.2c0.1,0,0.2-0.1,0.3-0.2
	c0.1-0.1,0.2-0.2,0.4-0.2c0.1-0.1,0.2-0.1,0.3-0.2c0.1-0.1,0.1-0.1,0.2-0.1c0.1,0,0.2,0,0.3,0c0,0,0.1,0,0.1-0.1
	c0.1-0.1,0.2-0.1,0.3-0.2c0,0,0,0,0.1,0c0.1-0.1,0.2-0.1,0.3-0.1c0.1,0,0.1,0,0.2,0c0.1-0.1,0.2-0.1,0.3-0.1c0.1,0,0.2,0,0.4,0
	c0.1,0,0.2,0,0.2,0c0.1,0,0.2,0,0.2,0c0.2-0.1,0.3-0.1,0.4,0c0.1,0,0.2,0.1,0.3,0.1c0.1,0,0.1,0,0.2-0.1c0-0.1,0-0.1-0.1-0.2
	c-0.1-0.1-0.3-0.1-0.5-0.1c-0.1,0-0.2,0-0.3-0.1c-0.1-0.1-0.2-0.2-0.4-0.2c-0.1-0.1-0.1-0.1,0-0.3c0.1-0.1,0.1-0.2,0.2-0.3
	c0.1-0.2,0.3-0.4,0.4-0.6c0.1-0.1,0.1-0.2,0.2-0.3c0.2-0.2,0.3-0.4,0.5-0.6c0.1-0.2,0.3-0.3,0.4-0.4c0,0,0,0,0,0
	c0.1-0.1,0.1-0.1,0.2-0.2c0.1-0.2,0.3-0.3,0.4-0.5c0.1-0.1,0.2-0.2,0.2-0.3c0.1-0.1,0.2-0.2,0.3-0.3c0.2-0.1,0.3-0.2,0.4-0.3
	c0.1-0.1,0.2-0.2,0.3-0.3c0.1-0.1,0.2-0.2,0.2-0.3c0-0.1,0-0.2,0.1-0.3c0-0.1,0.1-0.2,0.2-0.2c0.1,0,0.1,0,0.2,0c0,0,0.1,0,0.1,0
	c0.1,0,0.1,0,0.2,0c0.1,0,0.2,0,0.2,0c0,0,0.1,0.1,0,0.3c0,0.1,0,0.2,0,0.3c0,0.1,0,0.3,0,0.4c0,0.1-0.2,0.6-0.2,0.8
	c0,0.2-0.1,0.3-0.2,0.4c0,0-0.5,0.8-0.7,1.1c0,0-0.1,0.1-0.1,0.1c-0.1,0-0.2,0.1-0.3,0.1c-0.1,0-0.3,0-0.4,0c-0.1,0-0.1,0-0.2,0
	c-0.1,0-0.2,0-0.2,0c-0.1,0-0.2,0-0.2,0c-0.1-0.1-0.2-0.1-0.4,0c-0.1,0-0.2,0-0.3,0c-0.1,0-0.2,0.1-0.2,0.2c0,0.1,0,0.1,0,0.2
	c0,0.1-0.1,0.1-0.1,0.2c0,0-0.1,0-0.1,0.1c0,0-0.1,0.1-0.1,0.1c0,0.1,0,0.1,0.1,0.1c0.1,0,0.2,0,0.2,0c0.1-0.1,0.3-0.1,0.4-0.2
	c0,0,0.1,0,0.1,0c0.1,0,0.2-0.1,0.4-0.1c0.1-0.1,0.1,0,0.1,0c0,0.1,0,0.1-0.1,0.1c-0.1,0.1-0.2,0.1-0.3,0.1
	c-0.2,0.1-0.3,0.2-0.5,0.3c-0.1,0.1-0.1,0.2-0.1,0.3c0,0.1,0.1,0.1,0.2,0c0,0,0,0,0,0c0.1-0.1,0.3-0.2,0.4-0.2c0,0,0.1,0,0.1,0
	c0.1,0,0.2-0.1,0.2-0.1c0.2-0.1,0.4-0.1,0.6-0.2c0,0,0,0,0,0c0.2-0.1,0.4-0.1,0.6,0c0.1,0,0.2,0.1,0.3,0c0.1,0,0.2,0,0.2,0
	c0.1,0,0.2,0,0.3-0.1c0.1,0,0.1-0.1,0.2-0.1c0.2,0,0.4,0,0.6,0c0.1,0,0.2,0,0.2,0c0,0,0.1,0,0.1,0c0.1,0,0.2,0,0.3,0
	c0.1,0,0.3,0,0.4,0c0.1,0,0.1,0,0.2,0c0,0,0.1,0,0.1-0.1c0,0,0-0.1-0.1-0.1c0,0,0,0,0,0c-0.1,0-0.1,0-0.2,0c-0.1,0-0.4-0.3-0.9-0.2
	c-0.1,0-0.2,0-0.3,0c-0.1,0-0.3-0.1-0.4,0c-0.1,0-0.1,0-0.2,0c0,0,0-0.1,0-0.1c-0.1-0.1,0-0.2,0-0.3c0-0.1,0.1-0.2,0.1-0.2
	c0.1-0.2,0.3-0.7,0.4-0.8c0.1-0.1,0.1-0.2,0.2-0.3c0.1-0.1,0.3-0.3,0.3-0.4c0,0,0,0,0-0.1c0.1-0.1,0.1-0.3,0.1-0.4
	c0-0.1,0-0.2,0-0.3c0-0.1,0.1-0.2,0.1-0.2c0.1-0.1,0.1-0.2,0.2-0.3c0,0,0.1-0.1,0.1-0.1c0.1,0,0.1,0,0.2,0c0.2,0,0.4,0,0.6,0
	c0.1,0,0.1,0,0.2-0.1c0,0,0.1,0,0.1,0c0.1,0,0.2,0,0.4,0C31.8,31.3,31.8,31.3,31.8,31.3z M31,24c0,0,0.1,0.1,0,0.2
	C31,24.1,30.9,24.1,31,24C30.9,24.1,30.9,24,31,24C30.9,24,30.9,24,31,24z M31.2,25.2c0,0-0.1,0.1-0.1,0.1c-0.1,0-0.3,0.1-0.4,0.1
	c0,0,0,0,0,0c-0.2,0-0.5,0-0.7,0c-0.2,0-0.5,0-0.7,0c-0.2,0-0.5,0-0.7,0c-0.1,0-0.2,0-0.3-0.1c0,0-0.1,0-0.1,0c-0.1,0-0.2,0-0.3,0
	c-0.1,0-0.2,0-0.2-0.1c-0.1,0-0.1,0-0.2,0c-0.1,0-0.2,0-0.3-0.1c-0.1,0-0.1,0-0.2,0c-0.1,0-0.2,0-0.3-0.1c0,0-0.1,0-0.1,0
	c-0.1,0-0.2-0.1-0.3-0.1c-0.1-0.1-0.2-0.1-0.4-0.2c-0.1-0.1-0.3-0.1-0.4-0.2c0,0,0,0,0,0c-0.2-0.1-0.3-0.2-0.4-0.3
	c0,0-0.1,0-0.1-0.1c0,0-0.1,0-0.1-0.1c-0.1-0.2-0.3-0.3-0.5-0.4c-0.1-0.1-0.2-0.2-0.3-0.4c0-0.1-0.1-0.1-0.1-0.2c0,0,0,0,0,0
	c-0.1-0.2-0.2-0.4-0.4-0.5c0-0.1-0.1-0.1-0.1-0.2c0-0.1-0.1-0.1-0.1-0.2c0-0.1,0-0.3,0-0.4c0-0.1,0-0.1,0-0.2c0,0,0,0,0,0
	c-0.1-0.1,0-0.3,0-0.4c0-0.1,0-0.3,0.1-0.4c0.1-0.3,0.4-0.5,0.6-0.6c0.1,0,0.3-0.1,0.4,0c0,0,0.1,0,0.1,0c0.1,0,0.2,0,0.3,0
	c0.4,0,0.8,0.1,1.2,0.1c0.1,0,0.2,0,0.3,0.1c0,0,0,0,0,0c0.2,0,0.3,0.1,0.4,0.2c0.1,0,0.2,0.1,0.3,0.1c0.1,0.1,0.2,0.1,0.3,0.2
	c0.1,0.1,0.3,0.2,0.4,0.3c0.1,0.1,0.2,0.2,0.3,0.2c0.1,0.1,0.2,0.1,0.3,0.2c0.2,0.2,0.4,0.3,0.6,0.5c0.1,0.1,0.1,0.1,0.1,0.3
	c0,0.1,0.1,0.2,0.1,0.3c0,0,0.1,0.1,0.1,0.1c0.1,0.1,0.1,0.1,0.2,0c0.1,0,0.1,0,0.1,0c0.1,0.1,0.1,0.1,0.2,0.2
	c0.1,0,0.1,0.1,0.2,0.1c0,0,0,0,0,0c0.1,0,0.2,0.3,0.2,0.4c0,0-0.1,0-0.1,0.1c0,0,0,0.1,0,0.1c0.1,0.1,0.1,0.2,0.2,0.3
	c0,0,0.1,0,0.1,0.1c0,0,0.1,0,0.1-0.1c0,0,0-0.1-0.1-0.1c0,0-0.1-0.1,0-0.2c0.1,0,0.1,0,0.1,0c0,0.1,0.1,0.1,0.1,0.2
	c0,0.1,0,0.1,0,0.2c-0.1,0.1-0.1,0.1,0,0.2c0,0,0,0.1,0.1,0.1c0.1,0.1,0.1,0.1,0.2,0.2c0.1,0.1,0.1,0.1,0.1,0.2c0,0,0,0.1,0.1,0.1
	c0.1,0.1,0.2,0.2,0.3,0.4C31.3,25,31.3,25.1,31.2,25.2z"/>
<g>
	<path d="M11.1,10.1L16,11l-2.4-2.9l0.8-0.7l3.5,4.1l-0.7,0.6l-4.9-0.9l2.5,2.9l-0.8,0.7l-3.5-4.1L11.1,10.1z"/>
	<path d="M20.2,4.5c0.5-0.2,1-0.2,1.5-0.2c0.5,0.1,0.9,0.3,1.3,0.6c0.4,0.3,0.7,0.7,0.9,1.2c0.2,0.5,0.2,1,0.1,1.5
		c-0.1,0.5-0.3,0.9-0.7,1.3S22.6,9.6,22,9.7c-0.5,0.2-1,0.2-1.6,0.2s-1-0.3-1.3-0.6c-0.4-0.3-0.7-0.7-0.8-1.2
		c-0.2-0.5-0.2-0.9-0.1-1.4c0.1-0.5,0.3-0.9,0.7-1.3C19.2,5,19.6,4.7,20.2,4.5z M19.3,7.8c0.1,0.3,0.3,0.6,0.6,0.8
		c0.2,0.2,0.5,0.3,0.9,0.4c0.3,0.1,0.7,0,1-0.1c0.5-0.2,0.9-0.5,1.1-0.9c0.2-0.4,0.2-0.9,0.1-1.4c-0.1-0.3-0.3-0.6-0.6-0.8
		c-0.2-0.2-0.5-0.4-0.9-0.4c-0.3,0-0.7,0-1,0.1c-0.3,0.1-0.6,0.3-0.9,0.6c-0.2,0.2-0.4,0.5-0.4,0.9S19.2,7.4,19.3,7.8z"/>
	<path d="M28.4,3.1c0.5,0,0.9,0.1,1.2,0.4c0.3,0.3,0.5,0.6,0.5,1.1c0,0.3-0.1,0.6-0.2,0.8c-0.2,0.2-0.4,0.4-0.7,0.5
		c0.2,0.1,0.3,0.2,0.5,0.4c0.1,0.2,0.3,0.4,0.5,0.8c0.3,0.7,0.6,1.1,0.8,1.3l-1.2,0c-0.1-0.1-0.2-0.3-0.3-0.6
		c-0.3-0.6-0.5-1-0.7-1.2c-0.1-0.2-0.3-0.3-0.4-0.4c-0.1-0.1-0.3-0.1-0.4-0.1l-0.4,0l0,2.3l-1,0l-0.1-5.4L28.4,3.1z M28.2,5.4
		c0.3,0,0.5-0.1,0.6-0.2C28.9,5.1,29,4.9,29,4.7c0-0.2-0.1-0.4-0.2-0.6c-0.2-0.1-0.4-0.2-0.7-0.2l-0.6,0l0,1.5L28.2,5.4z"/>
	<path d="M35.1,3.8c0.5,0.1,1,0.4,1.4,0.8l-0.2,0.9c-0.5-0.5-0.9-0.8-1.3-0.9c-0.3-0.1-0.5-0.1-0.6,0S34,4.8,34,5
		c0,0.2,0,0.4,0.3,0.6c0.1,0.1,0.3,0.3,0.8,0.6c0.4,0.3,0.6,0.6,0.8,0.9c0.1,0.3,0.1,0.6,0.1,1c-0.1,0.5-0.4,0.8-0.8,1
		c-0.4,0.2-0.8,0.2-1.4,0.1c-0.3-0.1-0.6-0.2-0.8-0.3s-0.5-0.3-0.7-0.6l0.3-1c0.4,0.6,0.9,1,1.4,1.1c0.2,0.1,0.5,0.1,0.6,0
		c0.2-0.1,0.3-0.2,0.3-0.4c0.1-0.2,0-0.5-0.2-0.7c-0.2-0.2-0.4-0.4-0.7-0.6c-0.4-0.3-0.6-0.6-0.8-0.9c-0.1-0.3-0.2-0.6-0.1-0.9
		c0.1-0.4,0.4-0.8,0.8-0.9C34.1,3.7,34.6,3.7,35.1,3.8z"/>
	<path d="M40.2,5.8l-2.2,4.7c-0.2,0.5-0.6,0.9-1,1.1c-0.4,0.2-0.9,0.2-1.3-0.1c0,0-0.1,0-0.1,0c0,0-0.1,0-0.1-0.1l0.3-0.8
		c0.6,0.3,1,0.1,1.3-0.6l2.2-4.6L40.2,5.8z"/>
	<path d="M45.2,9c0.4,0.4,0.7,0.8,0.9,1.2c0.2,0.5,0.3,0.9,0.2,1.5c-0.1,0.5-0.3,1-0.6,1.4c-0.3,0.4-0.7,0.7-1.2,0.8s-1,0.2-1.5,0.1
		s-1-0.3-1.4-0.7c-0.4-0.4-0.7-0.8-0.9-1.3c-0.2-0.5-0.3-1-0.2-1.5c0.1-0.5,0.3-0.9,0.6-1.3c0.3-0.4,0.7-0.7,1.2-0.8s1-0.2,1.5-0.1
		C44.3,8.4,44.7,8.6,45.2,9z M41.9,9.9c-0.2,0.3-0.4,0.6-0.4,0.9c-0.1,0.3,0,0.6,0.1,0.9c0.1,0.3,0.3,0.6,0.6,0.8
		c0.4,0.4,0.9,0.5,1.4,0.5s0.9-0.3,1.3-0.7c0.2-0.3,0.4-0.6,0.4-0.9c0.1-0.3,0-0.6-0.1-0.9c-0.1-0.3-0.3-0.6-0.6-0.8
		c-0.3-0.2-0.6-0.4-0.9-0.5c-0.3-0.1-0.6,0-0.9,0.1C42.4,9.4,42.2,9.6,41.9,9.9z M45.5,8c-0.1,0.1-0.2,0.2-0.3,0.2
		c-0.1,0-0.3,0-0.4-0.1c-0.1-0.1-0.2-0.2-0.2-0.4c0-0.1,0-0.3,0.1-0.4c0.1-0.1,0.2-0.2,0.3-0.2c0.1,0,0.3,0,0.4,0.1
		c0.1,0.1,0.2,0.2,0.2,0.4C45.6,7.8,45.6,7.9,45.5,8z M46.9,9.2c-0.1,0.1-0.2,0.2-0.3,0.2c-0.1,0-0.3,0-0.4-0.1
		C46.1,9.2,46,9.1,46,9s0-0.3,0.1-0.4c0.1-0.1,0.2-0.2,0.3-0.2c0.1,0,0.3,0,0.4,0.1C47,8.6,47,8.7,47,8.9C47.1,9,47,9.1,46.9,9.2z"
		/>
</g>
<polygon class="st0" points="7.5,39.6 9.1,37.8 6.8,38 "/>
<path d="M5.7,25.9c0.1,0,0.1,0,0.2,0c0.2,0,0.4-0.1,0.6-0.2C6.8,25.5,6.9,25.3,7,25c0.1-0.3,0-0.6-0.2-0.8c-0.2-0.2-0.4-0.4-0.7-0.4
	c-0.1,0-0.1,0-0.2,0c-0.2,0-0.4,0.1-0.6,0.2c-0.2,0.2-0.4,0.4-0.4,0.7c-0.1,0.3,0,0.6,0.2,0.8C5.2,25.7,5.4,25.8,5.7,25.9z"/>
<polygon points="8.9,34.2 5.2,33.4 8.3,31.2 8.1,30.1 3.2,33.6 3.3,34 9.1,35.2 "/>
<path d="M11.7,37.3c-0.1,0-0.1,0-0.2,0c-0.1,0-0.1,0-0.2,0c-0.1,0.1-0.2,0.2-0.3,0.3c0,0.1,0,0.3,0,0.4c0.1,0.1,0.2,0.2,0.3,0.3
	c0.1,0,0.1,0,0.2,0c0.1,0,0.1,0,0.2,0c0.1-0.1,0.2-0.2,0.3-0.3c0-0.1,0-0.3,0-0.4C11.9,37.5,11.8,37.4,11.7,37.3z"/>
<path d="M9.9,36.9l-5.8,0.3l0.5,1L6,38l1,2.2l-1,1.1l0.5,1l3.9-4.4L9.9,36.9z M7.5,39.6L6.8,38l2.3-0.2L7.5,39.6z"/>
<path d="M10.5,36.6c0.1,0,0.1,0,0.2,0c0.1,0,0.1,0,0.2,0c0.1-0.1,0.2-0.2,0.3-0.3c0-0.1,0-0.3,0-0.4c-0.1-0.1-0.2-0.2-0.3-0.3
	c-0.1,0-0.1,0-0.2,0c-0.1,0-0.1,0-0.2,0c-0.1,0.1-0.2,0.2-0.3,0.3c0,0.1,0,0.3,0,0.4C10.3,36.4,10.4,36.5,10.5,36.6z"/>
<path d="M13.5,43c-0.1-0.5-0.3-1-0.6-1.4c-0.3-0.4-0.7-0.7-1.2-0.8c-0.1,0-0.2,0-0.3,0c-0.3,0-0.6,0.1-0.9,0.3
	c-0.3,0.2-0.4,0.5-0.5,0.8c-0.1,0.3,0,0.7,0.1,1.2c0.1,0.4,0.2,0.7,0.2,1c0,0.3,0,0.5-0.2,0.7c-0.1,0.1-0.2,0.1-0.3,0.1
	c-0.1,0-0.1,0-0.2,0c-0.2-0.1-0.4-0.2-0.5-0.4c-0.3-0.4-0.5-1-0.5-1.7c-0.3,0.2-0.5,0.4-0.8,0.6C7.9,43.7,8,44,8,44.3
	c0.1,0.2,0.3,0.5,0.5,0.8c0.3,0.4,0.7,0.7,1.1,0.7c0.1,0,0.2,0,0.3,0c0.3,0,0.6-0.1,0.9-0.3c0.3-0.2,0.5-0.5,0.5-0.8
	c0.1-0.3,0.1-0.7-0.1-1.2c-0.1-0.6-0.2-0.9-0.2-1c0-0.3,0-0.5,0.2-0.7c0.1-0.1,0.2-0.1,0.3-0.1c0.1,0,0.1,0,0.2,0
	c0.2,0.1,0.3,0.2,0.5,0.4c0.3,0.3,0.5,0.8,0.5,1.5C13,43.4,13.3,43.2,13.5,43z"/>
<polygon points="18,46.3 14.1,43.3 13.6,44 15.1,45.1 12.3,48.7 13.1,49.4 16,45.8 17.5,47 "/>
<polygon points="21.4,48.8 21.7,48.1 18.6,46.6 16.3,51.5 19.5,53 19.9,52.3 17.6,51.2 18.2,49.8 20.4,50.8 20.7,50.1 18.6,49.1 
	19.2,47.8 "/>
<path d="M24.6,48.8c-0.6-0.1-1.3-0.3-1.9-0.4c-0.4,1.8-0.7,3.5-1.1,5.3c0.3,0.1,0.7,0.1,1,0.2c0.2-0.7,0.3-1.5,0.5-2.2
	c0.1,0,0.2,0.1,0.4,0.1c0.2,0,0.3,0.1,0.4,0.2c0.1,0.1,0.2,0.3,0.3,0.5c0.1,0.2,0.2,0.6,0.4,1.3c0.1,0.3,0.1,0.5,0.2,0.6
	c0.4,0.1,0.8,0.2,1.1,0.2c-0.1-0.3-0.3-0.8-0.4-1.5c-0.1-0.4-0.2-0.7-0.3-0.9c-0.1-0.2-0.2-0.3-0.4-0.5c0.3-0.1,0.6-0.2,0.8-0.4
	c0.2-0.2,0.3-0.4,0.4-0.7c0.1-0.4,0-0.8-0.2-1.2C25.5,49.1,25.1,48.9,24.6,48.8z M24.9,50.5c0,0.2-0.2,0.4-0.3,0.5
	c-0.1,0.1-0.3,0.1-0.4,0.1c-0.1,0-0.2,0-0.3,0c-0.2,0-0.4-0.1-0.7-0.1c0.1-0.5,0.2-1,0.3-1.5c0.2,0,0.4,0.1,0.6,0.1
	c0.3,0.1,0.5,0.2,0.6,0.3C24.9,50,25,50.2,24.9,50.5z"/>
<path d="M30.6,51.7C30.6,51.7,30.6,51.7,30.6,51.7c0.2-0.2,0.4-0.3,0.5-0.5c0.1-0.2,0.2-0.4,0.2-0.7c0-0.4-0.2-0.7-0.5-0.9
	c-0.3-0.2-0.7-0.3-1.1-0.3c0,0-0.1,0-0.1,0c-0.7,0-1.3,0-2,0.1c0.1,1.8,0.1,3.6,0.2,5.4c0.8,0,1.5-0.1,2.3-0.1c0.4,0,0.7-0.1,1-0.2
	c0.3-0.1,0.5-0.3,0.6-0.6c0.1-0.2,0.2-0.5,0.2-0.8c0-0.3-0.1-0.6-0.3-0.9C31.3,51.9,31,51.8,30.6,51.7z M28.7,50.1
	c0.3,0,0.5,0,0.8,0c0,0,0,0,0,0c0.2,0,0.4,0.1,0.5,0.2c0.2,0.1,0.2,0.3,0.2,0.5c0,0.2-0.1,0.4-0.2,0.6c-0.2,0.1-0.4,0.2-0.6,0.2
	c-0.2,0-0.4,0-0.7,0C28.7,51,28.7,50.5,28.7,50.1z M30.5,53.6c-0.2,0.1-0.4,0.2-0.8,0.2c-0.3,0-0.6,0-0.9,0c0-0.5,0-1-0.1-1.5
	c0.3,0,0.7,0,1,0c0,0,0,0,0.1,0c0.3,0,0.5,0.1,0.7,0.2c0.2,0.1,0.3,0.3,0.3,0.5C30.8,53.2,30.7,53.4,30.5,53.6z"/>
<path d="M38,48.6c-0.4-0.3-0.8-0.5-1.3-0.6c-0.2,0-0.3,0-0.5,0c-0.3,0-0.7,0.1-1.1,0.2c-0.6,0.2-1,0.5-1.4,0.8
	c-0.4,0.4-0.6,0.8-0.7,1.3c-0.1,0.5-0.1,1,0.1,1.4c0.2,0.5,0.4,0.9,0.8,1.2c0.4,0.3,0.8,0.5,1.3,0.6c0.2,0,0.3,0,0.5,0
	c0.3,0,0.7-0.1,1-0.2c0.5-0.2,1-0.4,1.3-0.8c0.4-0.4,0.6-0.8,0.7-1.3c0.1-0.5,0.1-1-0.1-1.5C38.6,49.4,38.3,49,38,48.6z M37.7,51.7
	c-0.2,0.4-0.6,0.7-1.1,0.9c-0.2,0.1-0.5,0.1-0.7,0.1c-0.1,0-0.2,0-0.3,0c-0.3-0.1-0.6-0.2-0.9-0.4c-0.2-0.2-0.4-0.5-0.5-0.8
	c-0.1-0.3-0.1-0.7-0.1-1c0.1-0.3,0.2-0.6,0.4-0.8c0.2-0.2,0.5-0.4,0.9-0.5c0.2-0.1,0.5-0.1,0.7-0.1c0.1,0,0.2,0,0.3,0
	c0.3,0.1,0.6,0.2,0.9,0.4c0.2,0.2,0.4,0.5,0.5,0.8C37.9,50.7,37.9,51.2,37.7,51.7z"/>
<polygon points="42.7,45.1 42.2,44.4 38.2,47.1 38.6,47.8 40.2,46.7 42.8,50.5 43.7,49.9 41.1,46.1 "/>
<polygon points="46.4,41 45.8,40.4 42.6,44.1 43.2,44.6 44.4,43.2 47.9,46.2 48.6,45.4 45.1,42.4 "/>
<polygon points="50.6,41.1 49.3,40.3 50.4,38.3 49.6,37.9 48.5,40 47.3,39.3 48.4,37.1 47.7,36.7 46.1,39.8 50.8,42.4 52.5,39.2 
	51.8,38.8 "/>
<polygon points="49.1,31.8 52.8,32.6 48.4,34.9 48.2,35.8 53.4,37 53.7,36 49.9,35.1 54.4,32.8 54.6,32 49.3,30.8 "/>
<path d="M51.6,23.9c-0.1,0-0.1,0-0.2,0c-0.3,0-0.5,0.2-0.7,0.4c-0.2,0.2-0.2,0.5-0.2,0.8c0,0.3,0.2,0.5,0.4,0.7
	c0.2,0.1,0.4,0.2,0.6,0.2c0.1,0,0.1,0,0.2,0c0.3-0.1,0.5-0.2,0.7-0.4c0.2-0.2,0.2-0.5,0.2-0.8c-0.1-0.3-0.2-0.5-0.4-0.7
	C52.1,23.9,51.9,23.9,51.6,23.9z"/>
<path d="M28.7,47C38.8,47,47,38.8,47,28.7s-8.2-18.2-18.2-18.2c-10.1,0-18.2,8.2-18.2,18.2S18.7,47,28.7,47z M12.5,35.6
	c-0.5-1.1-0.8-2.2-1-3.3c-0.2-1.2-0.4-2.4-0.4-3.6c0-1.2,0.1-2.4,0.4-3.6c0.2-1.1,0.6-2.3,1-3.3c0.4-1.1,1-2.1,1.6-3
	c0.6-0.9,1.4-1.8,2.2-2.6c0.8-0.8,1.7-1.5,2.6-2.2c0.9-0.6,2-1.2,3-1.6c1.1-0.5,2.2-0.8,3.3-1c1.2-0.2,2.4-0.4,3.6-0.4
	s2.4,0.1,3.6,0.4c1.1,0.2,2.3,0.6,3.3,1c1.1,0.4,2.1,1,3,1.6c0.9,0.6,1.8,1.4,2.6,2.2c0.8,0.8,1.5,1.7,2.2,2.6c0.6,0.9,1.2,2,1.6,3
	c0.5,1.1,0.8,2.2,1,3.3c0.2,1.2,0.4,2.4,0.4,3.6s-0.1,2.4-0.4,3.6c-0.2,1.1-0.6,2.3-1,3.3c-0.4,1.1-1,2.1-1.6,3
	c-0.6,0.9-1.4,1.8-2.2,2.6c-0.8,0.8-1.7,1.5-2.6,2.2c-0.9,0.6-2,1.2-3,1.6c-1.1,0.5-2.2,0.8-3.3,1c-1.2,0.2-2.4,0.4-3.6,0.4
	c-1.2,0-2.4-0.1-3.6-0.4c-1.1-0.2-2.3-0.6-3.3-1c-1.1-0.4-2.1-1-3-1.6c-0.9-0.6-1.8-1.4-2.6-2.2c-0.8-0.8-1.5-1.7-2.2-2.6
	C13.4,37.7,12.9,36.7,12.5,35.6z"/>
<path class="st1" d="M17.5,2.8C17.3,2.8,17.1,2.9,17,3c-0.4,0.2-0.8,0.4-1.1,0.5c-0.1,0.1-0.3,0.1-0.4,0.2c-0.5,0.3-1,0.5-1.4,0.8
	c-0.1,0.1-0.2,0.1-0.3,0.2c-0.4,0.2-0.7,0.5-1.1,0.7c-0.1,0.1-0.3,0.2-0.4,0.3c-0.4,0.3-0.7,0.5-1.1,0.8c-0.1,0.1-0.2,0.1-0.3,0.2
	C10.4,7.2,10,7.5,9.6,7.9C9.4,8,9.3,8.1,9.2,8.2C8.9,8.5,8.6,8.8,8.3,9.1C8.2,9.2,8.1,9.4,8,9.5c-0.4,0.4-0.7,0.8-1.1,1.2
	c0,0,0,0.1-0.1,0.1c-0.3,0.4-0.7,0.8-1,1.3c-0.1,0.1-0.2,0.3-0.3,0.4c-0.2,0.3-0.5,0.7-0.7,1c-0.1,0.1-0.2,0.3-0.3,0.4
	c-0.3,0.5-0.6,0.9-0.8,1.4c-0.1,0.1-0.1,0.2-0.2,0.3C3.4,16,3.2,16.4,3,16.9C3,17,2.9,17.2,2.8,17.3c-0.2,0.4-0.4,0.8-0.5,1.2
	c0,0.1-0.1,0.2-0.1,0.3C2,19.5,1.8,20,1.6,20.5c0,0.2-0.1,0.3-0.1,0.5c-0.1,0.4-0.2,0.8-0.3,1.2c0,0.2-0.1,0.3-0.1,0.5
	c-0.1,0.5-0.2,1.1-0.3,1.6c-0.2,1.4-0.3,2.9-0.3,4.4c0,15.6,12.7,28.3,28.3,28.3c0,0,0,0,0,0c0.7,0,1.3,0,2-0.1c0.2,0,0.3,0,0.5,0
	c0.6-0.1,1.3-0.1,1.9-0.2c0.1,0,0.2,0,0.2,0c0.6-0.1,1.2-0.2,1.7-0.3c0.1,0,0.3-0.1,0.4-0.1c0.6-0.2,1.2-0.3,1.8-0.5
	c0.1,0,0.2-0.1,0.3-0.1c0.5-0.2,1.1-0.4,1.6-0.6c0.1,0,0.2-0.1,0.3-0.1c0.6-0.2,1.2-0.5,1.7-0.8c0.1-0.1,0.2-0.1,0.3-0.2
	c0.5-0.3,1-0.6,1.5-0.9c0.1,0,0.1-0.1,0.2-0.1c0.5-0.3,1.1-0.7,1.6-1c0.1-0.1,0.2-0.1,0.3-0.2c1.1-0.8,2-1.6,3-2.5
	c0.1-0.1,0.2-0.1,0.2-0.2c0.9-0.9,1.8-1.9,2.6-2.9c0.1-0.1,0.1-0.1,0.2-0.2c0.4-0.5,0.8-1.1,1.2-1.6c0,0,0-0.1,0.1-0.1
	c0.4-0.5,0.7-1.1,1-1.7c0,0,0.1-0.1,0.1-0.1c0.3-0.6,0.6-1.2,0.9-1.8c0-0.1,0.1-0.1,0.1-0.2c0.3-0.6,0.5-1.2,0.8-1.8c0,0,0,0,0-0.1
	c0.1-0.2,0.1-0.3,0.2-0.5c0,0,0,0,0-0.1c0.3-0.7,0.5-1.5,0.7-2.2c0.2-0.7,0.3-1.4,0.5-2.2c0-0.1,0-0.2,0.1-0.3
	c0.1-0.7,0.2-1.4,0.3-2.1c0-0.1,0-0.2,0-0.4c0.1-0.7,0.1-1.4,0.1-2.2c0,0,0,0,0,0c0-0.5,0-1.1,0-1.6c0-0.5-0.1-1-0.1-1.5
	c0-0.2,0-0.4-0.1-0.6c0-0.4-0.1-0.7-0.2-1.1c0-0.2-0.1-0.4-0.1-0.6c-0.1-0.3-0.1-0.7-0.2-1c0-0.2-0.1-0.4-0.1-0.5
	c-0.1-0.5-0.2-0.9-0.4-1.4c0-0.1,0-0.1,0-0.2c-0.2-0.7-0.5-1.4-0.7-2c0,0,0,0,0,0c-0.5-1.3-1.1-2.5-1.8-3.6c0,0,0,0,0,0
	c-0.2-0.3-0.3-0.6-0.5-0.9c0,0,0,0,0,0c-0.3-0.5-0.7-1-1-1.5c0,0,0,0,0-0.1c-0.1-0.2-0.2-0.3-0.4-0.5c0,0,0,0,0-0.1
	c-0.3-0.4-0.6-0.8-0.9-1.1c0-0.1-0.1-0.1-0.1-0.2c-0.3-0.3-0.6-0.7-0.9-1c-0.1-0.1-0.1-0.1-0.2-0.2c-0.3-0.3-0.6-0.6-1-1
	c0,0-0.1-0.1-0.1-0.1c-1.1-1.1-2.4-2-3.7-2.9c-0.1-0.1-0.2-0.1-0.2-0.2c-0.3-0.2-0.7-0.4-1-0.6c-0.1-0.1-0.2-0.1-0.4-0.2
	c-0.3-0.2-0.7-0.4-1-0.5c-0.1-0.1-0.3-0.1-0.4-0.2c-0.3-0.2-0.7-0.3-1-0.5c-0.1-0.1-0.2-0.1-0.4-0.2c-0.4-0.2-0.9-0.4-1.3-0.5
	c0,0-0.1,0-0.1,0c-0.5-0.2-1-0.3-1.5-0.5c-0.1,0-0.3-0.1-0.4-0.1c-0.4-0.1-0.7-0.2-1.1-0.3c-0.2,0-0.4-0.1-0.6-0.1
	c-0.3-0.1-0.6-0.1-1-0.2c-0.2,0-0.4-0.1-0.6-0.1c-0.3-0.1-0.6-0.1-0.9-0.1c-0.2,0-0.4-0.1-0.6-0.1c-0.3,0-0.7-0.1-1-0.1
	c-0.2,0-0.4,0-0.6,0c-0.5,0-0.9,0-1.4,0c-0.1,0-0.1,0-0.2,0c0,0-0.1,0-0.1,0c-0.6,0-1.1,0-1.7,0.1c-0.2,0-0.3,0-0.5,0
	c-0.5,0-0.9,0.1-1.4,0.1c-0.1,0-0.2,0-0.4,0c-1.2,0.2-2.4,0.4-3.5,0.7c0,0,0,0,0,0c-0.8,0.2-1.5,0.4-2.2,0.7c0,0-0.1,0-0.1,0
	C18.4,2.3,17.9,2.5,17.5,2.8z M34.3,1.5c0.5,0.1,1.1,0.2,1.6,0.4c0.1,0,0.3,0.1,0.4,0.1c0,0,0.1,0,0.1,0c0.1,0,0.3,0.1,0.4,0.1
	c0.2,0.1,0.4,0.1,0.7,0.2c0.2,0.1,0.3,0.1,0.5,0.2c0.3,0.1,0.5,0.2,0.8,0.3c0.1,0,0.2,0.1,0.3,0.1c0.2,0.1,0.3,0.1,0.5,0.2
	c0.4,0.2,0.8,0.4,1.2,0.5c0.1,0,0.2,0.1,0.3,0.1c0,0,0,0,0.1,0c0.5,0.2,0.9,0.5,1.4,0.7c0.1,0.1,0.2,0.1,0.3,0.2
	c0,0,0.1,0.1,0.1,0.1c0.1,0.1,0.2,0.1,0.4,0.2c0.2,0.1,0.4,0.2,0.6,0.4c0.1,0.1,0.3,0.2,0.4,0.3c0.2,0.2,0.4,0.3,0.7,0.5
	c0.1,0.1,0.2,0.1,0.3,0.2c0.1,0.1,0.3,0.2,0.4,0.3C46,7,46.3,7.2,46.6,7.5c0.1,0.1,0.2,0.2,0.3,0.2c0,0,0.1,0,0.1,0.1
	c0.4,0.3,0.8,0.7,1.2,1.1C48.2,8.9,48.2,9,48.3,9c0.1,0.1,0.1,0.1,0.2,0.2c0.1,0.1,0.2,0.2,0.3,0.3c0.2,0.2,0.3,0.3,0.5,0.5
	c0.1,0.1,0.2,0.3,0.3,0.4c0.2,0.2,0.4,0.4,0.5,0.6c0.1,0.1,0.1,0.2,0.2,0.2c0.1,0.1,0.2,0.3,0.3,0.4c0.2,0.3,0.5,0.6,0.7,0.9
	c0.1,0.1,0.2,0.2,0.2,0.3c0,0,0.1,0.1,0.1,0.1c0.3,0.4,0.6,0.9,0.9,1.3c0.1,0.1,0.2,0.3,0.2,0.4c0.1,0.1,0.2,0.3,0.2,0.4
	c0.1,0.1,0.2,0.3,0.3,0.4c0.2,0.4,0.4,0.7,0.6,1.1c0.1,0.1,0.1,0.2,0.2,0.4c0.3,0.6,0.5,1.2,0.8,1.9c0.1,0.2,0.2,0.4,0.2,0.6
	c0.2,0.5,0.3,1,0.5,1.5c0.1,0.2,0.1,0.4,0.2,0.6c0.2,0.7,0.3,1.3,0.5,2c0,0.2,0.1,0.3,0.1,0.5c0.1,0.6,0.2,1.1,0.2,1.7
	c0,0.2,0,0.4,0.1,0.6c0.1,0.7,0.1,1.4,0.1,2.1c0,0,0,0,0,0.1c0,0.6,0,1.1-0.1,1.6c0,0.2,0,0.3,0,0.5c0,0.4-0.1,0.8-0.1,1.2
	c0,0.2,0,0.3-0.1,0.5c-0.1,0.4-0.1,0.8-0.2,1.2c0,0.1,0,0.3-0.1,0.4c-0.2,1-0.5,2.1-0.8,3.1c0,0.1-0.1,0.3-0.1,0.4
	c-0.1,0.4-0.3,0.7-0.4,1.1c-0.1,0.2-0.1,0.3-0.2,0.5c-0.1,0.4-0.3,0.7-0.5,1.1c-0.1,0.1-0.1,0.3-0.2,0.4c-0.4,0.9-0.9,1.8-1.5,2.7
	c-0.1,0.1-0.2,0.2-0.2,0.4c-0.2,0.3-0.4,0.6-0.6,0.9c-0.1,0.1-0.2,0.3-0.3,0.4c-0.2,0.3-0.5,0.6-0.7,0.9c-0.1,0.1-0.2,0.2-0.3,0.3
	c-0.6,0.8-1.3,1.6-2.1,2.3c-0.1,0.1-0.2,0.2-0.3,0.3c-0.3,0.3-0.5,0.5-0.8,0.8c-0.1,0.1-0.2,0.2-0.4,0.3c-0.3,0.2-0.6,0.5-0.9,0.7
	c-0.1,0.1-0.1,0.1-0.2,0.2c0,0-0.1,0-0.1,0.1c-0.9,0.7-1.8,1.3-2.8,1.9c-0.1,0.1-0.2,0.1-0.4,0.2c-1,0.6-2.1,1.1-3.3,1.6
	c-0.1,0.1-0.3,0.1-0.4,0.2c-1.1,0.4-2.3,0.8-3.5,1.1c-0.1,0-0.3,0.1-0.4,0.1c-1.2,0.3-2.4,0.5-3.7,0.6c-0.1,0-0.3,0-0.4,0
	c-0.6,0-1.3,0.1-1.9,0.1c-0.6,0-1.2,0-1.8-0.1c-0.2,0-0.3,0-0.5,0c-0.5,0-0.9-0.1-1.4-0.1c-0.1,0-0.3,0-0.4-0.1
	c-0.6-0.1-1.1-0.2-1.7-0.3c-0.1,0-0.2,0-0.3-0.1c-0.5-0.1-0.9-0.2-1.4-0.3c-0.2,0-0.3-0.1-0.5-0.1c-0.5-0.1-0.9-0.3-1.4-0.4
	c-0.1,0-0.2-0.1-0.2-0.1c-0.5-0.2-1-0.4-1.6-0.6c-0.1-0.1-0.2-0.1-0.4-0.2c-0.4-0.2-0.8-0.4-1.2-0.6c-0.1-0.1-0.3-0.1-0.4-0.2
	c-1-0.5-1.9-1.1-2.9-1.7c-0.1-0.1-0.2-0.2-0.3-0.2c-0.4-0.3-0.7-0.5-1.1-0.8c-0.1-0.1-0.2-0.1-0.3-0.2c-0.4-0.4-0.9-0.7-1.3-1.1
	c-0.1-0.1-0.1-0.1-0.2-0.2c-0.4-0.3-0.7-0.7-1-1c-0.1-0.1-0.2-0.2-0.3-0.3c-0.3-0.4-0.7-0.7-1-1.1c0,0-0.1-0.1-0.1-0.1
	c-0.4-0.4-0.7-0.9-1-1.3c-0.1-0.1-0.1-0.2-0.2-0.3c-0.3-0.4-0.5-0.8-0.8-1.1c-0.1-0.1-0.1-0.2-0.2-0.3c-0.6-0.9-1.1-1.9-1.6-2.9
	c-0.1-0.1-0.1-0.2-0.2-0.4c-0.2-0.4-0.3-0.7-0.5-1.1c-0.1-0.1-0.1-0.3-0.2-0.4c-0.1-0.4-0.3-0.8-0.4-1.1c0-0.1-0.1-0.2-0.1-0.4
	c-0.3-1-0.6-2-0.8-3.1c0-0.1-0.1-0.3-0.1-0.4c-0.1-0.4-0.1-0.8-0.2-1.2c0-0.2,0-0.3-0.1-0.5c0-0.4-0.1-0.8-0.1-1.2
	c0-0.1,0-0.3,0-0.4C1,29.8,1,29.3,1,28.7c0-0.7,0-1.3,0.1-1.9c0-0.2,0-0.4,0-0.5c0-0.5,0.1-0.9,0.2-1.4c0-0.2,0.1-0.4,0.1-0.6
	c0.1-0.5,0.2-1,0.3-1.5c0-0.1,0-0.2,0.1-0.3c0.1-0.6,0.3-1.2,0.5-1.8c0,0,0-0.1,0-0.1c0-0.1,0.1-0.2,0.1-0.4
	c0.1-0.4,0.3-0.9,0.5-1.3c0-0.1,0.1-0.2,0.1-0.4c0-0.1,0.1-0.2,0.1-0.3c0.2-0.4,0.4-0.8,0.6-1.3c0.1-0.1,0.1-0.3,0.2-0.4
	c0.1-0.1,0.1-0.2,0.2-0.4c0.2-0.4,0.4-0.8,0.7-1.2c0.1-0.1,0.1-0.2,0.1-0.3c0.1-0.2,0.2-0.3,0.3-0.5c0.2-0.3,0.4-0.6,0.6-0.9
	C5.8,13.1,5.9,13,6,12.9c0.1-0.1,0.2-0.2,0.2-0.3c0.3-0.3,0.5-0.7,0.8-1c0.1-0.1,0.1-0.2,0.2-0.2c0,0,0.1-0.1,0.1-0.1
	c0.2-0.2,0.4-0.4,0.5-0.6c0.2-0.2,0.4-0.4,0.6-0.6c0.1-0.1,0.2-0.2,0.3-0.3C8.8,9.5,9,9.3,9.1,9.1c0.2-0.2,0.4-0.4,0.6-0.6
	c0.1-0.1,0.3-0.2,0.4-0.4c0.3-0.2,0.5-0.5,0.8-0.7c0.2-0.2,0.4-0.3,0.6-0.5c0.1,0,0.1-0.1,0.2-0.1c0.4-0.3,0.9-0.6,1.3-0.9
	c0.2-0.1,0.3-0.2,0.5-0.4c0.4-0.3,0.9-0.6,1.4-0.8c0.2-0.1,0.4-0.2,0.6-0.3c0.5-0.3,0.9-0.5,1.4-0.7c0.2-0.1,0.4-0.2,0.6-0.3
	C18,3.1,18.5,3,18.9,2.8c0.2-0.1,0.5-0.2,0.7-0.3c0.5-0.2,0.9-0.3,1.4-0.4c0.3-0.1,0.5-0.2,0.8-0.2c0.5-0.1,0.9-0.2,1.4-0.3
	c0.3-0.1,0.6-0.1,0.8-0.2c0.5-0.1,1-0.1,1.5-0.2c0.3,0,0.6-0.1,0.8-0.1C27,1,27.6,1,28.3,1c0.2,0,0.3,0,0.5,0c0.6,0,1.1,0,1.7,0.1
	c0.2,0,0.3,0,0.5,0c0.4,0,0.8,0.1,1.3,0.1c0.2,0,0.3,0,0.5,0.1c0.5,0.1,1,0.2,1.5,0.3C34.2,1.5,34.2,1.5,34.3,1.5
	C34.3,1.5,34.3,1.5,34.3,1.5z"/>
<path class="st1" d="M50.1,11c-0.2-0.2-0.3-0.4-0.5-0.6c0.1,0.1,0.2,0.2,0.3,0.4C50,10.9,50,10.9,50.1,11z"/>
</svg>
