<?xml version="1.0" encoding="utf-8"?>
<!-- Generator: Adobe Illustrator 26.2.1, SVG Export Plug-In . SVG Version: 6.00 Build 0)  -->
<svg version="1.1" id="Lager_1" xmlns="http://www.w3.org/2000/svg" xmlns:xlink="http://www.w3.org/1999/xlink" x="0px" y="0px"
	 viewBox="0 0 57.5 57.5" style="enable-background:new 0 0 57.5 57.5;" xml:space="preserve">
<style type="text/css">
	.st0{fill:#151514;}
</style>
<g>
	<path d="M6.9,15.2c0.3-0.5,0.7-0.8,1.1-1.1c0.4-0.3,0.9-0.4,1.4-0.4s1,0.1,1.4,0.4c0.4,0.3,0.8,0.6,1,1.1s0.3,0.9,0.3,1.4
		s-0.2,1-0.5,1.5s-0.7,0.8-1.1,1.1c-0.4,0.3-0.9,0.4-1.4,0.4s-1-0.1-1.4-0.4s-0.7-0.6-1-1.1c-0.2-0.4-0.3-0.9-0.3-1.4
		C6.4,16.2,6.6,15.7,6.9,15.2z M8.3,18.3c0.3,0.2,0.6,0.3,1,0.3c0.3,0,0.6-0.1,0.9-0.2c0.3-0.2,0.5-0.4,0.7-0.7
		c0.3-0.5,0.4-1,0.3-1.4c-0.1-0.5-0.4-0.9-0.9-1.2c-0.3-0.2-0.6-0.3-1-0.3c-0.3,0-0.6,0.1-0.9,0.2c-0.3,0.2-0.5,0.4-0.7,0.7
		s-0.3,0.6-0.3,1c0,0.3,0.1,0.6,0.2,0.9C7.7,17.9,8,18.1,8.3,18.3z"/>
	<path d="M11.2,10.1l3.1,3.4l1.9-1.8l0.5,0.6L14,14.8l-3.6-4L11.2,10.1z"/>
	<path d="M17.4,5.7c0.5-0.2,1-0.4,1.5-0.4s1,0.1,1.4,0.4s0.8,0.6,1,1.1s0.3,0.9,0.3,1.4s-0.2,1-0.5,1.4s-0.7,0.7-1.2,1
		c-0.5,0.2-1,0.4-1.5,0.4s-1-0.2-1.4-0.4c-0.4-0.3-0.7-0.6-1-1.1c-0.2-0.4-0.3-0.9-0.3-1.4s0.2-1,0.5-1.4S16.9,6,17.4,5.7z M16.9,9
		c0.2,0.3,0.4,0.6,0.6,0.8c0.3,0.2,0.6,0.3,0.9,0.3s0.7-0.1,1-0.2c0.5-0.2,0.8-0.6,1-1.1s0.1-1-0.1-1.4C20.2,7,20,6.8,19.7,6.6
		c-0.3-0.2-0.6-0.3-0.9-0.3s-0.7,0.1-1,0.2c-0.3,0.2-0.6,0.4-0.8,0.7c-0.2,0.3-0.3,0.6-0.3,0.9C16.7,8.4,16.8,8.7,16.9,9z"/>
	<path d="M26,3.2L26.2,4L24,4.4l0.2,1.4l2.2-0.4l0.1,0.8l-2.2,0.4l0.4,2.3l-1,0.2l-0.9-5.3L26,3.2z"/>
	<path d="M29.9,3.1c0.5,0,1,0.2,1.5,0.5v0.9c-0.5-0.4-1-0.5-1.5-0.6c-0.3,0-0.5,0-0.6,0.1C29.2,4.1,29,4.3,29,4.4
		c0,0.2,0.1,0.4,0.4,0.6c0.1,0.1,0.4,0.2,0.9,0.5C30.7,5.7,31,6,31.2,6.2c0.2,0.3,0.3,0.6,0.3,0.9c0,0.5-0.2,0.8-0.5,1.1
		s-0.8,0.4-1.3,0.4c-0.3,0-0.6-0.1-0.9-0.2C28.6,8.3,28.3,8.2,28,8V7c0.6,0.5,1.1,0.8,1.6,0.8c0.3,0,0.5,0,0.6-0.1
		c0.2-0.1,0.2-0.2,0.3-0.4c0-0.2-0.1-0.5-0.4-0.6c-0.2-0.1-0.5-0.3-0.9-0.5s-0.7-0.4-0.9-0.7c-0.3-0.4-0.4-0.7-0.3-1
		c0-0.5,0.2-0.8,0.5-1.1C28.8,3.2,29.3,3.1,29.9,3.1z"/>
	<path d="M37.2,4.5L37,5.3l-2.2-0.6L34.4,6l2.2,0.6l-0.2,0.8l-2.2-0.6l-0.6,2.3l-1-0.3L34,3.6L37.2,4.5z"/>
	<path d="M42.1,6.8c0.5,0.3,0.8,0.7,1.1,1.1c0.3,0.4,0.4,0.9,0.4,1.4s-0.1,1-0.4,1.4c-0.3,0.4-0.6,0.8-1.1,1
		c-0.4,0.2-0.9,0.3-1.4,0.3s-1-0.2-1.5-0.5s-0.8-0.7-1.1-1.1C37.8,10,37.7,9.5,37.7,9s0.1-1,0.4-1.4c0.3-0.4,0.6-0.8,1.1-1
		c0.4-0.2,0.9-0.3,1.4-0.3C41.1,6.3,41.6,6.5,42.1,6.8z M39,8.2c-0.2,0.3-0.3,0.6-0.3,1c0,0.3,0.1,0.6,0.2,0.9s0.4,0.5,0.7,0.7
		c0.5,0.3,1,0.4,1.4,0.3c0.5-0.1,0.9-0.4,1.2-0.9c0.2-0.3,0.3-0.6,0.3-1s-0.1-0.6-0.2-0.9c-0.2-0.3-0.4-0.5-0.7-0.7s-0.6-0.3-1-0.3
		s-0.6,0-0.9,0.2C39.4,7.6,39.2,7.8,39,8.2z"/>
	<path d="M47.9,11.8c0.3,0.4,0.5,0.8,0.5,1.2s-0.2,0.8-0.5,1.1c-0.2,0.2-0.5,0.3-0.8,0.4c-0.3,0-0.6,0-0.9-0.2c0,0.2,0.1,0.4,0,0.6
		s-0.1,0.5-0.3,0.9c-0.3,0.7-0.5,1.2-0.5,1.4l-0.8-0.9c0-0.1,0.1-0.3,0.2-0.6c0.2-0.6,0.4-1,0.4-1.3c0.1-0.2,0.1-0.4,0.1-0.6
		c0-0.2-0.1-0.3-0.2-0.4L45,13.2l-1.7,1.5l-0.7-0.8l4.1-3.6L47.9,11.8z M46.1,13.1c0.2,0.2,0.4,0.3,0.6,0.3c0.2,0,0.4,0,0.6-0.2
		c0.2-0.2,0.3-0.3,0.3-0.5s-0.1-0.4-0.3-0.6l-0.4-0.5l-1.1,1L46.1,13.1z"/>
	<path d="M51.5,16.9c0.2,0.5,0.4,1,0.4,1.5L51,18.8c0-0.7,0-1.2-0.2-1.6c-0.1-0.2-0.3-0.4-0.4-0.5c-0.2-0.1-0.3-0.1-0.5,0
		s-0.3,0.3-0.3,0.6c0,0.1,0,0.4,0,1c0,0.5,0,0.9-0.2,1.2c-0.1,0.3-0.4,0.5-0.7,0.7c-0.4,0.2-0.8,0.2-1.2,0.1c-0.4-0.2-0.7-0.5-1-1
		c-0.2-0.3-0.3-0.6-0.3-0.8c0-0.3-0.1-0.6,0-0.9l0.9-0.5c-0.2,0.7-0.1,1.3,0.1,1.8c0.1,0.2,0.3,0.4,0.4,0.5s0.3,0.1,0.5,0
		s0.3-0.3,0.4-0.6c0-0.3,0-0.6,0-1c0-0.5,0-0.9,0.2-1.2c0.1-0.3,0.3-0.5,0.6-0.7c0.4-0.2,0.8-0.2,1.2-0.1
		C50.9,16,51.3,16.4,51.5,16.9z"/>
</g>
<path d="M51.6,26c0.1,0,0.1,0,0.2,0c0.3-0.1,0.5-0.2,0.7-0.4c0.2-0.2,0.2-0.5,0.2-0.8c-0.1-0.3-0.2-0.5-0.4-0.7
	c-0.2-0.1-0.4-0.2-0.6-0.2c-0.1,0-0.1,0-0.2,0c-0.3,0-0.5,0.2-0.7,0.4c-0.2,0.2-0.2,0.5-0.2,0.8s0.2,0.5,0.4,0.7
	C51.2,25.9,51.4,26,51.6,26z"/>
<path d="M5.7,25.9c0.1,0,0.1,0,0.2,0c0.2,0,0.4-0.1,0.6-0.2C6.8,25.5,6.9,25.3,7,25s0-0.6-0.2-0.8c-0.2-0.2-0.4-0.4-0.7-0.4
	c-0.1,0-0.1,0-0.2,0c-0.2,0-0.4,0.1-0.6,0.2c-0.2,0.2-0.4,0.4-0.4,0.7c-0.1,0.3,0,0.6,0.2,0.8C5.2,25.7,5.4,25.8,5.7,25.9z"/>
<polygon points="8.9,34.2 5.2,33.4 8.3,31.2 8.1,30.1 3.2,33.6 3.3,34 9.1,35.2 "/>
<path d="M11.7,37.3c-0.1,0-0.1,0-0.2,0c-0.1,0-0.1,0-0.2,0c-0.1,0.1-0.2,0.2-0.3,0.3c0,0.1,0,0.3,0,0.4c0.1,0.1,0.2,0.2,0.3,0.3
	c0.1,0,0.1,0,0.2,0c0.1,0,0.1,0,0.2,0c0.1-0.1,0.2-0.2,0.3-0.3c0-0.1,0-0.3,0-0.4C11.9,37.5,11.8,37.4,11.7,37.3z"/>
<path d="M9.9,36.9l-5.8,0.3l0.5,1L6,38l1,2.2l-1,1.1l0.5,1l3.9-4.4L9.9,36.9z M7.5,39.6L6.8,38l2.3-0.2L7.5,39.6z"/>
<path d="M10.5,36.6c0.1,0,0.1,0,0.2,0c0.1,0,0.1,0,0.2,0c0.1-0.1,0.2-0.2,0.3-0.3c0-0.1,0-0.3,0-0.4c-0.1-0.1-0.2-0.2-0.3-0.3
	c-0.1,0-0.1,0-0.2,0c-0.1,0-0.1,0-0.2,0c-0.1,0.1-0.2,0.2-0.3,0.3c0,0.1,0,0.3,0,0.4C10.3,36.4,10.4,36.5,10.5,36.6z"/>
<path d="M13.5,43c-0.1-0.5-0.3-1-0.6-1.4s-0.7-0.7-1.2-0.8c-0.1,0-0.2,0-0.3,0c-0.3,0-0.6,0.1-0.9,0.3c-0.3,0.2-0.4,0.5-0.5,0.8
	s0,0.7,0.1,1.2c0.1,0.4,0.2,0.7,0.2,1s0,0.5-0.2,0.7c-0.1,0.1-0.2,0.1-0.3,0.1s-0.1,0-0.2,0c-0.2-0.1-0.4-0.2-0.5-0.4
	c-0.3-0.4-0.5-1-0.5-1.7c-0.3,0.2-0.5,0.4-0.8,0.6C7.9,43.7,8,44,8,44.3c0.1,0.2,0.3,0.5,0.5,0.8c0.3,0.4,0.7,0.7,1.1,0.7
	c0.1,0,0.2,0,0.3,0c0.3,0,0.6-0.1,0.9-0.3c0.3-0.2,0.5-0.5,0.5-0.8c0.1-0.3,0.1-0.7-0.1-1.2c-0.1-0.6-0.2-0.9-0.2-1
	c0-0.3,0-0.5,0.2-0.7c0.1-0.1,0.2-0.1,0.3-0.1s0.1,0,0.2,0c0.2,0.1,0.3,0.2,0.5,0.4c0.3,0.3,0.5,0.8,0.5,1.5
	C13,43.4,13.3,43.2,13.5,43z"/>
<polygon points="18,46.3 14.1,43.3 13.6,44 15.1,45.1 12.3,48.7 13.1,49.4 16,45.8 17.5,47 "/>
<polygon points="21.4,48.8 21.7,48.1 18.6,46.6 16.3,51.5 19.5,53 19.9,52.3 17.6,51.2 18.2,49.8 20.4,50.8 20.7,50.1 18.6,49.1 
	19.2,47.8 "/>
<path d="M24.6,48.8c-0.6-0.1-1.3-0.3-1.9-0.4c-0.4,1.8-0.7,3.5-1.1,5.3c0.3,0.1,0.7,0.1,1,0.2c0.2-0.7,0.3-1.5,0.5-2.2
	c0.1,0,0.2,0.1,0.4,0.1c0.2,0,0.3,0.1,0.4,0.2c0.1,0.1,0.2,0.3,0.3,0.5c0.1,0.2,0.2,0.6,0.4,1.3c0.1,0.3,0.1,0.5,0.2,0.6
	c0.4,0.1,0.8,0.2,1.1,0.2c-0.1-0.3-0.3-0.8-0.4-1.5c-0.1-0.4-0.2-0.7-0.3-0.9c-0.1-0.2-0.2-0.3-0.4-0.5c0.3-0.1,0.6-0.2,0.8-0.4
	c0.2-0.2,0.3-0.4,0.4-0.7c0.1-0.4,0-0.8-0.2-1.2C25.5,49.1,25.1,48.9,24.6,48.8z M24.9,50.5c0,0.2-0.2,0.4-0.3,0.5
	c-0.1,0.1-0.3,0.1-0.4,0.1s-0.2,0-0.3,0c-0.2,0-0.4-0.1-0.7-0.1c0.1-0.5,0.2-1,0.3-1.5c0.2,0,0.4,0.1,0.6,0.1
	c0.3,0.1,0.5,0.2,0.6,0.3C24.9,50,25,50.2,24.9,50.5z"/>
<path d="M30.6,51.7L30.6,51.7c0.2-0.2,0.4-0.3,0.5-0.5s0.2-0.4,0.2-0.7c0-0.4-0.2-0.7-0.5-0.9s-0.7-0.3-1.1-0.3h-0.1
	c-0.7,0-1.3,0-2,0.1c0.1,1.8,0.1,3.6,0.2,5.4c0.8,0,1.5-0.1,2.3-0.1c0.4,0,0.7-0.1,1-0.2c0.3-0.1,0.5-0.3,0.6-0.6
	c0.1-0.2,0.2-0.5,0.2-0.8s-0.1-0.6-0.3-0.9C31.3,51.9,31,51.8,30.6,51.7z M28.7,50.1c0.3,0,0.5,0,0.8,0l0,0c0.2,0,0.4,0.1,0.5,0.2
	c0.2,0.1,0.2,0.3,0.2,0.5s-0.1,0.4-0.2,0.6c-0.2,0.1-0.4,0.2-0.6,0.2s-0.4,0-0.7,0C28.7,51,28.7,50.5,28.7,50.1z M30.5,53.6
	c-0.2,0.1-0.4,0.2-0.8,0.2c-0.3,0-0.6,0-0.9,0c0-0.5,0-1-0.1-1.5c0.3,0,0.7,0,1,0c0,0,0,0,0.1,0c0.3,0,0.5,0.1,0.7,0.2
	c0.2,0.1,0.3,0.3,0.3,0.5C30.8,53.2,30.7,53.4,30.5,53.6z"/>
<path d="M38,48.6c-0.4-0.3-0.8-0.5-1.3-0.6c-0.2,0-0.3,0-0.5,0c-0.3,0-0.7,0.1-1.1,0.2c-0.6,0.2-1,0.5-1.4,0.8
	c-0.4,0.4-0.6,0.8-0.7,1.3c-0.1,0.5-0.1,1,0.1,1.4c0.2,0.5,0.4,0.9,0.8,1.2c0.4,0.3,0.8,0.5,1.3,0.6c0.2,0,0.3,0,0.5,0
	c0.3,0,0.7-0.1,1-0.2c0.5-0.2,1-0.4,1.3-0.8c0.4-0.4,0.6-0.8,0.7-1.3c0.1-0.5,0.1-1-0.1-1.5C38.6,49.4,38.3,49,38,48.6z M37.7,51.7
	c-0.2,0.4-0.6,0.7-1.1,0.9c-0.2,0.1-0.5,0.1-0.7,0.1c-0.1,0-0.2,0-0.3,0c-0.3-0.1-0.6-0.2-0.9-0.4c-0.2-0.2-0.4-0.5-0.5-0.8
	s-0.1-0.7-0.1-1c0.1-0.3,0.2-0.6,0.4-0.8s0.5-0.4,0.9-0.5c0.2-0.1,0.5-0.1,0.7-0.1c0.1,0,0.2,0,0.3,0c0.3,0.1,0.6,0.2,0.9,0.4
	c0.2,0.2,0.4,0.5,0.5,0.8C37.9,50.7,37.9,51.2,37.7,51.7z"/>
<polygon points="42.7,45.1 42.2,44.4 38.2,47.1 38.6,47.8 40.2,46.7 42.8,50.5 43.7,49.9 41.1,46.1 "/>
<polygon points="46.4,41 45.8,40.4 42.6,44.1 43.2,44.6 44.4,43.2 47.9,46.2 48.6,45.4 45.1,42.4 "/>
<polygon points="50.6,41.1 49.3,40.3 50.4,38.3 49.6,37.9 48.5,40 47.3,39.3 48.4,37.1 47.7,36.7 46.1,39.8 50.8,42.4 52.5,39.2 
	51.8,38.8 "/>
<polygon points="48.4,34.9 48.2,35.8 53.4,37 53.7,36 49.9,35.1 54.4,32.8 54.6,32 49.3,30.8 49.1,31.8 52.8,32.6 "/>
<path d="M28.7,47C38.8,47,47,38.8,47,28.7s-8.2-18.2-18.2-18.2c-10.1,0-18.2,8.2-18.2,18.2S18.7,47,28.7,47z M12.5,35.6
	c-0.5-1.1-0.8-2.2-1-3.3c-0.2-1.2-0.4-2.4-0.4-3.6s0.1-2.4,0.4-3.6c0.2-1.1,0.6-2.3,1-3.3c0.4-1.1,1-2.1,1.6-3s1.4-1.8,2.2-2.6
	c0.8-0.8,1.7-1.5,2.6-2.2c0.9-0.6,2-1.2,3-1.6c1.1-0.5,2.2-0.8,3.3-1c1.2-0.2,2.4-0.4,3.6-0.4s2.4,0.1,3.6,0.4
	c1.1,0.2,2.3,0.6,3.3,1c1.1,0.4,2.1,1,3,1.6s1.8,1.4,2.6,2.2s1.5,1.7,2.2,2.6c0.6,0.9,1.2,2,1.6,3c0.5,1.1,0.8,2.2,1,3.3
	c0.2,1.2,0.4,2.4,0.4,3.6s-0.1,2.4-0.4,3.6c-0.2,1.1-0.6,2.3-1,3.3c-0.4,1.1-1,2.1-1.6,3s-1.4,1.8-2.2,2.6s-1.7,1.5-2.6,2.2
	c-0.9,0.6-2,1.2-3,1.6c-1.1,0.5-2.2,0.8-3.3,1c-1.2,0.2-2.4,0.4-3.6,0.4s-2.4-0.1-3.6-0.4c-1.1-0.2-2.3-0.6-3.3-1
	c-1.1-0.4-2.1-1-3-1.6s-1.8-1.4-2.6-2.2c-0.8-0.8-1.5-1.7-2.2-2.6C13.4,37.7,12.9,36.7,12.5,35.6z"/>
<path class="st0" d="M28.7,0.4C13.1,0.4,0.4,13.1,0.4,28.7S13.1,57,28.7,57S57,44.3,57,28.7C57.1,13.1,44.4,0.4,28.7,0.4z
	 M28.7,56.5C13.4,56.5,1,44.1,1,28.7C1,13.4,13.4,1,28.7,1s27.8,12.5,27.8,27.8S44.1,56.5,28.7,56.5z"/>
<path d="M14.3,23.1c0,0.1,0,0.3,0.1,0.4c0.1,0.4,0.2,0.8,0.3,1.2c0,0.2,0.1,0.3,0.1,0.5c0.1,0.4,0.2,0.8,0.3,1.1
	c0.1,0.5,0.2,0.9,0.3,1.4c0,0.2,0.1,0.4,0.1,0.7c0.1,0.5,0.2,0.9,0.3,1.4c0,0.2,0.1,0.4,0.1,0.6c0.1,0.4,0.2,0.9,0.3,1.3
	c0.1,0.4,0.1,0.7,0.2,1.1c0.1,0.4,0.2,0.8,0.3,1.1l0,0c0.3,0,0.6,0.3,0.6,0.6S17.2,35,17,35.1c0.1,0.3,0.9,3.9,0.9,3.9
	c0.2,0.8,4.9,1.2,11.1,1.2s11.1-0.5,11.1-1.2l0.4-1.8c-0.1-0.1-0.2-0.3-0.2-0.5c0-0.3,0.2-0.5,0.5-0.6l0,0c0.1-0.3,0.7-3.2,0.8-3.5
	c0.1-0.2,0.1-0.5,0.2-0.7c0.1-0.4,0.2-0.8,0.3-1.2c0-0.2,0.1-0.4,0.1-0.6s0.1-0.3,0.1-0.5c0.1-0.3,0.1-0.6,0.2-1
	c0-0.1,0.1-0.3,0.1-0.4c0.1-0.3,0.1-0.5,0.1-0.8c0.1-0.5,0.3-1,0.4-1.6c0.1-0.3,0.1-0.6,0.2-0.8c0.1-0.4,0.2-0.7,0.2-1.1
	c0-0.1,0-0.2,0.1-0.3c0.1-0.3,0.1-0.5,0.2-0.8c0-0.2,0.1-0.4,0.1-0.6c0-0.1,0.1-0.3,0.1-0.4c-0.1-0.1-0.2-0.1-0.3-0.1
	c-0.3,0.1-0.6,0.1-0.9,0.3c-0.3,0.1-0.5,0.4-0.7,0.7c-0.1,0.3-0.2,0.5-0.2,0.8c0,0,0,0,0,0.1c-0.1,0-0.2,0-0.3,0c-0.4,0-0.7,0-1,0.2
	s-0.4,0.5-0.4,0.8c0,0.5,0.2,1,0.4,1.5c0.1,0.3,0.3,0.7,0.4,1c0.1,0.2,0.1,0.5,0.2,0.7c0.1,0.4,0.1,0.7,0,1.1c0,0.2-0.1,0.3-0.2,0.5
	c0-0.1-0.1-0.2-0.1-0.3c-0.1-0.1-0.1-0.3-0.2-0.4c0-0.1-0.1-0.1-0.1-0.2s-0.1-0.2-0.2-0.3l-0.1-0.1c-0.1-0.2-0.2-0.4-0.4-0.5
	c-0.3-0.3-0.7-0.5-1.2-0.3c-0.2,0.1-0.4,0.2-0.6,0.4c-0.2,0.3-0.4,0.6-0.3,1.1c0,0.2,0.1,0.4,0.2,0.6c0.1,0.3,0.3,0.5,0.6,0.6
	c0.5,0.2,0.9,0.2,1.3-0.2c0,0,0,0,0.1,0c-0.1,0.2-0.1,0.3-0.2,0.5c-0.2,0.3-0.5,0.4-0.7,0.6c-0.3,0.1-0.7,0.2-1,0.2
	c-0.1,0-0.2,0-0.3,0c0-0.2,0-0.4-0.2-0.5c-0.8-0.6-1-0.6-1.1-0.6c0-0.2,0-0.4,0-0.5c-0.1-0.5-0.1-1-0.5-1.4
	c-0.1-0.1-0.2-0.2-0.2-0.3h-0.1c-0.2,0.1-0.4,0.2-0.5,0.3c-0.3,0.4-0.5,0.8-0.7,1.2c0,0.1-0.1,0.2-0.1,0.4c-0.2-0.1-0.3-0.1-0.5,0
	s-0.2,0.3-0.3,0.5C32.9,30,32.3,29.7,32,29l0,0c0.1,0,0.2,0.1,0.3,0.1c0.6,0.1,1.1-0.1,1.3-0.7c0.1-0.1,0.1-0.2,0.1-0.4
	c0.1-0.3,0-0.6-0.1-0.9c-0.2-0.5-0.6-0.8-1.1-0.8c-0.2,0-0.5,0-0.7,0.2c-0.2,0.1-0.4,0.3-0.5,0.6c-0.1,0.3-0.3,0.6-0.4,1
	c0,0.1-0.1,0.2-0.2,0.4c0-0.1-0.1-0.2-0.1-0.3c-0.2-0.5-0.3-1-0.2-1.5c0-0.3,0.1-0.6,0.2-0.9c0-0.2,0.1-0.3,0.2-0.4
	c0.1-0.2,0.2-0.5,0.4-0.7c0.2-0.3,0.4-0.6,0.6-0.8c0.1-0.1,0.2-0.3,0.2-0.5c0-0.1-0.1-0.3-0.1-0.4c-0.1-0.4-0.4-0.6-0.7-0.8
	c-0.2-0.1-0.4-0.2-0.6,0c-0.1,0-0.1,0.1-0.2,0.1c0-0.2-0.1-0.3-0.1-0.4s-0.1-0.2-0.1-0.3c-0.1-0.3-0.3-0.5-0.4-0.7
	c-0.2-0.3-0.5-0.5-0.8-0.7c-0.1-0.1-0.2-0.1-0.3-0.1c-0.1,0-0.3,0.1-0.4,0.2c-0.2,0.2-0.4,0.3-0.5,0.4c-0.1,0.2-0.3,0.3-0.4,0.5
	c-0.2,0.3-0.4,0.7-0.4,1.1c-0.2-0.2-0.5-0.3-0.7-0.1c-0.2,0.1-0.3,0.2-0.4,0.3c-0.1,0.1-0.2,0.3-0.3,0.5c-0.2,0.3-0.2,0.7,0,0.9
	c0.3,0.3,0.5,0.7,0.7,1s0.4,0.6,0.4,0.9c0,0.1,0.1,0.2,0.1,0.3c0.1,0.2,0.1,0.4,0.1,0.6c0,0.3,0,0.6,0,0.8c0,0.4-0.2,0.7-0.3,1
	c-0.1-0.1-0.1-0.2-0.1-0.2c-0.2-0.4-0.3-0.8-0.6-1.2c-0.1-0.2-0.3-0.3-0.5-0.5c0,0-0.1,0-0.1-0.1c-0.3-0.1-0.5-0.1-0.8,0
	c-0.2,0.1-0.3,0.1-0.5,0.3c-0.1,0.1-0.2,0.2-0.3,0.4c-0.1,0.3-0.2,0.7-0.1,1s0.3,0.6,0.5,0.7c0.3,0.2,0.6,0.2,0.9,0.1
	c0.1,0,0.2,0,0.3-0.1c-0.2,0.4-0.4,0.6-0.7,0.8c-0.3,0.2-0.6,0.3-0.9,0.4c0-0.2-0.1-0.4-0.3-0.5c-0.2-0.1-0.3-0.1-0.5,0.1
	c-0.2-0.9-0.5-1.6-1.3-2c-0.1,0.1-0.1,0.1-0.2,0.2c-0.3,0.3-0.4,0.7-0.5,1.2c-0.1,0.3-0.1,0.5-0.1,0.8c0,0,0,0.1,0,0.2
	c-0.2-0.1-0.3,0.1-0.4,0.2c-0.2,0.1-0.1,0.3-0.2,0.5c-0.1,0-0.1,0-0.2,0c-0.2,0-0.4-0.1-0.5-0.1c-0.4,0-0.7-0.2-1-0.4l-0.1-0.1
	c-0.1-0.1-0.2-0.2-0.2-0.3c-0.1-0.1-0.1-0.2-0.1-0.4c0.4,0.4,1,0.4,1.5,0.2c0.3-0.2,0.5-0.4,0.5-0.8c0.1-0.5,0-0.9-0.2-1.3
	c-0.1-0.1-0.3-0.2-0.4-0.3c0-0.3-0.2-0.3-0.4-0.3c-0.2,0-0.4,0.1-0.6,0.2c-0.3,0.2-0.5,0.6-0.8,0.9c-0.1,0.1-0.1,0.2-0.2,0.4
	c-0.1,0.1-0.1,0.2-0.2,0.3c-0.1,0.1-0.1,0.3-0.2,0.4c-0.1-0.2-0.2-0.3-0.2-0.6c0-0.4,0-0.7,0.1-1.1c0.1-0.2,0.1-0.4,0.1-0.6
	c0-0.1,0.1-0.2,0.1-0.3c0.1-0.4,0.3-0.7,0.4-1.1v-0.1c0-0.2,0.1-0.4,0.1-0.6c0.1-0.2,0.1-0.4,0-0.7c-0.1-0.2-0.1-0.4-0.4-0.5
	l-0.1-0.1l-0.1-0.1c-0.3-0.1-0.7-0.1-1,0H16c0-0.2-0.1-0.4-0.1-0.6c0-0.3-0.2-0.5-0.4-0.7s-0.3-0.3-0.5-0.3s-0.4-0.1-0.6-0.2
	c-0.1,0-0.3,0-0.4,0c0,0.2,0,0.3,0,0.4C14.1,22.4,14.2,22.7,14.3,23.1z M39.7,34.5c0.3-0.1,0.6,0.2,0.7,0.5c0.1,0.3-0.1,0.7-0.4,0.8
	l0,0h-0.1c-0.3,0-0.5-0.2-0.6-0.5C39.2,34.9,39.4,34.6,39.7,34.5z M38.4,36.9c0.3,0,0.5,0.2,0.6,0.5c0,0.3-0.2,0.6-0.4,0.6l0,0
	c0,0,0,0-0.1,0c-0.3,0-0.5-0.2-0.5-0.5C37.9,37.2,38.1,36.9,38.4,36.9z M37.2,34.9L37.2,34.9c0.3,0,0.6,0.2,0.7,0.6
	c0,0.4-0.2,0.7-0.5,0.7l0,0c0,0,0,0-0.1,0c-0.3,0-0.5-0.2-0.6-0.6C36.7,35.2,36.9,34.9,37.2,34.9z M36.1,37.2c0.3,0,0.5,0.2,0.5,0.5
	s-0.2,0.6-0.5,0.6l0,0l0,0c-0.3,0-0.5-0.2-0.5-0.5C35.7,37.4,35.9,37.2,36.1,37.2z M34.6,35.1c0.3,0,0.6,0.3,0.6,0.6
	c0,0.4-0.2,0.7-0.5,0.7l0,0l0,0c-0.3,0-0.6-0.3-0.6-0.6C34.1,35.4,34.3,35.1,34.6,35.1z M33.9,37.3c0.3,0,0.5,0.2,0.5,0.5
	s-0.2,0.6-0.5,0.6l0,0l0,0c-0.3,0-0.5-0.2-0.5-0.5S33.6,37.3,33.9,37.3z M32.1,35.2L32.1,35.2c0.3,0,0.6,0.3,0.6,0.6
	c0,0.4-0.2,0.6-0.5,0.7l0,0l0,0c-0.3,0-0.6-0.3-0.6-0.6C31.5,35.5,31.7,35.2,32.1,35.2z M31.6,37.4c0.3,0,0.5,0.2,0.5,0.6
	c0,0.3-0.2,0.6-0.5,0.6l0,0l0,0c-0.3,0-0.5-0.2-0.5-0.5C31.1,37.7,31.3,37.4,31.6,37.4z M29.5,35.3L29.5,35.3c0.3,0,0.6,0.3,0.6,0.6
	s-0.3,0.6-0.6,0.6l0,0l0,0c-0.3,0-0.6-0.3-0.6-0.6S29.1,35.3,29.5,35.3z M29.4,37.4c0.3,0,0.5,0.3,0.5,0.6s-0.2,0.6-0.5,0.6l0,0
	c-0.3,0-0.5-0.3-0.5-0.6S29.1,37.4,29.4,37.4z M27.6,38c0,0.3-0.2,0.6-0.5,0.6l0,0c-0.3,0-0.5-0.3-0.5-0.6s0.2-0.6,0.5-0.5
	C27.4,37.4,27.6,37.7,27.6,38z M26.9,35.2L26.9,35.2c0.3,0,0.6,0.3,0.6,0.7s-0.3,0.6-0.6,0.6l0,0l0,0c-0.3,0-0.6-0.3-0.6-0.7
	C26.3,35.5,26.5,35.2,26.9,35.2z M25.4,38c0,0.3-0.2,0.5-0.5,0.5l0,0l0,0c-0.3,0-0.5-0.3-0.5-0.6s0.3-0.6,0.5-0.6
	C25.2,37.4,25.4,37.6,25.4,38z M24.3,35.2c0.3,0,0.6,0.3,0.6,0.7c0,0.3-0.3,0.6-0.6,0.6l0,0l0,0c-0.3,0-0.6-0.3-0.5-0.7
	C23.7,35.4,24,35.1,24.3,35.2z M22.6,37.2c0.3,0,0.5,0.3,0.5,0.6s-0.2,0.5-0.5,0.5l0,0l0,0c-0.3,0-0.5-0.3-0.5-0.6
	S22.4,37.2,22.6,37.2z M21.7,35c0.3,0,0.6,0.3,0.5,0.7c0,0.3-0.3,0.6-0.6,0.6l0,0l0,0c-0.3,0-0.6-0.3-0.5-0.7
	C21.1,35.2,21.4,35,21.7,35z M20.4,37c0.3,0,0.5,0.3,0.5,0.6s-0.2,0.5-0.5,0.5c0,0,0,0-0.1,0l0,0c-0.3,0-0.5-0.3-0.5-0.6
	S20.1,37,20.4,37z M19.1,34.7c0.3,0.1,0.5,0.4,0.5,0.7S19.3,36,19,36c0,0,0,0-0.1,0l0,0c-0.3-0.1-0.5-0.4-0.5-0.7
	C18.5,34.9,18.8,34.7,19.1,34.7z M17.6,37.1c0.1-0.3,0.3-0.5,0.6-0.4c0.3,0.1,0.4,0.4,0.4,0.7s-0.3,0.5-0.5,0.5H18l0,0
	C17.7,37.7,17.5,37.4,17.6,37.1z"/>
</svg>
