<?xml version="1.0" encoding="UTF-8"?><svg id="Lager_1" xmlns="http://www.w3.org/2000/svg" width="20.2847mm" height="20.2847mm" viewBox="0 0 57.5 57.5"><defs><style>.cls-1{fill:none;}.cls-2{fill:#151514;}</style></defs><g><path d="M6.9082,15.1976c.2939-.4761,.6572-.8433,1.0889-1.1025,.4307-.2593,.9014-.3877,1.4102-.3853,.5098,.0024,.9844,.1396,1.4258,.4121,.4297,.2656,.7598,.6226,.9912,1.0698s.3291,.9263,.2939,1.4365c-.0342,.5103-.2012,1.0068-.499,1.4893-.2939,.4761-.665,.8452-1.1113,1.1069-.4473,.2622-.918,.3901-1.4131,.3843s-.9609-.1436-1.3975-.4136c-.4209-.2603-.749-.6133-.9863-1.0596-.2363-.4463-.3389-.9233-.3086-1.4316,.0312-.5083,.1992-1.0107,.5059-1.5063Zm1.3564,3.0796c.3057,.1885,.6221,.2891,.9512,.3013,.3281,.0122,.6357-.0635,.9229-.2275,.2861-.1641,.5254-.4019,.7178-.7134,.291-.4717,.3828-.9507,.2744-1.4375s-.3965-.8745-.8633-1.1636c-.3047-.188-.6221-.2896-.9512-.3032-.3291-.0142-.6377,.062-.9258,.228-.2871,.1665-.5273,.4053-.7197,.7168s-.2979,.6333-.3174,.9653c-.0186,.3325,.0518,.6406,.2109,.9238,.1602,.2837,.3936,.5205,.7002,.71Z"/><path d="M11.2295,10.0091l3.0693,3.4082,1.9482-1.7554,.5469,.6064-2.7246,2.4541-3.6162-4.0146,.7764-.6987Z"/><path d="M17.3926,5.6512c.501-.2485,1.0039-.3682,1.5068-.3604,.5039,.0083,.9707,.1484,1.4014,.4194,.4307,.2715,.7617,.6396,.9912,1.104,.2246,.4526,.3164,.9302,.2754,1.4321-.04,.502-.21,.9604-.5098,1.375s-.7031,.7476-1.2119,.9995c-.501,.2485-1.0107,.3657-1.5283,.3516s-.9854-.1543-1.4023-.4214c-.417-.2666-.7393-.6299-.9668-1.0898-.2197-.4434-.3125-.917-.2764-1.4209,.0352-.5039,.2002-.9634,.4951-1.3784s.7031-.752,1.2256-1.0107Zm-.4775,3.3311c.1592,.3213,.375,.5742,.6475,.7583,.2725,.1846,.5742,.2827,.9033,.2949,.3301,.0122,.6592-.063,.9873-.2256,.4961-.2461,.8271-.604,.9932-1.0747,.165-.4702,.126-.9517-.1172-1.4438-.1592-.3208-.375-.5747-.6475-.7607-.2715-.186-.5732-.2847-.9053-.2954-.332-.0112-.6621,.0645-.9902,.2271s-.5889,.3799-.7803,.6519-.2949,.5703-.3096,.8955,.0586,.6494,.2188,.9727Z"/><path d="M26.0215,3.1556l.1426,.8037-2.2168,.3916,.2432,1.375,2.2168-.3921,.1436,.8115-2.2168,.3916,.4121,2.3311-1.0283,.1816-.9404-5.3208,3.2441-.5732Z"/><path d="M29.8535,3.0277c.5254,.0215,1.0264,.1733,1.5029,.4561l-.0381,.9272c-.5449-.3604-1.0342-.5493-1.4668-.5669-.2627-.0107-.4707,.0317-.623,.1274s-.2314,.229-.2383,.3989c-.0088,.2036,.1211,.397,.3906,.5811,.0752,.0547,.3662,.2109,.875,.4692,.4346,.2266,.7441,.4712,.9297,.7344s.2705,.5737,.2559,.9316c-.0186,.4639-.2002,.8311-.5459,1.1021-.3457,.2715-.7832,.396-1.3135,.3745-.3457-.0142-.6406-.0645-.8867-.1504-.2451-.0859-.5186-.228-.8203-.4263l.042-1.0278c.5576,.5024,1.0908,.7642,1.6016,.7852,.2549,.0103,.4629-.0366,.625-.1411,.1611-.1045,.2461-.248,.2539-.4307,.0098-.25-.1182-.459-.3848-.6274-.2217-.1328-.5088-.293-.8594-.48-.417-.2109-.7256-.4492-.9248-.7153-.2002-.2661-.293-.5693-.2783-.9092,.0176-.4536,.2012-.8081,.5498-1.0635s.7998-.3721,1.3535-.3491Z"/><path d="M37.1572,4.4237l-.2129,.7876-2.1729-.5874-.3643,1.3477,2.1729,.5874-.2148,.7954-2.1729-.5879-.6182,2.2852-1.0078-.2729,1.4102-5.2153,3.1807,.8604Z"/><path d="M42.0615,6.7264c.4785,.2905,.8486,.6509,1.1113,1.0806,.2617,.4292,.3936,.8989,.3955,1.4082,.001,.5088-.1328,.9849-.4023,1.4277-.2627,.4321-.6172,.7651-1.0625,.9995-.4463,.2344-.9238,.3359-1.4346,.3047s-1.0078-.1943-1.4932-.4893c-.4775-.2905-.8496-.6582-1.1143-1.103-.2656-.4448-.3965-.9146-.3945-1.4097s.1367-.9619,.4033-1.4004c.2568-.4229,.6074-.7544,1.0518-.9941,.4453-.2397,.9219-.3457,1.4297-.3188,.5088,.0269,1.0117,.1919,1.5098,.4946Zm-3.0693,1.3789c-.1865,.3062-.2842,.624-.2939,.9526-.0098,.3291,.0684,.6362,.2344,.9214s.4053,.5225,.7178,.7129c.4736,.2881,.9541,.376,1.4395,.2642,.4863-.1123,.8721-.4028,1.1572-.8721,.1865-.3062,.2852-.624,.2969-.9531,.0117-.3296-.0664-.6372-.2354-.9238-.168-.2861-.4082-.5249-.7217-.7148-.3125-.1904-.6357-.2935-.9678-.3101s-.6396,.0562-.9219,.2178c-.2832,.1616-.5176,.397-.7051,.7051Z"/><path d="M47.9482,11.7503c.335,.3809,.5029,.7847,.5039,1.2104,0,.4253-.1689,.7876-.5078,1.0854-.2295,.2031-.4834,.3203-.7588,.3521-.2764,.0317-.5664-.0259-.8721-.1729,.0449,.1909,.0518,.3892,.0205,.5957-.0312,.2061-.124,.5093-.2773,.9087-.2734,.6807-.4502,1.1626-.5303,1.4463l-.7695-.874c.0361-.1382,.1074-.3447,.2119-.6196,.2344-.604,.3799-1.0249,.4385-1.2612,.0576-.2368,.0752-.4312,.0527-.583-.0225-.1523-.0889-.291-.1992-.417l-.251-.2842-1.7119,1.5078-.6904-.7837,4.0547-3.5708,1.2861,1.46Zm-1.8857,1.3462c.1807,.2051,.373,.3213,.5791,.3481,.2061,.0264,.3975-.0386,.5752-.1953,.1865-.1636,.2734-.3438,.2637-.541-.0107-.1968-.1104-.4028-.2998-.6177l-.4287-.4873-1.1299,.9941,.4404,.499Z"/><path d="M51.5098,16.8104c.2441,.4658,.3633,.9756,.3574,1.5293l-.8223,.4312c.0391-.6523-.042-1.1704-.2432-1.5537-.123-.2329-.2637-.3911-.4219-.4751-.1592-.084-.3145-.0864-.4648-.0073-.1807,.0947-.2832,.3042-.3076,.6289-.0098,.0923,.001,.4233,.0312,.9922,.0215,.4897-.0352,.8809-.1699,1.1729-.1357,.292-.3613,.5215-.6787,.688-.4111,.2158-.8203,.2422-1.2275,.0791-.4072-.1636-.7344-.48-.9814-.9507-.1611-.3057-.2656-.5864-.3135-.8423-.0488-.2554-.0625-.5635-.042-.9238l.9111-.478c-.1562,.7344-.1152,1.3276,.1221,1.7793,.1182,.2261,.2637,.3828,.4346,.4707s.3379,.0894,.5,.0039c.2217-.1162,.3379-.332,.3506-.647,.0039-.2583-.001-.5864-.0146-.9839-.0264-.4668,.0254-.853,.1562-1.1587,.1309-.3062,.3467-.5381,.6484-.6963,.4014-.2109,.7998-.2295,1.1953-.0557s.7227,.5063,.9805,.9971Z"/></g><path class="cls-1" d="M28.7495,.9138C13.4292,.9138,.9641,13.3779,.9641,28.6982s12.4651,27.785,27.7854,27.785,27.7844-12.4642,27.7844-27.785S44.0698,.9138,28.7495,.9138Zm-.0005,9.5419c10.0751,0,18.2434,8.1679,18.2434,18.243s-8.1683,18.2424-18.2434,18.2424S10.5065,38.7738,10.5065,28.6987,18.6739,10.4558,28.7489,10.4558ZM11.9578,37.9385c-.0492,.1382-.1353,.2368-.259,.2938-.069,.0322-.1392,.0482-.2106,.0482-.0597,0-.1204-.0112-.1821-.0336-.1354-.0494-.2321-.1364-.291-.2631-.0581-.1238-.0638-.2533-.0175-.3887,.0465-.1353,.1345-.2338,.2659-.2948,.0685-.0321,.1384-.0483,.2097-.0483,.0598,0,.1203,.0113,.182,.0338,.1353,.0493,.233,.1373,.292,.263,.0562,.1218,.06,.2513,.0106,.3897Zm-1.7684-2.0789c.0464-.1382,.1334-.2369,.2621-.2969,.0671-.0312,.1357-.047,.2056-.047,.0619,0,.1249,.0124,.1888,.0374,.1373,.0522,.235,.1412,.293,.2649,.059,.1258,.0627,.2573,.0135,.3946-.0503,.1373-.1373,.2348-.261,.2919-.0652,.0308-.1331,.0461-.204,.0461-.0586,0-.1193-.0105-.1819-.0314-.1382-.0465-.2379-.1355-.2987-.266-.058-.1238-.0639-.2554-.0175-.3936Zm-4.9118-11.9629c.1838-.131,.3842-.1966,.6011-.1966,.065,0,.1315,.0059,.1995,.0176,.29,.0503,.5202,.1964,.6913,.436,.1721,.2408,.2321,.5068,.1818,.7996-.0523,.2969-.1984,.5289-.4381,.6973-.1835,.128-.383,.192-.5987,.192-.066,0-.1337-.006-.2029-.018-.2919-.0503-.522-.1953-.6913-.4341-.1692-.2387-.2282-.5067-.1769-.8035,.0502-.2901,.1953-.5202,.4341-.6904Zm-2.0402,9.6472l4.9003-3.465,.2108,1.082-3.1135,2.1635,3.6898,.7977,.2098,1.0742-5.8284-1.2957-.0687-.3567Zm2.7751,7.6771l.9542-1.0645-1.0161-2.1766-1.4127,.0832-.4632-.9921,5.8381-.2668,.4515,.9669-3.8859,4.4478-.466-.9979Zm5.7298,.4671c-.0561-.0167-.1101-.0252-.1619-.0252-.1071,0-.2053,.0359-.2946,.1082-.1595,.1276-.2194,.353-.1808,.6759,.0087,.0928,.0833,.4149,.2234,.9679,.115,.4756,.1353,.8712,.0588,1.1835-.0753,.3123-.2532,.5811-.5326,.8064-.2818,.2274-.5853,.3408-.9108,.3408-.0911,0-.184-.0088-.2785-.0266-.4313-.0812-.813-.3286-1.1458-.7426-.2176-.2688-.3742-.524-.471-.7657-.0966-.2418-.17-.5405-.2194-.8983,.2672-.215,.5344-.43,.8016-.6449-.0116,.7502,.1431,1.3246,.4631,1.722,.1604,.1992,.3326,.3248,.5182,.3781,.058,.0164,.114,.0247,.1677,.0247,.1176,0,.2253-.0392,.3235-.1176,.1943-.1575,.2678-.3916,.2185-.703-.0455-.2542-.1141-.5753-.2041-.963-.116-.4525-.1402-.8412-.0706-1.1671,.0687-.3248,.2359-.5947,.5009-.8083,.2651-.2134,.5497-.3206,.8537-.3206,.1008,0,.2037,.0118,.3087,.0353,.4214,.0939,.8063,.3568,1.1544,.7881,.3297,.4099,.5453,.8875,.6458,1.4318-.2411,.1942-.4821,.3881-.7231,.5822-.0872-.6478-.2669-1.14-.5386-1.4775-.1653-.2049-.3336-.3334-.5067-.3847Zm1.3643,7.6548l-.819-.6478,2.8447-3.5977-1.5046-1.1903,.5057-.6403,3.8289,3.0275-.5067,.6401-1.5045-1.1903-2.8447,3.5988Zm7.5969,.6855l-.3452,.7397-2.1232-.9911-.6498,1.3913,2.2673,1.0588-.345,.7386-3.2141-1.4996,2.2857-4.8964,3.1647,1.4775-.3453,.7397-2.218-1.0355-.6005,1.2859,2.1234,.9911Zm5.2899,.5772c-.0619,.3007-.1924,.5472-.3934,.7387-.2012,.1924-.468,.321-.8006,.3878,.1508,.1247,.2756,.2793,.3751,.4631,.0996,.1838,.2088,.4806,.3268,.8916,.1924,.7087,.3413,1.1988,.4486,1.4736-.3802-.0778-.7606-.1555-1.1409-.2332-.0543-.1323-.1219-.3392-.2042-.6215-.1778-.6237-.3141-1.0473-.4108-1.2706-.0967-.2242-.1993-.3896-.3085-.4979-.1102-.1074-.2465-.1789-.411-.2118l-.3712-.0763c-.1525,.7451-.3049,1.4902-.4574,2.2354-.3411-.0696-.6821-.1393-1.0229-.2089,.3609-1.7646,.7219-3.5292,1.0829-5.2937,.6353,.1298,1.2705,.2596,1.9058,.3896,.4979,.1025,.8751,.3229,1.1321,.6622,.2563,.3395,.3404,.7302,.2495,1.172Zm5.6535,3.1888c-.144,.2418-.35,.4264-.6178,.5549-.2679,.1286-.586,.1993-.9543,.2128-.7536,.0278-1.5071,.0555-2.2606,.0832-.0659-1.8-.1316-3.6002-.1974-5.4001,.6597-.0239,1.3195-.0477,1.9794-.0715,.0342-.0013,.0679-.002,.1012-.002,.4489,0,.8232,.1147,1.1219,.3443,.3221,.2457,.4893,.5627,.5037,.9486,.0087,.2474-.0483,.4678-.1721,.6603-.1227,.1934-.3063,.349-.5491,.4689l.001,.0464c.38,.0715,.6787,.2291,.8983,.4728,.2184,.2438,.3344,.5338,.347,.8712,.0107,.2987-.056,.5696-.201,.8103Zm7.2034-2.5101c-.1122,.4913-.3462,.9206-.703,1.2869-.3557,.3676-.8035,.6392-1.343,.8151-.352,.1153-.6995,.1729-1.0422,.1729-.1749,0-.3487-.0151-.5213-.0452-.5096-.0881-.9524-.2939-1.3266-.6179-.3741-.325-.6411-.73-.8005-1.2183-.1529-.4708-.1761-.9524-.0687-1.4456,.1074-.4941,.3364-.9244,.6885-1.2927,.3519-.3683,.8044-.643,1.3585-.8237,.3636-.119,.719-.1783,1.0663-.1783,.1607,0,.3196,.0127,.4767,.038,.4972,.0803,.939,.2863,1.3267,.6169,.3869,.3307,.6614,.7426,.8219,1.2347,.1567,.4805,.1789,.9659,.0668,1.457Zm3.9488-.8257l-2.5671-3.8008-1.5896,1.0743-.4573-.6768,4.0445-2.7316,.4574,.6759-1.5895,1.0742,2.5671,3.8009-.8654,.5839Zm5.0819-4.3027l-3.4489-3.0244-1.2646,1.4426-.6141-.5377,3.2178-3.6703,.6131,.5376-1.2637,1.4426,3.4489,3.0244-.6885,.7852Zm2.9626-3.8463l-4.7706-2.5361,1.6389-3.0834,.7203,.3828-1.1487,2.162,1.2532,.6662,1.1003-2.0702,.7203,.3839-1.1003,2.0692,1.3557,.7203,1.1747-2.2093,.7204,.3829-1.664,3.1318Zm-.0967-18.0408c.17-.2379,.4022-.3829,.6971-.4323,.0667-.0115,.132-.0172,.196-.0172,.2161,0,.4166,.0654,.6016,.1953,.2389,.1681,.3839,.4011,.4341,.699,.0494,.2891-.0096,.5549-.1779,.7949-.1683,.2407-.4003,.3859-.6952,.436-.0654,.0112-.1298,.0167-.1927,.0167-.2161,0-.4178-.0655-.605-.1965-.2417-.1692-.3878-.4003-.437-.6922-.0513-.2978,.0087-.5657,.1788-.8035Zm-1.4397,6.4502l5.2686,1.195-.1982,.8755-4.4515,2.3023,3.7369,.847-.2253,.9958-5.2695-1.1942,.2031-.8943,4.3868-2.2964-3.6771-.8349,.2263-.9958Z"/><path class="cls-1" d="M29.828,52.2277c-.0245,0-.0492,.0005-.0745,.0015-.3271,.0119-.6542,.0239-.9814,.0358,.0183,.5089,.0366,1.0178,.0551,1.5267l.9012-.0329c.353-.0135,.6168-.0889,.7928-.2282,.175-.1393,.2581-.3384,.2484-.5956-.0076-.2292-.1044-.407-.2881-.5337-.1683-.1151-.3862-.1735-.6536-.1735Z"/><path class="cls-1" d="M30.0456,51.2042c.1547-.1373,.2281-.3231,.2194-.5579-.0076-.2089-.0869-.3713-.2387-.4882-.1405-.1089-.3203-.1635-.537-.1635l-.049,.0009c-.2502,.0091-.5003,.0181-.7504,.0272,.0174,.4755,.0348,.9508,.0523,1.4263,.2188-.0077,.4376-.0156,.6565-.0233,.2765-.0107,.4911-.084,.6469-.2214Z"/><path class="cls-1" d="M37.2306,49.3148c-.2417-.2233-.5269-.3636-.8536-.4225-.1118-.0202-.2248-.0303-.3391-.0303-.2199,0-.4443,.0374-.6734,.1125-.3481,.1132-.6372,.2911-.8664,.5328-.2281,.2417-.3731,.5221-.4351,.8422-.0609,.3191-.0349,.6508,.0764,.994,.1112,.3403,.2891,.6218,.5318,.8431,.2437,.2224,.5269,.3625,.8517,.4216,.1121,.0207,.2257,.0309,.3406,.0309,.218,0,.4409-.0372,.6689-.1112,.527-.1722,.906-.4797,1.1371-.9215,.232-.4409,.262-.9233,.0919-1.4456-.1112-.3403-.2882-.6226-.5309-.8461Z"/><path class="cls-1" d="M24.2055,49.5054c-.2125-.0432-.4248-.0864-.6372-.1296-.1006,.4911-.2012,.9824-.3017,1.4735,.2172,.0445,.4345,.0889,.6517,.1334,.0933,.0192,.1814,.0288,.2641,.0288,.1547,0,.2908-.0336,.4079-.1003,.1808-.1025,.2939-.2698,.3424-.5027,.0492-.2428,.0106-.439-.1161-.5898-.1276-.1509-.3307-.2552-.611-.3132Z"/><path class="cls-1" d="M38.8772,34.161c.0323,0,.065-.0035,.0978-.0109l.0242-.0057c.2662-.0651,.4278-.3566,.3721-.6556-.0557-.299-.3234-.4893-.5909-.4297-.2687,.0602-.4429,.3533-.3892,.6547,.0471,.2645,.2543,.4474,.486,.4474Z"/><polygon class="cls-1" points="7.5411 39.5125 9.0928 37.7808 6.8033 37.9316 7.5411 39.5125"/><path class="cls-1" d="M20.7817,34.3564l.0259,.0039c.0209,.0029,.0415,.0043,.0618,.0043,.2438,0,.4498-.2039,.4835-.483,.0364-.3023-.1591-.5824-.4282-.6263-.2702-.0443-.523,.1665-.5625,.4705-.0394,.3041,.1484,.5864,.4196,.6307Z"/><path class="cls-1" d="M19.9141,35.8997l.0258,.0066c.0292,.0065,.0583,.0096,.0872,.0096,.2051,0,.3928-.1595,.4342-.3921,.0474-.2653-.0987-.5215-.3353-.5745-.2341-.066-.4712,.0939-.5297,.3564-.0585,.2625,.0838,.5284,.3179,.594Z"/><path class="cls-1" d="M21.918,36.2337l.0057,.0007c.0148,.0016,.0294,.0024,.0439,.0024,.2214,0,.4088-.1888,.4313-.4415,.024-.2692-.154-.5096-.394-.5365-.2418-.0268-.4543,.1697-.4782,.4387-.024,.2692,.1511,.5093,.3912,.5362Z"/><path d="M51.61,25.9612c.0629,0,.1273-.0055,.1927-.0167,.2949-.0501,.5269-.1953,.6952-.436,.1683-.2399,.2272-.5057,.1779-.7949-.0502-.2979-.1953-.5309-.4341-.699-.1849-.1298-.3855-.1953-.6016-.1953-.064,0-.1293,.0057-.196,.0172-.295,.0494-.5271,.1943-.6971,.4323-.1701,.2378-.2301,.5057-.1788,.8035,.0492,.2919,.1953,.523,.437,.6922,.1872,.131,.3889,.1965,.605,.1965Z"/><path d="M5.7117,25.8246c.0692,.012,.1368,.018,.2029,.018,.2157,0,.4152-.064,.5987-.192,.2397-.1683,.3858-.4003,.4381-.6973,.0502-.2928-.0098-.5588-.1818-.7996-.1711-.2397-.4013-.3857-.6913-.436-.068-.0118-.1345-.0176-.1995-.0176-.217,0-.4174,.0656-.6011,.1966-.2388,.1702-.384,.4003-.4341,.6904-.0513,.2968,.0078,.5648,.1769,.8035,.1693,.2388,.3994,.3839,.6913,.4341Z"/><polygon points="8.9247 34.1221 5.2349 33.3244 8.3484 31.1609 8.1376 30.0789 3.2373 33.5439 3.3061 33.9006 9.1345 35.1963 8.9247 34.1221"/><path d="M11.6553,37.2858c-.0617-.0225-.1223-.0338-.182-.0338-.0713,0-.1412,.0162-.2097,.0483-.1314,.061-.2194,.1595-.2659,.2948-.0464,.1354-.0406,.265,.0175,.3887,.059,.1267,.1556,.2137,.291,.2631,.0617,.0225,.1224,.0336,.1821,.0336,.0714,0,.1416-.016,.2106-.0482,.1238-.057,.2098-.1556,.259-.2938,.0494-.1384,.0456-.2679-.0106-.3897-.059-.1257-.1567-.2137-.292-.263Z"/><path d="M9.9128,36.8042l-5.8381,.2668,.4632,.9921,1.4127-.0832,1.0161,2.1766-.9542,1.0645,.466,.9979,3.8859-4.4478-.4515-.9669Zm-2.3718,2.7083l-.7377-1.5809,2.2895-.1509-1.5518,1.7318Z"/><path d="M10.5055,36.5191c.0626,.0209,.1233,.0314,.1819,.0314,.0709,0,.1388-.0153,.204-.0461,.1237-.0571,.2108-.1545,.261-.2919,.0492-.1373,.0454-.2688-.0135-.3946-.058-.1237-.1556-.2126-.293-.2649-.064-.025-.127-.0374-.1888-.0374-.0699,0-.1385,.0158-.2056,.047-.1287,.06-.2156,.1586-.2621,.2969-.0464,.1382-.0406,.2698,.0175,.3936,.0609,.1305,.1605,.2195,.2987,.266Z"/><path d="M13.5106,42.9681c-.1005-.5444-.3161-1.0219-.6458-1.4318-.348-.4313-.7329-.6943-1.1544-.7881-.105-.0236-.2078-.0353-.3087-.0353-.304,0-.5886,.1071-.8537,.3206-.265,.2137-.4321,.4835-.5009,.8083-.0696,.3258-.0454,.7146,.0706,1.1671,.09,.3877,.1586,.7088,.2041,.963,.0493,.3114-.0242,.5455-.2185,.703-.0981,.0783-.2059,.1176-.3235,.1176-.0538,0-.1097-.0082-.1677-.0247-.1856-.0533-.3578-.179-.5182-.3781-.3201-.3973-.4747-.9717-.4631-1.722-.2672,.2149-.5345,.4299-.8016,.6449,.0494,.3577,.1228,.6565,.2194,.8983,.0968,.2416,.2534,.4969,.471,.7657,.3327,.414,.7145,.6614,1.1458,.7426,.0945,.0178,.1874,.0266,.2785,.0266,.3255,0,.629-.1135,.9108-.3408,.2794-.2253,.4573-.4941,.5326-.8064,.0765-.3123,.0562-.7078-.0588-1.1835-.1401-.553-.2147-.8751-.2234-.9679-.0386-.3229,.0213-.5483,.1808-.6759,.0893-.0723,.1874-.1082,.2946-.1082,.0518,0,.1058,.0085,.1619,.0252,.1731,.0513,.3413,.1798,.5067,.3847,.2717,.3375,.4515,.8297,.5386,1.4775,.241-.1941,.4819-.388,.7231-.5822Z"/><polygon points="17.9623 46.2944 14.1334 43.2668 13.6277 43.9071 15.1322 45.0974 12.2876 48.6951 13.1066 49.343 15.9512 45.7441 17.4557 46.9345 17.9623 46.2944"/><polygon points="21.3985 48.787 21.7439 48.0473 18.5791 46.5698 16.2934 51.4662 19.5075 52.9658 19.8525 52.2272 17.5851 51.1684 18.235 49.7771 20.3582 50.7683 20.7034 50.0285 18.5801 49.0374 19.1805 47.7515 21.3985 48.787"/><path d="M24.6116,48.7715c-.6353-.1299-1.2705-.2598-1.9058-.3896-.361,1.7645-.722,3.5291-1.0829,5.2937,.3409,.0695,.6819,.1393,1.0229,.2089,.1525-.7452,.3049-1.4904,.4574-2.2354l.3712,.0763c.1645,.0329,.3008,.1044,.411,.2118,.1093,.1083,.2118,.2737,.3085,.4979,.0966,.2233,.233,.6469,.4108,1.2706,.0823,.2823,.1499,.4892,.2042,.6215,.3803,.0778,.7606,.1555,1.1409,.2332-.1073-.2748-.2562-.7649-.4486-1.4736-.118-.411-.2272-.7078-.3268-.8916-.0995-.1838-.2244-.3384-.3751-.4631,.3326-.0667,.5994-.1954,.8006-.3878,.201-.1915,.3315-.438,.3934-.7387,.0909-.4418,.0068-.8325-.2495-1.172-.2571-.3393-.6342-.5598-1.1321-.6622Zm.3211,1.637c-.0485,.233-.1616,.4002-.3424,.5027-.1171,.0667-.2532,.1003-.4079,.1003-.0827,0-.1708-.0096-.2641-.0288-.2172-.0445-.4344-.0889-.6517-.1334,.1005-.4911,.2011-.9824,.3017-1.4735,.2124,.0432,.4247,.0864,.6372,.1296,.2803,.058,.4834,.1624,.611,.3132,.1267,.1509,.1653,.347,.1161,.5898Z"/><path d="M30.6025,51.6403l-.001-.0464c.2428-.1199,.4265-.2755,.5491-.4689,.1238-.1924,.1808-.4128,.1721-.6603-.0144-.3859-.1816-.7029-.5037-.9486-.2987-.2296-.673-.3443-1.1219-.3443-.0333,0-.067,.0007-.1012,.002-.6599,.0239-1.3196,.0477-1.9794,.0715,.0658,1.8,.1315,3.6002,.1974,5.4001,.7535-.0277,1.507-.0554,2.2606-.0832,.3683-.0135,.6864-.0842,.9543-.2128,.2678-.1285,.4738-.3131,.6178-.5549,.145-.2407,.2117-.5116,.201-.8103-.0126-.3374-.1286-.6274-.347-.8712-.2196-.2437-.5183-.4012-.8983-.4728Zm-1.9125-1.6177c.2501-.009,.5002-.0181,.7504-.0272l.049-.0009c.2167,0,.3965,.0546,.537,.1635,.1518,.1169,.2311,.2794,.2387,.4882,.0087,.2348-.0646,.4206-.2194,.5579-.1557,.1374-.3704,.2108-.6469,.2214-.2189,.0077-.4377,.0156-.6565,.0233-.0175-.4755-.0349-.9508-.0523-1.4263Zm1.8314,3.5079c-.1761,.1393-.4399,.2147-.7928,.2282l-.9012,.0329c-.0184-.5089-.0367-1.0178-.0551-1.5267,.3271-.0118,.6543-.0239,.9814-.0358,.0253-.001,.05-.0015,.0745-.0015,.2673,0,.4853,.0584,.6536,.1735,.1838,.1267,.2805,.3044,.2881,.5337,.0097,.2573-.0734,.4564-.2484,.5956Z"/><path d="M37.9615,48.5927c-.3877-.3307-.8295-.5366-1.3267-.6169-.1571-.0253-.316-.038-.4767-.038-.3474,0-.7028,.0593-1.0663,.1783-.554,.1807-1.0065,.4554-1.3585,.8237-.3521,.3683-.5811,.7986-.6885,1.2927-.1074,.4932-.0842,.9747,.0687,1.4456,.1594,.4882,.4263,.8933,.8005,1.2183,.3742,.3239,.817,.5298,1.3266,.6179,.1726,.0301,.3464,.0452,.5213,.0452,.3428,0,.6902-.0576,1.0422-.1729,.5395-.1759,.9872-.4475,1.343-.8151,.3568-.3663,.5908-.7956,.703-1.2869,.1121-.4911,.0899-.9765-.0668-1.457-.1605-.4922-.435-.9041-.8219-1.2347Zm-.2919,3.0138c-.2311,.4418-.6101,.7493-1.1371,.9215-.228,.074-.451,.1112-.6689,.1112-.1149,0-.2285-.0103-.3406-.0309-.3249-.0591-.6081-.1992-.8517-.4216-.2427-.2213-.4206-.5028-.5318-.8431-.1113-.3432-.1373-.6749-.0764-.994,.062-.3201,.207-.6005,.4351-.8422,.2292-.2417,.5183-.4196,.8664-.5328,.2291-.0751,.4535-.1125,.6734-.1125,.1143,0,.2272,.0101,.3391,.0303,.3267,.0589,.6119,.1992,.8536,.4225,.2427,.2234,.4197,.5057,.5309,.8461,.1701,.5222,.1401,1.0046-.0919,1.4456Z"/><polygon points="42.6868 44.9997 42.2294 44.3238 38.1849 47.0554 38.6423 47.7322 40.2319 46.6579 42.799 50.4587 43.6644 49.8748 41.0973 46.0739 42.6868 44.9997"/><polygon points="46.3843 40.9039 45.7712 40.3663 42.5533 44.0366 43.1674 44.5742 44.4321 43.1317 47.8809 46.156 48.5694 45.3709 45.1205 42.3465 46.3843 40.9039"/><polygon points="50.6125 41.0044 49.2568 40.2841 50.3572 38.2149 49.6369 37.8311 48.5365 39.9012 47.2834 39.235 48.4321 37.073 47.7118 36.6902 46.0729 39.7736 50.8436 42.3098 52.5076 39.178 51.7872 38.7951 50.6125 41.0044"/><polygon points="48.3712 34.8463 48.1681 35.7406 53.4376 36.9348 53.6629 35.9389 49.926 35.0919 54.3775 32.7896 54.5758 31.9141 49.3072 30.7191 49.0809 31.715 52.758 32.5499 48.3712 34.8463"/><path d="M28.7489,46.9412c10.0751,0,18.2434-8.1674,18.2434-18.2424S38.8241,10.4558,28.7489,10.4558,10.5065,18.6237,10.5065,28.6987s8.1674,18.2424,18.2424,18.2424Zm-16.2919-11.3591c-.452-1.0685-.7976-2.1821-1.0301-3.3187-.2398-1.1719-.3592-2.3684-.3592-3.5647s.1194-2.3928,.3592-3.5647c.2325-1.1367,.5781-2.2502,1.0301-3.3188,.4443-1.0505,.9915-2.0576,1.6301-3.0026,.6342-.9385,1.3586-1.8159,2.1594-2.6167,.8008-.8009,1.6782-1.5252,2.6165-2.1594,.9451-.6387,1.9521-1.1859,3.0026-1.6302,1.0685-.4521,2.1821-.7978,3.3188-1.0302,1.1719-.2397,2.3683-.3593,3.5646-.3593s2.3927,.1195,3.5647,.3593c1.1366,.2324,2.2503,.5782,3.3188,1.0302,1.0505,.4443,2.0576,.9915,3.0026,1.6302,.9384,.6342,1.8159,1.3585,2.6168,2.1594,.8009,.8009,1.5253,1.6782,2.1594,2.6167,.6387,.945,1.1859,1.9521,1.6303,3.0027,.4521,1.0685,.7977,2.182,1.0303,3.3187,.2396,1.1719,.359,2.3684,.359,3.5647s-.1194,2.3928-.359,3.5647c-.2326,1.1366-.5782,2.2502-1.0303,3.3187-.4445,1.0505-.9916,2.0574-1.6303,3.0025-.6342,.9385-1.3585,1.8158-2.1594,2.6166-.801,.8009-1.6783,1.5252-2.6167,2.1593-.9451,.6387-1.9522,1.1859-3.0027,1.6302-1.0685,.452-2.1823,.7976-3.3188,1.0301-1.172,.2398-2.3684,.3593-3.5648,.3593s-2.3928-.1194-3.5646-.3593c-1.1367-.2325-2.2502-.5781-3.3188-1.0301-1.0506-.4443-2.0575-.9915-3.0026-1.6302-.9383-.6341-1.8157-1.3584-2.6165-2.1592-.8008-.8009-1.5252-1.6782-2.1594-2.6166-.6385-.9452-1.1857-1.9521-1.6301-3.0026Z"/><path class="cls-2" d="M28.7495,.3521C13.1188,.3521,.4032,13.0681,.4032,28.6982s12.7156,28.3467,28.3463,28.3467,28.3452-12.7165,28.3452-28.3467S44.3792,.3521,28.7495,.3521Zm0,56.1312C13.4292,56.4832,.9641,44.019,.9641,28.6982S13.4292,.9138,28.7495,.9138s27.7844,12.4641,27.7844,27.7844-12.4641,27.785-27.7844,27.785Z"/><path d="M14.2597,23.0094c.0294,.1324,.0463,.2682,.0739,.4012,.0843,.4066,.1706,.8126,.2569,1.2188,.0361,.1699,.0702,.3405,.1118,.5088,.0938,.3797,.1996,.756,.2861,1.1377,.1066,.4706,.1992,.9452,.2968,1.4183,.0457,.2215,.0868,.4443,.1338,.6656,.0971,.4573,.1952,.9144,.2964,1.3707,.0422,.1902,.0981,.3767,.1395,.5673,.0974,.4491,.1916,.8993,.2837,1.3499,.0727,.3556,.1367,.7135,.2115,1.0686,.081,.3842,.1681,.7668,.2547,1.1495l.0138-.0016c.3105,0,.5633,.2771,.5726,.6227,.0106,.256-.115,.4852-.3065,.5981,.0638,.2921,.8895,3.8959,.8895,3.8959,.1542,.791,4.9489,1.2191,11.0538,1.2191s11.0538-.5458,11.0538-1.2191l.3939-1.8325c-.1463-.0991-.2452-.2774-.2452-.483,0-.2991,.2079-.5427,.47-.5631l.0049-.0228c.0816-.3495,.6899-3.1872,.762-3.5195,.051-.2356,.1179-.467,.1693-.7025,.0901-.4122,.1747-.826,.2597-1.2396,.038-.1845,.0682-.3712,.1085-.5551,.0387-.1766,.0916-.3494,.1284-.5265,.066-.3177,.1217-.638,.1878-.9557,.0307-.1474,.0823-.2893,.113-.4366,.0538-.2587,.0909-.5219,.1491-.7792,.1182-.5221,.2504-1.0402,.3678-1.5625,.0628-.2796,.0833-.5735,.165-.845,.1069-.3552,.1694-.7185,.2337-1.0832,.0197-.1119,.0467-.2222,.0715-.3329,.0576-.2566,.1169-.5126,.1736-.7694,.0472-.2136,.0896-.4287,.1385-.6419,.033-.1439,.0736-.2856,.109-.4215-.1081-.1164-.2267-.089-.3249-.0669-.3182,.0715-.6403,.1393-.946,.2571-.2948,.1136-.5176,.3614-.6637,.6699-.1235,.2607-.2304,.5356-.203,.8467,.0016,.0183-.0165,.0386-.0296,.067-.0999-.0152-.1993-.0391-.2994-.0439-.3596-.0172-.7148-.0257-1.0426,.2003-.2806,.1936-.4152,.4656-.4263,.8244-.0168,.5442,.2139,1.0119,.3769,1.4995,.1157,.3461,.2548,.6825,.3645,1.0308,.0696,.2209,.1186,.4531,.1518,.6847,.0526,.3674,.1059,.7398,.0195,1.1095-.0372,.159-.0628,.3369-.232,.4534-.0466-.1123-.0815-.2007-.1195-.2873-.0624-.1417-.1269-.2823-.1905-.4234-.0336-.0744-.0848-.1453-.097-.2239-.0216-.1384-.0888-.2347-.1753-.324-.0398-.0412-.0946-.0807-.1095-.1329-.066-.2323-.2481-.3551-.3918-.4998-.3335-.3359-.7342-.5023-1.1802-.3398-.2075,.0756-.3913,.2326-.5859,.3527-.163,.3288-.3706,.6331-.3304,1.051,.0199,.2061,.0867,.3779,.1702,.5522,.1351,.2818,.3112,.5014,.5974,.6022,.4532,.1594,.8765,.1508,1.2576-.2099,.0106-.01,.034-.003,.083-.0055-.0815,.173-.1491,.3264-.2245,.4747-.1636,.3221-.4596,.4375-.7386,.5686-.3135,.1473-.6558,.1608-.987,.2227-.0827,.0155-.1716-.0102-.2588-.017-.0135-.2039-.046-.3576-.18-.499-.1355-.143-.2932-.1315-.4383-.1754-.0108-.1783,.0038-.3524-.0355-.5095-.1192-.4778-.146-.9968-.4594-1.3941-.0796-.1009-.1629-.1986-.2497-.2917-.0202-.0217-.0716-.0375-.0916-.024-.162,.1091-.3569,.1915-.4716,.3471-.2729,.3701-.5152,.7701-.6564,1.2337-.0387,.1268-.0924,.2478-.1426,.3805-.176-.0749-.3395-.0931-.5026-.0089-.17,.0878-.209,.2858-.2933,.4599-.6757-.2011-1.26-.5246-1.6078-1.2303l.0304-.0343c.1038,.0319,.2065,.0695,.3117,.0947,.5533,.1326,1.0521-.1065,1.3414-.6653,.0552-.1067,.0745-.2385,.1021-.361,.0676-.2994,.0271-.5965-.0752-.8709-.1928-.5168-.5695-.7562-1.0563-.7801-.2471-.0121-.4913,.0391-.6977,.2012-.1894,.1488-.3547,.3326-.4659,.5649-.1499,.3129-.338,.6027-.4311,.9503-.0353,.132-.1144,.2494-.1845,.3963-.0395-.1028-.0687-.1769-.0968-.2516-.1763-.4699-.2573-.9533-.2094-1.4671,.03-.3213,.1185-.62,.2091-.9206,.0455-.1506,.0778-.314,.154-.4435,.1368-.2327,.2243-.4968,.3915-.7112,.2132-.2734,.4002-.5723,.6101-.8493,.1093-.1441,.1914-.3094,.209-.4828,.0141-.1394-.0517-.294-.0985-.4349-.1269-.3825-.3883-.6386-.6896-.8346-.1896-.1234-.4064-.1785-.6178-.0204-.0524,.0392-.1148,.0614-.1542,.0819-.0423-.1578-.0774-.3017-.1198-.4427-.0281-.0935-.0718-.1811-.0995-.2748-.0855-.2899-.2716-.506-.4438-.7244-.2211-.2806-.5203-.4585-.8019-.6535-.0937-.065-.2223-.1253-.3224-.106-.1474,.0284-.3055,.1007-.4193,.2076-.1704,.1601-.3733,.2616-.5366,.4407-.1444,.1582-.2882,.3234-.3935,.5037-.185,.3168-.3629,.6531-.3553,1.081-.2303-.217-.4656-.2576-.7154-.1341-.16,.0792-.3071,.1761-.43,.3296-.1184,.1479-.2155,.3072-.3127,.4708-.2036,.3422-.1511,.7032,.0379,.9348,.268,.3285,.537,.6586,.7452,1.0431,.1573,.2908,.3557,.5554,.4263,.8989,.021,.1025,.069,.1976,.0947,.2994,.0514,.2031,.1198,.4057,.1374,.6132,.0236,.2792,.0135,.5631,.0037,.8444-.0124,.3561-.1514,.6655-.2999,.9806-.0529-.0951-.1062-.1666-.1362-.2487-.1514-.4155-.3432-.8045-.5567-1.1847-.1205-.2146-.2968-.3446-.4572-.5018-.0338-.0332-.0837-.0497-.1286-.0644-.2635-.0857-.5261-.1351-.8001-.0384-.1701,.0599-.3236,.1236-.4556,.2755-.1163,.1339-.2469,.226-.302,.432-.0933,.3488-.1642,.6759-.0524,1.0428,.1002,.3287,.2713,.5867,.5302,.7403,.291,.1726,.614,.2373,.9459,.1169,.0779-.0283,.1618-.0359,.2628-.0572-.1523,.3928-.4035,.6222-.6848,.8266-.28,.2035-.5883,.3108-.9237,.4173-.0055-.248-.1468-.3626-.2943-.4558-.1659-.105-.3376-.0658-.5085,.055-.1948-.8637-.5333-1.602-1.2695-2.049-.0567,.0517-.1235,.1027-.1796,.1656-.2875,.3227-.4226,.738-.5207,1.1634-.0605,.2624-.0632,.5415-.094,.8128-.0056,.0493-.021,.0973-.0365,.1663-.1945-.098-.2967,.067-.4298,.1501-.172,.1073-.108,.3094-.1597,.4806-.0718,0-.1386,.0066-.2041-.0013-.1819-.0221-.3625-.0609-.5447-.0737-.3641-.0254-.6668-.2361-.9867-.3951-.0413-.0205-.0758-.0648-.1063-.105-.0834-.1099-.1685-.2191-.2424-.3369-.0642-.1025-.1063-.2186-.0924-.3625,.4339,.3958,.9964,.4308,1.4606,.1673,.279-.1583,.4551-.4351,.5334-.7878,.105-.4733,.0457-.8957-.2356-1.2819-.1085-.1489-.2522-.2251-.3853-.3261-.1812-.1374-.3912-.1732-.5981-.1544-.2135,.0194-.414,.0935-.6065,.2283-.328,.2298-.5351,.5719-.7549,.9055-.0756,.1148-.1293,.248-.1897,.3748-.0538,.1128-.0983,.2315-.1554,.3421-.0709,.1375-.0896,.3154-.2389,.4131-.1026-.1827-.1957-.3489-.2222-.5631-.0448-.363-.0066-.7109,.0825-1.0586,.0523-.2041,.0873-.4138,.1362-.6192,.0278-.117,.0614-.2335,.1039-.3446,.1405-.3676,.2865-.7326,.4295-1.099,.0108-.0276,.0162-.0581,.023-.0875,.048-.2057,.083-.4166,.1468-.616,.0734-.2294,.0656-.4431-.0184-.6642-.08-.2106-.1449-.4279-.3691-.5075-.0425-.0151-.0735-.067-.1139-.0944-.0395-.0269-.0825-.0551-.1269-.0636-.3486-.0668-.6975-.1172-1.0482-.0113-.0346,.0104-.0756-.0059-.0848-.0068-.0312-.2286-.0543-.4377-.0892-.6444-.0497-.2947-.2425-.4875-.4214-.6801-.1513-.1628-.3302-.2867-.5456-.335-.1989-.0445-.3923-.121-.5918-.1604-.1432-.0283-.2924-.0188-.4391-.0262-.0414,.1687,.0058,.2984,.0343,.428,.0696,.3168,.1465,.6315,.2166,.948Zm25.4875,11.4399c.3089-.0687,.618,.1511,.6824,.4963,.0644,.3453-.1223,.682-.4297,.7572l-.028,.0066c-.0379,.0085-.0757,.0126-.113,.0126-.2676,0-.5068-.2112-.5612-.5167-.062-.348,.1391-.6865,.4495-.756Zm-1.3706,2.3899c.2729-.0312,.5218,.1852,.5565,.4906,.0347,.3051-.1511,.5849-.4222,.6306l-.0285,.0042c-.018,.002-.0359,.003-.0536,.003-.2548,0-.4738-.2159-.5011-.5064-.0291-.3108,.1718-.5893,.4489-.622Zm-1.1624-2.0019l.0296-.0032c.3175-.0308,.5936,.2294,.6217,.5828,.0282,.3534-.2045,.6656-.5197,.6971l-.0078,.0008c-.0198,.0023-.0395,.0034-.0591,.0034-.2898,0-.5397-.2449-.5708-.5749-.0331-.3521,.1921-.6677,.506-.7061Zm-1.0643,2.2661c.2783-.0314,.5154,.1966,.543,.5074,.0278,.3109-.1837,.5889-.461,.62l-.0316,.0027-.0257,.0007c-.2671,0-.49-.2351-.5034-.5375-.014-.312,.2004-.5777,.4787-.5934Zm-1.5058-2.0578c.3175-.0238,.5951,.2523,.612,.6065,.0171,.3545-.2162,.6565-.5322,.6755l-.0186,.0011-.0312,.001c-.3024,0-.5552-.2655-.5716-.6082-.0171-.3543,.2255-.6569,.5415-.6759Zm-.7567,2.2161c.277-.0183,.5184,.2245,.5324,.5367,.014,.312-.1971,.5774-.4754,.5931l-.0066,.0004-.0257,.0008c-.2671,0-.49-.2351-.5034-.5375-.014-.312,.2004-.5777,.4787-.5934Zm-1.8293-2.1003h.0105c.3099-.0001,.5736,.2763,.5819,.6249,.0084,.3525-.2288,.6464-.543,.659l-.0288,.0009h-.0105c-.3116,0-.5671-.28-.5726-.6309-.0056-.3548,.2463-.6476,.5626-.654Zm-.436,2.1904c.287-.0154,.5364,.243,.5364,.5649,0,.3125-.226,.5658-.5045,.5658h-.0004l-.0256,.0006c-.2665,.0001-.4805-.2353-.494-.5377-.0139-.312,.2099-.578,.4882-.5936Zm-2.1718-2.1438l.0288-.0003c.3164,0,.573,.2877,.573,.6426s-.2566,.6426-.573,.6426h-.0171c-.3122,.0001-.5685-.2807-.5735-.632-.0051-.3543,.2458-.6465,.5618-.6528Zm-.0696,2.1796c.2786,0,.5079,.2533,.5079,.5657s-.2227,.5658-.5012,.5658h-.0066c-.2786,0-.5045-.2533-.5045-.5658s.2259-.5657,.5045-.5657Zm-1.7462,.5542c0,.3125-.2353,.5655-.5138,.5655l-.0319-.0008c-.2783-.0156-.4926-.2813-.4787-.5934,.0138-.312,.2478-.5536,.5291-.5368,.2786,0,.4953,.253,.4953,.5654Zm-.7825-2.7496h.0104c.3164,.0065,.5776,.2994,.572,.6543-.0055,.3508-.2519,.6313-.5634,.6313h-.0104l-.0186-.0005c-.3164-.0063-.5683-.2991-.5627-.654,.0055-.3509,.261-.6311,.5727-.6311Zm-1.4937,2.7152c-.0135,.3024-.2365,.5375-.5034,.5375l-.0257-.0007h-.0005c-.2786,0-.495-.2532-.495-.5656,0-.3218,.2612-.5797,.5459-.5645,.2783,.0156,.4926,.2812,.4787,.5933Zm-1.0829-2.7946c.314,.0189,.5652,.3184,.5511,.6707-.0137,.3444-.2581,.6143-.5628,.6143l-.0208-.0004-.0288-.0015c-.316-.019-.5585-.3216-.5415-.6759,.0169-.3543,.2857-.6295,.6027-.6072Zm-1.6419,2.0813c.2783,.0156,.4834,.2804,.4695,.5924-.0135,.3025-.245,.5368-.5125,.5368l-.0258-.0008-.0316-.0025c-.2772-.0312-.4795-.3084-.4517-.6193,.0276-.3106,.2729-.537,.5522-.5066Zm-.9526-2.2403c.3156,.0253,.5626,.3335,.54,.6875-.0216,.3385-.2646,.5975-.5618,.5975-.0137,0-.0275-.0005-.0413-.0016l-.0185-.0015c-.3156-.0253-.5533-.3328-.5308-.6867,.0226-.3538,.2958-.6203,.6124-.5952Zm-1.307,2.0362c.2772,.0311,.4828,.3087,.4551,.6196-.026,.2918-.2424,.5098-.4981,.5098-.0168,0-.0337-.001-.0508-.0028l-.0066-.0008c-.2773-.0311-.4796-.3083-.4518-.6192,.0276-.3106,.273-.5375,.5523-.5066Zm-1.2475-2.3139c.3108,.0508,.5366,.3742,.4945,.7233-.0389,.3223-.2768,.5578-.5584,.5578-.0234,0-.0472-.0016-.0713-.0049l-.0299-.0045c-.3131-.0511-.5301-.3771-.4845-.7283,.0456-.3511,.3376-.5946,.6496-.5434Zm-1.5341,2.3681c.0676-.3031,.3414-.4878,.6118-.4116,.2733,.0613,.4419,.3572,.3873,.6635-.0479,.2686-.2646,.4528-.5014,.4528-.0333,0-.0669-.0036-.1007-.0111l-.0298-.0076c-.2703-.0758-.4347-.3828-.3671-.686Z"/></svg>