<?xml version="1.0" encoding="UTF-8"?>
<svg id="Lager_1" data-name="Lager 1" xmlns="http://www.w3.org/2000/svg" width="10mm" height="6mm" viewBox="0 0 28.3465 17.0079">
  <defs>
    <style>
      .cls-1 {
        fill: #e38d3d;
      }

      .cls-1, .cls-2 {
        stroke-width: 0px;
      }

      .cls-2 {
        fill: #fff;
      }
    </style>
  </defs>
  <rect class="cls-1" x="0" y="0" width="28.3465" height="17.0079" rx=".8504" ry=".8504"/>
  <g>
    <path class="cls-2" d="M3.3823,9.0036c0-1.3071.3511-2.3301,1.0527-3.0693.7017-.7397,1.6079-1.1094,2.7178-1.1094.7271,0,1.3823.1738,1.9658.521s1.0288.8315,1.3345,1.4526c.3066.6216.4595,1.3262.4595,2.1138,0,.7983-.1611,1.5127-.4834,2.1431s-.7788,1.1074-1.3696,1.4316c-.5908.3237-1.228.4858-1.9121.4858-.7412,0-1.4038-.1792-1.9873-.5371s-1.0259-.8467-1.3267-1.4663-.4512-1.2749-.4512-1.9658ZM4.4565,9.0197c0,.9487.2554,1.6963.7651,2.2427.5107.5459,1.1504.8188,1.9204.8188.7842,0,1.4297-.2759,1.936-.8271.5068-.5513.7603-1.334.7603-2.3472,0-.6411-.1084-1.2002-.3247-1.6787-.2168-.4775-.5337-.8486-.9512-1.1113-.417-.2637-.8853-.395-1.4043-.395-.7378,0-1.3721.2534-1.9043.7603-.5312.5063-.7974,1.3525-.7974,2.5376Z"/>
    <path class="cls-2" d="M15.0839,12.8386v-6.9448h-2.5942v-.9292h6.2412v.9292h-2.605v6.9448h-1.042Z"/>
    <path class="cls-2" d="M20.5815,12.8386v-7.874h1.042v6.9448h3.8779v.9292h-4.9199Z"/>
  </g>
</svg>