<?xml version="1.0" encoding="UTF-8"?>
<svg id="Lager_1" data-name="Lager 1" xmlns="http://www.w3.org/2000/svg" width="10mm" height="8.4mm" viewBox="0 0 28.3465 23.811">
  <defs>
    <style>
      .cls-1 {
        fill: #333;
      }

      .cls-1, .cls-2, .cls-3 {
        stroke-width: 0px;
      }

      .cls-2 {
        fill: #c3c4c6;
      }

      .cls-3 {
        fill: #fff;
      }
    </style>
  </defs>
  <path class="cls-1" d="M27.4961,3.1182H.8504c-.4697,0-.8504.3808-.8504.8504v15.3071c0,.4697.3807.8504.8504.8504h26.6457c.4697,0,.8504-.3807.8504-.8504V3.9686c0-.4697-.3807-.8504-.8504-.8504h0Z"/>
  <path class="cls-2" d="M1.7008,4.5356h24.9448c.1565,0,.2835.127.2835.2835v13.6062c0,.1565-.127.2835-.2835.2835H1.7008c-.1565,0-.2835-.127-.2835-.2835V4.8191c0-.1565.127-.2835.2835-.2835Z"/>
  <polygon class="cls-3" points="22.1761 3.3083 6.1683 3.2533 6.1683 1.1341 22.1761 1.1341 22.1761 3.3083"/>
  <path class="cls-3" d="M22.1761,12.1219H6.1683v10.3389h16.0078v-10.3389ZM19.8417,20.3279h-11.3384v-1h11.3384v1ZM19.8417,17.4934h-11.3384v-1h11.3384v1ZM19.8417,14.659h-11.3384v-1h11.3384v1Z"/>
  <path class="cls-1" d="M5.1683,23.4607h18.0078v-12.3389H5.1683v12.3389ZM6.1683,12.1219h16.0078v10.3389H6.1683v-10.3389Z"/>
  <path class="cls-1" d="M5.1683.1341v3.8345h18.0078V.1341H5.1683ZM22.1761,3.3083l-16.0078-.055V1.1341h16.0078v2.1742Z"/>
  <rect class="cls-1" x="8.5033" y="13.659" width="11.3384" height="1"/>
  <rect class="cls-1" x="8.5033" y="16.4934" width="11.3384" height="1"/>
  <rect class="cls-1" x="8.5033" y="19.3279" width="11.3384" height="1"/>
  <path class="cls-1" d="M25.5042,8.598h-2.5477v-2.4429h2.5477v2.4429Z"/>
  <path class="cls-1" d="M20.1686,8.6473c-.7007,0-1.271-.5703-1.271-1.271s.5703-1.271,1.271-1.271,1.271.5703,1.271,1.271-.5703,1.271-1.271,1.271Z"/>
</svg>