<?xml version="1.0" encoding="utf-8"?>
<!-- Generator: Adobe Illustrator 26.0.3, SVG Export Plug-In . SVG Version: 6.00 Build 0)  -->
<svg version="1.1" id="Lager_1" xmlns="http://www.w3.org/2000/svg" xmlns:xlink="http://www.w3.org/1999/xlink" x="0px" y="0px"
	 viewBox="0 0 425.2 99.21" style="enable-background:new 0 0 425.2 99.21;" xml:space="preserve">
<style type="text/css">
	.st0{fill:url(#SVGID_1_);}
</style>
<linearGradient id="SVGID_1_" gradientUnits="userSpaceOnUse" x1="212.5984" y1="0.8504" x2="212.5984" y2="97.8696">
	<stop  offset="0.05" style="stop-color:#D11F38"/>
	<stop  offset="0.1025" style="stop-color:#D94737"/>
	<stop  offset="0.162" style="stop-color:#E16236"/>
	<stop  offset="0.2242" style="stop-color:#E77634"/>
	<stop  offset="0.2893" style="stop-color:#EC8332"/>
	<stop  offset="0.3593" style="stop-color:#F08B32"/>
	<stop  offset="0.4428" style="stop-color:#F18E31"/>
	<stop  offset="0.4883" style="stop-color:#EB8D35"/>
	<stop  offset="0.5508" style="stop-color:#DF8D3F"/>
	<stop  offset="0.623" style="stop-color:#C98D51"/>
	<stop  offset="0.7026" style="stop-color:#AA8C68"/>
	<stop  offset="0.7883" style="stop-color:#7F8B81"/>
	<stop  offset="0.8775" style="stop-color:#328A9F"/>
	<stop  offset="0.9396" style="stop-color:#0089B7"/>
	<stop  offset="0.9495" style="stop-color:#0081AD"/>
	<stop  offset="0.9675" style="stop-color:#006F9A"/>
	<stop  offset="0.9914" style="stop-color:#14557F"/>
	<stop  offset="1" style="stop-color:#234A75"/>
</linearGradient>
<path class="st0" d="M380.43,41.77l-10.56,0.57l-4,8.19h4.76L380.43,41.77z M366.54,90.7h20.27v6.61h-28.73V53.54h28.29v6.61h-19.83
	v11.5h18.98v6.61h-18.98V90.7z M19.02,16.26L6.58,1.34H0v37.84h7.31V12.61h0.22l10.94,13.33h1.03l10.94-13.33h0.22v26.57h7.31V1.34
	h-6.53L19.02,16.26z M47.87,39.18h7.31V1.34h-7.31V39.18z M98.59,10.52c1.7,2.91,2.55,6.18,2.55,9.81c0,3.7-0.85,6.98-2.56,9.85
	c-1.71,2.86-4.13,5.08-7.27,6.65c-3.14,1.57-6.75,2.36-10.81,2.36H65.08V1.34h15.85c3.94,0,7.44,0.8,10.51,2.41
	C94.51,5.36,96.89,7.61,98.59,10.52z M93.58,20.27c0-4.08-1.23-7.3-3.7-9.67c-2.47-2.37-5.78-3.55-9.96-3.55h-7.53v26.41h7.77
	c4.05,0,7.29-1.21,9.74-3.64C92.35,27.39,93.58,24.21,93.58,20.27z M137.99,27.75L115.5,1.34h-6.42v37.84h7.15V12.34l22.62,26.85
	h6.28V1.34h-7.15V27.75z M155.04,39.18h7.31V1.34h-7.31V39.18z M192.77,25.64h6.26v6.28c-1.46,0.56-2.72,0.94-3.78,1.14
	c-1.06,0.2-2.16,0.3-3.32,0.3c-4.21,0-7.6-1.18-10.17-3.54c-2.57-2.36-3.86-5.47-3.86-9.33c0-2.55,0.59-4.85,1.77-6.92
	c1.18-2.07,2.85-3.65,5-4.75c2.15-1.1,4.61-1.65,7.37-1.65c4.44,0,8.96,1.16,13.54,3.49V3.97c-4.59-2.08-9.21-3.12-13.87-3.12
	c-4.03,0-7.68,0.83-10.96,2.49c-3.28,1.66-5.83,3.99-7.67,6.99c-1.83,3-2.75,6.35-2.75,10.05c0,3.65,0.91,6.95,2.72,9.91
	c1.81,2.96,4.34,5.26,7.58,6.91c3.24,1.64,6.86,2.47,10.85,2.47c2.82,0,5.53-0.37,8.14-1.1c2.61-0.73,4.84-1.75,6.7-3.05v-15.6
	h-13.57V25.64z M242.63,17.27h-19.64V1.34h-7.31v37.84h7.31V23.2h19.64v15.98h7.31V1.34h-7.31V17.27z M255.97,7.05h13.44v32.13h7.31
	V7.05h13.44V1.34h-34.19V7.05z M328.91,17.48c-3.63-1.66-5.72-2.67-6.26-3.03c-1.93-1.21-2.9-2.53-2.9-3.96
	c0-1.19,0.52-2.14,1.56-2.86c1.04-0.71,2.48-1.07,4.32-1.07c3.03,0,6.51,1.18,10.43,3.55v-6.5c-3.41-1.84-6.96-2.76-10.65-2.76
	c-3.88,0-7.01,0.94-9.37,2.83c-2.37,1.89-3.55,4.42-3.55,7.6c0,2.38,0.74,4.48,2.21,6.28c1.47,1.81,3.7,3.39,6.68,4.74
	c2.51,1.21,4.56,2.25,6.15,3.12c1.91,1.1,2.87,2.53,2.87,4.28c0,1.28-0.55,2.31-1.65,3.09c-1.1,0.78-2.55,1.16-4.33,1.16
	c-3.58,0-7.39-1.68-11.43-5.04v7.21c2.17,1.3,4.12,2.22,5.86,2.75c1.74,0.53,3.82,0.8,6.24,0.8c3.72,0,6.75-1,9.09-2.99
	c2.34-2,3.51-4.62,3.51-7.87c0-2.51-0.69-4.66-2.06-6.45C334.26,20.57,332.02,18.95,328.91,17.48z M372.19,22.87
	c0,2.51-0.36,4.47-1.08,5.89c-0.72,1.42-1.86,2.54-3.43,3.36c-1.56,0.82-3.46,1.23-5.7,1.23c-2.04,0-3.83-0.43-5.36-1.3
	c-1.54-0.87-2.64-1.97-3.32-3.3c-0.68-1.34-1.02-3.13-1.02-5.39V1.34h-7.34v22.75c0,3.18,0.68,5.95,2.03,8.3
	c1.35,2.36,3.32,4.16,5.89,5.4c2.57,1.25,5.61,1.87,9.12,1.87c5.58,0,9.9-1.37,12.95-4.1c3.05-2.74,4.58-6.65,4.58-11.74V1.34h-7.31
	V22.87z M417.96,27.75L395.47,1.34h-6.42v37.84h7.15V12.34l22.62,26.85h6.28V1.34h-7.15V27.75z M29.91,86.34
	c2.67,5.31,4.66,8.96,5.95,10.96h-9.43c-0.65-0.96-1.52-2.5-2.63-4.61c-2.42-4.66-4.2-7.8-5.33-9.41c-1.13-1.62-2.21-2.77-3.26-3.45
	c-1.04-0.68-2.25-1.02-3.6-1.02H8.55v18.48H0.09V53.54h15.76c4.11,0,7.47,1.14,10.06,3.41c2.59,2.28,3.88,5.24,3.88,8.9
	c0,2.49-0.64,4.65-1.93,6.5c-1.28,1.85-3.19,3.31-5.72,4.37c1.4,0.75,2.64,1.78,3.73,3.07C26.96,81.09,28.3,83.27,29.91,86.34z
	 M21.05,66.01c0-2-0.63-3.5-1.88-4.5c-1.25-0.99-3.04-1.49-5.36-1.49H8.55v12.19h5.39c2.21,0,3.95-0.55,5.22-1.66
	C20.41,69.45,21.05,67.93,21.05,66.01z M67.1,53.54l19.33,43.76H77.5l-4.54-10.65H53.5l-4.23,10.65h-8.87l18.04-43.76H67.1z
	 M56.07,80.23H70.2l-7.39-17.32 M126.24,84.09l-26-30.54h-7.42v43.76h8.27V66.26l26.16,31.05h7.27V53.54h-8.27V84.09z M184.64,64.16
	c1.96,3.36,2.94,7.14,2.94,11.34c0,4.28-0.99,8.08-2.96,11.39c-1.97,3.31-4.78,5.87-8.41,7.69c-3.63,1.82-7.8,2.73-12.5,2.73h-17.83
	V53.54h18.33c4.55,0,8.6,0.93,12.15,2.79C179.92,58.19,182.68,60.8,184.64,64.16z M178.84,75.44c0-4.72-1.43-8.45-4.28-11.18
	c-2.85-2.74-6.69-4.1-11.51-4.1h-8.71V90.7h8.99c4.68,0,8.43-1.4,11.26-4.21C177.43,83.67,178.84,79.99,178.84,75.44z M239.53,63.86
	c2.15,3.52,3.23,7.38,3.23,11.58c0,4.09-1.05,7.89-3.15,11.39c-2.1,3.5-4.98,6.21-8.65,8.15c-3.67,1.93-7.8,2.9-12.39,2.9
	c-4.53,0-8.65-0.98-12.36-2.94c-3.71-1.96-6.59-4.66-8.66-8.1c-2.07-3.44-3.1-7.23-3.1-11.39c0-4.01,1.03-7.78,3.1-11.31
	c2.07-3.53,4.92-6.27,8.55-8.22c3.63-1.95,7.81-2.93,12.53-2.93c4.53,0,8.61,0.93,12.23,2.8C234.49,57.65,237.38,60.34,239.53,63.86
	z M234.05,75.44c0-2.9-0.65-5.52-1.96-7.85c-1.31-2.33-3.14-4.13-5.51-5.4c-2.37-1.27-5.04-1.91-8-1.91c-2.97,0-5.63,0.64-8,1.93
	c-2.37,1.28-4.19,3.08-5.47,5.39c-1.27,2.31-1.91,4.92-1.91,7.85c0,2.9,0.66,5.51,1.97,7.83c1.32,2.32,3.15,4.11,5.5,5.39
	c2.35,1.27,5.01,1.91,7.97,1.91c4.49,0,8.18-1.41,11.07-4.23C232.6,83.52,234.05,79.89,234.05,75.44z M285.36,84.09l-26-30.54h-7.42
	v43.76h8.27V66.26l26.16,31.05h7.27V53.54h-8.27V84.09z M338.43,84.09l-26-30.54h-7.42v43.76h8.27V66.26l26.16,31.05h7.27V53.54
	h-8.27V84.09z M404.93,78.26h18.98v-6.61h-18.98v-11.5h19.83v-6.61h-28.29v43.76h28.73V90.7h-20.27V78.26z"/>
</svg>
