<?xml version="1.0" encoding="utf-8"?>
<!-- Generator: Adobe Illustrator 26.0.3, SVG Export Plug-In . SVG Version: 6.00 Build 0)  -->
<svg version="1.1" id="Lager_1" xmlns="http://www.w3.org/2000/svg" xmlns:xlink="http://www.w3.org/1999/xlink" x="0px" y="0px"
	 viewBox="0 0 569.76 30.05" style="enable-background:new 0 0 569.76 30.05;" xml:space="preserve">
<style type="text/css">
	.st0{fill:url(#SVGID_1_);}
	.st1{fill:url(#SVGID_00000026142873658075229070000007795022748863625146_);}
	.st2{fill:url(#SVGID_00000026126298384840531980000008542759217756043937_);}
</style>
<linearGradient id="SVGID_1_" gradientUnits="userSpaceOnUse" x1="461.1412" y1="0" x2="461.1412" y2="5.5232">
	<stop  offset="0.2254" style="stop-color:#D11F38"/>
	<stop  offset="0.2649" style="stop-color:#D84438"/>
	<stop  offset="0.3148" style="stop-color:#E06136"/>
	<stop  offset="0.3663" style="stop-color:#E77534"/>
	<stop  offset="0.4198" style="stop-color:#EC8233"/>
	<stop  offset="0.4761" style="stop-color:#F08B32"/>
	<stop  offset="0.5403" style="stop-color:#F18E31"/>
	<stop  offset="0.5898" style="stop-color:#C08D58"/>
	<stop  offset="0.6551" style="stop-color:#7E8B82"/>
	<stop  offset="0.7089" style="stop-color:#378A9E"/>
	<stop  offset="0.7483" style="stop-color:#0089B0"/>
	<stop  offset="0.7693" style="stop-color:#0089B7"/>
	<stop  offset="0.7962" style="stop-color:#0081AD"/>
	<stop  offset="0.8451" style="stop-color:#006F9A"/>
	<stop  offset="0.9101" style="stop-color:#14557F"/>
	<stop  offset="0.9337" style="stop-color:#234A75"/>
</linearGradient>
<polygon class="st0" points="459.33,5.52 456.89,5.52 459.96,0 465.39,0 "/>
<linearGradient id="SVGID_00000172418307757744003680000011601600415011085707_" gradientUnits="userSpaceOnUse" x1="460.2581" y1="0" x2="460.2581" y2="29.4946">
	<stop  offset="0.2971" style="stop-color:#D11F38"/>
	<stop  offset="0.3276" style="stop-color:#D84438"/>
	<stop  offset="0.3661" style="stop-color:#E06136"/>
	<stop  offset="0.4059" style="stop-color:#E77534"/>
	<stop  offset="0.4472" style="stop-color:#EC8233"/>
	<stop  offset="0.4907" style="stop-color:#F08B32"/>
	<stop  offset="0.5403" style="stop-color:#F18E31"/>
	<stop  offset="0.5621" style="stop-color:#EC8D34"/>
	<stop  offset="0.5896" style="stop-color:#E18D3E"/>
	<stop  offset="0.62" style="stop-color:#CE8D4D"/>
	<stop  offset="0.6526" style="stop-color:#B38C62"/>
	<stop  offset="0.687" style="stop-color:#8D8B7A"/>
	<stop  offset="0.7229" style="stop-color:#558A95"/>
	<stop  offset="0.7593" style="stop-color:#0089B4"/>
	<stop  offset="0.7617" style="stop-color:#0089B7"/>
	<stop  offset="0.7899" style="stop-color:#0081AD"/>
	<stop  offset="0.8411" style="stop-color:#006F9A"/>
	<stop  offset="0.909" style="stop-color:#14557F"/>
	<stop  offset="0.9337" style="stop-color:#234A75"/>
</linearGradient>
<path style="fill:url(#SVGID_00000172418307757744003680000011601600415011085707_);" d="M465.39,0h-5.43l-3.07,5.52h2.44L465.39,0z
	 M457.23,26.11h10.39v3.39H452.9V7.06h14.5v3.39h-10.16v5.89h9.73v3.39h-9.73V26.11z"/>
<linearGradient id="SVGID_00000034053820503553818670000009929738855106783637_" gradientUnits="userSpaceOnUse" x1="284.8819" y1="6.7756" x2="284.8819" y2="29.7836">
	<stop  offset="0.1551" style="stop-color:#D11F38"/>
	<stop  offset="0.1718" style="stop-color:#D73C38"/>
	<stop  offset="0.1978" style="stop-color:#DE5837"/>
	<stop  offset="0.2266" style="stop-color:#E46D35"/>
	<stop  offset="0.2587" style="stop-color:#E97B33"/>
	<stop  offset="0.296" style="stop-color:#EE8632"/>
	<stop  offset="0.3433" style="stop-color:#F18C32"/>
	<stop  offset="0.4334" style="stop-color:#F18E31"/>
	<stop  offset="0.5097" style="stop-color:#C28D57"/>
	<stop  offset="0.6822" style="stop-color:#408A9C"/>
	<stop  offset="0.7578" style="stop-color:#0089B7"/>
	<stop  offset="0.7942" style="stop-color:#0081AD"/>
	<stop  offset="0.8604" style="stop-color:#006F9A"/>
	<stop  offset="0.9482" style="stop-color:#14557F"/>
	<stop  offset="0.98" style="stop-color:#234A75"/>
</linearGradient>
<path style="fill:url(#SVGID_00000034053820503553818670000009929738855106783637_);" d="M12.69,15.91L5.32,7.06h-3.9v22.43h4.34
	V13.74h0.13l6.49,7.9h0.61l6.49-7.9h0.13v15.75h4.34V7.06h-3.87L12.69,15.91z M29.79,29.49h4.34V7.06h-4.34V29.49z M59.85,12.51
	c1.01,1.72,1.51,3.66,1.51,5.81c0,2.19-0.51,4.14-1.52,5.84c-1.01,1.7-2.45,3.01-4.31,3.94c-1.86,0.93-4,1.4-6.41,1.4h-9.14V7.06
	h9.39c2.33,0,4.41,0.48,6.23,1.43C57.43,9.45,58.85,10.78,59.85,12.51z M56.88,18.29c0-2.42-0.73-4.33-2.19-5.73
	c-1.46-1.4-3.43-2.1-5.9-2.1h-4.46v15.65h4.61c2.4,0,4.32-0.72,5.77-2.16C56.16,22.51,56.88,20.62,56.88,18.29z M83.2,22.72
	L69.88,7.06h-3.81v22.43h4.24V13.58l13.41,15.91h3.72V7.06H83.2V22.72z M93.31,29.49h4.34V7.06h-4.34V29.49z M115.67,21.47h3.71
	v3.72c-0.87,0.33-1.61,0.56-2.24,0.67c-0.63,0.12-1.28,0.18-1.97,0.18c-2.49,0-4.5-0.7-6.03-2.1c-1.53-1.4-2.29-3.24-2.29-5.53
	c0-1.51,0.35-2.88,1.05-4.1c0.7-1.23,1.69-2.16,2.96-2.82c1.27-0.65,2.73-0.98,4.37-0.98c2.63,0,5.31,0.69,8.03,2.07V8.62
	c-2.72-1.23-5.46-1.85-8.22-1.85c-2.39,0-4.55,0.49-6.49,1.48c-1.94,0.98-3.46,2.37-4.54,4.14c-1.09,1.78-1.63,3.76-1.63,5.96
	c0,2.16,0.54,4.12,1.61,5.88c1.08,1.76,2.57,3.12,4.5,4.09c1.92,0.97,4.06,1.46,6.43,1.46c1.67,0,3.28-0.22,4.82-0.65
	c1.55-0.43,2.87-1.04,3.97-1.81v-9.25h-8.04V21.47z M145.22,16.51h-11.64V7.06h-4.34v22.43h4.34v-9.47h11.64v9.47h4.34V7.06h-4.34
	V16.51z M153.13,10.45h7.96v19.04h4.34V10.45h7.96V7.06h-20.26V10.45z M196.37,16.63c-2.15-0.98-3.39-1.58-3.71-1.8
	c-1.15-0.72-1.72-1.5-1.72-2.34c0-0.71,0.31-1.27,0.92-1.69c0.62-0.42,1.47-0.63,2.56-0.63c1.8,0,3.86,0.7,6.18,2.1V8.41
	c-2.02-1.09-4.13-1.64-6.31-1.64c-2.3,0-4.15,0.56-5.56,1.68c-1.4,1.12-2.1,2.62-2.1,4.5c0,1.41,0.44,2.65,1.31,3.73
	c0.87,1.07,2.19,2.01,3.96,2.81c1.49,0.72,2.7,1.33,3.64,1.85c1.13,0.65,1.7,1.5,1.7,2.54c0,0.76-0.33,1.37-0.98,1.83
	c-0.65,0.46-1.51,0.69-2.57,0.69c-2.12,0-4.38-1-6.78-2.99v4.27c1.28,0.77,2.44,1.31,3.48,1.63c1.03,0.32,2.27,0.47,3.7,0.47
	c2.2,0,4-0.59,5.39-1.77c1.39-1.18,2.08-2.74,2.08-4.66c0-1.49-0.41-2.76-1.22-3.82C199.53,18.46,198.21,17.5,196.37,16.63z
	 M222.01,19.83c0,1.49-0.21,2.65-0.64,3.49c-0.43,0.84-1.11,1.5-2.03,1.99c-0.93,0.49-2.05,0.73-3.38,0.73
	c-1.21,0-2.27-0.26-3.18-0.77c-0.91-0.51-1.57-1.17-1.97-1.96c-0.4-0.79-0.6-1.86-0.6-3.2V7.06h-4.35v13.49
	c0,1.88,0.4,3.52,1.2,4.92c0.8,1.4,1.97,2.46,3.49,3.2c1.53,0.74,3.33,1.11,5.4,1.11c3.31,0,5.87-0.81,7.67-2.43
	c1.81-1.62,2.71-3.94,2.71-6.96V7.06h-4.34V19.83z M249.14,22.72L235.82,7.06h-3.81v22.43h4.24V13.58l13.41,15.91h3.72V7.06h-4.24
	V22.72z M284.71,23.88c1.37,2.72,2.39,4.59,3.05,5.62h-4.83c-0.33-0.49-0.78-1.28-1.35-2.36c-1.24-2.39-2.15-4-2.73-4.82
	c-0.58-0.83-1.13-1.42-1.67-1.77c-0.54-0.35-1.15-0.52-1.85-0.52h-1.57v9.47h-4.34V7.06h8.08c2.11,0,3.83,0.58,5.15,1.75
	c1.33,1.17,1.99,2.69,1.99,4.56c0,1.27-0.33,2.38-0.99,3.33c-0.66,0.95-1.64,1.69-2.93,2.24c0.72,0.39,1.35,0.91,1.91,1.57
	C283.19,21.18,283.88,22.3,284.71,23.88z M280.16,13.45c0-1.03-0.32-1.8-0.96-2.3c-0.64-0.51-1.56-0.76-2.75-0.76h-2.7v6.25h2.76
	c1.13,0,2.03-0.28,2.67-0.85C279.84,15.22,280.16,14.44,280.16,13.45z M303.76,7.06l9.91,22.43h-4.58l-2.33-5.46h-9.97l-2.17,5.46
	h-4.54l9.25-22.43H303.76z M298.11,20.74h7.24l-3.79-8.88 M334.08,22.72L320.75,7.06h-3.81v22.43h4.24V13.58l13.41,15.91h3.72V7.06
	h-4.24V22.72z M364.01,12.51c1.01,1.72,1.51,3.66,1.51,5.81c0,2.19-0.51,4.14-1.52,5.84c-1.01,1.7-2.45,3.01-4.31,3.94
	c-1.86,0.93-4,1.4-6.41,1.4h-9.14V7.06h9.39c2.33,0,4.41,0.48,6.23,1.43C361.59,9.45,363,10.78,364.01,12.51z M361.04,18.29
	c0-2.42-0.73-4.33-2.19-5.73c-1.46-1.4-3.43-2.1-5.9-2.1h-4.46v15.65h4.61c2.4,0,4.32-0.72,5.77-2.16
	C360.31,22.51,361.04,20.62,361.04,18.29z M392.14,12.35c1.1,1.8,1.65,3.78,1.65,5.93c0,2.1-0.54,4.04-1.61,5.84
	c-1.08,1.79-2.55,3.18-4.43,4.17c-1.88,0.99-4,1.49-6.35,1.49c-2.32,0-4.43-0.5-6.33-1.51c-1.9-1.01-3.38-2.39-4.44-4.15
	c-1.06-1.76-1.59-3.71-1.59-5.84c0-2.06,0.53-3.99,1.59-5.8c1.06-1.81,2.52-3.21,4.38-4.21c1.86-1,4-1.5,6.42-1.5
	c2.32,0,4.41,0.48,6.27,1.44C389.56,9.17,391.04,10.55,392.14,12.35z M389.33,18.29c0-1.49-0.33-2.83-1-4.02
	c-0.67-1.19-1.61-2.12-2.83-2.77c-1.21-0.65-2.58-0.98-4.1-0.98c-1.52,0-2.89,0.33-4.1,0.99c-1.21,0.66-2.15,1.58-2.8,2.76
	c-0.65,1.18-0.98,2.52-0.98,4.02c0,1.49,0.34,2.83,1.01,4.01c0.67,1.19,1.61,2.11,2.82,2.76c1.2,0.65,2.57,0.98,4.09,0.98
	c2.3,0,4.19-0.72,5.68-2.17C388.59,22.43,389.33,20.57,389.33,18.29z M415.63,22.72L402.3,7.06h-3.81v22.43h4.24V13.58l13.41,15.91
	h3.72V7.06h-4.24V22.72z M442.83,22.72L429.5,7.06h-3.81v22.43h4.24V13.58l13.41,15.91h3.72V7.06h-4.24V22.72z M476.91,19.73h9.73
	v-3.39h-9.73v-5.89h10.16V7.06h-14.5v22.43h14.72v-3.39h-10.39V19.73z M506.59,29.49h4.11V7.06h-4.11V29.49z M528.7,18.46
	c0.94-1.8,1.4-3.47,1.4-5.01c0-2.02-0.63-3.64-1.89-4.86c-1.26-1.21-2.95-1.82-5.08-1.82c-1.99,0-3.94,0.71-5.86,2.14v4.4
	c1.82-1.93,3.57-2.89,5.27-2.89c0.94,0,1.74,0.35,2.4,1.05c0.66,0.7,0.99,1.57,0.99,2.59c0,0.82-0.14,1.62-0.42,2.39
	c-0.28,0.77-0.75,1.7-1.41,2.8c-0.66,1.1-1.6,2.48-2.82,4.14c-1.21,1.66-2.67,3.54-4.36,5.63v0.47h14.53v-3.89h-7.69
	C526.12,22.64,527.77,20.26,528.7,18.46z M547.63,9.84c1.33,2.04,2,4.84,2,8.38c0,3.58-0.66,6.4-1.97,8.46
	c-1.32,2.07-3.11,3.1-5.39,3.1c-2.31,0-4.14-1.02-5.48-3.07c-1.34-2.05-2.02-4.86-2.02-8.42c0-3.55,0.67-6.36,2.01-8.42
	c1.34-2.06,3.16-3.09,5.46-3.09C544.5,6.78,546.3,7.8,547.63,9.84z M545.44,18.01c0-5.04-1.08-7.56-3.24-7.56
	c-2.17,0-3.26,2.65-3.26,7.96c0,5.13,1.1,7.69,3.29,7.69C544.37,26.11,545.44,23.41,545.44,18.01z M566.35,9.84
	c1.33,2.04,2,4.84,2,8.38c0,3.58-0.66,6.4-1.97,8.46c-1.32,2.07-3.11,3.1-5.39,3.1c-2.31,0-4.14-1.02-5.48-3.07
	c-1.34-2.05-2.02-4.86-2.02-8.42c0-3.55,0.67-6.36,2.01-8.42c1.34-2.06,3.16-3.09,5.46-3.09C563.21,6.78,565.01,7.8,566.35,9.84z
	 M564.16,18.01c0-5.04-1.08-7.56-3.24-7.56c-2.17,0-3.26,2.65-3.26,7.96c0,5.13,1.1,7.69,3.29,7.69
	C563.08,26.11,564.16,23.41,564.16,18.01z"/>
</svg>
