<?xml version="1.0" encoding="utf-8"?>
<!-- Generator: Adobe Illustrator 26.0.3, SVG Export Plug-In . SVG Version: 6.00 Build 0)  -->
<svg version="1.1" id="Lager_1" xmlns="http://www.w3.org/2000/svg" xmlns:xlink="http://www.w3.org/1999/xlink" x="0px" y="0px"
	 viewBox="0 0 691.7 99.2" style="enable-background:new 0 0 691.7 99.2;" xml:space="preserve">
<style type="text/css">
	.st0{fill:url(#SVGID_1_);}
	.st1{fill:url(#SVGID_00000070106757650821266770000014834156205962484140_);}
</style>
<linearGradient id="SVGID_1_" gradientUnits="userSpaceOnUse" x1="213.4004" y1="-642.61" x2="213.4004" y2="-739.61" gradientTransform="matrix(1 0 0 -1 0 -642.11)">
	<stop  offset="5.000000e-02" style="stop-color:#D11F38"/>
	<stop  offset="0.1025" style="stop-color:#D94737"/>
	<stop  offset="0.162" style="stop-color:#E16236"/>
	<stop  offset="0.2242" style="stop-color:#E77634"/>
	<stop  offset="0.2893" style="stop-color:#EC8332"/>
	<stop  offset="0.3593" style="stop-color:#F08B32"/>
	<stop  offset="0.4428" style="stop-color:#F18E31"/>
	<stop  offset="0.4883" style="stop-color:#EB8D35"/>
	<stop  offset="0.5508" style="stop-color:#DF8D3F"/>
	<stop  offset="0.623" style="stop-color:#C98D51"/>
	<stop  offset="0.7026" style="stop-color:#AA8C68"/>
	<stop  offset="0.7883" style="stop-color:#7F8B81"/>
	<stop  offset="0.8775" style="stop-color:#328A9F"/>
	<stop  offset="0.9396" style="stop-color:#0089B7"/>
	<stop  offset="0.9495" style="stop-color:#0081AD"/>
	<stop  offset="0.9675" style="stop-color:#006F9A"/>
	<stop  offset="0.9914" style="stop-color:#14557F"/>
	<stop  offset="1" style="stop-color:#234A75"/>
</linearGradient>
<path class="st0" d="M381.3,41.5L370.8,42l-4,8.2h4.8L381.3,41.5z M367.4,90.4h20.3V97H359V53.2h28.3v6.6h-19.8v11.5h19v6.6h-19
	L367.4,90.4L367.4,90.4z M19.9,15.9L7.5,1H0.9v37.8h7.3V12.3h0.2l10.9,13.3h1l10.9-13.3h0.2v26.6h7.5V1h-6.5L19.9,15.9z M48.8,38.9
	h7.3V1h-7.3V38.9z M99.5,10.2c1.7,2.9,2.6,6.2,2.6,9.8c0,3.7-0.8,7-2.6,9.8c-1.7,2.9-4.1,5.1-7.3,6.6s-6.7,2.4-10.8,2.4H66V1h15.8
	c3.9,0,7.4,0.8,10.5,2.4S97.8,7.3,99.5,10.2z M94.5,20c0-4.1-1.2-7.3-3.7-9.7s-5.8-3.5-10-3.5h-7.5v26.4h7.8c4.1,0,7.3-1.2,9.7-3.6
	C93.3,27.1,94.5,23.9,94.5,20z M138.9,27.4L116.4,1H110v37.8h7.1V12l22.6,26.8h6.3V1h-7.1V27.4L138.9,27.4z M155.9,38.9h7.3V1h-7.3
	V38.9z M193.7,25.3h6.3v6.3c-1.5,0.6-2.7,0.9-3.8,1.1S194,33,192.9,33c-4.2,0-7.6-1.2-10.2-3.5c-2.6-2.4-3.9-5.5-3.9-9.3
	c0-2.5,0.6-4.8,1.8-6.9s2.9-3.6,5-4.7S190.2,7,193,7c4.4,0,9,1.2,13.5,3.5V3.7c-4.6-2.1-9.2-3.1-13.9-3.1c-4,0-7.7,0.8-11,2.5
	s-5.8,4-7.7,7c-1.8,3-2.7,6.3-2.7,10c0,3.6,0.9,6.9,2.7,9.9s4.3,5.3,7.6,6.9c3.2,1.6,6.9,2.5,10.8,2.5c2.8,0,5.5-0.4,8.1-1.1
	s4.8-1.8,6.7-3V19.6h-13.6L193.7,25.3L193.7,25.3z M243.5,17h-19.6V1h-7.3v37.8h7.3v-16h19.6v16h7.3V1h-7.3V17z M256.9,6.7h13.4
	v32.1h7.3V6.7H291V1h-34.1V6.7z M329.8,17.2c-3.6-1.7-5.7-2.7-6.3-3c-1.9-1.2-2.9-2.5-2.9-4c0-1.2,0.5-2.1,1.6-2.9
	c1-0.7,2.5-1.1,4.3-1.1c3,0,6.5,1.2,10.4,3.5V3.3c-3.4-1.8-7-2.8-10.6-2.8c-3.9,0-7,0.9-9.4,2.8s-3.5,4.4-3.5,7.6
	c0,2.4,0.7,4.5,2.2,6.3s3.7,3.4,6.7,4.7c2.5,1.2,4.6,2.2,6.1,3.1c1.9,1.1,2.9,2.5,2.9,4.3c0,1.3-0.5,2.3-1.6,3.1s-2.5,1.2-4.3,1.2
	c-3.6,0-7.4-1.7-11.4-5v7.2c2.2,1.3,4.1,2.2,5.9,2.8s3.8,0.8,6.2,0.8c3.7,0,6.8-1,9.1-3c2.3-2,3.5-4.6,3.5-7.9
	c0-2.5-0.7-4.7-2.1-6.4C335.2,20.3,332.9,18.6,329.8,17.2z M373.1,22.6c0,2.5-0.4,4.5-1.1,5.9s-1.9,2.5-3.4,3.4
	c-1.6,0.8-3.5,1.2-5.7,1.2c-2,0-3.8-0.4-5.4-1.3c-1.5-0.9-2.6-2-3.3-3.3c-0.7-1.3-1-3.1-1-5.4V1h-7.3v22.7c0,3.2,0.7,5.9,2,8.3
	c1.4,2.4,3.3,4.2,5.9,5.4s5.6,1.9,9.1,1.9c5.6,0,9.9-1.4,13-4.1c3-2.7,4.6-6.6,4.6-11.7V1h-7.3L373.1,22.6L373.1,22.6z M418.9,27.4
	L396.4,1H390v37.8h7.1V12l22.6,26.8h6.3V1h-7.1V27.4L418.9,27.4z M30.8,86c2.7,5.3,4.7,9,5.9,11h-9.4c-0.6-1-1.5-2.5-2.6-4.6
	c-2.4-4.7-4.2-7.8-5.3-9.4c-1.1-1.6-2.2-2.8-3.3-3.4c-1-0.7-2.2-1-3.6-1h-3V97H1V53.2h15.8c4.1,0,7.5,1.1,10.1,3.4
	c2.6,2.3,3.9,5.2,3.9,8.9c0,2.5-0.6,4.6-1.9,6.5c-1.3,1.8-3.2,3.3-5.7,4.4c1.4,0.7,2.6,1.8,3.7,3.1C27.9,80.8,29.2,83,30.8,86z
	 M22,65.7c0-2-0.6-3.5-1.9-4.5c-1.2-1-3-1.5-5.4-1.5H9.5v12.2h5.4c2.2,0,3.9-0.6,5.2-1.7C21.3,69.1,22,67.6,22,65.7z M68,53.2
	L87.3,97h-8.9l-4.5-10.7H54.4L50.2,97h-8.9l18-43.8H68z M57,79.9h14.1l-7.4-17.3 M127.1,83.8l-26-30.5h-7.4V97h8.3V66l26.2,31h7.3
	V53.2h-8.3L127.1,83.8L127.1,83.8z M185.5,63.8c2,3.4,2.9,7.1,2.9,11.3c0,4.3-1,8.1-3,11.4s-4.8,5.9-8.4,7.7
	c-3.6,1.8-7.8,2.7-12.5,2.7h-17.8V53.2H165c4.6,0,8.6,0.9,12.1,2.8C180.8,57.9,183.6,60.5,185.5,63.8z M179.7,75.1
	c0-4.7-1.4-8.4-4.3-11.2c-2.9-2.7-6.7-4.1-11.5-4.1h-8.7v30.5h9c4.7,0,8.4-1.4,11.3-4.2C178.3,83.4,179.7,79.7,179.7,75.1z
	 M240.4,63.5c2.1,3.5,3.2,7.4,3.2,11.6c0,4.1-1,7.9-3.1,11.4s-5,6.2-8.6,8.1c-3.7,1.9-7.8,2.9-12.4,2.9c-4.5,0-8.6-1-12.4-2.9
	c-3.7-2-6.6-4.7-8.7-8.1s-3.1-7.2-3.1-11.4c0-4,1-7.8,3.1-11.3c2.1-3.5,4.9-6.3,8.6-8.2c3.6-2,7.8-2.9,12.5-2.9
	c4.5,0,8.6,0.9,12.2,2.8C235.4,57.3,238.3,60,240.4,63.5z M235,75.1c0-2.9-0.6-5.5-2-7.8c-1.3-2.3-3.1-4.1-5.5-5.4
	c-2.4-1.3-5-1.9-8-1.9s-5.6,0.6-8,1.9c-2.4,1.3-4.2,3.1-5.5,5.4s-1.9,4.9-1.9,7.8s0.7,5.5,2,7.8s3.1,4.1,5.5,5.4s5,1.9,8,1.9
	c4.5,0,8.2-1.4,11.1-4.2C233.5,83.2,235,79.6,235,75.1z M286.3,83.8l-26-30.5h-7.4V97h8.3V66l26.2,31h7.3V53.2h-8.3L286.3,83.8
	L286.3,83.8z M339.3,83.8l-26-30.5h-7.4V97h8.3V66l26.2,31h7.3V53.2h-8.3L339.3,83.8L339.3,83.8z M405.8,77.9h19v-6.6h-19V59.8h19.8
	v-6.6h-28.3V97H426v-6.6h-20.3L405.8,77.9L405.8,77.9z"/>
<linearGradient id="SVGID_00000058585270620723982400000012456196286890062720_" gradientUnits="userSpaceOnUse" x1="569.1126" y1="742.5" x2="569.1126" y2="839.5" gradientTransform="matrix(1 0 0 1 0 -742)">
	<stop  offset="5.000000e-02" style="stop-color:#D11F38"/>
	<stop  offset="0.1025" style="stop-color:#D94737"/>
	<stop  offset="0.162" style="stop-color:#E16236"/>
	<stop  offset="0.2242" style="stop-color:#E77634"/>
	<stop  offset="0.2893" style="stop-color:#EC8332"/>
	<stop  offset="0.3593" style="stop-color:#F08B32"/>
	<stop  offset="0.4428" style="stop-color:#F18E31"/>
	<stop  offset="0.4883" style="stop-color:#EB8D35"/>
	<stop  offset="0.5508" style="stop-color:#DF8D3F"/>
	<stop  offset="0.623" style="stop-color:#C98D51"/>
	<stop  offset="0.7026" style="stop-color:#AA8C68"/>
	<stop  offset="0.7883" style="stop-color:#7F8B81"/>
	<stop  offset="0.8775" style="stop-color:#328A9F"/>
	<stop  offset="0.9914" style="stop-color:#14557F"/>
	<stop  offset="1" style="stop-color:#234A75"/>
</linearGradient>
<path style="fill:url(#SVGID_00000058585270620723982400000012456196286890062720_);" d="M465.6,1.8v94.6h-17.3V1.8H465.6z
	 M507.9,0.5c9,0,16.1,2.6,21.4,7.7c5.3,5.1,8,12,8,20.5c0,6.5-2,13.5-5.9,21.1s-10.9,17.6-20.8,30.1H543v16.4h-61.3v-2
	c7.1-8.8,13.3-16.7,18.4-23.7s9.1-12.8,11.9-17.5c2.8-4.6,4.8-8.6,6-11.8c1.2-3.3,1.8-6.6,1.8-10.1c0-4.3-1.4-8-4.2-10.9
	c-2.8-3-6.2-4.4-10.1-4.4c-7.1,0-14.5,4.1-22.2,12.2V9.5C491.3,3.5,499.5,0.5,507.9,0.5z M585.4,0.5c9.6,0,17.2,4.3,22.8,12.9
	s8.4,20.4,8.4,35.3c0,15.1-2.8,27-8.3,35.7c-5.6,8.7-13.1,13.1-22.8,13.1c-9.8,0-17.5-4.3-23.1-13c-5.7-8.6-8.5-20.5-8.5-35.5
	s2.8-26.8,8.5-35.5C568,4.9,575.7,0.5,585.4,0.5z M571.5,49.6c0,21.6,4.6,32.4,13.9,32.4c9,0,13.5-11.4,13.5-34.1
	c0-21.3-4.6-31.9-13.7-31.9C576.1,16,571.5,27.2,571.5,49.6z M658.8,0.5c9.6,0,17.2,4.3,22.8,12.9s8.4,20.4,8.4,35.3
	c0,15.1-2.8,27-8.3,35.7c-5.6,8.7-13.1,13.1-22.8,13.1c-9.8,0-17.5-4.3-23.1-13c-5.7-8.6-8.5-20.5-8.5-35.5s2.8-26.8,8.5-35.5
	C641.4,4.9,649.1,0.5,658.8,0.5z M644.9,49.6c0,21.6,4.6,32.4,13.9,32.4c9,0,13.5-11.4,13.5-34.1c0-21.3-4.6-31.9-13.7-31.9
	C649.5,16,644.9,27.2,644.9,49.6z"/>
</svg>
