<?xml version="1.0" encoding="UTF-8"?><svg id="Lager_1" xmlns="http://www.w3.org/2000/svg" width="20.2847mm" height="20.2847mm" viewBox="0 0 57.5 57.5"><defs><style>.cls-1{fill:#121617;}</style></defs><path class="cls-1" d="M10.5055,36.5698c.0626,.021,.1233,.0315,.1819,.0315,.0709,0,.1388-.0154,.204-.0462,.1237-.057,.2108-.1545,.261-.2919,.0492-.1373,.0454-.2688-.0135-.3945-.058-.1238-.1557-.2127-.293-.265-.064-.0249-.1269-.0373-.1888-.0373-.07,0-.1385,.0158-.2057,.047-.1287,.06-.2156,.1586-.2621,.2968-.0464,.1383-.0405,.2699,.0175,.3936,.0609,.1305,.1605,.2195,.2987,.266Z"/><path class="cls-1" d="M11.3061,38.2976c.0617,.0225,.1224,.0336,.1821,.0336,.0714,0,.1416-.016,.2106-.0482,.1238-.057,.2098-.1556,.259-.2938,.0494-.1385,.0456-.268-.0106-.3897-.0589-.1257-.1566-.2137-.292-.263-.0617-.0225-.1222-.0337-.1819-.0337-.0713,0-.1413,.0161-.2098,.0482-.1314,.061-.2194,.1596-.2658,.2948-.0464,.1355-.0407,.265,.0174,.3887,.059,.1267,.1556,.2137,.291,.2631Z"/><g><path class="cls-1" d="M17.6725,18.0812l.0197,.011c.0309,.0143,.0625,.0273,.0937,.0409,.1421,.0619,.2842,.1237,.4262,.1856,.2841,.1238,.5682,.2476,.8524,.3713,.071,.031,.142,.062,.2131,.0929l.1065,.0464c.0171,.0074,.0346,.0138,.051,.023,.0308,.0174,.0501,.0392,.0634,.072,.0128,.0312,.0112,.0622,.0124,.0942l.0035,.0963,.007,.1926c.0023,.0633,.0012,.1264,.012,.1895,.0221,.1298,.0874,.2484,.1854,.3364,.048,.0432,.0999,.0761,.1591,.1019l.1765,.0769c.4677,.2037,.9355,.4075,1.4032,.6114,1.0767,.4694,2.1531,.9396,3.2286,1.4117,.2673,.1173,.6838,.2964,.951,.414,.9747-.4232,1.9495-.8463,2.9242-1.2695-2.7807-1.2096-5.7137-2.4831-8.494-3.6938l-.0017-.0007-.0307-.2717c-.0139-.122-.1025-.2224-.2219-.2511-.2737-.0659-.5475-.1319-.8212-.1978-.0597-.0143-.122,.0102-.1559,.0614l-.0636,.0958-.0005-.0002-.1713-.0746-.1767-.077-.0884-.0385c-.0288-.0126-.0558-.0271-.0888-.0291-.0365-.0023-.0649,.0059-.0946,.0273-.0276,.0199-.0419,.0454-.055,.0753l-.077,.1767-.3079,.7069-.077,.1768c-.0126,.0288-.0266,.0558-.0278,.0891-.0012,.0366,.0078,.0648,.0301,.0939,.0099,.0131,.0213,.0237,.035,.0328Z"/><g><path class="cls-1" d="M51.61,26.0119c.063,0,.1273-.0055,.1927-.0166,.2949-.0502,.5269-.1954,.6952-.436,.1683-.24,.2272-.5058,.1779-.7949-.0503-.2979-.1953-.5309-.4342-.699-.185-.1298-.3855-.1953-.6016-.1953-.064,0-.1293,.0058-.196,.0173-.295,.0493-.5271,.1943-.6971,.4322-.1701,.2378-.2302,.5058-.1788,.8036,.0491,.2919,.1952,.523,.4369,.6922,.1872,.131,.3889,.1965,.605,.1965Z"/><polygon class="cls-1" points="53.663 35.9896 49.926 35.1427 54.3776 32.8403 54.5758 31.9648 49.3072 30.7699 49.0809 31.7657 52.758 32.6006 48.3712 34.897 48.1681 35.7913 53.4376 36.9855 53.663 35.9896"/><polygon class="cls-1" points="50.8436 42.3605 52.5076 39.2287 51.7871 38.8458 50.6125 41.0551 49.2568 40.3348 50.3571 38.2656 49.6369 37.8817 48.5365 39.9519 47.2834 39.2857 48.4321 37.1237 47.7118 36.7409 46.0729 39.8243 50.8436 42.3605"/><polygon class="cls-1" points="46.3842 40.9546 45.7712 40.417 42.5533 44.0873 43.1674 44.6249 44.4321 43.1823 47.8809 46.2067 48.5694 45.4216 45.1205 42.3972 46.3842 40.9546"/><polygon class="cls-1" points="42.6868 45.0504 42.2294 44.3745 38.1849 47.1061 38.6422 47.7829 40.2319 46.7086 42.799 50.5094 43.6643 49.9255 41.0972 46.1245 42.6868 45.0504"/><path class="cls-1" d="M37.9615,48.6434c-.3877-.3307-.8294-.5367-1.3266-.617-.1571-.0253-.316-.038-.4767-.038-.3474,0-.7028,.0593-1.0664,.1784-.554,.1806-1.0065,.4553-1.3585,.8237-.352,.3683-.5811,.7986-.6884,1.2927-.1074,.4931-.0842,.9747,.0687,1.4455,.1594,.4883,.4264,.8934,.8005,1.2183,.3742,.3239,.817,.5298,1.3266,.6179,.1726,.0301,.3464,.0451,.5213,.0451,.3428,0,.6903-.0576,1.0422-.1729,.5395-.1759,.9873-.4475,1.343-.815,.3568-.3663,.5908-.7956,.703-1.2869,.1121-.4912,.0899-.9766-.0666-1.4571-.1607-.4922-.4352-.904-.8221-1.2347Zm-.2919,3.0137c-.2311,.4419-.6101,.7494-1.1371,.9215-.228,.0741-.451,.1113-.669,.1113-.1148,0-.2284-.0103-.3405-.0309-.3249-.0592-.6081-.1993-.8518-.4217-.2427-.2213-.4206-.5028-.5318-.8431-.1112-.3432-.1373-.6749-.0764-.994,.062-.3201,.207-.6005,.4352-.8421,.2291-.2418,.5182-.4197,.8663-.5329,.229-.075,.4535-.1124,.6734-.1124,.1143,0,.2272,.0101,.339,.0302,.3268,.059,.612,.1993,.8537,.4225,.2426,.2235,.4197,.5058,.5308,.8461,.1702,.5222,.1402,1.0046-.0918,1.4455Z"/><path class="cls-1" d="M30.6025,51.691l-.001-.0464c.2428-.1199,.4265-.2755,.5491-.4689,.1239-.1925,.1809-.4129,.1722-.6604-.0144-.3858-.1816-.7029-.5037-.9485-.2988-.2296-.673-.3443-1.1219-.3443-.0333,0-.0671,.0006-.1011,.002-.66,.0238-1.3197,.0477-1.9795,.0715l.1974,5.4001c.7535-.0276,1.507-.0554,2.2606-.0831,.3684-.0135,.6864-.0842,.9543-.2128,.2678-.1285,.4738-.3131,.6179-.5549,.145-.2407,.2117-.5116,.201-.8103-.0125-.3374-.1286-.6274-.347-.8712-.2196-.2436-.5183-.4012-.8983-.4728Zm-1.9125-1.6176c.25-.0091,.5001-.0181,.7504-.0272l.0489-.0008c.2167,0,.3965,.0545,.537,.1634,.1518,.117,.2311,.2794,.2387,.4883,.0087,.2348-.0646,.4206-.2194,.5579-.1557,.1373-.3703,.2107-.6469,.2214-.2188,.0077-.4376,.0155-.6564,.0232-.0175-.4754-.0349-.9508-.0523-1.4262Zm1.8313,3.5079c-.176,.1392-.4399,.2147-.7928,.2282-.3004,.011-.6008,.0219-.9012,.0329-.0185-.5089-.0368-1.0178-.0551-1.5268,.3271-.0118,.6543-.0238,.9814-.0357,.0253-.001,.05-.0015,.0745-.0015,.2673,0,.4852,.0585,.6535,.1736,.1838,.1266,.2805,.3044,.2881,.5336,.0098,.2573-.0733,.4564-.2484,.5957Z"/><path class="cls-1" d="M24.6116,48.8222c-.6353-.1299-1.2705-.2597-1.9058-.3896-.3609,1.7645-.7219,3.5291-1.0828,5.2937,.3409,.0695,.6819,.1393,1.0229,.2089,.1524-.7452,.3049-1.4904,.4574-2.2355,.1236,.0255,.2475,.0509,.3712,.0764,.1644,.0328,.3008,.1044,.4109,.2118,.1093,.1083,.2119,.2736,.3086,.4979,.0966,.2233,.233,.6469,.4108,1.2706,.0823,.2823,.1499,.4892,.2042,.6215,.3802,.0778,.7605,.1555,1.1408,.2332-.1073-.2748-.2562-.7649-.4486-1.4735-.118-.411-.2272-.7079-.3268-.8916-.0996-.1838-.2244-.3384-.3752-.4631,.3326-.0667,.5994-.1954,.8006-.3877,.201-.1915,.3316-.438,.3935-.7387,.0909-.4419,.0068-.8326-.2495-1.172-.2571-.3394-.6343-.5598-1.1322-.6623Zm.3211,1.637c-.0485,.233-.1615,.4002-.3424,.5028-.1171,.0667-.2533,.1003-.4079,.1003-.0827,0-.1708-.0096-.2641-.0288-.2172-.0445-.4344-.0889-.6517-.1334,.1005-.4912,.2011-.9824,.3018-1.4735,.2123,.0431,.4247,.0864,.6371,.1295,.2804,.0581,.4834,.1624,.6111,.3133,.1267,.1508,.1653,.3471,.1161,.5898Z"/><polygon class="cls-1" points="21.3985 48.8377 21.7439 48.098 18.5791 46.6206 16.2934 51.5169 19.5076 53.0165 19.8525 52.2779 17.5851 51.2191 18.235 49.8278 20.3582 50.8189 20.7034 50.0792 18.5801 49.0881 19.1805 47.8022 21.3985 48.8377"/><polygon class="cls-1" points="17.9623 46.3451 14.1334 43.3176 13.6276 43.9578 15.1322 45.1481 12.2876 48.7459 13.1065 49.3937 15.9512 45.7948 17.4556 46.9851 17.9623 46.3451"/><path class="cls-1" d="M13.5106,43.0189c-.1005-.5444-.3161-1.022-.6458-1.4319-.348-.4313-.733-.6943-1.1544-.7881-.1049-.0236-.2078-.0354-.3086-.0354-.304,0-.5887,.1072-.8537,.3206-.265,.2137-.4322,.4835-.5009,.8083-.0696,.3259-.0454,.7146,.0706,1.1671,.09,.3877,.1586,.7088,.2041,.963,.0493,.3114-.0242,.5454-.2185,.7029-.0982,.0784-.2059,.1176-.3235,.1176-.0538,0-.1097-.0082-.1677-.0247-.1857-.0533-.3579-.1789-.5183-.378-.3201-.3974-.4747-.9718-.4631-1.7221-.2673,.215-.5345,.43-.8016,.6449,.0494,.3578,.1227,.6566,.2194,.8983,.0968,.2417,.2534,.4969,.471,.7657,.3327,.414,.7145,.6614,1.1457,.7426,.0946,.0178,.1874,.0266,.2785,.0266,.3255,0,.629-.1134,.9108-.3408,.2794-.2253,.4574-.4941,.5327-.8064,.0764-.3123,.0561-.7078-.0589-1.1835-.1401-.553-.2146-.875-.2234-.9679-.0386-.3229,.0213-.5482,.1808-.6758,.0893-.0723,.1875-.1083,.2945-.1083,.0518,0,.1058,.0085,.1619,.0252,.1731,.0513,.3414,.1798,.5067,.3847,.2717,.3375,.4515,.8297,.5386,1.4775,.241-.1941,.482-.388,.7231-.5821Z"/><path class="cls-1" d="M4.5379,38.1138l1.4126-.0831,1.0162,2.1765-.9543,1.0645,.4661,.9979,3.8859-4.4477-.4516-.967-5.8381,.2669,.4632,.992Zm4.5549-.2823l-1.5517,1.7317-.7378-1.5808,2.2895-.1509Z"/><polygon class="cls-1" points="5.2349 33.3751 8.3484 31.2116 8.1376 30.1297 3.2374 33.5946 3.3061 33.9513 9.1345 35.247 8.9247 34.1729 5.2349 33.3751"/><g><path class="cls-1" d="M5.7117,25.8754c.0691,.0119,.1368,.018,.2028,.018,.2158,0,.4152-.0641,.5987-.1921,.2397-.1683,.3858-.4003,.4381-.6972,.0502-.2929-.0098-.5588-.1818-.7997-.1711-.2396-.4013-.3857-.6913-.436-.068-.0117-.1345-.0176-.1995-.0176-.217,0-.4174,.0656-.6011,.1966-.2389,.1701-.384,.4003-.4342,.6903-.0513,.2969,.0078,.5648,.177,.8035,.1692,.2389,.3994,.3839,.6913,.4342Z"/><path class="cls-1" d="M46.4235,9.2755c.1436-.0142,.2588-.0752,.3477-.1827,.0869-.1059,.1221-.2314,.1074-.3774-.0156-.146-.0752-.2617-.1787-.3467-.1094-.0898-.2363-.126-.3818-.1084-.1446,.0181-.2588,.0777-.3418,.1797-.0889,.1074-.126,.2324-.1133,.375s.0742,.2588,.1847,.3486c.1073,.0884,.2323,.1255,.3758,.1119Z"/><path class="cls-1" d="M44.9548,8.0621c.1455-.0181,.2588-.0777,.3429-.1792,.0868-.106,.1229-.231,.1102-.375-.0137-.1446-.0742-.2608-.1816-.3491-.1094-.0899-.2373-.1275-.3828-.1123-.1465,.0151-.2618,.0747-.3467,.1782-.0889,.1079-.125,.2339-.1104,.3779,.0147,.144,.0772,.2612,.1875,.3511,.1094,.0898,.2364,.126,.3809,.1084Z"/><path class="cls-1" d="M41.4987,13.1553c.4375,.3604,.9073,.5918,1.4092,.6944,.501,.103,.9883,.0698,1.4629-.0996,.4746-.1695,.8721-.4493,1.1924-.8399,.3291-.4004,.5283-.853,.5986-1.3574,.0713-.5044,.0069-.9873-.1924-1.4497-.2002-.4624-.5156-.8711-.9482-1.2261-.4502-.3696-.9248-.604-1.4248-.7021-.5-.0987-.9862-.0601-1.46,.1142-.4746,.1748-.8681,.4536-1.1826,.8365-.3252,.3964-.5244,.8398-.5957,1.3295-.0723,.4898-.0078,.9732,.1914,1.4512,.2002,.4776,.5166,.8941,.9492,1.249Zm-.1357-2.4433c.0557-.3242,.1973-.625,.4248-.9019,.2295-.2788,.4951-.4785,.7978-.5991,.3018-.1201,.6163-.1489,.9434-.0854,.3272,.0629,.6318,.2109,.915,.4428,.2823,.2324,.4873,.5025,.6133,.8096,.127,.3071,.1612,.623,.1026,.9477-.0577,.3243-.2002,.625-.4278,.9019-.3486,.4248-.7715,.6582-1.2675,.7007-.4971,.042-.96-.1123-1.3887-.4644-.2832-.2324-.4863-.5014-.6104-.8071-.125-.3057-.1592-.6206-.1025-.9448Z"/><path class="cls-1" d="M33.5076,9.1631c.5165,.1255,.9706,.0894,1.3622-.1088,.3916-.1978,.6426-.5225,.752-.9732,.0849-.3481,.0615-.6699-.0684-.9638-.1299-.2945-.3857-.5958-.7676-.9034-.4472-.353-.7031-.5634-.7656-.6318-.2275-.2329-.3174-.4487-.2685-.6465,.04-.1655,.1435-.2798,.3125-.3437,.1679-.064,.3798-.065,.6347-.003,.4209,.1026,.8633,.3838,1.3272,.8443,.0732-.3008,.1466-.6016,.2197-.9024-.4111-.3706-.873-.6181-1.3838-.7422-.539-.1308-1.0039-.1054-1.3955,.0767-.3926,.1821-.6416,.4937-.749,.9346-.0801,.3305-.0488,.646,.0947,.9463,.1426,.3003,.3984,.5942,.7666,.8828,.3067,.2524,.5567,.4658,.7481,.6396,.2285,.2173,.3125,.4478,.2539,.6904-.044,.1783-.1543,.3023-.334,.3731-.1787,.0703-.3926,.0757-.6406,.0151-.496-.1206-.9678-.4819-1.4161-1.0844l-.2421,.9995c.2568,.2539,.4971,.4467,.7207,.5796,.2236,.1323,.5029,.2397,.8389,.3212Z"/><polygon class="cls-1" points="28.4655 8.5972 30.7155 3.0674 29.6218 3.0943 28.2185 6.5992 26.6062 3.1685 25.5036 3.1959 28.1013 8.606 28.4655 8.5972"/><rect class="cls-1" x="22.7069" y="3.7951" width="1.0445" height="5.4032" transform="translate(-.8811 5.7924) rotate(-13.9519)"/><polygon class="cls-1" points="18.7106 11.1671 17.5124 8.7999 20.8952 10.0611 22.0886 9.4566 18.4724 8.084 19.1169 4.9053 18.0573 5.4415 17.4177 8.5616 17.3972 8.5723 16.2702 6.3467 15.3386 6.8184 17.779 11.6387 18.7106 11.1671"/><path class="cls-1" d="M11.9548,12.5396c.3291,.0488,.7158,.0005,1.1601-.144,.3819-.1143,.6973-.2027,.9483-.2647,.3076-.0683,.5459-.0102,.7148,.1743,.1241,.1348,.1651,.2964,.1241,.4844-.0411,.188-.1563,.3682-.3448,.5405-.376,.3448-.9394,.5352-1.6894,.5708,.2314,.2531,.4629,.5062,.6943,.7593,.3535-.0718,.6475-.1636,.8829-.2759,.2353-.1118,.4794-.2841,.7343-.5175,.3926-.3584,.6152-.7554,.6689-1.191,.0547-.4355-.0752-.8247-.3886-1.1669-.2422-.2647-.5215-.4249-.8379-.481-.3174-.0562-.71-.0112-1.1778,.1338-.5429,.1748-.8603,.2695-.9521,.2837-.3192,.0591-.5488,.0132-.6865-.1372-.1143-.1255-.1514-.2759-.1114-.4512,.0412-.1753,.1582-.3516,.3526-.5293,.3193-.2925,.7998-.5029,1.4404-.6313-.209-.2282-.4179-.4564-.6268-.6846-.5372,.1347-.9992,.3799-1.3878,.7348-.4092,.3741-.6465,.7749-.7139,1.2017s.0518,.8076,.3584,1.1421c.2295,.2515,.5088,.4009,.8379,.4492Z"/><g><path class="cls-1" d="M28.7489,57.096c15.6309,0,28.3466-12.7167,28.3466-28.347,0-1.4654-.1118-2.9051-.3272-4.3112-.0718-.4687-.1552-.9337-.2497-1.3945-.1891-.9219-.4231-1.8275-.6996-2.7145-.2765-.8871-.5955-1.7556-.9546-2.6032-.2982-.7038-.6305-1.3895-.9826-2.0631-.42-.8033-.8771-1.5835-1.3694-2.3394-.3377-.5184-.6857-1.0295-1.0556-1.5238-.2722-.3639-.5531-.7211-.8422-1.0712C45.4114,4.4256,37.5414,.402,28.7492,.402c-2.5812,0-5.0803,.3534-7.4585,1.0028-.772,.2109-1.5336,.447-2.278,.7201C10.4299,5.2736,3.785,12.4635,1.3813,21.3752c-.0498,.1844-.0983,.3693-.1444,.5553-.204,.8229-.3771,1.658-.5072,2.5073-.2154,1.4061-.3272,2.8458-.3272,4.3112,0,15.6303,12.7166,28.347,28.3464,28.347ZM10.6192,7.7204C15.4895,3.5155,21.8249,.9637,28.7489,.9637c1.9151,0,3.7856,.1947,5.5926,.5655,12.6498,2.5949,22.1931,13.8139,22.1931,27.2198,0,15.3212-12.4644,27.7856-27.7851,27.7856S.9633,44.0702,.9633,28.749C.9633,20.3524,4.7128,12.8196,10.6192,7.7204Z"/><path class="cls-1" d="M28.7489,46.9919c10.0752,0,18.2434-8.1674,18.2434-18.2424S38.8241,10.5065,28.7489,10.5065,10.5065,18.6743,10.5065,28.7495s8.1674,18.2424,18.2424,18.2424Zm-16.2919-11.3591c-.452-1.0685-.7976-2.182-1.0301-3.3187-.2398-1.1719-.3592-2.3683-.3592-3.5646s.1194-2.3929,.3592-3.5647c.2325-1.1367,.5781-2.2503,1.0301-3.3189,.4444-1.0504,.9915-2.0575,1.6301-3.0025,.6342-.9385,1.3585-1.8159,2.1593-2.6167,.8009-.8009,1.6782-1.5252,2.6166-2.1594,.945-.6386,1.9521-1.1858,3.0025-1.6302,1.0686-.4521,2.1822-.7977,3.3188-1.0302,1.1719-.2397,2.3683-.3592,3.5646-.3592s2.3927,.1195,3.5647,.3592c1.1366,.2325,2.2503,.5782,3.319,1.0302,1.0504,.4444,2.0575,.9916,3.0025,1.6302,.9384,.6342,1.8159,1.3585,2.6168,2.1594s1.5253,1.6782,2.1595,2.6167c.6387,.945,1.1858,1.9521,1.6303,3.0027,.4521,1.0684,.7977,2.182,1.0303,3.3187,.2396,1.1718,.359,2.3684,.359,3.5647s-.1194,2.3927-.359,3.5646c-.2326,1.1367-.5782,2.2502-1.0303,3.3187-.4445,1.0505-.9916,2.0574-1.6303,3.0025-.6342,.9385-1.3586,1.8158-2.1595,2.6166-.8009,.8009-1.6782,1.5252-2.6167,2.1593-.9451,.6387-1.9522,1.1858-3.0026,1.6302-1.0687,.4519-2.1824,.7976-3.3189,1.0301-1.172,.2398-2.3684,.3592-3.5648,.3592s-2.3927-.1194-3.5646-.3592c-1.1366-.2325-2.2502-.5782-3.3188-1.0301-1.0506-.4444-2.0575-.9915-3.0025-1.6302-.9384-.6341-1.8157-1.3584-2.6166-2.1592-.8008-.8009-1.5251-1.6782-2.1593-2.6166-.6386-.9452-1.1857-1.9521-1.6301-3.0026Z"/><path class="cls-1" d="M16.4375,39.6227c.0875-.0278,.1725-.0614,.2574-.0959,.2887-.1173,.5718-.2473,.8583-.3696,.4409-.1883,.8836-.3721,1.3262-.5562,.4438-.1846,.8878-.3684,1.3312-.5537,.1404-.0587,.2818-.1149,.4194-.1803,.0984-.0468,.1932-.0954,.2786-.1656,.1024-.0843,.1552-.1778,.1375-.3157-.0095-.074-.034-.1412-.062-.2091-.0381-.0916-.0827-.1796-.1277-.2677-.1461-.2858-.2936-.5709-.4322-.8605-.1489-.311-.2893-.6251-.4161-.9458-.1265-.3198-.2383-.6431-.3299-.9748-.0439-.1588-.0835-.3178-.1085-.4811-.0265-.173-.0396-.3455-.0404-.5205-.003-.6563,.1793-1.4859,.8301-1.8655,.1479-.0863,.3092-.1498,.4842-.1588,.1405-.0072,.2659,.0198,.3952,.0707,.2474,.0976,.4954,.2894,.7195,.421,.1195,.0702,.2399,.1305,.375,.1675,.1617,.0443,.2926,.0394,.4553,.017,.3951-.0544,.793-.221,1.1151-.4531,.3114-.2245,.5889-.5372,.7054-.9182,.098-.3209,.0627-.5952-.044-.9022-.0573-.1648-.1484-.3665-.1803-.5415-.0363-.1992,.0015-.3635,.1192-.5279,.1536-.2146,.4049-.3771,.6235-.5031,.2283-.1315,.466-.2455,.6865-.3921,.0253-.0169,.0503-.0342,.075-.0521,.0205-.0149,.0404-.0307,.0597-.0472,.15-.1275,.3002-.2548,.4507-.3818,.4625-.3902,.9274-.7775,1.3976-1.1585,.2863-.232,.5744-.4615,.8665-.6861,.1623-.1248,.3263-.2475,.4907-.3697,.0917-.0681,.1837-.1354,.2707-.2098,.0695-.0595,.1335-.1235,.194-.192,.1239-.1403,.2296-.2928,.3357-.4459,.145-.2091,.2904-.416,.462-.6055,.2125-.2347,.4475-.427,.7181-.5909,.0737-.0447,.1483-.0873,.226-.1249,.0688-.0333,.139-.0634,.2089-.0942,.1391-.0613,.2781-.1225,.4172-.1837,.2749-.121,.5499-.2418,.8249-.3625,1.0756-.4721,2.152-.9422,3.2287-1.4117,.4677-.2039,.9354-.4077,1.4032-.6114l.1765-.0769c.0592-.0258,.111-.0587,.1591-.1019,.098-.0881,.1633-.2066,.1854-.3364,.0107-.0631,.0097-.1262,.012-.1894l.007-.1927,.0035-.0963c.0011-.032-.0004-.063,.0124-.0943,.0134-.0327,.0325-.0545,.0634-.0719,.0164-.0092,.0339-.0156,.051-.023l.1065-.0464,.2131-.0929c.2841-.1237,.5683-.2475,.8524-.3713,.1421-.0619,.2842-.1237,.4262-.1856,.0312-.0136,.0628-.0266,.0937-.0409l.0197-.011c.0137-.0091,.025-.0197,.035-.0328,.0223-.0291,.0313-.0573,.03-.0939-.0011-.0333-.0151-.0603-.0277-.0892l-.077-.1767-.3079-.7069-.077-.1767c-.013-.0299-.0274-.0554-.055-.0753-.0297-.0214-.0582-.0296-.0946-.0274-.0331,.0021-.06,.0166-.0888,.0292l-.0884,.0385-.1767,.0769-.1713,.0747-.0006,.0002-.0635-.0959c-.0339-.0511-.0962-.0756-.1559-.0613-.2738,.066-.5475,.1319-.8212,.1978-.1194,.0287-.2081,.1291-.2219,.2511l-.0307,.2717-.0018,.0007c-3.3636,1.4647-6.7273,2.9291-10.0917,4.392-.8412,.3658-1.6827,.731-2.523,1.099-.3529,.1546-.7058,.3095-1.0571,.4679-.2156,.0973-.4303,.1959-.6432,.2991-.2661,.129-.5247,.2665-.7865,.4036-.2758,.1445-.4466,.222-.7402,.3265-.1179,.0421-.2367,.0812-.3561,.1186-.0803,.025-.1602,.0508-.2414,.0728-.0717,.0194-.1447,.0288-.2176,.0405-.0944,.0152-.1882,.0318-.2809,.0557-.1089,.0281-.2129,.0643-.3135,.1155-.1443,.0734-.26,.1731-.3718,.2868-.1358,.1382-.256,.2902-.3952,.4255-.0665,.0646-.1358,.1238-.2144,.1738-.1089,.0694-.2285,.1169-.3631,.1065-.1275-.0099-.2399-.07-.3402-.14-.1064-.0741-.2022-.1612-.3058-.2387-.233-.174-.4303-.2272-.6786-.0316-.028,.022-.0239,.0656,.0076,.0821,.1271,.0666,.2524,.1362,.3761,.209,.0735,.0432,.1463,.0875,.2177,.1343,.0614,.0401,.1222,.0803,.1779,.1286,.2012,.1743,.3454,.5012,.4803,.7112,.0173,.027,.0363,.0529,.0541,.0796,.0108,.0161,.0189,.0334,.0273,.0507,.0306,.0632,.0576,.1279,.0843,.1927,.0651,.1582,.1271,.3172,.1807,.4798,.0091,.0276,.018,.0552,.0256,.0833,.0044,.0162,.0095,.0321,.0102,.0493,.0013,.0335-.0245,.0809-.0406,.1064-.0509,.0802-.1418,.1657-.2065,.2321-.0357,.0366-.0708,.0733-.102,.114-.0373,.0486-.0573,.0934-.0757,.1511-.0532,.1669-.0419,.3256-.0259,.493,.0124,.1287,.0318,.2837-.0308,.4121-.061,.1253-.1914,.1979-.3038,.2542-.1409,.0706-.2885,.1258-.4302,.1944-.0615,.0298-.1213,.0611-.1767,.102-.0619,.0457-.1215,.094-.1795,.1444-.3395,.2955-.583,.6359-.7886,1.0312-.5539,1.0649-.6529,2.3192-.6703,3.4637-.009,.5963,.0055,1.1925,.0023,1.7888-.003,.5723-.028,1.1429-.0659,1.7137-.0179,.2694-.0399,.5385-.0638,.8075-.0154,.1729-.0329,.3456-.0429,.5191-.0033,.0571-.0057,.1141-.0046,.1713,.0008,.0414,.0031,.0822,.0114,.123,.011,.0546,.032,.1038,.0851,.1329,.0289,.0158,.0831,.0325,.1147,.0395,.0387,.0086,.0762,.0101,.1154,.0061,.0568-.0058,.1104-.0207,.1644-.0378Zm5.2783-9.3721c.0998,.1851,.7469,1.3263,1.1593,.9305,.0031-.0029,.0032-.0075,.001-.0133-.1564-.1284-.4281-.3762-.6272-.7775l-.0099-.0238c-.2038-.5053-.1934-.4535,.1805-.7369,.3933-.2981,1.0006-.6767,1.4934-.4583,.2067,.0917,.35,.2482,.4299,.4321,.1035,.2358,.1025,.5171-.0031,.7644-.2499,.5855-1.2211,1.1541-1.8522,1.1373-.346-.0093-.7057-.2667-.8428-.5917-.0891-.2087-.0864-.4457,.0711-.6628Z"/><path class="cls-1" d="M38.3818,27.5274c.0536-.1626,.1155-.3217,.1807-.4798,.0267-.0648,.0536-.1295,.0843-.1927,.0084-.0173,.0165-.0346,.0273-.0507,.0178-.0267,.0367-.0526,.0541-.0796,.1349-.21,.279-.5369,.4803-.7112,.0557-.0483,.1165-.0885,.1778-.1286,.0715-.0468,.1442-.0911,.2178-.1343,.1237-.0728,.249-.1424,.3761-.209,.0315-.0166,.0355-.0601,.0076-.0821-.2484-.1956-.4456-.1424-.6786,.0317-.1036,.0774-.1994,.1645-.3058,.2386-.1003,.0699-.2128,.1301-.3403,.14-.1345,.0104-.2541-.0371-.3631-.1065-.0786-.0501-.1478-.1092-.2143-.1738-.1392-.1353-.2594-.2873-.3952-.4255-.1118-.1137-.2275-.2134-.3719-.2868-.1006-.0512-.2045-.0874-.3134-.1155-.0927-.0239-.1866-.0405-.281-.0557-.0728-.0117-.1458-.0211-.2175-.0405-.0812-.022-.1611-.0478-.2414-.0728-.1194-.0374-.2382-.0766-.3562-.1185-.2935-.1046-.4643-.1821-.7401-.3265-.2618-.1372-.5204-.2747-.7864-.4037-.2129-.1032-.4278-.2018-.6433-.2991-.3513-.1584-.7042-.3133-1.0572-.4679-.2234-.0979-.4079-.1616-.6314-.2591,0,0-.6303,.3171-.6969,.3579-.2514,.152-.4705,.3334-.6253,.5726-.0836,.1292-.6524,1.0853-1.2253,1.4723-.1455,.0983-.2566,.1927-.3757,.2831,.2447,.1903,.3325,.3015,.5734,.4967,.4703,.381,.9353,.7683,1.3977,1.1585,.1505,.127,.3007,.2543,.4507,.3818,.0193,.0165,.0391,.0323,.0597,.0472,.0246,.0179,.0497,.0352,.075,.0521,.2205,.1466,.4581,.2605,.6865,.3921,.2185,.126,.4699,.2885,.6235,.5031,.1177,.1644,.1555,.3286,.1192,.5279-.0319,.175-.123,.3767-.1803,.5415-.1067,.307-.142,.5813-.0439,.9022,.1164,.381,.3938,.6937,.7053,.9182,.322,.2321,.72,.3987,1.1151,.4531,.1627,.0224,.2935,.0273,.4553-.017,.1351-.037,.2555-.0973,.375-.1675,.2241-.1316,.472-.3234,.7195-.421,.1293-.0509,.2546-.0779,.3952-.0707,.175,.009,.3363,.0725,.4842,.1588,.6507,.3796,.8331,1.2092,.8301,1.8656-.0008,.1748-.0139,.3475-.0404,.5204-.025,.1633-.0646,.3222-.1085,.4811-.0916,.3317-.2034,.655-.3299,.9748-.1269,.3207-.2672,.6348-.4161,.9458-.1387,.2896-.2861,.5747-.4322,.8605-.045,.0881-.0896,.1762-.1276,.2677-.0281,.0679-.0526,.1351-.0621,.2091-.0178,.1379,.0351,.2314,.1376,.3157,.0853,.0702,.1801,.1188,.2785,.1656,.1376,.0654,.2789,.1216,.4193,.1802,.4434,.1854,.8875,.3692,1.3312,.5538,.4427,.1841,.8854,.3679,1.3263,.5562,.2865,.1223,.5696,.2523,.8583,.3696,.0849,.0346,.1699,.0682,.2574,.0959,.054,.017,.1076,.032,.1644,.0378,.0392,.004,.0767,.0025,.1153-.0061,.0317-.007,.0859-.0237,.1148-.0395,.0531-.0291,.074-.0783,.0851-.1329,.0083-.0408,.0106-.0816,.0114-.123,.0011-.0572-.0014-.1142-.0046-.1713-.01-.1735-.0275-.3462-.0429-.5192-.0239-.2689-.0459-.5379-.0638-.8074-.038-.5708-.0629-1.1414-.0659-1.7138-.0032-.5962,.0113-1.1924,.0023-1.7888-.0174-1.1444-.1164-2.3987-.6703-3.4636-.2056-.3953-.4491-.7357-.7887-1.0312-.0579-.0504-.1175-.0988-.1794-.1444-.0554-.041-.1152-.0722-.1767-.102-.1417-.0686-.2893-.1238-.4302-.1944-.1124-.0563-.2428-.1289-.3038-.2542-.0626-.1284-.0432-.2834-.0309-.4121,.0161-.1674,.0274-.3261-.0258-.4929-.0184-.0578-.0384-.1026-.0757-.1512-.0312-.0407-.0663-.0774-.102-.114-.0647-.0664-.1556-.1519-.2065-.2321-.0161-.0255-.0419-.0729-.0405-.1064,.0006-.0172,.0057-.0331,.0101-.0493,.0076-.0281,.0164-.0558,.0256-.0833Zm-2.5285,3.386c-.1371,.325-.4969,.5824-.8428,.5917-.6312,.0168-1.6023-.5518-1.8522-1.1373-.1056-.2473-.1067-.5286-.0031-.7644,.08-.1839,.2232-.3404,.4299-.4321,.4928-.2184,1.1001,.1601,1.4934,.4583,.3739,.2834,.3843,.2315,.1805,.7369l-.01,.0238c-.152,.4042-.4206,.6042-.6271,.7775,.0149,.0295,.0712,.0895,.1045,.0973,.5481,.1276,.9779-.9184,1.0558-1.0145,.1575,.2171,.1602,.4541,.0711,.6628Z"/></g><path class="cls-1" d="M35.8826,10.8571l.0896,.0503,.0928,.0433c.4636,.2152,.9081,.2299,1.3347,.0456,.4266-.1845,.7615-.5394,1.0046-1.0632,.6107-1.3173,1.2214-2.6347,1.8321-3.9521-.3157-.1463-.6316-.2926-.9474-.439-.5986,1.2905-1.1971,2.5811-1.7955,3.8717-.3046,.6572-.7378,.8558-1.2991,.595-.104,.2828-.2079,.5657-.3118,.8484Z"/></g></g></g></svg>