<?xml version="1.0" encoding="utf-8"?>
<!-- Generator: Adobe Illustrator 26.2.1, SVG Export Plug-In . SVG Version: 6.00 Build 0)  -->
<svg version="1.1" id="Lager_1" xmlns="http://www.w3.org/2000/svg" xmlns:xlink="http://www.w3.org/1999/xlink" x="0px" y="0px"
	 viewBox="0 0 57.5 57.5" style="enable-background:new 0 0 57.5 57.5;" xml:space="preserve">
<g>
	<path d="M16.1,31.3c0.4,0.7,0.5,1.3,1.4,1.9c-0.1,0.1-0.2,0.1-0.3,0.2c0.6,0.6,2.1,1,2,1.7c1.5,0.5,3.1,1.2,3.7,1.9
		c-0.8,1.5-2.6,2.8-3.5,4c-0.3,0.4-0.7,0.9,0,1.3c0.8-1.7,2.6-3.8,4.1-4.9c2.2,2.2,6.5,3.2,9,3.3c-0.1-0.9,0.8-0.6,1.8-0.5
		c0-1.4,1-0.7,1.5-1.1c0-0.2,0.1-0.5,0-0.7c0.5-0.1,0.5,0,1-0.2c0-0.2-0.3-0.3-0.2-0.5c0.8-0.1,1-0.4,1.5-1c-0.6-0.3-1-0.7-1.4-1
		c0.3-0.2,1-0.2,1.2-0.6c-0.3-0.1-0.8-0.4-0.8-0.6c0.5,0,0.6-0.3,1-0.5c0-0.2-0.2-0.4-0.2-0.6c0.2-0.1,0.5-0.1,0.7-0.3
		c0.2-0.4,0.6-1,1-1.2c-0.6-0.6-1-0.9-1.7-1.2c0.4-0.4,0.3-0.8,0.6-1.2c-0.4-0.2-0.7-0.1-1.1-0.3c0.5-0.6,1.1-0.7,1.6-1.3
		c-0.2-0.1-1.1-0.6-1-0.7c0.6-0.3,1-0.6,1.4-1.1c-0.8-0.5-1.4-0.5-1.9-0.9c0.6-0.7,0.9-1.5,1.1-2.3c-0.4,0.2-0.8,0-1.3-0.2
		c0.3-0.9,1-1.4,1-2.3c-0.3,0-0.6-0.1-0.9-0.2c0.3-0.3,0.8-1.3,1.3-1.9c-0.2-0.3-0.7,0-0.6-0.3c0.4-0.7,1-1.5,0.7-2.1
		c-1.1,0.3-2,1.2-2.9,1.9c-0.2-0.2-0.2-0.4-0.5-0.5c-0.7,0.8-0.6,1.3-1.1,1.7c-0.3-0.1-0.3-0.7-0.6-0.3c-0.3,0.2-0.6,1.1-1,1.6
		c-0.2-0.3-0.6-0.5-0.7-0.7c-0.6,0.3-1,1.2-1.7,1.3c-0.3-0.4-0.7-0.7-1.1-1.1c-0.4,0.5-1.3,1.4-1.5,1.1c-0.4,0.2-0.3,0.8-0.8,1
		c-0.2-0.2-0.4-0.3-0.6-0.5c-0.3,0.3-0.7,0.5-0.9,1c-0.5-1-1.4-0.4-2.2-1.4c-0.2,0.5-1,1.2-1.1,1.1c-0.1,0.6-0.4,0.3-0.5,1
		c-0.3-0.2-0.4,0-0.7-0.3c-0.4,0.7-0.4,1.4-0.6,2c-0.1-0.2-0.5-0.4-0.8-0.5c-0.5,0.2-0.6,1.1-1,1.3c-0.3-0.5-1.4-0.4-1.7-0.9
		c-0.2,0.5-0.2,1.2-0.7,1.4c0.1,0.4,0.2,0.9,0.4,1.3c-0.3,0-1.2,0.1-1.3,0.2c0.3,0.4,1.1,1.8,1.1,2.2c-0.2,0-0.4-0.1-0.5,0.1
		c0.3,0.5,0.9,0.9,0.9,1.4C16.4,31,16.2,31.1,16.1,31.3z M25,35.2c1.2-1.7,1.2-1.3,1.7-2c1.4-1.6,2-2.1,2.8-3.4
		c1.1-1.6,3.5-5.2,3.7-5.2s-4.4,6.8-4.4,6.8c-0.6,0.9-2,2-3.2,3.3c-0.9,1-1.5,2.2-2.1,2.2C23.1,36.9,23.8,36.5,25,35.2z"/>
	<path d="M5.7,25.9c0.1,0,0.1,0,0.2,0c0.2,0,0.4-0.1,0.6-0.2C6.8,25.5,6.9,25.3,7,25s0-0.6-0.2-0.8c-0.2-0.2-0.4-0.4-0.7-0.4
		c-0.1,0-0.1,0-0.2,0c-0.2,0-0.4,0.1-0.6,0.2c-0.2,0.2-0.4,0.4-0.4,0.7c-0.1,0.3,0,0.6,0.2,0.8C5.2,25.7,5.4,25.8,5.7,25.9z"/>
	<polygon points="8.9,34.2 5.2,33.4 8.3,31.2 8.1,30.1 3.2,33.6 3.3,34 9.1,35.2 	"/>
	<path d="M11.7,37.3c-0.1,0-0.1,0-0.2,0c-0.1,0-0.1,0-0.2,0c-0.1,0.1-0.2,0.2-0.3,0.3c0,0.1,0,0.3,0,0.4c0.1,0.1,0.2,0.2,0.3,0.3
		c0.1,0,0.1,0,0.2,0c0.1,0,0.1,0,0.2,0c0.1-0.1,0.2-0.2,0.3-0.3c0-0.1,0-0.3,0-0.4C11.9,37.5,11.8,37.4,11.7,37.3z"/>
	<path d="M9.9,36.9l-5.8,0.3l0.5,1L6,38l1,2.2l-1,1.1l0.5,1l3.9-4.4L9.9,36.9z M7.5,39.6L6.8,38l2.3-0.2L7.5,39.6z"/>
	<path d="M10.5,36.6c0.1,0,0.1,0,0.2,0c0.1,0,0.1,0,0.2,0c0.1-0.1,0.2-0.2,0.3-0.3s0-0.3,0-0.4c-0.1-0.1-0.2-0.2-0.3-0.3
		c-0.1,0-0.1,0-0.2,0c-0.1,0-0.1,0-0.2,0c-0.1,0.1-0.2,0.2-0.3,0.3c0,0.1,0,0.3,0,0.4C10.3,36.4,10.4,36.5,10.5,36.6z"/>
	<path d="M13.5,43c-0.1-0.5-0.3-1-0.6-1.4s-0.7-0.7-1.2-0.8c-0.1,0-0.2,0-0.3,0c-0.3,0-0.6,0.1-0.9,0.3c-0.3,0.2-0.4,0.5-0.5,0.8
		s0,0.7,0.1,1.2c0.1,0.4,0.2,0.7,0.2,1s0,0.5-0.2,0.7c-0.1,0.1-0.2,0.1-0.3,0.1s-0.1,0-0.2,0c-0.2-0.1-0.4-0.2-0.5-0.4
		c-0.3-0.4-0.5-1-0.5-1.7c-0.3,0.2-0.5,0.4-0.8,0.6C7.9,43.7,8,44,8,44.3c0.1,0.2,0.3,0.5,0.5,0.8c0.3,0.4,0.7,0.7,1.1,0.7
		c0.1,0,0.2,0,0.3,0c0.3,0,0.6-0.1,0.9-0.3c0.3-0.2,0.5-0.5,0.5-0.8c0.1-0.3,0.1-0.7-0.1-1.2c-0.1-0.6-0.2-0.9-0.2-1
		c0-0.3,0-0.5,0.2-0.7c0.1-0.1,0.2-0.1,0.3-0.1s0.1,0,0.2,0c0.2,0.1,0.3,0.2,0.5,0.4c0.3,0.3,0.5,0.8,0.5,1.5
		C13,43.4,13.3,43.2,13.5,43z"/>
	<polygon points="18,46.3 14.1,43.3 13.6,44 15.1,45.1 12.3,48.7 13.1,49.4 16,45.8 17.5,47 	"/>
	<polygon points="21.4,48.8 21.7,48.1 18.6,46.6 16.3,51.5 19.5,53 19.9,52.3 17.6,51.2 18.2,49.8 20.4,50.8 20.7,50.1 18.6,49.1 
		19.2,47.8 	"/>
	<path d="M24.6,48.8c-0.6-0.1-1.3-0.3-1.9-0.4c-0.4,1.8-0.7,3.5-1.1,5.3c0.3,0.1,0.7,0.1,1,0.2c0.2-0.7,0.3-1.5,0.5-2.2
		c0.1,0,0.2,0.1,0.4,0.1c0.2,0,0.3,0.1,0.4,0.2c0.1,0.1,0.2,0.3,0.3,0.5c0.1,0.2,0.2,0.6,0.4,1.3c0.1,0.3,0.1,0.5,0.2,0.6
		c0.4,0.1,0.8,0.2,1.1,0.2c-0.1-0.3-0.3-0.8-0.4-1.5c-0.1-0.4-0.2-0.7-0.3-0.9c-0.1-0.2-0.2-0.3-0.4-0.5c0.3-0.1,0.6-0.2,0.8-0.4
		c0.2-0.2,0.3-0.4,0.4-0.7c0.1-0.4,0-0.8-0.2-1.2C25.5,49.1,25.1,48.9,24.6,48.8z M24.9,50.5c0,0.2-0.2,0.4-0.3,0.5
		c-0.1,0.1-0.3,0.1-0.4,0.1s-0.2,0-0.3,0c-0.2,0-0.4-0.1-0.7-0.1c0.1-0.5,0.2-1,0.3-1.5c0.2,0,0.4,0.1,0.6,0.1
		c0.3,0.1,0.5,0.2,0.6,0.3C24.9,50,25,50.2,24.9,50.5z"/>
	<path d="M30.6,51.7L30.6,51.7c0.2-0.2,0.4-0.3,0.5-0.5s0.2-0.4,0.2-0.7c0-0.4-0.2-0.7-0.5-0.9s-0.7-0.3-1.1-0.3h-0.1
		c-0.7,0-1.3,0-2,0.1c0.1,1.8,0.1,3.6,0.2,5.4c0.8,0,1.5-0.1,2.3-0.1c0.4,0,0.7-0.1,1-0.2c0.3-0.1,0.5-0.3,0.6-0.6
		c0.1-0.2,0.2-0.5,0.2-0.8s-0.1-0.6-0.3-0.9C31.3,51.9,31,51.8,30.6,51.7z M28.7,50.1c0.2,0,0.5,0,0.7,0l0,0c0.2,0,0.4,0.1,0.5,0.2
		c0.2,0.1,0.2,0.3,0.2,0.5s-0.1,0.4-0.2,0.6c-0.2,0.1-0.4,0.2-0.6,0.2s-0.4,0-0.7,0C28.7,51,28.7,50.5,28.7,50.1z M30.5,53.6
		c-0.2,0.1-0.4,0.2-0.8,0.2c-0.3,0-0.6,0-0.9,0c0-0.5,0-1-0.1-1.5c0.3,0,0.7,0,1,0c0,0,0,0,0.1,0c0.3,0,0.5,0.1,0.7,0.2
		c0.2,0.1,0.3,0.3,0.3,0.5C30.8,53.2,30.7,53.4,30.5,53.6z"/>
	<path d="M38,48.6c-0.4-0.3-0.8-0.5-1.3-0.6c-0.2,0-0.3,0-0.5,0c-0.3,0-0.7,0.1-1.1,0.2c-0.6,0.2-1,0.5-1.4,0.8
		c-0.4,0.4-0.6,0.8-0.7,1.3c-0.1,0.5-0.1,1,0.1,1.4c0.2,0.5,0.4,0.9,0.8,1.2c0.4,0.3,0.8,0.5,1.3,0.6c0.2,0,0.3,0,0.5,0
		c0.3,0,0.7-0.1,1-0.2c0.5-0.2,1-0.4,1.3-0.8c0.4-0.4,0.6-0.8,0.7-1.3c0.1-0.5,0.1-1-0.1-1.5C38.6,49.4,38.3,49,38,48.6z M37.7,51.7
		c-0.2,0.4-0.6,0.7-1.1,0.9c-0.2,0.1-0.5,0.1-0.7,0.1c-0.1,0-0.2,0-0.3,0c-0.3-0.1-0.6-0.2-0.9-0.4c-0.2-0.2-0.4-0.5-0.5-0.8
		s-0.1-0.7-0.1-1c0.1-0.3,0.2-0.6,0.4-0.8s0.5-0.4,0.9-0.5c0.2-0.1,0.5-0.1,0.7-0.1c0.1,0,0.2,0,0.3,0c0.3,0.1,0.6,0.2,0.9,0.4
		c0.2,0.2,0.4,0.5,0.5,0.8C37.9,50.7,37.9,51.2,37.7,51.7z"/>
	<polygon points="42.7,45.1 42.2,44.4 38.2,47.1 38.6,47.8 40.2,46.7 42.8,50.5 43.7,49.9 41.1,46.1 	"/>
	<polygon points="46.4,41 45.8,40.4 42.6,44.1 43.2,44.6 44.4,43.2 47.9,46.2 48.6,45.4 45.1,42.4 	"/>
	<polygon points="50.6,41.1 49.3,40.3 50.4,38.3 49.6,37.9 48.5,40 47.3,39.3 48.4,37.1 47.7,36.7 46.1,39.8 50.8,42.4 52.5,39.2 
		51.8,38.8 	"/>
	<polygon points="48.4,34.9 48.2,35.8 53.4,37 53.7,36 49.9,35.1 54.4,32.8 54.6,32 49.3,30.8 49.1,31.8 52.8,32.6 	"/>
	<path d="M51.6,26c0.1,0,0.1,0,0.2,0c0.3-0.1,0.5-0.2,0.7-0.4c0.2-0.2,0.2-0.5,0.2-0.8c-0.1-0.3-0.2-0.5-0.4-0.7
		c-0.2-0.1-0.4-0.2-0.6-0.2c-0.1,0-0.1,0-0.2,0c-0.3,0-0.5,0.2-0.7,0.4c-0.2,0.2-0.2,0.5-0.2,0.8s0.2,0.5,0.4,0.7
		C51.2,25.9,51.4,26,51.6,26z"/>
	<path d="M28.7,47C38.8,47,47,38.8,47,28.7s-8.2-18.2-18.2-18.2c-10.1,0-18.2,8.2-18.2,18.2C10.5,38.8,18.7,47,28.7,47z M12.5,35.6
		c-0.5-1.1-0.8-2.2-1-3.3c-0.2-1.2-0.4-2.4-0.4-3.6s0.1-2.4,0.4-3.6c0.2-1.1,0.6-2.3,1-3.3c0.4-1.1,1-2.1,1.6-3s1.4-1.8,2.2-2.6
		c0.8-0.8,1.7-1.5,2.6-2.2c0.9-0.6,2-1.2,3-1.6c1.1-0.5,2.2-0.8,3.3-1c1.2-0.2,2.4-0.4,3.6-0.4s2.4,0.1,3.6,0.4
		c1.1,0.2,2.3,0.6,3.3,1c1.1,0.4,2.1,1,3,1.6s1.8,1.4,2.6,2.2s1.5,1.7,2.2,2.6c0.6,0.9,1.2,2,1.6,3c0.5,1.1,0.8,2.2,1,3.3
		c0.2,1.2,0.4,2.4,0.4,3.6s-0.1,2.4-0.4,3.6c-0.2,1.1-0.6,2.3-1,3.3c-0.4,1.1-1,2.1-1.6,3s-1.4,1.8-2.2,2.6s-1.7,1.5-2.6,2.2
		c-0.9,0.6-2,1.2-3,1.6c-1.1,0.5-2.2,0.8-3.3,1c-1.2,0.2-2.4,0.4-3.6,0.4s-2.4-0.1-3.6-0.4c-1.1-0.2-2.3-0.6-3.3-1
		c-1.1-0.4-2.1-1-3-1.6s-1.8-1.4-2.6-2.2c-0.8-0.8-1.5-1.7-2.2-2.6C13.4,37.7,12.9,36.7,12.5,35.6z"/>
	<path d="M28.7,0.4C13.1,0.4,0.4,13.1,0.4,28.7S13.1,57,28.7,57S57,44.3,57,28.7C57.1,13.1,44.4,0.4,28.7,0.4z M28.7,56.5
		C13.4,56.5,1,44.1,1,28.7C1,13.4,13.4,1,28.7,1s27.8,12.5,27.8,27.8S44.1,56.5,28.7,56.5z"/>
	<path d="M37.3,9l2.2,1.1l-0.1,1.4l1,0.5l0.3-5.9l-1-0.5l-4.4,3.8l1,0.5L37.3,9z M39.7,6.9l-0.1,2.3L38,8.5L39.7,6.9z"/>
	<path d="M40.3,5.7c0.2,0.1,0.4,0.1,0.7,0c0.2-0.1,0.4-0.2,0.5-0.4c0.1-0.2,0.1-0.4,0-0.6s-0.2-0.4-0.4-0.5s-0.4-0.1-0.6,0
		c-0.2,0.1-0.4,0.2-0.5,0.4c-0.1,0.2-0.1,0.4,0,0.6C40,5.4,40.1,5.6,40.3,5.7z M40.3,4.7c0.1-0.1,0.1-0.2,0.3-0.2c0.1,0,0.2,0,0.3,0
		c0.1,0.1,0.2,0.1,0.2,0.3c0,0.1,0,0.2,0,0.3C41,5.2,41,5.3,40.8,5.3c-0.1,0-0.2,0-0.4,0c-0.1-0.1-0.2-0.1-0.2-0.3
		C40.2,5,40.2,4.9,40.3,4.7z"/>
	<path d="M17.7,10.5c0.3,0.2,0.7,0.3,1.1,0.3s0.8-0.1,1.3-0.3c0.7-0.3,1.2-0.8,1.4-1.3c0.2-0.5,0.2-1.1-0.1-1.8
		c-0.5-1-0.9-1.9-1.4-2.9c-0.3,0.2-0.7,0.3-1,0.5c0.4,0.9,0.9,1.9,1.3,2.8c0.2,0.3,0.2,0.6,0.2,0.8S20.4,9,20.3,9.2
		c-0.2,0.2-0.4,0.4-0.7,0.5c-0.3,0.1-0.5,0.2-0.8,0.2s-0.5-0.1-0.6-0.2S18,9.3,17.8,9.1c-0.5-0.9-0.9-1.9-1.4-2.8
		c-0.3,0.2-0.6,0.3-0.9,0.5c0.5,1,0.9,2,1.4,2.9C17.1,10,17.4,10.3,17.7,10.5z"/>
	<polygon points="24.8,8.8 24.4,5.1 24.4,5.1 26.2,6.8 26.4,6.8 27.7,4.7 27.7,4.7 28.1,8.5 29.2,8.4 28.6,3 27.7,3.1 26.1,5.4 
		24.1,3.5 23.2,3.6 23.8,9 	"/>
	<polygon points="34.4,8.4 32,7.9 32.3,6.4 34.6,6.9 34.7,6.1 32.4,5.6 32.7,4.2 35.1,4.7 35.2,3.9 31.8,3.2 30.8,8.6 34.3,9.2 	"/>
</g>
</svg>
