<?xml version="1.0" encoding="UTF-8"?><svg id="Lager_1" xmlns="http://www.w3.org/2000/svg" width="20.2847mm" height="20.2847mm" viewBox="0 0 57.5 57.5"><defs><style>.cls-1{fill:none;}</style></defs><polygon class="cls-1" points="7.5412 39.5639 9.093 37.8322 6.8034 37.983 7.5412 39.5639"/><path class="cls-1" d="M24.2055,49.5567c-.2123-.0432-.4246-.0864-.6368-.1297-.1006,.4912-.201,.9825-.3016,1.4736,.2172,.0445,.4344,.089,.6516,.1334,.0934,.0192,.1813,.0289,.264,.0289,.1547,0,.2906-.0336,.408-.1004,.1804-.1025,.2941-.2697,.3419-.5027,.0493-.2427,.0107-.439-.1159-.5899-.1272-.1508-.3307-.2552-.6111-.3132Z"/><path class="cls-1" d="M18.8634,43.4118c.945,.6387,1.952,1.1859,3.0026,1.6302,1.0685,.452,2.1821,.7976,3.3187,1.0301,1.1719,.2399,2.3682,.3591,3.5646,.3592,1.1964,0,2.3929-.1193,3.5648-.3592,1.1366-.2325,2.2502-.5781,3.3187-1.0301,1.0505-.4443,2.0576-.9915,3.0026-1.6302,.9384-.6342,1.8157-1.3584,2.6166-2.1593,.8008-.8009,1.5251-1.6782,2.1593-2.6166,.6386-.9451,1.1858-1.9521,1.6302-3.0025,.452-1.0687,.7976-2.1823,1.0301-3.3188,.2397-1.1719,.359-2.3685,.359-3.5648s-.1193-2.3927-.359-3.5646c-.2325-1.1366-.5781-2.2501-1.0301-3.3187-.4444-1.0505-.9916-2.0574-1.6302-3.0026-.6342-.9383-1.3584-1.8156-2.1593-2.6165-.8009-.8008-1.6782-1.5251-2.6166-2.1592-.9451-.6387-1.9521-1.1859-3.0026-1.6302-1.0686-.452-2.1823-.7976-3.3188-1.0301-1.172-.2398-2.3683-.3592-3.5648-.3592s-2.3927,.1195-3.5646,.3592c-1.1366,.2325-2.2501,.5781-3.3187,1.0301-1.0505,.4443-2.0576,.9915-3.0026,1.6302-.9383,.6341-1.8156,1.3584-2.6165,2.1592-.8008,.8009-1.5251,1.6782-2.1593,2.6166-.6386,.9451-1.1857,1.952-1.6301,3.0025-.452,1.0685-.7976,2.1821-1.0301,3.3187-.2398,1.172-.3592,2.3682-.3592,3.5646s.1194,2.3929,.3592,3.5648c.2325,1.1366,.5781,2.2502,1.0301,3.3188,.4443,1.0504,.9915,2.0574,1.6301,3.0026,.6342,.9383,1.3585,1.8156,2.1593,2.6165,.8009,.8009,1.6782,1.5251,2.6165,2.1593Zm-3.1516-13.745c.087-.1934,.2925-.1523,.4825-.1417-.0096-.3587-.8088-1.7689-1.0767-2.1664,.1741-.1358,1.0883-.2393,1.3445-.2122-.1411-.4225-.264-.8508-.3804-1.2831,.5646-.1619,.5414-.8441,.7493-1.358,.334,.5177,1.3822,.4675,1.6949,.9481,.454-.1577,.5569-1.0834,1.0071-1.2657,.3099,.1677,.7421,.3143,.8276,.5202,.1765-.6682,.2292-1.3223,.6218-2.043,.3036,.2325,.4109,.0198,.7144,.2523,.1044-.6734,.3969-.4003,.4719-.9548,.1484,.0755,.8538-.6666,1.1008-1.1259,.774,1.022,1.6669,.424,2.163,1.4271,.2471-.4786,.6072-.6846,.9219-1.0104,.1669,.1769,.3206,.3564,.5647,.5192,.5129-.1551,.3921-.787,.7745-.991,.1325,.2717,1.108-.6531,1.4736-1.1351,.4293,.3466,.8764,.6889,1.1307,1.0635,.7252-.0159,1.1119-.9741,1.7487-1.2656,.1194,.2717,.5331,.4902,.7295,.7469,.4636-.4834,.7-1.3527,1.0471-1.5543,.2629-.4234,.2388,.2369,.5743,.3012,.5947-.3809,.4641-.9219,1.1477-1.6873,.2992,.1384,.2582,.3395,.4505,.4966,.9423-.6599,1.8159-1.5901,2.9036-1.8815,.2538,.6294-.2983,1.4014-.7058,2.1387-.0977,.3282,.3785,.0314,.5772,.3061-.4893,.5965-1.0259,1.561-1.3246,1.852,.322,.1203,.657,.2809,.9267,.2363-.0894,.9012-.7691,1.4258-1.0413,2.2853,.4587,.1769,.9108,.3331,1.2618,.1741-.2025,.8735-.4878,1.6451-1.0848,2.347,.4322,.4023,1.0921,.3844,1.8511,.892-.3921,.4974-.7639,.8147-1.3658,1.1187-.1238,.1851,.8281,.5927,.9809,.7357-.4805,.6044-1.1321,.6798-1.5992,1.2836,.4124,.2669,.6986,.1649,1.0756,.3293-.3408,.4147-.2606,.7676-.642,1.1829,.6556,.2504,1.1205,.582,1.6954,1.1768-.4158,.2015-.7484,.7767-.9683,1.1799-.1774,.2239-.4487,.1741-.6647,.2814-.0092,.1736,.1938,.3539,.1754,.5952-.3282,.2621-.4206,.5032-.9625,.5433,.0579,.1828,.5037,.4313,.8228,.5806-.2345,.3505-.9336,.3674-1.2106,.5869,.3843,.3461,.8615,.6799,1.4301,1.0008-.5352,.5704-.6957,.8832-1.519,.9669-.0997,.1716,.1802,.2993,.1711,.4598-.4197,.1658-.5081,.1155-.962,.1841,.0981,.2263,.0735,.5092,.0352,.7484-.5085,.4017-1.488-.2842-1.5175,1.0757-1.0515-.1107-1.9546-.3926-1.8381,.5018-2.5807-.0812-6.8412-1.1003-9.0332-3.3178-1.4996,1.154-3.285,3.2468-4.0623,4.9359-.7546-.3331-.2664-.9011-.0131-1.2535,.8407-1.1724,2.6802-2.4496,3.4847-3.9667-.6469-.7237-2.2455-1.3517-3.7258-1.8825,.0904-.6498-1.3387-1.0989-1.9755-1.6592,.0441-.1649,.1799-.149,.2688-.2267-.8296-.5821-.9407-1.2729-1.358-1.926,.1219-.2209,.306-.3196,.5609-.2794-.0808-.4937-.6019-.9239-.9312-1.3865Z"/><path class="cls-1" d="M28.7492,.9642C13.4284,.9642,.9642,13.4284,.9642,28.7491s12.4642,27.7846,27.785,27.7846,27.7845-12.4642,27.7845-27.7846S44.0697,.9642,28.7492,.9642Zm11.2057,3.6072c.1024-.2055,.2656-.3462,.4886-.4228,.2238-.0762,.4391-.0617,.6472,.0417,.21,.1042,.351,.2695,.4234,.4951,.0713,.2262,.0575,.4395-.0421,.64-.1035,.2081-.2652,.3505-.4838,.4266-.22,.0765-.437,.0615-.652-.0456-.21-.1042-.3524-.2659-.4277-.4864-.0745-.2202-.0588-.4359,.0463-.6486Zm-.2377,1.0858l.9564,.4751-.2701,5.8999-.9869-.4905,.084-1.4272-2.1509-1.0699-1.0532,.9453-.9795-.4878,4.4003-3.8448Zm-7.9266-2.4091l3.4338,.6343-.1479,.8025-2.4075-.4448-.2582,1.3963,2.3051,.4254-.1484,.8024-2.3046-.4254-.2794,1.5093,2.4607,.4554-.1484,.8026-3.4875-.645,.9824-5.313Zm-7.6558,.2301l2,1.9211,1.5281-2.3147,.9268-.1035,.598,5.3701-1.038,.116-.4202-3.7708-.0305,.0029-1.3424,2.0643-.1461,.0164-1.7635-1.7181-.0305,.0028,.4196,3.7709-1.0379,.116-.5975-5.3701,.934-.1035Zm-7.6694,2.7412c.4518,.9456,.9037,1.8912,1.3556,2.8368,.1387,.291,.293,.5018,.4626,.6323s.38,.204,.6309,.2214c.2509,.0174,.5081-.0367,.7711-.1625,.2881-.1382,.5081-.3084,.6584-.5105,.1509-.2021,.2292-.4158,.235-.6429,.0059-.2272-.0686-.5028-.2233-.8257-.4418-.9249-.8837-1.85-1.3256-2.775,.314-.1498,.6281-.2997,.9421-.4496,.4614,.9652,.9228,1.9305,1.3842,2.8958,.3133,.6565,.3577,1.2551,.133,1.7946-.2249,.5405-.6967,.9824-1.4151,1.3265-.4515,.2157-.8813,.322-1.2894,.3201-.4085-.002-.7721-.1132-1.0916-.3336-.3196-.2204-.5773-.5347-.7731-.9447-.4669-.9772-.9337-1.9543-1.4005-2.9315,.3151-.1505,.6304-.301,.9456-.4515Zm12.2839,4.2882c10.0754,0,18.2427,8.1672,18.2427,18.2422s-8.1673,18.2427-18.2427,18.2427S10.5071,38.8251,10.5071,28.7497,18.6743,10.5075,28.7493,10.5075ZM11.9583,37.9897c-.0493,.1383-.1358,.2369-.2596,.294-.0687,.0321-.1388,.0482-.2104,.0482-.0598,0-.1205-.0113-.1822-.0338-.1353-.0492-.2319-.1364-.2911-.2629-.0579-.1239-.0637-.2534-.0173-.3889,.0463-.1353,.1349-.2339,.2659-.2948,.0687-.0321,.1389-.0482,.2102-.0482,.0596,0,.1202,.0112,.1818,.0336,.1354,.0493,.2325,.1374,.2914,.263,.0567,.1219,.0605,.2515,.0112,.3896Zm-1.7689-2.0787c.0463-.1383,.134-.2369,.2626-.2968,.0668-.0313,.1351-.0471,.205-.0471,.0619,0,.1251,.0124,.1893,.0375,.1373,.0522,.2345,.1411,.2924,.265,.059,.1256,.0634,.2571,.0136,.3944s-.1368,.235-.2606,.292c-.065,.0307-.1329,.0461-.2038,.0461-.0588,0-.1196-.0106-.1824-.0316-.1384-.0463-.2379-.1353-.2989-.2658-.058-.1238-.0638-.2553-.0173-.3936Zm-4.9113-11.9628c.1837-.1309,.3839-.1967,.6008-.1967,.0651,0,.1317,.0059,.1996,.0177,.2896,.0504,.5197,.1964,.6913,.4361,.1716,.2408,.232,.5067,.1813,.7996-.0517,.2968-.1978,.529-.4376,.6971-.1836,.1281-.3832,.1921-.5989,.1921-.0661,0-.1335-.006-.2027-.0181-.2919-.0504-.5226-.1953-.6918-.4341-.1692-.2388-.2282-.5067-.1765-.8036,.0504-.29,.1949-.5201,.4342-.6902Zm-2.0406,9.6472l4.9001-3.4648,.2108,1.0819-3.1129,2.1633,3.6896,.7977,.2094,1.0743-5.828-1.2957-.069-.3567Zm2.775,7.6769l.9542-1.0645-1.0162-2.1765-1.4122,.0832-.4631-.992,5.8381-.2669,.4515,.9669-3.8858,4.4476-.4665-.9979Zm5.7302,.467c-.0562-.0167-.1101-.025-.162-.025-.1074,0-.2057,.0359-.2949,.1083-.1592,.1276-.2191,.3529-.1804,.6758,.0082,.0929,.0827,.4149,.2228,.9679,.1155,.4758,.1355,.8711,.0596,1.1835-.0759,.3123-.2534,.5811-.5328,.8065-.2822,.2274-.586,.3408-.9113,.3408-.091,0-.1837-.0089-.2781-.0267-.4312-.0811-.8132-.3287-1.1462-.7426-.2171-.2688-.3737-.524-.4703-.7657-.0971-.2418-.1702-.5405-.2195-.8983,.267-.215,.534-.4299,.801-.6448-.0112,.7503,.1431,1.3246,.4637,1.7219,.16,.1992,.3326,.325,.5177,.3781,.0579,.0165,.1139,.0245,.1677,.0245,.1177,0,.2256-.0391,.3234-.1174,.1949-.1577,.2679-.3915,.2191-.7029-.0459-.2543-.1141-.5753-.2044-.963-.1161-.4526-.1397-.8412-.0706-1.1671,.0686-.3249,.2359-.5945,.5007-.8083,.2654-.2135,.5502-.3206,.8542-.3206,.1007,0,.2035,.0118,.3085,.0353,.4216,.0938,.8064,.3568,1.1541,.788,.3302,.4099,.5452,.8878,.6463,1.4319-.241,.1941-.4822,.3881-.7232,.5821-.0875-.6478-.2674-1.1399-.5391-1.4774-.1648-.205-.3335-.3336-.506-.3849Zm1.3637,7.6548l-.819-.6479,2.8446-3.5977-1.5044-1.1903,.5056-.64,3.8287,3.0273-.506,.64-1.5046-1.1901-2.845,3.5986Zm7.5974,.6855l-.3453,.7396-2.1238-.991-.6492,1.3915,2.2674,1.0586-.3453,.7388-3.2139-1.4996,2.2857-4.8964,3.1647,1.4773-.3452,.7398-2.2186-1.0355-.6003,1.2859,2.1238,.991Zm5.2891,.5772c-.0613,.3008-.1923,.5473-.3934,.7388-.2011,.1924-.468,.321-.8,.3877,.1506,.1247,.2755,.2795,.375,.4632,.0991,.1835,.2084,.4805,.3268,.8914,.1919,.7087,.3413,1.199,.4481,1.4736-.3802-.0777-.7603-.1554-1.1404-.233-.0542-.1326-.1224-.3395-.204-.6218-.1779-.6237-.3148-1.0471-.4114-1.2705-.0962-.2242-.1991-.3896-.3083-.4979-.1098-.1074-.2466-.179-.4105-.2119l-.3713-.0763c-.1526,.7452-.3052,1.4903-.4577,2.2354-.3411-.0696-.6821-.1392-1.0231-.2087,.3611-1.7647,.7222-3.5292,1.0834-5.2938,.6353,.1298,1.2705,.2598,1.9058,.3898,.4975,.1024,.875,.3229,1.1317,.6622,.2568,.3394,.3403,.73,.2493,1.1718Zm5.654,3.1888c-.1445,.2418-.3505,.4263-.6183,.555-.2673,.1286-.5854,.1992-.9539,.2126l-2.261,.0833c-.0658-1.8-.1315-3.6001-.1973-5.4001l1.9791-.0716c.0344-.0013,.0683-.002,.1018-.002,.449,0,.8231,.1149,1.1219,.3443,.3214,.2455,.4886,.5626,.5031,.9485,.0088,.2476-.0483,.468-.1716,.6603-.1233,.1935-.3065,.3491-.5496,.4691l.0014,.0463c.3795,.0715,.6787,.2292,.8978,.4728,.219,.2437,.335,.5338,.3471,.8713,.0112,.2987-.0557,.5695-.2006,.8102Zm7.2034-2.51c-.1129,.4911-.3467,.9205-.703,1.2869-.3563,.3674-.804,.6391-1.3431,.8151-.3519,.1152-.6992,.1728-1.0417,.1728-.1751,0-.349-.0151-.5216-.0452-.5101-.0879-.9525-.2938-1.3267-.6177-.3741-.325-.641-.73-.8005-1.2184-.1533-.4708-.1765-.9523-.0692-1.4456,.1072-.494,.337-.9243,.6889-1.2927,.3514-.3684,.8044-.6429,1.3584-.8238,.3635-.1188,.7189-.1782,1.066-.1782,.1608,0,.3198,.0127,.4771,.0381,.4966,.0802,.9389,.2862,1.3262,.6169,.3871,.3307,.6612,.7426,.8218,1.2347,.1571,.4806,.1794,.9659,.0673,1.4572Zm3.9486-.8258l-2.5676-3.8008-1.5895,1.0742-.4569-.6767,4.0446-2.7316,.4568,.6758-1.5897,1.0742,2.5677,3.8009-.8655,.5839Zm5.0815-4.3025l-3.4489-3.0245-1.2647,1.4426-.6139-.5376,3.2177-3.6703,.6135,.5376-1.2642,1.4426,3.4489,3.0244-.6884,.7852Zm2.9625-3.8464l-4.7706-2.5361,1.6389-3.0833,.7209,.3829-1.1491,2.162,1.2531,.6661,1.1003-2.0701,.7204,.3839-1.1,2.0692,1.3556,.7203,1.1748-2.2094,.7203,.3829-1.6646,3.1317Zm-.0966-18.0405c.1702-.2378,.4026-.3829,.6976-.4322,.0667-.0115,.1321-.0172,.196-.0172,.216,0,.4165,.0654,.6011,.195,.2393,.1684,.3839,.4014,.4346,.6992,.0493,.2891-.0101,.5549-.1784,.7947-.1681,.2408-.3998,.3859-.6946,.4361-.0654,.0112-.1297,.0167-.1927,.0167-.2162,0-.4178-.0656-.605-.1965-.2422-.1691-.3878-.4002-.4375-.6923-.0507-.2978,.0091-.5656,.1789-.8035Zm-1.4398,6.4501l5.2691,1.1951-.1986,.8754-4.4517,2.3022,3.7376,.847-.2258,.996-5.269-1.1942,.2026-.8944,4.3871-2.2963-3.6771-.835,.2257-.9958Z"/><path class="cls-1" d="M37.2308,49.3662c-.2422-.2235-.527-.3636-.8542-.4226-.1118-.0202-.225-.0303-.3393-.0303-.2198,0-.4442,.0375-.6731,.1125-.348,.113-.6367,.291-.8657,.5327-.2288,.2417-.3738,.5222-.4352,.8421-.0609,.3192-.0352,.6508,.0764,.994,.1111,.3403,.2885,.6217,.5317,.8432,.2432,.2224,.527,.3625,.852,.4214,.1119,.0207,.2253,.031,.3401,.031,.2178,0,.4407-.0371,.6687-.1112,.527-.1721,.9061-.4797,1.1376-.9214,.2317-.4409,.262-.9234,.0914-1.4456-.1112-.3404-.2881-.6226-.5303-.8459Z"/><path class="cls-1" d="M30.0453,51.2554c.1547-.1373,.2283-.3229,.2196-.5579-.0078-.2089-.0871-.3713-.2384-.4883-.1408-.1089-.3202-.1633-.5374-.1633l-.0491,.001-.7497,.027,.0516,1.4261,.657-.0231c.2761-.0106,.4911-.0842,.6463-.2215Z"/><path class="cls-1" d="M29.8277,52.2788c-.0242,0-.0488,.0005-.0738,.0015-.3274,.0118-.6547,.0238-.9819,.0357,.0185,.5089,.037,1.0178,.0557,1.5267,.3001-.011,.6003-.0219,.9006-.0329,.3529-.0135,.6175-.089,.7928-.2281,.1755-.1392,.2587-.3384,.249-.5956-.0082-.2291-.1044-.407-.2881-.5338-.1689-.1152-.387-.1736-.6543-.1736Z"/><path class="cls-1" d="M23.6046,36.8899c.5825-.044,1.1284-1.1661,2.0579-2.1964,1.17-1.2941,2.5657-2.3669,3.1865-3.299,0,0,4.6038-6.8577,4.3824-6.8369-.222,.0203-2.6334,3.6201-3.7313,5.2294-.8397,1.2313-1.4319,1.7573-2.8026,3.3696-.5613,.6599-.5352,.3113-1.7443,2.001-1.1302,1.3637-1.8579,1.7709-1.3488,1.7322Z"/><polygon class="cls-1" points="39.6842 6.932 37.9867 8.4765 39.549 9.2534 39.6842 6.932"/><path class="cls-1" d="M40.5088,5.3608c.1151,.0568,.2333,.0634,.355,.0185,.1216-.0447,.209-.1198,.2616-.226,.0544-.1088,.0603-.2252,.0186-.3497-.0417-.1245-.119-.214-.232-.2709-.1045-.052-.2182-.0568-.3421-.017-.1232,.0411-.2131,.1173-.2684,.2278-.0571,.1159-.0654,.2335-.0239,.3527,.0403,.1201,.1183,.2075,.2311,.2646Z"/><path d="M16.0821,31.3327c.4172,.6531,.5284,1.3439,1.358,1.926-.0889,.0778-.2247,.0619-.2688,.2267,.6367,.5602,2.0659,1.0093,1.9755,1.6592,1.4803,.5308,3.079,1.1588,3.7258,1.8825-.8044,1.5171-2.644,2.7943-3.4847,3.9667-.2532,.3524-.7415,.9205,.0131,1.2535,.7773-1.6891,2.5627-3.7819,4.0623-4.9359,2.192,2.2175,6.4525,3.2366,9.0332,3.3178-.1165-.8944,.7866-.6125,1.8381-.5018,.0295-1.3599,1.0089-.674,1.5175-1.0757,.0383-.2393,.0629-.5222-.0352-.7484,.4539-.0686,.5424-.0183,.962-.1841,.0091-.1605-.2708-.2881-.1711-.4598,.8232-.0836,.9838-.3964,1.519-.9669-.5685-.3209-1.0458-.6547-1.4301-1.0008,.277-.2195,.9761-.2363,1.2106-.5869-.3192-.1494-.7649-.3978-.8228-.5806,.5419-.0401,.6343-.2812,.9625-.5433,.0184-.2413-.1846-.4216-.1754-.5952,.216-.1073,.4873-.0575,.6647-.2814,.2199-.4032,.5526-.9784,.9683-1.1799-.5749-.5947-1.0399-.9263-1.6954-1.1768,.3814-.4153,.3012-.7682,.642-1.1829-.377-.1645-.6632-.0624-1.0756-.3293,.467-.6038,1.1187-.6792,1.5992-1.2836-.1528-.143-1.1047-.5506-.9809-.7357,.6019-.304,.9737-.6213,1.3658-1.1187-.759-.5076-1.4189-.4897-1.8511-.892,.597-.702,.8823-1.4735,1.0848-2.347-.351,.1591-.803,.0029-1.2618-.1741,.2722-.8595,.9519-1.384,1.0413-2.2853-.2697,.0446-.6047-.116-.9267-.2363,.2987-.291,.8353-1.2555,1.3246-1.852-.1987-.2747-.6749,.0222-.5772-.3061,.4075-.7373,.9597-1.5093,.7058-2.1387-1.0878,.2914-1.9613,1.2216-2.9036,1.8815-.1923-.1571-.1513-.3582-.4505-.4966-.6837,.7654-.553,1.3063-1.1477,1.6873-.3356-.0643-.3114-.7246-.5743-.3012-.3472,.2017-.5835,1.0709-1.0471,1.5543-.1964-.2567-.6101-.4752-.7295-.7469-.6367,.2915-1.0234,1.2497-1.7487,1.2656-.2543-.3746-.7015-.7169-1.1307-1.0635-.3655,.482-1.3411,1.4068-1.4736,1.1351-.3824,.204-.2616,.8359-.7745,.991-.2441-.1628-.3978-.3423-.5647-.5192-.3146,.3259-.6748,.5318-.9219,1.0104-.4961-1.0032-1.3889-.4052-2.163-1.4271-.2471,.4593-.9524,1.2014-1.1008,1.1259-.075,.5546-.3674,.2814-.4719,.9548-.3035-.2325-.4108-.0198-.7144-.2523-.3926,.7208-.4453,1.3749-.6218,2.043-.0856-.2059-.5178-.3525-.8276-.5202-.4501,.1823-.553,1.108-1.0071,1.2657-.3127-.4806-1.3608-.4304-1.6949-.9481-.2079,.5139-.1847,1.196-.7493,1.358,.1165,.4323,.2393,.8605,.3804,1.2831-.2562-.0271-1.1704,.0764-1.3445,.2122,.2678,.3975,1.067,1.8077,1.0767,2.1664-.19-.0106-.3955-.0517-.4825,.1417,.3292,.4626,.8503,.8929,.9312,1.3865-.2548-.0402-.439,.0585-.5609,.2794Zm8.8712,3.825c1.2091-1.6897,1.183-1.3411,1.7443-2.001,1.3706-1.6123,1.9628-2.1383,2.8026-3.3696,1.0979-1.6094,3.5093-5.2092,3.7313-5.2294,.2214-.0208-4.3824,6.8369-4.3824,6.8369-.6208,.9321-2.0164,2.0048-3.1865,3.299-.9296,1.0303-1.4754,2.1523-2.0579,2.1964-.5092,.0387,.2185-.3685,1.3488-1.7322Z"/><path d="M5.7122,25.8762c.0692,.012,.1366,.0181,.2027,.0181,.2156,0,.4153-.0641,.5989-.1921,.2398-.1682,.3859-.4004,.4376-.6971,.0507-.293-.0098-.5588-.1813-.7996-.1716-.2397-.4018-.3857-.6913-.4361-.068-.0118-.1345-.0177-.1996-.0177-.2169,0-.4172,.0657-.6008,.1967-.2393,.1701-.3839,.4003-.4342,.6902-.0518,.2969,.0073,.5648,.1765,.8036,.1691,.2388,.3998,.3838,.6918,.4341Z"/><polygon points="8.9252 34.1734 5.2356 33.3757 8.3485 31.2124 8.1376 30.1305 3.2376 33.5954 3.3066 33.952 9.1346 35.2477 8.9252 34.1734"/><path d="M11.6557,37.3371c-.0616-.0225-.1222-.0336-.1818-.0336-.0714,0-.1415,.0161-.2102,.0482-.131,.0609-.2196,.1595-.2659,.2948-.0464,.1354-.0406,.265,.0173,.3889,.0592,.1265,.1558,.2137,.2911,.2629,.0616,.0225,.1224,.0338,.1822,.0338,.0716,0,.1417-.0161,.2104-.0482,.1238-.0571,.2103-.1557,.2596-.294,.0493-.1382,.0455-.2678-.0112-.3896-.0589-.1256-.156-.2137-.2914-.263Z"/><path d="M9.9134,36.8556l-5.8381,.2669,.4631,.992,1.4122-.0832,1.0162,2.1765-.9542,1.0645,.4665,.9979,3.8858-4.4476-.4515-.9669Zm-2.3723,2.7083l-.7377-1.5809,2.2896-.1508-1.5518,1.7316Z"/><path d="M10.5057,36.5703c.0628,.021,.1236,.0316,.1824,.0316,.0709,0,.1388-.0154,.2038-.0461,.1238-.057,.2108-.1547,.2606-.292s.0454-.2688-.0136-.3944c-.0579-.1239-.1552-.2128-.2924-.265-.0643-.0251-.1274-.0375-.1893-.0375-.0699,0-.1382,.0158-.205,.0471-.1286,.0599-.2162,.1585-.2626,.2968-.0465,.1382-.0406,.2697,.0173,.3936,.061,.1305,.1605,.2195,.2989,.2658Z"/><path d="M13.5112,43.0195c-.1011-.5442-.3161-1.022-.6463-1.4319-.3477-.4313-.7325-.6943-1.1541-.788-.105-.0236-.2078-.0353-.3085-.0353-.304,0-.5887,.1071-.8542,.3206-.2648,.2137-.4321,.4834-.5007,.8083-.0692,.3259-.0456,.7144,.0706,1.1671,.0903,.3877,.1585,.7087,.2044,.963,.0489,.3114-.0242,.5452-.2191,.7029-.0978,.0783-.2056,.1174-.3234,.1174-.0538,0-.1098-.0081-.1677-.0245-.1851-.0532-.3577-.1789-.5177-.3781-.3206-.3973-.4749-.9716-.4637-1.7219-.267,.2149-.534,.4299-.801,.6448,.0493,.3578,.1224,.6565,.2195,.8983,.0966,.2416,.2532,.4969,.4703,.7657,.333,.4139,.715,.6614,1.1462,.7426,.0944,.0178,.1871,.0267,.2781,.0267,.3253,0,.6291-.1134,.9113-.3408,.2794-.2253,.4568-.4941,.5328-.8065,.0759-.3124,.0559-.7077-.0596-1.1835-.1401-.553-.2145-.875-.2228-.9679-.0387-.3229,.0212-.5482,.1804-.6758,.0892-.0724,.1875-.1083,.2949-.1083,.0519,0,.1058,.0083,.162,.025,.1725,.0513,.3412,.1799,.506,.3849,.2717,.3375,.4517,.8296,.5391,1.4774,.241-.194,.4822-.388,.7232-.5821Z"/><polygon points="17.9621 46.3456 14.1334 43.3183 13.6278 43.9583 15.1322 45.1486 12.2876 48.7462 13.1065 49.3941 15.9516 45.7955 17.4561 46.9856 17.9621 46.3456"/><polygon points="21.3991 48.8383 21.7442 48.0985 18.5795 46.6212 16.2938 51.5175 19.5077 53.0172 19.853 52.2783 17.5856 51.2197 18.2349 49.8283 20.3587 50.8193 20.7039 50.0797 18.5801 49.0886 19.1804 47.8027 21.3991 48.8383"/><path d="M24.612,48.8228c-.6353-.1299-1.2705-.2599-1.9058-.3898-.3612,1.7646-.7224,3.5291-1.0834,5.2938,.341,.0695,.6819,.1392,1.0231,.2087,.1525-.7451,.3051-1.4902,.4577-2.2354l.3713,.0763c.1639,.0329,.3007,.1045,.4105,.2119,.1093,.1083,.2122,.2736,.3083,.4979,.0966,.2234,.2336,.6469,.4114,1.2705,.0817,.2823,.1498,.4893,.204,.6218,.3801,.0776,.7602,.1553,1.1404,.233-.1068-.2746-.2562-.7649-.4481-1.4736-.1184-.4108-.2277-.7078-.3268-.8914-.0995-.1837-.2244-.3385-.375-.4632,.332-.0667,.5989-.1953,.8-.3877,.2012-.1915,.3322-.438,.3934-.7388,.091-.4418,.0074-.8325-.2493-1.1718-.2567-.3394-.6342-.5599-1.1317-.6622Zm.3204,1.6369c-.0478,.233-.1614,.4002-.3419,.5027-.1174,.0668-.2534,.1004-.408,.1004-.0826,0-.1706-.0096-.264-.0289-.2172-.0444-.4344-.0889-.6516-.1334,.1005-.4911,.201-.9824,.3016-1.4736,.2123,.0433,.4246,.0865,.6368,.1297,.2804,.0579,.4839,.1624,.6111,.3132,.1266,.1509,.1652,.3472,.1159,.5899Z"/><path d="M30.6028,51.6915l-.0014-.0463c.2432-.12,.4263-.2756,.5496-.4691,.1233-.1923,.1804-.4127,.1716-.6603-.0145-.3859-.1818-.703-.5031-.9485-.2988-.2294-.673-.3443-1.1219-.3443-.0335,0-.0674,.0007-.1018,.002l-1.9791,.0716c.0657,1.8,.1315,3.6001,.1973,5.4001l2.261-.0833c.3684-.0135,.6866-.084,.9539-.2126,.2678-.1287,.4738-.3132,.6183-.555,.145-.2407,.2118-.5115,.2006-.8102-.0121-.3375-.1281-.6276-.3471-.8713-.2191-.2435-.5182-.4012-.8978-.4728Zm-1.9124-1.6176l.7497-.027,.0491-.001c.2172,0,.3965,.0544,.5374,.1633,.1513,.1171,.2306,.2795,.2384,.4883,.0087,.235-.0649,.4206-.2196,.5579-.1552,.1373-.3702,.2109-.6463,.2215l-.657,.0231-.0516-1.4261Zm1.8307,3.5078c-.1754,.1392-.4399,.2146-.7928,.2281-.3002,.011-.6005,.0219-.9006,.0329-.0186-.5089-.0372-1.0178-.0557-1.5267,.3272-.0119,.6545-.0239,.9819-.0357,.025-.001,.0496-.0015,.0738-.0015,.2673,0,.4854,.0583,.6543,.1736,.1837,.1267,.2798,.3046,.2881,.5338,.0097,.2571-.0734,.4564-.249,.5956Z"/><path d="M37.9614,48.6439c-.3873-.3307-.8297-.5367-1.3262-.6169-.1573-.0254-.3163-.0381-.4771-.0381-.3472,0-.7026,.0594-1.066,.1782-.554,.1808-1.007,.4554-1.3584,.8238-.3519,.3684-.5817,.7987-.6889,1.2927-.1073,.4932-.0842,.9747,.0692,1.4456,.1595,.4884,.4264,.8934,.8005,1.2184,.3741,.324,.8165,.5298,1.3267,.6177,.1726,.0302,.3465,.0452,.5216,.0452,.3425,0,.6898-.0576,1.0417-.1728,.5391-.176,.9868-.4477,1.3431-.8151,.3563-.3664,.5901-.7957,.703-1.2869,.1122-.4913,.0898-.9766-.0673-1.4572-.1606-.4921-.4346-.9039-.8218-1.2347Zm-.2916,3.0138c-.2315,.4418-.6105,.7494-1.1376,.9214-.228,.0741-.4509,.1112-.6687,.1112-.1147,0-.2282-.0103-.3401-.031-.325-.059-.6088-.1991-.852-.4214-.2432-.2215-.4206-.5029-.5317-.8432-.1116-.3433-.1373-.6748-.0764-.994,.0614-.3199,.2064-.6004,.4352-.8421,.2291-.2418,.5177-.4197,.8657-.5327,.2289-.0751,.4533-.1125,.6731-.1125,.1143,0,.2275,.0101,.3393,.0303,.3273,.059,.612,.1991,.8542,.4226,.2421,.2233,.4191,.5055,.5303,.8459,.1706,.5222,.1403,1.0046-.0914,1.4456Z"/><polygon points="42.6865 45.0509 42.2297 44.375 38.1851 47.1066 38.642 47.7833 40.2315 46.7091 42.799 50.5099 43.6645 49.926 41.0968 46.1251 42.6865 45.0509"/><polygon points="46.3843 40.9552 45.7708 40.4176 42.5531 44.0879 43.167 44.6255 44.4317 43.1829 47.8806 46.2074 48.5689 45.4222 45.1201 42.3978 46.3843 40.9552"/><polygon points="50.6124 41.0557 49.2568 40.3355 50.3568 38.2662 49.6364 37.8824 48.5361 39.9525 47.2831 39.2864 48.4322 37.1244 47.7113 36.7415 46.0724 39.8248 50.843 42.361 52.5076 39.2293 51.7872 38.8464 50.6124 41.0557"/><polygon points="48.3708 34.8977 48.1682 35.7921 53.4373 36.9862 53.663 35.9902 49.9254 35.1432 54.3771 32.841 54.5757 31.9657 49.3066 30.7705 49.0809 31.7664 52.7579 32.6014 48.3708 34.8977"/><path d="M51.61,26.0127c.063,0,.1273-.0056,.1927-.0167,.2949-.0502,.5266-.1953,.6946-.4361,.1683-.2397,.2277-.5056,.1784-.7947-.0508-.2978-.1953-.5308-.4346-.6992-.1846-.1296-.3851-.195-.6011-.195-.064,0-.1293,.0057-.196,.0172-.295,.0493-.5275,.1944-.6976,.4322-.1698,.2379-.2296,.5057-.1789,.8035,.0497,.2921,.1953,.5231,.4375,.6923,.1871,.131,.3888,.1965,.605,.1965Z"/><path d="M28.7493,46.9924c10.0754,0,18.2427-8.1673,18.2427-18.2427S38.8247,10.5075,28.7493,10.5075,10.5071,18.6747,10.5071,28.7497s8.1672,18.2427,18.2422,18.2427Zm-16.2917-11.3591c-.452-1.0687-.7976-2.1823-1.0301-3.3188-.2398-1.1719-.3592-2.3685-.3592-3.5648s.1194-2.3926,.3592-3.5646c.2325-1.1365,.5781-2.2501,1.0301-3.3187,.4443-1.0505,.9915-2.0574,1.6301-3.0025,.6342-.9384,1.3585-1.8157,2.1593-2.6166,.8009-.8008,1.6782-1.5251,2.6165-2.1592,.945-.6387,1.952-1.1859,3.0026-1.6302,1.0685-.452,2.1821-.7976,3.3187-1.0301,1.1719-.2397,2.3683-.3592,3.5646-.3592s2.3928,.1194,3.5648,.3592c1.1366,.2325,2.2502,.5781,3.3188,1.0301,1.0505,.4443,2.0575,.9915,3.0026,1.6302,.9384,.6341,1.8157,1.3584,2.6166,2.1592,.8009,.8009,1.5251,1.6782,2.1593,2.6165,.6386,.9451,1.1858,1.952,1.6302,3.0026,.452,1.0685,.7976,2.1821,1.0301,3.3187,.2397,1.1719,.359,2.3684,.359,3.5646s-.1193,2.3929-.359,3.5648c-.2325,1.1366-.5781,2.2502-1.0301,3.3188-.4444,1.0504-.9916,2.0574-1.6302,3.0025-.6342,.9384-1.3585,1.8157-2.1593,2.6166-.8009,.8009-1.6782,1.5251-2.6166,2.1593-.9451,.6387-1.9521,1.1859-3.0026,1.6302-1.0685,.452-2.1821,.7976-3.3187,1.0301-1.1719,.2399-2.3685,.3592-3.5648,.3592-1.1965,0-2.3927-.1193-3.5646-.3592-1.1366-.2325-2.2501-.5781-3.3187-1.0301-1.0506-.4443-2.0576-.9915-3.0026-1.6302-.9383-.6342-1.8156-1.3584-2.6165-2.1593-.8008-.8009-1.5251-1.6782-2.1593-2.6165-.6386-.9451-1.1857-1.9521-1.6301-3.0026Z"/><path d="M28.7492,.4025C13.1189,.4025,.4025,13.1188,.4025,28.7491s12.7164,28.3463,28.3467,28.3463,28.3463-12.7159,28.3463-28.3463S44.3794,.4025,28.7492,.4025Zm0,56.1312C13.4284,56.5337,.9642,44.0695,.9642,28.7491S13.4284,.9642,28.7492,.9642s27.7845,12.4642,27.7845,27.7849-12.4641,27.7846-27.7845,27.7846Z"/><path d="M37.3496,9.0444l2.1509,1.0699-.084,1.4272,.9869,.4905,.2701-5.8999-.9564-.4751-4.4003,3.8448,.9795,.4878,1.0532-.9453Zm2.3346-2.1125l-.1353,2.3214-1.5623-.7769,1.6975-1.5446Z"/><path d="M40.3363,5.7063c.215,.1071,.4319,.1221,.652,.0456,.2186-.0761,.3802-.2185,.4838-.4266,.0995-.2004,.1133-.4138,.0421-.64-.0724-.2255-.2134-.3908-.4234-.4951-.2081-.1035-.4234-.118-.6472-.0417-.223,.0766-.3862,.2173-.4886,.4228-.1052,.2126-.1208,.4283-.0463,.6486,.0753,.2205,.2177,.3821,.4277,.4864Zm-.0348-.9628c.0552-.1105,.1451-.1867,.2684-.2278,.1239-.0398,.2376-.035,.3421,.017,.113,.0569,.1903,.1464,.232,.2709,.0417,.1246,.0358,.2409-.0186,.3497-.0526,.1062-.14,.1813-.2616,.226-.1217,.0449-.2399,.0383-.355-.0185-.1128-.0571-.1908-.1445-.2311-.2646-.0415-.1193-.0333-.2368,.0239-.3527Z"/><path d="M17.6934,10.547c.3195,.2205,.683,.3317,1.0916,.3336,.408,.0019,.8378-.1044,1.2894-.3201,.7184-.3441,1.1902-.786,1.4151-1.3265,.2247-.5395,.1803-1.1381-.133-1.7946-.4614-.9653-.9227-1.9306-1.3842-2.8958-.314,.1499-.6281,.2997-.9421,.4496,.4418,.9249,.8837,1.85,1.3256,2.775,.1547,.3229,.2292,.5985,.2233,.8257-.0057,.2272-.084,.4409-.235,.6429-.1503,.2021-.3703,.3723-.6584,.5105-.263,.1257-.5202,.1799-.7711,.1625-.2509-.0174-.4612-.0909-.6309-.2214s-.324-.3414-.4626-.6323c-.4519-.9456-.9038-1.8912-1.3556-2.8368-.3152,.1505-.6305,.301-.9456,.4515,.4669,.9772,.9337,1.9543,1.4005,2.9315,.1958,.41,.4534,.7243,.7731,.9447Z"/><polygon points="24.8362 8.8356 24.4166 5.0647 24.4471 5.0619 26.2106 6.78 26.3567 6.7636 27.6991 4.6993 27.7296 4.6964 28.1497 8.4672 29.1877 8.3512 28.5897 2.9811 27.6629 3.0845 26.1348 5.3992 24.1348 3.4781 23.2008 3.5816 23.7983 8.9516 24.8362 8.8356"/><polygon points="34.4442 8.4035 31.9835 7.948 32.2628 6.4387 34.5675 6.8641 34.7159 6.0617 32.4108 5.6362 32.669 4.2399 35.0765 4.6848 35.2244 3.8823 31.7906 3.248 30.8082 8.561 34.2957 9.206 34.4442 8.4035"/></svg>