<?xml version="1.0" encoding="utf-8"?>
<!-- Generator: Adobe Illustrator 26.2.1, SVG Export Plug-In . SVG Version: 6.00 Build 0)  -->
<svg version="1.1" id="Lager_1" xmlns="http://www.w3.org/2000/svg" xmlns:xlink="http://www.w3.org/1999/xlink" x="0px" y="0px"
	 viewBox="0 0 57.5 57.5" style="enable-background:new 0 0 57.5 57.5;" xml:space="preserve">
<path d="M51.6,26c0.1,0,0.1,0,0.2,0c0.3-0.1,0.5-0.2,0.7-0.4c0.2-0.2,0.2-0.5,0.2-0.8c-0.1-0.3-0.2-0.5-0.4-0.7
	c-0.2-0.1-0.4-0.2-0.6-0.2c-0.1,0-0.1,0-0.2,0c-0.3,0-0.5,0.2-0.7,0.4c-0.2,0.2-0.2,0.5-0.2,0.8s0.2,0.5,0.4,0.7
	C51.2,25.9,51.4,26,51.6,26z"/>
<path d="M5.7,25.9c0.1,0,0.1,0,0.2,0c0.2,0,0.4-0.1,0.6-0.2C6.8,25.5,6.9,25.3,7,25s0-0.6-0.2-0.8c-0.2-0.2-0.4-0.4-0.7-0.4
	c-0.1,0-0.1,0-0.2,0c-0.2,0-0.4,0.1-0.6,0.2c-0.2,0.2-0.4,0.4-0.4,0.7c-0.1,0.3,0,0.6,0.2,0.8C5.2,25.7,5.4,25.8,5.7,25.9z"/>
<polygon points="8.9,34.2 5.2,33.4 8.3,31.2 8.1,30.1 3.2,33.6 3.3,34 9.1,35.2 "/>
<path d="M11.7,37.3c-0.1,0-0.1,0-0.2,0c-0.1,0-0.1,0-0.2,0c-0.1,0.1-0.2,0.2-0.3,0.3c0,0.1,0,0.3,0,0.4c0.1,0.1,0.2,0.2,0.3,0.3
	c0.1,0,0.1,0,0.2,0c0.1,0,0.1,0,0.2,0c0.1-0.1,0.2-0.2,0.3-0.3c0-0.1,0-0.3,0-0.4C11.9,37.5,11.8,37.4,11.7,37.3z"/>
<path d="M9.9,36.9l-5.8,0.3l0.5,1L6,38l1,2.2l-1,1.1l0.5,1l3.9-4.4L9.9,36.9z M7.5,39.6L6.8,38l2.3-0.2L7.5,39.6z"/>
<path d="M10.5,36.6c0.1,0,0.1,0,0.2,0c0.1,0,0.1,0,0.2,0c0.1-0.1,0.2-0.2,0.3-0.3c0-0.1,0-0.3,0-0.4c-0.1-0.1-0.2-0.2-0.3-0.3
	c-0.1,0-0.1,0-0.2,0c-0.1,0-0.1,0-0.2,0c-0.1,0.1-0.2,0.2-0.3,0.3c0,0.1,0,0.3,0,0.4C10.3,36.4,10.4,36.5,10.5,36.6z"/>
<path d="M13.5,43c-0.1-0.5-0.3-1-0.6-1.4s-0.7-0.7-1.2-0.8c-0.1,0-0.2,0-0.3,0c-0.3,0-0.6,0.1-0.9,0.3c-0.3,0.2-0.4,0.5-0.5,0.8
	s0,0.7,0.1,1.2c0.1,0.4,0.2,0.7,0.2,1s0,0.5-0.2,0.7c-0.1,0.1-0.2,0.1-0.3,0.1s-0.1,0-0.2,0c-0.2-0.1-0.4-0.2-0.5-0.4
	c-0.3-0.4-0.5-1-0.5-1.7c-0.3,0.2-0.5,0.4-0.8,0.6C7.9,43.7,8,44,8,44.3c0.1,0.2,0.3,0.5,0.5,0.8c0.3,0.4,0.7,0.7,1.1,0.7
	c0.1,0,0.2,0,0.3,0c0.3,0,0.6-0.1,0.9-0.3c0.3-0.2,0.5-0.5,0.5-0.8c0.1-0.3,0.1-0.7-0.1-1.2c-0.1-0.6-0.2-0.9-0.2-1
	c0-0.3,0-0.5,0.2-0.7c0.1-0.1,0.2-0.1,0.3-0.1s0.1,0,0.2,0c0.2,0.1,0.3,0.2,0.5,0.4c0.3,0.3,0.5,0.8,0.5,1.5
	C13,43.4,13.3,43.2,13.5,43z"/>
<polygon points="18,46.3 14.1,43.3 13.6,44 15.1,45.1 12.3,48.7 13.1,49.4 16,45.8 17.5,47 "/>
<polygon points="21.4,48.8 21.7,48.1 18.6,46.6 16.3,51.5 19.5,53 19.9,52.3 17.6,51.2 18.2,49.8 20.4,50.8 20.7,50.1 18.6,49.1 
	19.2,47.8 "/>
<polygon points="42.7,45.1 42.2,44.4 38.2,47.1 38.6,47.8 40.2,46.7 42.8,50.5 43.7,49.9 41.1,46.1 "/>
<polygon points="46.4,41 45.8,40.4 42.6,44.1 43.2,44.6 44.4,43.2 47.9,46.2 48.6,45.4 45.1,42.4 "/>
<polygon points="50.6,41.1 49.3,40.3 50.4,38.3 49.6,37.9 48.5,40 47.3,39.3 48.4,37.1 47.7,36.7 46.1,39.8 50.8,42.4 52.5,39.2 
	51.8,38.8 "/>
<polygon points="48.4,34.9 48.2,35.8 53.4,37 53.7,36 49.9,35.1 54.4,32.8 54.6,32 49.3,30.8 49.1,31.8 52.8,32.6 "/>
<g>
	<path d="M9.8,11.4l3.5,1.4L12,9.3l0.8-0.8l2.1,5.6l-0.3,0.3L9,12.2L9.8,11.4z"/>
	<path d="M15.8,5.4c0.1,0.1,0.1,0.2,0,0.4S15.7,6,15.6,6.1c-0.1,0.1-0.3,0.1-0.4,0c-0.1,0-0.2-0.1-0.3-0.2s-0.1-0.3,0-0.4
		s0.1-0.2,0.2-0.3c0.1-0.1,0.3-0.1,0.4,0C15.7,5.2,15.8,5.3,15.8,5.4z M17.1,5.9l4.6,3.6l-1,0.5l-1.1-0.9l-2.1,1.1l0.2,1.4l-1,0.5
		l-0.6-5.8L17.1,5.9z M17.5,4.6c0.1,0.1,0.1,0.3,0,0.4c0,0.1-0.1,0.2-0.2,0.3c-0.1,0.1-0.2,0.1-0.4,0c-0.1,0-0.2-0.1-0.3-0.2
		c-0.1-0.1-0.1-0.3,0-0.4c0-0.1,0.1-0.2,0.2-0.3c0.1-0.1,0.2-0.1,0.4,0C17.4,4.3,17.5,4.4,17.5,4.6z M17.5,9.5L19,8.6l-1.8-1.5
		L17.5,9.5z"/>
	<path d="M23.1,3.7l3.8,3.2l-0.6-3.7l1-0.2l0.8,5.3l-0.9,0.1l-3.8-3.3L24.1,9l-1,0.2l-0.8-5.3L23.1,3.7z"/>
	<path d="M32,3.3l2.4,4.3l0.7-3.7l1,0.2l-1,5.3l-0.9-0.2l-2.4-4.4l-0.7,3.8l-1-0.2l1-5.3L32,3.3z"/>
	<path d="M42,6.8l-0.7,5.9l-1-0.6l0.2-1.4l-2.1-1.2l-1.1,0.9l-0.9-0.6L41,6.2L42,6.8z M39.1,9l1.5,0.9l0.3-2.3L39.1,9z M41.7,5.5
		c-0.1,0.1-0.2,0.2-0.3,0.2s-0.3,0-0.4,0c-0.1-0.1-0.2-0.2-0.2-0.3s0-0.3,0-0.4c0.1-0.1,0.2-0.2,0.3-0.2s0.3,0,0.4,0.1
		c0.1,0.1,0.2,0.2,0.2,0.3S41.8,5.3,41.7,5.5z M43.3,6.4c-0.1,0.1-0.2,0.2-0.3,0.2s-0.3,0-0.4,0c-0.1-0.1-0.2-0.2-0.2-0.3
		c0-0.1,0-0.3,0-0.4c0.1-0.1,0.2-0.2,0.3-0.2s0.3,0,0.4,0c0.1,0.1,0.2,0.2,0.2,0.3S43.4,6.3,43.3,6.4z"/>
	<path d="M47.3,11c0.4,0.4,0.6,0.8,0.8,1.4L47.4,13c-0.1-0.6-0.4-1.1-0.7-1.4c-0.2-0.2-0.4-0.3-0.5-0.3s-0.3,0-0.4,0.1
		c-0.1,0.1-0.2,0.4-0.1,0.7c0,0.1,0.1,0.4,0.3,0.9s0.2,0.9,0.2,1.2S46,14.8,45.7,15c-0.3,0.3-0.7,0.5-1.2,0.4
		c-0.4,0-0.8-0.3-1.2-0.6c-0.2-0.2-0.4-0.5-0.5-0.7s-0.2-0.5-0.3-0.9l0.7-0.7c0.1,0.7,0.3,1.3,0.6,1.7c0.2,0.2,0.4,0.3,0.5,0.3
		c0.2,0,0.3,0,0.5-0.1C45,14.2,45,14,45,13.7c-0.1-0.2-0.2-0.6-0.3-0.9c-0.2-0.4-0.2-0.8-0.2-1.2s0.2-0.6,0.4-0.8
		c0.3-0.3,0.7-0.4,1.1-0.4C46.5,10.4,46.9,10.6,47.3,11z"/>
</g>
<path d="M24.6,48.8c-0.6-0.1-1.3-0.3-1.9-0.4c-0.4,1.8-0.7,3.5-1.1,5.3c0.3,0.1,0.7,0.1,1,0.2c0.2-0.7,0.3-1.5,0.5-2.2
	c0.1,0,0.2,0.1,0.4,0.1c0.2,0,0.3,0.1,0.4,0.2c0.1,0.1,0.2,0.3,0.3,0.5c0.1,0.2,0.2,0.6,0.4,1.3c0.1,0.3,0.1,0.5,0.2,0.6
	c0.4,0.1,0.8,0.2,1.1,0.2c-0.1-0.3-0.3-0.8-0.4-1.5c-0.1-0.4-0.2-0.7-0.3-0.9c-0.1-0.2-0.2-0.3-0.4-0.5c0.3-0.1,0.6-0.2,0.8-0.4
	c0.2-0.2,0.3-0.4,0.4-0.7c0.1-0.4,0-0.8-0.2-1.2C25.5,49.1,25.1,48.9,24.6,48.8z M24.9,50.5c0,0.2-0.2,0.4-0.3,0.5
	c-0.1,0.1-0.3,0.1-0.4,0.1s-0.2,0-0.3,0c-0.2,0-0.4-0.1-0.7-0.1c0.1-0.5,0.2-1,0.3-1.5c0.2,0,0.4,0.1,0.6,0.1
	c0.3,0.1,0.5,0.2,0.6,0.3C24.9,50,25,50.2,24.9,50.5z"/>
<path d="M30.6,51.7L30.6,51.7c0.2-0.2,0.4-0.3,0.5-0.5s0.2-0.4,0.2-0.7c0-0.4-0.2-0.7-0.5-0.9s-0.7-0.3-1.1-0.3h-0.1
	c-0.7,0-1.3,0-2,0.1c0.1,1.8,0.1,3.6,0.2,5.4c0.8,0,1.5-0.1,2.3-0.1c0.4,0,0.7-0.1,1-0.2c0.3-0.1,0.5-0.3,0.6-0.6
	c0.1-0.2,0.2-0.5,0.2-0.8s-0.1-0.6-0.3-0.9C31.3,51.9,31,51.8,30.6,51.7z M28.7,50.1c0.3,0,0.5,0,0.8,0l0,0c0.2,0,0.4,0.1,0.5,0.2
	c0.2,0.1,0.2,0.3,0.2,0.5s-0.1,0.4-0.2,0.6c-0.2,0.1-0.4,0.2-0.6,0.2s-0.4,0-0.7,0C28.7,51,28.7,50.5,28.7,50.1z M30.5,53.6
	c-0.2,0.1-0.4,0.2-0.8,0.2c-0.3,0-0.6,0-0.9,0c0-0.5,0-1-0.1-1.5c0.3,0,0.7,0,1,0c0,0,0,0,0.1,0c0.3,0,0.5,0.1,0.7,0.2
	c0.2,0.1,0.3,0.3,0.3,0.5C30.8,53.2,30.7,53.4,30.5,53.6z"/>
<path d="M38,48.6c-0.4-0.3-0.8-0.5-1.3-0.6c-0.2,0-0.3,0-0.5,0c-0.3,0-0.7,0.1-1.1,0.2c-0.6,0.2-1,0.5-1.4,0.8s-0.6,0.8-0.7,1.3
	c-0.1,0.5-0.1,1,0.1,1.4c0.2,0.5,0.4,0.9,0.8,1.2c0.4,0.3,0.8,0.5,1.3,0.6c0.2,0,0.3,0,0.5,0c0.3,0,0.7-0.1,1-0.2
	c0.5-0.2,1-0.4,1.3-0.8c0.4-0.4,0.6-0.8,0.7-1.3c0.1-0.5,0.1-1-0.1-1.5C38.6,49.4,38.3,49,38,48.6z M37.7,51.7
	c-0.2,0.4-0.6,0.7-1.1,0.9c-0.2,0.1-0.5,0.1-0.7,0.1c-0.1,0-0.2,0-0.3,0c-0.3-0.1-0.6-0.2-0.9-0.4c-0.2-0.2-0.4-0.5-0.5-0.8
	s-0.1-0.7-0.1-1c0.1-0.3,0.2-0.6,0.4-0.8s0.5-0.4,0.9-0.5c0.2-0.1,0.5-0.1,0.7-0.1c0.1,0,0.2,0,0.3,0c0.3,0.1,0.6,0.2,0.9,0.4
	c0.2,0.2,0.4,0.5,0.5,0.8C37.9,50.7,37.9,51.2,37.7,51.7z"/>
<path d="M28.7,47C38.8,47,47,38.8,47,28.7s-8.2-18.2-18.2-18.2c-10.1,0-18.2,8.2-18.2,18.2S18.7,47,28.7,47z M12.5,35.6
	c-0.5-1.1-0.8-2.2-1-3.3c-0.2-1.2-0.4-2.4-0.4-3.6s0.1-2.4,0.4-3.6c0.2-1.1,0.6-2.3,1-3.3c0.4-1.1,1-2.1,1.6-3s1.4-1.8,2.2-2.6
	c0.8-0.8,1.7-1.5,2.6-2.2c0.9-0.6,2-1.2,3-1.6c1.1-0.5,2.2-0.8,3.3-1c1.2-0.2,2.4-0.4,3.6-0.4s2.4,0.1,3.6,0.4
	c1.1,0.2,2.3,0.6,3.3,1c1.1,0.4,2.1,1,3,1.6s1.8,1.4,2.6,2.2s1.5,1.7,2.2,2.6c0.6,0.9,1.2,2,1.6,3c0.5,1.1,0.8,2.2,1,3.3
	c0.2,1.2,0.4,2.4,0.4,3.6s-0.1,2.4-0.4,3.6c-0.2,1.1-0.6,2.3-1,3.3c-0.4,1.1-1,2.1-1.6,3s-1.4,1.8-2.2,2.6s-1.7,1.5-2.6,2.2
	c-0.9,0.6-2,1.2-3,1.6c-1.1,0.5-2.2,0.8-3.3,1c-1.2,0.2-2.4,0.4-3.6,0.4s-2.4-0.1-3.6-0.4c-1.1-0.2-2.3-0.6-3.3-1
	c-1.1-0.4-2.1-1-3-1.6s-1.8-1.4-2.6-2.2c-0.8-0.8-1.5-1.7-2.2-2.6C13.4,37.7,12.9,36.7,12.5,35.6z"/>
<path d="M28.7,0.4C13.1,0.4,0.4,13.1,0.4,28.7S13.1,57,28.7,57S57,44.3,57,28.7C57.1,13.1,44.4,0.4,28.7,0.4z M28.7,56.5
	C13.4,56.5,1,44.1,1,28.7C1,13.4,13.4,1,28.7,1s27.8,12.5,27.8,27.8S44.1,56.5,28.7,56.5z"/>
<path d="M40.3,29.5c0-0.1,0-0.2,0-0.2c0-0.3-0.3-1.1-0.3-1.2s0-0.2,0-0.3c0-0.1,0-0.3,0-0.5c0-0.1-0.4-1.4-0.4-1.5s0-0.1,0-0.2
	c0.1-0.1,0.1-0.2,0.1-0.3c0-0.1,0-0.2-0.1-0.4c-0.1-0.2-0.1-0.5-0.3-0.7c-0.1-0.2-0.4-0.3-0.6-0.4c-0.1-0.1-0.3-0.1-0.4-0.1
	c-0.1,0-0.3,0-0.4-0.1c-0.1,0-0.2-0.2-0.3-0.3c-0.1-0.1-0.1-0.2-0.2-0.2c-0.1,0-0.2,0-0.3-0.1s-0.2-0.2-0.2-0.3
	c-0.2-0.2-0.3-0.4-0.5-0.6s-0.4-0.3-0.6-0.5c-0.2-0.1-0.3-0.2-0.5-0.3c-0.2-0.1-0.4-0.2-0.7-0.3c-0.1-0.1-0.2-0.1-0.4-0.2
	c-0.1-0.1-0.4,0.5-0.3,0.5c0.1,0.1,0.2,0.1,0.3,0.2c0.2,0.1,0.4,0.2,0.6,0.4l0.1,0.1c0,0,0,0.1,0.1,0.1s0.2,0,0.3,0
	c0.1,0.1,0.1,0.1,0.2,0.2c0.1,0.1,0.2,0.1,0.3,0.2c0,0.1,0,0.2,0.1,0.2H36l0.1,0.1c0.1,0.1,0.2,0.2,0.2,0.3c0.1,0.1,0,0.2,0.1,0.3
	c0.1,0.1,0.2,0,0.2,0.2c0,0.1,0,0.2,0.1,0.3c0.1,0.1,0.1,0.2,0.2,0.3c0.1,0.1,0.1,0.2,0.2,0.3c0.1,0.1,0.1,0.2,0,0.3
	c-0.1,0.1-0.2,0.2-0.2,0.3c-0.1,0.1-0.2,0.2-0.2,0.3c0,0.1-0.2,0.2-0.1,0.3c0,0.1,0,0.1,0,0.2s0,0.1,0,0.2s0,0.3,0,0.4
	c0,0.3,0,0.6,0.1,0.8c0,0.2,0,0.5,0.2,0.6s0.5,0.1,0.8,0.1s0.5-0.1,0.8-0.1c0.1,0,0.1,0,0.2,0l0.1,0.1c0.1,0.1,0.1,0.2,0.1,0.3
	c0.1,0.3,0.3,1,0.3,1.2c0,0.1,0.1,0.2,0.2,0.2c0.8,3.1,2.4,5.9,0.7,9c-0.5,0.8-1.7,2.6-3.2,2c-0.7-0.3,0-2.5,0.5-4.4
	c0.4-1.7,0.8-5.4-0.6-7.1c-0.7-0.9-1.9-1.3-3.4-1.4v-0.3l-0.4,0v-0.7c0-0.4,0.3-0.5,0.6-0.8c0,0,0.5-0.3,0.3-0.8c0-0.2,0-0.2,0-0.2
	c-0.1-0.2-0.3-0.6-0.4-1l-0.1-0.5c-0.1-0.4-0.1-0.8-0.1-1c0,0,0,0-0.1-0.1s-0.1-0.1-0.1-0.1c-0.1,0-0.2-0.3-0.2-0.7v-2
	c0-0.4-0.3-0.6-0.8-0.8c0,0-0.8-0.3-4-0.3v-0.1c0.8-0.2,1.5-0.8,1.9-1.6c0-0.1,0.1-0.2,0.2-0.2c0.2-0.1,0.2-0.2,0.3-0.4
	c0.1-0.4,0.1-0.9,0-1.3c0-0.2,0-0.4-0.3-0.5c-0.1,0-0.2-0.1-0.2-0.3c-0.6-1.2-1.9-1.9-3.2-1.7c-1.1,0.2-1.9,0.8-2.3,1.7
	c0,0.1-0.1,0.1-0.2,0.2c-0.2,0.1-0.2,0.2-0.3,0.4c-0.2,0.6-0.1,1.4,0,1.5c0,0.2,0.2,0.3,0.3,0.4c0.1,0.1,0.2,0.1,0.2,0.2
	c0.4,0.8,1,1.3,1.8,1.6v0.1c-3.2,0-4,0.3-4,0.3c-0.4,0.1-0.8,0.4-0.8,0.8v10.2c0,0.4,0.8,11.4,0.9,13.5h0.2c0,0.3,0.2,0.7,0.2,0.7
	h8.6c0,0,0.2-0.5,0.2-0.7h0.2c0.1-2.1,0.9-13.4,0.9-13.5s0-0.6,0-0.6l0.6-0.2v-0.2c1.2,0.1,2.1,0.5,2.7,1.1c1.1,1.1,0.8,4.6,0.3,6.3
	c-0.6,2.4-1.1,4.3-0.3,5.2c0.3,0.3,0.6,0.4,1.1,0.4c1.6,0,2.8-1.5,3.4-2.6C42.8,35.8,41.1,32.6,40.3,29.5z M37.5,27.5L37.5,27.5
	h-0.2c-0.1,0-0.2-0.1-0.2-0.2C37,27.2,37,27,37,26.8s0-0.4,0-0.6s0-0.3,0.1-0.5c0.1-0.1,0.2-0.2,0.4-0.2c0.1,0,0.1,0.1,0.2,0.1
	c0.1,0,0.1,0.1,0.1,0.1c0,0.1,0,0.1,0,0.2s0.1,0.1,0.1,0.2c0,0.2,0,0.4,0,0.6c0,0.1,0,0.2,0,0.3c0,0.1,0,0.2,0,0.2
	C37.8,27.5,37.6,27.5,37.5,27.5z M38.5,27.5c-0.1,0-0.2,0-0.3,0s-0.1,0-0.1,0c0-0.1,0-0.1,0-0.2s0.1-0.1,0-0.1H38c0,0,0-0.1,0-0.2
	c0-0.2,0-0.4,0-0.6s0-0.4,0-0.6c0-0.1-0.1-0.2,0.1-0.2c0.2,0,0.2,0.3,0.2,0.5s0.1,0.4,0.2,0.6c0,0.2,0.1,0.4,0.1,0.6
	C38.7,27.4,38.7,27.5,38.5,27.5z M24.5,16.4c-0.1,0-0.2-0.1-0.2-0.3c-0.1-0.5-0.1-1,0-1.5c0-0.1,0.1-0.2,0.2-0.3s0.2-0.1,0.2-0.2
	c0.5-1.1,1.4-1.7,2.7-1.7c1.3,0,2.2,0.6,2.7,1.8c0,0.1,0.1,0.1,0.2,0.2c0.2,0.1,0.2,0.2,0.3,0.3c0.1,0.5,0.1,0.9,0,1.4
	c0,0.2-0.1,0.3-0.3,0.3c-0.1,0-0.2,0.1-0.2,0.2c-0.4,0.8-1,1.4-1.8,1.6c-0.3,0.1-0.6,0.1-0.9,0.1s-0.6,0-0.9-0.1
	c-0.8-0.2-1.4-0.8-1.8-1.6C24.7,16.6,24.6,16.4,24.5,16.4z M30.7,27.8c0,0.2-0.2,0.4-0.4,0.4h-5.8c-0.2,0-0.4-0.2-0.4-0.4v-5.3
	c0-0.2,0.2-0.4,0.4-0.4h5.8c0.2,0,0.4,0.2,0.4,0.4C30.7,22.5,30.7,27.8,30.7,27.8z M32.7,29.6c0,0.3-0.5,8.4-0.8,13.4h-0.1
	c0.2-5.1,0.6-13.2,0.6-13.4V20c0-0.2-0.2-0.3-0.5-0.4h-0.1c0,0-0.9-0.3-4.5-0.3s-4.5,0.3-4.5,0.3h-0.1c-0.2,0.1-0.5,0.2-0.5,0.4v9.6
	c0,0.3,0.4,8.4,0.6,13.4h-0.1c-0.2-5.1-0.8-13.2-0.8-13.4v-9.9c0-0.2,0.3-0.4,0.5-0.5l0,0c0,0,1.1-0.3,4.7-0.3
	c3.7,0,4.7,0.3,4.7,0.3l0,0c0.3,0.1,0.5,0.3,0.5,0.5v9.9H32.7z"/>
<g>
	<path d="M27.4,16.7c-0.8,0-1.6-0.1-2.5-0.2l0,0l0,0c0.2,0.6,0.9,1.3,1.9,1.5c0.2,0,0.4,0.1,0.6,0.1s0.4,0,0.6-0.1
		c0.9-0.2,1.7-0.9,1.9-1.5v-0.1c0,0,0,0-0.1,0C29,16.6,28.2,16.7,27.4,16.7z"/>
	<path d="M29.9,14.3C29.9,14.2,29.9,14.2,29.9,14.3c-0.3-0.8-1.3-1.7-2.6-1.7c-1.2,0-2.1,0.9-2.4,1.6l0,0l0,0
		C26.6,14,28.2,14,29.9,14.3L29.9,14.3z"/>
	<path d="M25.5,15.6c0.1,0,0.2,0,0.3,0c0,0.1,0,0.3-0.2,0.3c-0.3,0.1-0.5-0.1-0.6-0.3c-0.1-0.3,0.1-0.6,0.3-0.7
		c0.2-0.1,0.5,0,0.7,0.1c0-0.3,0-0.3-0.3-0.4c-0.2,0-0.3,0-0.5,0c-0.6,0-1,0.6-0.8,1.2c0.1,0.4,0.5,0.5,1,0.5c0.2,0,0.4,0,0.6,0
		c0.1,0,0.1,0,0.2,0c0-0.3,0-0.6,0-0.9c-0.3,0-0.5,0-0.8,0C25.5,15.4,25.5,15.5,25.5,15.6z"/>
	<path d="M27.6,15.8v0.1c-0.2,0.1-0.4,0-0.4-0.2c0-0.1,0-0.3,0-0.4c-0.2,0-0.3,0-0.5,0c0,0.2,0,0.3,0,0.5c0,0.3,0.1,0.4,0.4,0.4
		s0.7,0,1-0.1c0-0.3,0-0.6,0-0.9c-0.2,0-0.3,0-0.5,0C27.6,15.5,27.6,15.6,27.6,15.8z"/>
	<path d="M30.1,15.6c0.1,0,0.1,0,0.2,0c0-0.1,0-0.2,0-0.3c-0.1,0-0.1,0-0.2,0c0-0.3,0-0.3,0.3-0.2c0-0.3,0-0.3-0.3-0.4l0,0
		c-0.4-0.1-0.5,0-0.4,0.4c0,0.2,0,0.3-0.2,0.3c0,0.1,0,0.2,0,0.3c0.1,0,0.1,0,0.2,0c0,0.2,0,0.4,0,0.5c0.2,0,0.3,0,0.5,0
		C30.1,16,30.1,15.8,30.1,15.6z"/>
	<path d="M28.5,16.1c0.2,0,0.3,0,0.5,0c0-0.5,0-1,0-1.5c-0.2,0-0.3,0-0.5,0C28.5,15.2,28.5,15.7,28.5,16.1z"/>
</g>
</svg>
