<?xml version="1.0" encoding="UTF-8"?><svg id="Lager_1" xmlns="http://www.w3.org/2000/svg" width="20.2847mm" height="20.2847mm" viewBox="0 0 57.5 57.5"><defs><style>.cls-1{fill:none;}.cls-2{fill:#151514;}</style></defs><path d="M51.61,26.0116c.0629,0,.1273-.0055,.1927-.0167,.2949-.0501,.5269-.1953,.6952-.436,.1683-.2399,.2272-.5057,.1779-.7949-.0502-.2979-.1953-.5309-.4341-.699-.185-.1298-.3855-.1953-.6016-.1953-.064,0-.1293,.0057-.196,.0172-.295,.0494-.5271,.1943-.6971,.4323-.1701,.2378-.2301,.5057-.1788,.8035,.0492,.2919,.1953,.523,.437,.6922,.1872,.131,.3889,.1965,.605,.1965Z"/><polygon class="cls-1" points="7.5411 39.563 9.0928 37.8312 6.8033 37.9821 7.5411 39.563"/><path class="cls-1" d="M37.2306,49.3653c-.2417-.2233-.5269-.3636-.8537-.4225-.1118-.0202-.2247-.0303-.339-.0303-.2199,0-.4443,.0374-.6734,.1125-.3481,.1132-.6372,.2911-.8664,.5328-.2281,.2417-.3731,.5221-.4351,.8422-.0609,.3191-.0348,.6508,.0765,.994,.1112,.3403,.2891,.6218,.5318,.8431,.2437,.2224,.5269,.3625,.8517,.4216,.1121,.0207,.2256,.0309,.3406,.0309,.218,0,.4409-.0372,.6689-.1112,.527-.1722,.906-.4797,1.1371-.9215,.232-.4409,.262-.9233,.0919-1.4456-.1112-.3403-.2882-.6226-.5309-.8461Z"/><path d="M5.7117,25.8751c.0692,.012,.1368,.018,.2029,.018,.2157,0,.4152-.064,.5987-.192,.2397-.1683,.3857-.4003,.4381-.6973,.0502-.2928-.0098-.5588-.1818-.7996-.1711-.2397-.4014-.3857-.6913-.436-.068-.0118-.1345-.0176-.1995-.0176-.217,0-.4174,.0656-.6011,.1966-.2388,.1702-.384,.4003-.4341,.6904-.0513,.2968,.0078,.5648,.1769,.8035,.1692,.2388,.3994,.3839,.6913,.4341Z"/><polygon points="8.9247 34.1726 5.2349 33.3749 8.3484 31.2113 8.1376 30.1294 3.2373 33.5943 3.3061 33.951 9.1345 35.2467 8.9247 34.1726"/><path d="M11.6552,37.3362c-.0616-.0225-.1223-.0338-.1819-.0338-.0713,0-.1412,.0162-.2097,.0483-.1314,.061-.2194,.1595-.2659,.2948-.0464,.1354-.0406,.265,.0175,.3887,.059,.1267,.1556,.2137,.291,.2631,.0617,.0225,.1224,.0336,.1821,.0336,.0714,0,.1416-.016,.2106-.0482,.1238-.057,.2098-.1556,.259-.2938,.0494-.1384,.0455-.2679-.0106-.3897-.059-.1257-.1567-.2137-.2921-.263Z"/><path d="M9.9128,36.8547l-5.8381,.2668,.4632,.9921,1.4127-.0832,1.0161,2.1766-.9542,1.0645,.466,.9979,3.8859-4.4478-.4515-.9669Zm-2.3718,2.7083l-.7377-1.5809,2.2895-.1509-1.5518,1.7318Z"/><path d="M10.5055,36.5696c.0626,.0209,.1233,.0314,.1819,.0314,.0709,0,.1388-.0153,.204-.0461,.1237-.0571,.2108-.1545,.261-.2919,.0492-.1373,.0453-.2688-.0135-.3946-.058-.1237-.1556-.2126-.293-.2649-.064-.025-.127-.0374-.1888-.0374-.07,0-.1385,.0158-.2056,.047-.1287,.06-.2156,.1586-.2621,.2969-.0464,.1382-.0406,.2698,.0175,.3936,.0609,.1305,.1605,.2195,.2987,.266Z"/><path d="M13.5106,43.0186c-.1005-.5444-.3161-1.0219-.6458-1.4318-.348-.4313-.733-.6943-1.1544-.7881-.1049-.0236-.2078-.0353-.3086-.0353-.304,0-.5887,.1071-.8537,.3206-.265,.2137-.4321,.4835-.5009,.8083-.0696,.3258-.0454,.7146,.0706,1.1671,.09,.3877,.1586,.7088,.2041,.963,.0493,.3114-.0242,.5455-.2185,.703-.0981,.0783-.2059,.1176-.3235,.1176-.0538,0-.1097-.0082-.1677-.0247-.1857-.0533-.3578-.179-.5182-.3781-.3201-.3973-.4747-.9717-.4631-1.722-.2672,.2149-.5345,.4299-.8016,.6449,.0494,.3577,.1228,.6565,.2194,.8983,.0968,.2416,.2534,.4969,.471,.7657,.3327,.414,.7145,.6614,1.1457,.7426,.0946,.0178,.1875,.0266,.2786,.0266,.3254,0,.629-.1135,.9108-.3408,.2794-.2253,.4573-.4941,.5326-.8064,.0765-.3123,.0562-.7078-.0588-1.1835-.1401-.553-.2147-.8751-.2234-.9679-.0386-.3229,.0213-.5483,.1808-.6759,.0893-.0723,.1874-.1082,.2946-.1082,.0518,0,.1057,.0085,.1619,.0252,.1731,.0513,.3413,.1798,.5067,.3847,.2717,.3375,.4515,.8297,.5386,1.4775,.241-.1941,.4819-.388,.7231-.5822Z"/><polygon points="17.9623 46.3448 14.1334 43.3173 13.6276 43.9576 15.1322 45.1479 12.2876 48.7456 13.1066 49.3934 15.9512 45.7946 17.4556 46.9849 17.9623 46.3448"/><polygon points="21.3985 48.8374 21.7439 48.0978 18.5791 46.6203 16.2934 51.5166 19.5074 53.0163 19.8525 52.2777 17.5851 51.2189 18.235 49.8276 20.3582 50.8187 20.7034 50.079 18.5801 49.0879 19.1805 47.8019 21.3985 48.8374"/><polygon points="42.6868 45.0502 42.2294 44.3743 38.1849 47.1058 38.6422 47.7826 40.2319 46.7084 42.799 50.5091 43.6644 49.9252 41.0972 46.1243 42.6868 45.0502"/><polygon points="46.3842 40.9543 45.7712 40.4167 42.5533 44.087 43.1674 44.6247 44.4321 43.1821 47.8809 46.2065 48.5694 45.4213 45.1205 42.397 46.3842 40.9543"/><polygon points="50.6125 41.0549 49.2568 40.3346 50.3572 38.2654 49.6369 37.8815 48.5365 39.9517 47.2834 39.2855 48.4321 37.1235 47.7118 36.7406 46.0729 39.8241 50.8436 42.3602 52.5076 39.2284 51.7872 38.8456 50.6125 41.0549"/><polygon points="48.3712 34.8968 48.1681 35.7911 53.4376 36.9852 53.6629 35.9894 49.9259 35.1424 54.3775 32.8401 54.5758 31.9646 49.3072 30.7696 49.0809 31.7654 52.758 32.6003 48.3712 34.8968"/><g><path d="M9.8257,11.4276l3.5146,1.4214-1.3516-3.5249,.7842-.7632,2.1055,5.5864-.2607,.2539-5.582-2.2046,.79-.769Z"/><path d="M15.8384,5.4481c.0615,.1162,.0732,.2446,.0342,.3853s-.1221,.2446-.249,.3125c-.1211,.0645-.252,.0771-.3916,.0381-.1406-.0391-.2451-.1211-.3115-.2461-.0654-.123-.0752-.2539-.0303-.3936s.1279-.2417,.249-.3062c.123-.0654,.2539-.0767,.3936-.0347,.1396,.0425,.2412,.124,.3057,.2446Zm1.293,.459l4.6475,3.6445-.9727,.5186-1.1133-.896-2.1191,1.1299,.1582,1.4062-.9658,.5151-.5771-5.8159,.9424-.5024Zm.3896-1.356c.0654,.1226,.0771,.2529,.0352,.3906-.042,.1382-.124,.2397-.2471,.3052-.1211,.0645-.25,.0771-.3877,.0376-.1377-.0386-.2402-.1221-.3086-.2495-.0654-.1226-.0771-.2529-.0352-.3911,.042-.1377,.124-.2393,.2471-.3047,.1182-.063,.248-.0737,.3887-.0317,.1406,.0415,.2432,.123,.3076,.2437Zm-.041,4.9043l1.5391-.8208-1.8115-1.4575,.2725,2.2783Z"/><path d="M23.1372,3.6888l3.7559,3.2285-.584-3.7256,1.0088-.1582,.8359,5.3379-.8857,.1392-3.7842-3.2866,.5928,3.7866-1.0078,.1577-.8369-5.3379,.9053-.1416Z"/><path d="M32.0195,3.2782l2.4326,4.3135,.7188-3.7021,1.0029,.1948-1.0303,5.3037-.8809-.1709-2.4395-4.3779-.7305,3.7627-1.002-.1948,1.0293-5.3037,.8994,.1748Z"/><path d="M41.9805,6.805l-.6523,5.8701-.9531-.5542,.1758-1.4185-2.0762-1.2075-1.1123,.8745-.9463-.5503,4.6416-3.5508,.9229,.5366Zm-2.833,2.1641l1.5078,.877,.2861-2.3081-1.7939,1.4312Zm2.5439-3.5049c-.0664,.1138-.1699,.1909-.3096,.2319-.1396,.0405-.2725,.0249-.3975-.0479-.1182-.0688-.1973-.1729-.2383-.313s-.0254-.2715,.0459-.394c.0693-.1206,.1758-.1982,.3184-.2329,.1426-.0352,.2734-.0181,.3916,.0508,.1201,.0698,.1992,.1753,.2363,.3164s.0215,.2705-.0469,.3887Zm1.6484,.9585c-.0703,.1201-.1748,.1987-.3145,.2358-.1387,.0366-.2686,.02-.3896-.0498-.1182-.0688-.1963-.1719-.2354-.3096-.04-.1377-.0234-.269,.0498-.3936,.0703-.1206,.1748-.1992,.3135-.2358,.1396-.0371,.2695-.0205,.3896,.0498,.1162,.0674,.1934,.1719,.2314,.3135s.0234,.2715-.0449,.3896Z"/><path d="M47.3105,11.0028c.3643,.3799,.6201,.8364,.7666,1.3706l-.6699,.6416c-.1436-.6377-.3643-1.1128-.6641-1.4258-.1816-.1899-.3613-.3032-.5371-.3398s-.3252,.0039-.4482,.1216c-.1475,.1411-.1875,.3711-.1221,.6895,.0166,.0918,.1182,.4067,.3057,.9448,.1553,.4648,.209,.8564,.1602,1.1743-.0488,.3184-.2021,.6011-.4609,.8491-.3359,.3208-.7217,.4595-1.1582,.4155-.4365-.0444-.8389-.2583-1.2061-.6416-.2393-.2495-.417-.4907-.5342-.7227-.1172-.2324-.2158-.5244-.2959-.8765l.7432-.7114c.0527,.7485,.2559,1.3076,.6094,1.6763,.1768,.1841,.3594,.2949,.5479,.3315,.1895,.0371,.3496-.0078,.4814-.1343,.1807-.1729,.2334-.4126,.1582-.7188-.0674-.2495-.1631-.5635-.2861-.9419-.1543-.4409-.2119-.8267-.1709-1.1567s.1846-.6128,.4307-.8481c.3271-.314,.7051-.4419,1.1338-.3843,.4277,.0576,.834,.2866,1.2168,.687Z"/></g><path class="cls-1" d="M30.0456,51.2547c.1548-.1373,.2281-.3231,.2194-.5579-.0076-.2089-.0869-.3713-.2387-.4882-.1405-.1089-.3203-.1635-.537-.1635l-.049,.0009c-.2502,.0091-.5003,.0181-.7504,.0272,.0175,.4755,.0349,.9508,.0524,1.4263,.2188-.0077,.4376-.0156,.6564-.0233,.2766-.0107,.4912-.084,.6469-.2214Z"/><path class="cls-1" d="M29.828,52.2782c-.0245,0-.0492,.0005-.0745,.0015-.3271,.0119-.6543,.0239-.9814,.0358,.0183,.5089,.0366,1.0178,.0551,1.5267l.9012-.0329c.353-.0135,.6168-.0889,.7929-.2282,.175-.1393,.2581-.3384,.2484-.5956-.0076-.2292-.1044-.407-.2881-.5337-.1683-.1151-.3862-.1735-.6536-.1735Z"/><path class="cls-1" d="M24.2055,49.5559c-.2125-.0432-.4248-.0864-.6372-.1296-.1006,.4911-.2012,.9824-.3017,1.4735,.2172,.0445,.4345,.0889,.6517,.1334,.0933,.0192,.1814,.0288,.2641,.0288,.1546,0,.2908-.0336,.4079-.1003,.1808-.1025,.2939-.2698,.3424-.5027,.0492-.2428,.0106-.439-.1161-.5898-.1276-.1509-.3307-.2552-.611-.3132Z"/><path class="cls-1" d="M28.7495,.9643C13.4292,.9643,.964,13.4284,.964,28.7487s12.4651,27.785,27.7855,27.785,27.7844-12.4642,27.7844-27.785S44.0698,.9643,28.7495,.9643Zm-.0005,9.5419c10.0751,0,18.2434,8.1679,18.2434,18.243s-8.1683,18.2424-18.2434,18.2424S10.5065,38.8243,10.5065,28.7492,18.6739,10.5062,28.7489,10.5062ZM11.9578,37.9889c-.0492,.1382-.1353,.2368-.259,.2938-.069,.0322-.1392,.0482-.2106,.0482-.0597,0-.1204-.0112-.1821-.0336-.1354-.0494-.2321-.1364-.291-.2631-.0581-.1238-.0638-.2533-.0175-.3887,.0465-.1353,.1345-.2338,.2659-.2948,.0685-.0321,.1384-.0483,.2097-.0483,.0597,0,.1203,.0113,.1819,.0338,.1354,.0493,.2331,.1373,.2921,.263,.0561,.1218,.06,.2513,.0106,.3897Zm-1.7684-2.0789c.0464-.1382,.1334-.2369,.2621-.2969,.0671-.0312,.1356-.047,.2056-.047,.0619,0,.1248,.0124,.1888,.0374,.1373,.0522,.235,.1412,.293,.2649,.0589,.1258,.0627,.2573,.0135,.3946-.0503,.1373-.1373,.2348-.261,.2919-.0652,.0308-.1331,.0461-.204,.0461-.0586,0-.1193-.0105-.1819-.0314-.1382-.0465-.2379-.1355-.2987-.266-.058-.1238-.0639-.2554-.0175-.3936Zm-4.9118-11.9629c.1838-.131,.3842-.1966,.6011-.1966,.065,0,.1315,.0059,.1995,.0176,.29,.0503,.5202,.1964,.6913,.436,.172,.2408,.2321,.5068,.1818,.7996-.0524,.2969-.1984,.5289-.4381,.6973-.1835,.128-.383,.192-.5987,.192-.066,0-.1337-.006-.2029-.018-.2919-.0503-.5221-.1953-.6913-.4341-.1692-.2387-.2282-.5067-.1769-.8035,.0502-.2901,.1953-.5202,.4341-.6904Zm-2.0402,9.6472l4.9003-3.465,.2108,1.082-3.1135,2.1635,3.6898,.7977,.2098,1.0742-5.8284-1.2957-.0687-.3567Zm2.7751,7.6771l.9542-1.0645-1.0161-2.1766-1.4127,.0832-.4632-.9921,5.8381-.2668,.4515,.9669-3.8859,4.4478-.466-.9979Zm5.7298,.4671c-.0562-.0167-.1101-.0252-.1619-.0252-.1071,0-.2053,.0359-.2946,.1082-.1595,.1276-.2194,.353-.1808,.6759,.0087,.0928,.0833,.4149,.2234,.9679,.115,.4756,.1353,.8712,.0588,1.1835-.0753,.3123-.2532,.5811-.5326,.8064-.2818,.2274-.5854,.3408-.9108,.3408-.0911,0-.184-.0088-.2786-.0266-.4312-.0812-.813-.3286-1.1457-.7426-.2176-.2688-.3742-.524-.471-.7657-.0966-.2418-.17-.5405-.2194-.8983,.2672-.215,.5344-.43,.8016-.6449-.0116,.7502,.143,1.3246,.4631,1.722,.1604,.1992,.3326,.3248,.5182,.3781,.058,.0164,.1139,.0247,.1677,.0247,.1176,0,.2253-.0392,.3235-.1176,.1943-.1575,.2678-.3916,.2185-.703-.0455-.2542-.1141-.5753-.2041-.963-.116-.4525-.1402-.8412-.0706-1.1671,.0687-.3248,.2359-.5947,.5009-.8083,.265-.2134,.5497-.3206,.8537-.3206,.1008,0,.2037,.0118,.3086,.0353,.4214,.0939,.8064,.3568,1.1544,.7881,.3297,.4099,.5453,.8875,.6458,1.4318-.2411,.1942-.4821,.3881-.7231,.5822-.0872-.6478-.2669-1.14-.5386-1.4775-.1653-.2049-.3336-.3334-.5067-.3847Zm1.3643,7.6548l-.819-.6478,2.8447-3.5977-1.5046-1.1903,.5058-.6403,3.8289,3.0275-.5067,.6401-1.5044-1.1903-2.8447,3.5988Zm7.5969,.6855l-.3452,.7397-2.1232-.9911-.6498,1.3913,2.2673,1.0588-.345,.7386-3.214-1.4996,2.2856-4.8964,3.1648,1.4775-.3453,.7397-2.218-1.0355-.6005,1.2859,2.1234,.9911Zm5.2899,.5772c-.0619,.3007-.1924,.5472-.3934,.7387-.2012,.1924-.468,.321-.8006,.3878,.1508,.1247,.2756,.2793,.3751,.4631,.0996,.1838,.2088,.4806,.3268,.8916,.1924,.7087,.3413,1.1988,.4486,1.4736-.3802-.0778-.7606-.1555-1.1409-.2332-.0543-.1323-.1219-.3392-.2042-.6215-.1778-.6237-.3141-1.0473-.4108-1.2706-.0967-.2242-.1993-.3896-.3086-.4979-.1102-.1074-.2465-.1789-.4109-.2118l-.3712-.0763c-.1525,.7451-.3049,1.4902-.4574,2.2354-.341-.0696-.682-.1393-1.0229-.2089,.3609-1.7646,.7219-3.5292,1.0829-5.2937,.6353,.1298,1.2704,.2596,1.9057,.3896,.498,.1025,.8751,.3229,1.1322,.6622,.2563,.3395,.3404,.7302,.2495,1.172Zm5.6535,3.1888c-.144,.2418-.35,.4264-.6179,.5549-.2679,.1286-.5859,.1993-.9543,.2128-.7536,.0278-1.5071,.0555-2.2606,.0832-.0659-1.8-.1317-3.6002-.1974-5.4001,.6597-.0239,1.3195-.0477,1.9794-.0715,.0341-.0013,.0679-.002,.1012-.002,.4489,0,.8232,.1147,1.1219,.3443,.3221,.2457,.4893,.5627,.5037,.9486,.0087,.2474-.0483,.4678-.1722,.6603-.1226,.1934-.3063,.349-.5491,.4689l.001,.0464c.38,.0715,.6787,.2291,.8983,.4728,.2184,.2438,.3344,.5338,.347,.8712,.0107,.2987-.0561,.5696-.201,.8103Zm7.2034-2.5101c-.1121,.4913-.3461,.9206-.7029,1.2869-.3557,.3676-.8035,.6392-1.343,.8151-.352,.1153-.6995,.1729-1.0422,.1729-.1749,0-.3487-.0151-.5213-.0452-.5096-.0881-.9524-.2939-1.3266-.6179-.3741-.325-.6411-.73-.8005-1.2183-.1529-.4708-.1761-.9524-.0687-1.4456,.1074-.4941,.3364-.9244,.6884-1.2927s.8045-.643,1.3585-.8237c.3635-.119,.719-.1783,1.0663-.1783,.1607,0,.3196,.0127,.4767,.038,.4972,.0803,.9389,.2863,1.3267,.6169,.3869,.3307,.6614,.7426,.8219,1.2347,.1567,.4805,.1789,.9659,.0667,1.457Zm3.9489-.8257l-2.5671-3.8008-1.5897,1.0743-.4573-.6768,4.0445-2.7316,.4574,.6759-1.5896,1.0742,2.5671,3.8009-.8654,.5839Zm5.0819-4.3027l-3.4489-3.0244-1.2646,1.4426-.6141-.5377,3.2178-3.6703,.613,.5376-1.2637,1.4426,3.449,3.0244-.6885,.7852Zm2.9626-3.8463l-4.7707-2.5361,1.6389-3.0834,.7203,.3828-1.1487,2.162,1.2532,.6662,1.1003-2.0702,.7203,.3839-1.1003,2.0692,1.3557,.7203,1.1747-2.2093,.7204,.3829-1.664,3.1318Zm-.0967-18.0408c.17-.2379,.4022-.3829,.6971-.4323,.0667-.0115,.132-.0172,.196-.0172,.2161,0,.4166,.0654,.6016,.1953,.2389,.1681,.3839,.4011,.4341,.699,.0494,.2891-.0096,.5549-.1779,.7949-.1683,.2407-.4003,.3859-.6952,.436-.0654,.0112-.1298,.0167-.1927,.0167-.2161,0-.4178-.0655-.605-.1965-.2417-.1692-.3878-.4003-.437-.6922-.0513-.2978,.0087-.5657,.1788-.8035Zm-1.4397,6.4502l5.2686,1.195-.1982,.8755-4.4516,2.3023,3.737,.847-.2253,.9958-5.2695-1.1942,.2031-.8943,4.3868-2.2964-3.6771-.8349,.2263-.9958Z"/><path d="M24.6116,48.8219c-.6353-.1299-1.2704-.2598-1.9057-.3896-.361,1.7645-.722,3.5291-1.0829,5.2937,.3409,.0695,.6819,.1393,1.0229,.2089,.1525-.7452,.3049-1.4904,.4574-2.2354l.3712,.0763c.1645,.0329,.3008,.1044,.4109,.2118,.1093,.1083,.2119,.2737,.3086,.4979,.0966,.2233,.233,.6469,.4108,1.2706,.0823,.2823,.1499,.4892,.2042,.6215,.3803,.0778,.7606,.1555,1.1409,.2332-.1073-.2748-.2562-.7649-.4486-1.4736-.118-.411-.2272-.7078-.3268-.8916-.0995-.1838-.2244-.3384-.3751-.4631,.3326-.0667,.5994-.1954,.8006-.3878,.201-.1915,.3315-.438,.3934-.7387,.0909-.4418,.0068-.8325-.2495-1.172-.2571-.3393-.6342-.5598-1.1322-.6622Zm.3212,1.637c-.0485,.233-.1616,.4002-.3424,.5027-.1171,.0667-.2533,.1003-.4079,.1003-.0827,0-.1708-.0096-.2641-.0288-.2172-.0445-.4344-.0889-.6517-.1334,.1005-.4911,.2011-.9824,.3017-1.4735,.2124,.0432,.4247,.0864,.6372,.1296,.2803,.058,.4834,.1624,.611,.3132,.1267,.1509,.1653,.347,.1161,.5898Z"/><path d="M30.6025,51.6908l-.001-.0464c.2429-.1199,.4265-.2755,.5491-.4689,.1239-.1924,.1809-.4128,.1722-.6603-.0144-.3859-.1816-.7029-.5037-.9486-.2987-.2296-.673-.3443-1.1219-.3443-.0333,0-.0671,.0007-.1012,.002-.6599,.0239-1.3196,.0477-1.9794,.0715,.0657,1.8,.1315,3.6002,.1974,5.4001,.7535-.0277,1.507-.0554,2.2606-.0832,.3683-.0135,.6864-.0842,.9543-.2128,.2678-.1285,.4738-.3131,.6179-.5549,.145-.2407,.2117-.5116,.201-.8103-.0126-.3374-.1286-.6274-.347-.8712-.2196-.2437-.5183-.4012-.8983-.4728Zm-1.9126-1.6177c.2501-.009,.5002-.0181,.7504-.0272l.049-.0009c.2167,0,.3965,.0546,.537,.1635,.1518,.1169,.2311,.2794,.2387,.4882,.0087,.2348-.0646,.4206-.2194,.5579-.1556,.1374-.3703,.2108-.6469,.2214-.2188,.0077-.4376,.0156-.6564,.0233-.0175-.4755-.0349-.9508-.0524-1.4263Zm1.8314,3.5079c-.1761,.1393-.4399,.2147-.7929,.2282l-.9012,.0329c-.0184-.5089-.0367-1.0178-.0551-1.5267,.3271-.0118,.6543-.0239,.9814-.0358,.0253-.001,.05-.0015,.0745-.0015,.2673,0,.4853,.0584,.6536,.1735,.1838,.1267,.2805,.3044,.2881,.5337,.0097,.2573-.0734,.4564-.2484,.5956Z"/><path d="M37.9615,48.6431c-.3878-.3307-.8295-.5366-1.3267-.6169-.1571-.0253-.316-.038-.4767-.038-.3474,0-.7028,.0593-1.0663,.1783-.554,.1807-1.0065,.4554-1.3585,.8237s-.5811,.7986-.6884,1.2927c-.1074,.4932-.0842,.9747,.0687,1.4456,.1594,.4882,.4263,.8933,.8005,1.2183,.3742,.3239,.817,.5298,1.3266,.6179,.1726,.0301,.3464,.0452,.5213,.0452,.3428,0,.6902-.0576,1.0422-.1729,.5395-.1759,.9872-.4475,1.343-.8151,.3568-.3663,.5908-.7956,.7029-1.2869,.1122-.4911,.09-.9765-.0667-1.457-.1605-.4922-.435-.9041-.8219-1.2347Zm-.2919,3.0138c-.2311,.4418-.6101,.7493-1.1371,.9215-.228,.074-.451,.1112-.6689,.1112-.1149,0-.2285-.0103-.3406-.0309-.3249-.0591-.6081-.1992-.8517-.4216-.2427-.2213-.4206-.5028-.5318-.8431-.1113-.3432-.1373-.6749-.0765-.994,.062-.3201,.207-.6005,.4351-.8422,.2292-.2417,.5183-.4196,.8664-.5328,.2291-.0751,.4535-.1125,.6734-.1125,.1143,0,.2272,.0101,.339,.0303,.3268,.0589,.612,.1992,.8537,.4225,.2427,.2234,.4197,.5057,.5309,.8461,.1701,.5222,.1401,1.0046-.0919,1.4456Z"/><path d="M28.7489,46.9916c10.0751,0,18.2434-8.1674,18.2434-18.2424S38.8241,10.5062,28.7489,10.5062,10.5065,18.6741,10.5065,28.7492s8.1674,18.2424,18.2424,18.2424Zm-16.2919-11.3591c-.452-1.0685-.7976-2.1821-1.0301-3.3187-.2398-1.1719-.3592-2.3684-.3592-3.5647s.1194-2.3928,.3592-3.5647c.2325-1.1367,.5781-2.2502,1.0301-3.3188,.4443-1.0505,.9915-2.0576,1.6301-3.0026,.6342-.9385,1.3586-1.8159,2.1594-2.6167,.8008-.8009,1.6782-1.5252,2.6165-2.1594,.9451-.6387,1.9521-1.1859,3.0026-1.6302,1.0685-.4521,2.1821-.7978,3.3188-1.0302,1.1719-.2397,2.3683-.3593,3.5646-.3593s2.3927,.1195,3.5647,.3593c1.1366,.2324,2.2502,.5782,3.3188,1.0302,1.0506,.4443,2.0576,.9915,3.0027,1.6302,.9384,.6342,1.8159,1.3585,2.6168,2.1594,.8009,.8009,1.5253,1.6782,2.1594,2.6167,.6387,.945,1.1859,1.9521,1.6303,3.0027,.4521,1.0685,.7977,2.182,1.0303,3.3187,.2396,1.1719,.359,2.3684,.359,3.5647s-.1194,2.3928-.359,3.5647c-.2326,1.1366-.5782,2.2502-1.0303,3.3187-.4445,1.0505-.9916,2.0574-1.6303,3.0025-.6342,.9385-1.3585,1.8158-2.1594,2.6166-.801,.8009-1.6783,1.5252-2.6167,2.1593-.9452,.6387-1.9522,1.1859-3.0028,1.6302-1.0685,.452-2.1822,.7976-3.3187,1.0301-1.172,.2398-2.3684,.3593-3.5648,.3593s-2.3928-.1194-3.5646-.3593c-1.1367-.2325-2.2502-.5781-3.3188-1.0301-1.0506-.4443-2.0575-.9915-3.0026-1.6302-.9387-.6344-1.8154-1.3582-2.6165-2.1592-.8008-.8009-1.5252-1.6782-2.1594-2.6166-.6385-.9452-1.1857-1.9521-1.6301-3.0026Z"/><path class="cls-2" d="M28.7495,.4025C13.1188,.4025,.4032,13.1185,.4032,28.7487s12.7156,28.3467,28.3463,28.3467,28.3452-12.7165,28.3452-28.3467S44.3792,.4025,28.7495,.4025Zm0,56.1312C13.4292,56.5337,.964,44.0695,.964,28.7487S13.4292,.9643,28.7495,.9643s27.7844,12.4641,27.7844,27.7844-12.4641,27.785-27.7844,27.785Z"/><path class="cls-1" d="M30.3035,22.1348h-5.8223c-.2197,0-.3995,.1578-.3995,.3505v5.3233c0,.1928,.1798,.3506,.3995,.3506h5.8223c.2197,0,.3994-.1578,.3994-.3506v-5.3233c0-.1928-.1796-.3505-.3994-.3505Z"/><path d="M40.3169,29.4772c.0044-.0762,.014-.1525,0-.2283-.0497-.2711-.3047-1.0599-.3448-1.1918-.0383-.1257-.0311-.2075-.027-.3442,.0039-.1334,.0055-.3495-.0359-.4755-.0417-.1266-.3781-1.4077-.3784-1.5359-.0004-.1212-.0496-.1217,.043-.202,.1127-.0978,.0884-.1975,.0823-.3445-.0052-.1236-.0384-.2382-.0721-.3563-.0674-.236-.0944-.5049-.2566-.7001-.1452-.1751-.407-.2697-.6085-.3602-.1343-.0602-.2599-.1038-.4058-.1273-.1283-.0206-.26-.0284-.3874-.054-.1144-.023-.1978-.1652-.2648-.2544-.0586-.0784-.1049-.1738-.2009-.213-.1039-.0424-.1833-.0255-.2697-.1133-.0852-.0867-.1545-.1884-.2324-.2813-.1634-.1949-.3174-.3993-.5047-.5723-.1992-.184-.415-.3486-.6478-.4878-.2137-.1277-.322-.1801-.5386-.3031-.2131-.121-.4337-.2394-.6531-.3491-.124-.062-.246-.1262-.3675-.1928-.0941-.0518-.3846,.472-.2864,.525,.1058,.0572,.2122,.1126,.3166,.1726,.2131,.1224,.4423,.2277,.6465,.3646,.0474,.032,.0838,.0689,.1094,.1202,.0183,.0365,.0237,.0718,.0615,.0944,.0833,.0499,.1901-.0151,.2811,.0262,.1222,.0554,.1142,.0924,.222,.1703,.0806,.0583,.2033,.1147,.2516,.2056,.0453,.0851,.0208,.184,.1317,.2233,.0436,.0154,.0902,.0054,.1329,.0256,.0488,.0229,.0794,.0709,.1127,.111,.0748,.0905,.1698,.1706,.2361,.2672,.0574,.0837,.0315,.1969,.0927,.2708,.0647,.0779,.175,.0255,.1708,.1505-.0036,.1118,.0078,.2237,.0667,.3221,.0616,.1029,.1453,.1926,.2166,.2889,.0727,.0981,.1428,.1974,.2224,.2901,.0989,.115,.0914,.1768-.0058,.2881-.0837,.0958-.1636,.1912-.2377,.295-.0779,.1093-.1537,.2203-.223,.3351-.0482,.0798-.1503,.1948-.1474,.2899,.0018,.0615,.0385,.1255,.0485,.1881,.0097,.061,.0117,.1229,.0157,.1843,.009,.1351,.0184,.2703,.0265,.4055,.0167,.2812,.0382,.5618,.0633,.8423,.0198,.222-.0091,.4825,.2364,.5759,.2465,.0939,.5046,.1436,.7689,.1384,.2711-.0057,.5373-.0513,.804-.0961,.0615-.0103,.1349-.0341,.1862,.0132,.0364,.0336,.0972,.1014,.1206,.1445,.0571,.1056,.0661,.2141,.1016,.3286,.078,.2513,.2877,1.0277,.3279,1.1608,.0295,.0977,.0983,.175,.1667,.2491,.7912,3.0505,2.4001,5.9107,.7081,8.957-.4669,.8405-1.7251,2.6395-3.1607,1.9634-.6514-.3068-.004-2.4771,.4829-4.379,.4448-1.7337,.8078-5.4422-.553-7.1091-.7186-.8803-1.9172-1.2742-3.3659-1.3579v-.2741l-.5556-.1027-.0007-.7433c0-.3856,.2847-.5432,.6324-.7787,0,0,.4504-.3049,.2995-.8484l-.0421-.1512c-.1379-.1635-.314-.6077-.3914-.9872l-.1086-.5314c-.0773-.3796-.1235-.8237-.1024-.9869l-.0552-.0935-.0535-.0909c-.0984-.0118-.1788-.3369-.1788-.7225v-1.9943c0-.3855-.2806-.6491-.7925-.79,0,0-.7838-.2948-3.9562-.3432v-.1024c.7958-.2449,1.4816-.8145,1.8598-1.5905,.0419-.086,.1215-.1716,.2054-.2153,.1613-.084,.2454-.203,.2822-.3774,.0923-.4379,.1002-.8772,.0285-1.3164-.0324-.1984-.0438-.4241-.2822-.5096-.1273-.0456-.1885-.1364-.2449-.2524-.5756-1.1865-1.8626-1.8793-3.162-1.6829-1.0774,.1629-1.8536,.7545-2.3468,1.7252-.0383,.0753-.1107,.1491-.1857,.1863-.1556,.0771-.2243,.1923-.2793,.3571-.1874,.5611-.0561,1.4006-.0453,1.4701,.0256,.1635,.1602,.3075,.3033,.3916,.088,.0517,.1767,.1318,.2225,.221,.4195,.8161,1.0429,1.3375,1.8471,1.5776v.1182c-3.1721,.0484-3.9558,.3432-3.9558,.3432-.4277,.1021-.7924,.4045-.7924,.79v10.1809c0,.3519,.8234,11.3849,.9166,13.4977h.2028c.007,.2572,.2106,.7469,.2106,.7469h8.6346s.2033-.4896,.2103-.7469h.2028c.0926-2.133,.9167-13.3735,.9167-13.4977,0-.1157,.0007-.5533,.0007-.5533l.5556-.2056v-.2443c1.1929,.0777,2.0892,.4603,2.7297,1.0815,1.1041,1.0709,.7784,4.603,.3446,6.2961-.6231,2.43-1.115,4.349-.2575,5.2111,.2745,.2755,.6483,.406,1.1301,.4127,1.6106,.0224,2.8301-1.5196,3.4121-2.568,1.8714-3.3691,.187-6.5333-.6368-9.6641Zm-2.8126-1.9818c-.0403-.0005-.0837-.0104-.1231,.0019-.0308,.0096-.0521,.0413-.0834,.0431-.0643,.0035-.1924-.1442-.23-.1918-.1094-.1385-.095-.3633-.1088-.5298-.017-.2059-.029-.412-.0399-.6182-.0091-.1743-.0374-.3474,.0628-.5015,.0877-.1349,.2339-.242,.4009-.2029,.0768,.018,.1489,.0686,.2192,.1033,.0603,.0296,.0873,.067,.0692,.1343-.0226,.0844-.0461,.1339-.0117,.2231,.0329,.0851,.0542,.1349,.0563,.2292,.0043,.199,.0017,.3983,.0079,.5974,.0031,.0983,.0106,.1965,.0281,.2934,.0135,.0754,.0482,.1543,.0413,.2321-.0143,.1564-.1585,.1846-.2889,.1863Zm1.0236,.0273c-.0979,.0161-.1966,.0268-.2949,.0385-.0839,.0099-.0624,.037-.1032-.0425-.0322-.0623-.0361-.1118-.0024-.1744,.0309-.0577,.0587-.085-.0165-.1104-.0325-.0112-.0901-.0031-.108-.0393-.0175-.0356,.0276-.1204,.0316-.1557,.0228-.1942,.0004-.4037-.0005-.5992-.0009-.1995,.0048-.4003-.0037-.5995-.0058-.1373-.0777-.2086,.0744-.2268,.1904-.0043,.1967,.3323,.226,.4642,.0463,.2077,.1073,.4109,.1612,.6166,.048,.1832,.0891,.3682,.136,.5517,.0381,.1488,.0814,.2471-.1001,.277Zm-14.0239-11.1353c-.1147-.025-.2036-.13-.2328-.2618-.1114-.502-.121-1.0057,.0079-1.5034,.0255-.0983,.123-.2045,.2155-.252,.1121-.0576,.1782-.1229,.2343-.2355,.549-1.1029,1.4338-1.7062,2.6645-1.7165,1.2534,.0399,2.1611,.6423,2.706,1.7729,.0311,.0643,.1012,.126,.1678,.1535,.1577,.0651,.2374,.171,.2711,.3374,.095,.4687,.092,.9342-.0035,1.402-.0326,.1596-.1187,.2554-.2646,.3237-.0756,.0353-.1519,.1071-.1888,.1816-.4068,.8231-1.0067,1.3696-1.7916,1.5999-.2689,.0789-.5583,.1226-.8706,.1249-.3352,.0026-.6409-.0491-.9268-.1354-.7664-.2313-1.3598-.7645-1.7648-1.5688,0,0-.1088-.1976-.2235-.2227Zm6.1989,11.4213c0,.1929-.1796,.3506-.3994,.3506h-5.8223c-.2197,0-.3995-.1578-.3995-.3506v-5.3233c0-.1927,.1797-.3505,.3995-.3505h5.8223c.2197,0,.3994,.1578,.3994,.3505v5.3233Zm1.9959,1.8097c0,.2933-.5491,8.3597-.7738,13.4474h-.1198c.2245-5.0861,.6238-13.1556,.6238-13.4474v-9.5887c0-.1921-.2281-.3471-.4537-.401l-.0525-.0157c-.0417-.0135-.8849-.3206-4.5316-.3206s-4.4897,.3071-4.5303,.3203l-.0538,.0161c-.2253,.0538-.4536,.2088-.4536,.4009v9.5887c0,.293,.3994,8.3618,.6239,13.4474h-.1199c-.2246-5.0872-.7739-13.153-.7739-13.4474v-9.8795c0-.2448,.2726-.4381,.5421-.5024l.0407-.0121c.0445-.0144,1.0572-.3278,4.7249-.3278s4.6804,.3134,4.7217,.3268l.0477,.0142c.2656,.0633,.5382,.2566,.5382,.5014v9.8795Z"/><g><path d="M27.3816,16.715c-.8281,0-1.6216-.067-2.4503-.1741l-.0427-.0055,.0134,.0384c.2066,.562,.9255,1.2942,1.922,1.5118,.1895,.0414,.3854,.0706,.5937,.0695,.1934-.001,.3779-.0295,.5577-.0695,.9378-.2084,1.6659-.8867,1.9036-1.4735,.0105-.026,.0201-.0518,.0287-.0774l-.0736,.0092c-.8491,.1057-1.6389,.1711-2.4524,.1711Z"/><path d="M29.9193,14.2572l-.0114-.0338c-.261-.7408-1.2624-1.6826-2.6155-1.632-1.2189,.0455-2.1385,.897-2.4033,1.6315l-.0127,.0367,.0215-.0032c1.667-.2461,3.326-.2379,4.9917-.0035l.0297,.0042Z"/><path d="M25.4942,15.5689c.0871,.0089,.2096,.0136,.2937,.0221-.0018,.1141,.0336,.252-.1516,.2904-.2785,.0579-.5347-.0914-.5948-.341-.0753-.3123,.0598-.561,.3497-.6558,.2339-.0765,.4507-.0247,.6629,.0848,.0281-.3086,.0164-.3368-.2676-.3908-.166-.0316-.3389-.044-.508-.039-.6169,.0181-.9866,.574-.7757,1.1547,.132,.3635,.5034,.5496,.9878,.5038,.2076-.0196,.4166-.0242,.625-.036,.0507-.0029,.1013-.0076,.1562-.0117v-.8557h-.7776v.2744Z"/><path d="M27.5581,15.7846c-.0013,.042-.013,.1026-.0418,.1216-.151,.0996-.3602-.0168-.3674-.2022-.0053-.1384-.0011-.2771-.0011-.4114h-.5071v.4873c.0001,.3035,.1026,.421,.4087,.4175,.3292-.0038,.6582-.0337,.9986-.0528v-.8501h-.488c0,.173,.0028,.3316-.0019,.4901Z"/><path d="M30.0727,15.5928l.2055-.0345v-.2655l-.1975-.0269c-.0285-.2921-.0114-.3066,.2634-.2211,.0196-.3128,.0099-.325-.2846-.3702l-.0349-.0051c-.3737-.0631-.4533-.0025-.4459,.3642,.0032,.156-.002,.2847-.2033,.2595v.2821l.204,.0302v.5474h.4933v-.56Z"/><path d="M28.4863,16.1495h.4745v-1.4566h-.4745v1.4566Z"/></g></svg>