<?xml version="1.0" encoding="utf-8"?>
<!-- Generator: Adobe Illustrator 26.2.1, SVG Export Plug-In . SVG Version: 6.00 Build 0)  -->
<svg version="1.1" id="Lager_1" xmlns="http://www.w3.org/2000/svg" xmlns:xlink="http://www.w3.org/1999/xlink" x="0px" y="0px"
	 viewBox="0 0 57.5 57.5" style="enable-background:new 0 0 57.5 57.5;" xml:space="preserve">
<path d="M11.3,38.3c0.1,0,0.1,0,0.2,0c0.1,0,0.1,0,0.2,0c0.1-0.1,0.2-0.2,0.3-0.3c0-0.1,0-0.3,0-0.4c-0.1-0.1-0.2-0.2-0.3-0.3
	c-0.1,0-0.1,0-0.2,0c-0.1,0-0.1,0-0.2,0c-0.1,0.1-0.2,0.2-0.3,0.3c0,0.1,0,0.3,0,0.4C11.1,38.2,11.2,38.2,11.3,38.3z"/>
<path d="M11.2,36.3c0-0.1,0-0.3,0-0.4c-0.1-0.1-0.2-0.2-0.3-0.3c-0.1,0-0.1,0-0.2,0c-0.1,0-0.1,0-0.2,0c-0.1,0.1-0.2,0.2-0.3,0.3
	c0,0.1,0,0.3,0,0.4c0.1,0.1,0.2,0.2,0.3,0.3c0.1,0,0.1,0,0.2,0c0.1,0,0.1,0,0.2,0C11,36.5,11.1,36.4,11.2,36.3z"/>
<g>
	<path d="M5.7,25.9c0.1,0,0.1,0,0.2,0c0.2,0,0.4-0.1,0.6-0.2C6.8,25.5,6.9,25.3,7,25c0.1-0.3,0-0.6-0.2-0.8
		c-0.2-0.2-0.4-0.4-0.7-0.4c-0.1,0-0.1,0-0.2,0c-0.2,0-0.4,0.1-0.6,0.2c-0.2,0.2-0.4,0.4-0.4,0.7c-0.1,0.3,0,0.6,0.2,0.8
		C5.2,25.7,5.4,25.8,5.7,25.9z"/>
	<polygon points="8.9,34.2 5.2,33.4 8.3,31.2 8.1,30.1 3.2,33.6 3.3,34 9.1,35.2 	"/>
	<path d="M9.9,36.9l-5.8,0.3l0.5,1L6,38l1,2.2l-1,1.1l0.5,1l3.9-4.4L9.9,36.9z M7.5,39.6L6.8,38l2.3-0.2L7.5,39.6z"/>
	<path d="M13.5,43c-0.1-0.5-0.3-1-0.6-1.4c-0.3-0.4-0.7-0.7-1.2-0.8c-0.1,0-0.2,0-0.3,0c-0.3,0-0.6,0.1-0.9,0.3
		c-0.3,0.2-0.4,0.5-0.5,0.8c-0.1,0.3,0,0.7,0.1,1.2c0.1,0.4,0.2,0.7,0.2,1c0,0.3,0,0.5-0.2,0.7c-0.1,0.1-0.2,0.1-0.3,0.1
		c-0.1,0-0.1,0-0.2,0c-0.2-0.1-0.4-0.2-0.5-0.4c-0.3-0.4-0.5-1-0.5-1.7c-0.3,0.2-0.5,0.4-0.8,0.6C7.9,43.7,8,44,8,44.3
		c0.1,0.2,0.3,0.5,0.5,0.8c0.3,0.4,0.7,0.7,1.1,0.7c0.1,0,0.2,0,0.3,0c0.3,0,0.6-0.1,0.9-0.3c0.3-0.2,0.5-0.5,0.5-0.8
		c0.1-0.3,0.1-0.7-0.1-1.2c-0.1-0.6-0.2-0.9-0.2-1c0-0.3,0-0.5,0.2-0.7c0.1-0.1,0.2-0.1,0.3-0.1c0.1,0,0.1,0,0.2,0
		c0.2,0.1,0.3,0.2,0.5,0.4c0.3,0.3,0.5,0.8,0.5,1.5C13,43.4,13.3,43.2,13.5,43z"/>
	<polygon points="18,46.3 14.1,43.3 13.6,44 15.1,45.1 12.3,48.7 13.1,49.4 16,45.8 17.5,47 	"/>
	<polygon points="21.4,48.8 21.7,48.1 18.6,46.6 16.3,51.5 19.5,53 19.9,52.3 17.6,51.2 18.2,49.8 20.4,50.8 20.7,50.1 18.6,49.1 
		19.2,47.8 	"/>
	<path d="M24.6,48.8c-0.6-0.1-1.3-0.3-1.9-0.4c-0.4,1.8-0.7,3.5-1.1,5.3c0.3,0.1,0.7,0.1,1,0.2c0.2-0.7,0.3-1.5,0.5-2.2
		c0.1,0,0.2,0.1,0.4,0.1c0.2,0,0.3,0.1,0.4,0.2c0.1,0.1,0.2,0.3,0.3,0.5c0.1,0.2,0.2,0.6,0.4,1.3c0.1,0.3,0.1,0.5,0.2,0.6
		c0.4,0.1,0.8,0.2,1.1,0.2c-0.1-0.3-0.3-0.8-0.4-1.5c-0.1-0.4-0.2-0.7-0.3-0.9s-0.2-0.3-0.4-0.5c0.3-0.1,0.6-0.2,0.8-0.4
		c0.2-0.2,0.3-0.4,0.4-0.7c0.1-0.4,0-0.8-0.2-1.2C25.5,49.1,25.1,48.9,24.6,48.8z M24.9,50.5c0,0.2-0.2,0.4-0.3,0.5
		c-0.1,0.1-0.3,0.1-0.4,0.1c-0.1,0-0.2,0-0.3,0c-0.2,0-0.4-0.1-0.7-0.1c0.1-0.5,0.2-1,0.3-1.5c0.2,0,0.4,0.1,0.6,0.1
		c0.3,0.1,0.5,0.2,0.6,0.3C24.9,50,25,50.2,24.9,50.5z"/>
	<path d="M30.6,51.7C30.6,51.7,30.6,51.7,30.6,51.7c0.2-0.2,0.4-0.3,0.5-0.5c0.1-0.2,0.2-0.4,0.2-0.7c0-0.4-0.2-0.7-0.5-0.9
		c-0.3-0.2-0.7-0.3-1.1-0.3c0,0-0.1,0-0.1,0c-0.7,0-1.3,0-2,0.1c0.1,1.8,0.1,3.6,0.2,5.4c0.8,0,1.5-0.1,2.3-0.1c0.4,0,0.7-0.1,1-0.2
		c0.3-0.1,0.5-0.3,0.6-0.6c0.1-0.2,0.2-0.5,0.2-0.8c0-0.3-0.1-0.6-0.3-0.9C31.3,51.9,31,51.8,30.6,51.7z M28.7,50.1
		c0.3,0,0.5,0,0.8,0c0,0,0,0,0,0c0.2,0,0.4,0.1,0.5,0.2c0.2,0.1,0.2,0.3,0.2,0.5c0,0.2-0.1,0.4-0.2,0.6c-0.2,0.1-0.4,0.2-0.6,0.2
		c-0.2,0-0.4,0-0.7,0C28.7,51,28.7,50.5,28.7,50.1z M30.5,53.6c-0.2,0.1-0.4,0.2-0.8,0.2c-0.3,0-0.6,0-0.9,0c0-0.5,0-1-0.1-1.5
		c0.3,0,0.7,0,1,0c0,0,0,0,0.1,0c0.3,0,0.5,0.1,0.7,0.2c0.2,0.1,0.3,0.3,0.3,0.5C30.8,53.2,30.7,53.4,30.5,53.6z"/>
	<path d="M38,48.6c-0.4-0.3-0.8-0.5-1.3-0.6c-0.2,0-0.3,0-0.5,0c-0.3,0-0.7,0.1-1.1,0.2c-0.6,0.2-1,0.5-1.4,0.8
		c-0.4,0.4-0.6,0.8-0.7,1.3c-0.1,0.5-0.1,1,0.1,1.4c0.2,0.5,0.4,0.9,0.8,1.2c0.4,0.3,0.8,0.5,1.3,0.6c0.2,0,0.3,0,0.5,0
		c0.3,0,0.7-0.1,1-0.2c0.5-0.2,1-0.4,1.3-0.8c0.4-0.4,0.6-0.8,0.7-1.3c0.1-0.5,0.1-1-0.1-1.5C38.6,49.4,38.3,49,38,48.6z M37.7,51.7
		c-0.2,0.4-0.6,0.7-1.1,0.9c-0.2,0.1-0.5,0.1-0.7,0.1c-0.1,0-0.2,0-0.3,0c-0.3-0.1-0.6-0.2-0.9-0.4c-0.2-0.2-0.4-0.5-0.5-0.8
		c-0.1-0.3-0.1-0.7-0.1-1c0.1-0.3,0.2-0.6,0.4-0.8c0.2-0.2,0.5-0.4,0.9-0.5c0.2-0.1,0.5-0.1,0.7-0.1c0.1,0,0.2,0,0.3,0
		c0.3,0.1,0.6,0.2,0.9,0.4c0.2,0.2,0.4,0.5,0.5,0.8C37.9,50.7,37.9,51.2,37.7,51.7z"/>
	<polygon points="42.7,45.1 42.2,44.4 38.2,47.1 38.6,47.8 40.2,46.7 42.8,50.5 43.7,49.9 41.1,46.1 	"/>
	<polygon points="46.4,41 45.8,40.4 42.6,44.1 43.2,44.6 44.4,43.2 47.9,46.2 48.6,45.4 45.1,42.4 	"/>
	<polygon points="50.6,41.1 49.3,40.3 50.4,38.3 49.6,37.9 48.5,40 47.3,39.3 48.4,37.1 47.7,36.7 46.1,39.8 50.8,42.4 52.5,39.2 
		51.8,38.8 	"/>
	<polygon points="48.4,34.9 48.2,35.8 53.4,37 53.7,36 49.9,35.1 54.4,32.8 54.6,32 49.3,30.8 49.1,31.8 52.8,32.6 	"/>
	<path d="M51.6,26c0.1,0,0.1,0,0.2,0c0.3-0.1,0.5-0.2,0.7-0.4c0.2-0.2,0.2-0.5,0.2-0.8c-0.1-0.3-0.2-0.5-0.4-0.7
		c-0.2-0.1-0.4-0.2-0.6-0.2c-0.1,0-0.1,0-0.2,0c-0.3,0-0.5,0.2-0.7,0.4c-0.2,0.2-0.2,0.5-0.2,0.8c0,0.3,0.2,0.5,0.4,0.7
		C51.2,25.9,51.4,26,51.6,26z"/>
	<path d="M28.7,47C38.8,47,47,38.8,47,28.7c0-10.1-8.2-18.2-18.2-18.2c-10.1,0-18.2,8.2-18.2,18.2C10.5,38.8,18.7,47,28.7,47z
		 M12.5,35.6c-0.5-1.1-0.8-2.2-1-3.3c-0.2-1.2-0.4-2.4-0.4-3.6c0-1.2,0.1-2.4,0.4-3.6c0.2-1.1,0.6-2.3,1-3.3c0.4-1.1,1-2.1,1.6-3
		c0.6-0.9,1.4-1.8,2.2-2.6c0.8-0.8,1.7-1.5,2.6-2.2c0.9-0.6,2-1.2,3-1.6c1.1-0.5,2.2-0.8,3.3-1c1.2-0.2,2.4-0.4,3.6-0.4
		s2.4,0.1,3.6,0.4c1.1,0.2,2.3,0.6,3.3,1c1.1,0.4,2.1,1,3,1.6c0.9,0.6,1.8,1.4,2.6,2.2c0.8,0.8,1.5,1.7,2.2,2.6c0.6,0.9,1.2,2,1.6,3
		c0.5,1.1,0.8,2.2,1,3.3c0.2,1.2,0.4,2.4,0.4,3.6c0,1.2-0.1,2.4-0.4,3.6c-0.2,1.1-0.6,2.3-1,3.3c-0.4,1.1-1,2.1-1.6,3
		c-0.6,0.9-1.4,1.8-2.2,2.6c-0.8,0.8-1.7,1.5-2.6,2.2c-0.9,0.6-2,1.2-3,1.6c-1.1,0.5-2.2,0.8-3.3,1c-1.2,0.2-2.4,0.4-3.6,0.4
		c-1.2,0-2.4-0.1-3.6-0.4c-1.1-0.2-2.3-0.6-3.3-1c-1.1-0.4-2.1-1-3-1.6c-0.9-0.6-1.8-1.4-2.6-2.2c-0.8-0.8-1.5-1.7-2.2-2.6
		C13.4,37.7,12.9,36.7,12.5,35.6z"/>
	<path d="M28.7,57.1c-15.6,0-28.3-12.7-28.3-28.3S13.1,0.4,28.7,0.4c15.6,0,28.3,12.7,28.3,28.3S44.4,57.1,28.7,57.1z M28.7,1
		C13.4,1,1,13.4,1,28.7c0,15.3,12.5,27.8,27.8,27.8s27.8-12.5,27.8-27.8C56.5,13.4,44.1,1,28.7,1z"/>
	<g>
		<path d="M8.7,12.7l3.6,1.2l-1.6-3.4l0.7-0.8l2.5,5.4l-0.2,0.3L8,13.5L8.7,12.7z"/>
		<path d="M14.3,7.6l3.1,4.4l-0.8,0.6l-3.1-4.4L14.3,7.6z"/>
		<path d="M17.9,5.5l4.4,2.3l-1.4-3.5l1-0.4l2,5L23,9.3l-4.4-2.4l1.4,3.6l-1,0.4l-2-5L17.9,5.5z"/>
		<path d="M27.8,3.1c0.6,0,1.1,0.1,1.5,0.3c0.4,0.2,0.8,0.5,1,0.9c0.3,0.4,0.4,0.9,0.4,1.4c0,0.5-0.1,1-0.3,1.4s-0.6,0.7-1,1
			s-1,0.4-1.5,0.4l-2.2,0.1l-0.1-5.4L27.8,3.1z M27.9,7.7c0.6,0,1-0.2,1.4-0.6c0.3-0.4,0.5-0.8,0.5-1.4c0-0.6-0.2-1-0.6-1.4
			c-0.4-0.3-0.8-0.5-1.4-0.5l-1.1,0l0.1,3.8L27.9,7.7z"/>
		<path d="M37.3,4.5l-0.2,0.8l-2.4-0.6L34.4,6l2.3,0.6l-0.2,0.8l-2.3-0.6l-0.4,1.5L36.1,9l-0.2,0.8l-3.4-0.9l1.4-5.2L37.3,4.5z"/>
		<path d="M41.1,6.3l-2.3,4l2.3,1.3l-0.4,0.7l-3.2-1.8l2.7-4.7L41.1,6.3z"/>
		<path d="M46.3,10L45.8,15l2.8-2.6l0.7,0.7l-4,3.7l-0.6-0.7l0.6-5l-2.8,2.6l-0.7-0.7l4-3.7L46.3,10z"/>
	</g>
</g>
<path d="M29.3,12.3c0.1,0,0.1,0,0.2-0.1c0,0,0.1,0,0.1,0c0,0-0.1-0.1-0.3-0.1s-0.3,0-0.3,0.1S29.1,12.3,29.3,12.3z"/>
<path d="M28.5,12.3c0.2,0,0.3,0,0.3-0.1s-0.1-0.1-0.3-0.1c-0.2,0-0.3,0-0.3,0.1c0,0,0.1,0,0.2,0C28.4,12.2,28.4,12.3,28.5,12.3z"/>
<path d="M28.9,12.1c0.1,0,0.1-0.1,0.1-0.2c0-0.1-0.1-0.1-0.1-0.1c0,0,0-0.1,0-0.1c-0.1,0-0.1,0.1-0.1,0.2
	C28.8,12,28.8,12.1,28.9,12.1z"/>
<path d="M24.7,21v0.4h0v2.7l2.1-2.4l2.1-2.4l0,0l2.1,2.4l2.1,2.3v-2.6h0V21c0.1,0,0.2-0.1,0.2-0.1c0-0.1-0.1-0.1-0.2-0.1v-0.4h-0.3
	v0.4c-0.1,0-0.2,0.1-0.2,0.1s0.1,0.1,0.2,0.1v0.4h-0.9l-2.7-8.5c0.1,0,0.2-0.1,0.2-0.1c0-0.1-0.1-0.1-0.2-0.1v-0.3h-0.2v0.3
	c-0.1,0-0.2,0.1-0.2,0.1c0,0.1,0.1,0.1,0.2,0.1L26,21.4H25V21c0.1,0,0.2-0.1,0.2-0.1c0-0.1-0.1-0.1-0.2-0.1v-0.4h-0.3v0.4
	c-0.1,0-0.2,0.1-0.2,0.1S24.6,20.9,24.7,21z"/>
<polygon points="24.7,43.4 24.7,43.4 24.7,43.4 24.8,43.4 24.8,43.4 24.7,43.4 "/>
<path d="M28.9,43.1h1.3v-2.5c-0.4-0.2-0.9-0.3-1.3-0.3V43.1z"/>
<path d="M27.5,43.1h1.3v-2.8c-0.5,0-0.9,0.1-1.3,0.3V43.1z"/>
<path d="M29.5,39.4c0-0.1,0-0.1,0-0.2c0-0.1-0.1-0.1-0.1-0.1c0,0,0,0-0.1-0.1c0,0,0,0,0,0c-0.1-0.1-0.2-0.1-0.3-0.1s-0.2,0-0.3,0.1
	c0,0,0,0,0,0c0,0,0,0-0.1,0.1c0,0-0.1,0.1-0.1,0.1c0,0.1,0,0.1,0,0.2c0,0.3,0.3,0.5,0.6,0.5S29.5,39.7,29.5,39.4z M28.9,39.9
	c-0.3,0-0.5-0.2-0.5-0.4c0-0.1,0-0.1,0.1-0.2c0-0.1,0.1-0.1,0.1-0.1c0.1-0.1,0.2-0.1,0.3-0.1s0.2,0,0.3,0.1c0.1,0,0.1,0.1,0.1,0.1
	c0,0.1,0.1,0.1,0.1,0.2C29.4,39.7,29.1,39.9,28.9,39.9z"/>
<path d="M25.9,29.8c0.1,0,0.1,0,0.2-0.1c0,0,0,0,0.1,0c0,0,0.1,0,0.1,0c0,0.1,0.1,0.1,0.2,0.1c0.1,0,0.2-0.1,0.2-0.2
	c0-0.1-0.1-0.2-0.2-0.2l0,0l0,0c0,0-0.1,0-0.1,0c0,0,0-0.1,0-0.1l0,0c0,0,0,0,0,0c0-0.1-0.1-0.2-0.2-0.2s-0.2,0.1-0.2,0.2
	c0,0,0,0,0,0.1l0,0c0,0,0,0.1,0,0.1c0,0,0,0.1-0.1,0l0,0l0,0c-0.1,0-0.2,0.1-0.2,0.2C25.7,29.7,25.8,29.8,25.9,29.8z M25.9,29.4
	c0.1,0,0.1,0,0.2-0.1c0,0,0-0.1,0-0.1l0,0c0,0,0,0,0,0c0-0.1,0.1-0.1,0.2-0.1s0.2,0.1,0.2,0.1c0,0,0,0,0,0l0,0c0,0,0,0.1,0,0.1
	c0,0.1,0.1,0.1,0.2,0.1c0.1,0,0.1,0.1,0.1,0.1c0,0.1-0.1,0.1-0.2,0.1c-0.1,0-0.1-0.1-0.1-0.1c0,0-0.1-0.1-0.1-0.1
	c-0.1,0-0.1,0-0.1,0.1c0,0-0.1,0.1-0.1,0.1c-0.1,0-0.2-0.1-0.2-0.1C25.8,29.5,25.8,29.4,25.9,29.4z"/>
<path d="M25.9,30c0.1,0,0.2,0,0.3-0.1c0.1,0.1,0.2,0.1,0.3,0.1c0.2,0,0.4-0.2,0.4-0.4c0-0.2-0.1-0.3-0.3-0.4c0,0,0,0,0,0
	c0-0.2-0.2-0.4-0.4-0.4c-0.2,0-0.4,0.2-0.4,0.4c0,0,0,0,0,0c-0.2,0.1-0.3,0.2-0.3,0.4C25.5,29.8,25.7,30,25.9,30z M25.8,29.2
	L25.8,29.2L25.8,29.2C25.8,29.2,25.8,29.2,25.8,29.2c0-0.3,0.2-0.4,0.4-0.4c0.2,0,0.4,0.2,0.4,0.4c0,0,0,0,0,0l0,0l0,0
	c0.1,0.1,0.2,0.2,0.2,0.3c0,0.2-0.2,0.4-0.4,0.4c-0.1,0-0.2,0-0.2-0.1l0,0l0,0c-0.1,0.1-0.1,0.1-0.2,0.1c-0.2,0-0.4-0.2-0.4-0.4
	C25.5,29.4,25.6,29.3,25.8,29.2z"/>
<path d="M31.3,29.8c0.1,0,0.1,0,0.2-0.1c0,0,0,0,0.1,0c0,0,0.1,0,0.1,0c0,0.1,0.1,0.1,0.2,0.1c0.1,0,0.2-0.1,0.2-0.2
	c0-0.1-0.1-0.2-0.2-0.2l0,0l0,0c0,0-0.1,0-0.1,0c0,0,0-0.1,0-0.1l0,0c0,0,0,0,0,0c0-0.1-0.1-0.2-0.2-0.2s-0.2,0.1-0.2,0.2
	c0,0,0,0,0,0l0,0c0,0,0,0.1,0,0.1c0,0-0.1,0-0.1,0l0,0l0,0c-0.1,0-0.2,0.1-0.2,0.2C31.1,29.7,31.2,29.8,31.3,29.8z M31.3,29.4
	C31.3,29.4,31.3,29.4,31.3,29.4c0.1,0,0.1,0,0.2-0.1c0,0,0-0.1,0-0.1l0,0c0,0,0,0,0,0c0-0.1,0.1-0.1,0.2-0.1s0.2,0.1,0.2,0.1
	c0,0,0,0,0,0l0,0c0,0,0,0.1,0,0.1c0,0.1,0.1,0.1,0.2,0.1c0.1,0,0.1,0.1,0.1,0.1c0,0.1-0.1,0.1-0.2,0.1c-0.1,0-0.1-0.1-0.1-0.1
	c0,0-0.1-0.1-0.1-0.1s-0.1,0-0.1,0.1c0,0-0.1,0.1-0.1,0.1c-0.1,0-0.2-0.1-0.2-0.1C31.2,29.5,31.2,29.4,31.3,29.4z"/>
<path d="M31.3,30c0.1,0,0.2,0,0.3-0.1c0.1,0.1,0.2,0.1,0.3,0.1c0.2,0,0.4-0.2,0.4-0.4c0-0.2-0.1-0.3-0.3-0.4c0,0,0,0,0,0
	c0-0.2-0.2-0.4-0.4-0.4c-0.2,0-0.4,0.2-0.4,0.4c0,0,0,0,0,0c-0.2,0.1-0.3,0.2-0.3,0.4C30.9,29.8,31.1,30,31.3,30z M31.2,29.3
	L31.2,29.3L31.2,29.3C31.2,29.2,31.2,29.2,31.2,29.3c0-0.3,0.2-0.4,0.4-0.4c0.2,0,0.4,0.2,0.4,0.4c0,0,0,0,0,0l0,0l0,0
	c0.1,0.1,0.2,0.2,0.2,0.3c0,0.2-0.2,0.4-0.4,0.4c-0.1,0-0.2,0-0.2-0.1l0,0l0,0c-0.1,0.1-0.1,0.1-0.2,0.1c-0.2,0-0.4-0.2-0.4-0.4
	C31,29.4,31.1,29.3,31.2,29.3z"/>
<path d="M30.1,32.2c0-0.6-0.5-1.2-1.2-1.2s-1.2,0.5-1.2,1.2c0,0.7,0.5,1.2,1.2,1.2S30.1,32.9,30.1,32.2z M28.9,33.3
	c-0.3,0-0.6-0.1-0.8-0.4c-0.2-0.2-0.3-0.4-0.3-0.7c0-0.3,0.1-0.5,0.3-0.7c0.2-0.2,0.5-0.4,0.8-0.4c0.3,0,0.6,0.1,0.8,0.4
	c0.2,0.2,0.3,0.4,0.3,0.7c0,0.3-0.1,0.5-0.3,0.7C29.5,33.2,29.2,33.3,28.9,33.3z"/>
<path d="M29.9,32.2c0-0.2-0.1-0.5-0.3-0.6l0,0l0,0l0,0l0,0c-0.1-0.1-0.2-0.1-0.3-0.2c-0.1,0-0.2-0.1-0.4-0.1v0h0h0v0
	c-0.1,0-0.3,0-0.4,0.1c-0.1,0-0.2,0.1-0.3,0.2l0,0l0,0l0,0l0,0c-0.2,0.2-0.3,0.4-0.3,0.6h0v0v0h0c0,0.2,0.1,0.5,0.3,0.6l0,0l0,0l0,0
	l0,0c0.1,0.1,0.2,0.1,0.3,0.2c0.1,0,0.2,0.1,0.4,0.1v0h0h0v0c0.1,0,0.3,0,0.4-0.1c0.1,0,0.2-0.1,0.3-0.2l0,0l0,0l0,0l0,0
	C29.8,32.7,29.9,32.5,29.9,32.2L29.9,32.2L29.9,32.2L29.9,32.2L29.9,32.2z M29.6,31.6c0.1,0.2,0.2,0.4,0.2,0.6h-0.4c0,0,0,0,0,0
	c0-0.1,0-0.2-0.1-0.2c0,0,0,0,0,0L29.6,31.6L29.6,31.6z M29.2,32.5c-0.2,0.2-0.5,0.2-0.6,0c-0.1-0.1-0.1-0.2-0.1-0.3
	c0-0.1,0-0.2,0.1-0.3c0.1-0.1,0.2-0.1,0.3-0.1s0.2,0,0.3,0.1c0.1,0.1,0.1,0.2,0.1,0.3C29.3,32.3,29.3,32.5,29.2,32.5z M29.5,31.5
	L29.5,31.5l-0.3,0.3c0,0,0,0,0,0c-0.1-0.1-0.1-0.1-0.2-0.1c0,0,0,0,0,0v-0.4C29.1,31.3,29.3,31.4,29.5,31.5z M28.3,31.5
	c0.2-0.1,0.4-0.2,0.6-0.2v0.4c0,0,0,0,0,0c-0.1,0-0.2,0-0.2,0.1c0,0,0,0,0,0L28.3,31.5L28.3,31.5z M28.2,31.6L28.2,31.6l0.3,0.3
	c0,0,0,0,0,0c-0.1,0.1-0.1,0.1-0.1,0.2c0,0,0,0,0,0h-0.4C28,32,28,31.8,28.2,31.6z M27.9,32.3h0.4c0,0,0,0,0,0c0,0.1,0,0.2,0.1,0.2
	c0,0,0,0,0,0l-0.3,0.3C28,32.7,28,32.5,27.9,32.3z M28.3,32.9l0.1-0.1l0.1-0.1c0,0,0,0,0,0c0.1,0.1,0.1,0.1,0.2,0.1c0,0,0,0,0,0v0.4
	C28.6,33.1,28.4,33.1,28.3,32.9z M28.9,33.2v-0.4c0,0,0,0,0,0c0.1,0,0.2,0,0.2-0.1c0,0,0,0,0,0l0.3,0.3
	C29.3,33.1,29.1,33.1,28.9,33.2z M29.6,32.8l-0.3-0.3c0,0,0,0,0,0c0.1-0.1,0.1-0.1,0.1-0.2c0,0,0,0,0,0h0.4
	C29.8,32.5,29.7,32.7,29.6,32.8z"/>
<path d="M29.1,37.3L29.1,37.3L29.1,37.3C29.1,37.3,29,37.2,29.1,37.3C29,37.2,29,37.2,29.1,37.3L29.1,37.3c-0.1-0.1,0-0.1,0-0.1
	C29,37,29,37,28.9,37c-0.1,0-0.2,0.1-0.2,0.1c0,0,0,0,0,0l0,0c0,0,0,0,0,0c0,0,0,0,0,0c0,0,0,0-0.1,0l0,0l0,0
	c-0.1,0-0.2,0.1-0.2,0.1c0,0.1,0.1,0.1,0.2,0.1c0.1,0,0.1,0,0.1-0.1c0,0,0.1,0,0.1,0c0,0.1,0.1,0.1,0.1,0.1c0.1,0,0.2-0.1,0.2-0.1
	C29.3,37.3,29.2,37.3,29.1,37.3z M29.1,37.5C29,37.5,29,37.5,29.1,37.5c-0.1-0.1-0.2-0.1-0.2-0.1c0,0-0.1,0-0.1,0.1
	c0,0-0.1,0.1-0.1,0.1c-0.1,0-0.1,0-0.1-0.1c0,0,0-0.1,0.1-0.1c0,0,0.1,0,0.1,0c0,0,0-0.1,0-0.1l0,0c0,0,0,0,0,0c0,0,0,0,0,0
	c0-0.1,0.1-0.1,0.1-0.1c0.1,0,0.1,0,0.1,0.1c0,0,0,0,0,0l0,0c0,0,0,0.1,0,0.1c0,0,0.1,0,0.1,0c0,0,0,0,0,0c0.1,0,0.1,0,0.1,0.1
	C29.2,37.4,29.1,37.5,29.1,37.5z"/>
<path d="M29.2,37.1C29.2,37.1,29.2,37.1,29.2,37.1c0-0.2-0.2-0.3-0.4-0.3c-0.2,0-0.4,0.1-0.4,0.3c0,0,0,0,0,0
	c-0.1,0-0.2,0.1-0.2,0.3c0,0.2,0.2,0.3,0.4,0.3c0.1,0,0.1,0,0.2-0.1c0.1,0,0.1,0.1,0.2,0.1c0.2,0,0.4-0.1,0.4-0.3
	C29.4,37.3,29.4,37.2,29.2,37.1z M29.1,37.6c-0.1,0-0.1,0-0.2-0.1l0,0l0,0c-0.1,0-0.1,0.1-0.2,0.1c-0.2,0-0.3-0.1-0.3-0.2
	c0-0.1,0.1-0.2,0.2-0.2l0,0l0,0c0,0,0,0,0,0c0-0.1,0.1-0.2,0.3-0.2c0.2,0,0.3,0.1,0.3,0.2c0,0,0,0,0,0l0,0l0,0
	c0.1,0,0.2,0.1,0.2,0.2C29.4,37.5,29.2,37.6,29.1,37.6z"/>
<path d="M28.9,25.1c-0.2,0-0.4,0.1-0.4,0.3c-0.1,0-0.2,0.1-0.3,0.1c0,0.7,0,2.2,0,2.2h1.4c0,0,0-1.5,0-2.2c-0.1-0.1-0.2-0.1-0.3-0.1
	C29.2,25.3,29.1,25.1,28.9,25.1z"/>
<path d="M26.8,25.1c-0.2,0-0.4,0.1-0.4,0.3c-0.1,0-0.2,0.1-0.3,0.1c0,0.7,0,2.2,0,2.2h1.4c0,0,0-1.5,0-2.2c-0.1-0.1-0.2-0.1-0.3-0.1
	C27.1,25.3,27,25.1,26.8,25.1z"/>
<path d="M31,25.1c-0.2,0-0.4,0.1-0.4,0.3c-0.1,0-0.2,0.1-0.3,0.1c0,0.7,0,2.2,0,2.2h1.4c0,0,0-1.5,0-2.2c-0.1-0.1-0.2-0.1-0.3-0.1
	C31.3,25.3,31.2,25.1,31,25.1z"/>
<path d="M27.8,23.3L27.8,23.3c0.1,0.5,0.5,0.9,1.1,1c0,0,0,0,0.1,0c0,0,0,0,0.1,0c0.5,0,1-0.4,1.1-1v0c0,0,0-0.1,0-0.1h0v0h0
	c0,0,0-0.1,0-0.1c0-0.2,0-0.3-0.1-0.4c-0.1-0.2-0.2-0.4-0.4-0.5c-0.2-0.1-0.4-0.2-0.6-0.2c-0.2,0-0.5,0.1-0.6,0.2
	c-0.2,0.1-0.3,0.3-0.4,0.5c-0.1,0.1-0.1,0.3-0.1,0.4C27.8,23.1,27.8,23.1,27.8,23.3L27.8,23.3L27.8,23.3L27.8,23.3
	C27.8,23.2,27.8,23.2,27.8,23.3z M28,23.1h-0.2v0V23v0L28,23.1L28,23.1L28,23.1L28,23.1z M29.4,22.2l0,0.2l0,0L29,23.1l0.1,0
	l0.3,0.2l0.1,0.2l0,0l-0.2,0l-0.4-0.2l-0.1,0.2l-0.1-0.1l0,0l0-0.1l0.1-0.1L28.6,23l0,0l0.1-0.2l0.3,0.1l0.3-0.6L29.4,22.2
	C29.4,22.2,29.4,22.2,29.4,22.2z M29,23.9V24h-0.1L29,23.9L29,23.9L29,23.9L29,23.9z M29,22.1L29,22.1L29,22.1L29,22.1L29,22.1
	L29,22.1L29,22.1L29,22.1L28.9,22H29V22.1z M29,24.1L29,24.1L29,24.1L29,24.1L29,24.1L29,24.1L29,24.1z M29.8,23.1L29.8,23.1L30,23
	v0v0.1v0L29.8,23.1L29.8,23.1L29.8,23.1z"/>
<path d="M27.6,22.9v0.7v0.9v0h2.7v0v-0.9v-0.7v-1.1h-2.7V22.9z M28.9,21.8c0.5,0,0.8,0.3,1.1,0.6c0.1,0.2,0.2,0.4,0.2,0.6
	c0,0,0,0,0,0c0,0.5-0.3,0.9-0.7,1.1c-0.2,0.1-0.3,0.1-0.5,0.1c-0.2,0-0.4-0.1-0.5-0.1c-0.4-0.2-0.7-0.6-0.7-1.1c0,0,0,0,0,0
	c0-0.2,0.1-0.5,0.2-0.6C28.1,22.1,28.4,21.8,28.9,21.8z"/>
<path d="M37.5,39.7V38l-0.7-1.5v-3.4h-0.2v-0.5c0.1,0,0.2-0.1,0.2-0.1c0-0.1-0.1-0.1-0.2-0.1v-0.4h-0.3v0.4c-0.1,0-0.2,0.1-0.2,0.1
	c0,0.1,0.1,0.1,0.2,0.1v0.5h-1.7l-0.5-0.4v-0.7l-0.8-1.6v-1.8h0.3l-0.3-0.3l0-3.5l0.3-0.1l-0.4-0.5l-0.8-0.9l-1.6-1.8l-1.8-2.1
	l-1.8,2.1l-1.5,1.7l-0.9,1l-0.4,0.4l0.3,0.1l0,3.6l-0.3,0.3h0.3V30h-1l-1.3,1.6v1.5h0h-1v-0.5c0.1,0,0.2-0.1,0.2-0.1
	c0-0.1-0.1-0.1-0.2-0.1v-0.4H21v0.4c-0.1,0-0.2,0.1-0.2,0.1c0,0.1,0.1,0.1,0.2,0.1v0.5h-0.2l0,3.2L20,37.9l0,1.7L19.3,41l0,1.9h1.4
	v0.4h0.2l0,0v0h4.9v0.2h6.1v-0.2h1.1l0,0h0.1v0h3.6v-0.4h1.3V41L37.5,39.7z M19.6,41.1l0.3-0.7v2.4h-0.3V41.1z M19.9,40.2l0.2-0.5
	l0-1.7l0.1-0.3v5h-0.3V40.2z M20.3,37.6l0.2-0.3v5.5h-0.2V37.6z M20.5,37.2L20.5,37.2l0,5.6h0V37.2z M20.7,42.8L20.7,42.8l0-5.8
	l0-0.1V42.8z M21,35.4l0.2-0.2v8H21L21,35.4z M21.3,35.1l0.4-0.4v8.4h-0.4V35.1z M21.8,34.7l0.2-0.2v8.7h-0.2L21.8,34.7L21.8,34.7z
	 M22.1,34.4l0.1-0.1v8.8h-0.1V34.4z M22.3,43.1L22.3,43.1l0-8.9l0,0V43.1z M24.4,40.9h-0.2v-9.3l0.2,0V40.9z M23.9,33.6v-1.8
	l0.1-0.2l0.1,0v9.3h-0.7l0-0.8l0-0.4l0-3.3l0.2-1.1l0-0.1L23.9,33.6L23.9,33.6z M23.7,33.6L23.7,34v-2.1v-0.2v0l0.2,0l-0.1,0.2
	L23.7,33.6z M23.6,31.7L23.6,31.7v2.2v0.4L23.5,35v-0.3v-3v0L23.6,31.7z M23,31.7v4.9l-0.5,0v-2.6l0-2.2L23,31.7z M23.2,40.9
	L23.2,40.9l-0.1,0.1L22.7,42h0.3h0.1v1.1h-0.6v-5.8h0.6V40.9z M23.2,36.5L23.2,36.5l-0.1-4.9l0.4,0v0V35v0.2L23.2,36.5L23.2,36.5z
	 M23.4,43.1l0-1.1h0.1h0.3v1.1H23.4L23.4,43.1z M23.8,42h0.3v1.1h-0.3V42z M24.1,42h0.2v1.1h-0.2V42z M24.5,43.1h-0.2V42h0.2V43.1z
	 M24.5,31.9L24.5,31.9v9h0h0v-9.3l0.1,0V31.9z M33,32v1.6h-0.7V32H33z M33,28h-8.2v-3.1v-0.1H33v0.1V28z M24.8,24.5L24.8,24.5
	l2.8-3.1l1.3-1.5l1.3,1.5l2.3,2.6l0.5,0.5l0,0l0,0L24.8,24.5L24.8,24.5z M24.8,28.6H33v1.7h-0.8v6h-0.7V32c0-1.8-2.3-2.7-2.4-2.8
	c0,0-0.2-0.1-0.2-0.1s-0.2,0.1-0.2,0.1c-0.1,0-2.4,0.9-2.4,2.8v4.3h-0.7v-6h-0.8l0,0V28.6z M31.3,37.8l-0.9-1.2h1.8v1.2H31.3z
	 M26.5,37.8h-0.9v-1.2h1.8L26.5,37.8z M29.3,34.4c0-0.1-0.1-0.2-0.3-0.3v-0.3h-0.2v0.3c-0.1,0-0.2,0.1-0.3,0.3c0,0,0,0.2,0,0.2v0.7
	l-0.4,0.5v-1.2c0,0,0-0.1,0-0.1c0-0.1-0.2-0.2-0.4-0.3l0,0l0,0c0,0,0,0,0,0l0,0c0,0,0,0,0,0l0,0c-0.1,0-0.3,0.1-0.3,0.3
	c0,0,0,0.2,0,0.2v1.4H27v-3.5c0-0.1,0-0.7,0.1-0.8c0.2-0.9,1.1-1.5,1.5-1.7l0,0c0,0,0.1-0.1,0.1-0.1c0,0,0.1,0,0.1,0s0.1,0,0.1,0
	c1,0.5,1.6,1.2,1.7,1.9c0,0.1,0.1,0.6,0.1,0.7l0,3v0.6h-0.2v-0.1h0v-1.2c0,0,0-0.1,0-0.1c0-0.1-0.2-0.2-0.4-0.3l0,0l0,0c0,0,0,0,0,0
	c0,0,0,0,0,0l0,0c0,0,0,0,0,0c-0.1,0-0.3,0.1-0.3,0.3c0,0,0,0.2,0,0.2v1.2l-0.4-0.5v-0.8C29.3,34.6,29.3,34.5,29.3,34.4z M29.1,29.5
	c1.1,0.5,1.8,1.2,2,1.9c0.1,0.2,0.1,0.5,0.1,0.7v4h0v-0.1H31v-3.8c0-0.2,0-0.6-0.1-0.7c-0.2-0.7-0.8-1.4-1.9-1.9l-0.2-0.1
	c0,0-0.2,0.1-0.2,0.1c0,0,0,0-0.1,0c-0.4,0.2-1.3,0.8-1.7,1.7c-0.1,0.2-0.1,0.7-0.1,0.9v3.6h0v0.1h-0.2v-3.9c0-0.3,0.1-0.7,0.2-0.9
	c0.3-0.6,0.9-1.2,1.8-1.7c0,0,0.2-0.1,0.2-0.1S29,29.5,29.1,29.5z M29,29.7c1,0.5,1.6,1.2,1.8,1.9c0.1,0.1,0.1,0.5,0.1,0.7v3.7h-0.2
	v-3.6c0-0.1,0-0.6-0.1-0.7C30.6,31,30,30.4,29,29.8l-0.1,0c0,0-0.2,0.1-0.2,0.1l0,0c-0.3,0.2-1.3,0.8-1.5,1.7
	C27,31.8,27,32.3,27,32.5l0,3.4v0.1h-0.2v-3.6c0-0.2,0.1-0.7,0.1-0.9c0.3-0.9,1.3-1.5,1.6-1.7c0,0,0.1,0,0.1,0c0,0,0.2-0.1,0.2-0.1
	L29,29.7z M30.7,35.9v-0.3V35.9L30.7,35.9z M28,35.8h-0.7v-1.2c0,0,0-0.1,0-0.1c0-0.1,0.2-0.2,0.3-0.3l0,0c0,0,0,0,0,0l0,0
	c0,0,0,0,0,0c0,0,0,0,0,0c0.2,0.1,0.3,0.2,0.3,0.3c0,0,0,0.1,0,0.1V35.8z M30.5,35.8h-0.7v-1.2c0,0,0-0.1,0-0.1
	c0-0.1,0.2-0.2,0.3-0.3l0,0v0c0,0,0,0,0,0l0,0c0,0,0,0,0,0c0,0,0,0,0,0c0.2,0.1,0.3,0.2,0.3,0.3c0,0,0,0.1,0,0.1V35.8z M31.4,36.2
	h-0.2v-4c0-0.2,0-0.5-0.1-0.7c-0.2-0.7-1-1.4-2-1.9c0,0-0.2-0.1-0.2-0.1s-0.2,0.1-0.3,0.1c-1,0.5-1.6,1.1-1.9,1.7
	c-0.1,0.2-0.2,0.7-0.2,0.9v4h-0.2V32c0-1.8,2.2-2.7,2.3-2.7l0.2-0.1l0.2,0.1c0.1,0,2.3,0.9,2.3,2.7V36.2z M28.5,34.6
	c0,0,0-0.1,0-0.1l0,0c0-0.1,0.1-0.2,0.2-0.2v0.1C28.7,34.4,28.6,34.4,28.5,34.6c0.1,0,0.1,0.1,0.3,0.1v0.2l-0.3,0.3V34.6z M29,34.7
	c0.1,0,0.2-0.1,0.2-0.2c0-0.1-0.1-0.1-0.2-0.2v-0.1c0.1,0.1,0.2,0.2,0.2,0.2c0,0,0,0.1,0,0.1v0.7L29,34.9V34.7z M24.8,32l0.6,0v1.6
	l0,0h-0.6V32z M25.4,43.1h-0.6V42h0.6V43.1z M25.4,40.9h-0.6v-4.4h0.6v2.6v0.2l0,0V40.9z M25.6,43.1v-3.7l0.2,0.1v3.5H25.6z
	 M30.7,43.1L30.7,43.1h-0.4h-2.8h-0.4h0h0v-2.4c0-0.4,0.2-0.9,0.5-1.2c0.3-0.3,0.7-0.7,1.2-0.9c0,0,0,0,0.1,0c0,0,0,0,0,0
	c0,0,0,0,0.1,0c0,0,0,0,0,0c0.3,0.2,0.9,0.5,1.3,1c0.3,0.3,0.5,0.8,0.5,1.2L30.7,43.1L30.7,43.1z M30.8,43.1L30.8,43.1L30.8,43.1
	l-0.1-2.4c0-0.5-0.2-0.9-0.5-1.2c-0.4-0.5-1-0.9-1.3-1l0,0l0,0c0,0,0,0,0,0c0,0,0,0-0.1,0c0,0,0,0,0,0c0,0,0,0-0.1,0
	c-0.5,0.3-0.9,0.6-1.2,0.9c-0.3,0.4-0.5,0.8-0.5,1.2v2.4H27h0h0v-2.4c0-0.4,0.2-0.9,0.5-1.2c0.3-0.4,0.7-0.7,1.3-1.1l0,0
	c0,0,0,0,0.1,0c0,0,0,0,0,0c0,0,0,0,0.1,0c0,0,0,0,0.1,0c0.4,0.2,1,0.6,1.4,1.1c0.3,0.3,0.5,0.8,0.5,1.2L30.8,43.1L30.8,43.1z
	 M31,43.1L31,43.1L31,43.1l-0.1-2.4c0-0.5-0.2-0.9-0.4-1.2c-0.4-0.5-1-0.9-1.5-1.1l0,0l0,0c0,0,0,0,0,0c0,0-0.1,0-0.1,0c0,0,0,0,0,0
	c0,0-0.1,0-0.1,0l0,0c-0.6,0.3-1,0.7-1.3,1.1c-0.3,0.4-0.4,0.8-0.4,1.2v2.4h-0.1h0h0v-2.4c0-0.3,0.1-0.8,0.4-1.2
	c0.3-0.4,0.7-0.8,1.4-1.2l0,0c0,0,0,0,0.1,0c0,0,0,0,0.1,0c0,0,0,0,0.1,0c0,0,0,0,0.1,0l0,0c0.4,0.2,1.1,0.6,1.5,1.2
	c0.3,0.3,0.4,0.8,0.4,1.2L31,43.1L31,43.1z M31.1,43.1L31.1,43.1L31,40.7c0-0.5-0.2-0.9-0.4-1.2c-0.5-0.6-1.2-1.1-1.6-1.2l0,0l0,0
	c0,0,0,0,0,0c-0.1,0-0.1,0-0.1,0c0,0,0,0-0.1,0c0,0-0.1,0-0.1,0l0,0c-0.7,0.4-1.2,0.8-1.5,1.2c-0.3,0.5-0.4,0.9-0.4,1.2v2.4h-0.1h0
	v-2.4c0-0.5,0.2-0.9,0.4-1.2c0.5-0.7,1.2-1.1,1.6-1.3l0,0c0,0,0.1,0,0.1,0c0,0,0,0,0,0c0,0,0,0,0.1,0c0,0,0.1,0,0.1,0l0,0
	c0.3,0.2,1.2,0.6,1.7,1.3c0.2,0.3,0.4,0.8,0.4,1.2L31.1,43.1L31.1,43.1z M31.2,43.1L31.2,43.1l0-2.4c0-0.5-0.2-0.9-0.4-1.2
	c-0.5-0.8-1.4-1.2-1.7-1.4l0,0l0,0c0,0,0,0,0,0c-0.1,0-0.1,0-0.1,0c0,0,0,0,0,0c-0.1,0-0.1,0-0.1,0l0,0c-0.9,0.4-1.4,0.9-1.6,1.3
	c-0.3,0.5-0.4,1-0.4,1.2v2.4h0h0v-2.4c0-0.5,0.2-0.9,0.4-1.2c0.6-0.9,1.7-1.4,1.8-1.4l0.1-0.1l0.1,0.1c0.1,0,1.2,0.5,1.8,1.4
	c0.2,0.4,0.4,0.8,0.4,1.2L31.2,43.1L31.2,43.1z M31.4,43.1L31.4,43.1h-0.1v-2.4c0-0.5-0.2-0.9-0.4-1.2c-0.6-1-1.8-1.4-1.8-1.5
	l-0.2-0.1L28.7,38c-0.1,0-1.2,0.5-1.8,1.5c-0.2,0.4-0.4,0.8-0.4,1.2v2.4h0h-0.1H26v-3.8l0.2-0.3l2-2.6l0,0l0.1-0.1l0.1-0.1l0,0
	l0.1-0.1l0,0l0.1-0.1l0,0l0.1-0.1l0.1-0.1l0.1,0.1l0.1,0.1l0,0l0.1,0.1l0,0l0.1,0.1l0,0l0.1,0.1l0.1,0.1l0,0l2.1,2.6l0.2,0.3v3.8
	H31.4z M31.9,43.1v-3.5l0.2-0.1v3.7H31.9z M33,43.1h-0.6V42H33V43.1z M33,40.9h-0.6v-1.6v-0.2v-2.6H33V40.9z M34.3,34.6v0.3V34.6
	l-0.1-0.1l0,0l0-0.1v-0.5v-0.6l0,0l0,0l0.1,0l0.1,0.1V34.6z M34.1,33L34.1,33l0.1,1l-0.1-0.4V33z M33.9,33.6l0.5,2.8v4.5h-0.8v-9.6
	l0.3,0.5v0.7L33.9,33.6z M33.5,40.9h-0.1v-9.9l0.1,0.2V40.9z M33.3,31.8v-1l0.1,0.1v10h-0.1V31.8z M33.3,42h0.2v1.1h-0.2V42z
	 M33.5,42h0.2v1.1h-0.2V42z M33.7,42H34v1.1h-0.3V42z M34.5,43.1L34.5,43.1h-0.4V42h0.3h0.1V43.1z M34.5,35.8l0-0.1l-0.1-0.5v0v-0.3
	v-1.6l0.1,0.1l0,0l0,0l0,0l0,0v0V36v0.1l0-0.1L34.5,35.8z M34.7,36.5L34.7,36.5l0-0.1v-2.8l0,0l0.1,0.1l0,0v7.6l0-0.1l0-0.1
	l-0.1-0.2h0L34.7,36.5z M34.7,42L34.7,42h0.1h0v1.1h0h-0.1L34.7,42z M34.9,42h0.2l-0.2-0.5v0v-7.7l0,0l0.2,0.1l0,0v9.1h0h-0.2V42z
	 M35.4,43.1L35.4,43.1h-0.3V34l0,0l0.2,0.2l0.1,0l0,0l0.4,0.3v0v8.5H35.4z M36.5,43.1H36h-0.1h-0.1v-8.5l0.1,0.1l0,0l0,0l0.6,0.5
	L36.5,43.1z M36.8,42.8v-5.8l0.1,0.1L36.8,42.8L36.8,42.8z M36.9,37.1l0.1,0.2v5.5h-0.1V37.1z M37.1,37.4l0.2,0.3v5.1h-0.2V37.4z
	 M37.3,37.8l0.1,0.2v1.7l0.2,0.6v2.5h-0.3V37.8z M37.9,42.8h-0.2v-2.3l0.2,0.6V42.8z"/>
</svg>
