<?xml version="1.0" encoding="UTF-8"?><svg id="Lager_1" xmlns="http://www.w3.org/2000/svg" width="20.2847mm" height="20.2847mm" viewBox="0 0 57.5 57.5"><defs><style>.cls-1{fill:#231f20;}.cls-2{fill:#2c3330;}</style></defs><path class="cls-1" d="M11.3061,38.2973c.0617,.0225,.1224,.0337,.1821,.0337,.0714,0,.1416-.016,.2106-.0482,.1238-.057,.2098-.1556,.259-.2938,.0494-.1384,.0456-.268-.0106-.3897-.0589-.1256-.1566-.2137-.292-.263-.0617-.0225-.1223-.0337-.182-.0337-.0713,0-.1412,.0161-.2098,.0482-.1314,.061-.2194,.1596-.2658,.2948-.0464,.1354-.0407,.2649,.0175,.3887,.0589,.1267,.1556,.2137,.291,.2631Z"/><path class="cls-1" d="M11.1524,36.263c.0492-.1373,.0454-.2688-.0135-.3946-.058-.1238-.1557-.2127-.293-.2649-.064-.025-.127-.0373-.1888-.0373-.07,0-.1385,.0158-.2056,.047-.1287,.06-.2156,.1586-.2621,.2968-.0464,.1382-.0405,.2698,.0175,.3936,.0609,.1305,.1605,.2195,.2987,.266,.0625,.021,.1233,.0315,.1819,.0315,.0709,0,.1388-.0153,.204-.0462,.1238-.057,.2108-.1545,.2611-.2919Z"/><g><path class="cls-1" d="M5.7116,25.8751c.0692,.012,.1368,.018,.2029,.018,.2157,0,.4152-.0641,.5987-.192,.2397-.1683,.3858-.4003,.4381-.6973,.0502-.2928-.0098-.5588-.1818-.7996-.1711-.2397-.4013-.3857-.6913-.436-.068-.0118-.1345-.0176-.1995-.0176-.2169,0-.4173,.0656-.6011,.1966-.2388,.1702-.384,.4003-.4341,.6904-.0513,.2968,.0077,.5648,.1769,.8035,.1692,.2388,.3994,.3839,.6913,.4341Z"/><polygon class="cls-1" points="8.9247 34.1726 5.2349 33.3749 8.3484 31.2114 8.1376 30.1294 3.2373 33.5943 3.3061 33.9511 9.1345 35.2468 8.9247 34.1726"/><path class="cls-1" d="M9.9128,36.8547l-5.8381,.2669,.4632,.992,1.4126-.0832,1.0161,2.1765-.9543,1.0646,.466,.9978,3.8859-4.4477-.4515-.967Zm-2.3717,2.7083l-.7377-1.5809,2.2895-.1509-1.5517,1.7318Z"/><path class="cls-1" d="M13.5106,43.0186c-.1005-.5444-.3161-1.0219-.6458-1.4319-.348-.4313-.733-.6943-1.1544-.7881-.105-.0236-.2078-.0354-.3086-.0354-.304,0-.5887,.1071-.8537,.3206-.2649,.2137-.4321,.4835-.5009,.8083-.0696,.3258-.0454,.7146,.0706,1.167,.09,.3877,.1586,.7088,.2041,.963,.0493,.3114-.0242,.5455-.2185,.703-.0981,.0783-.2059,.1175-.3235,.1175-.0538,0-.1097-.0082-.1677-.0247-.1856-.0533-.3579-.1789-.5183-.3781-.3201-.3974-.4747-.9718-.4631-1.722-.2672,.215-.5345,.43-.8016,.6449,.0494,.3578,.1228,.6565,.2194,.8982,.0968,.2417,.2534,.4969,.471,.7657,.3327,.414,.7145,.6614,1.1457,.7426,.0946,.0178,.1875,.0267,.2785,.0267,.3255,0,.629-.1135,.9108-.3408,.2794-.2253,.4573-.4941,.5326-.8064,.0764-.3123,.0561-.7078-.0589-1.1835-.1401-.5531-.2147-.875-.2234-.9679-.0386-.3229,.0213-.5482,.1808-.6759,.0893-.0723,.1875-.1082,.2945-.1082,.0518,0,.1058,.0085,.1619,.0252,.1731,.0512,.3413,.1798,.5067,.3847,.2717,.3374,.4515,.8297,.5386,1.4775,.241-.1941,.4819-.388,.7231-.5821Z"/><polygon class="cls-1" points="17.9623 46.3448 14.1334 43.3173 13.6276 43.9575 15.1322 45.1479 12.2876 48.7456 13.1065 49.3934 15.9512 45.7946 17.4556 46.9849 17.9623 46.3448"/><polygon class="cls-1" points="21.3985 48.8375 21.7439 48.0978 18.5791 46.6203 16.2934 51.5167 19.5074 53.0163 19.8524 52.2777 17.5851 51.2189 18.2349 49.8276 20.3582 50.8187 20.7034 50.079 18.5801 49.0879 19.1805 47.8019 21.3985 48.8375"/><path class="cls-1" d="M24.6116,48.8219c-.6353-.1299-1.2705-.2597-1.9058-.3896-.361,1.7645-.722,3.5291-1.0829,5.2937,.3409,.0696,.6819,.1393,1.0229,.2089l.4574-2.2355,.3712,.0763c.1645,.0329,.3008,.1044,.411,.2118,.1093,.1083,.2118,.2736,.3086,.4979,.0966,.2234,.233,.6469,.4107,1.2706,.0823,.2823,.1499,.4892,.2042,.6215,.3803,.0778,.7606,.1555,1.1409,.2332-.1073-.2748-.2562-.7649-.4486-1.4736-.118-.411-.2272-.7078-.3268-.8916s-.2244-.3384-.3752-.4631c.3326-.0667,.5994-.1954,.8006-.3877,.201-.1915,.3316-.438,.3935-.7387,.0909-.4419,.0068-.8326-.2495-1.172-.2571-.3393-.6342-.5598-1.1322-.6623Zm.3211,1.637c-.0485,.233-.1615,.4002-.3424,.5028-.1171,.0667-.2533,.1003-.4079,.1003-.0827,0-.1708-.0096-.2641-.0288l-.6517-.1334c.1005-.4912,.2011-.9824,.3017-1.4736,.2124,.0431,.4247,.0864,.6372,.1296,.2803,.0581,.4834,.1624,.611,.3133,.1267,.1508,.1653,.3471,.1161,.5898Z"/><path class="cls-1" d="M30.6025,51.6908l-.001-.0465c.2428-.1199,.4265-.2755,.5491-.4689,.1239-.1925,.1809-.4129,.1722-.6603-.0144-.3859-.1817-.7029-.5038-.9486-.2987-.2295-.673-.3443-1.1219-.3443-.0332,0-.067,.0007-.1012,.002-.6598,.0239-1.3196,.0477-1.9794,.0716,.0657,1.8,.1315,3.6001,.1974,5.4001,.7535-.0277,1.507-.0554,2.2606-.0832,.3684-.0135,.6864-.0842,.9543-.2128,.2678-.1285,.4738-.3132,.6178-.5549,.145-.2407,.2117-.5116,.2011-.8103-.0126-.3374-.1286-.6274-.347-.8712-.2196-.2436-.5183-.4012-.8983-.4728Zm-1.9126-1.6177c.2501-.009,.5002-.0181,.7504-.0271l.0489-.0008c.2167,0,.3965,.0546,.537,.1635,.1518,.1169,.2311,.2794,.2387,.4882,.0088,.2348-.0646,.4206-.2194,.5579-.1557,.1374-.3703,.2107-.6469,.2214-.2188,.0077-.4376,.0155-.6565,.0233-.0175-.4755-.0349-.9508-.0523-1.4263Zm1.8314,3.508c-.176,.1392-.4399,.2147-.7929,.2282-.3004,.011-.6008,.0219-.9012,.0329-.0184-.5089-.0367-1.0178-.0551-1.5267,.3271-.0118,.6543-.0239,.9814-.0357,.0253-.001,.05-.0015,.0745-.0015,.2673,0,.4853,.0584,.6536,.1736,.1838,.1267,.2805,.3045,.2881,.5337,.0097,.2573-.0734,.4564-.2484,.5957Z"/><path class="cls-1" d="M37.9615,48.6431c-.3877-.3307-.8295-.5366-1.3266-.6169-.1571-.0253-.316-.038-.4767-.038-.3474,0-.7028,.0593-1.0664,.1783-.554,.1807-1.0065,.4553-1.3585,.8237-.352,.3683-.5811,.7987-.6884,1.2927-.1074,.4932-.0842,.9748,.0687,1.4456,.1594,.4882,.4263,.8934,.8005,1.2183,.3742,.3239,.817,.5298,1.3266,.6178,.1727,.0301,.3464,.0451,.5213,.0451,.3428,0,.6902-.0576,1.0422-.1729,.5395-.1759,.9873-.4475,1.343-.815,.3568-.3663,.5908-.7956,.703-1.2869,.1122-.4912,.0899-.9765-.0667-1.4571-.1605-.4922-.435-.904-.8219-1.2347Zm-.2919,3.0138c-.2311,.4419-.6101,.7493-1.1371,.9215-.228,.074-.451,.1113-.669,.1113-.1149,0-.2284-.0103-.3405-.0309-.3249-.0592-.6081-.1992-.8518-.4216-.2427-.2214-.4206-.5028-.5318-.8431-.1113-.3432-.1373-.6749-.0764-.994,.062-.3201,.207-.6005,.4351-.8422,.2292-.2417,.5183-.4196,.8664-.5328,.229-.0751,.4535-.1125,.6734-.1125,.1143,0,.2272,.0101,.339,.0303,.3268,.0589,.612,.1992,.8536,.4225,.2427,.2235,.4197,.5057,.5309,.8461,.1701,.5222,.1401,1.0046-.0919,1.4455Z"/><polygon class="cls-1" points="42.6868 45.0501 42.2294 44.3743 38.1849 47.1058 38.6422 47.7826 40.2318 46.7084 42.799 50.5092 43.6643 49.9252 41.0972 46.1243 42.6868 45.0501"/><polygon class="cls-1" points="46.3842 40.9544 45.7711 40.4168 42.5533 44.087 43.1674 44.6247 44.432 43.1821 47.8809 46.2065 48.5694 45.4213 45.1205 42.397 46.3842 40.9544"/><polygon class="cls-1" points="50.6124 41.0549 49.2568 40.3346 50.3571 38.2654 49.6369 37.8815 48.5365 39.9517 47.2834 39.2855 48.432 37.1235 47.7118 36.7406 46.0729 39.8241 50.8435 42.3602 52.5075 39.2284 51.7871 38.8456 50.6124 41.0549"/><polygon class="cls-1" points="48.3712 34.8967 48.1681 35.7911 53.4376 36.9852 53.6629 35.9893 49.926 35.1424 54.3775 32.8401 54.5758 31.9646 49.3071 30.7696 49.0809 31.7655 52.758 32.6003 48.3712 34.8967"/><path class="cls-1" d="M51.61,26.0116c.063,0,.1273-.0055,.1927-.0166,.2949-.0502,.5269-.1953,.6952-.436,.1682-.2399,.2272-.5057,.1778-.7948-.0502-.2979-.1953-.5309-.4341-.699-.185-.1298-.3855-.1953-.6016-.1953-.064,0-.1293,.0057-.196,.0172-.295,.0494-.5271,.1943-.6971,.4323-.1701,.2378-.2301,.5057-.1788,.8036,.0492,.2919,.1953,.523,.4369,.6922,.1872,.1311,.3889,.1965,.605,.1965Z"/><path class="cls-1" d="M28.7489,46.9916c10.0751,0,18.2434-8.1673,18.2434-18.2424S38.824,10.5062,28.7489,10.5062,10.5065,18.6741,10.5065,28.7492s8.1674,18.2424,18.2424,18.2424Zm-16.2919-11.359c-.452-1.0685-.7976-2.182-1.0301-3.3187-.2398-1.1719-.3592-2.3684-.3592-3.5646s.1194-2.3928,.3592-3.5647c.2325-1.1366,.5781-2.2502,1.0301-3.3188,.4443-1.0505,.9915-2.0576,1.6301-3.0026,.6342-.9384,1.3586-1.8158,2.1593-2.6167,.8009-.8009,1.6782-1.5252,2.6165-2.1594,.9451-.6386,1.9521-1.1858,3.0026-1.6302,1.0685-.4521,2.1821-.7978,3.3188-1.0302,1.1719-.2397,2.3683-.3592,3.5646-.3592s2.3927,.1195,3.5647,.3592c1.1366,.2325,2.2503,.5782,3.3188,1.0302,1.0506,.4443,2.0576,.9916,3.0026,1.6302,.9384,.6342,1.8159,1.3585,2.6168,2.1594,.8009,.8009,1.5253,1.6782,2.1594,2.6167,.6387,.945,1.1858,1.9521,1.6303,3.0027,.4521,1.0685,.7977,2.182,1.0303,3.3187,.2397,1.1719,.359,2.3684,.359,3.5647s-.1194,2.3928-.359,3.5646c-.2326,1.1366-.5782,2.2502-1.0303,3.3187-.4445,1.0505-.9916,2.0574-1.6303,3.0025-.6342,.9384-1.3586,1.8158-2.1594,2.6165-.801,.8009-1.6783,1.5252-2.6167,2.1593-.9451,.6387-1.9522,1.1858-3.0028,1.6302-1.0685,.452-2.1822,.7976-3.3188,1.0301-1.172,.2398-2.3684,.3592-3.5648,.3592s-2.3928-.1194-3.5646-.3592c-1.1366-.2325-2.2502-.5781-3.3188-1.0301-1.0506-.4443-2.0575-.9915-3.0026-1.6302-.9387-.6344-1.8154-1.3582-2.6165-2.1592-.8008-.8009-1.5252-1.6782-2.1593-2.6165-.6386-.9452-1.1857-1.9521-1.6301-3.0026Z"/><path class="cls-2" d="M28.7495,57.0954C13.1188,57.0954,.4032,44.3789,.4032,28.7487S13.1188,.4025,28.7495,.4025s28.3452,12.716,28.3452,28.3462-12.7155,28.3467-28.3452,28.3467ZM28.7495,.9643C13.4291,.9643,.964,13.4284,.964,28.7487s12.4651,27.7849,27.7854,27.7849,27.7845-12.4641,27.7845-27.7849S44.0698,.9643,28.7495,.9643Z"/><g><path class="cls-1" d="M8.7349,12.702l3.5996,1.1885-1.5791-3.4287,.7324-.813,2.4668,5.4365-.2432,.27-5.7148-1.8345,.7383-.8188Z"/><path class="cls-1" d="M14.3433,7.5585l3.1377,4.3984-.8496,.6064-3.1377-4.3984,.8496-.6064Z"/><path class="cls-1" d="M17.9107,5.4701l4.3613,2.3447-1.3711-3.5122,.9502-.3716,1.9658,5.0327-.8359,.3267-4.4023-2.3955,1.3945,3.5703-.9512,.3711-1.9658-5.0327,.8545-.3335Z"/><path class="cls-1" d="M27.8423,3.1385c.5625-.0151,1.0654,.0859,1.5098,.3032,.4443,.2178,.793,.5303,1.0469,.939,.2539,.4082,.3877,.8716,.4014,1.3896,.0146,.5283-.0947,1-.3271,1.415s-.5693,.7412-1.0117,.9775-.9541,.3623-1.5342,.3779l-2.1992,.0601-.1475-5.4009,2.2617-.0615Zm.0166,4.5879c.5771-.0156,1.0361-.2012,1.376-.5576,.3398-.356,.502-.8149,.4863-1.377-.0156-.5825-.2041-1.0376-.5645-1.3657-.3613-.3281-.8398-.4844-1.4346-.4683l-1.0752,.0293,.1025,3.7695,1.1094-.0303Z"/><path class="cls-1" d="M37.3052,4.5209l-.2158,.7871-2.3613-.6484-.376,1.3687,2.2607,.6206-.2168,.7871-2.2598-.6206-.4062,1.4805,2.4121,.6626-.2158,.7871-3.4199-.9395,1.4316-5.21,3.3672,.9248Z"/><path class="cls-1" d="M41.0826,6.2836l-2.2998,3.9683,2.2686,1.3149-.4092,.7061-3.1719-1.8384,2.709-4.6748,.9033,.5239Z"/><path class="cls-1" d="M46.3248,10.0458l-.5664,4.9199,2.7568-2.5732,.6973,.7466-3.9502,3.6865-.6123-.6558,.5986-4.9761-2.8018,2.6152-.6973-.7461,3.9502-3.687,.625,.6699Z"/></g></g><path d="M29.2913,12.2864c.0959,0,.1475-.0408,.2056-.0594,.048-.0153,.1116-.0062,.1116-.0281,0-.0483-.142-.0874-.3171-.0874s-.3171,.0391-.3171,.0874,.142,.0875,.3171,.0875Z"/><path d="M28.5106,12.2864c.1751,0,.3171-.0392,.3171-.0875s-.142-.0874-.3171-.0874-.3171,.0391-.3171,.0874c0,.0265,.0862,.0083,.1537,.0244,.0555,.0132,.0843,.0631,.1635,.0631Z"/><path d="M28.8957,12.1373c.0759,0,.1375-.0903,.1375-.2017,0-.061-.0641-.0938-.0933-.1307-.0241-.0305-.0098-.071-.0441-.071-.0759,0-.1375,.0903-.1375,.2017,0,.1115,.0615,.2017,.1375,.2017Z"/><path d="M24.6534,20.9696v.3926h-.0335v2.7086l2.1337-2.3974,2.1337-2.4258,.0135,.0146,2.088,2.3727,2.088,2.3444v-2.6171h-.0339v-.3925c.0903-.033,.1607-.0816,.1607-.1489,0-.0673-.0704-.1159-.1607-.1489v-.3673h-.313v.3674c-.0903,.0329-.1606,.0815-.1606,.1488s.0703,.1158,.1606,.1489v.3926h-.9377l-2.7314-8.5007c.0942-.0282,.1683-.071,.1683-.1311,0-.0717-.1019-.1215-.2286-.1418v-.254h-.1783v.2536c-.126,.0209-.2273,.0707-.2273,.1422,0,.0573,.0674,.0992,.1546,.1282l-2.7298,8.5037h-1.0533v-.3925c.0906-.033,.161-.0816,.161-.149,0-.0673-.0704-.116-.161-.1489v-.3672h-.3129v.3674c-.0903,.033-.1603,.0815-.1603,.1487s.0701,.1157,.1603,.1488Z"/><polygon points="24.6555 43.356 24.6555 43.3562 24.7487 43.3562 24.7906 43.3562 24.7906 43.356 24.7487 43.356 24.6555 43.356"/><path d="M28.8953,43.1122h1.3357v-2.5441c-.4324-.1995-.8837-.299-1.3357-.3013v2.8454Z"/><path d="M27.5267,43.1122h1.3345v-2.8449c-.4505,.0027-.9014,.1015-1.3345,.3008v2.5441Z"/><path d="M29.4588,39.4227c0-.07-.0166-.1365-.0441-.1978-.0255-.0569-.0792-.095-.1236-.1401-.0181-.0184-.0297-.0412-.0504-.0571-.0136-.0152-.0284-.0288-.0443-.0422-.091-.0552-.1987-.0897-.316-.0897s-.2251,.0345-.316,.0897c-.0158,.0134-.0306,.027-.0443,.0422-.0207,.0159-.0323,.0387-.0504,.0571-.0444,.045-.0981,.0831-.1236,.1401-.0275,.0613-.044,.1277-.044,.1978,0,.2902,.2596,.5268,.5782,.5268s.5783-.2366,.5783-.5268Zm-.5783,.437c-.2642,0-.4785-.1963-.4785-.437,0-.0723,.024-.1376,.0583-.1978,.0324-.057,.0844-.1006,.1389-.1401,.0793-.0576,.1718-.0991,.2814-.0991s.202,.0415,.2814,.0991c.0544,.0395,.1064,.0831,.1389,.1401,.0342,.0602,.0583,.1255,.0583,.1978,0,.2407-.2143,.437-.4785,.437Z"/><path d="M25.9078,29.7576c.0732,0,.1348-.0464,.1738-.1313,.0127-.0293,.0439-.0488,.0781-.0488,.0352,0,.0654,.019,.0781,.0483,.0381,.085,.1006,.1318,.1758,.1318,.1162,0,.2109-.0898,.2109-.2002,0-.1035-.085-.1909-.1934-.1997l-.0039-.0005-.0049,.0015c-.04,.0083-.0732-.0034-.0928-.0366-.0146-.0239-.0156-.0532-.0039-.0757l.0254-.0396c.0127-.021,.0195-.0332,.0195-.0464,0-.1104-.0947-.2002-.2109-.2002s-.2109,.0898-.2109,.2002c0,.0142,.0078,.0278,.0264,.0557l.0176,.0283c.0137,.0244,.0127,.0542-.002,.0776-.0117,.0195-.0352,.0513-.0928,.0366l-.0049-.0015-.0039,.0005c-.1084,.0093-.1924,.0967-.1924,.1997,0,.1104,.0947,.2002,.2109,.2002Zm-.0186-.3428c.0586,.0122,.1172-.0098,.1504-.0635,.0244-.04,.0264-.0913,.002-.1353l-.0195-.0312-.0166-.0244c0-.0791,.0693-.1436,.1543-.1436s.1543,.0645,.1553,.1392l-.0127,.022-.0244,.0396c-.0234,.0415-.0225,.0928,.0029,.1343,.0342,.0532,.0918,.0742,.1504,.063,.0771,.0078,.1367,.0698,.1367,.1426,0,.0791-.0693,.1436-.1543,.1436-.0664,0-.1035-.0537-.123-.0986-.0225-.0493-.0732-.0815-.1309-.0815-.0566,0-.1084,.0332-.1299,.0825-.0205,.0444-.0586,.0977-.1221,.0977-.085,0-.1543-.0645-.1543-.1436,0-.0723,.0596-.1343,.1357-.1426Z"/><path d="M25.9078,29.9715c.0928,0,.1797-.0308,.252-.0889,.0713,.0581,.1592,.0889,.2539,.0889,.2412,0,.4375-.1855,.4375-.4141,0-.1631-.0986-.3081-.2539-.376l.001-.021c0-.2285-.1963-.4141-.4385-.4141-.2412,0-.4375,.1855-.4375,.4141l.001,.022c-.1543,.0679-.2529,.2129-.2529,.375,0,.2285,.1963,.4141,.4375,.4141Zm-.1436-.7451l.0234-.0088-.0059-.0239c-.002-.0093-.0029-.02-.0029-.0332,0-.1973,.1709-.3574,.3809-.3574,.2109,0,.3818,.1602,.3818,.3574,0,.0127-.001,.0229-.0029,.0317l-.0059,.0244,.0234,.0088c.1445,.0552,.2383,.1855,.2383,.332,0,.1973-.1709,.3574-.3809,.3574-.0889,0-.1699-.0312-.2344-.0903l-.0195-.0171-.0186,.0171c-.0664,.0591-.1465,.0903-.2334,.0903-.21,0-.3809-.1602-.3809-.3574,0-.1455,.0938-.2759,.2373-.3311Z"/><path d="M31.3443,29.7845c.0752,0,.1377-.0469,.1748-.1323,.0137-.0293,.0439-.0479,.0791-.0479,.0342,0,.0654,.0195,.0791,.0493,.0381,.0845,.0996,.1309,.1729,.1309,.1162,0,.2109-.0898,.2109-.2002,0-.103-.084-.1904-.1924-.1997l-.0039-.0005-.0049,.0015c-.04,.0078-.0771-.0122-.0928-.0366-.0146-.0234-.0156-.0532-.0039-.0757l.0234-.0361c.0146-.0225,.0225-.0356,.0225-.0498,0-.1104-.0947-.2002-.2109-.2002s-.2109,.0898-.2109,.2002c0,.0127,.0068,.0244,.0176,.0435l.0264,.041c.0127,.0239,.0117,.0532-.0029,.0767-.0215,.0327-.0537,.0449-.0938,.0366l-.0039-.001-.0039,.0005c-.1084,.0088-.1934,.0962-.1934,.1997,0,.1104,.0947,.2002,.2109,.2002Zm-.0176-.3428c.0117,.002,.0225,.0029,.0322,.0029,.0488,0,.0908-.0229,.1182-.0664,.0254-.041,.0264-.0923,.002-.1353l-.0254-.041-.0098-.0146c0-.0791,.0693-.1436,.1543-.1436s.1543,.0645,.1553,.1387l-.0176,.0303-.0215,.0322c-.0225,.042-.0205,.0933,.0039,.1338,.0332,.0513,.0859,.0742,.1504,.063,.0762,.0083,.1357,.0703,.1357,.1426,0,.0776-.0703,.1436-.1543,.1436-.0635,0-.1016-.0532-.1211-.0972-.0225-.0498-.0742-.083-.1309-.083s-.1084,.0317-.1309,.0815c-.0195,.0449-.0566,.0986-.123,.0986-.085,0-.1543-.0645-.1543-.1436,0-.0728,.0596-.1348,.1367-.1426Z"/><path d="M31.3443,29.9984c.0947,0,.1816-.0308,.2539-.0889,.0713,.0576,.1602,.0889,.252,.0889,.2412,0,.4375-.1855,.4375-.4141,0-.1621-.0986-.3071-.2529-.3755l.001-.0215c0-.2285-.1963-.4141-.4375-.4141-.2422,0-.4385,.1855-.4385,.4141l.001,.021c-.1553,.0674-.2539,.2124-.2539,.376,0,.2285,.1963,.4141,.4375,.4141Zm-.1426-.7461l.0234-.0088-.0059-.0244c-.002-.0088-.0029-.019-.0029-.0317,0-.1973,.1709-.3574,.3818-.3574,.21,0,.3809,.1602,.3809,.3574,0,.0137-.001,.0234-.0029,.0322l-.0059,.0244,.0234,.0088c.1436,.0557,.2373,.186,.2373,.3315,0,.1973-.1709,.3574-.3809,.3574-.0879,0-.168-.0312-.2324-.0903l-.0195-.0176-.0195,.0176c-.0645,.0591-.1455,.0903-.2344,.0903-.21,0-.3809-.1602-.3809-.3574,0-.147,.0938-.2773,.2383-.332Z"/><path d="M30.0601,32.2244c0-.6499-.5293-1.1787-1.1797-1.1787s-1.1797,.5288-1.1797,1.1787c0,.6504,.5293,1.1792,1.1797,1.1792s1.1797-.5288,1.1797-1.1792Zm-1.1797,1.0884c-.322,0-.6038-.1465-.803-.3693-.1724-.1927-.2849-.4408-.2849-.7191,0-.2781,.1126-.5262,.285-.7189,.1992-.2226,.4809-.369,.8029-.369s.6038,.1465,.803,.3693c.1722,.1926,.2849,.4406,.2849,.7186,0,.2782-.1125,.5262-.2847,.7188-.1992,.2229-.481,.3696-.8032,.3696Z"/><path d="M29.8987,32.179c-.011-.2382-.1039-.4597-.2667-.6364l.0062-.0062-.0322-.0322-.0322-.0317-.0062,.0062c-.0836-.0757-.1754-.1394-.2765-.1835-.1143-.0497-.2375-.0742-.3647-.0799v-.009h-.0918v.009c-.1277,.0057-.251,.0302-.3652,.0799-.1011,.0441-.1927,.1078-.276,.1834l-.0062-.0062-.0322,.0317-.0322,.0322,.0062,.0062c-.1627,.1768-.2557,.3983-.2667,.6364h-.0091v.0908h.0091c.0109,.2385,.1039,.46,.2667,.6364l-.0062,.0062,.0322,.0322,.0322,.0317,.0062-.0062c.0833,.0756,.1748,.1396,.2758,.1837,.1143,.0499,.2377,.0744,.3654,.0801v.009h.0918v-.009c.1272-.0057,.2504-.0302,.3646-.08,.1011-.0441,.1929-.108,.2766-.1838l.0062,.0062,.0322-.0317,.0322-.0322-.0062-.0062c.1627-.1765,.2557-.3979,.2667-.6364h.0091v-.0908h-.0091Zm-.3259-.5776c.1475,.1602,.2324,.3623,.2422,.5776h-.4004c-.0011-.0122-.0118-.0209-.0137-.033-.0131-.0849-.0455-.1623-.0966-.2311-.0072-.0097-.0058-.0235-.0137-.0328l.2708-.2694,.0114-.0114Zm-.3779,.9351c-.168,.167-.4609,.167-.6289,0-.084-.083-.1299-.1938-.1299-.312,0-.1177,.0459-.2285,.1299-.3115,.084-.0835,.1963-.1294,.3145-.1294s.2305,.0459,.3145,.1294c.084,.083,.1299,.1938,.1299,.3115,0,.1182-.0459,.229-.1299,.312Zm.3135-.999l-.0114,.0114-.2712,.2692c-.0092-.0078-.0226-.0062-.0323-.0132-.0701-.0511-.1495-.0838-.2346-.0967-.0118-.0018-.0206-.0124-.0326-.0134v-.3965c.2168,.0103,.4209,.0942,.582,.2393Zm-1.2559,0c.1602-.145,.3643-.229,.582-.2393v.3965c-.012,.001-.0208,.0117-.0326,.0134-.0859,.0129-.1645,.0452-.2346,.0967-.0096,.0071-.0231,.0055-.0323,.0132l-.2712-.2692-.0114-.0114Zm-.0645,.064l.0114,.0114,.2708,.2694c-.0079,.0093-.0065,.0231-.0137,.0328-.0511,.0688-.0835,.1462-.0966,.2311-.0019,.012-.0126,.0208-.0137,.033h-.4004c.0098-.2153,.0947-.4175,.2422-.5776Zm-.2422,.6685h.4004c.0011,.0122,.0118,.0209,.0137,.033,.0133,.0845,.046,.1629,.0966,.2314,.0072,.0098,.0059,.0237,.0137,.033l-.2822,.2803c-.1475-.1597-.2324-.3618-.2422-.5776Zm.3066,.6421l.1385-.1378,.144-.1428c.0092,.0078,.0227,.0062,.0323,.0133,.0701,.0511,.1495,.0838,.2346,.0967,.0118,.0018,.0206,.0124,.0326,.0134v.3965c-.2178-.0103-.4219-.0942-.582-.2393Zm.6738,.2393v-.3965c.012-.001,.0208-.0117,.0326-.0134,.0859-.0129,.1645-.0452,.2346-.0967,.0096-.0071,.0231-.0056,.0323-.0133l.2825,.2802c-.1611,.1455-.3652,.2295-.582,.2397Zm.6465-.3037l-.2822-.2803c.0079-.0093,.0065-.0232,.0137-.033,.0511-.069,.0834-.1464,.0966-.2314,.0019-.012,.0126-.0208,.0137-.033h.4004c-.0098,.2158-.0947,.418-.2422,.5776Z"/><path d="M29.097,37.2517l-.0045-.0005-.0034,.001c-.0283,.0043-.0601-.0043-.0737-.0233-.0102-.0151-.0114-.0324-.0023-.0459l.0192-.0275c.0114-.0157,.017-.0249,.017-.0352,0-.0778-.076-.1415-.1701-.1415-.0941,0-.17,.0637-.17,.1415,0,.0119,.0079,.0233,.0215,.0427l.0068,.0092,.0079,.0098c.0091,.0145,.0091,.0312-.0023,.0459-.0125,.0178-.0419,.033-.0726,.0237l-.0045-.001-.0045,.0005c-.0873,.007-.1542,.0675-.1542,.141,0,.0778,.076,.1416,.1701,.1416,.059,0,.11-.033,.1406-.0919,.0238-.0384,.1032-.0368,.1225,.0011,.0317,.0583,.0805,.0908,.1395,.0908,.0941,0,.17-.0638,.17-.1416,0-.0729-.0657-.1334-.1531-.1405Zm-.017,.2345c-.0397,0-.0726-.0215-.0953-.0643-.0181-.0352-.059-.0583-.1055-.0583-.0453,0-.085,.0216-.1043,.0567-.0238,.0438-.0567,.0659-.0975,.0659-.0658,0-.1202-.0427-.1202-.094,0-.047,.0454-.0875,.1044-.0941,.0453,.0119,.0975-.007,.1224-.0432,.0227-.0298,.0227-.0692,.0012-.1l-.0068-.0092-.0079-.0103-.0114-.0151c0-.0519,.0533-.0941,.1202-.0941,.067,0,.1202,.0422,.1213,.0892l-.009,.0146-.0204,.027c-.0193,.0308-.0181,.067,.0034,.0983,.0215,.0286,.059,.0454,.0986,.0454l.0227-.0022c.0601,.006,.1043,.046,.1043,.0935,0,.0519-.0533,.094-.1202,.094Z"/><path d="M29.2297,37.1317l.0011-.0114c0-.1589-.1576-.288-.3515-.288s-.3515,.1292-.3515,.288l.0012,.0108c-.1236,.0476-.2029,.1481-.2029,.261,0,.1589,.1576,.2885,.3515,.2885,.0748,0,.144-.0211,.2018-.061,.059,.04,.127,.061,.2007,.061,.1938,0,.3515-.1296,.3515-.2885,0-.1118-.0782-.2123-.2018-.2604Zm-.1497,.5015c-.0681,0-.1327-.0211-.1848-.0616l-.0159-.0119-.0159,.0119c-.0521,.0405-.1157,.0616-.1859,.0616-.1667,0-.3016-.1081-.3016-.241,0-.0984,.0737-.1859,.1882-.2237l.0215-.007-.0057-.0211-.0023-.02c0-.1329,.1349-.2404,.3016-.2404s.3016,.1075,.3016,.2404l-.0023,.0205-.0057,.0211,.0215,.007c.1134,.0378,.1871,.1253,.1871,.2231,0,.1329-.1349,.241-.3016,.241Z"/><path d="M28.8802,25.1385c-.2011,0-.3546,.1143-.3738,.256-.1052,.0354-.2068,.082-.3024,.142v2.2003h1.3527v-2.2003c-.0956-.06-.1973-.1065-.3025-.142-.0191-.1416-.1727-.2561-.3739-.2561Z"/><path d="M26.766,25.1385c-.2011,0-.3546,.1143-.3738,.256-.1052,.0354-.2068,.082-.3025,.142v2.2003h1.3527v-2.2003c-.0956-.06-.1973-.1065-.3025-.142-.0191-.1416-.1727-.2561-.3739-.2561Z"/><path d="M30.9944,25.1385c-.2011,0-.3546,.1143-.3738,.256-.1052,.0354-.2068,.082-.3024,.142v2.2003h1.3527v-2.2003c-.0956-.06-.1973-.1065-.3024-.142-.0192-.1416-.1727-.2561-.374-.2561Z"/><path d="M27.7921,23.2652h0c.09,.5234,.5166,.9249,1.0587,.9512,.0187,.0009,.0345,.0108,.0534,.0108,.0189,0,.0345-.0098,.0532-.0107,.543-.0262,.97-.4278,1.0599-.9512h0c.0053-.0308,.0156-.0593,.0184-.0908h0c.003-.0337,.0197-.0626,.0197-.097,0-.1543-.0327-.3007-.0881-.4353-.0854-.2076-.2405-.3688-.4232-.4948-.1855-.128-.3978-.2201-.6399-.2201-.241,0-.4525,.0917-.6375,.219-.1833,.126-.3387,.2875-.4244,.4958-.0554,.1346-.0882,.2811-.0882,.4354,0,.0344,.0167,.0633,.0197,.0969h0c.0027,.0315,.0131,.0601,.0184,.0908Zm.2474-.1403h-.1907v-.0947h.1907v.0947Zm1.3406-.9081l-.0348,.2371-.0068,.0129-.3134,.5944,.0754,.0419,.3494,.194,.1,.1864-.0054-.0002-.1861-.0059-.4277-.2375-.1015,.1926-.0938-.0535-.0417-.0237,.0398-.0755,.0609-.1155-.231-.1282-.0327-.0181,.0916-.1803,.2662,.1478,.321-.6089,.1623-.1628,.0081,.0031Zm-.428,1.7257v.1058h-.0958v-.1058h.0958Zm0-1.8162v.0855h-.0958v-.1899h.0958v.1044Zm0,2.0061h-.0958v-.084h.0958v.084Zm.8179-1.0076v-.0947h.1906v.0947h-.1906Z"/><path d="M27.5591,22.8871v1.5511h2.6911v-2.6903h-2.6911v1.1392Zm1.3451-1.0741c.4583,0,.8428,.2578,1.0645,.624,.1155,.1907,.1999,.4017,.1999,.6405,0,.0138-.0074,.0252-.0079,.0389-.0157,.4876-.3067,.9018-.7246,1.0984-.163,.0767-.3402,.1266-.5319,.1266-.1927,0-.3704-.0507-.5339-.1282-.4162-.1971-.7057-.6102-.7215-1.0967-.0004-.0138-.0079-.0253-.0079-.0391,0-.2391,.0845-.4503,.2001-.6412,.2216-.3657,.6053-.6233,1.0632-.6233Z"/><path d="M37.5149,39.6767v-1.6951l-.6508-1.5463v-3.3837h-.2369v-.4619c.0906-.033,.161-.0816,.161-.149,0-.0674-.0704-.1161-.161-.149v-.3672h-.313v.3674c-.0902,.033-.1603,.0816-.1603,.1489,0,.0672,.0701,.1157,.1603,.1488v.462h-1.7321l-.5278-.4042v-.7321l-.8062-1.5991v-1.7605h.2834l-.2834-.3141-.0129-3.5172,.287-.1039-.4454-.5031-.768-.8676-1.5957-1.8025-1.826-2.0627-1.8245,2.0627-1.5419,1.7432-.9007,1.0182-.3643,.4118,.2739,.0927-.0201,3.5941-.2803,.3057h.2803v1.37h-.9619l-1.2586,1.6033v1.5045h-1.0092v-.5021c.0906-.033,.161-.0816,.161-.149,0-.0674-.0704-.1161-.161-.149v-.3672h-.313v.3674c-.0902,.033-.1603,.0816-.1603,.1489,0,.0672,.0701,.1157,.1603,.1488v.5023h-.2365l.0095,3.2361-.7707,1.6036-.0125,1.7463-.6403,1.3335-.0068,1.9117h1.3698v.4091h.2205v0h4.916v.1939h6.1263v-.2222h1.144v.0024h.1475v-.0024h3.625v-.4091h1.33v-1.8463l-.6736-1.3706Zm-17.9243,1.3896l.2645-.7103v2.409h-.2645v-1.6987Zm.3212-.8624l.1755-.4711,.0068-1.7243,.1498-.2775v5.034h-.3322v-2.5611Zm.3888-2.5778l.1796-.3325v5.4714h-.1796v-5.1389Zm.2362-.4374l.0496-.0918v5.668h-.0496v-5.5762Zm.1447,5.5762h-.0385v-5.7729l.0385-.0712v5.8441Zm.3538-7.3773l.2316-.22v7.9654h-.226l-.0056-7.7454Zm.2882-.2738l.4289-.4074v8.4266h-.4289v-8.0192Zm.4443-.4221l.2394-.2274v8.6687h-.1982v-8.4797l-.0412,.0383Zm.296-.2812l.1043-.0991v8.8216h-.1043v-8.7225Zm.2085,8.7225h-.0475v-8.8754l.0475-.0452v8.9206Zm2.1359-2.1908h-.164v-9.2705l.164,.0002v9.2703Zm-.4638-7.3079v-1.7617l.1156-.2012h.1276v9.2707h-.7459v-1.145l-.0007-3.2797,.1934-1.1077,.0219-.1253,.281-1.6093,.0071-.0408Zm-.1951-.018l-.0747,.366v-2.311h.1931l-.1194,.2159,.001,1.7291Zm-.1353-1.9451h0v2.6078l-.1376,.6743v-3.2822h.1376Zm-.6104-.0004v4.8739l-.4503,.0022v-2.6469l-.0005-2.2296,.4507,.0004Zm.1572,9.2715h-.026l-.0527,.1481-.3336,.9374h.4124v1.1052h-.6074v-5.8093h.6074v3.6185Zm0-4.3983l-.0966,.0005v-4.8736l.3516,.0002h0v3.579l-.255,1.2495v.0444Zm.2,6.5891v-1.1052h.3632v1.1052h-.3632Zm.4199-1.1052h.2748v1.1052h-.2748v-1.1052Zm.3314,0h.1552v1.1052h-.1552v-1.1052Zm.4139,1.1052h-.202v-1.1052h.202v1.1052Zm0-11.2341v9.0433h-.0612v-9.2703h.0612v.2269Zm8.4828,.063v1.6033h-.671v-1.6033h.671Zm-.0419-4.0101h-8.1764v-3.2634h8.1764v3.2634Zm-8.1929-3.4486l.0111-.0125,2.7672-3.1287,1.3347-1.509,1.3362,1.509,2.3197,2.6197,.4507,.509,.011,.0125,.0396,.0447h-8.3099l.0396-.0447Zm.0165,4.1095h8.1764v1.6956h-.8266v6.0073h-.6747v-4.2845c0-1.8224-2.2779-2.7197-2.3743-2.7567l-.2131-.0829-.212,.0825c-.0991,.0452-2.3743,.9343-2.3743,2.7572v4.2845h-.6747v-6.0073h-.8209l-.0057-.0031v-1.6926Zm6.4595,9.1854l-.9484-1.2141h1.8386v1.2141h-.8903Zm-4.7427,0h-.8902v-1.2141h1.8375l-.9473,1.2141Zm2.7949-3.3551c-.0258-.1093-.1389-.2057-.305-.293v-.3248h-.2336v.3196c-.0935,.0474-.2492,.1346-.296,.2801-.0204,.038-.0238,.1556-.0238,.1566v.7345l-.3799,.4869v-1.2385c0-.001-.0023-.1-.0136-.1215-.0306-.1313-.1621-.2469-.39-.3435l-.0148-.0083-.0147,.0063c-.0079-.0005-.0215-.0005-.0329,.0039l-.0091,.0034-.0283,.0117-.0079,.0038c-.0862,.0425-.2869,.142-.3356,.3016-.0193,.0317-.0238,.1586-.0238,.1595v1.3671h-.1605v-3.4637c0-.1353,.0352-.7236,.0947-.8403,.2266-.895,1.1455-1.4595,1.4922-1.6719l.0303-.019c.0146-.0093,.1106-.064,.1448-.0806l.0848-.0404s.0702,.0336,.0771,.0316c1,.5347,1.5752,1.1611,1.709,1.8618,.0371,.0938,.0596,.5557,.0596,.6616l.0024,2.97v.5909h-.1559v-.1367h-.004v-1.2476c0-.001-.0023-.1-.0136-.1215-.0306-.1298-.1621-.2454-.39-.3435l-.0079-.0068-.0136,.0044-.0091,.0005c-.0068-.0005-.0215-.0005-.0329,.0039l-.0079,.0029-.0328,.0146c-.0794,.0386-.2892,.1411-.3402,.303-.0193,.0317-.0238,.1586-.0238,.1595v1.2266l-.3798-.4863v-.7574c0-.001-.0023-.1-.0136-.1215Zm-.2404-4.9232c1.0559,.466,1.7518,1.1686,1.9968,1.9009,.076,.1913,.1168,.5187,.1168,.7294v4.0433h-.0015v-.126h-.189v-3.7987c0-.1625-.0317-.5582-.0896-.7036-.1927-.7216-.8152-1.3574-1.8505-1.8887l-.1628-.0694s-.225,.105-.2352,.1113c-.0204,.0122-.0465,.0269-.0771,.0439-.364,.2073-1.3312,.7582-1.6532,1.6794-.0896,.1756-.144,.6772-.144,.8919v3.615h-.0129v.1188h-.1776v-3.8851c0-.2674,.0657-.6812,.1871-.9222,.2823-.6485,.9037-1.2184,1.8471-1.6946,.0283-.0142,.2489-.1216,.2489-.1216,0,0,.1343,.0483,.1967,.0758Zm-.034,.1805c1.0273,.5275,1.6453,1.1574,1.8358,1.8727,.0544,.1381,.0873,.5289,.0873,.6958v3.6799h-.2043v-3.5609c0-.1113-.0215-.5737-.0596-.6665-.1338-.7065-.7139-1.3379-1.7236-1.877l-.0813-.0325c-.0293,.0005-.2292,.1155-.2449,.1253l-.0322,.0195c-.3477,.2139-1.2715,.7822-1.5,1.6812-.0586,.1187-.0938,.7109-.0938,.8472l.0029,3.3946v.0692h-.2075v-3.615c0-.2123,.0533-.708,.1406-.8822,.3197-.9129,1.2801-1.4594,1.6407-1.6653,.0306-.0175,.0567-.0322,.0782-.0449,.0091-.0059,.2231-.1,.2231-.1l.1386,.059Zm1.7156,6.2456v-.2966l.0002,.2965h-.0002Zm-2.7451-.1339h-.7393v-1.2305c0-.0303,.0091-.1181,.0193-.139,.0443-.143,.2291-.2338,.3073-.2728l.0102-.0054,.0204-.0078,.0046-.0024h.0192c.2041,.0878,.3198,.1888,.3481,.3049,.0045,.0127,.0102,.081,.0102,.1054v1.2476Zm2.5036,0h-.7404v-1.2305c0-.0303,.009-.1181,.0192-.139,.0465-.1445,.2382-.2386,.3107-.2742l.0079-.0034v-.0005l.0204-.0083,.0034-.002h.0204c.203,.0888,.3198,.1898,.3481,.3049,.0045,.0127,.0102,.081,.0102,.1054v1.2476Zm.898,.3815h-.1746v-4.0433c0-.2142-.0419-.5479-.1191-.7421-.2483-.7426-.9688-1.4205-2.0233-1.9197-.0148-.0068-.2178-.0887-.2178-.0887,0,0-.2455,.1152-.2738,.1293-.9536,.4811-1.5829,1.0588-1.8675,1.7156-.1248,.2449-.1917,.666-.1917,.9378v4.011h-.1746v-4.1624c0-1.7863,2.241-2.6764,2.3363-2.713l.1735-.0738,.1829,.0665c.0952,.0366,2.3496,.9345,2.3496,2.7203v4.1624Zm-2.8903-1.6119c0-.0312,.0091-.1171,.017-.1322l.0034-.0068c.0349-.1115,.1465-.1821,.2336-.2299v.1479c-.1115,.029-.2006,.0822-.2006,.1586s.0891,.1296,.2006,.1587v.2283l-.254,.3256v-.6502Zm.4876,.0963c.1111-.0291,.2001-.0822,.2001-.1586,0-.0764-.0889-.1295-.2001-.1585v-.1439c.1286,.0735,.2205,.1524,.2426,.2422,.0045,.0127,.0102,.081,.0102,.1054v.6732l-.2528-.3237v-.2362Zm-4.2025-2.712h.6251v1.5994l-.0015,.0039h-.6236v-1.6033Zm.6418,11.1672h-.6237v-1.1052h.6237v1.1052Zm0-2.1908h-.6237v-4.3831h.607v2.7968l.0167,.0096v1.5766Zm.1973,2.1908v-3.6535l.1818,.1049v3.5486h-.1818Zm5.0212,0h-3.5969v-2.4158c0-.4375,.1729-.8528,.4869-1.2388,.2758-.3389,.6578-.6558,1.1623-.9374,.0151-.0083,.0411-.021,.0638-.0322,.0184-.0088,.0346-.0166,.0454-.0225,.0109-.0059,.0325-.0088,.0519-.0107,.0162-.0024,.0314-.0044,.0422-.0083,.3233,.163,.8973,.5048,1.3087,1.011,.2758,.3394,.4802,.7505,.4802,1.2388v2.4158h-.0446Zm.1474,0h-.0877v-2.4158c0-.4876-.2018-.899-.4755-1.2388-.4148-.515-.9982-.8612-1.3242-1.0252l-.0044-.002-.0032,.002c-.0086,.0039-.0249,.0063-.0411,.0083-.0217,.0024-.0444,.0054-.0585,.0132-.0097,.0054-.0259,.0132-.0443,.022-.0239,.0112-.0487,.0239-.065,.0327-.5101,.2847-.8966,.6055-1.1738,.9491-.3113,.386-.4818,.8015-.4818,1.2388v2.4158h-.1137v-2.4158c0-.4405,.1525-.8541,.4523-1.2388,.2962-.3796,.7359-.7311,1.3203-1.051l.013-.0068c.0118-.0073,.0487-.0239,.079-.0376,.0184-.0088,.0357-.0161,.0422-.02,.0076-.0015,.0357,0,.053,.002,.0249,.0024,.0422,.0039,.0519,.0015,.4288,.2132,1.0278,.5828,1.4358,1.1121,.2654,.3443,.4515,.7547,.4515,1.2388v2.4158h-.0259Zm.1531,0h-.0947v-2.4158c0-.483-.1819-.8938-.4436-1.2388-.4136-.5452-1.0297-.923-1.4664-1.1393l-.0065-.0044-.0076,.0039c-.0087,.0024-.0292-.001-.0444-.002-.0346-.0039-.0584-.0049-.0714,.002l-.0411,.019c-.0325,.0146-.0682,.0312-.0823,.0386l-.0118,.0068c-.5971,.3266-1.0448,.6862-1.3436,1.0754-.2952,.3847-.4452,.7983-.4452,1.2388v2.4158h-.0974v-2.4158c0-.3488,.1042-.7842,.4385-1.2388,.2836-.3856,.7302-.7849,1.4445-1.1584l.0411-.021c.0054-.0034,.0466-.021,.0736-.0327,.0228-.0103,.0455-.02,.0552-.0249,.0109,.001,.04,.0078,.0574,.0122,.0314,.0073,.0487,.0112,.0595,.0112l.0065,.0029c.3833,.1841,1.0891,.5886,1.5472,1.2106,.2546,.3456,.4354,.7563,.4354,1.2388v2.4158h-.0027Zm.1021,0h-.0518v-2.4158c0-.4818-.1777-.8918-.428-1.2388-.4636-.6426-1.1883-1.0596-1.5804-1.2482l-.0228-.0112-.0064,.0034c-.0098-.0015-.0314-.0063-.0466-.0103-.0606-.0137-.0779-.0181-.0887-.0093l-.0563,.0249c-.0444,.019-.0714,.0308-.0779,.0352l-.0389,.0204c-.7361,.3848-1.193,.7972-1.4792,1.195-.3268,.4543-.4286,.8892-.4286,1.2388v2.4158h-.0822v-2.4158c0-.4807,.1749-.8902,.4212-1.2388,.4675-.6616,1.2078-1.0912,1.6068-1.2843l.0325-.0156c.0086-.0044,.0724-.0312,.1125-.0479l.0238-.0098c.014,.0039,.0443,.0142,.0649,.021,.0357,.0122,.0541,.0186,.066,.021l.0065,.0029c.33,.1505,1.1554,.5906,1.6627,1.3126,.2445,.348,.4215,.7559,.4215,1.2388v2.4158h-.0305Zm.136,0h-.0428v-2.4158c0-.4816-.1722-.8891-.4111-1.2388-.514-.752-1.3687-1.2085-1.7077-1.3633l-.026-.0122-.0043,.0024-.0476-.0161c-.0866-.0293-.092-.0308-.106-.0234l-.0325,.0137c-.1017,.0424-.1147,.0483-.1169,.0497l-.0303,.0146c-.8585,.415-1.3535,.8923-1.6487,1.3345-.3444,.516-.4128,.9833-.4128,1.2388v2.4158h-.0747v-2.4158c0-.4805,.1659-.8889,.3988-1.2388,.6143-.9227,1.734-1.3992,1.7991-1.4258l.1483-.06,.1483,.0605c.065,.0269,1.1809,.5072,1.7963,1.4253,.2349,.3505,.4026,.759,.4026,1.2388v2.4158h-.0319Zm.2098,0h-.1151v-2.4158c0-.4776-.1613-.887-.3907-1.2388-.6217-.9534-1.7786-1.4496-1.845-1.477l-.1742-.0712-.1743,.0707c-.0666,.0271-1.2274,.519-1.8479,1.4775-.2274,.3511-.3868,.7604-.3868,1.2388v2.4158h-.4587v-3.7949l.1976-.2534,2.048-2.6258,.0114-.0146,.087-.1115,.0981-.1259,.0105-.0134,.0822-.1055,.016-.0205,.0906-.1161,.0021-.0027,.1066-.1367,.1165-.1494,.1166,.1494,.1068,.1367,.0021,.0027,.0907,.1161,.016,.0205,.0823,.1055,.0105,.0134,.0983,.1259,.0873,.1119,.0115,.0146,2.0502,2.6254,.1973,.2526v3.7957h-.3436Zm.5386,0v-3.5481l.1984-.1147v3.6628h-.1984Zm1.025,0h-.6293v-1.0987h.6293v1.0987Zm0-2.1843h-.6293v-4.3896h.6293v4.3896Zm1.3705-6.3575v.3472l-.0565-.2611-.0472-.2181-.0095-.0438-.0284-.1312v-1.139l.0284,.0264,.0056,.0052,.0511,.0475,.0565,.0526v1.3144Zm-.2832-1.5782l.0851,.0792v.9299l-.0851-.3935v-.6156Zm-.1666,.6337l.5023,2.8475v4.4545h-.7974v-9.5513l.2939,.5446v.7465l.0012,.9583Zm-.3517,7.302h-.1073v-9.855l.1073,.1988v9.6562Zm-.2357-9.1073v-.9856l.0717,.1329v9.96h-.0717v-9.1073Zm0,10.1929h.1558v1.0987h-.1558v-1.0987Zm.2125,0h.1552v1.0987h-.1552v-1.0987Zm.2119,0h.2748v1.0987h-.2748v-1.0987Zm.7486,1.0987h-.4171v-1.0987h.4171v1.0987Zm.0605-7.2872l-.0261-.1207-.1135-.5247h0v-1.8708l.066,.0615,.0474,.0442,.0135,.0126,.0432,.0402,.0291,.0271h0v2.6065l-.0291-.1346-.0305-.1412Zm.1363,.6304l-.02-.0926v-2.8157l.039,.0363,.1028,.0958,.0281,.0261v7.6265l-.0281-.0789-.038-.1068-.0777-.2182h-.0054l-.0007-4.4725Zm.0009,5.5581h.1489v1.0987h-.1487l-.0002-1.0987Zm.2056,0h.186l-.186-.5225h0v-7.7328l.046,.0428,.1525,.142,.0281,.0261v9.1431h-.2266v-1.0987Zm.5383,1.0987h-.2551v-9.0903l.0182,.0169,.1803,.168,.0514,.0479,.0052,.0049,.369,.3437h0v8.509h-.369Zm1.1216,0h-.696v-8.4562l.0851,.0792,.0409,.0381,.0157,.0146,.5768,.5373-.0226,7.7869Zm.2811-.3682v-5.8422l.0654,.1211v5.7211h-.0654Zm.122-5.6162l.0897,.1661v5.4501h-.0897v-5.6162Zm.1463,.271l.1573,.2913v5.054h-.1573v-5.3452Zm.2139,.3962l.1039,.1925v1.6873l.2214,.6028v2.4665h-.3254v-4.949Zm.6074,4.949h-.2254v-2.3123l.2254,.6136v1.6987Z"/></svg>