<?xml version="1.0" encoding="UTF-8"?><svg preserveAspectRatio="xMidYMid meet" id="a" xmlns="http://www.w3.org/2000/svg" width="30mm" height="30mm" viewBox="0 0 85.0394 85.0394"><defs><style>.b{fill:#fff;}.c{fill:#231f20;}</style></defs><g><path class="c" d="M9.7479,34.9821c-.0644,.276-.2137,.4863-.4476,.6308-.2341,.1445-.4879,.1849-.7618,.121-.2714-.0633-.4802-.2115-.6261-.4446-.146-.2331-.1867-.4878-.1223-.7639,.0627-.2691,.2108-.4772,.4442-.6243s.487-.1889,.7607-.125c.2691,.0629,.4776,.2115,.6257,.4464,.148,.2348,.1904,.4879,.1271,.7595Z"/><path class="c" d="M10.3793,42.8736l-3.1762,1.6145,3.3334,1.2165,.0571,1.0273-5.2603-1.9544-.019-.3412,5.0076-2.5972,.0573,1.0345Z"/><path class="c" d="M11.3125,50.1193l-4.4508,3.3184-.2309-1.0101,1.0874-.7892-.5032-2.2006-1.3142-.2031-.2293-1.0029,5.4173,.9093,.2236,.9782Zm-3.3046-.5572l.3654,1.5983,1.7685-1.2845-2.1339-.3138Zm4.0393-.5019c-.1204,.0274-.2397,.0061-.3575-.0638-.118-.0699-.1921-.1712-.2223-.3035-.0286-.1252-.0079-.2467,.0622-.3647,.0699-.118,.1699-.1916,.2998-.2214,.1276-.0293,.2491-.0061,.3645,.0694,.1155,.0755,.1876,.1759,.2162,.3011,.0291,.1276,.0073,.2493-.0657,.3656-.0729,.1161-.1719,.1886-.2972,.2172Zm.3994,1.747c-.1275,.0291-.2487,.0077-.3633-.0643-.1147-.072-.1866-.1719-.2158-.2995-.0286-.1252-.0082-.2453,.0611-.3607,.0693-.1152,.1702-.1881,.3025-.2183,.1276-.0291,.2486-.0077,.3634,.0643,.1145,.072,.1865,.1717,.2157,.2995,.028,.1227,.0057,.2427-.0668,.3602-.0727,.117-.1716,.1902-.2968,.2188Z"/><path class="c" d="M12.9754,54.9478c.1911,.4559,.2615,.9428,.2106,1.4609l-.8046,.3375c.0894-.6079,.0552-1.0995-.1021-1.475-.0957-.2277-.2145-.3874-.3567-.4791-.1422-.0915-.287-.1062-.4345-.0443-.1766,.0741-.2896,.262-.339,.5641-.0167,.0858-.0334,.3964-.0505,.9318-.0198,.4602-.1048,.8218-.2548,1.0845-.1501,.2627-.3804,.4592-.691,.5894-.4022,.1689-.7876,.1602-1.1559-.0256-.3683-.186-.6491-.5089-.8422-.9693-.1256-.2995-.2005-.5711-.2252-.8143s-.0125-.5329,.0359-.8685l.8917-.3741c-.2058,.675-.2158,1.2336-.0303,1.6762,.0929,.2214,.2159,.3799,.3692,.4761,.1533,.0959,.3092,.1107,.468,.0441,.2167-.0908,.3436-.2835,.3806-.5777,.0247-.2416,.0468-.549,.0664-.9224,.0129-.4393,.0929-.7967,.2399-1.0725,.1471-.276,.3681-.4756,.6631-.5995,.3934-.1649,.7682-.1501,1.1246,.0448,.3563,.1949,.6352,.5324,.8368,1.0129Z"/><path class="c" d="M16.4772,61.4474l-.6507,.4062-.9547-1.5296-3.6575,2.2827-.5196-.8328,3.6575-2.2825-.9545-1.5299,.6506-.406,2.4289,3.8918Z"/><path class="c" d="M19.5446,65.018l-.5759,.5066-1.5204-1.7273-1.0015,.8816,1.4555,1.6537-.5757,.5066-1.4556-1.6535-1.0832,.9534,1.5539,1.7656-.5758,.5068-2.2024-2.5022,3.8121-3.3555,2.1688,2.4642Z"/><path class="c" d="M22.2372,67.4149c.37,.3016,.5881,.6499,.6541,1.0446,.0659,.3945-.0349,.7561-.3029,1.0849-.1822,.2235-.3988,.3713-.6499,.4435-.2509,.072-.5292,.0633-.8346-.0263,.0706,.1703,.1074,.3534,.1102,.5495,.0026,.1961-.0361,.4911-.1167,.8851-.1485,.6731-.2379,1.1473-.2684,1.4227l-.8481-.6912c.0122-.1339,.0457-.3363,.101-.6072,.1234-.5967,.1938-1.009,.2111-1.2372,.0172-.2284,.0038-.4114-.0403-.549-.0442-.1374-.1274-.2561-.2494-.3556l-.2762-.2252-1.3551,1.6626-.7608-.6203,3.2086-3.9362,1.4174,1.1551Zm-1.5409,1.5395c.1992,.1623,.396,.2399,.5909,.2329,.1948-.0068,.3626-.0966,.5035-.2695,.1469-.1804,.2005-.3612,.1605-.5422s-.1642-.3567-.3727-.5265l-.4735-.386-.8933,1.0962,.4845,.3952Z"/><path class="c" d="M26.8353,70.5452c.4053,.2287,.676,.5207,.8124,.8757,.1363,.3553,.1152,.6912-.0634,1.0078-.1143,.2026-.2683,.3509-.4618,.4449-.1936,.0938-.4171,.129-.6711,.1055l-.0213,.038c.2689,.2434,.4312,.5167,.4872,.8195,.0558,.3028,.0059,.5927-.1502,.8692-.1381,.2449-.3244,.4283-.5589,.5507-.2346,.1222-.4905,.1691-.7681,.1405-.2775-.0284-.5671-.1278-.8688-.2981l-1.8522-1.0448,2.4951-4.4233,1.6212,.9144Zm-2.1469,3.7391c.2892,.163,.5384,.232,.7473,.2066,.2091-.0253,.3731-.1435,.4923-.3546,.106-.1879,.1162-.3776,.0308-.569s-.2515-.357-.4985-.4963l-.8042-.4536-.7055,1.2505,.7377,.4163Zm.8829-2.0313c.2259,.1274,.4346,.1743,.6262,.1405,.1916-.034,.3416-.1468,.45-.3389,.0965-.171,.1128-.3405,.049-.5087s-.1937-.3075-.39-.4184l-.6142-.3464-.6592,1.1684,.5383,.3035Z"/><path class="c" d="M32.5156,72.9714c.4997,.1642,.9154,.4149,1.2472,.7519,.3317,.3373,.5524,.739,.6622,1.2048,.1096,.4658,.0885,.9302-.0634,1.3931-.1482,.4512-.4013,.8317-.7594,1.1412-.358,.3098-.7741,.5047-1.2482,.5849-.474,.0802-.9643,.0373-1.4709-.1292-.4996-.1639-.9182-.4215-1.2558-.7721s-.5582-.7526-.6617-1.2064c-.1035-.4536-.0801-.9095,.0704-1.3678,.1452-.4419,.3957-.8202,.7514-1.1344s.7694-.5132,1.2407-.5969,.9672-.0401,1.4875,.1309Zm-2.5159,1.9171c-.1052,.3201-.1272,.6316-.066,.9348,.0611,.3033,.1981,.5678,.411,.7932,.2128,.2256,.4828,.3919,.8097,.4993,.4951,.1625,.9531,.1407,1.3741-.0652,.4209-.2062,.7119-.5544,.873-1.0448,.1051-.3201,.1278-.6321,.0684-.936-.0597-.304-.197-.5692-.4122-.7955-.2153-.2261-.4864-.3931-.8134-.5005s-.6444-.1332-.9521-.0774c-.3079,.0558-.5739,.1879-.7979,.3961s-.389,.4738-.4947,.796Z"/><path class="c" d="M40.8212,74.6685l-.094,.7611-1.7895-.2212-.5292,4.2788-.974-.1205,.5291-4.2788-1.7894-.2214,.094-.7611,4.553,.5631Z"/><path class="c" d="M46.7091,74.4417l.0448,.7657-1.8,.1053,.2517,4.3041-.9799,.0572-.2517-4.3041-1.8,.1053-.0448-.7657,4.5799-.2678Z"/><path class="c" d="M51.3111,73.4595l.1691,.7482-2.2442,.508,.2946,1.3014,2.1486-.4864,.1693,.7482-2.1486,.4862,.3187,1.4077,2.294-.5193,.1693,.7482-3.2513,.736-1.1213-4.9531,3.2018-.7249Z"/><path class="c" d="M53.8825,72.602l4.1798,2.0479-1.4126-3.2506,.88-.3825,2.0245,4.6576-.7735,.3361-4.2199-2.0939,1.4358,3.3039-.88,.3825-2.0242-4.6576,.7901-.3434Z"/><path class="c" d="M62.7629,67.4482c.3619-.2927,.7329-.4369,1.1133-.4329,.3804,.0042,.6848,.1475,.9135,.4301,.1463,.1811,.2275,.3788,.2437,.5931,.0159,.2146-.0338,.4355-.1492,.6628l.0274,.034c.3255-.1604,.6393-.2108,.9414-.151,.3021,.0593,.553,.2127,.7526,.4594,.1768,.2186,.2789,.4594,.3063,.7226,.0272,.2631-.0235,.5183-.1522,.7657-.1288,.2477-.3279,.4803-.5974,.6982l-1.6537,1.3371-3.1932-3.9491,1.4473-1.1701Zm1.1222,1.804c.2017-.163,.322-.3398,.3612-.5305s-.0108-.3715-.1494-.5432c-.1234-.1527-.2749-.2303-.4548-.2329s-.3574,.0668-.5326,.2087l-.5483,.4433,.8434,1.0432,.4806-.3886Zm1.5634,1.5688c.258-.2085,.4137-.4149,.4672-.6187,.0535-.2036,.004-.3996-.1485-.588-.1356-.1679-.3079-.2472-.5176-.2385-.2094,.0089-.4243,.1025-.6447,.2807l-.7179,.5807,.9027,1.1164,.6588-.5326Z"/><path class="c" d="M66.6803,63.6724c.3145-.3593,.6701-.565,1.0667-.6171,.3968-.0521,.7547,.0617,1.0737,.341,.2172,.19,.3572,.4116,.4203,.6649,.0631,.2535,.0448,.5315-.0556,.8333,.1729-.0647,.3572-.0948,.5533-.0908,.1961,.0042,.4895,.0535,.8804,.1478,.6675,.1721,1.1382,.2782,1.4124,.3185l-.721,.8232c-.1332-.0169-.3344-.0577-.6032-.1222-.5917-.1445-1.0015-.2296-1.2289-.2547-.2275-.0253-.4109-.0183-.55,.0209-.1391,.0394-.2603,.1182-.3642,.2369l-.2348,.2678,1.6138,1.4131-.6466,.7383-3.8208-3.3454,1.2046-1.3755Zm1.4839,1.5939c.1693-.1933,.2538-.3872,.2538-.5823,0-.1949-.084-.3656-.2517-.5125-.175-.1534-.3537-.2132-.5361-.1797s-.3621,.1515-.5394,.3539l-.4022,.4594,1.0638,.9316,.4118-.4705Z"/><path class="c" d="M70.7072,58.0078l.6513,.4053-1.2158,1.9537,1.1328,.705,1.1637-1.8704,.6513,.4053-1.1637,1.8704,1.2252,.7625,1.2426-1.997,.6513,.4053-1.7613,2.8303-4.3116-2.683,1.7344-2.7872Z"/><path class="c" d="M71.7448,55.916l3.5614-.1023-2.4938-2.5245,.3874-.9529,3.9207,4.0147-.1288,.3166-5.6372,.2083,.3903-.9599Z"/><path class="c" d="M74.2442,47.8033l.7489,.1656-.497,2.2468,1.3028,.2882,.4756-2.1511,.7489,.1656-.4756,2.1511,1.4091,.3115,.5078-2.2963,.7491,.1653-.7198,3.2551-4.9585-1.0964,.7088-3.2054Z"/><path class="c" d="M74.7081,41.8796l.766,.0399-.094,1.8006,4.3055,.2247-.0511,.9803-4.3055-.2247-.094,1.8005-.766-.0399,.2392-4.5815Z"/><path class="c" d="M75.3132,35.0701c-.0638-.2763-.0223-.5309,.1241-.7636,.1466-.2328,.357-.3808,.6307-.4439,.2718-.0627,.5244-.0215,.758,.1236,.2338,.1451,.3825,.3558,.4461,.6321,.0622,.2692,.0209,.5212-.1241,.756-.1447,.235-.3541,.3839-.6281,.4471-.2692,.062-.5218,.0203-.7582-.1255-.2364-.1456-.3858-.3543-.4484-.6258Z"/></g><g><path class="c" d="M10.0358,22.9814c.1452-.2491,.3157-.4767,.5113-.6824,.1957-.2057,.4422-.407,.7394-.6042l.7976,.465c-.3123,.1798-.5699,.3642-.7727,.5531-.2026,.189-.3768,.4081-.5218,.6572-.182,.3122-.2817,.6312-.2994,.9575-.0176,.3264,.0502,.6276,.2036,.9034,.1533,.2759,.3734,.4974,.6603,.6647,.293,.1709,.5961,.2549,.909,.2522s.606-.0929,.879-.2702c.2732-.1774,.5013-.4232,.6844-.7373,.1404-.2407,.2398-.4908,.2982-.7499,.0584-.2589,.0946-.6074,.1086-1.0454l.7978,.4651c-.0172,.3715-.064,.6948-.1405,.9701-.0763,.2752-.2072,.5721-.3926,.8903-.2698,.4628-.603,.8225-.9996,1.0794s-.829,.3886-1.2968,.395-.9081-.1107-1.3207-.3511c-.4417-.2576-.7761-.5962-1.0026-1.0158-.2267-.4197-.3258-.8729-.2972-1.3598,.0285-.4868,.18-.9659,.4546-1.437Z"/><path class="c" d="M13.0853,18.7096l2.088,.1785-.4734-2.0503,.7622-.8835,.6868,3.1274,1.9049,1.6431-.6412,.7432-1.9103-1.6479-3.196-.2077,.7789-.9028Z"/><path class="c" d="M17.9907,13.6807l1.4749,1.8228,.017-.0137-.0279-2.9936,.8675-.702,.0351,3.0486,3.5946,.5473-.9779,.7911-3.3574-.4911,1.5687,1.9386-.7632,.6174-3.1942-3.9481,.7629-.6173Z"/><path class="c" d="M25.5887,8.6102l.3745,.6692-2.0081,1.1236,.6513,1.1642,1.9226-1.0756,.3745,.6694-1.9226,1.0757,.7047,1.2594,2.0526-1.1484,.3745,.6695-2.9091,1.6275-2.4797-4.432,2.8647-1.6027Z"/><path class="c" d="M28.9157,7.1774l1.4968,4.0432,2.3114-.8558,.2663,.7193-3.2319,1.1965-1.7632-4.7624,.9205-.3408Z"/><path class="c" d="M34.0226,5.6134l1.203,4.934-.9536,.2324-1.2029-4.934,.9535-.2324Z"/><path class="c" d="M37.5741,4.9447l3.3209,3.2616-.3157-3.5303,.956-.0854,.4522,5.0583-.8401,.0751-3.3441-3.3179,.3208,3.5882-.9561,.0855-.4521-5.0583,.8582-.0768Z"/><path class="c" d="M48.7153,5.0914l-.0788,.7629-1.7935-.1849-.4426,4.2887-.9764-.1008,.4426-4.2887-1.7937-.1849,.0788-.7631,4.5635,.4708Z"/><path class="c" d="M52.8898,6.0978c.4592,.131,.7969,.3647,1.0136,.701,.2165,.3364,.2667,.7088,.1503,1.1165-.0793,.2775-.2198,.4987-.4219,.6642-.2022,.1652-.4611,.2672-.777,.3056,.132,.1285,.2383,.2823,.3183,.4613s.1609,.4654,.2427,.8593c.1292,.6769,.2345,1.1478,.3152,1.4129l-1.0523-.3001c-.0417-.1278-.0908-.3271-.1471-.5977-.1222-.5968-.2205-1.0034-.2948-1.2199-.0743-.2166-.159-.3794-.2538-.4883-.095-.1089-.2181-.185-.3696-.2282l-.3427-.0977-.5882,2.0625-.9438-.2691,1.3924-4.8838,1.7585,.5014Zm-.8075,2.0227c.2472,.0705,.4587,.0641,.6349-.0192,.1764-.0833,.295-.2322,.3563-.4467,.0638-.2236,.0415-.4108-.0668-.5615-.1081-.1505-.2918-.2627-.5502-.3364l-.5875-.1675-.3877,1.3598,.6011,.1714Z"/><path class="c" d="M60.2356,9.0139l-.3283,.6933-2.0796-.9852-.5713,1.2056,1.9909,.9432-.3283,.6933-1.9909-.9432-.6178,1.3042,2.1256,1.007-.3283,.6932-3.0126-1.4271,2.1741-4.5896,2.9666,1.4053Z"/><path class="c" d="M63.7444,11.0956c.4095,.2769,.7348,.646,.9757,1.1075l-.4888,.7227c-.2578-.5576-.5554-.9504-.8926-1.1785-.2047-.1385-.3917-.2071-.5608-.2059-.1691,.0014-.2983,.0682-.3879,.2006-.1072,.1585-.099,.3777,.0249,.6575,.0331,.081,.189,.3503,.4677,.8077,.2352,.3961,.3619,.7451,.3802,1.0471,.0181,.302-.0671,.5924-.2559,.8714-.2441,.3614-.5716,.5651-.9815,.6112-.41,.046-.8218-.0708-1.2353-.3506-.269-.1818-.4803-.3679-.6339-.5581-.1539-.1903-.3021-.439-.4454-.7466l.5418-.8009c.197,.6774,.4944,1.1506,.8919,1.4194,.1989,.1345,.3884,.1999,.5694,.1963,.1806-.0034,.3194-.0763,.4158-.2189,.1316-.1947,.1325-.4253,.0026-.6916-.1114-.2159-.2615-.4855-.4494-.8086-.2296-.3747-.3581-.7176-.386-1.029s.0478-.5996,.227-.8646c.239-.3533,.5608-.546,.9658-.5779,.4048-.032,.823,.0979,1.2547,.3899Z"/><path class="c" d="M68.1273,14.5638c.3645,.3339,.6323,.7468,.8028,1.2384l-.5894,.6433c-.1731-.5894-.41-1.0216-.7102-1.2966-.1822-.1671-.3572-.2623-.5244-.286-.1675-.0235-.3051,.0237-.4132,.1417-.1292,.1412-.1531,.3592-.0718,.6541,.0209,.0849,.1356,.3741,.3441,.8675,.1747,.4263,.2488,.7901,.2226,1.0915-.0263,.3013-.1531,.5761-.3806,.8245-.2948,.3217-.6482,.4752-1.0606,.4605-.4123-.0145-.8026-.1904-1.1706-.5278-.2395-.2193-.4212-.4344-.5455-.6451-.1241-.2107-.2343-.4786-.3309-.8037l.6534-.713c.0957,.6993,.3204,1.2109,.674,1.535,.1771,.1621,.3551,.2546,.5345,.2777,.1794,.023,.3272-.0288,.4435-.1557,.1588-.1733,.1935-.4014,.1039-.6839-.0786-.2298-.1874-.5183-.326-.8657-.1719-.4042-.2491-.7623-.231-1.0744,.0183-.3122,.1353-.5861,.3513-.822,.2882-.3145,.6349-.4579,1.0402-.43,.405,.0277,.7998,.2175,1.1839,.5697Z"/><path class="c" d="M73.0591,20.1101l-.5976,.481-1.4431-1.7923-1.0392,.8368,1.3819,1.7158-.5976,.481-1.3816-1.7157-1.1241,.9051,1.4752,1.8319-.5974,.481-2.0909-2.5964,3.9554-3.1851,2.059,2.5568Z"/><path class="c" d="M76.6458,26.0088l-.6689,.3753-.8823-1.5724-3.7598,2.11-.4803-.856,3.7598-2.1099-.8823-1.5724,.6689-.3754,2.2449,4.0009Z"/></g><g><path class="c" d="M42.5193,84.8977c-23.3477,.0007-42.3535-18.9815-42.3775-42.3345C.1178,19.1959,19.109,.1657,42.4764,.1417h.0446c11.3033,0,21.9318,4.3958,29.9338,12.3815,8.0123,7.996,12.4314,18.6335,12.4429,29.9531,.0242,23.3672-18.9671,42.3975-42.3345,42.4214h-.0439Zm.0016-84.0752h-.0441C19.485,.8461,.799,19.5706,.8226,42.5625c.0236,22.9764,18.726,41.6529,41.6967,41.6546h.0434c22.9919-.0237,41.678-18.7483,41.6543-41.7401-.0115-11.1377-4.3595-21.6044-12.2431-29.4719C64.1009,5.1481,53.642,.8224,42.5209,.8224Z"/><circle class="c" cx="42.5198" cy="42.5206" r="27.616"/></g><g><polygon class="b" points="54.3633 32.2041 55.406 32.6442 55.5719 32.1542 55.8504 32.5948 56.6839 31.6449 56.3765 32.7901 56.9634 32.808 56.4918 33.2143 57.4865 33.6726 56.3964 33.758 56.5887 34.4103 56.0332 34.0839 55.7051 35.3915 55.4019 34.0533 55.0036 34.2953 55.0166 33.889 53.9867 33.9704 54.9351 33.4949 54.2649 33.1191 55.0656 33.0383 54.3633 32.2041 54.3633 32.2041"/><polygon class="b" points="26.3148 28.9619 25.9639 29.6853 28.0413 29.7263 26.1286 30.1519 27.0026 30.8314 26.0404 30.2853 26.5771 32.7504 25.5483 30.3422 24.9367 31.1056 25.3808 30.2213 22.8365 30.2106 25.2347 29.7491 24.3703 29.0813 25.3216 29.6186 24.9541 27.692 25.7612 29.5825 26.3148 28.9619 26.3148 28.9619"/><path class="b" d="M34.5093,50.6098c-.1362,.0782-.2599,.1494-.3852,.2176-.0565,.0307-.1194,.0011-.1323-.0662-.0115-.0604-.0153-.122-.0193-.1831-.0042-.0644-.0053-.1288-.0085-.2194-.0413,.0438-.0723,.0687-.0939,.1008-.1327,.1974-.2532,.4016-.3269,.6339-.0189,.0595-.0376,.1179-.1071,.1446-.0611-.1042,.0131-.2289-.0842-.3273-.0237,.027-.0414,.0512-.0632,.0709-.0449,.0409-.0874,.0873-.1397,.1156-.0339,.0184-.0871,.0226-.1243,.0082-.0355-.0137-.0614-.0597-.0901-.09-.0457,.0778-.0246,.1956-.0893,.2944-.054-.0579-.0979-.1052-.1409-.1516-.0662-.0064-.0851,.0461-.1052,.0878-.0323,.067-.0617,.1347-.1283,.1926-.0476-.126-.0555-.2475-.0759-.3662-.0208-.1209-.0359-.2421-.073-.3687-.0773,.0162-.0859,.0881-.1226,.1301-.0389,.0445-.0548,.1111-.118,.1337-.0588-.0703,.0055-.1455-.031-.2245-.1155,.0558-.1908,.1677-.3211,.213-.0237-.0564-.0461-.1027-.0627-.1506-.0259-.0754-.0879-.1316-.1629-.1474-.0683-.0143-.1349-.0434-.2028-.0621-.059-.0163-.0855-.0564-.0921-.1126-.0083-.0695-.014-.1391-.0216-.2175-.078-.0477-.1529-.098-.2311-.1409-.1307-.0717-.2573-.1458-.3437-.2787-.0316-.0487-.0763-.0894-.1151-.1336-.082-.0935-.1608-.1886-.2128-.3024-.0132-.029-.0323-.0563-.0517-.082-.0276-.0364-.0579-.0698-.1058-.0767-.0522-.0076-.0714,.0329-.0995,.061l-.0283,.0114c-.0648-.0842-.1081-.1831-.1442-.2812-.1231-.335-.2376-.6696-.3529-1.0012-.0164-.0473-.0342-.0944-.0545-.1403-.0637-.144-.0683-.149-.1894-.2548-.1061-.4966-.0666-.9822-.0371-1.4635-.0926-.0562-.3536-.1639-.4485-.1855-.0288-.0066-.0586-.0086-.0866-.018-.1969-.0666-.3929-.1365-.5886-.2063-.0502-.0179-.1011-.0329-.1518-.0485-.034-.0105-.0705-.0109-.1004-.036-.164-.1377-.3586-.2059-.5621-.2183-.0545-.0033-.1016-.0407-.1533-.0556-.3437-.0988-.6568-.2858-.981-.438-.0401-.0188-.0769-.0442-.1117-.0725-.1196-.0973-.244-.1473-.3902-.1314-.1153,.0126-.2347,.0089-.3529,.0063-.2044-.0045-.4083-.0562-.6042-.1364-.1978-.0809-.3632-.2178-.435-.4261-.0504-.1461-.1319-.2686-.2419-.3822-.0755-.078-.1263-.1688-.1454-.2722-.022-.1187-.0643-.2363-.0568-.3548,.0022-.0344-.0171-.074-.0288-.1107-.0274-.085-.0564-.1695-.084-.2539-.0287-.0876-.0143-.1694-.0033-.251,.0096-.0716,.0645-.1109,.115-.1513,.0269-.0215,.0594-.0405,.094-.0494,.2226-.0573,.4381-.1361,.6746-.1636,.0852-.0099,.1702-.0109,.2578-.0016,.2343,.0248,.4662,.0064,.6789-.0722,.1878-.0694,.39-.0989,.5939-.1196,.3221-.0328,.6434-.0747,.9577-.1547,.1773-.0452,.3472-.1138,.514-.1891,.204-.0921,.4125-.177,.6204-.2647,.1269-.0536,.2638-.0842,.4014-.0784,.3124,.0131,.622-.0201,.9283-.0896,.0162-.0037,.0321-.0088,.0481-.0131,.1602-.0432,.1759-.0532,.1764-.2296,.0003-.0883,.002-.1773,.068-.2622-.1127-.0469-.2012-.1143-.3086-.1484-.0819-.026-.1609-.0602-.2417-.0892-.0501-.018-.101-.0336-.1521-.0487-.036-.0106-.0733-.0173-.1093-.0279-.5518-.1624-1.1096-.1642-1.6777-.0728-.2713,.0436-.5351,.1086-.7948,.19-.1847,.0579-.4934,.1287-.6832,.1649-.1757,.0334-.3519,.0633-.5288,.088-.0852,.0119-.2262,.0187-.313,.0152-.1573-.0063-.187-.019-.2974-.1153-.0478-.1264,.0008-.2293,.0627-.3243-.0115-.0433-.0424-.0531-.0757-.0539-.1389-.0033-.2775-.0041-.4162-.012-.0687-.0039-.1377-.0194-.2066-.0268-.0837-.009-.1404-.0508-.1777-.1304,.0557-.085,.1547-.1305,.2304-.1991,.0763-.0691,.1574-.1339,.2476-.2111-.2024-.0687-.3805-.1521-.5507-.2494-.0641-.0366-.1241-.0824-.1791-.1307-.0436-.0382-.0761-.0869-.0751-.1488,.0709-.0817,.1866-.0874,.2921-.1063,.05-.0089,.1009-.0164,.1524-.0188,.0817-.0038,.1487-.0163,.2353-.0298-.0001-.0741-.0215-.1391-.0436-.2042-.0591-.1739-.0979-.3494-.119-.526-.0051-.0428-.0137-.0866,.0337-.1197,.1542,.0454,.289,.1319,.4379,.2093,.0795-.1162,.0998-.2534,.1734-.3668,.0709-.1093,.1207-.2318,.233-.3261,.048,.0243,.0529,.0744,.0769,.1113,.0229,.0355,.0472,.0701,.0631,.1089,.0993,.2424,.2311,.4738,.3683,.7057,.019,.0322,.0484,.0592,.0823,.0996,.1013-.2735,.2483-.5036,.4313-.7345,.0168,.0276,.0318,.0418,.0342,.058,.0095,.0629,.0166,.1265,.0218,.1903,.0147,.1798,.0739,.3483,.1581,.5099,.0852,.1635,.2141,.2879,.3758,.3936,.141,.0922,.2974,.1217,.4546,.1544,.1287,.0268,.2592,.0464,.3908,.0565,.1638,.0126,.3326,.019,.4975-.0015,.1986-.0247,.3939-.0219,.5886-.0014,.1939,.0204,.3877,.0401,.5804,.0722,.1721,.0287,.3414,.0671,.5113,.1017,.2284,.0465,.4341,.1522,.6386,.2586,.046,.0239,.0925,.0535,.143,.0619,.1877,.0312,.3719,.0808,.5699,.0598,.2359-.025,.4074-.1643,.4713-.4005,.0183-.0676,.0257-.1374,.0354-.2065,.0163-.1158,.0081-.232-.03-.3353-.1752-.4763-.4307-.8798-.7628-1.2158-.2413-.2441-.5169-.4364-.8251-.5855-.2227-.1078-.4573-.1816-.6993-.2425-.092-.0232-.1841-.0461-.2762-.0691-.0675-.0169-.133-.0373-.2078-.0334-.0492,.0026-.0998-.0061-.1427-.0487,.1522-.157,.3334-.2639,.5133-.382-.107-.2793-.1591-.5692-.2041-.8526,.0276-.0446,.057-.0415,.082-.0249,.1196,.0794,.2402,.1582,.3574,.2423,.0909,.0652,.1763,.1378,.2653,.2066,.0141,.0109,.0316,.0176,.0454,.0252,.0371-.0216,.0282-.0476,.0286-.0714,.0021-.1162,.0032-.2319,.0071-.3476,.0011-.034,.0098-.069,.0167-.1148,.0306,.0054,.058,.0027,.0739,.0143,.0821,.0599,.1622,.123,.2421,.1866,.0512,.0407,.0986,.0863,.1511,.1256,.0728,.0545,.178,.0659,.2716,.0158,.1262-.0675,.164-.1715,.1481-.2762-.0095-.0631-.0304-.1235-.0547-.1797-.0299-.0691-.0686-.1326-.1091-.2093,.0267-.0073,.0445-.0159,.061-.0161,.1102-.0018,.2112,.0177,.3132,.0475,.1725,.0504,.3318,.1248,.5047,.1916,.1027-.245,.2325-.4741,.3887-.6923,.0123-.0172,.0295-.0311,.0504-.0528,.0381,.0572,.0532,.1176,.0654,.1803,.0499,.2579,.106,.5162,.1522,.7812,.0242,.1382,.0992,.2532,.2134,.3163,.029,.016,.0549,.0374,.0846,.0523,.1499,.0755,.2748,.1856,.4002,.2971,.2808,.2497,.5547,.5133,.7973,.8202,.0837,.1059,.1633,.2166,.2522,.3348,.0229-.0257,.0476-.0478,.0654-.0748,.1878-.2848,.3437-.5884,.487-.8984,.1102-.2386,.2045-.4828,.2961-.7287,.151-.4053,.2548-.8175,.3454-1.2279,.0636-.2883,.0885-.5775,.1051-.8622,.0305-.5295-.0202-1.0201-.1487-1.4663-.0815-.2827-.2043-.5301-.3416-.7601-.0225-.0377-.0549-.0663-.0864-.1034-.26,.1901-.5226,.3637-.775,.5696-.2477,.2021-.4715,.4343-.704,.664-.0079-.1146-.0069-.1107,.026-.1932,.0764-.1924,.1748-.381,.296-.557,.2524-.3667,.524-.7144,.8453-1.0398-.0187-.0167-.0302-.0338-.0472-.041-.1716-.0727-.3458-.1368-.5325-.1789-.189-.0426-.3909-.043-.5945-.0324-.1843,.0095-.3801,.0602-.577,.1283-.353,.1222-.6941,.3012-1.0306,.5227-.2987,.1966-.58,.4184-.8527,.6544-.0442,.0382-.0845,.0877-.1524,.1106,.0009-.031-.0045-.0566,.0035-.0819,.0542-.172,.1386-.3355,.2568-.4926,.1502-.1997,.3189-.383,.5073-.5515,.3113-.2785,.6429-.5075,.9948-.6894,.0365-.0188,.0721-.0429,.1136-.0679,.0025-.0491,.0084-.0927,.0064-.1329-.0113-.2273,.0184-.4656,.084-.7083,.0806-.2985,.1959-.5964,.4039-.8849,.0643-.0892,.133-.1702,.2067-.2436,.0342,.0023,.0249,.029,.0173,.0535-.1346,.4391-.1616,.846-.1439,1.2461,.0045,.1011,.0287,.1947,.052,.2874,.018,.0718,.0612,.0983,.1553,.0746,.2718-.0686,.5319-.0867,.785-.0789,.0393,.0012,.078,.0044,.1183,.0024,.1525-.0078,.2834,.0321,.4122,.0796,.0928,.0343,.1764,.0865,.2417,.1618,.013,.0149,.0276,.0275,.0513,.0507,.0412-.1511,.0706-.2838,.1152-.4156,.0454-.1345,.1016-.2692,.1606-.4024,.0565-.1275,.1204-.2539,.185-.3797,.0673-.1311,.1453-.2572,.2391-.3835,.0394,.0176,.0337,.0607,.0257,.1012-.0253,.1294-.0575,.2602-.0792,.389-.0208,.1232-.0327,.2448-.0462,.3668-.0027,.025-.0014,.0525,.0319,.0522,.284-.4383,.6181-.8263,.9773-1.1881,.0046-.0047,.0148,.0006,.026,.0015-.0048,.0152-.0078,.0313-.0147,.046-.1082,.2288-.2225,.4552-.3254,.6841-.0805,.1794-.1474,.3624-.2187,.5436-.0303,.0771-.056,.155-.0826,.2326-.0345,.1008-.0574,.1993-.0419,.2949,.0919,.0257,.1983-.0273,.2986-.0501,.1112-.0252,.2256-.0882,.3351-.0942,.2157-.107,.4387-.2012,.5997-.4635,.0892-.1452,.1706-.2995,.2384-.4552,.0677-.1553,.1101-.3178,.1713-.4758,.0776-.2007,.1134-.4003,.1708-.6004,.051-.1779,.1292-.3521,.2198-.5215,.0846-.1584,.1786-.3105,.2836-.4539,.1201-.164,.2528-.3012,.3924-.4164,.0272,.0262,.0036,.0548-.0091,.0787-.0704,.1318-.1409,.2626-.1956,.4015-.1119,.284-.1913,.5644-.218,.8439-.0157,.1624-.0263,.3238-.0448,.4876-.0211,.1869-.0504,.375-.1065,.5689-.0555,.1919-.1151,.3822-.1861,.5719-.0234,.0624-.037,.1279-.0492,.1914-.0256,.1332,.0137,.2103,.112,.2272,.0211,.0036,.0448-.0002,.0663,.0023,.1118,.0132,.2243,.0242,.3349,.0417,.1192,.0189,.236,.0454,.3549,.0665,.217,.0385,.4286,.0906,.6084,.2194,.1444-.1135,.2809-.2272,.4195-.3324,.3274-.2485,.6556-.4806,.9976-.6275,.1836-.0789,.2539-.0931,.3976-.0673-.0096,.0232-.0151,.0497-.0279,.0654-.0574,.0712-.1145,.1448-.1767,.207-.1166,.1169-.2377,.2245-.3563,.3383-.1878,.1804-.3601,.3828-.505,.6263-.089,.1495-.1535,.3078-.2019,.4718-.0384,.1298-.0425,.259-.021,.3724,.0934,.4931,.0944,1.0303,.0986,1.5683,.002,.2561-.0155,.5194-.0344,.7832-.02,.2798-.0792,.558-.1303,.837-.0213,.1165-.0685,.2324-.1059,.3546,.0524,.105,.1727,.0837,.2543,.1251,.1155,.0586,.2461,.078,.3784,.0851,.1902,.0102,.3605,.0656,.5266,.1401,.0943,.0423,.175,.1082,.2432,.1957,.0567,.0728,.0841,.1628,.0743,.2893-.0362,.0062-.0657,.0153-.0938,.0153-.1412-.0004-.2821-.003-.4228-.0065-.228-.0057-.4557,.0479-.6844,.1536-.2295,.106-.4239,.2773-.5781,.5245-.1549,.2485-.311,.4957-.4682,.7414-.2535,.3959-.5305,.7675-.8357,1.1099-.239,.2682-.4957,.5102-.7601,.7392-.242,.2096-.4996,.3885-.7613,.5588-.277,.1802-.5623,.3348-.8523,.4774-.278,.1367-.5626,.2502-.8504,.3463-.3324,.111-.6641,.2211-.9925,.3534-.3845,.155-.7763,.2812-1.1642,.4199-.2118,.0757-.4158,.1781-.6181,.2836-.1169,.061-.2211,.1423-.3346,.2069-.0607,.0345-.11,.0807-.1536,.1465,.0339,.0335,.0779,.0353,.118,.0308,.3635-.041,.7291-.0709,1.0807-.2125,.2207-.0889,.4328-.0853,.6418,.0174,.0012,.2526-.133,.4727-.1783,.7242,.0309,.0132,.0631,.033,.0983,.0408,.2644,.0586,.5374,.0611,.8089,.0623,.2717,.0012,.5448-.0171,.8173-.0372,.698-.0514,1.3929-.174,2.0775-.3803,.1497-.0451,.2975-.1016,.4433-.1649,.5843-.2534,1.1662-.5182,1.7686-.6702,.2253-.0569,.4496-.079,.676-.0972,.3018-.0242,.5904,.0278,.8855,.0413,.0706,.0032,.1389,.0248,.2084,.0377,.0557,.0103,.1107,.0242,.168,.0258,.1054,.0029,.207,.0272,.3056,.0615,.1252,.0436,.2556,.0693,.3853,.0975,.2505,.0545,.5011,.1107,.7541,.157,.1562,.0286,.3157,.0421,.4736,.0641,.2126,.0296,.4251,.0608,.6383,.0893,.0219,.0029,.0444,.0029,.0665,.0047,.2652,.0219,.5302,.0475,.797,.0589,.2565,.011,.5149,.0053,.7723,.0084,.2016,.0024,.4026,.0137,.6046,.0124,.1909-.0012,.3826-.0117,.5741-.0211,.1829-.009,.3661-.0279,.5487-.0295,.1904-.0016,.3813-.027,.5722-.058,.0661-.0107,.1329-.0097,.1992-.0178,.1128-.0138,.2254-.0303,.3381-.0471,.1859-.0277,.3718-.0548,.5573-.0878,.129-.0229,.2577-.0508,.3859-.0823,.1004-.0247,.1994-.0657,.2997-.0855,.1586-.0312,.313-.0896,.4687-.1401,.0643-.0208,.1704-.0416,.2356-.0483,.132-.0136,.264-.0262,.396-.038,.114-.0102,.2279-.0139,.3411-.0087,.1226,.0056,.2452,.0131,.3681,.017,.2685,.0085,.5312,.0571,.7961,.094,.3473,.0484,.683,.1503,1.023,.2367,.136,.0345,.2687,.0818,.3988,.1379,.5391,.2324,1.1051,.366,1.6861,.4348,.1015,.012,.2009,.0384,.3018,.0553,.3071,.0515,.5668,.2097,.8036,.43,.2413,.2245,.4096,.52,.5384,.856,.072,.1881,.1225,.3895,.1533,.5968,.0767,.5159,.0663,1.0325-.0062,1.5612-.0462,.3363-.075,.6746-.1041,1.0128-.0133,.155-.0192,.3129-.0051,.4637,.014,.1503,.0578,.293,.0876,.4394,.0051,.0252,.0045,.0527,.0077,.0941-.1105,.0063-.2116-.001-.3064-.0327-.0913-.0306-.1863-.0609-.2642-.1171-.0817-.0589-.1451-.148-.2232-.2319-.0204,.0493-.0358,.079-.0451,.1214-.0444,.2044-.1151,.4035-.1992,.5965-.239,.5483-.4133,1.1105-.4781,1.6953-.071,.6395-.0013,1.2399,.2745,1.7682,.1709,.3273,.4092,.5862,.6891,.7971,.2904,.2188,.6174,.3667,.9639,.471,.1269,.0382,.2605,.058,.3889,.0917,.1717,.0451,.2827,.1683,.3258,.3496,.0295,.1246,.0434,.2565,.0563,.3884,.0086,.0878,.0145,.1764,.0173,.2658,.007,.2261,.0138,.4525,.0203,.6792,.0021,.0733,.0021,.1471,.0063,.22,.0136,.2364,.0341,.4717,.0276,.7128-.0019,.0697,.0066,.1369,.0105,.2052,.0164,.2931,.0318,.5867,.0488,.8803,.0491,.8466,.1057,1.6938,.2292,2.5216,.0063,.0421,.0109,.0848,.0165,.1272,.046,.3458,.0826,.6956,.1417,1.0367,.0518,.2989,.132,.5864,.1945,.8813,.0243,.1144,.0469,.3081,.0505,.4299,.0055,.1887,.0039,.3796-.0004,.571-.0022,.1023-.0214,.2082-.0344,.3262-.0727,.0025-.1288,.0061-.184,.0053-.1386-.0019-.1579,.0065-.1949,.1403-.0347,.1251-.098,.2358-.175,.3461-.2165,.3103-.503,.493-.8349,.6012-.2466,.0803-.4925,.1107-.7385,.1444-.0795,.0109-.1577-.0035-.2388-.0069-.0309-.1893,.0485-.3799,.0697-.5953-.0499,.0383-.0763,.0514-.0924,.072-.1002,.1289-.1979,.2596-.2984,.3882-.0344,.044-.0732,.0848-.1208,.1391-.0346-.0334-.0725-.0538-.0874-.0875-.069-.1557-.0893-.3216-.0534-.5125,.0657-.3493,.2212-.6672,.4205-.9722,.1451-.222,.3037-.4366,.4571-.6538,.05-.0708,.0853-.1501,.1027-.2309,.0888-.4133,.1561-.8249,.1851-1.2348,.0209-.2964,.0577-.5954,.0584-.8874,.0007-.3442-.0289-.6823-.0472-1.022-.0034-.0649-.0194-.1267-.0227-.1916-.0154-.3071-.0834-.5951-.1552-.88-.0758-.3008-.2449-.7681-.3847-1.0324-.2663-.5033-.6018-.9296-1.0418-1.261-.2132-.1606-.4422-.2897-.6765-.4133-.0564-.0298-.1172-.0513-.171-.0747-.0503,.0421-.03,.073-.0146,.1002,.0893,.1575,.1964,.3001,.2772,.4655,.0733,.15,.114,.3107,.119,.483,.0069,.2333-.0317,.4678-.1492,.6905-.292,.5535-.5041,1.1355-.7213,1.7178-.2207,.5919-.4317,1.1881-.6258,1.7894-.2289,.7097-.4499,1.4228-.6025,2.1493-.098,.4668-.253,.9238-.386,1.3852-.0593,.2055-.125,.4101-.1968,.6129-.0304,.086-.0794,.168-.1265,.2485-.0176,.0299-.0535,.0503-.0816,.0754-.1311-.0664-.1448-.1975-.1877-.3088-.0565-.012-.0795,.0374-.1116,.0679-.2553,.2436-.5174,.479-.8282,.6472-.214,.1158-.4403,.2092-.6757,.1849-.1712-.0177-.3427-.0194-.5139-.0292-.1195-.0068-.2411,.0005-.3597-.0118-.1536-.0159-.3133-.0281-.4129-.1673-.0001-.1044,.0527-.1899,.0954-.2774,.153-.3131,.3076-.6256,.456-.9408,.0342-.0726,.0867-.1222,.149-.1683,.3014-.2226,.5727-.4803,.832-.7523,.378-.3963,.6882-.8411,.95-1.318,.4138-.7537,.6925-1.5505,.8906-2.3702,.1088-.4503,.1777-.9027,.2531-1.3542,.0316-.1889,.0434-.3799,.0537-.5692,.0031-.0558-.0038-.1106-.0203-.1615-.1443-.4482-.2913-.8944-.4706-1.3246-.1606-.3854-.3522-.7482-.5793-1.0853-.1387-.2057-.3051-.3862-.482-.5524-.2665-.2503-.4685-.561-.6488-.887-.0809-.1459-.1315-.3134-.1999-.4827l-.1498,.1104c-.3136,.2313-.6299,.4602-.9872,.5951-.0815,.0307-.1653,.0615-.2491,.0727-.2191,.0293-.317-.0399-.4021-.2625-.0072-.0188-.0206-.0343-.0333-.0552-.1051-.0227-.2025,.0443-.3044,.0607-.1679,.0271-.3351,.0596-.5038,.0829-.5695,.0787-1.1348,.0258-1.7015,.0228-.057-.0003-.1132-.0082-.169-.0184-.0838-.0153-.1689-.0228-.253-.0363-.1461-.0235-.2929-.0446-.4375-.0751-.2133-.0451-.4247-.0982-.6364-.1498-.2184-.0534-.4358-.1097-.6537-.1639-.1057-.0263-.2125-.0488-.3195-.069-.189-.0357-.3792-.0645-.5668-.1062-.4209-.0935-.8496-.1209-1.2745-.1777-.2095-.028-.4198-.0131-.63-.0135-.2104-.0004-.4192,.018-.6278,.0456-.0186,.0025-.0367,.0094-.0618,.016-.1013,.1587-.1574,.3415-.1879,.5293-.0625,.3857-.1306,.7723-.1616,1.1627-.028,.351-.0843,.6975-.1123,1.0482-.0148,.1853-.0368,.3722-.0206,.562,.0105,.1239,.0103,.248-.0015,.3712-.0219,.2287,.0101,.458,.0086,.6874-.0013,.1889,.0039,.3776-.0489,.5589-.0417,.1434-.0281,.2908-.0065,.4369,.0773,.5236,.1591,1.0489,.247,1.5756,.0799,.4787,.1669,.9583,.2554,1.4393,.0222,.1203,.0511,.2398,.0767,.3599,.1015,.4751,.1413,.9548,.1664,1.4363,.0174,.3333-.0186,.6603-.0757,.9826-.0309,.1745-.087,.3437-.195,.4852-.0242,.0317-.0573,.0564-.0872,.0851-.1974-.1342-.2457-.3438-.3436-.5412-.086,.1292-.1523,.2525-.2424,.3548-.0906,.1031-.205,.1852-.3146,.2802-.1994,.0064-.4039-.0184-.608-.0458-.2049-.0275-.4097-.0576-.6141-.0918-.2719-.0454-.5412-.109-.7948-.2466-.0201-.0109-.0405-.0222-.0583-.0366-.0178-.0144-.0325-.0328-.0552-.0562,.0039-.1526,.0503-.293,.1044-.4338,.0723-.1884,.1428-.3758,.2531-.5439,.0642-.0977,.1609-.1691,.2714-.2136,.0454-.0183,.0904-.0377,.1375-.0523,.3746-.1161,.6-.3864,.7467-.7344,.1132-.2685,.1726-.5543,.221-.8464,.0547-.3298,.0446-.6709-.0073-1.0087-.0515-.3354-.0835-.6717-.1347-1.0055-.0495-.3235-.1383-.6417-.2552-.9493-.1258-.3308-.2768-.6506-.4772-.9438-.0303-.0443-.0689-.083-.1164-.1396-.0363,.0751-.0702,.1314-.0925,.1929-.1284,.3539-.2564,.7078-.3816,1.0627-.0487,.1384-.0914,.2794-.1268,.4229-.1094,.4428-.24,.8793-.2788,1.3448-.02,.2411-.0382,.4827-.058,.7243-.0047,.0566-.0163,.1482-.0256,.2038-.0638,.3814-.1191,.766-.1989,1.143-.0796,.3759-.1912,.741-.3652,1.0756-.0778,.1495-.1682,.2891-.2992,.395-.0301,.0244-.0675,.0404-.0952,.0565-.0737-.0168-.0951-.0692-.1124-.1166-.0329-.0903-.0582-.1821-.0897-.2836-.0765,.0433-.1076,.1203-.1611,.1756-.0683,.0708-.1375,.1408-.2101,.2069-.0518,.047-.1226,.0543-.1975,.0404-.4079-.0758-.8157-.1538-1.2181-.2974-.0718-.0256-.1425-.0569-.2133-.0867-.177-.0744-.3569-.137-.5188-.2525-.0954-.0681-.1902-.1375-.2813-.2116-.0495-.0403-.0673-.1058-.0448-.1536,.0328-.0698,.0692-.1387,.1147-.1993,.2169-.2882,.4889-.5175,.8071-.6978,.0838-.0475,.1785-.0773,.2734-.1053,.4256-.1258,.7473-.3893,1.0121-.7253,.2562-.3249,.4383-.7078,.575-1.1102,.123-.3619,.2277-.7302,.2937-1.1128,.0172-.0999,.0278-.2016,.0409-.3026,.0199-.1532,.0379-.3067,.0594-.4593,.0249-.1755,.0312-.3554,.0162-.5356-.0307-.3709-.0262-.7358,.0027-1.0999,.0173-.2167,.0541-.4263,.0874-.6379,.0395-.2513,.0793-.5029,.1031-.7567,.0243-.2593,.0293-.5215,.0434-.7817,.0164-.3067,.0398-.6122,.0489-.9184,.0078-.2656,.001-.5318-.0014-.797-.0023-.2483-.108-.4509-.2762-.6199-.1152-.1157-.2333-.2288-.357-.333-.1534-.1294-.3123-.251-.471-.3718-.0882-.0672-.1333-.0641-.1825,.0272-.0565,.105-.0964,.2206-.1395,.3333-.0203,.0531-.0309,.1107-.0424,.1532Zm3.0563-17.0079c-.1392,.0789-.2497,.0534-.3607,.0326-.0552-.0103-.1093-.0275-.1667-.0264-.1259,.0026-.2527-.0002-.3807,.0255-.2087,.0419-.4166,.1237-.6215,.2428-.1019,.0592-.1601,.1366-.1924,.2627-.0592,.2319-.1336,.4625-.2021,.6935-.0052,.0173-.0117,.0344-.0177,.0517-.061,.1775-.1227,.3547-.1837,.532-.049,.143-.0921,.2877-.1469,.4288-.1107,.2846-.2339,.5648-.3461,.848-.1499,.3788-.338,.7411-.549,1.0884-.0707,.1162-.1303,.2459-.2162,.3487-.1097,.1311-.1523,.2682-.1467,.4255,.0026,.0745-.0045,.1513,.0015,.225,.0139,.1679,.1205,.2854,.2749,.299,.0621,.0055,.1279,.0001,.1915-.0122,.2505-.0487,.4813-.1769,.7058-.325,.0536-.0353,.1079-.0691,.1613-.1052,.1699-.115,.3398-.2306,.5071-.3513,.0904-.0652,.1777-.1365,.2642-.2092,.1648-.1383,.3324-.2733,.4893-.4243,.244-.2348,.4809-.4817,.6948-.7563,.1484-.1907,.2978-.3831,.4285-.5898,.3233-.5113,.5302-1.0802,.6859-1.6602,.0928-.3454,.1589-.6965,.1841-1.0457,.0269-.3722,.0157-.7268-.0417-1.0647-.0518-.3047-.1478-.5734-.2595-.8278-.0243-.0552-.0429-.1156-.0704-.1673-.1202-.2258-.2623-.42-.4473-.5596-.2479-.187-.5252-.2948-.8434-.3127-.0269-.0015-.0529-.006-.0796-.0081-.062-.005-.1223-.0202-.1864-.0123-.2136,.0263-.424,.0368-.6441,.0925-.2033,.0514-.4062,.1018-.6113,.1741-.021,.0074-.0422,.0226-.065,.0351,.035,.1485,.0706,.2857,.1007,.4269,.0303,.1417,.0584,.2858,.082,.4329,.0236,.1473,.0437,.2976,.0594,.4503,.0157,.1527,.0265,.3085,.0349,.4655,.0083,.1554,.0106,.3135,.0163,.4801,.0534-.0113,.0968-.0177,.1402-.0305,.1782-.0528,.3566-.0839,.5268-.0886,.2244-.0063,.4507-.0141,.6615,.0459,.1475,.0419,.2857,.0968,.3986,.2037,.07,.0663,.1452,.1321,.1699,.2659Zm-6.991,2.9727c.0009,.1325,.0828,.1802,.1324,.2498,.0955,.1339,.1929,.2686,.3185,.3755,.3466,.2952,.6294,.6456,.8439,1.0673,.1396,.2744,.2442,.571,.3321,.8804,.0084,.0296,.0243,.0561,.0391,.0893,.0278-.0123,.0503-.0169,.0666-.0305,.0928-.0782,.1844-.1585,.2752-.2402,.1273-.1144,.2202-.2597,.3159-.4018,.2009-.2984,.1843-.2398,.125-.5864l-.0051-.0152c-.0753-.3093-.2396-.544-.4565-.7302-.2172-.1863-.4598-.3263-.7327-.4188-.2142-.0726-.4269-.1462-.6512-.1894-.1606-.0309-.3261-.0468-.4901-.0667-.0323-.0039-.0694,.01-.113,.0169Z"/><polygon class="b" points="45.854 37.6894 45.0595 37.5084 45.6823 39.2161 44.6967 37.694 44.3605 38.433 44.5582 37.6439 42.8167 38.2792 44.3781 37.2885 43.6319 36.9698 44.4333 37.1498 43.811 35.4396 44.7913 36.9713 45.1249 36.2259 44.9296 37.0144 46.6712 36.379 45.0912 37.3391 45.854 37.6894 45.854 37.6894"/><polygon class="b" points="35.3397 24.6768 35.1253 23.1274 32.4789 25.4723 34.5453 22.6136 32.9884 22.5469 34.5412 22.3302 32.216 19.6792 35.0577 21.7521 35.1236 20.1896 35.3443 21.7505 37.9956 19.4048 35.9086 22.2609 37.475 22.3185 35.9249 22.5391 38.2504 25.1899 35.4512 23.0619 35.3397 24.6768 35.3397 24.6768"/><polygon class="b" points="60.9901 40.806 61.1084 40.1447 59.7173 40.7473 60.9399 39.8572 60.3136 39.6212 60.9759 39.7409 60.3792 38.3469 61.2634 39.5741 61.4978 38.945 61.3806 39.6119 62.7738 39.0096 61.543 39.8959 62.1744 40.1294 61.5127 40.0116 62.1095 41.4056 61.25 40.1616 60.9901 40.806 60.9901 40.806"/><polygon class="b" points="56.1354 23.545 55.4796 23.9278 56.892 24.8589 55.2966 24.342 55.4401 25.2819 55.1558 24.4061 53.788 26.767 54.8118 24.2428 53.9498 24.559 54.786 24.0857 53.3888 23.1496 54.99 23.691 54.883 22.9378 55.1215 23.6324 55.9943 22.2565 55.414 23.7743 56.1354 23.545 56.1354 23.545"/><polygon class="b" points="49.7433 32.1958 48.8786 31.2793 48.234 34.0486 48.2573 31.2122 47.2026 31.8928 48.1223 31.0283 45.3553 30.3713 48.1919 30.4088 47.5054 29.3533 48.3795 30.2743 49.0271 27.5023 48.9889 30.3466 50.0457 29.6556 49.1296 30.5214 51.8966 31.1782 49.0623 31.0847 49.7433 32.1958 49.7433 32.1958"/><polygon class="b" points="63.0098 32.8787 63.0969 32.3916 62.0722 32.8355 62.9729 32.1798 62.5115 32.006 62.9994 32.0941 62.5598 31.0672 63.2111 31.9713 63.3838 31.5078 63.2974 31.9991 64.3237 31.5554 63.4171 32.2083 63.8823 32.3803 63.3948 32.2936 63.8344 33.3204 63.2013 32.404 63.0098 32.8787 63.0098 32.8787"/><polygon class="b" points="41.7385 26.1267 41.8568 25.4654 40.4657 26.068 41.6884 25.1779 41.062 24.9419 41.7243 25.0616 41.1277 23.6676 42.0118 24.8948 42.2462 24.2657 42.129 24.9326 43.5222 24.3303 42.2914 25.2166 42.9229 25.4501 42.2612 25.3324 42.8579 26.7263 41.9985 25.4823 41.7385 26.1267 41.7385 26.1267"/><polygon class="b" points="19.7401 37.2805 19.8583 36.6192 18.4673 37.2218 19.6899 36.3317 19.0636 36.0957 19.7259 36.2154 19.1292 34.8214 20.0134 36.0486 20.2477 35.4195 20.1306 36.0864 21.5238 35.4841 20.293 36.3704 20.9244 36.6039 20.2627 36.4861 20.8595 37.8801 20 36.6361 19.7401 37.2805 19.7401 37.2805"/><polygon class="b" points="48.7158 20.6885 47.9213 20.5075 48.5442 22.2152 47.5585 20.6931 47.2223 21.4322 47.42 20.643 45.6785 21.2784 47.24 20.2876 46.4937 19.9689 47.2951 20.149 46.6728 18.4387 47.6532 19.9704 47.9868 19.225 47.7915 20.0136 49.533 19.3781 47.953 20.3382 48.7158 20.6885 48.7158 20.6885"/></g></svg>
