<?xml version="1.0" encoding="utf-8"?>
<!-- Generator: Adobe Illustrator 26.2.1, SVG Export Plug-In . SVG Version: 6.00 Build 0)  -->
<svg version="1.1" id="Lager_1" xmlns="http://www.w3.org/2000/svg" xmlns:xlink="http://www.w3.org/1999/xlink" x="0px" y="0px"
	 viewBox="0 0 85.3 85.3" style="enable-background:new 0 0 85.3 85.3;" xml:space="preserve">
<style type="text/css">
	.st0{fill:#FFFFFF;}
</style>
<g>
	<path d="M9.8,35.1c-0.1,0.3-0.2,0.5-0.4,0.6c-0.2,0.1-0.5,0.2-0.8,0.1c-0.3-0.1-0.5-0.2-0.6-0.4c-0.1-0.2-0.2-0.5-0.1-0.8
		C7.9,34.4,8,34.2,8.3,34c0.2-0.1,0.5-0.2,0.8-0.1c0.3,0.1,0.5,0.2,0.6,0.4C9.8,34.6,9.8,34.8,9.8,35.1z"/>
	<path d="M10.4,43l-3.2,1.6l3.3,1.2l0.1,1l-5.3-2l0-0.3l5-2.6L10.4,43z"/>
	<path d="M11.3,50.3l-4.5,3.3l-0.2-1l1.1-0.8l-0.5-2.2l-1.3-0.2l-0.2-1l5.4,0.9L11.3,50.3z M8,49.7l0.4,1.6l1.8-1.3L8,49.7z
		 M12.1,49.2c-0.1,0-0.2,0-0.4-0.1c-0.1-0.1-0.2-0.2-0.2-0.3c0-0.1,0-0.2,0.1-0.4c0.1-0.1,0.2-0.2,0.3-0.2c0.1,0,0.2,0,0.4,0.1
		c0.1,0.1,0.2,0.2,0.2,0.3c0,0.1,0,0.3-0.1,0.4C12.3,49.1,12.2,49.2,12.1,49.2z M12.5,51c-0.1,0-0.2,0-0.4-0.1
		c-0.1-0.1-0.2-0.2-0.2-0.3c0-0.1,0-0.2,0.1-0.4c0.1-0.1,0.2-0.2,0.3-0.2c0.1,0,0.2,0,0.4,0.1c0.1,0.1,0.2,0.2,0.2,0.3
		c0,0.1,0,0.2-0.1,0.4C12.7,50.9,12.6,50.9,12.5,51z"/>
	<path d="M13,55.1c0.2,0.5,0.3,0.9,0.2,1.5l-0.8,0.3c0.1-0.6,0.1-1.1-0.1-1.5c-0.1-0.2-0.2-0.4-0.4-0.5c-0.1-0.1-0.3-0.1-0.4,0
		c-0.2,0.1-0.3,0.3-0.3,0.6c0,0.1,0,0.4-0.1,0.9c0,0.5-0.1,0.8-0.3,1.1c-0.2,0.3-0.4,0.5-0.7,0.6c-0.4,0.2-0.8,0.2-1.2,0
		c-0.4-0.2-0.7-0.5-0.8-1C8.1,56.8,8,56.5,8,56.3c0-0.2,0-0.5,0-0.9L8.9,55c-0.2,0.7-0.2,1.2,0,1.7c0.1,0.2,0.2,0.4,0.4,0.5
		c0.2,0.1,0.3,0.1,0.5,0c0.2-0.1,0.3-0.3,0.4-0.6c0-0.2,0-0.6,0.1-0.9c0-0.4,0.1-0.8,0.2-1.1c0.1-0.3,0.4-0.5,0.7-0.6
		c0.4-0.2,0.8-0.2,1.1,0C12.5,54.3,12.8,54.6,13,55.1z"/>
	<path d="M16.5,61.7l-0.7,0.4l-1-1.5l-3.7,2.3L10.7,62l3.7-2.3l-1-1.5l0.7-0.4L16.5,61.7z"/>
	<path d="M19.6,65.2L19,65.7L17.5,64l-1,0.9l1.5,1.7l-0.6,0.5l-1.5-1.7l-1.1,1l1.6,1.8l-0.6,0.5l-2.2-2.5l3.8-3.4L19.6,65.2z"/>
	<path d="M22.3,67.6c0.4,0.3,0.6,0.7,0.7,1c0.1,0.4,0,0.8-0.3,1.1c-0.2,0.2-0.4,0.4-0.7,0.4c-0.3,0.1-0.5,0.1-0.8,0
		c0.1,0.2,0.1,0.4,0.1,0.6c0,0.2,0,0.5-0.1,0.9c-0.1,0.7-0.2,1.2-0.3,1.4L20,72.4c0-0.1,0-0.3,0.1-0.6c0.1-0.6,0.2-1,0.2-1.2
		c0-0.2,0-0.4,0-0.6c0-0.1-0.1-0.3-0.3-0.4l-0.3-0.2l-1.4,1.7l-0.8-0.6l3.2-3.9L22.3,67.6z M20.8,69.2c0.2,0.2,0.4,0.2,0.6,0.2
		c0.2,0,0.4-0.1,0.5-0.3c0.1-0.2,0.2-0.4,0.2-0.5s-0.2-0.4-0.4-0.5l-0.5-0.4l-0.9,1.1L20.8,69.2z"/>
	<path d="M26.9,70.8c0.4,0.2,0.7,0.5,0.8,0.9c0.1,0.4,0.1,0.7-0.1,1c-0.1,0.2-0.3,0.4-0.5,0.4c-0.2,0.1-0.4,0.1-0.7,0.1l0,0
		c0.3,0.2,0.4,0.5,0.5,0.8c0.1,0.3,0,0.6-0.2,0.9c-0.1,0.2-0.3,0.4-0.6,0.6c-0.2,0.1-0.5,0.2-0.8,0.1c-0.3,0-0.6-0.1-0.9-0.3l-1.9-1
		l2.5-4.4L26.9,70.8z M24.8,74.5c0.3,0.2,0.5,0.2,0.7,0.2c0.2,0,0.4-0.1,0.5-0.4c0.1-0.2,0.1-0.4,0-0.6s-0.3-0.4-0.5-0.5l-0.8-0.5
		L24,74.1L24.8,74.5z M25.7,72.5c0.2,0.1,0.4,0.2,0.6,0.1c0.2,0,0.3-0.1,0.5-0.3c0.1-0.2,0.1-0.3,0-0.5c-0.1-0.2-0.2-0.3-0.4-0.4
		L25.8,71l-0.7,1.2L25.7,72.5z"/>
	<path d="M32.6,73.2c0.5,0.2,0.9,0.4,1.3,0.8c0.3,0.3,0.6,0.7,0.7,1.2c0.1,0.5,0.1,0.9-0.1,1.4c-0.1,0.5-0.4,0.8-0.8,1.1
		c-0.4,0.3-0.8,0.5-1.3,0.6c-0.5,0.1-1,0-1.5-0.1c-0.5-0.2-0.9-0.4-1.3-0.8c-0.3-0.4-0.6-0.8-0.7-1.2c-0.1-0.5-0.1-0.9,0.1-1.4
		c0.1-0.4,0.4-0.8,0.8-1.1c0.4-0.3,0.8-0.5,1.2-0.6C31.6,73,32.1,73,32.6,73.2z M30.1,75.1C30,75.5,30,75.8,30,76.1
		c0.1,0.3,0.2,0.6,0.4,0.8c0.2,0.2,0.5,0.4,0.8,0.5c0.5,0.2,1,0.1,1.4-0.1c0.4-0.2,0.7-0.6,0.9-1c0.1-0.3,0.1-0.6,0.1-0.9
		c-0.1-0.3-0.2-0.6-0.4-0.8c-0.2-0.2-0.5-0.4-0.8-0.5c-0.3-0.1-0.6-0.1-1-0.1c-0.3,0.1-0.6,0.2-0.8,0.4
		C30.4,74.5,30.2,74.8,30.1,75.1z"/>
	<path d="M41,74.9l-0.1,0.8l-1.8-0.2l-0.5,4.3l-1-0.1l0.5-4.3l-1.8-0.2l0.1-0.8L41,74.9z"/>
	<path d="M46.9,74.7l0,0.8l-1.8,0.1l0.3,4.3l-1,0.1l-0.3-4.3l-1.8,0.1l0-0.8L46.9,74.7z"/>
	<path d="M51.5,73.7l0.2,0.8L49.4,75l0.3,1.3l2.2-0.5l0.2,0.8L49.9,77l0.3,1.4l2.3-0.5l0.2,0.8l-3.3,0.7l-1.1-5L51.5,73.7z"/>
	<path d="M54.1,72.8l4.2,2.1l-1.4-3.3l0.9-0.4l2,4.7L59,76.3l-4.2-2.1l1.4,3.3l-0.9,0.4l-2-4.7L54.1,72.8z"/>
	<path d="M63,67.7c0.4-0.3,0.7-0.4,1.1-0.4c0.4,0,0.7,0.1,0.9,0.4c0.1,0.2,0.2,0.4,0.2,0.6c0,0.2,0,0.4-0.1,0.7l0,0
		c0.3-0.2,0.6-0.2,0.9-0.2c0.3,0.1,0.6,0.2,0.8,0.5c0.2,0.2,0.3,0.5,0.3,0.7c0,0.3,0,0.5-0.2,0.8c-0.1,0.2-0.3,0.5-0.6,0.7l-1.7,1.3
		l-3.2-4L63,67.7z M64.1,69.5c0.2-0.2,0.3-0.3,0.4-0.5c0-0.2,0-0.4-0.1-0.5c-0.1-0.2-0.3-0.2-0.5-0.2s-0.4,0.1-0.5,0.2l-0.6,0.4
		l0.8,1L64.1,69.5z M65.7,71.1c0.3-0.2,0.4-0.4,0.5-0.6c0.1-0.2,0-0.4-0.1-0.6c-0.1-0.2-0.3-0.2-0.5-0.2c-0.2,0-0.4,0.1-0.6,0.3
		l-0.7,0.6l0.9,1.1L65.7,71.1z"/>
	<path d="M66.9,63.9c0.3-0.4,0.7-0.6,1.1-0.6c0.4-0.1,0.8,0.1,1.1,0.3c0.2,0.2,0.4,0.4,0.4,0.7c0.1,0.3,0,0.5-0.1,0.8
		C69.6,65,69.8,65,70,65c0.2,0,0.5,0.1,0.9,0.1c0.7,0.2,1.1,0.3,1.4,0.3l-0.7,0.8c-0.1,0-0.3-0.1-0.6-0.1c-0.6-0.1-1-0.2-1.2-0.3
		c-0.2,0-0.4,0-0.6,0c-0.1,0-0.3,0.1-0.4,0.2l-0.2,0.3l1.6,1.4l-0.6,0.7l-3.8-3.4L66.9,63.9z M68.4,65.5c0.2-0.2,0.3-0.4,0.3-0.6
		c0-0.2-0.1-0.4-0.3-0.5c-0.2-0.2-0.4-0.2-0.5-0.2c-0.2,0-0.4,0.2-0.5,0.4L66.9,65L68,66L68.4,65.5z"/>
	<path d="M70.9,58.2l0.7,0.4l-1.2,2l1.1,0.7l1.2-1.9l0.7,0.4l-1.2,1.9l1.2,0.8l1.2-2l0.7,0.4l-1.8,2.8L69.2,61L70.9,58.2z"/>
	<path d="M72,56.1l3.6-0.1l-2.5-2.5l0.4-1l3.9,4l-0.1,0.3l-5.7,0.2L72,56.1z"/>
	<path d="M74.5,48l0.8,0.2l-0.5,2.3l1.3,0.3l0.5-2.2l0.8,0.2l-0.5,2.2l1.4,0.3l0.5-2.3l0.8,0.2l-0.7,3.3l-5-1.1L74.5,48z"/>
	<path d="M75,42l0.8,0l-0.1,1.8l4.3,0.2l-0.1,1l-4.3-0.2l-0.1,1.8l-0.8,0L75,42z"/>
	<path d="M75.6,35.2c-0.1-0.3,0-0.5,0.1-0.8c0.1-0.2,0.4-0.4,0.6-0.4c0.3-0.1,0.5,0,0.8,0.1c0.2,0.1,0.4,0.4,0.4,0.6
		c0.1,0.3,0,0.5-0.1,0.8c-0.1,0.2-0.4,0.4-0.6,0.4c-0.3,0.1-0.5,0-0.8-0.1C75.8,35.7,75.6,35.5,75.6,35.2z"/>
</g>
<g>
	<path d="M10.1,23.1c0.1-0.2,0.3-0.5,0.5-0.7c0.2-0.2,0.4-0.4,0.7-0.6l0.8,0.5c-0.3,0.2-0.6,0.4-0.8,0.6c-0.2,0.2-0.4,0.4-0.5,0.7
		c-0.2,0.3-0.3,0.6-0.3,1c0,0.3,0.1,0.6,0.2,0.9c0.2,0.3,0.4,0.5,0.7,0.7c0.3,0.2,0.6,0.3,0.9,0.3c0.3,0,0.6-0.1,0.9-0.3
		c0.3-0.2,0.5-0.4,0.7-0.7c0.1-0.2,0.2-0.5,0.3-0.8c0.1-0.3,0.1-0.6,0.1-1l0.8,0.5c0,0.4-0.1,0.7-0.1,1c-0.1,0.3-0.2,0.6-0.4,0.9
		c-0.3,0.5-0.6,0.8-1,1.1s-0.8,0.4-1.3,0.4c-0.5,0-0.9-0.1-1.3-0.4c-0.4-0.3-0.8-0.6-1-1c-0.2-0.4-0.3-0.9-0.3-1.4
		C9.6,24,9.8,23.5,10.1,23.1z"/>
	<path d="M13.1,18.8l2.1,0.2l-0.5-2.1l0.8-0.9l0.7,3.1l1.9,1.6l-0.6,0.7l-1.9-1.7l-3.2-0.2L13.1,18.8z"/>
	<path d="M18.1,13.7l1.5,1.8l0,0l0-3l0.9-0.7l0,3.1l3.6,0.5l-1,0.8l-3.4-0.5l1.6,1.9l-0.8,0.6l-3.2-4L18.1,13.7z"/>
	<path d="M25.7,8.6L26,9.3l-2,1.1l0.7,1.2l1.9-1.1l0.4,0.7l-1.9,1.1l0.7,1.3l2.1-1.2l0.4,0.7l-2.9,1.6l-2.5-4.4L25.7,8.6z"/>
	<path d="M29,7.2l1.5,4.1l2.3-0.9l0.3,0.7l-3.2,1.2l-1.8-4.8L29,7.2z"/>
	<path d="M34.1,5.6l1.2,5l-1,0.2l-1.2-5L34.1,5.6z"/>
	<path d="M37.7,5L41,8.2l-0.3-3.5l1-0.1l0.5,5.1l-0.8,0.1l-3.4-3.3l0.3,3.6l-1,0.1L36.8,5L37.7,5z"/>
	<path d="M48.9,5.1l-0.1,0.8L47,5.7L46.6,10l-1-0.1L46,5.6l-1.8-0.2l0.1-0.8L48.9,5.1z"/>
	<path d="M53.1,6.1c0.5,0.1,0.8,0.4,1,0.7c0.2,0.3,0.3,0.7,0.2,1.1c-0.1,0.3-0.2,0.5-0.4,0.7c-0.2,0.2-0.5,0.3-0.8,0.3
		c0.1,0.1,0.2,0.3,0.3,0.5c0.1,0.2,0.2,0.5,0.2,0.9c0.1,0.7,0.2,1.2,0.3,1.4l-1.1-0.3c0-0.1-0.1-0.3-0.1-0.6c-0.1-0.6-0.2-1-0.3-1.2
		c-0.1-0.2-0.2-0.4-0.3-0.5c-0.1-0.1-0.2-0.2-0.4-0.2l-0.3-0.1l-0.6,2.1l-0.9-0.3l1.4-4.9L53.1,6.1z M52.3,8.1
		c0.2,0.1,0.5,0.1,0.6,0c0.2-0.1,0.3-0.2,0.4-0.4c0.1-0.2,0-0.4-0.1-0.6c-0.1-0.2-0.3-0.3-0.6-0.3L52,6.6L51.7,8L52.3,8.1z"/>
	<path d="M60.4,9l-0.3,0.7l-2.1-1L57.4,10l2,0.9l-0.3,0.7l-2-0.9L56.5,12l2.1,1l-0.3,0.7l-3-1.4l2.2-4.6L60.4,9z"/>
	<path d="M64,11.1c0.4,0.3,0.7,0.6,1,1.1L64.4,13c-0.3-0.6-0.6-1-0.9-1.2c-0.2-0.1-0.4-0.2-0.6-0.2c-0.2,0-0.3,0.1-0.4,0.2
		c-0.1,0.2-0.1,0.4,0,0.7c0,0.1,0.2,0.4,0.5,0.8c0.2,0.4,0.4,0.7,0.4,1.1c0,0.3-0.1,0.6-0.3,0.9c-0.2,0.4-0.6,0.6-1,0.6
		c-0.4,0-0.8-0.1-1.2-0.4c-0.3-0.2-0.5-0.4-0.6-0.6c-0.2-0.2-0.3-0.4-0.4-0.7l0.5-0.8c0.2,0.7,0.5,1.2,0.9,1.4
		c0.2,0.1,0.4,0.2,0.6,0.2c0.2,0,0.3-0.1,0.4-0.2c0.1-0.2,0.1-0.4,0-0.7c-0.1-0.2-0.3-0.5-0.5-0.8c-0.2-0.4-0.4-0.7-0.4-1
		c0-0.3,0-0.6,0.2-0.9c0.2-0.4,0.6-0.5,1-0.6C63.1,10.7,63.5,10.8,64,11.1z"/>
	<path d="M68.4,14.6c0.4,0.3,0.6,0.7,0.8,1.2l-0.6,0.6c-0.2-0.6-0.4-1-0.7-1.3c-0.2-0.2-0.4-0.3-0.5-0.3c-0.2,0-0.3,0-0.4,0.1
		c-0.1,0.1-0.2,0.4-0.1,0.7c0,0.1,0.1,0.4,0.3,0.9c0.2,0.4,0.2,0.8,0.2,1.1c0,0.3-0.2,0.6-0.4,0.8C66.7,18.8,66.4,19,66,19
		c-0.4,0-0.8-0.2-1.2-0.5c-0.2-0.2-0.4-0.4-0.5-0.6c-0.1-0.2-0.2-0.5-0.3-0.8l0.7-0.7c0.1,0.7,0.3,1.2,0.7,1.5
		c0.2,0.2,0.4,0.3,0.5,0.3c0.2,0,0.3,0,0.4-0.2c0.2-0.2,0.2-0.4,0.1-0.7c-0.1-0.2-0.2-0.5-0.3-0.9c-0.2-0.4-0.2-0.8-0.2-1.1
		c0-0.3,0.1-0.6,0.4-0.8c0.3-0.3,0.6-0.5,1-0.4C67.6,14.1,68,14.3,68.4,14.6z"/>
	<path d="M73.3,20.2l-0.6,0.5l-1.4-1.8l-1,0.8l1.4,1.7L71,21.9l-1.4-1.7l-1.1,0.9l1.5,1.8l-0.6,0.5l-2.1-2.6l4-3.2L73.3,20.2z"/>
	<path d="M76.9,26.1l-0.7,0.4l-0.9-1.6L71.6,27l-0.5-0.9l3.8-2.1L74,22.5l0.7-0.4L76.9,26.1z"/>
</g>
<g>
	<path d="M42.7,85.2c-23.4,0-42.5-19-42.5-42.5c0-23.4,19-42.5,42.5-42.6c0,0,0,0,0,0c11.3,0,22,4.4,30,12.4
		c8,8,12.5,18.7,12.5,30.1C85.2,66.1,66.2,85.2,42.7,85.2C42.7,85.2,42.7,85.2,42.7,85.2z M42.7,0.8C42.6,0.8,42.6,0.8,42.7,0.8
		C19.5,0.8,0.8,19.6,0.8,42.7c0,23.1,18.8,41.8,41.8,41.8c0,0,0,0,0,0c23.1,0,41.8-18.8,41.8-41.9c0-11.2-4.4-21.7-12.3-29.6
		C64.3,5.2,53.8,0.8,42.7,0.8z"/>
	<circle cx="42.7" cy="42.7" r="27.7"/>
</g>
<g>
	<polygon class="st0" points="54.5,32.3 55.6,32.8 55.8,32.3 56,32.7 56.9,31.8 56.6,32.9 57.2,32.9 56.7,33.3 57.7,33.8 56.6,33.9 
		56.8,34.5 56.2,34.2 55.9,35.5 55.6,34.2 55.2,34.4 55.2,34 54.2,34.1 55.1,33.6 54.4,33.2 55.2,33.1 54.5,32.3 	"/>
	<polygon class="st0" points="26.4,29.1 26.1,29.8 28.1,29.8 26.2,30.3 27.1,30.9 26.1,30.4 26.7,32.9 25.6,30.4 25,31.2 25.5,30.3 
		22.9,30.3 25.3,29.8 24.5,29.2 25.4,29.7 25,27.8 25.8,29.7 26.4,29.1 	"/>
	<path class="st0" d="M34.6,50.8c-0.1,0.1-0.3,0.1-0.4,0.2c-0.1,0-0.1,0-0.1-0.1c0-0.1,0-0.1,0-0.2c0-0.1,0-0.1,0-0.2
		c0,0-0.1,0.1-0.1,0.1c-0.1,0.2-0.3,0.4-0.3,0.6c0,0.1,0,0.1-0.1,0.1c-0.1-0.1,0-0.2-0.1-0.3c0,0,0,0.1-0.1,0.1c0,0-0.1,0.1-0.1,0.1
		c0,0-0.1,0-0.1,0c0,0-0.1-0.1-0.1-0.1c0,0.1,0,0.2-0.1,0.3c-0.1-0.1-0.1-0.1-0.1-0.2c-0.1,0-0.1,0-0.1,0.1c0,0.1-0.1,0.1-0.1,0.2
		c0-0.1-0.1-0.2-0.1-0.4c0-0.1,0-0.2-0.1-0.4c-0.1,0-0.1,0.1-0.1,0.1c0,0-0.1,0.1-0.1,0.1c-0.1-0.1,0-0.1,0-0.2
		C32,51,32,51.1,31.8,51.1c0-0.1,0-0.1-0.1-0.2c0-0.1-0.1-0.1-0.2-0.1c-0.1,0-0.1,0-0.2-0.1c-0.1,0-0.1-0.1-0.1-0.1
		c0-0.1,0-0.1,0-0.2c-0.1,0-0.2-0.1-0.2-0.1c-0.1-0.1-0.3-0.1-0.3-0.3c0,0-0.1-0.1-0.1-0.1c-0.1-0.1-0.2-0.2-0.2-0.3
		c0,0,0-0.1-0.1-0.1c0,0-0.1-0.1-0.1-0.1c-0.1,0-0.1,0-0.1,0.1c0,0,0,0,0,0C30,49.4,30,49.3,30,49.2c-0.1-0.3-0.2-0.7-0.4-1
		c0,0,0-0.1-0.1-0.1c-0.1-0.1-0.1-0.1-0.2-0.3c-0.1-0.5-0.1-1,0-1.5c-0.1-0.1-0.4-0.2-0.4-0.2c0,0-0.1,0-0.1,0
		c-0.2-0.1-0.4-0.1-0.6-0.2c-0.1,0-0.1,0-0.2,0c0,0-0.1,0-0.1,0c-0.2-0.1-0.4-0.2-0.6-0.2c-0.1,0-0.1,0-0.2-0.1
		c-0.3-0.1-0.7-0.3-1-0.4c0,0-0.1,0-0.1-0.1c-0.1-0.1-0.2-0.1-0.4-0.1c-0.1,0-0.2,0-0.4,0c-0.2,0-0.4-0.1-0.6-0.1
		c-0.2-0.1-0.4-0.2-0.4-0.4c-0.1-0.1-0.1-0.3-0.2-0.4c-0.1-0.1-0.1-0.2-0.1-0.3c0-0.1-0.1-0.2-0.1-0.4c0,0,0-0.1,0-0.1
		c0-0.1-0.1-0.2-0.1-0.3c0-0.1,0-0.2,0-0.3c0-0.1,0.1-0.1,0.1-0.2c0,0,0.1,0,0.1,0c0.2-0.1,0.4-0.1,0.7-0.2c0.1,0,0.2,0,0.3,0
		c0.2,0,0.5,0,0.7-0.1c0.2-0.1,0.4-0.1,0.6-0.1c0.3,0,0.6-0.1,1-0.2c0.2,0,0.3-0.1,0.5-0.2c0.2-0.1,0.4-0.2,0.6-0.3
		c0.1-0.1,0.3-0.1,0.4-0.1c0.3,0,0.6,0,0.9-0.1c0,0,0,0,0,0c0.2,0,0.2-0.1,0.2-0.2c0-0.1,0-0.2,0.1-0.3c-0.1,0-0.2-0.1-0.3-0.1
		c-0.1,0-0.2-0.1-0.2-0.1c-0.1,0-0.1,0-0.2,0c0,0-0.1,0-0.1,0c-0.6-0.2-1.1-0.2-1.7-0.1c-0.3,0-0.5,0.1-0.8,0.2
		c-0.2,0.1-0.5,0.1-0.7,0.2c-0.2,0-0.4,0.1-0.5,0.1c-0.1,0-0.2,0-0.3,0c-0.2,0-0.2,0-0.3-0.1c0-0.1,0-0.2,0.1-0.3c0,0,0-0.1-0.1-0.1
		c-0.1,0-0.3,0-0.4,0c-0.1,0-0.1,0-0.2,0c-0.1,0-0.1-0.1-0.2-0.1c0.1-0.1,0.2-0.1,0.2-0.2c0.1-0.1,0.2-0.1,0.2-0.2
		c-0.2-0.1-0.4-0.2-0.6-0.3c-0.1,0-0.1-0.1-0.2-0.1c0,0-0.1-0.1-0.1-0.1c0.1-0.1,0.2-0.1,0.3-0.1c0.1,0,0.1,0,0.2,0
		c0.1,0,0.1,0,0.2,0c0-0.1,0-0.1,0-0.2c-0.1-0.2-0.1-0.4-0.1-0.5c0,0,0-0.1,0-0.1c0.2,0,0.3,0.1,0.4,0.2c0.1-0.1,0.1-0.3,0.2-0.4
		c0.1-0.1,0.1-0.2,0.2-0.3c0,0,0.1,0.1,0.1,0.1c0,0,0,0.1,0.1,0.1c0.1,0.2,0.2,0.5,0.4,0.7c0,0,0,0.1,0.1,0.1
		c0.1-0.3,0.2-0.5,0.4-0.7c0,0,0,0,0,0.1c0,0.1,0,0.1,0,0.2c0,0.2,0.1,0.3,0.2,0.5c0.1,0.2,0.2,0.3,0.4,0.4c0.1,0.1,0.3,0.1,0.5,0.2
		c0.1,0,0.3,0,0.4,0.1c0.2,0,0.3,0,0.5,0c0.2,0,0.4,0,0.6,0c0.2,0,0.4,0,0.6,0.1c0.2,0,0.3,0.1,0.5,0.1c0.2,0,0.4,0.2,0.6,0.3
		c0,0,0.1,0.1,0.1,0.1c0.2,0,0.4,0.1,0.6,0.1c0.2,0,0.4-0.2,0.5-0.4c0-0.1,0-0.1,0-0.2c0-0.1,0-0.2,0-0.3c-0.2-0.5-0.4-0.9-0.8-1.2
		c-0.2-0.2-0.5-0.4-0.8-0.6c-0.2-0.1-0.5-0.2-0.7-0.2c-0.1,0-0.2,0-0.3-0.1c-0.1,0-0.1,0-0.2,0c0,0-0.1,0-0.1,0
		c0.2-0.2,0.3-0.3,0.5-0.4C29,36.3,29,36,28.9,35.7c0,0,0.1,0,0.1,0c0.1,0.1,0.2,0.2,0.4,0.2c0.1,0.1,0.2,0.1,0.3,0.2c0,0,0,0,0,0
		c0,0,0,0,0-0.1c0-0.1,0-0.2,0-0.3c0,0,0-0.1,0-0.1c0,0,0.1,0,0.1,0c0.1,0.1,0.2,0.1,0.2,0.2c0.1,0,0.1,0.1,0.2,0.1
		c0.1,0.1,0.2,0.1,0.3,0c0.1-0.1,0.2-0.2,0.1-0.3c0-0.1,0-0.1-0.1-0.2c0-0.1-0.1-0.1-0.1-0.2c0,0,0,0,0.1,0c0.1,0,0.2,0,0.3,0
		c0.2,0.1,0.3,0.1,0.5,0.2c0.1-0.2,0.2-0.5,0.4-0.7c0,0,0,0,0.1-0.1c0,0.1,0.1,0.1,0.1,0.2c0.1,0.3,0.1,0.5,0.2,0.8
		c0,0.1,0.1,0.3,0.2,0.3c0,0,0.1,0,0.1,0.1c0.2,0.1,0.3,0.2,0.4,0.3c0.3,0.3,0.6,0.5,0.8,0.8c0.1,0.1,0.2,0.2,0.3,0.3
		c0,0,0,0,0.1-0.1c0.2-0.3,0.3-0.6,0.5-0.9c0.1-0.2,0.2-0.5,0.3-0.7c0.2-0.4,0.3-0.8,0.3-1.2c0.1-0.3,0.1-0.6,0.1-0.9
		c0-0.5,0-1-0.1-1.5c-0.1-0.3-0.2-0.5-0.3-0.8c0,0-0.1-0.1-0.1-0.1c-0.3,0.2-0.5,0.4-0.8,0.6c-0.2,0.2-0.5,0.4-0.7,0.7
		c0-0.1,0-0.1,0-0.2c0.1-0.2,0.2-0.4,0.3-0.6c0.3-0.4,0.5-0.7,0.8-1c0,0,0,0,0,0c-0.2-0.1-0.3-0.1-0.5-0.2c-0.2,0-0.4,0-0.6,0
		c-0.2,0-0.4,0.1-0.6,0.1c-0.4,0.1-0.7,0.3-1,0.5c-0.3,0.2-0.6,0.4-0.9,0.7c0,0-0.1,0.1-0.2,0.1c0,0,0-0.1,0-0.1
		c0.1-0.2,0.1-0.3,0.3-0.5c0.2-0.2,0.3-0.4,0.5-0.6c0.3-0.3,0.6-0.5,1-0.7c0,0,0.1,0,0.1-0.1c0,0,0-0.1,0-0.1c0-0.2,0-0.5,0.1-0.7
		c0.1-0.3,0.2-0.6,0.4-0.9c0.1-0.1,0.1-0.2,0.2-0.2c0,0,0,0,0,0.1c-0.1,0.4-0.2,0.8-0.1,1.3c0,0.1,0,0.2,0.1,0.3
		c0,0.1,0.1,0.1,0.2,0.1c0.3-0.1,0.5-0.1,0.8-0.1c0,0,0.1,0,0.1,0c0.2,0,0.3,0,0.4,0.1c0.1,0,0.2,0.1,0.2,0.2c0,0,0,0,0.1,0.1
		c0-0.2,0.1-0.3,0.1-0.4c0-0.1,0.1-0.3,0.2-0.4c0.1-0.1,0.1-0.3,0.2-0.4c0.1-0.1,0.1-0.3,0.2-0.4c0,0,0,0.1,0,0.1
		c0,0.1-0.1,0.3-0.1,0.4c0,0.1,0,0.2,0,0.4c0,0,0,0.1,0,0.1c0.3-0.4,0.6-0.8,1-1.2c0,0,0,0,0,0c0,0,0,0,0,0
		c-0.1,0.2-0.2,0.5-0.3,0.7c-0.1,0.2-0.1,0.4-0.2,0.5c0,0.1-0.1,0.2-0.1,0.2c0,0.1-0.1,0.2,0,0.3c0.1,0,0.2,0,0.3-0.1
		c0.1,0,0.2-0.1,0.3-0.1c0.2-0.1,0.4-0.2,0.6-0.5c0.1-0.1,0.2-0.3,0.2-0.5c0.1-0.2,0.1-0.3,0.2-0.5c0.1-0.2,0.1-0.4,0.2-0.6
		c0.1-0.2,0.1-0.4,0.2-0.5c0.1-0.2,0.2-0.3,0.3-0.5c0.1-0.2,0.3-0.3,0.4-0.4c0,0,0,0.1,0,0.1c-0.1,0.1-0.1,0.3-0.2,0.4
		c-0.1,0.3-0.2,0.6-0.2,0.8c0,0.2,0,0.3,0,0.5c0,0.2-0.1,0.4-0.1,0.6c-0.1,0.2-0.1,0.4-0.2,0.6c0,0.1,0,0.1,0,0.2
		c0,0.1,0,0.2,0.1,0.2c0,0,0,0,0.1,0c0.1,0,0.2,0,0.3,0c0.1,0,0.2,0,0.4,0.1c0.2,0,0.4,0.1,0.6,0.2c0.1-0.1,0.3-0.2,0.4-0.3
		c0.3-0.2,0.7-0.5,1-0.6c0.2-0.1,0.3-0.1,0.4-0.1c0,0,0,0,0,0.1c-0.1,0.1-0.1,0.1-0.2,0.2c-0.1,0.1-0.2,0.2-0.4,0.3
		c-0.2,0.2-0.4,0.4-0.5,0.6c-0.1,0.1-0.2,0.3-0.2,0.5c0,0.1,0,0.3,0,0.4c0.1,0.5,0.1,1,0.1,1.6c0,0.3,0,0.5,0,0.8
		c0,0.3-0.1,0.6-0.1,0.8c0,0.1-0.1,0.2-0.1,0.4c0.1,0.1,0.2,0.1,0.3,0.1c0.1,0.1,0.2,0.1,0.4,0.1c0.2,0,0.4,0.1,0.5,0.1
		c0.1,0,0.2,0.1,0.2,0.2c0.1,0.1,0.1,0.2,0.1,0.3c0,0-0.1,0-0.1,0c-0.1,0-0.3,0-0.4,0c-0.2,0-0.5,0-0.7,0.2
		c-0.2,0.1-0.4,0.3-0.6,0.5c-0.2,0.2-0.3,0.5-0.5,0.7c-0.3,0.4-0.5,0.8-0.8,1.1c-0.2,0.3-0.5,0.5-0.8,0.7c-0.2,0.2-0.5,0.4-0.8,0.6
		c-0.3,0.2-0.6,0.3-0.9,0.5c-0.3,0.1-0.6,0.3-0.9,0.3c-0.3,0.1-0.7,0.2-1,0.4c-0.4,0.2-0.8,0.3-1.2,0.4c-0.2,0.1-0.4,0.2-0.6,0.3
		c-0.1,0.1-0.2,0.1-0.3,0.2c-0.1,0-0.1,0.1-0.2,0.1c0,0,0.1,0,0.1,0c0.4,0,0.7-0.1,1.1-0.2c0.2-0.1,0.4-0.1,0.6,0
		c0,0.3-0.1,0.5-0.2,0.7c0,0,0.1,0,0.1,0c0.3,0.1,0.5,0.1,0.8,0.1c0.3,0,0.5,0,0.8,0c0.7-0.1,1.4-0.2,2.1-0.4c0.2,0,0.3-0.1,0.4-0.2
		c0.6-0.3,1.2-0.5,1.8-0.7c0.2-0.1,0.5-0.1,0.7-0.1c0.3,0,0.6,0,0.9,0c0.1,0,0.1,0,0.2,0c0.1,0,0.1,0,0.2,0c0.1,0,0.2,0,0.3,0.1
		c0.1,0,0.3,0.1,0.4,0.1c0.3,0.1,0.5,0.1,0.8,0.2c0.2,0,0.3,0,0.5,0.1c0.2,0,0.4,0.1,0.6,0.1c0,0,0,0,0.1,0c0.3,0,0.5,0,0.8,0.1
		c0.3,0,0.5,0,0.8,0c0.2,0,0.4,0,0.6,0c0.2,0,0.4,0,0.6,0c0.2,0,0.4,0,0.6,0c0.2,0,0.4,0,0.6-0.1c0.1,0,0.1,0,0.2,0
		c0.1,0,0.2,0,0.3,0c0.2,0,0.4-0.1,0.6-0.1c0.1,0,0.3-0.1,0.4-0.1c0.1,0,0.2-0.1,0.3-0.1c0.2,0,0.3-0.1,0.5-0.1c0.1,0,0.2,0,0.2,0
		c0.1,0,0.3,0,0.4,0c0.1,0,0.2,0,0.3,0c0.1,0,0.2,0,0.4,0c0.3,0,0.5,0.1,0.8,0.1c0.3,0,0.7,0.2,1,0.2c0.1,0,0.3,0.1,0.4,0.1
		c0.5,0.2,1.1,0.4,1.7,0.4c0.1,0,0.2,0,0.3,0.1c0.3,0.1,0.6,0.2,0.8,0.4c0.2,0.2,0.4,0.5,0.5,0.9c0.1,0.2,0.1,0.4,0.2,0.6
		c0.1,0.5,0.1,1,0,1.6c0,0.3-0.1,0.7-0.1,1c0,0.2,0,0.3,0,0.5c0,0.2,0.1,0.3,0.1,0.4c0,0,0,0.1,0,0.1c-0.1,0-0.2,0-0.3,0
		c-0.1,0-0.2-0.1-0.3-0.1c-0.1-0.1-0.1-0.1-0.2-0.2c0,0,0,0.1,0,0.1c0,0.2-0.1,0.4-0.2,0.6c-0.2,0.6-0.4,1.1-0.5,1.7
		c-0.1,0.6,0,1.2,0.3,1.8c0.2,0.3,0.4,0.6,0.7,0.8c0.3,0.2,0.6,0.4,1,0.5c0.1,0,0.3,0.1,0.4,0.1c0.2,0,0.3,0.2,0.3,0.4
		c0,0.1,0,0.3,0.1,0.4c0,0.1,0,0.2,0,0.3c0,0.2,0,0.5,0,0.7c0,0.1,0,0.1,0,0.2c0,0.2,0,0.5,0,0.7c0,0.1,0,0.1,0,0.2
		c0,0.3,0,0.6,0,0.9c0,0.8,0.1,1.7,0.2,2.5c0,0,0,0.1,0,0.1c0,0.3,0.1,0.7,0.1,1c0.1,0.3,0.1,0.6,0.2,0.9c0,0.1,0,0.3,0.1,0.4
		c0,0.2,0,0.4,0,0.6c0,0.1,0,0.2,0,0.3c-0.1,0-0.1,0-0.2,0c-0.1,0-0.2,0-0.2,0.1c0,0.1-0.1,0.2-0.2,0.3c-0.2,0.3-0.5,0.5-0.8,0.6
		c-0.2,0.1-0.5,0.1-0.7,0.1c-0.1,0-0.2,0-0.2,0c0-0.2,0-0.4,0.1-0.6c-0.1,0-0.1,0.1-0.1,0.1c-0.1,0.1-0.2,0.3-0.3,0.4
		c0,0-0.1,0.1-0.1,0.1c0,0-0.1-0.1-0.1-0.1c-0.1-0.2-0.1-0.3-0.1-0.5c0.1-0.4,0.2-0.7,0.4-1c0.1-0.2,0.3-0.4,0.5-0.7
		c0.1-0.1,0.1-0.2,0.1-0.2c0.1-0.4,0.2-0.8,0.2-1.2c0-0.3,0.1-0.6,0.1-0.9c0-0.3,0-0.7,0-1c0-0.1,0-0.1,0-0.2c0-0.3-0.1-0.6-0.2-0.9
		c-0.1-0.3-0.2-0.8-0.4-1c-0.3-0.5-0.6-0.9-1-1.3c-0.2-0.2-0.4-0.3-0.7-0.4c-0.1,0-0.1-0.1-0.2-0.1c-0.1,0,0,0.1,0,0.1
		c0.1,0.2,0.2,0.3,0.3,0.5c0.1,0.2,0.1,0.3,0.1,0.5c0,0.2,0,0.5-0.1,0.7c-0.3,0.6-0.5,1.1-0.7,1.7c-0.2,0.6-0.4,1.2-0.6,1.8
		c-0.2,0.7-0.5,1.4-0.6,2.2c-0.1,0.5-0.3,0.9-0.4,1.4c-0.1,0.2-0.1,0.4-0.2,0.6c0,0.1-0.1,0.2-0.1,0.2c0,0-0.1,0.1-0.1,0.1
		c-0.1-0.1-0.1-0.2-0.2-0.3c-0.1,0-0.1,0-0.1,0.1c-0.3,0.2-0.5,0.5-0.8,0.6c-0.2,0.1-0.4,0.2-0.7,0.2c-0.2,0-0.3,0-0.5,0
		c-0.1,0-0.2,0-0.4,0c-0.2,0-0.3,0-0.4-0.2c0-0.1,0.1-0.2,0.1-0.3c0.2-0.3,0.3-0.6,0.5-0.9c0-0.1,0.1-0.1,0.1-0.2
		c0.3-0.2,0.6-0.5,0.8-0.8c0.4-0.4,0.7-0.8,1-1.3c0.4-0.8,0.7-1.6,0.9-2.4c0.1-0.5,0.2-0.9,0.3-1.4c0-0.2,0-0.4,0.1-0.6
		c0-0.1,0-0.1,0-0.2c-0.1-0.4-0.3-0.9-0.5-1.3c-0.2-0.4-0.4-0.8-0.6-1.1c-0.1-0.2-0.3-0.4-0.5-0.6c-0.3-0.3-0.5-0.6-0.7-0.9
		c-0.1-0.1-0.1-0.3-0.2-0.5c-0.1,0-0.1,0.1-0.2,0.1c-0.3,0.2-0.6,0.5-1,0.6c-0.1,0-0.2,0.1-0.2,0.1c-0.2,0-0.3,0-0.4-0.3
		c0,0,0,0,0-0.1c-0.1,0-0.2,0-0.3,0.1c-0.2,0-0.3,0.1-0.5,0.1c-0.6,0.1-1.1,0-1.7,0c-0.1,0-0.1,0-0.2,0c-0.1,0-0.2,0-0.3,0
		c-0.1,0-0.3,0-0.4-0.1c-0.2,0-0.4-0.1-0.6-0.2c-0.2-0.1-0.4-0.1-0.7-0.2c-0.1,0-0.2,0-0.3-0.1c-0.2,0-0.4-0.1-0.6-0.1
		c-0.4-0.1-0.9-0.1-1.3-0.2c-0.2,0-0.4,0-0.6,0c-0.2,0-0.4,0-0.6,0c0,0,0,0-0.1,0c-0.1,0.2-0.2,0.3-0.2,0.5
		c-0.1,0.4-0.1,0.8-0.2,1.2c0,0.4-0.1,0.7-0.1,1.1c0,0.2,0,0.4,0,0.6c0,0.1,0,0.2,0,0.4c0,0.2,0,0.5,0,0.7c0,0.2,0,0.4,0,0.6
		c0,0.1,0,0.3,0,0.4c0.1,0.5,0.2,1.1,0.2,1.6c0.1,0.5,0.2,1,0.3,1.4c0,0.1,0.1,0.2,0.1,0.4c0.1,0.5,0.1,1,0.2,1.4c0,0.3,0,0.7-0.1,1
		c0,0.2-0.1,0.3-0.2,0.5c0,0-0.1,0.1-0.1,0.1c-0.2-0.1-0.2-0.3-0.3-0.5c-0.1,0.1-0.2,0.3-0.2,0.4c-0.1,0.1-0.2,0.2-0.3,0.3
		c-0.2,0-0.4,0-0.6,0c-0.2,0-0.4-0.1-0.6-0.1c-0.3,0-0.5-0.1-0.8-0.2c0,0,0,0-0.1,0c0,0,0,0-0.1-0.1c0-0.2,0.1-0.3,0.1-0.4
		c0.1-0.2,0.1-0.4,0.3-0.5c0.1-0.1,0.2-0.2,0.3-0.2c0,0,0.1,0,0.1-0.1c0.4-0.1,0.6-0.4,0.7-0.7c0.1-0.3,0.2-0.6,0.2-0.8
		c0.1-0.3,0-0.7,0-1c-0.1-0.3-0.1-0.7-0.1-1c0-0.3-0.1-0.6-0.3-1c-0.1-0.3-0.3-0.7-0.5-0.9c0,0-0.1-0.1-0.1-0.1
		c0,0.1-0.1,0.1-0.1,0.2c-0.1,0.4-0.3,0.7-0.4,1.1c0,0.1-0.1,0.3-0.1,0.4c-0.1,0.4-0.2,0.9-0.3,1.3c0,0.2,0,0.5-0.1,0.7
		c0,0.1,0,0.1,0,0.2c-0.1,0.4-0.1,0.8-0.2,1.1c-0.1,0.4-0.2,0.7-0.4,1.1c-0.1,0.2-0.2,0.3-0.3,0.4c0,0-0.1,0-0.1,0.1
		c-0.1,0-0.1-0.1-0.1-0.1c0-0.1-0.1-0.2-0.1-0.3c-0.1,0-0.1,0.1-0.2,0.2c-0.1,0.1-0.1,0.1-0.2,0.2c-0.1,0-0.1,0.1-0.2,0
		c-0.4-0.1-0.8-0.2-1.2-0.3c-0.1,0-0.1-0.1-0.2-0.1c-0.2-0.1-0.4-0.1-0.5-0.3c-0.1-0.1-0.2-0.1-0.3-0.2c0,0-0.1-0.1,0-0.2
		c0-0.1,0.1-0.1,0.1-0.2c0.2-0.3,0.5-0.5,0.8-0.7c0.1,0,0.2-0.1,0.3-0.1c0.4-0.1,0.7-0.4,1-0.7c0.3-0.3,0.4-0.7,0.6-1.1
		c0.1-0.4,0.2-0.7,0.3-1.1c0-0.1,0-0.2,0-0.3c0-0.2,0-0.3,0.1-0.5c0-0.2,0-0.4,0-0.5c0-0.4,0-0.7,0-1.1c0-0.2,0.1-0.4,0.1-0.6
		c0-0.3,0.1-0.5,0.1-0.8c0-0.3,0-0.5,0-0.8c0-0.3,0-0.6,0-0.9c0-0.3,0-0.5,0-0.8c0-0.2-0.1-0.5-0.3-0.6c-0.1-0.1-0.2-0.2-0.4-0.3
		c-0.2-0.1-0.3-0.3-0.5-0.4c-0.1-0.1-0.1-0.1-0.2,0c-0.1,0.1-0.1,0.2-0.1,0.3C34.6,50.7,34.6,50.7,34.6,50.8z M37.7,33.7
		c-0.1,0.1-0.3,0.1-0.4,0c-0.1,0-0.1,0-0.2,0c-0.1,0-0.3,0-0.4,0c-0.2,0-0.4,0.1-0.6,0.2C36.1,34,36,34.1,36,34.3
		c-0.1,0.2-0.1,0.5-0.2,0.7c0,0,0,0,0,0.1c-0.1,0.2-0.1,0.4-0.2,0.5c0,0.1-0.1,0.3-0.1,0.4c-0.1,0.3-0.2,0.6-0.3,0.9
		c-0.2,0.4-0.3,0.7-0.6,1.1c-0.1,0.1-0.1,0.2-0.2,0.3c-0.1,0.1-0.2,0.3-0.1,0.4c0,0.1,0,0.2,0,0.2c0,0.2,0.1,0.3,0.3,0.3
		c0.1,0,0.1,0,0.2,0c0.3,0,0.5-0.2,0.7-0.3c0.1,0,0.1-0.1,0.2-0.1c0.2-0.1,0.3-0.2,0.5-0.4c0.1-0.1,0.2-0.1,0.3-0.2
		c0.2-0.1,0.3-0.3,0.5-0.4c0.2-0.2,0.5-0.5,0.7-0.8c0.1-0.2,0.3-0.4,0.4-0.6c0.3-0.5,0.5-1.1,0.7-1.7c0.1-0.3,0.2-0.7,0.2-1
		c0-0.4,0-0.7,0-1.1c-0.1-0.3-0.1-0.6-0.3-0.8c0-0.1,0-0.1-0.1-0.2c-0.1-0.2-0.3-0.4-0.4-0.6c-0.2-0.2-0.5-0.3-0.8-0.3
		c0,0-0.1,0-0.1,0c-0.1,0-0.1,0-0.2,0c-0.2,0-0.4,0-0.6,0.1c-0.2,0.1-0.4,0.1-0.6,0.2c0,0,0,0-0.1,0c0,0.1,0.1,0.3,0.1,0.4
		c0,0.1,0.1,0.3,0.1,0.4c0,0.1,0,0.3,0.1,0.5c0,0.2,0,0.3,0,0.5c0,0.2,0,0.3,0,0.5c0.1,0,0.1,0,0.1,0c0.2-0.1,0.4-0.1,0.5-0.1
		c0.2,0,0.5,0,0.7,0c0.1,0,0.3,0.1,0.4,0.2C37.6,33.5,37.7,33.6,37.7,33.7z M30.7,36.7c0,0.1,0.1,0.2,0.1,0.3
		c0.1,0.1,0.2,0.3,0.3,0.4c0.3,0.3,0.6,0.6,0.8,1.1c0.1,0.3,0.2,0.6,0.3,0.9c0,0,0,0.1,0,0.1c0,0,0.1,0,0.1,0
		c0.1-0.1,0.2-0.2,0.3-0.2c0.1-0.1,0.2-0.3,0.3-0.4c0.2-0.3,0.2-0.2,0.1-0.6c0,0,0,0,0,0c-0.1-0.3-0.2-0.5-0.5-0.7
		c-0.2-0.2-0.5-0.3-0.7-0.4c-0.2-0.1-0.4-0.1-0.7-0.2c-0.2,0-0.3,0-0.5-0.1C30.8,36.7,30.7,36.7,30.7,36.7z"/>
	<polygon class="st0" points="46,37.8 45.2,37.6 45.8,39.3 44.8,37.8 44.5,38.6 44.7,37.8 43,38.4 44.5,37.4 43.8,37.1 44.6,37.3 
		44,35.6 44.9,37.1 45.3,36.3 45.1,37.1 46.8,36.5 45.2,37.5 46,37.8 	"/>
	<polygon class="st0" points="35.5,24.8 35.2,23.2 32.6,25.6 34.7,22.7 33.1,22.6 34.7,22.4 32.3,19.7 35.2,21.8 35.2,20.3 
		35.5,21.8 38.1,19.5 36,22.3 37.6,22.4 36,22.6 38.4,25.3 35.6,23.1 35.5,24.8 	"/>
	<polygon class="st0" points="61.2,40.9 61.3,40.3 59.9,40.9 61.1,40 60.5,39.8 61.2,39.9 60.6,38.5 61.5,39.7 61.7,39.1 61.6,39.7 
		63,39.1 61.7,40 62.4,40.3 61.7,40.1 62.3,41.5 61.5,40.3 61.2,40.9 	"/>
	<polygon class="st0" points="56.3,23.6 55.7,24 57.1,24.9 55.5,24.4 55.6,25.4 55.3,24.5 54,26.9 55,24.3 54.1,24.6 55,24.2 
		53.6,23.2 55.2,23.8 55.1,23 55.3,23.7 56.2,22.3 55.6,23.9 56.3,23.6 	"/>
	<polygon class="st0" points="49.9,32.3 49,31.4 48.4,34.2 48.4,31.3 47.4,32 48.3,31.1 45.5,30.5 48.4,30.5 47.7,29.5 48.5,30.4 
		49.2,27.6 49.2,30.4 50.2,29.8 49.3,30.6 52.1,31.3 49.2,31.2 49.9,32.3 	"/>
	<polygon class="st0" points="63.2,33 63.3,32.5 62.3,32.9 63.2,32.3 62.7,32.1 63.2,32.2 62.8,31.2 63.4,32.1 63.6,31.6 63.5,32.1 
		64.5,31.7 63.6,32.3 64.1,32.5 63.6,32.4 64,33.4 63.4,32.5 63.2,33 	"/>
	<polygon class="st0" points="41.9,26.2 42,25.6 40.6,26.2 41.8,25.3 41.2,25 41.9,25.1 41.3,23.7 42.2,25 42.4,24.3 42.3,25 
		43.7,24.4 42.4,25.3 43.1,25.5 42.4,25.4 43,26.8 42.1,25.6 41.9,26.2 	"/>
	<polygon class="st0" points="19.8,37.4 19.9,36.7 18.5,37.3 19.8,36.5 19.1,36.2 19.8,36.3 19.2,34.9 20.1,36.2 20.3,35.5 
		20.2,36.2 21.6,35.6 20.4,36.5 21,36.7 20.3,36.6 20.9,38 20.1,36.8 19.8,37.4 	"/>
	<polygon class="st0" points="48.9,20.8 48.1,20.6 48.7,22.3 47.7,20.8 47.4,21.5 47.6,20.7 45.8,21.3 47.4,20.4 46.6,20 47.5,20.2 
		46.8,18.5 47.8,20 48.1,19.3 48,20.1 49.7,19.4 48.1,20.4 48.9,20.8 	"/>
</g>
</svg>
