<?xml version="1.0" encoding="utf-8"?>
<!-- Generator: Adobe Illustrator 26.2.1, SVG Export Plug-In . SVG Version: 6.00 Build 0)  -->
<svg version="1.0" id="Lager_1" xmlns="http://www.w3.org/2000/svg" xmlns:xlink="http://www.w3.org/1999/xlink" x="0px" y="0px"
	 viewBox="0 0 85.3 18.4" style="enable-background:new 0 0 85.3 18.4;" xml:space="preserve">
<g>
	<g>
		<path d="M2.7,11.2c-1.5,0-2.5-1.1-2.5-2.5V2.9c0-1.4,1-2.5,2.5-2.5c1.6,0,2.4,1,2.4,2.4v1.5H3.6V2.7c0-0.5-0.3-0.9-0.9-0.9
			c-0.6,0-0.9,0.4-0.9,0.8v6.1c0,0.5,0.3,0.8,0.9,0.8c0.6,0,0.9-0.4,0.9-0.9V7.3h1.5v1.5C5.1,10.2,4.2,11.2,2.7,11.2z"/>
		<path d="M9.8,6.8V11H8.1V6.8L6.2,0.6h1.7L9,4.9l1.1-4.4h1.7L9.8,6.8z"/>
		<path d="M16.7,11l-1.2-4.4l-0.6,1.5V11h-1.7V0.6h1.7v4.9l1.7-4.9h1.7L16.6,5l1.7,6H16.7z"/>
		<path d="M20,11V0.6h4.2V2h-2.5v2.9h1.7v1.4h-1.7v3.2h2.5V11H20z"/>
		<path d="M26,11V0.6h1.7v9h2.4V11H26z"/>
		<path d="M31.8,11V0.6h1.7V11H31.8z"/>
		<path d="M39.4,11l-1.8-4.8l-0.6-1.6V11h-1.5V0.6h1.5l1.6,4.8L39.2,7V0.6h1.5V11H39.4z"/>
		<path d="M45.7,2.1v9H44v-9h-1.6V0.6h4.9v1.5H45.7z"/>
		<path d="M53,11.1c-0.6,0-0.9-0.6-0.9-1.4V7.4c0-0.4-0.2-0.8-0.7-0.8h-0.8V11h-1.7V0.6h2.7c1.2,0,2.1,0.6,2.1,2.1v1.9
			c0,0.7-0.3,1.2-1,1.5c0.7,0.2,1,0.8,1,1.5v2.1c0,0.5,0.1,0.8,0.3,1.1v0.5H53z M52,2.7C52,2.2,51.9,2,51.5,2h-0.9v3.3h0.8
			c0.4,0,0.6-0.2,0.6-0.7V2.7z"/>
		<path d="M55.7,11V0.6h4.2V2h-2.5v2.9h1.8v1.4h-1.8v3.2h2.5V11H55.7z"/>
		<path d="M64,11.2c-1.5,0-2.5-0.9-2.5-2.4V7.9H63v0.9c0,0.7,0.3,1,0.9,1c0.6,0,0.9-0.4,0.9-0.9c0-0.9-0.5-1.6-1.3-2.5
			c-0.9-0.9-1.9-2.1-1.9-3.4c0-1.4,0.8-2.6,2.4-2.6c1.4,0,2.3,1,2.3,2.4v0.9h-1.5V2.8c0-0.6-0.3-1-0.8-1c-0.5,0-0.8,0.3-0.8,0.9
			c0,1,0.4,1.5,1.4,2.6c1,1.1,1.8,2.1,1.8,3.4C66.4,10.3,65.3,11.2,64,11.2z"/>
		<path d="M70.4,11.2c-1.5,0-2.5-0.9-2.5-2.4V7.9h1.5v0.9c0,0.7,0.3,1,0.9,1c0.6,0,0.9-0.4,0.9-0.9c0-0.9-0.5-1.6-1.3-2.5
			C69.1,5.5,68,4.3,68,2.9c0-1.4,0.8-2.6,2.5-2.6c1.4,0,2.3,1,2.3,2.4v0.9h-1.5V2.8c0-0.6-0.3-1-0.8-1c-0.5,0-0.8,0.3-0.8,0.9
			c0,1,0.5,1.5,1.4,2.6c1,1.1,1.8,2.1,1.8,3.4C72.9,10.3,71.8,11.2,70.4,11.2z"/>
		<path d="M74.7,11V0.6h4.2V2h-2.5v2.9h1.7v1.4h-1.7v3.2h2.5V11H74.7z"/>
		<path d="M83.6,2.1v9h-1.7v-9h-1.6V0.6h4.9v1.5H83.6z"/>
	</g>
	<g>
		<path d="M0.9,16.5v-3.7h0.9c0.4,0,0.7,0.1,0.9,0.3C2.9,13.3,3,13.6,3,13.9c0,0.2-0.1,0.4-0.2,0.6c-0.1,0.2-0.3,0.3-0.5,0.4
			c0.1,0.1,0.2,0.2,0.3,0.3s0.3,0.4,0.5,0.7c0.1,0.2,0.2,0.4,0.3,0.5l0.2,0.3H3.1l-0.2-0.2c0,0,0,0,0,0l-0.1-0.1l-0.2-0.3l-0.2-0.3
			c-0.1-0.2-0.2-0.3-0.3-0.4C2,15.1,2,15,1.9,15c-0.1,0-0.2-0.1-0.4-0.1H1.4v1.6H0.9z M1.5,13.3H1.4v1.2h0.2c0.3,0,0.5,0,0.6-0.1
			c0.1,0,0.2-0.1,0.2-0.2c0.1-0.1,0.1-0.2,0.1-0.3c0-0.1,0-0.2-0.1-0.3c-0.1-0.1-0.1-0.2-0.3-0.2C2,13.3,1.8,13.3,1.5,13.3z"/>
		<path d="M6,15.1v1c0,0.1,0,0.1,0.1,0.1c0.1,0,0.1,0,0.3-0.1v0.3c-0.1,0.1-0.2,0.1-0.3,0.1c-0.1,0-0.1,0-0.2,0
			c-0.2,0-0.3-0.1-0.4-0.2c-0.2,0.2-0.4,0.2-0.7,0.2c-0.2,0-0.3-0.1-0.4-0.2c-0.1-0.1-0.2-0.3-0.2-0.4c0-0.2,0.1-0.3,0.2-0.4
			c0.1-0.1,0.3-0.2,0.5-0.3l0.6-0.2V15c0-0.3-0.1-0.4-0.4-0.4c-0.3,0-0.5,0.1-0.8,0.4v-0.5c0.2-0.2,0.5-0.3,0.8-0.3
			c0.3,0,0.5,0.1,0.6,0.2c0.1,0,0.1,0.1,0.1,0.2C6,14.5,6,14.6,6,14.7C6,14.7,6,14.9,6,15.1z M5.5,16.1v-0.7l-0.3,0.1
			c-0.2,0.1-0.3,0.1-0.3,0.2c-0.1,0.1-0.1,0.1-0.1,0.2c0,0.1,0,0.2,0.1,0.2c0.1,0.1,0.1,0.1,0.2,0.1C5.3,16.2,5.4,16.2,5.5,16.1z"/>
		<path d="M7.7,14.1v0.3c0.2-0.2,0.5-0.4,0.7-0.4c0.2,0,0.3,0,0.4,0.1c0.1,0.1,0.2,0.2,0.3,0.3c0.1,0.1,0.1,0.4,0.1,0.6v1.4H8.8
			v-1.4c0-0.2,0-0.4-0.1-0.5c-0.1-0.1-0.2-0.2-0.4-0.2c-0.2,0-0.4,0.1-0.6,0.3v1.7H7.2v-2.4H7.7z"/>
		<path d="M11.9,12.9h0.5v3.7h-1c-0.4,0-0.6-0.1-0.9-0.3c-0.2-0.2-0.3-0.5-0.3-0.9c0-0.4,0.1-0.7,0.3-0.9c0.2-0.2,0.5-0.3,0.9-0.3
			c0.2,0,0.3,0,0.5,0.1V12.9z M11.9,16.1v-1.5c-0.1-0.1-0.3-0.1-0.5-0.1c-0.2,0-0.4,0.1-0.6,0.2c-0.1,0.2-0.2,0.4-0.2,0.6
			c0,0.2,0.1,0.4,0.2,0.6c0.1,0.1,0.2,0.1,0.2,0.2s0.2,0,0.4,0H11.9z"/>
		<path d="M14.6,14.1c0.4,0,0.7,0.1,0.9,0.4c0.2,0.2,0.4,0.5,0.4,0.9c0,0.3-0.1,0.6-0.4,0.9c-0.2,0.2-0.6,0.3-0.9,0.3
			c-0.4,0-0.7-0.1-0.9-0.4c-0.2-0.2-0.4-0.5-0.4-0.9c0-0.4,0.1-0.7,0.4-0.9C14,14.2,14.3,14.1,14.6,14.1z M14.6,14.5
			c-0.2,0-0.4,0.1-0.6,0.2c-0.1,0.2-0.2,0.3-0.2,0.6c0,0.2,0.1,0.4,0.2,0.6c0.2,0.1,0.3,0.2,0.6,0.2c0.2,0,0.4-0.1,0.6-0.2
			c0.1-0.1,0.2-0.3,0.2-0.6c0-0.2-0.1-0.4-0.2-0.6C15,14.6,14.8,14.5,14.6,14.5z"/>
		<path d="M17.3,14.1v0.3c0.2-0.2,0.5-0.4,0.7-0.4c0.2,0,0.3,0,0.4,0.1c0.1,0.1,0.2,0.2,0.3,0.3c0.1,0.1,0.1,0.4,0.1,0.6v1.4h-0.5
			v-1.4c0-0.2,0-0.4-0.1-0.5c-0.1-0.1-0.2-0.2-0.4-0.2c-0.2,0-0.4,0.1-0.6,0.3v1.7h-0.5v-2.4H17.3z"/>
		<path d="M20.4,14.1v0.3c0.2-0.2,0.5-0.4,0.7-0.4c0.2,0,0.3,0,0.4,0.1c0.1,0.1,0.2,0.2,0.3,0.3c0.1,0.1,0.1,0.4,0.1,0.6v1.4h-0.5
			v-1.4c0-0.2,0-0.4-0.1-0.5c-0.1-0.1-0.2-0.2-0.4-0.2c-0.2,0-0.4,0.1-0.6,0.3v1.7H20v-2.4H20.4z"/>
		<path d="M25.1,15.4h-1.7c0,0.2,0.1,0.4,0.2,0.6c0.1,0.1,0.3,0.2,0.6,0.2c0.3,0,0.6-0.1,0.9-0.3v0.5c-0.1,0.1-0.3,0.2-0.4,0.2
			c-0.1,0-0.3,0.1-0.5,0.1c-0.3,0-0.5-0.1-0.6-0.2c-0.2-0.1-0.3-0.3-0.4-0.4c-0.1-0.2-0.1-0.4-0.1-0.6c0-0.4,0.1-0.7,0.3-0.9
			c0.2-0.2,0.5-0.3,0.8-0.3c0.3,0,0.6,0.1,0.8,0.3S25.1,14.9,25.1,15.4L25.1,15.4z M23.4,15.1h1.2c0-0.2-0.1-0.3-0.2-0.4
			c-0.1-0.1-0.2-0.2-0.4-0.2s-0.3,0.1-0.4,0.2C23.5,14.7,23.5,14.9,23.4,15.1z M24.6,12.8L24,13.6h-0.3l0.4-0.8H24.6z"/>
		<path d="M28.1,15.4h-1.7c0,0.2,0.1,0.4,0.2,0.6c0.1,0.1,0.3,0.2,0.6,0.2c0.3,0,0.6-0.1,0.9-0.3v0.5c-0.1,0.1-0.3,0.2-0.4,0.2
			c-0.1,0-0.3,0.1-0.5,0.1c-0.3,0-0.5-0.1-0.6-0.2c-0.2-0.1-0.3-0.3-0.4-0.4C26,15.8,26,15.6,26,15.3c0-0.4,0.1-0.7,0.3-0.9
			c0.2-0.2,0.5-0.3,0.8-0.3c0.3,0,0.6,0.1,0.8,0.3C28.1,14.6,28.1,14.9,28.1,15.4L28.1,15.4z M26.5,15.1h1.2c0-0.2-0.1-0.3-0.2-0.4
			c-0.1-0.1-0.2-0.2-0.4-0.2s-0.3,0.1-0.4,0.2C26.6,14.7,26.5,14.9,26.5,15.1z"/>
		<path d="M30.9,16v0.5c-0.2,0.1-0.5,0.1-0.7,0.1c-0.4,0-0.7-0.1-0.9-0.3C29.1,16,29,15.7,29,15.3c0-0.4,0.1-0.7,0.3-0.9
			s0.5-0.4,0.9-0.4c0.1,0,0.2,0,0.3,0c0.1,0,0.2,0.1,0.4,0.1v0.5c-0.2-0.2-0.5-0.2-0.7-0.2c-0.2,0-0.4,0.1-0.5,0.2
			c-0.1,0.2-0.2,0.3-0.2,0.6c0,0.2,0.1,0.4,0.2,0.6c0.2,0.1,0.4,0.2,0.6,0.2C30.5,16.1,30.7,16.1,30.9,16z"/>
		<path d="M33.4,14.1H34l-1.7,3.7h-0.5l0.8-1.8l-0.9-1.9h0.5l0.7,1.4L33.4,14.1z"/>
		<path d="M34.7,12.9h0.5v3.7h-0.5V12.9z M36.3,14.1h0.6l-1,1.2l1.2,1.2h-0.6l-1.2-1.2L36.3,14.1z"/>
		<path d="M37.8,12.9h0.5v3.7h-0.5V12.9z"/>
		<path d="M39.6,13.1c0.1,0,0.1,0,0.2,0.1c0.1,0.1,0.1,0.1,0.1,0.2c0,0.1,0,0.1-0.1,0.2c-0.1,0.1-0.1,0.1-0.2,0.1
			c-0.1,0-0.1,0-0.2-0.1c-0.1-0.1-0.1-0.1-0.1-0.2c0-0.1,0-0.1,0.1-0.2C39.5,13.1,39.5,13.1,39.6,13.1z M39.4,14.1h0.5v2.4h-0.5
			V14.1z"/>
		<path d="M41.4,14.1v0.3c0.2-0.2,0.5-0.4,0.7-0.4c0.2,0,0.3,0,0.4,0.1c0.1,0.1,0.2,0.2,0.3,0.3c0.1,0.1,0.1,0.4,0.1,0.6v1.4h-0.5
			v-1.4c0-0.2,0-0.4-0.1-0.5c-0.1-0.1-0.2-0.2-0.4-0.2c-0.2,0-0.4,0.1-0.6,0.3v1.7h-0.5v-2.4H41.4z"/>
		<path d="M43.9,15c0-0.3,0.1-0.5,0.3-0.6c0.2-0.1,0.4-0.2,0.8-0.2h1v0.4h-0.5c0.1,0.1,0.2,0.2,0.2,0.3c0,0.1,0.1,0.2,0.1,0.3
			c0,0.1,0,0.3-0.1,0.4c-0.1,0.1-0.2,0.2-0.3,0.3c-0.1,0.1-0.3,0.1-0.6,0.2c-0.2,0-0.3,0.1-0.3,0.2c0,0.1,0,0.1,0.1,0.1
			c0.1,0,0.2,0.1,0.4,0.1c0.3,0.1,0.5,0.1,0.6,0.2c0.1,0,0.2,0.1,0.2,0.2c0.1,0.1,0.2,0.3,0.2,0.4c0,0.2-0.1,0.4-0.3,0.6
			c-0.2,0.1-0.5,0.2-0.8,0.2c-0.3,0-0.6-0.1-0.8-0.2c-0.2-0.1-0.3-0.3-0.3-0.6c0-0.3,0.2-0.5,0.6-0.6c-0.2-0.1-0.2-0.2-0.2-0.3
			c0-0.1,0-0.1,0.1-0.2c0.1-0.1,0.2-0.1,0.3-0.1C44.1,15.6,43.9,15.3,43.9,15z M44.7,16.7c-0.2,0-0.3,0-0.4,0.1
			c-0.1,0.1-0.2,0.2-0.2,0.3c0,0.2,0.2,0.4,0.7,0.4c0.2,0,0.4,0,0.5-0.1c0.1-0.1,0.2-0.2,0.2-0.3c0-0.1-0.1-0.2-0.2-0.3
			C45.1,16.7,44.9,16.7,44.7,16.7z M44.8,14.5c-0.1,0-0.2,0-0.3,0.1c-0.1,0.1-0.1,0.2-0.1,0.3c0,0.1,0,0.2,0.1,0.3
			c0.1,0.1,0.2,0.1,0.3,0.1c0.1,0,0.2,0,0.3-0.1c0.1-0.1,0.1-0.2,0.1-0.3c0-0.1,0-0.2-0.1-0.3C45.1,14.6,45,14.5,44.8,14.5z"/>
		<path d="M48.6,13.1c0.1,0,0.1,0,0.2,0.1c0.1,0.1,0.1,0.1,0.1,0.2c0,0.1,0,0.1-0.1,0.2c-0.1,0.1-0.1,0.1-0.2,0.1
			c-0.1,0-0.1,0-0.2-0.1c-0.1-0.1-0.1-0.1-0.1-0.2c0-0.1,0-0.1,0.1-0.2C48.5,13.1,48.6,13.1,48.6,13.1z M48.4,14.1h0.5v2.4h-0.5
			V14.1z"/>
		<path d="M54,12.9h0.5L53,16.6h-0.1l-1.6-3.7h0.5l1.1,2.6L54,12.9z"/>
		<path d="M56.8,15.1v1c0,0.1,0,0.1,0.1,0.1c0.1,0,0.1,0,0.3-0.1v0.3c-0.1,0.1-0.2,0.1-0.3,0.1c-0.1,0-0.1,0-0.2,0
			c-0.2,0-0.3-0.1-0.4-0.2c-0.2,0.2-0.4,0.2-0.7,0.2c-0.2,0-0.3-0.1-0.4-0.2c-0.1-0.1-0.2-0.3-0.2-0.4c0-0.2,0.1-0.3,0.2-0.4
			c0.1-0.1,0.3-0.2,0.5-0.3l0.6-0.2V15c0-0.3-0.1-0.4-0.4-0.4c-0.3,0-0.5,0.1-0.8,0.4v-0.5c0.2-0.2,0.5-0.3,0.8-0.3
			c0.3,0,0.5,0.1,0.6,0.2c0.1,0,0.1,0.1,0.1,0.2c0,0.1,0.1,0.1,0.1,0.2C56.8,14.7,56.8,14.9,56.8,15.1z M55.6,12.9
			c0.1,0,0.1,0,0.2,0.1c0,0,0.1,0.1,0.1,0.2s0,0.1-0.1,0.2c0,0-0.1,0.1-0.2,0.1c-0.1,0-0.1,0-0.2-0.1c0-0.1-0.1-0.1-0.1-0.2
			c0-0.1,0-0.1,0.1-0.2C55.5,13,55.5,12.9,55.6,12.9z M56.3,16.1v-0.7L56,15.5c-0.2,0.1-0.3,0.1-0.3,0.2c-0.1,0.1-0.1,0.1-0.1,0.2
			c0,0.1,0,0.2,0.1,0.2c0.1,0.1,0.1,0.1,0.2,0.1C56.1,16.2,56.2,16.2,56.3,16.1z M56.6,12.9c0.1,0,0.1,0,0.2,0.1
			c0.1,0,0.1,0.1,0.1,0.2s0,0.1-0.1,0.2c0,0-0.1,0.1-0.2,0.1c-0.1,0-0.1,0-0.2-0.1c0-0.1-0.1-0.1-0.1-0.2c0-0.1,0-0.1,0.1-0.2
			C56.5,13,56.5,12.9,56.6,12.9z"/>
		<path d="M57.9,16.4v-0.5c0.1,0.1,0.3,0.2,0.4,0.2c0.1,0.1,0.3,0.1,0.4,0.1c0.1,0,0.2,0,0.3-0.1C59,16,59,16,59,15.9
			c0-0.1,0-0.1-0.1-0.2c0,0-0.1-0.1-0.3-0.2c-0.3-0.2-0.5-0.3-0.6-0.4c-0.1-0.1-0.1-0.3-0.1-0.4c0-0.2,0.1-0.3,0.2-0.5
			c0.1-0.1,0.3-0.2,0.6-0.2c0.2,0,0.5,0.1,0.7,0.2v0.5c-0.3-0.2-0.5-0.3-0.7-0.3c-0.1,0-0.2,0-0.2,0.1c-0.1,0-0.1,0.1-0.1,0.2
			c0,0.1,0,0.1,0.1,0.2c0.1,0.1,0.1,0.1,0.3,0.2l0.2,0.1c0.4,0.2,0.6,0.5,0.6,0.8c0,0.2-0.1,0.4-0.2,0.5c-0.2,0.1-0.4,0.2-0.6,0.2
			c-0.1,0-0.3,0-0.4,0C58.2,16.5,58.1,16.5,57.9,16.4z"/>
		<path d="M60.2,14.5l0.9-0.9v0.5h0.8v0.4h-0.8v1.2c0,0.3,0.1,0.4,0.3,0.4c0.2,0,0.4-0.1,0.5-0.2v0.4c-0.2,0.1-0.4,0.2-0.6,0.2
			c-0.2,0-0.4-0.1-0.5-0.2c0,0-0.1-0.1-0.1-0.1c0,0-0.1-0.1-0.1-0.2c0-0.1,0-0.2,0-0.4v-1.1L60.2,14.5L60.2,14.5z"/>
		<path d="M64.8,15.4h-1.7c0,0.2,0.1,0.4,0.2,0.6c0.1,0.1,0.3,0.2,0.6,0.2c0.3,0,0.6-0.1,0.9-0.3v0.5c-0.1,0.1-0.3,0.2-0.4,0.2
			c-0.1,0-0.3,0.1-0.5,0.1c-0.3,0-0.5-0.1-0.6-0.2c-0.2-0.1-0.3-0.3-0.4-0.4c-0.1-0.2-0.1-0.4-0.1-0.6c0-0.4,0.1-0.7,0.3-0.9
			c0.2-0.2,0.5-0.3,0.8-0.3c0.3,0,0.6,0.1,0.8,0.3C64.7,14.6,64.8,14.9,64.8,15.4L64.8,15.4z M63.1,15.1h1.2c0-0.2-0.1-0.3-0.2-0.4
			c-0.1-0.1-0.2-0.2-0.4-0.2s-0.3,0.1-0.4,0.2C63.2,14.7,63.2,14.9,63.1,15.1z"/>
		<path d="M66.3,14.1v0.6l0,0c0.2-0.4,0.5-0.6,0.7-0.6c0.2,0,0.4,0.1,0.6,0.3l-0.3,0.4c-0.2-0.2-0.3-0.2-0.5-0.2
			c-0.2,0-0.3,0.1-0.4,0.2c-0.1,0.1-0.2,0.3-0.2,0.5v1.3h-0.5v-2.4H66.3z"/>
		<path d="M68.3,12.9h0.5v1.4c0.2-0.2,0.4-0.2,0.7-0.2c0.3,0,0.6,0.1,0.8,0.3c0.2,0.2,0.3,0.5,0.3,0.9c0,0.4-0.1,0.7-0.3,0.9
			c-0.2,0.2-0.5,0.3-0.9,0.3c-0.2,0-0.3,0-0.5-0.1c-0.2,0-0.3-0.1-0.4-0.1V12.9z M68.8,14.7v1.3c0.2,0,0.3,0.1,0.5,0.1
			c0.2,0,0.4-0.1,0.5-0.2c0.1-0.2,0.2-0.3,0.2-0.6c0-0.2-0.1-0.4-0.2-0.6c-0.1-0.2-0.3-0.2-0.5-0.2C69.2,14.5,69,14.6,68.8,14.7z"/>
		<path d="M72.6,14.1c0.4,0,0.7,0.1,0.9,0.4c0.2,0.2,0.4,0.5,0.4,0.9c0,0.3-0.1,0.6-0.4,0.9c-0.2,0.2-0.6,0.3-0.9,0.3
			c-0.4,0-0.7-0.1-0.9-0.4c-0.2-0.2-0.4-0.5-0.4-0.9c0-0.4,0.1-0.7,0.4-0.9C72,14.2,72.3,14.1,72.6,14.1z M72.6,14.5
			c-0.2,0-0.4,0.1-0.6,0.2c-0.1,0.2-0.2,0.3-0.2,0.6c0,0.2,0.1,0.4,0.2,0.6c0.2,0.1,0.3,0.2,0.6,0.2c0.2,0,0.4-0.1,0.6-0.2
			c0.1-0.1,0.2-0.3,0.2-0.6c0-0.2-0.1-0.4-0.2-0.6C73,14.6,72.9,14.5,72.6,14.5z"/>
		<path d="M74.5,14.5l0.9-0.9v0.5h0.8v0.4h-0.8v1.2c0,0.3,0.1,0.4,0.3,0.4c0.2,0,0.4-0.1,0.5-0.2v0.4c-0.2,0.1-0.4,0.2-0.6,0.2
			c-0.2,0-0.4-0.1-0.5-0.2c0,0-0.1-0.1-0.1-0.1c0,0-0.1-0.1-0.1-0.2c0-0.1,0-0.2,0-0.4v-1.1L74.5,14.5L74.5,14.5z"/>
		<path d="M76.8,14.5l0.9-0.9v0.5h0.8v0.4h-0.8v1.2c0,0.3,0.1,0.4,0.3,0.4c0.2,0,0.4-0.1,0.5-0.2v0.4c-0.2,0.1-0.4,0.2-0.6,0.2
			c-0.2,0-0.4-0.1-0.5-0.2c0,0-0.1-0.1-0.1-0.1c0,0-0.1-0.1-0.1-0.2c0-0.1,0-0.2,0-0.4v-1.1L76.8,14.5L76.8,14.5z"/>
		<path d="M81.5,15.4h-1.7c0,0.2,0.1,0.4,0.2,0.6c0.1,0.1,0.3,0.2,0.6,0.2c0.3,0,0.6-0.1,0.9-0.3v0.5c-0.1,0.1-0.3,0.2-0.4,0.2
			c-0.1,0-0.3,0.1-0.5,0.1c-0.3,0-0.5-0.1-0.6-0.2c-0.2-0.1-0.3-0.3-0.4-0.4c-0.1-0.2-0.1-0.4-0.1-0.6c0-0.4,0.1-0.7,0.3-0.9
			c0.2-0.2,0.5-0.3,0.8-0.3c0.3,0,0.6,0.1,0.8,0.3C81.4,14.6,81.5,14.9,81.5,15.4L81.5,15.4z M79.8,15.1H81c0-0.2-0.1-0.3-0.2-0.4
			c-0.1-0.1-0.2-0.2-0.4-0.2c-0.2,0-0.3,0.1-0.4,0.2C79.9,14.7,79.8,14.9,79.8,15.1z"/>
		<path d="M82.9,14.1v0.3c0.2-0.2,0.5-0.4,0.7-0.4c0.2,0,0.3,0,0.4,0.1c0.1,0.1,0.2,0.2,0.3,0.3c0.1,0.1,0.1,0.4,0.1,0.6v1.4H84
			v-1.4c0-0.2,0-0.4-0.1-0.5c-0.1-0.1-0.2-0.2-0.4-0.2c-0.2,0-0.4,0.1-0.6,0.3v1.7h-0.5v-2.4H82.9z"/>
	</g>
</g>
</svg>
