<?xml version="1.0" encoding="UTF-8"?>
<svg id="Lager_1" data-name="Lager 1" xmlns="http://www.w3.org/2000/svg" width="66.8574mm" height="22.07mm" viewBox="0 0 189.517 62.5605">
  <defs>
    <style>
      .cls-1 {
        fill: none;
      }

      .cls-1, .cls-2, .cls-3, .cls-4, .cls-5 {
        stroke-width: 0px;
      }

      .cls-2 {
        fill: #000;
      }

      .cls-3 {
        fill: #f4eb4e;
      }

      .cls-4 {
        fill: #0083ba;
      }

      .cls-5 {
        fill: #f5cd50;
      }
    </style>
  </defs>
  <g>
    <path class="cls-2" d="M76.427,43.2645h-13.2587c0,.955.358,2.2291,1.1145,2.9856.3985.3985,1.1947.8764,2.6276.8764.1596,0,1.2741-.0397,2.0703-.4779.3985-.2389.8367-.6375,1.1154-1.1947h6.0919c-.2786.9955-.8367,2.3895-2.1505,3.6636s-3.3841,2.468-7.2462,2.468c-2.349,0-5.1758-.5176-7.3661-2.707-1.155-1.155-2.6276-3.3445-2.6276-6.7294,0-2.9856,1.1145-5.3751,2.6673-6.8882,1.4734-1.4329,3.7827-2.5879,7.2867-2.5879,2.0703,0,4.7376.4382,6.8485,2.4292,2.5077,2.3887,2.8269,5.4942,2.8269,7.4851v.6772ZM70.574,39.6009c-.1596-.6763-.5581-1.4329-1.0352-1.9108-.8367-.8359-1.991-.9558-2.6284-.9558-1.0749,0-1.9108.2786-2.5879.9558-.4382.4779-.8359,1.1145-.9558,1.9108h7.2073Z"/>
    <path class="cls-2" d="M79.2678,50.9886v-26.5572h10.2723c1.9116,0,4.1812.2786,5.8133,2.0703.9161.9955,1.6321,2.6276,1.6321,4.9766,0,1.155-.1984,2.1505-.7565,3.2651-.5573,1.0352-1.1542,1.6329-2.1497,2.0703,1.394.1596,2.7872.7962,3.6231,1.5933,1.0749,1.0352,1.7917,2.7467,1.7917,4.8575,0,2.5085-.955,4.2201-1.9505,5.2155-1.4337,1.4734-3.9422,2.5085-7.2073,2.5085h-11.0685,0ZM86.156,34.903h1.2741c.7168,0,1.9108-.0794,2.6276-.8359.4382-.4382.6375-1.155.6375-1.752,0-.6772-.2389-1.3543-.6375-1.7917-.4374-.4382-1.2741-.7962-2.6276-.7962h-1.2741v5.1758h0ZM86.156,45.6135h1.5528c1.9116,0,3.504-.1993,4.2606-1.0749.3183-.3588.5573-.9558.5573-1.7123,0-.8359-.2786-1.5131-.6772-1.9116-.8359-.8359-2.5482-.8756-4.2597-.8756h-1.4337v5.5744h0Z"/>
    <path class="cls-2" d="M100.4397,33.1907h6.3706v2.9071c.6367-1.1947,1.5528-1.991,2.5077-2.4689.9558-.5176,2.1108-.7168,3.3048-.7168.1596,0,.4382.0397,1.2741.0794v6.0126c-.3183-.1596-1.1939-.6375-2.7467-.6375-.8367,0-1.991.1199-2.9071.9558-1.3535,1.2344-1.4329,3.1055-1.4329,4.0613v7.605h-6.3706v-17.7979h0Z"/>
    <path class="cls-2" d="M133.4695,43.2645h-13.2587c0,.955.358,2.2291,1.1145,2.9856.3985.3985,1.1947.8764,2.6276.8764.1596,0,1.2741-.0397,2.0703-.4779.3985-.2389.8367-.6375,1.1154-1.1947h6.0919c-.2786.9955-.8367,2.3895-2.1505,3.6636s-3.3841,2.468-7.2462,2.468c-2.349,0-5.1758-.5176-7.3661-2.707-1.155-1.155-2.6276-3.3445-2.6276-6.7294,0-2.9856,1.1145-5.3751,2.6673-6.8882,1.4734-1.4329,3.7827-2.5879,7.2867-2.5879,2.0703,0,4.7376.4382,6.8485,2.4292,2.5077,2.3887,2.8269,5.4942,2.8269,7.4851v.6772ZM127.6165,39.6009c-.1596-.6763-.5573-1.4329-1.0352-1.9108-.8367-.8359-1.991-.9558-2.6284-.9558-1.0749,0-1.9108.2786-2.5879.9558-.4382.4779-.8359,1.1145-.9558,1.9108h7.2073Z"/>
    <path class="cls-2" d="M171.0174,43.2645h-13.2587c0,.955.358,2.2291,1.1145,2.9856.3985.3985,1.1947.8764,2.6276.8764.1596,0,1.2741-.0397,2.0703-.4779.3985-.2389.8367-.6375,1.1154-1.1947h6.0919c-.2786.9955-.8367,2.3895-2.1505,3.6636s-3.3841,2.468-7.2462,2.468c-2.349,0-5.1758-.5176-7.3661-2.707-1.155-1.155-2.6276-3.3445-2.6276-6.7294,0-2.9856,1.1145-5.3751,2.6673-6.8882,1.4734-1.4329,3.7827-2.5879,7.2867-2.5879,2.0703,0,4.7376.4382,6.8485,2.4292,2.5077,2.3887,2.8269,5.4942,2.8269,7.4851v.6772ZM165.1644,39.6009c-.1596-.6763-.5581-1.4329-1.0352-1.9108-.8367-.8359-1.991-.9558-2.6284-.9558-1.0749,0-1.9108.2786-2.5879.9558-.4382.4779-.8359,1.1145-.9558,1.9108h7.2073Z"/>
    <path class="cls-2" d="M180.4502,38.407v12.5816h-6.3706v-12.5816h-3.448l1.7008-5.2163h1.7472v-5.853h6.3706v5.853h6.4577l-1.7008,5.2163h-4.7569Z"/>
    <polygon class="cls-2" points="142.3609 42.3087 138.1004 33.1906 130.9732 33.1906 140.1707 50.9886 144.2273 50.9886 153.8843 33.1906 147.178 33.1906 142.3609 42.3087"/>
  </g>
  <g>
    <polygon class="cls-3" points="57.1273 10.0641 57.0884 10.3351 43.9821 55.5995 43.9567 55.678 43.8012 56.0817 43.6109 56.4636 43.3821 56.8315 43.1609 57.1261 42.9252 57.3932 42.6166 57.6881 42.2679 57.9634 41.9652 58.1617 41.5845 58.3663 41.1961 58.5303 40.8572 58.6403 40.4366 58.7371 40.0215 58.7923 39.6723 58.8064 39.5276 58.8027 39.243 58.7817 38.9663 58.7452 14.6956 54.1613 14.4449 54.0979 14.1155 53.9833 13.8814 53.8769 13.6589 53.7532 13.4537 53.6157 13.2131 53.4191 12.99 53.1921 12.836 53.0003 12.6958 52.7902 12.5834 52.5863 12.4602 52.3023 12.362 51.9869 12.3087 51.7292 12.2758 51.4519 12.2663 51.2022 12.2833 50.8533 12.3375 50.4886 12.4325 50.107 26.8286 6.2374 26.9347 5.9913 27.1284 5.6732 27.396 5.3591 27.7385 5.0685 27.8726 4.978 28.1977 4.8005 28.5747 4.658 28.9256 4.5789 29.3207 4.5484 29.7775 4.5805 55.5809 8.3907 55.7969 8.4323 56.0855 8.5253 56.3485 8.6565 56.5968 8.8362 56.783 9.0263 56.9266 9.2307 57.0459 9.4864 57.1109 9.7398 57.1297 9.9803 57.1273 10.0641"/>
    <path class="cls-2" d="M41.2196,38.7743l-.0018-.0262-.0025-.0263-.0033-.0263-.0041-.0264-.0049-.0264-.0056-.0264-.0064-.0265-.0072-.0265-.008-.0265-.0088-.0265-.0096-.0265-.0105-.0265-.0113-.0265-.0121-.0265-.0129-.0265-.0137-.0265-.0145-.0265-.0154-.0265-.5349-.8845-.5436-.8762-.5501-.8692-.5672-.883-.0136-.0191-.0141-.0188-.0147-.0184-.0153-.0181-.0158-.0177-.0164-.0173-.0169-.0169-.0174-.0165-.018-.0161-.0184-.0157-.0189-.0153-.0194-.0148-.0199-.0143-.0203-.0139-.0208-.0135-.0212-.013-.0216-.0125-.022-.012-.0225-.0115-.0228-.011-.0232-.0105-.0235-.01-.024-.0094-.0243-.0089-.0246-.0083-.0249-.0078-.0252-.0072-.0255-.0066-.0258-.0061-.0261-.0055-.0264-.0049-.0266-.0042-.0269-.0036-.0271-.003-.0273-.0024-.0276-.0017-.0277-.001-.0279-.0004-.0281.0003-.0282.001-.0285.0017-.0286.0023-.0287.0031-.0288.0038-.029.0045-.0291.0052-.0291.0059-.0292.0067-.0292.0075-.0293.0083-.0294.0091-.0294.0098-.0294.0106-.0294.0114-.0294.0123-.0294.0131-.0294.0139-.0294.0147-.0293.0156-.0293.0165-.0292.0173-.0292.0182-.0291.0191c-.8547.5394-2.1574,1.3564-2.3364,1.4618-.1073.065-.1904.0535-.2559-.0027-.091-.0781-.2941-.2717-.2941-.2717l-.3855-.3726-.3742-.3789-.3627-.3855-.351-.3921-.3392-.399-.327-.4059-.3148-.4131-.3024-.4205-.2898-.428-.2771-.4357-.2641-.4435-.251-.4516-.2377-.4597-.2242-.4681-.2105-.4765-.1338-.3283-.1261-.3315-.2362-.6695-.2268-.6725-.2316-.669c-.0048-.0106-.008-.0218-.0121-.0327-.055-.1458.0462-.2547.18-.3326l2.2676-1.3754.0276-.0172.0271-.0175.0265-.0178.0259-.0182.0254-.0185.0248-.0188.0243-.0191.0236-.0194.0231-.0197.0226-.0199.0219-.0202.0214-.0205.0207-.0207.0202-.021.0196-.0212.0189-.0214.0183-.0217.0177-.0219.0171-.0221.0166-.0223.0159-.0225.0153-.0227.0146-.0229.014-.023.0134-.0232.0127-.0234.0121-.0235.0114-.0237.0108-.0238.0101-.024.0095-.0241.0088-.0242.0082-.0243.0074-.0244.0068-.0245.0062-.0246.0054-.0247.0048-.0248.0041-.0248.0034-.0249.0027-.0249.002-.025.0013-.025.0006-.0251v-.0251s-.0009-.0251-.0009-.0251l-.0016-.0251-.0022-.0251-.003-.0251-.0037-.0251-.0044-.0251-.0052-.0251-.0059-.025-.0067-.025-.0074-.025-.0082-.0249-.0089-.0249-.0097-.0248-.0104-.0247-.0112-.0246-.012-.0246-.0127-.0245-.0135-.0244-.5226-.8584-.5128-.8287-.5174-.8232-.5338-.8356-.0122-.0177-.0123-.0173-.0126-.017-.0128-.0166-.013-.0162-.0132-.0158-.0135-.0155-.0137-.0151-.0139-.0147-.0141-.0143-.0143-.014-.0145-.0136-.0147-.0132-.0149-.0128-.0152-.0125-.0153-.0121-.0155-.0117-.0157-.0113-.0159-.011-.016-.0106-.0162-.0102-.0164-.0098-.0166-.0095-.0167-.0091-.0169-.0087-.0171-.0083-.0172-.008-.0174-.0076-.0175-.0072-.0177-.0068-.0178-.0065-.018-.0061-.0181-.0057-.0182-.0053-.0184-.005-.0185-.0046-.0186-.0042-.0187-.0038-.0189-.0035-.019-.0031-.0191-.0027-.0192-.0023-.0193-.002-.0194-.0016-.0195-.0012-.0197-.0008-.0197-.0005h-.0198s-.0199.0002-.0199.0002l-.02.0007-.0201.001-.0202.0014-.0203.0018-.0203.0022-.0204.0025-.041.0062-.0413.0077-.0415.0092-.0417.0107-.0248.0071-.0249.0076-.0249.0081-.025.0086-.025.0092-.025.0097-.0251.0102-.0251.0108-.0503.0231-.0503.0252-.0503.0273-4.071,2.4838-.0808.0518-.0782.054-.0754.056-.0727.058-.07.0599-.034.0307-.0333.0311-.0326.0316-.0319.032-.0311.0324-.0305.0328-.0297.0332-.029.0336-.0283.034-.0276.0343-.0268.0347-.0261.0351-.0253.0354-.0246.0357-.0238.0361-.0231.0364-.0223.0367-.0216.0369-.0208.0372-.02.0375-.0192.0378-.0184.038-.0176.0383-.0169.0385-.0161.0387-.0153.039-.0145.0392-.0137.0393-.0128.0395-.0121.0397-.0112.0399-.0103.04-.0096.0401-.0087.0403-.0079.0404-.007.0405-.0062.0407-.0054.0407-.0044.0408-.0036.0409-.0028.041-.0019.041-.001.0411-.0002.0411.0007.0411.0016.0411.0025.0412.0034.0411.0043.0411.0052.0411.0061.0411.007.041.0079.041.0089.0409.1475.6108.1627.6059.1775.6011.192.5964.2061.5918.2198.5874.2331.5831.2461.579.2291.5123.2372.5083.2455.5042.2536.5002.2619.4961.2701.492.2784.4879.2866.4838.2949.4797.3032.4755.3116.4713.3199.4671.3282.4629.3366.4587.345.4545.3534.4502.5181.633.2652.3117.2696.3083.2741.3048.2787.3011.2835.2973.2885.2933.2936.2892.2989.2849.3042.2804.3099.2759.3155.2711.3214.2663.3274.2612.3336.256.0899.0657.0895.0615.0891.0573.0889.053.0443.0249.0443.0239.0442.0228.0442.0218.0442.0207.0442.0197.0442.0186.0442.0176.0442.0165.0442.0155.0442.0144.0443.0133.0443.0123.0444.0112.0444.0102.0445.0091.0446.0081.0447.007.0447.0059.0449.0049.045.0039.0451.0028.0452.0018.0454.0007.0455-.0004.0456-.0014.0458-.0024.0459-.0035.0461-.0046.0463-.0056.0465-.0066.0467-.0077.0469-.0087.0471-.0098.0473-.0109.0476-.0119.0478-.0129.0481-.014.0483-.0151.0486-.0161.098-.0353.0991-.0395.1003-.0437.1016-.0478.103-.052.1044-.0562.1058-.0603,3.5273-2.1737.0588-.0376.0564-.0386.054-.0397.0261-.0202.0254-.0204.0248-.0207.0242-.0209.0235-.0212.0229-.0214.0222-.0216.0216-.0218.021-.022.0203-.0222.0197-.0224.019-.0226.0183-.0228.0177-.023.017-.0232.0163-.0233.0157-.0235.015-.0236.0143-.0238.0136-.024.0129-.0242.0123-.0243.0115-.0244.0108-.0246.0101-.0247.0094-.0248.0086-.0249.008-.0251.0072-.0252.0065-.0253.0057-.0254.005-.0255.0043-.0256.0036-.0257.0028-.0258.002-.0259.0013-.026.0005-.026-.0002-.0261-.001-.0261.0004.0003Z"/>
    <path class="cls-2" d="M43.7304,18.2002c-1.248-.6853-2.6399-1.1474-4.0473-1.3611-.1403-.0187-.2855-.0035-.4193.0422-.38.1197-.6726.5335-.5653.9336.0369.1377.1272.2589.2451.3383.172.1231.5682.1722.7697.2094,3.7052.6776,6.8333,3.4832,7.6578,7.1944.2765,1.2596.28,2.5896.0296,3.8538-.0126.1416-.3252,1.309-.2738,1.4271.0199.2428.1663.4713.3823.5854.4167.2356.9736-.0306,1.1233-.4678,1.6698-4.8811-.3796-10.2571-4.9021-12.7555h0Z"/>
    <path class="cls-2" d="M38.8872,20.21h-.0006c-.5158-.1029-.9186-.0065-1.1581.4296-.1256.2436-.1242.5691.0854.7662.1044.1039.2416.1698.3825.2083.5521.1017,1.1348.2567,1.6508.4794,1.256.5101,2.3966,1.3746,3.0894,2.5539.676,1.1648,1.0221,2.5589.9119,3.9046-.0301.3114-.0883.6456-.1598.9502-.0983.405-.3423.9556.0819,1.2595.3687.2628.9431.1695,1.2033-.2036,1.7265-4.7383-1.1787-9.4457-6.0866-10.348h0Z"/>
    <path class="cls-2" d="M38.2699,23.6549c-.486-.1394-1.0954-.2708-1.4671.1723-.2658.3107-.2963.8319.1009,1.0476.0676.0401.1426.0711.2176.0939,1.3739.1965,2.5387,1.1299,2.9162,2.4826.4522,1.1704-.6151,2.5478.398,2.8263.2988.0925.6438.0173.8546-.22.2906-.3188.3489-.7779.4221-1.1867.2097-1.3862-.2416-2.8532-1.208-3.8713-.6003-.6429-1.3881-1.1089-2.2343-1.3448h0Z"/>
    <path class="cls-2" d="M59.49,9.8932c-.0002-.0102-.0004-.0205-.0008-.0308l-.0028-.0732c-.0004-.0105-.0009-.0208-.0016-.0312l-.0048-.0725c-.0007-.0114-.0016-.0228-.0027-.0341l-.0068-.0716c-.0009-.01-.002-.0201-.0033-.0302l-.0085-.0708c-.0012-.0103-.0026-.0206-.0041-.0309l-.0103-.0698c-.0018-.0113-.0035-.0227-.0055-.034l-.0142-.0802c-.0022-.0123-.0046-.0245-.007-.0367l-.0166-.0786c-.0026-.0118-.0052-.0235-.008-.0352l-.0187-.0771c-.0027-.0109-.0054-.0218-.0084-.0325l-.0206-.0755c-.0033-.0117-.0066-.0234-.0102-.035l-.0227-.074c-.0033-.0105-.0066-.021-.0102-.0315l-.0244-.0723c-.0037-.0109-.0074-.0216-.0114-.0323l-.0262-.0707c-.0041-.011-.0083-.0219-.0127-.0327l-.0279-.0691c-.0037-.0092-.0074-.0182-.0114-.0273l-.0293-.0675c-.0048-.0109-.0096-.0218-.0146-.0325l-.0309-.0658c-.0044-.0094-.009-.0187-.0137-.028l-.0323-.0642c-.0046-.0093-.0095-.0186-.0144-.0278l-.0335-.0624c-.0049-.0092-.0099-.0182-.0151-.0273l-.0347-.0608c-.005-.0088-.0102-.0175-.0155-.0262l-.0358-.0591c-.0052-.0085-.0105-.017-.0159-.0253l-.0367-.0574c-.0049-.0077-.0099-.0154-.0151-.023l-.0376-.0557c-.0064-.0095-.0129-.0188-.0197-.0282l-.0462-.0645c-.0063-.0088-.0127-.0175-.0192-.0262l-.0476-.0626c-.007-.0092-.0141-.0183-.0214-.0273l-.0491-.0608c-.0069-.0085-.0138-.017-.021-.0253l-.0504-.059c-.0069-.0082-.0141-.0163-.0214-.0243l-.0517-.0572c-.0076-.0085-.0155-.0169-.0233-.0252l-.053-.0554c-.0066-.0069-.0134-.0138-.0202-.0205l-.054-.0537c-.008-.0079-.016-.0157-.0242-.0234l-.0552-.0518c-.0074-.0069-.0149-.0138-.0225-.0205l-.0561-.0501c-.0077-.007-.0157-.0139-.0237-.0207l-.0571-.0483c-.0077-.0065-.0155-.0129-.0233-.0192l-.058-.0466c-.0079-.0063-.0157-.0124-.0237-.0185l-.0588-.0448c-.0077-.0059-.0156-.0116-.0234-.0173l-.0595-.043c-.008-.0058-.0161-.0116-.0244-.0172l-.0603-.0413c-.0076-.0052-.0152-.0102-.0228-.0152l-.0607-.0396c-.0088-.0057-.0176-.0113-.0266-.0168l-.0616-.0378c-.0077-.0048-.0156-.0095-.0234-.0141l-.0686-.04c-.0094-.0054-.0188-.0108-.0283-.016l-.0697-.038c-.0087-.0048-.0175-.0094-.0263-.014l-.0705-.0363c-.0091-.0047-.0182-.0092-.0274-.0137l-.0713-.0343c-.0088-.0042-.0175-.0083-.0263-.0123l-.0721-.0326c-.0094-.0042-.0187-.0083-.0282-.0123l-.0729-.0307c-.0092-.0039-.0184-.0076-.0277-.0112l-.0738-.0289c-.0091-.0035-.0182-.007-.0273-.0103l-.0744-.0271c-.0091-.0033-.0183-.0065-.0274-.0096l-.0751-.0252c-.0092-.0031-.0184-.0061-.0277-.0089l-.0758-.0234c-.0088-.0027-.0175-.0053-.0263-.0078l-.0764-.0216c-.0094-.0026-.0186-.0051-.0279-.0075l-.077-.0198c-.009-.0023-.0181-.0044-.0271-.0066l-.0774-.018c-.0091-.0022-.0183-.0042-.0275-.0061l-.078-.0161c-.0088-.0018-.0175-.0035-.0263-.0051l-.0784-.0144c-.009-.0016-.0177-.0032-.0267-.0046l-.0789-.0126c-.0034-.0005-.0066-.0006-.01-.0011-.0032-.0005-.0063-.0014-.0094-.0018-.0009-.0002-.0022-.0004-.0034-.0005l-25.1604-3.7177-.6741-.0969c-.0133-.002-.0267-.0037-.0401-.0051l-.1715-.0187c-.0111-.0012-.0223-.0023-.0336-.0032l-.1725-.0138c-.0102-.0008-.0203-.0015-.0306-.0021l-.0865-.0047c-.0076-.0004-.0153-.0007-.0231-.001l-.0865-.003c-.0087-.0003-.0172-.0005-.0259-.0006l-.0868-.0011c-.009-.0002-.0182-.0002-.0267,0l-.0868.0009c-.0084,0-.0168.0003-.0252.0005l-.069.0022c-.0074.0002-.0151.0005-.0227.0009l-.0695.0035c-.0074.0004-.0151.0009-.0225.0013l-.0698.0049c-.007.0005-.0141.0011-.0212.0017l-.0701.0062c-.0076.0007-.0152.0014-.0228.0022l-.0706.0076c-.0073.0007-.0145.0016-.0218.0025l-.0708.009c-.0074.0009-.0148.0019-.0222.003l-.0712.0103c-.0073.0011-.0146.0022-.022.0035l-.0714.0118c-.0074.0011-.0148.0025-.0221.0038l-.0716.0132c-.0073.0014-.0146.0028-.022.0043l-.072.0147c-.0074.0015-.0151.0031-.0223.0048l-.0721.0162c-.007.0016-.0141.0033-.021.005l-.0723.0176c-.008.0019-.0159.0039-.0237.0061l-.0724.0192c-.0069.0018-.0138.0037-.0206.0057l-.0727.0207c-.0074.0021-.0149.0043-.0223.0066l-.0727.0223c-.0076.0024-.0153.0048-.0229.0073l-.0727.024c-.0064.0021-.0129.0043-.0194.0066l-.0649.0227c-.0066.0023-.0134.0048-.0201.0072l-.0652.0241c-.0065.0024-.013.0049-.0195.0074l-.0655.0255c-.0065.0026-.0131.0052-.0197.0079l-.0656.0269c-.0063.0026-.0123.0052-.0184.0078l-.0659.0283c-.0069.0029-.0137.0059-.0205.009l-.0659.0298c-.0064.0029-.0127.0058-.0191.0088l-.066.0313c-.0065.0031-.013.0063-.0194.0094l-.066.0328c-.0066.0033-.0131.0066-.0198.0101l-.066.0343c-.0064.0033-.0129.0067-.0192.0102l-.0659.0358c-.0065.0035-.013.0071-.0194.0108l-.0659.0375c-.0066.0038-.0133.0076-.0198.0115l-.0658.0391c-.0065.0039-.0129.0078-.0194.0118l-.0655.0406c-.0063.0039-.0123.0079-.0186.0118l-.0653.0423c-.0066.0043-.0131.0086-.0197.013l-.0651.044c-.0065.0043-.013.0088-.0194.0133l-.0647.0456c-.0087.0061-.0172.0123-.0258.0186l-.1094.0817c-.008.0061-.016.0122-.024.0184l-.0545.0429c-.0057.0044-.0113.009-.017.0136l-.0541.0443c-.0054.0044-.0107.0087-.016.0132l-.0541.0458-.0151.013-.0538.0472c-.0061.0054-.0121.0107-.0181.0161l-.0533.0487c-.0049.0046-.0098.009-.0146.0136l-.053.0501c-.0057.0054-.0113.0108-.0168.0162l-.0525.0516c-.0053.0052-.0106.0104-.0157.0157l-.0519.053c-.0055.0057-.0111.0115-.0167.0174l-.0513.0545c-.0049.0052-.0098.0104-.0145.0157l-.0507.0559c-.0057.0063-.0114.0127-.017.0191l-.0499.0575c-.0049.0056-.0098.0113-.0145.017l-.0492.0589c-.0053.0063-.0104.0127-.0156.0192l-.0484.0605c-.0053.0066-.0106.0132-.0156.0199l-.0474.062c-.0048.0061-.0095.0123-.014.0186l-.0408.0555c-.0044.0059-.0087.0118-.0129.0178l-.0399.0564c-.0044.0063-.0089.0127-.0133.019l-.0388.0572c-.0041.0063-.0083.0124-.0123.0187l-.0378.0581c-.0038.0059-.0076.0118-.0113.0177l-.0369.059c-.0044.007-.0088.0141-.013.0212l-.0356.0598c-.0039.0067-.0079.0135-.0118.0202l-.0346.0607c-.0041.0072-.008.0144-.012.0216l-.0334.0615c-.0035.0064-.007.0129-.0104.0195l-.0323.0622c-.0035.0068-.0069.0136-.0103.0205l-.0312.0631c-.0038.0077-.0076.0155-.0113.0234l-.0298.0638c-.0037.0078-.0072.0157-.0106.0235l-.0285.0646c-.003.0067-.0059.0135-.0087.0202l-.0274.0654c-.0037.0085-.007.0171-.0104.0256l-.0259.0662c-.0028.0072-.0055.0145-.0083.0218l-.0247.0669c-.0048.0127-.0092.0256-.0134.0384l-.9241,2.7995s-.0002.0008-.0004.0012c-.0001.0003-.0003.0006-.0004.0009l-13.4487,40.9944c-.0016.0052-.0033.0102-.0049.0153l-.0391.1243c-.003.0094-.0057.0187-.0084.0281l-.0355.1238c-.0026.0087-.0049.0175-.0072.0263l-.0323.1231c-.0026.0095-.0049.019-.0072.0286l-.0289.1226c-.002.0088-.0041.0177-.0059.0266l-.0258.1219c-.002.0095-.0038.019-.0055.0285l-.0225.1211c-.0019.0098-.0035.0195-.0052.0293l-.0192.1204c-.0015.0095-.0028.0188-.0042.0283l-.0161.1194c-.0012.0094-.0023.0187-.0034.0282l-.0131.1188c-.0011.0099-.002.0198-.003.0297l-.01.1178c-.0007.0092-.0013.0184-.002.0278l-.0072.1169c-.0005.0098-.0011.0197-.0013.0297l-.0042.1158c-.0004.0096-.0007.0192-.0007.0289l-.0013.1148c-.0002.0103-.0002.0206,0,.0308l.0016.1139c.0002.0096.0004.0191.0007.0286l.0043.1128c.0004.0096.0009.0194.0015.029l.007.1116c.0007.0105.0015.0209.0024.0312l.0115.1282c.0011.0115.0022.0231.0037.0346l.0151.1258c.0012.0111.0027.0221.0043.0331l.0183.1234c.0018.0113.0035.0225.0055.0336l.0216.1211c.0019.0109.0039.0216.0061.0323l.0247.1186c.0022.0111.0048.0222.0073.0332l.0275.116c.0024.0105.0052.0209.0079.0312l.0302.1136c.0028.0107.0058.0213.0089.0319l.033.1112c.0031.0106.0064.0212.0098.0316l.0355.1086c.0034.0105.007.0207.0107.0309l.038.106c.0034.0096.0069.0191.0106.0286l.0401.1036c.0039.01.008.0201.0122.0301l.0422.1009c.0041.0096.0083.0192.0126.0288l.0443.0983c.0042.0095.0087.0188.0131.0281l.0462.0957c.0042.0088.0085.0175.013.0262l.0479.0931c.0049.0095.0099.019.0151.0283l.0496.0904c.0052.0095.0106.019.0161.0285l.0614.105c.0058.0099.0118.0198.0179.0297l.0638.1021c.0063.0099.0126.0197.0191.0294l.0662.0991c.0064.0096.013.0192.0198.0288l.0685.0963c.0068.0096.0137.0191.0209.0285l.0706.0933c.007.0094.0142.0186.0216.0277l.0728.0904c.0068.0084.0137.0167.0207.0249l.0745.0876c.0073.0087.0148.0172.0223.0256l.0765.0847c.0077.0085.0156.017.0234.0252l.0782.0817c.0074.0077.0149.0155.0225.0229l.0799.079c.008.0079.016.0156.0242.0232l.0815.0762c.0076.007.0152.0141.0229.0209l.0828.0735c.0081.0072.0164.0144.0247.0213l.0842.0706c.008.0066.016.0133.0242.0198l.0853.0678c.0083.0065.0166.0129.0249.0192l.0865.0651c.0085.0064.0172.0127.0259.019l.0876.0622c.0085.0059.0172.012.0259.0177l.0981.0659c.0088.0059.0177.0118.0267.0175l.0997.0631c.0098.0061.0195.0122.0294.0181l.1011.0599c.0092.0054.0186.0109.0281.016l.1026.0571c.0094.0053.0188.0105.0283.0153l.1041.0542c.0095.0049.0188.0096.0283.0144l.1055.0514c.0096.0046.0192.0091.0289.0136l.1066.0484c.0092.0042.0186.0083.0279.0122l.1079.0457c.01.0042.0199.0083.0301.0122l.1092.0427c.0091.0037.0183.007.0275.0105l.1102.04c.0099.0035.0198.007.0297.0103l.1112.037c.0089.003.0177.0058.0267.0085l.1123.0345c.0096.003.0192.0058.029.0085l.1131.0316c.0096.0026.0192.0052.0288.0076l.114.0288c.0092.0023.0184.0044.0277.0066l.1148.026c.0137.0031.0275.0059.0413.0085l24.3202,4.5931c.0149.0028.03.0053.045.0076l.1736.0255c.011.0016.0221.003.0332.0043l.1758.0207c.0111.0013.0222.0024.0335.0035l.1779.0159c.012.0011.024.0019.0361.0026l.1791.0105c.0131.0008.0263.0013.0395.0016l.18.0044c.0098.0003.0195.0004.0294.0004h.0016l.0903-.0002c.007,0,.0142-.0002.0213-.0003l.0903-.0018c.007-.0002.0142-.0003.0213-.0005l.0902-.0034c.0083-.0003.0164-.0007.0247-.0012l.0903-.0053c.0069-.0004.0138-.0008.0209-.0013l.1031-.0079c.0074-.0005.0149-.0012.0223-.0019l.1036-.0099c.0069-.0007.0138-.0015.0206-.0022l.1041-.0118c.0077-.0009.0156-.0019.0233-.0028l.1047-.014c.0068-.0009.0136-.0019.0203-.003l.105-.0159c.0069-.0011.014-.0022.021-.0034l.1055-.0179c.0076-.0012.0152-.0026.0228-.0041l.1056-.0201c.0073-.0013.0145-.0028.0217-.0043l.1062-.0222c.0079-.0016.0157-.0034.0236-.0052l.1063-.0245c.0066-.0016.0134-.0031.0201-.0049l.1066-.0266c.0076-.0019.0152-.0038.0228-.0058l.1067-.0289c.0073-.002.0146-.0041.022-.0063l.107-.0312c.0074-.0022.0149-.0044.0223-.0068l.107-.0335c.0076-.0023.0152-.0048.0227-.0073l.1071-.036c.0072-.0024.0144-.0049.0216-.0074l.1071-.0382c.0077-.0027.0156-.0057.0233-.0087l.1071-.0408c.0068-.0026.0136-.0052.0203-.0079l.095-.0382c.0061-.0024.0122-.005.0183-.0076l.0954-.0402c.0072-.003.0142-.0061.0214-.0092l.0956-.0426c.0061-.0027.0122-.0055.0183-.0084l.0957-.0446c.007-.0033.014-.0066.0209-.01l.096-.047c.0063-.003.0123-.0061.0186-.0092l.0959-.0491c.0068-.0035.0136-.007.0202-.0106l.096-.0515c.0066-.0035.0131-.0072.0198-.0109l.0959-.0538c.0068-.0038.0134-.0077.0202-.0116l.0957-.0563c.0064-.0038.0129-.0076.0191-.0115l.0954-.0586c.0066-.0041.0131-.0081.0197-.0123l.0952-.061c.0068-.0043.0134-.0087.0201-.0131l.0949-.0636c.0061-.0041.0121-.0081.0182-.0123l.0945-.0659c.0068-.0048.0136-.0096.0202-.0145l.0941-.0686c.0065-.0046.0129-.0094.0191-.0142l.0934-.071c.0061-.0046.0122-.0092.0182-.014l.093-.0736c.0064-.005.0126-.0102.0188-.0153l.0793-.0655c.0052-.0042.0102-.0084.0152-.0127l.079-.0675c.0057-.0049.0114-.0098.0171-.0148l.0786-.0698c.0052-.0048.0103-.0094.0155-.0141l.0781-.0719c.005-.0046.01-.0094.0151-.014l.0775-.0739.0167-.0162.0769-.0762c.0052-.0052.0103-.0103.0153-.0155l.0762-.0785c.0053-.0053.0105-.0107.0156-.0161l.0754-.0805c.0052-.0055.0103-.0113.0155-.017l.0745-.0828c.0053-.0058.0106-.0118.0157-.0177l.0735-.085c.0046-.0054.0092-.0107.0137-.0161l.0727-.0872c.0052-.0063.0102-.0123.0152-.0186l.0714-.0893c.0049-.0061.0096-.0122.0144-.0184l.0704-.0917c.0052-.0066.0102-.0133.0151-.0201l.069-.0939c.0044-.0061.009-.0123.0133-.0184l.0678-.0961c.0049-.0069.0096-.0137.0142-.0206l.0664-.0985c.0039-.0059.008-.012.0118-.0179l.0576-.0889c.0043-.0065.0084-.0131.0126-.0198l.056-.0903c.0039-.0064.0077-.0127.0116-.0191l.0544-.0915.0106-.0183.0529-.0928c.0033-.0058.0066-.0116.0099-.0176l.0514-.0938c.0037-.0069.0074-.0138.011-.0207l.0496-.095c.0034-.0065.0068-.013.01-.0195l.048-.0963c.0035-.007.0069-.014.0102-.0209l.0462-.0975c.003-.0063.0058-.0125.0087-.0187l.0446-.0984c.0031-.0069.0063-.014.0092-.021l.0428-.0996c.003-.0068.0058-.0136.0085-.0205l.0411-.1007c.003-.0072.0058-.0145.0087-.0218l.0392-.1018c.0024-.0063.0048-.0125.007-.0187l.0376-.1028c.0028-.0079.0057-.0157.0084-.0236l.0355-.104c.0022-.0066.0044-.0134.0066-.0201l.0338-.105c.0034-.011.0068-.0218.01-.0328l13.109-45.2677c.0046-.016.009-.0321.0129-.0483l.0194-.0796c.0026-.0107.005-.0214.0073-.0321l.017-.0791c.0023-.0109.0044-.0219.0065-.033l.0145-.0786c.002-.0106.0038-.0212.0054-.0318l.0122-.078c.0018-.0109.0033-.0219.0048-.0328l.0099-.0774c.0013-.0112.0027-.0223.0038-.0336l.0076-.0768c.0009-.01.0019-.0201.0026-.0302l.0055-.0761c.0008-.0116.0015-.0234.002-.0351l.0033-.0754c.0004-.0105.0008-.021.0009-.0316l.0012-.0748c.0002-.0114.0002-.0229,0-.0343l-.0009-.074v-.0002ZM57.1273,10.0641l-.0389.271-13.1062,45.2644-.0254.0785-.1555.4036-.1904.3819-.2289.368-.2212.2946-.2358.2671-.3086.2949-.3487.2752-.3026.1983-.3807.2046-.3885.164-.3389.1099-.4206.0968-.4151.0552-.3491.0141-.1448-.0037-.2846-.021-.2767-.0365-24.2707-4.5839-.2507-.0635-.3295-.1146-.234-.1064-.2225-.1236-.2053-.1375-.2407-.1967-.223-.2269-.154-.1917-.1402-.2101-.1124-.2039-.1232-.2841-.0982-.3154-.0533-.2577-.033-.2773-.0095-.2498.0171-.3488.0541-.3647.0951-.3817L26.8286,6.2374l.106-.2461.1937-.318.2676-.3141.3425-.2906.1341-.0905.3251-.1775.377-.1426.3509-.079.3951-.0305.4568.0321,25.8034,3.8102.2161.0417.2885.093.263.1312.2483.1798.1863.1902.1436.2044.1193.2557.0649.2534.0188.2404-.0024.0839h0Z"/>
    <g>
      <path class="cls-1" d="M21.2426,14.301v5.6419s0,0,0,0v-5.6419h0Z"/>
      <path class="cls-4" d="M21.2426,5.3034v5.6421h5.6421c-.6413-2.7974-2.8446-5.0007-5.6421-5.6421Z"/>
      <path class="cls-4" d="M17.887,19.9429v-5.6419h-5.6419c.6413,2.7975,2.8446,5.0006,5.6419,5.6419Z"/>
      <path class="cls-4" d="M12.2452,10.9454h5.6419v-5.6421c-2.7973.6413-5.0006,2.8446-5.6419,5.6421Z"/>
      <path class="cls-4" d="M26.8847,14.301h-5.642v5.6419c2.7973-.6413,5.0007-2.8446,5.642-5.6419Z"/>
      <path class="cls-5" d="M21.2427,14.301h5.642c.1239-.5404.1955-1.1003.1955-1.6777s-.0716-1.1375-.1955-1.6779h-5.6421v-5.6421c-.5404-.1239-1.1004-.1955-1.6778-.1955s-1.1374.0716-1.6778.1955v5.6421h-5.6419c-.1239.5404-.1955,1.1004-.1955,1.6779s.0716,1.1374.1955,1.6777h5.6419v5.6419c.5404.1239,1.1004.1955,1.6778.1955s1.1374-.0716,1.6778-.1955v-5.6419h0Z"/>
      <polygon class="cls-5" points="17.887 19.9429 17.887 14.301 17.887 14.301 17.887 19.9429 17.887 19.9429"/>
      <polygon class="cls-5" points="17.887 10.9454 17.887 10.9454 17.887 5.3033 17.887 5.3033 17.887 10.9454"/>
    </g>
    <path class="cls-2" d="M19.5648,4.008c-4.7503,0-8.615,3.865-8.615,8.6153s3.8647,8.615,8.615,8.615,8.6153-3.8644,8.6153-8.615-3.865-8.6153-8.6153-8.6153ZM19.5648,20.1384c-.5774,0-1.1374-.0716-1.6778-.1955,0,0,0,0,0,0-2.7973-.6413-5.0006-2.8445-5.6419-5.6419-.1239-.5404-.1955-1.1003-.1955-1.6777s.0716-1.1375.1955-1.6779c.6413-2.7975,2.8445-5.0008,5.6419-5.6421h0c.5404-.1239,1.1004-.1955,1.6778-.1955s1.1374.0716,1.6778.1955c2.7975.6413,5.0007,2.8447,5.6421,5.6421.1239.5404.1955,1.1004.1955,1.6779s-.0716,1.1374-.1955,1.6777c-.6413,2.7973-2.8447,5.0006-5.642,5.6419,0,0,0,0,0,0-.5404.1239-1.1004.1955-1.6778.1955Z"/>
  </g>
</svg>