<?xml version="1.0" encoding="UTF-8"?>
<svg id="MSR_Logo" xmlns="http://www.w3.org/2000/svg" width="40" height="40" viewBox="0 0 40 40">
  <defs>
    <radialGradient id="sunGradient" cx="50%" cy="30%" r="70%">
      <stop offset="0%" style="stop-color:#fca041;stop-opacity:1" />
      <stop offset="50%" style="stop-color:#f8943d;stop-opacity:1" />
      <stop offset="100%" style="stop-color:#e64a25;stop-opacity:1" />
    </radialGradient>
    <linearGradient id="textGradient" x1="0%" y1="0%" x2="100%" y2="0%">
      <stop offset="0%" style="stop-color:#fca041;stop-opacity:1" />
      <stop offset="100%" style="stop-color:#e64a25;stop-opacity:1" />
    </linearGradient>
  </defs>

  <!-- Background circle -->
  <circle cx="20" cy="20" r="19" fill="url(#sunGradient)" opacity="0.9"/>

  <!-- Grid pattern overlay -->
  <g fill="none" stroke="#000" stroke-width="0.3" opacity="0.7">
    <path d="M8 12 L32 12 M8 16 L32 16 M8 20 L32 20 M8 24 L32 24 M8 28 L32 28"/>
    <path d="M12 8 L12 32 M16 8 L16 32 M20 8 L20 32 M24 8 L24 32 M28 8 L28 32"/>
  </g>

  <!-- Central sun circle -->
  <circle cx="20" cy="20" r="6" fill="url(#sunGradient)" opacity="0.8"/>
  <circle cx="20" cy="20" r="4" fill="none" stroke="#fff" stroke-width="0.5" opacity="0.6"/>

  <!-- Text around the circle -->
  <text x="20" y="8" font-family="Arial, sans-serif" font-size="3" font-weight="bold" fill="url(#textGradient)" text-anchor="middle">MIDNIGHT SUN</text>
  <text x="20" y="12" font-family="Arial, sans-serif" font-size="3" font-weight="bold" fill="url(#textGradient)" text-anchor="middle">RANDONNÉE</text>
  <text x="20" y="32" font-family="Arial, sans-serif" font-size="2.5" font-weight="bold" fill="url(#textGradient)" text-anchor="middle">SWEDEN - NORWAY</text>
</svg>
