<?xml version="1.0" encoding="UTF-8"?><svg id="Lager_1" xmlns="http://www.w3.org/2000/svg" width="28.8958mm" height="28.8464mm" viewBox="0 0 81.9092 81.7693"><path d="m61.3033,37.3362c.881-2.6677,1.5553-5.3797,1.8536-7.9844.0196-.7102.0233-.7459-.5056-.8017-4.2625-.4496-8.4413-1.3228-12.5636-2.4758-.4868-.1362-.6462-.03-.7529.4575-.3357,1.5345-.7056,3.0623-1.1055,4.5814-.1114.423-.0437.5971.3737.7555,4.1611,1.5787,8.1994,3.4218,12.0399,5.6801.326.1917.5116.2384.6605-.2126Z"/><path d="m62.7741,38.8526c1.8183,1.1466,3.5472,2.4183,5.3378,3.9381.016-4.7154-.7023-9.1386-2.0021-13.4796-.1593-.5319-.434-.6553-.9497-.6726-.6318-.0211-.6214.3836-.6716.7852-.3658,2.9247-1.0681,5.7714-2.0541,8.5441-.1741.4896-.0173.6596.3397.8848Z"/><path d="m59.9296,38.5914c-3.6474-2.116-7.4559-3.8848-11.3731-5.4346-.5501-.2176-.789-.2408-.9659.4491-1.7069,6.654-3.6228,13.249-5.7466,19.7824-.167.5137-.0694.7075.4056.9211,1.6859.7581,3.3091,1.6405,4.8537,2.6587.4526.2983.9597.3379,1.2122.3737.7729.1321.963-.3136,1.2235-.593,4.6442-4.9789,8.2592-10.6162,10.8558-16.9125.2738-.6639.1099-.9112-.4652-1.2448Z"/><path d="m37.007,69.3202c1.3999.083,2.7965.2199,4.202.2259,4.1795.0011,8.2317-.7119,12.1698-2.1176.6238-.2227.7603-.4603.5402-1.1021-.8779-2.5598-2.6583-4.4182-4.6109-6.1688-.5112-.4583-.8082-.559-1.3903-.0014-3.1966,3.0616-6.7742,5.6018-10.7594,7.5524-.2725.1334-.5343.2525-.6956.563-.3346.6441-.4148.9917.5441,1.0486Z"/><path d="m66.038,18.9642c-.8027-1.2683-1.9532-2.2059-3.1255-3.241.0949,2.0808,1.7283,2.5423,3.1255,3.241Z"/><path d="m48.0454,13.6602c-1.1728,2.7288-2.2184,5.5055-3.2377,8.2935-.1438.3933-.1459.6051.3149.7381.8522.246,1.6937.5319,2.5306.8266.3662.1289.55.0969.6449-.3346.6602-3.0017,1.2947-6.0079,1.8241-9.423.0115-.4569-.7492-.2505-1.1534-.4815-.4449-.2542-.7057-.1261-.9235.3808Z"/><path d="m35.8505,65.2968c.5678-2.0301,1.4264-3.9785,2.1446-5.9675.2664-.7378.8605-1.6332.6408-2.1992-.2622-.6754-1.4136-.5998-2.1736-.8607-1.5116-.5189-1.535-.4985-1.8788,1.0567-.7724,3.4938-1.5365,6.9896-2.0269,10.6149,1.7604-.1946,2.816-.9357,3.2938-2.6442Z"/><path d="m49.2691,11.9321c.8927.4433,1.0798.3555,1.1805-.6286.0615-.6005.1715-1.2024.0207-2.0241-.7554.708-1.0254,1.512-1.4279,2.2294-.1514.2698.0242.3228.2267.4233Z"/><path d="m50.7265,24.4366c3.4385.919,6.9048,1.6953,10.4314,2.1931q2.2817.3221,2.2036-2.3564c.1741-1.2111-.3146-2.5956-1.2103-3.873-.4311-.6148-.834-1.2515-1.2141-1.8992-.3442-.5863-.8259-.9568-1.4471-1.2301-2.2215-.9774-4.4711-1.8804-6.7418-2.7375-.7463-.2817-1.0354-.23-1.1511.6424-.3637,2.7439-.9085,5.4598-1.554,8.1504-.1738.7243.0347.9368.6834,1.1102Z"/><path d="m52.2759,12.9191c1.8737.6848,3.7419,1.3848,5.6119,2.0796-1.5759-1.9945-3.4602-3.5758-5.7256-4.933-.0617.8667-.1133,1.574-.1619,2.2815-.0165.2403-.0327.4592.2756.5719Z"/><path d="m60.0529,14.6496c-.1493-1.0746-.9212-1.8105-1.8305-1.8146.7341.4536,1.1826,1.1728,1.8305,1.8146Z"/><path d="m30.2231,18.5355c-2.5327,2.3101-4.8294,4.8293-7.0204,7.7583,6.0116.3034,11.6844,1.3458,17.263,2.91.5627.1577.6375-.1214.7603-.502.4615-1.4306.9048-2.8681,1.4151-4.2814.1859-.5149.0865-.7061-.4157-.8903-3.8269-1.403-7.5606-3.017-11.1053-5.0411-.3383-.1932-.572-.25-.8971.0465Z"/><path d="m39.502,54.9003c.1456-.3022.0098-.4519-.2487-.5426-1.096-.3846-2.1954-.7597-3.2914-1.1445-.3065-.1076-.4265.0177-.4996.3072-.0627.2482-.1461.4814.1751.5868,1.136.3726,2.2755.7348,3.4137,1.1009.2712.0649.3534-.1055.4508-.3077Z"/><path d="m46.0125,32.6029c.1064-.4039-.2214-.4487-.465-.5309-1.0039-.3389-2.0207-.6411-3.0169-1.0008-.5349-.1931-.768-.071-.9399.4851-2.0185,6.5278-3.8749,13.1006-5.5802,19.7168-.1432.5556.0839.7117.5409.8513.8819.2696,1.7753.5278,2.6152.9006.6729.2986.9103.144,1.1176-.5346,1.4968-4.9001,2.9972-9.7986,4.3325-14.7459.4627-1.7145.9317-3.4273,1.3958-5.1416Z"/><path d="m37.4166,66.0367c2.9761-1.3415,7.9452-4.9295,9.7674-7.0272-2.108-.4911-4.1889-.9722-6.2676-1.4628-.5317-.1254-.52.2936-.6285.5931-.6737,1.8588-1.3431,3.7191-2.0169,5.5778-.2673.7376-.5421,1.4724-.8543,2.319Z"/><path d="m34.2899,53.2218c.0478-.2486.0943-.4912-.2458-.5529-1.2425-.2257-2.4459-.7061-3.7707-.5066,1.1335.4257,2.2664.853,3.4009,1.2762.2595.0968.5323.2169.6157-.2166Z"/><path d="m46.5219,30.5709c.3757-1.5603.7708-3.1159,1.213-4.8914.0496-.1567-.0815-.3251-.4696-.4337-.888-.2486-1.7746-.5191-2.6297-.8609-.4911-.1963-.6752-.0508-.8173.3865-.4747,1.4606-.9511,2.921-1.4532,4.3724-.1491.4309-.0315.6003.3928.7256,1.0484.3095,2.0911.6434,3.1184,1.0161.3895.1414.5487.0881.6456-.3146Z"/><path d="m66.4956,25.3393c.6748,1.8355.7231,1.818,2.6392,1.3196.0989-.0257.195-.0622.2923-.0941,1.4014-.4591,1.628-1.0488.7389-2.245-1.5372-2.0682-3.7339-3.299-6.1019-4.746.5784,2.2726,1.7503,3.9126,2.4314,5.7654Z"/><path d="m27.3534,16.0191c-.4365-.4578-.6815-.3045-1.0056.1503-1.5782,2.2148-2.8558,4.5866-3.8191,7.127-.1373.362-.4021.7002-.3372,1.1283.3454.0022.4234-.2683.5639-.4453,1.4938-1.882,3.1024-3.6593,4.8255-5.3342.4612-.4483,1.2977-.9468,1.2628-1.3638-.0487-.5821-1.0235-.7727-1.4902-1.2622Z"/><path d="m46.2639,12.457c-1.3948-.3365-2.7813-.7086-4.1653-1.0877-.4562-.125-.8558-.0668-1.2844.1246-3.1423,1.4038-6.0049,3.2479-8.791,5.5124,3.5674,2.0133,7.2227,3.5196,10.9232,4.929.5915.2252.5955-.2289.7207-.558,1.0185-2.6793,2.0111-5.3689,3.0711-8.0317.244-.613.073-.7565-.4744-.8886Z"/><path d="m22.05,27.8725c-.6848,1.088-1.5465,2.0616-1.7183,3.4342-.2938,2.3461-.5269,4.6925-.528,7.0579-.0017,2.8138.2812,5.6022.7702,8.3706.0577.3268.0469.7342.3951.9048,1.9183.9403,3.6141,2.4263,5.8453,2.6099,2.3962.1972,4.7667.5259,7.0846,1.147.7006.1877.8614-.0565,1.0048-.6307,1.6317-6.5343,3.4856-13.0065,5.5059-19.4307.1948-.6194.1373-.8582-.5451-1.0408-5.5412-1.4835-11.1552-2.4887-16.8974-2.7064-.3354-.0127-.6859-.0832-.9171.2841Z"/><path d="m45.8021,10.9009q1.8186.495,2.7063-1.4838c-1.5543.2098-3.0008.362-4.5598.9762.7486.205,1.3008.3571,1.8535.5076Z"/><path d="m33.023,55.0892c-2.418-.8662-4.833-1.7625-7.108-2.9478-1.3419-.6991-2.6401-.8112-4.1249-.4569,1.8762,5.9859,4.7607,11.3607,9.3085,15.8107.0996-.1415.1593-.1893.169-.2456.6561-3.8118,1.4405-7.5971,2.3808-11.3487.154-.6144-.2354-.672-.6255-.8117Z"/><path d="m35.4177,70.6223c2.1666,1.812,6.5124,3.3603,10.0675,3.3375,2.2319-.0143,4.3751-.3077,6.2611-1.6157,1.2693-.8804,2.2282-1.9703,2.4221-3.7348-6.1517,2.2438-12.3687,2.8547-18.7506,2.013Z"/><path d="m36.9826,73.3775c-.6348-.3365-1.2657-.6804-1.8947-1.0278-.7246-.4002-.6523.3657-.8592.6315-.3755.4824.1608.4525.3987.5131.7223.1842,1.4537.3328,2.2194.5037.1452-.0571.416.1183.5107-.1184.1224-.306-.162-.3893-.3749-.5021Z"/><path d="m32.2213,70.5277v2.3814c1.2966-1.7473,1.2956-1.7893,0-2.3814Z"/><path d="m25.7585,70.5637c.928.3793,1.849.7772,2.7856,1.1341,2.2185.8455,2.2223.8376,2.2942-1.5763.0017-.0565-.0637-.1151-.112-.1967-1.6137.3476-3.2598.4812-4.9677.6389Z"/><path d="m55.5643,68.5109c.0294.8982-.2867,1.7177-.5382,2.598,2.7359-1.5562,4.8767-3.7051,6.6159-6.2787-1.8136,1.1137-3.6546,2.1419-5.5911,2.9916-.3229.1417-.4983.3316-.4866.6891Z"/><path d="m69.7438,46.5421c-.0302.2346-.0543.3952-.0712.5565-.3224,3.0653-.8683,6.0854-1.8223,9.0231-.066.2034-.3823.4279-.076.6023.2353.1339.4134-.1275.5627-.3266.8217-1.0955,1.5541-2.247,2.2156-3.4456,1.7264-3.1283,1.6947-3.4922-.5871-6.2812-.0198-.0242-.057-.0342-.2217-.1284Z"/><path d="m71.6464,27.1301c-1.0659.9285-2.2311,1.1955-3.4197,1.3774-.4356.0666-.5484.1706-.4038.6441,1.4701,4.8142,2.1161,9.745,2.0172,14.7753-.0047.2368-.0345.4772.1547.676.9819,1.0318,1.8439,2.1618,2.7001,3.5032,2.3005-7.2152,1.9036-14.092-1.0485-20.976Z"/><path d="m67.5446,44.0831c-1.5855-1.4226-3.294-2.6773-5.0407-3.8919-.6289-.4373-.787-.2648-1.04.3542-1.5986,3.9105-3.6424,7.5803-6.0777,11.0344-1.4783,2.0966-3.1056,4.0728-4.9553,6.1206,1.149.1389,2.094.2699,3.0425.3649,3.6272.3631,7.2537.4577,10.8707-.1122.5831-.0919,1.1647-.0852,1.4349-.8796,1.2988-3.8179,2.0857-7.724,2.2902-11.752.0271-.5339-.1317-.886-.5246-1.2386Z"/><path d="m41.1468,9.5644c1.2768-.535,2.6134-.8911,3.9362-1.3555-3.1474-.2845-6.2951-.7547-9.3613.4958,1.5072.2852,3.0146.5689,4.5212.8569.3025.0579.5984.1307.9038.0028Z"/><path d="m50.7899,59.5412c.0483.1677.0464.2449.084.2799,1.9261,1.7907,3.6057,3.7586,4.4064,6.3238.1929.6182.4922.2877.7592.164,2.7178-1.2592,5.2153-2.8628,7.5059-4.7937.5781-.4873.862-1.1138,1.0984-1.8981-4.6526.7401-9.2375.4758-13.8539-.076Z"/><path d="m12.1698,43.6136c-1.6435-1.4455-3.1401-3.0249-4.4502-5.0785.026,5.064,1.873,11.8233,3.7788,13.9699.0874-2.7095.3955-5.3532,1.0382-7.9466.1158-.4673-.0686-.6825-.3668-.9448Z"/><path d="m26.4645,12.9991c.2531.3487.445.2711.7034-.0214.9672-1.0944,2.0456-2.0758,3.3319-3.1005-1.6665-.2775-2.8505.5832-4.1543,1.0064-.9793.3179-.8806.8259-.3917,1.4792.1629.2176.351.4166.5107.6364Z"/><path d="m20.3971,25.3859c.9695-3.2951,2.3877-6.3962,4.3139-9.2534q.9145-1.3564-.0252-2.7341c-.1532-.2253-.3366-.4542-.4044-.7086-.173-.6493-.4727-.554-.9419-.2827-2.7454,1.5874-5.2375,3.4972-7.4198,5.7969-2.8766,3.0315-5.0608,6.495-6.5595,10.6285,3.169-1.8323,6.4433-2.3081,9.7798-2.4866.7099-.038,1.0388-.2182,1.2571-.96Z"/><path d="m30.0969,15.8786c.2622.1227.4187.1223.6331-.0544,2.3748-1.9568,4.9293-3.6473,7.7211-5.0835-.5208-.3616-1.0578-.3052-1.5453-.3899-3.9723-.6908-4.5258-.5109-7.451,2.2879-1.7739,1.6973-1.6769,2.1551.6422,3.24Z"/><path d="m14.6992,42.9965c-.0692.3318-.0067.5051.2363.6881,1.3317,1.0033,2.6858,1.972,4.3198,2.929-.4249-2.3117-.6131-4.416-.7167-6.5279-.1026-2.0924.023-4.185.1588-6.4836-1.1815,1.6728-3.6101,7.5328-3.9982,9.3944Z"/><path d="m18.5816,61.3764c3.024,2.5578,6.3877,4.5309,10.3681,6.0017-.9449-1.2015-1.7366-2.143-2.4572-3.1361-2.5715-3.5442-4.438-7.442-5.7752-11.6036-.098-.3051-.0263-.9018-.5916-.7784-2.4391.5323-4.764,1.2904-6.3153,3.4655-.3263.4575-.216.763.0971,1.1616,1.4005,1.7824,2.9435,3.4257,4.674,4.8894Z"/><path d="m20.0131,50.3347c-.017-.5013-.0067-1.1756-.5223-1.489-1.8031-1.0962-3.5538-2.2712-5.345-3.5631-.7161,2.8034-.9609,5.5285-.946,8.5358,1.7539-1.7323,3.7448-2.5549,5.8908-3.0755.3305-.0801.9368.0168.9224-.4082Z"/><path d="m28.684,68.7714c-5.813-2.127-10.5393-5.366-14.6059-9.6095,2.2971,7.988,8.935,10.3736,14.6059,9.6095Z"/><path d="m19.3071,28.8298c.2017-.3187.5157-.6883.3357-1.0214-.2068-.3829-.6781-.0881-1.0304-.1053-.3046-.0149-.6138.0394-.9195.0753-2.56.301-5.0802.7564-7.3132,2.1495-2.1491,1.3408-2.9715,3.8965-2.0121,6.2381.9855,2.4054,2.7576,4.2021,4.7464,6.0229.4018-1.1653.733-2.1991,1.113-3.2146,1.3326-3.5609,3.0476-6.9326,5.0801-10.1445Z"/><path d="m2.041,53.8328l1.2915-1.9199-2.1211-.9229-.2178-.7471,4.3262-1.2617.2441.8359-3.0381.8867.0073.0244,1.8887.8066.0342.1172-1.1582,1.6963.0068.0244,3.0381-.8867.2441.8369-4.3262,1.2617-.2197-.752Z"/><path d="m.3721,46.5388l4.458-.6602.1274.8613-4.458.6602-.1274-.8613Z"/><path d="m.0005,41.7903c-.0078-.4688.0811-.8872.2661-1.2563.1855-.3687.4492-.6572.792-.8647.3433-.208.7305-.3159,1.1626-.3232.4409-.0073.8335.0879,1.1777.2852.3442.1978.6133.4819.8066.853s.2939.7983.3022,1.2822l.0308,1.835-4.5063.0762L.0005,41.7903Zm3.8271.0264c-.0078-.4819-.1592-.8662-.4531-1.1523-.2944-.2866-.6758-.4258-1.1445-.418-.4858.0078-.8672.1611-1.144.4595s-.4111.6958-.4028,1.1924l.0151.8965,3.145-.0527-.0156-.9253Z"/><path d="m.27,35.9255l3.5205-2.1606-3.1079-.4849.1313-.8418,4.4526.6948-.1152.7393-3.5742,2.1689,3.1592.4927-.1313.8418-4.4531-.6948.1182-.7554Z"/><path d="m1.8105,28.8098l4.3198,1.2852-.2485.835-4.3193-1.2852.248-.835Z"/><path d="m3.5952,23.9573c.2251-.5068.562-.9595,1.0098-1.3584l.7285.3237c-.4756.3867-.8208.8213-1.0361,1.3047-.1338.3008-.1924.5947-.1768.8818.0161.2871.1079.5454.2754.7739.168.229.3901.4048.6675.5278.4204.1875.8213.1978,1.2021.0317s.6733-.4775.877-.9355c.0562-.126.0986-.251.1284-.3755.0293-.1245.0488-.2803.0591-.4663l-.6841-.3042-.3027.6807-.6221-.2764.6567-1.4771,1.6982.7554c.0513.2651.0537.5576.0068.877s-.1382.6323-.2744.939c-.1934.4341-.4575.7881-.7935,1.061-.3354.2734-.7085.437-1.1187.4912s-.8135-.0068-1.2104-.1836c-.4028-.1792-.7231-.4409-.9609-.7856-.2373-.3442-.3672-.7354-.3892-1.1724-.0225-.437.064-.8745.2593-1.313Z"/><path d="m6.2329,19.1482l1.5767,1.0552,1.3008-1.9443-1.5767-1.0547.4844-.7241,3.7456,2.5063-.4844.7236-1.582-1.0581-1.3003,1.9438,1.582,1.0586-.4844.7236-3.7461-2.5059.4844-.7241Z"/><path d="m12.3271,11.5559l.4985.4634-1.0894,1.1724,2.8027,2.6045-.5933.6382-2.8022-2.605-1.0894,1.1724-.4985-.4639,2.7715-2.9819Z"/><path d="m17.7373,7.1038c.3613-.249.7715-.3984,1.231-.4482l.439.6377c-.5439.0327-.9648.1514-1.2622.3564-.1807.1245-.2979.2568-.3516.397s-.0405.2686.04.3853c.0967.1401.2803.2041.5518.1924.0776-.0015.3501-.043.8184-.1255.4038-.0664.7329-.0581.9883.0244s.4683.2471.6377.4932c.2197.3188.2822.6553.1875,1.0088-.0947.354-.3242.6562-.689.9077-.2373.1636-.4595.2778-.6665.3433s-.4604.1079-.7607.1265l-.4868-.7065c.6235.0562,1.1108-.0366,1.4614-.2783.1753-.1206.2905-.2563.3462-.4067s.04-.2886-.0464-.4146c-.1182-.1719-.3086-.2471-.5708-.2256-.2144.022-.4858.0586-.8135.1099-.3838.0684-.709.0635-.9751-.0142-.2666-.0776-.48-.2334-.6411-.4673-.2148-.3115-.27-.6396-.1655-.9849.1045-.3447.3472-.6484.728-.9106Z"/><path d="m21.9526,4.6101l1.1494,2.3574c.1177.2417.2476.4165.3901.5239.1421.1079.3179.168.5273.1807.21.0127.4238-.0342.6421-.1406.2397-.1167.4219-.2598.5464-.4297.124-.1694.188-.3486.1914-.5381s-.0605-.4185-.1914-.6875l-1.124-2.3052.7827-.3818,1.1738,2.4067c.2656.5454.3066,1.0439.1226,1.4961s-.5747.8237-1.1719,1.1152c-.375.1826-.7329.2744-1.0732.2754-.3408.001-.645-.0894-.9131-.271-.2676-.1816-.4849-.4424-.6504-.7827l-1.1875-2.436.7856-.3828Z"/><path d="m28.3135,1.9304l3.4404,2.2856-.8667-3.0234.8188-.2349,1.2417,4.3325-.7197.2061-3.4702-2.3311.8809,3.0732-.8188.2349-1.2417-4.3325.7354-.2104Z"/><path d="m39.3193.0017c.4233-.0166.7729.0874,1.0483.311.2754.2241.4199.5239.4355.8999.0098.2559-.0488.4814-.1719.6768-.125.1953-.3164.353-.5723.4727.1475.0718.2793.1719.3965.3008s.2637.3481.4414.6577c.2969.5352.5156.9033.6562,1.1045l-.9707.0376c-.0703-.0962-.166-.2505-.2881-.4634-.2686-.4697-.4639-.7852-.5859-.9473s-.2388-.2759-.3486-.3418c-.1104-.0654-.2354-.0957-.375-.0903l-.3159.0122.0737,1.9019-.8701.0342-.1748-4.5034L39.3193.0017Zm-.1221,1.9287c.2275-.0088.4048-.0728.5298-.1914.125-.1191.1846-.2773.1768-.4751-.0078-.2065-.0781-.3579-.2109-.4551-.1333-.0972-.3188-.1411-.5576-.1318l-.5415.021.0488,1.2539.5547-.0215Z"/><path d="m46.2734.3123l1.4365,4.7129-.9131-.1099-.333-1.145-1.9893-.2402-.5635,1.0366-.9062-.1094L45.3896.2058l.8838.1064Zm-1.457,2.5928l1.4453.1743-.542-1.8623-.9033,1.688Z"/><path d="m51.3408,1.2786l1.667,3.7798.8994-3.0142.8154.2432-1.2881,4.3188-.7178-.2139-1.667-3.834-.9141,3.064-.8154-.2437,1.2881-4.3188.7324.2188Z"/><path d="m59.1289,4.2219c.4189.21.749.4829.9893.8179.2412.335.375.7026.4004,1.103.0254.3999-.0596.7935-.2529,1.1797-.1982.394-.4639.6978-.7988.9111-.334.2139-.7109.3203-1.1289.3198-.4189-.001-.8438-.1094-1.2764-.3267l-1.6406-.8232,2.0205-4.0278,1.6875.8462Zm-1.7969,3.3794c.4307.2158.8408.2598,1.2314.1323.3896-.1279.6904-.4014.9004-.8208.2178-.4341.2588-.8433.123-1.2266-.1357-.3838-.4258-.6865-.8701-.9097l-.8018-.4019-1.4102,2.811.8271.4155Z"/><path d="m65.4297,8.0247c.374.2788.6533.6069.8379.9844.1836.3774.2559.7773.2168,1.2007-.0391.4229-.1875.8076-.4453,1.1543-.252.3379-.5723.5864-.9609.7461s-.7939.2065-1.2158.1401c-.4209-.0659-.8213-.2407-1.2012-.5234-.374-.2788-.6533-.6133-.8389-1.0039-.1855-.3901-.2578-.7905-.2168-1.2017.041-.4106.1895-.7876.4453-1.1309.2471-.3311.5645-.5786.9521-.7427s.792-.2148,1.2119-.1528c.4199.0625.8252.2393,1.2148.5298Zm-2.6572.9038c-.1787.2397-.2852.4956-.3193.7681s.0068.5332.1221.7832c.1152.2495.2959.4658.541.6484.3701.2764.7617.3872,1.1738.3325.4131-.0547.7559-.2656,1.0293-.6328.1787-.2397.2861-.4961.3213-.7686.0361-.2725-.0049-.5342-.1221-.7856-.1172-.251-.2988-.4678-.543-.6504-.2451-.1826-.5049-.2935-.7793-.3335-.2754-.04-.5361-.0039-.7832.1084-.2471.1118-.4609.2886-.6406.5303Z"/><path d="m69.9121,11.949l-.4688,4.1045,2.2979-2.1484.5811.6221-3.292,3.0781-.5107-.5469.4951-4.1509-2.335,2.1831-.582-.6221,3.292-3.0776.5225.5581Z"/><path d="m74.5508,17.4822l-1.1797,3.9585,2.6377-1.7134.4639.7144-3.7793,2.4551-.4072-.6279,1.2139-4.0005-2.6816,1.7417-.4639-.7144,3.7793-2.4551.417.6416Z"/><path d="m78.9922,25.6873l-.6221.2769-.8301-1.8662-1.082.4814.7949,1.7861-.6221.2769-.7949-1.7866-1.1699.5205.8486,1.9072-.6221.2764-1.2021-2.7026,4.1172-1.8315,1.1846,2.6616Zm1.1328-.9453l-1.5078-.6602-.1992-.4482,1.2637.1123.4434.9961Z"/><path d="m80.7217,31.0559l-.6543.188-.5645-1.9629-1.1377.3271.54,1.8789-.6543.188-.54-1.8789-1.2305.3535.5762,2.0063-.6543.188-.8174-2.8433,4.332-1.2446.8047,2.7998Z"/><path d="m81.8213,38.509l-4.4961.3062-.0557-.8237,4.4961-.3066.0557.8242Z"/><path d="m81.9072,42.7634c-.0215.4268-.1602.7607-.417,1.001-.2559.2402-.5869.3496-.9932.3301-.3096-.0156-.6396-.127-.9912-.332-.3516-.2061-.8135-.5605-1.3848-1.0635l-.0771,1.5439-.7793-.0391.1455-2.916.0938.0049c.4014.3604.7637.6704,1.085.9312.3223.2603.5898.4634.8037.6069.2129.1436.3955.248.5479.3115s.3105.0996.4756.1084c.2061.0098.3828-.0479.5303-.1729s.2256-.2812.2354-.4707c.0166-.3394-.1582-.7017-.5273-1.0859l.8828.0439c.2666.3989.3896.7979.3701,1.1982Z"/><path d="m81.29,48.2712c-.0811.4482-.3477.7686-.7998.959s-1.0283.2217-1.7285.0947c-.707-.127-1.2412-.3584-1.6025-.6924s-.501-.7266-.4199-1.1777c.083-.457.3506-.7822.8037-.9736.4541-.1924,1.0332-.2256,1.7373-.0977.7031.127,1.2334.3594,1.5938.6982.3594.3379.498.7344.416,1.1895Zm-2.1846-1.0674c-1.0137-.1826-1.5596-.0576-1.6377.376-.0771.4238.418.7314,1.4854.9248.9961.1797,1.5332.0566,1.6104-.3711.0781-.4297-.4082-.7393-1.458-.9297Z"/><path d="m79.9648,53.5486c-.1396.4336-.4463.7148-.9199.8438-.4727.1279-1.0479.083-1.7256-.1357-.6836-.2207-1.1826-.5205-1.4961-.9004-.3135-.3789-.3994-.7871-.2588-1.2227.1426-.4424.4512-.7285.9268-.8584.4746-.1299,1.0527-.085,1.7344.1348.6797.2197,1.1748.5205,1.4863.9043.3105.3828.3955.7949.2529,1.2344Zm-2.0215-1.3486c-.9805-.3164-1.5381-.2646-1.6738.1543-.1328.4092.3174.7812,1.3486,1.1143.9639.3115,1.5127.2607,1.6465-.1533.1338-.415-.3066-.7871-1.3213-1.1152Z"/><path d="m7.8027,58.7009c.1216.2256.146.458.0737.6963s-.2207.418-.4448.5381c-.2222.1191-.4531.1436-.6914.0723-.2388-.0703-.4189-.2188-.5405-.4453-.1187-.2197-.1426-.4502-.0723-.6895.0708-.2402.2178-.4199.4424-.541.2202-.1182.4507-.1416.6919-.0713.2412.0713.4214.2178.541.4404Z"/><path d="m12.5405,63.2966c.1587.207.291.4277.3965.6621s.1895.5098.2529.8271l-.6631.5088c-.0439-.3232-.1099-.6025-.1987-.8369-.0889-.2354-.2129-.4561-.3721-.6631-.1992-.2588-.4321-.4521-.6997-.5791-.2676-.126-.543-.1729-.8267-.1387s-.5449.1426-.7832.3252c-.2441.1875-.418.4121-.5234.6758-.105.2627-.1299.5391-.0747.8291s.1826.5654.3833.8262c.1538.2002.3291.3691.5264.5068.1968.1377.4766.2881.8384.4492l-.6631.5098c-.3052-.1426-.5601-.292-.7646-.4502-.2046-.1592-.4082-.3701-.6113-.6348-.2954-.3848-.4829-.7871-.562-1.208-.0796-.4199-.0415-.8271.1133-1.2217.1553-.3945.4043-.7227.7471-.9863.3672-.2822.7656-.4463,1.1948-.4922s.8433.0264,1.2417.2168c.3979.1914.7476.4824,1.0483.874Z"/><path d="m15.1855,66.3992l-.2534,1.8809,1.875-.3379.7656.7275-2.8584.4834-1.5698,1.6504-.6436-.6123,1.5742-1.6553.3281-2.8809.7822.7441Z"/><path d="m19.5454,70.1541l-1.2129,1.7422.0161.0117,2.5957-.7793.8296.5771-2.6421.7998.4312,3.2637-.9346-.6514-.4199-3.043-1.29,1.8525-.7295-.5068,2.627-3.7744.7295.5078Z"/><path d="m26.1899,74.0398l-.3101.6211-1.8643-.9307-.5396,1.0811,1.7847.8906-.3101.6211-1.7847-.8906-.5835,1.1699,1.9058.9502-.3101.6221-2.7007-1.3477,2.0527-4.1143,2.6597,1.3271Z"/><path d="m28.834,75.0642l-1.2568,3.6963,2.1128.7188-.2236.6572-2.9541-1.0049,1.4805-4.3535.8413.2861Z"/><path d="m33.5806,76.3884l-.9854,4.4912-.8682-.1895.9854-4.4922.8682.1904Z"/><path d="m36.4346,76.8836l2.4507,3.4287.2715-3.1982.8652.0732-.3887,4.582-.7603-.0645-2.4629-3.4824-.2754,3.25-.8662-.0732.3887-4.582.7773.0664Z"/><path d="m45.8281,76.8669l.0527.6924-1.6279.126.2998,3.8916-.8867.0684-.2988-3.8926-1.6274.125-.0527-.6924,4.1411-.3184Z"/><path d="m49.1494,76.2c.4209-.0977.791-.0605,1.1104.1104.3193.1719.5225.4443.6084.8184.0596.2549.0449.4922-.042.7109-.0879.2197-.249.4141-.4814.583.1602.0439.3125.1191.4541.2266.1416.1064.3311.2979.5693.5732.3994.4795.6895.8066.8691.9814l-.9648.2236c-.0889-.083-.2158-.2188-.3789-.4082-.3584-.4199-.6143-.6982-.7686-.8379-.1543-.1387-.292-.2305-.415-.2754-.123-.0439-.2539-.0508-.3936-.0186l-.3135.0732.4385,1.8916-.8652.2012-1.0391-4.4795,1.6123-.374Zm.248,1.9561c.2266-.0527.3906-.1504.4941-.2939.1025-.1426.1318-.3125.0859-.5098-.0479-.2051-.1475-.3438-.2988-.415-.1523-.0723-.3467-.0801-.584-.0254l-.5381.125.2891,1.2471.5518-.1279Z"/><path d="m55.5137,74.1189l.252.6475-1.9424.7559.4385,1.125,1.8584-.7227.252.6475-1.8584.7227.4736,1.2178,1.9844-.7725.252.6475-2.8125,1.0947-1.668-4.2852,2.7705-1.0781Z"/><path d="m58.4316,72.5691c.3926-.2168.8232-.3271,1.2949-.332l.3818.6914c-.5557-.0215-.9951.0566-1.3174.2354-.1963.1084-.3281.2305-.3965.3682-.0684.1367-.0684.2686.002.3945.084.1523.2646.2354.541.251.0791.0059.3604-.0088.8438-.0449.416-.0273.75.0137,1.001.123s.4502.2979.5977.5645c.1914.3457.2207.6943.0898,1.0439-.1318.3496-.3955.6338-.791.8516-.2578.1426-.4941.2363-.7109.2822s-.4785.0635-.7852.0527l-.4238-.7666c.6279.1191,1.1318.0742,1.5117-.1357.1904-.1055.3213-.2314.3926-.3789s.0693-.2891-.0059-.4258c-.1025-.1855-.2881-.2812-.5566-.2861-.2197.001-.499.0117-.8369.0303-.3965.0312-.7266-.0059-.9893-.1123-.2617-.1055-.4639-.2852-.6035-.5381-.1865-.3379-.21-.6768-.0693-1.0166s.418-.624.8301-.8516Z"/><path d="m62.3799,70.032c.3604-.2646.7734-.4307,1.2402-.4961l.4688.6357c-.5537.0508-.9795.1855-1.2764.4043-.1797.1328-.2949.2715-.3457.416-.0498.1445-.0322.2754.0537.3916.1025.1396.292.1992.5684.1787.0791-.0039.3564-.0547.8311-.1543.4092-.0801.7451-.083,1.0088-.0068.2627.0762.4844.2373.665.4824.2344.3184.3096.6592.2236,1.0234-.085.3633-.3096.6787-.6729.9473-.2373.1738-.46.2979-.6689.3711-.209.0742-.4658.125-.7715.1533l-.5195-.7041c.6377.0371,1.1318-.0732,1.4814-.3311.1748-.1289.2881-.2705.3398-.4258.0527-.1553.0322-.2959-.0605-.4219-.126-.1709-.3223-.2412-.5889-.2119-.2178.0303-.4932.0762-.8262.1387-.3896.082-.7207.0879-.9951.0166-.2734-.0703-.4971-.2227-.6689-.4551-.2285-.3115-.2949-.6445-.2002-1,.0957-.3545.334-.6719.7139-.9521Z"/><path d="m67.1787,65.9246l.4814.501-1.5,1.4453.8379.8701,1.4365-1.3838.4814.5-1.4365,1.3838.9072.9404,1.5332-1.4775.4824.501-2.1738,2.0938-3.1904-3.3115,2.1406-2.0625Z"/><path d="m70.8232,61.4812l.5488.4258-1.002,1.2891,3.083,2.3955-.5459.7012-3.082-2.3945-1.002,1.2891-.5488-.4268,2.5488-3.2793Z"/><path d="m73.8584,59.1062c.124-.2246.3057-.3711.5459-.4385.2393-.0684.4707-.041.6934.082.2207.123.3652.3037.4355.542.0693.2393.042.4717-.083.6963-.1211.2188-.3008.3633-.541.4336-.2393.0703-.4707.0439-.6934-.0791-.2188-.1211-.3633-.3018-.4346-.543s-.0449-.4727.0771-.6934Z"/></svg>