<?xml version="1.0" encoding="UTF-8"?><svg id="Lager_1" xmlns="http://www.w3.org/2000/svg" width="107.0829mm" height="24.8825mm" viewBox="0 0 303.542 70.5329"><defs><style>.cls-1,.cls-2{fill:#1d3e64;stroke:#59595b;stroke-linecap:round;stroke-linejoin:round;stroke-width:.2835px;}.cls-2{fill-rule:evenodd;}</style></defs><path class="cls-2" d="m39.1182,57.9549c-.0328-.5078-.9007-.1842-.8184-.8113-.8592.2209-1.0033,1.1628-1.3475,1.8916-.7282.9659-1.5587.6462-2.3739,1.3596-.8799.7201-1.109,1.6294-1.6872,1.8953.2869-1.7196.4391-3.1359,1.0813-4.3352.508-.9418,1.6872-1.323,1.8916-2.4406-1.617-.7937-1.8671,1.204-2.9729,1.9001-.5357.3351-1.2437.3716-2.0497.4207.5073-.4898.7569-.8917.9654-1.2316.4018-.6514,1.0153-2.1493,1.8963-2.4316.0805-.6299-.7786-.3068-.812-.8185-1.0675.1268-1.6005,2.3947-2.9791,3.2502-1.7895,1.1138-4.9296,1.388-4.0573-1.3514.1963.7412.2905,1.2818,1.0811,1.3514,2.5825-.131,1.1211-4.2944,3.5204-4.6016-.2533-.4907-1.1012-1.0062-1.8995-1.0845-.3808-.0369-1.0279.4417-1.6209.5401-1.364.2296-2.9971.0327-3.7912.2746-1.0025.3025-2.1738,1.76-3.5171,1.8954-.9083,2.2511-2.349,3.954-5.9521,3.5162-.4791-.4004.5079-1.3956-.8146-1.3544.4507-1.9122,2.8243-.6678,4.3312-1.3552.831-.3725,1.6332-1.0937,1.6251-2.4321-2.2267-.2861-5.3135,2.2391-7.3069,3.5123-.434.2788-1.8503,1.2246-2.1618,1.3596-2.3702,1.0072-4.8715.024-5.9564-1.6217-.4427-.8219-.3726-2.2102,0-3.2502,1.2491,2.1863,5.8792,3.2588,8.6626,1.6256.1921-.1148,1.0601-.6549,1.351-.8142,1.5554-.8521,3.1477-2.097,5.6823-2.1624-.1027-2.6644-4.7942-2.1405-5.9531-.818-.1141.9699-.0654,1.7927-.5856,2.3496-.3967.29-.8297.4464-1.3131.6309-.6226-.1522-.4019-.5695-.541-1.0812-.63.0778-1.1166.532-1.6207,0,.0657-2.0922.0076-3.2425.385-4.6342.049-.1725.3475-.6304.446-.6919,1.1786-.7162,2.951-1.6582,4.3107-2.5219,1.5185-.9741,3.1397-1.7316,4.6011-2.7102,1.9362-1.3018,3.3573-3.3035,5.6861-4.0567.9092-.6222,1.2492-1.8177,2.7068-1.8995-1.3552-1.6541-4.7614-.3847-6.5008.2739-.6799.2623-1.3591.2503-1.8921.5408-.3721.2047-.6222.8103-1.0811,1.0848-.929.548-2.1817,1.0969-3.2459,1.621-2.0097.9909-3.4307,1.6911-7.0413,1.355.3399-1.3756,2.6163-.8145,2.9804-2.1657.5329-2.7792-2.1701-4.4493-1.895-7.8475,1.1624-.0613,1.4446,1.1137,1.895,1.6212.4953.5691.9054,1.4205,1.6254,1.8994.3274.2176.7163.0775,1.0802.2662.3975.2007,1.1666.704,2.1623.8145,2.5335.2869,5.547-.8063,8.392-1.0807.0076-.7531-.9296-.8392-1.3554-1.0849-1.2035-.7041-2.8201-1.4163-4.3309-2.1696-1.024-.5074-2.0634-.8639-2.9765-1.6252-.6631-.5443-1.6208-1.449-2.1656-2.1619-.168-.2163-.2292-.8842-.5402-1.3503-.2007-.3152-.6798-.5242-.8104-.8106-.1642-.3645-.1066-.8312-.2742-1.355-.2995-.9336-.7205-2.2231-.8069-4.0573.962.2005.7205,1.4698,1.0811,2.1619.3437.6551.9333,1.3224,1.3505,1.8954.9044,1.2277,1.8018,2.8041,3.5209,2.4358.9212-1.0277.3068-4.5857,1.6212-5.9563.0692,6.0667,3.7053,11.7118,8.9329,12.4534,2.8936.409,5.6694-.2953,7.5815-1.3559.9617-.5402,2.088-1.216,2.7063-1.8992.6662-.7287,1.1369-1.8751,1.6203-2.9719.77-1.7602,1.5026-4.2866.8147-7.0416-.2745-1.1054-1.0188-2.3211-1.6289-3.242-1.5108-2.3052-3.8276-4.2043-6.2228-5.9564-2.5796-1.8834-5.3501-3.3365-7.3036-4.5975-1.2932.1104-1.9568-.3968-2.9798-.5443,1.0312-.9376,2.3621-.5857,3.7874-.2667,1.8004.4017,3.1926,1.4989,4.8704,2.4282,1.2041.6711,2.2524,1.3711,3.522,2.1695,1.0396.6512,1.944,1.4287,3.2492,1.6212,4.3559.6551,6.8702-2.1738,9.4688-4.5932.5404.9949-.1137,2.2558-.5439,2.9719-.5478.9377-1.8335,1.4984-2.4318,2.4362-.192.2948-.0531.3193-.2703.5404-.5525.5729-1.2395,2.8202-1.0806,4.5971.193,2.1943,2.2113,5.5268,5.9522,5.1458,3.2711-.327,5.2569-2.059,9.2031-2.1616-.6054.9621-2.0547,1.0032-2.9803,1.8917-.2296.2208-1.1705.651-1.6215,1.0806-.3029.2906-1.539.7082-2.1656,1.0889-.106.0615-.1757.4956-.2741.5407-.4055.1842-.7974.2205-1.3554.5403-.5972.348-1.0882.7857-1.6168,1.0808-.6185.3433-1.277.4744-1.8956.8107-.4828.2534-.8799.8182-1.3504,1.08-2.1703,1.2287-4.6957,2.4933-7.038,3.7907-.4705.2624-1.0354.7579-1.6289,1.0896-1.4127.7822-4.372,1.2484-3.7859,4.0526,1.2968.2091,2.8738-.9908,4.0606-1.8957,1.6212-1.2406,2.3332-2.4887,4.8667-3.2466,3.2301-.9616,5.8294-.0158,9.4735.8157-3.308,3.5447-8.1589,5.555-15.1507,5.4113.1231.9334,1.2973.8555,1.8906,1.0847,1.9084.717,4.5818,1.4744,6.7672,2.1618,3.0337.9621,8.9325,2.7065,8.9325,2.7065-.2414,6.6031-.2414,13.9018-5.4165,20.0262,0,0-3.3769-2.7547-5.4113-3.7898-.409,3.0159-4.5235,3.4576-4.2537,5.8533.0289.1431-.0116.6337.3563.9496.4752.1766,1.0438.0325,1.1911-.5771.3484.9976-.9741,1.6544-1.7512.9007-1.0153-1.0351-1.0942-2.7999-.4144-4.9574.2093-.6596.9985-1.3673,1.3514-1.8963.2503-.364.2817-.7441.5488-1.0803.1717-.2375.6672-.2621.5397-.8142m-15.3725-13.8205c.4428.3514,1.0035.5645,1.6094.5645,1.4248,0,2.5675-1.1546,2.5675-2.5747,0-1.4168-1.1427-2.5714-2.5675-2.5714-1.4163,0-2.5665,1.1546-2.5665,2.5714,0,.2577.0374.5074.1022.7369,0,0-1.698.8959-1.7843.9371-.1268.0779-.1802.1805-.1075.3438.0372.0902.4832.8107.5116.8602.0619.0855.2018.147.3359.0855.0703-.0244,1.8992-.9533,1.8992-.9533m2.6003-1.9819c0-.5692-.4667-1.0318-1.0351-1.0318-.5651,0-1.0321.4626-1.0321,1.0318s.467,1.0273,1.0321,1.0273c.5684,0,1.0351-.4584,1.0351-1.0273"/><path class="cls-1" d="m72.9152,58.8639c-4.1073,0-6.8222-2.8793-6.8222-6.7274v-15.7915c0-3.8597,2.7149-6.7394,6.8222-6.7394,4.1778,0,6.4203,2.7264,6.4203,6.4917v4.0718h-3.989v-4.1548c0-1.369-.7557-2.3368-2.3374-2.3368-1.5577,0-2.3369.9678-2.3369,2.2893v16.5478c0,1.298.7792,2.2893,2.3369,2.2893,1.5817,0,2.3374-.9913,2.3374-2.3368v-4.2017h3.989v4.1193c0,3.7648-2.2425,6.4792-6.4203,6.4792Z"/><path class="cls-1" d="m91.9881,46.9909v11.3776h-4.5089v-11.3776l-5.0747-16.8774h4.5787l3.0216,11.8256,2.9037-11.8256h4.4614l-5.3819,16.8774Z"/><path class="cls-1" d="m110.565,58.3684l-3.1394-11.7552-1.5108,4.0719v7.6833h-4.5084v-28.255h4.5084v13.2774l4.6502-13.2774h4.4614l-4.5319,12.0028,4.6972,16.2521h-4.6267Z"/><path class="cls-1" d="m119.6528,58.3684v-28.255h11.2837v3.989h-6.7748v7.8132h4.6971v3.7177h-4.6971v8.6158h6.7748v4.1193h-11.2837Z"/><path class="cls-1" d="m135.8698,58.3684v-28.255h4.485v24.1716h6.5146v4.0834h-10.9995Z"/><path class="cls-1" d="m151.3074,58.3684v-28.255h4.5089v28.255h-4.5089Z"/><path class="cls-1" d="m171.9385,58.3684l-4.7451-12.8174-1.5812-4.3202v17.1376h-4.0839v-28.255h4.0129l4.3905,12.9354,1.4399,4.3785v-17.3138h4.0364v28.255h-3.4696Z"/><path class="cls-1" d="m188.698,34.2317v24.1367h-4.5089v-24.1367h-4.3671v-4.1183h13.1722v4.1183h-4.2961Z"/><path class="cls-1" d="m208.4786,58.4868c-1.746,0-2.4312-1.6881-2.4312-3.8951v-6.0666c0-1.1453-.5904-2.0772-1.818-2.0772h-2.2184v11.9205h-4.485v-28.255h7.1999c3.1394,0,5.5707,1.7465,5.5707,5.5467v5.0283c0,1.8999-.8501,3.3043-2.668,3.9775,1.8179.6253,2.7389,2.1595,2.7389,3.9061v5.7599c0,1.2746.3067,2.1595.873,2.8797v1.2751h-2.7619Zm-2.596-22.6848c0-1.1802-.4485-1.8295-1.5343-1.8295h-2.3374v8.9584h2.1715c1.1098,0,1.7002-.6377,1.7002-2.0067v-5.1222Z"/><path class="cls-1" d="m215.8203,58.3684v-28.255h11.2832v3.989h-6.7983v7.8132h4.7207v3.7177h-4.7207v8.6158h6.7983v4.1193h-11.2832Z"/><path class="cls-1" d="m238.0091,58.8639c-4.0604,0-6.6095-2.5022-6.6095-6.4792v-2.5027h4.1064v2.4198c0,1.7704.803,2.7853,2.3853,2.7853,1.6042,0,2.3603-.9674,2.3603-2.5256,0-2.4788-1.2276-4.2961-3.6119-6.7983-2.3134-2.3369-5.0283-5.6417-5.0283-9.2411,0-3.8242,2.1954-6.9167,6.5626-6.9167,3.7766,0,6.2319,2.632,6.2319,6.4917v2.5376h-4.0604v-2.5376c0-1.5698-.7321-2.6321-2.1715-2.6321-1.3215,0-2.1955.8496-2.1955,2.2899,0,2.7614,1.2046,4.1189,3.8487,6.9161,2.7608,2.8558,4.7906,5.6885,4.7906,9.253,0,4.485-2.9268,6.9397-6.6086,6.9397Z"/><path class="cls-1" d="m255.4054,58.8639c-4.0594,0-6.6085-2.5022-6.6085-6.4792v-2.5027h4.1073v2.4198c0,1.7704.8021,2.7853,2.3833,2.7853,1.6051,0,2.3613-.9674,2.3613-2.5256,0-2.4788-1.2276-4.2961-3.6119-6.7983-2.3135-2.3369-5.0513-5.6417-5.0513-9.2411,0-3.8242,2.2185-6.9167,6.6095-6.9167,3.7527,0,6.207,2.632,6.207,6.4917v2.5376h-4.0595v-2.5376c0-1.5698-.7321-2.6321-2.1475-2.6321-1.3225,0-2.2195.8496-2.2195,2.2899,0,2.7614,1.2276,4.1189,3.8476,6.9161,2.7619,2.8558,4.7916,5.6885,4.7916,9.253,0,4.485-2.9027,6.9397-6.6096,6.9397Z"/><path class="cls-1" d="m266.9014,58.3684v-28.255h11.3072v3.989h-6.7983v7.8132h4.6967v3.7177h-4.6967v8.6158h6.7983v4.1193h-11.3072Z"/><path class="cls-1" d="m290.8373,34.2317v24.1367h-4.485v-24.1367h-4.367v-4.1183h13.1481v4.1183h-4.2961Z"/></svg>