<?xml version="1.0" encoding="UTF-8"?>
<svg id="Lager_1" data-name="Lager 1" xmlns="http://www.w3.org/2000/svg" width="230mm" height="30mm" viewBox="0 0 651.9685 85.0394">
  <defs>
    <style>
      .cls-1 {
        fill: #f3ea4d;
      }

      .cls-2 {
        fill: #f4cb4f;
      }

      .cls-3 {
        fill: #0081b9;
      }
    </style>
  </defs>
  <path d="M42.9516,77.5268c.0146-.0068.0288-.0137.043-.0215l-.0347.0166-.0083.0049Z"/>
  <rect class="cls-1" x=".0001" y="0" width="651.9685" height="85.0394"/>
  <path d="M73.516,63.0967h-13.2679c0,.9557.3583,2.2307,1.1154,2.9877.3987.3987,1.1954.8771,2.6294.8771.1597,0,1.2749-.0397,2.0716-.4782.3987-.2392.8374-.6379,1.1161-1.1954h6.0961c-.2788.9962-.8374,2.3911-2.152,3.6661-1.3146,1.2749-3.3865,2.4698-7.2512,2.4698-2.3506,0-5.1794-.5179-7.3712-2.7089-1.1558-1.1558-2.6294-3.3468-2.6294-6.7341,0-2.9877,1.1154-5.3789,2.6691-6.893,1.4744-1.434,3.7855-2.5898,7.2917-2.5898,2.0716,0,4.7409.4384,6.8533,2.431,2.5094,2.3903,2.8289,5.4979,2.8289,7.4903v.6777h.0002v-.0002h0ZM67.6589,59.4304c-.1597-.6767-.5584-1.434-1.0359-1.9122-.8374-.8365-1.9924-.9565-2.6303-.9565-1.0757,0-1.9122.2788-2.5898.9565-.4384.4782-.8365,1.1153-.9565,1.9122h7.2125Z"/>
  <path d="M76.3588,70.8262v-26.5757h10.2794c1.9128,0,4.1842.2788,5.8173,2.0716.9167.9962,1.6332,2.6294,1.6332,4.98,0,1.1558-.1985,2.152-.757,3.2673-.5577,1.0359-1.155,1.6341-2.1511,2.0716,1.3949.1597,2.7891.7967,3.6256,1.5944,1.0757,1.0359,1.7929,2.7486,1.7929,4.8609,0,2.5103-.9557,4.223-1.9519,5.2192-1.4348,1.4744-3.9449,2.5103-7.2124,2.5103h-11.0762,0v.0002h.0002v.0002ZM83.2516,54.7293h1.2749c.7172,0,1.9122-.0795,2.6294-.8365.4384-.4384.6379-1.1558.6379-1.7532,0-.6777-.2392-1.3553-.6379-1.7929-.4378-.4384-1.2749-.7967-2.6294-.7967h-1.2749v5.1794h0ZM83.2516,65.4473h1.5539c1.9128,0,3.5065-.1995,4.2635-1.0757.3185-.3591.5577-.9565.5577-1.7136,0-.8365-.2788-1.5141-.6777-1.9128-.8365-.8365-2.55-.8762-4.2627-.8762h-1.4348v5.5783s0,0,0,0Z"/>
  <path d="M97.5453,53.0158h6.375v2.909c.637-1.1954,1.5539-1.9924,2.5094-2.4706.9565-.5179,2.1123-.7172,3.3071-.7172.1597,0,.4384.0397,1.2749.0795v6.0168c-.3185-.1597-1.1947-.6379-2.7486-.6379-.8374,0-1.9924.12-2.909.9565-1.3544,1.2354-1.434,3.1077-1.434,4.064v7.6103h-6.375v-17.8102h0v-.0002Z"/>
  <path d="M130.5981,63.0967h-13.2679c0,.9557.3583,2.2307,1.1154,2.9877.3987.3987,1.1954.8771,2.6294.8771.1597,0,1.2749-.0397,2.0716-.4782.3987-.2392.8374-.6379,1.1161-1.1954h6.0961c-.2788.9962-.8374,2.3911-2.152,3.6661-1.3146,1.2749-3.3865,2.4698-7.2512,2.4698-2.3506,0-5.1794-.5179-7.3712-2.7089-1.1558-1.1558-2.6294-3.3468-2.6294-6.7341,0-2.9877,1.1154-5.3789,2.6691-6.893,1.4744-1.434,3.7855-2.5898,7.2917-2.5898,2.0716,0,4.7409.4384,6.8533,2.431,2.5094,2.3903,2.8289,5.4979,2.8289,7.4903v.6777h0v-.0002h.0002-.0001ZM124.741,59.4304c-.1597-.6767-.5577-1.434-1.0359-1.9122-.8374-.8365-1.9924-.9565-2.6303-.9565-1.0757,0-1.9122.2788-2.5898.9565-.4384.4782-.8365,1.1153-.9565,1.9122h7.2125Z"/>
  <path d="M168.1721,63.0967h-13.268c0,.9557.3583,2.2307,1.1153,2.9877.3987.3987,1.1954.8771,2.6294.8771.1597,0,1.2749-.0397,2.0716-.4782.3987-.2392.8374-.6379,1.1161-1.1954h6.0961c-.2788.9962-.8374,2.3911-2.152,3.6661-1.3146,1.2749-3.3865,2.4698-7.2512,2.4698-2.3506,0-5.1794-.5179-7.3712-2.7089-1.1558-1.1558-2.6294-3.3468-2.6294-6.7341,0-2.9877,1.1154-5.3789,2.6691-6.893,1.4744-1.434,3.7855-2.5898,7.2917-2.5898,2.0716,0,4.7409.4384,6.8533,2.431,2.5094,2.3903,2.8289,5.4979,2.8289,7.4903v.6777h.0001v-.0002h.0003-.0001ZM162.315,59.4304c-.1597-.6767-.5584-1.434-1.0359-1.9122-.8374-.8365-1.9924-.9565-2.6303-.9565-1.0757,0-1.9122.2788-2.5898.9565-.4384.4782-.8365,1.1153-.9565,1.9122h7.2125Z"/>
  <path d="M177.6115,58.2358v12.5904h-6.375v-12.5904h-3.4505l1.702-5.2198h1.7485v-5.8571h6.375v5.8571h6.4623l-1.702,5.2198h-4.7603Z"/>
  <polygon points="139.4956 62.1402 135.2322 53.0158 128.1001 53.0158 137.304 70.8262 141.3634 70.8262 151.027 53.0158 144.3163 53.0158 139.4956 62.1402"/>
  <polygon points=".0001 75.7202 .0001 77.1382 33.3125 77.1382 25.9695 75.7202 .0001 75.7202"/>
  <path d="M651.9683,75.7202H45.2411c-.0137.0171-.0332.0406-.057.0685l-.2261.248h0c.0024,0-.0215.0263-.0654.0702l-.1133.1133-.1045.0995.0015.002-.3276.2891.0015.001-.5684.4287c-.0142.0117-.0778.0541-.1477.0977h608.3342v-1.4181Z"/>
  <polygon class="cls-1" points="52.4017 39.3024 52.3737 39.4978 42.9254 72.1288 42.9072 72.1854 42.7951 72.4764 42.6579 72.7517 42.4928 73.017 42.3334 73.2293 42.1635 73.4219 41.941 73.6345 41.6896 73.8329 41.4715 73.9759 41.197 74.1234 40.917 74.2416 40.6727 74.3209 40.3695 74.3907 40.0702 74.4304 39.8185 74.4406 39.7142 74.438 39.509 74.4228 39.3095 74.3965 21.8127 71.092 21.6321 71.0462 21.3946 70.9637 21.2258 70.887 21.0654 70.7978 20.9175 70.6987 20.744 70.557 20.5832 70.3933 20.4722 70.2551 20.3711 70.1036 20.2901 69.9566 20.2013 69.7518 20.1305 69.5245 20.0921 69.3387 20.0684 69.1388 20.0615 68.9588 20.0738 68.7073 20.1128 68.4444 20.1814 68.1693 30.5595 36.5437 30.636 36.3663 30.7756 36.1369 30.9685 35.9105 31.2154 35.701 31.3121 35.6358 31.5464 35.5079 31.8182 35.4051 32.0712 35.3481 32.356 35.3261 32.6853 35.3492 51.2869 38.096 51.4427 38.126 51.6507 38.193 51.8403 38.2876 52.0193 38.4172 52.1536 38.5542 52.2571 38.7016 52.343 38.8859 52.3899 39.0686 52.4035 39.2419 52.4017 39.3024"/>
  <path d="M40.934,59.9995l-.0013-.0189-.0018-.019-.0024-.019-.003-.019-.0035-.019-.004-.019-.0046-.0191-.0052-.0191-.0058-.0191-.0064-.0191-.007-.0191-.0075-.0191-.0081-.0191-.0087-.0191-.0093-.0191-.0099-.0191-.0105-.0191-.0111-.0191-.3856-.6376-.3919-.6317-.3965-.6267-.4089-.6366-.0098-.0137-.0102-.0136-.0107-.0133-.011-.013-.0114-.0127-.0118-.0124-.0122-.0122-.0126-.0119-.0129-.0116-.0133-.0113-.0137-.011-.014-.0107-.0143-.0103-.0147-.01-.015-.0097-.0153-.0093-.0156-.009-.0159-.0086-.0162-.0083-.0164-.008-.0167-.0076-.017-.0072-.0173-.0068-.0175-.0064-.0177-.006-.018-.0056-.0182-.0052-.0184-.0048-.0186-.0044-.0188-.004-.019-.0035-.0191-.0031-.0194-.0026-.0195-.0022-.0197-.0017-.0199-.0012-.02-.0007-.0201-.0003-.0203.0002-.0204.0007-.0205.0012-.0206.0017-.0207.0022-.0207.0027-.0209.0033-.021.0037-.021.0043-.021.0049-.021.0054-.0211.006-.0212.0065-.0212.0071-.0213.0077-.0213.0083-.0213.0088-.0213.0094-.0213.01-.0212.0107-.0211.0112-.0211.0119-.021.0124-.021.0131-.021.0137c-.6161.3888-1.5553.9778-1.6843,1.0538-.0774.0469-.1372.0386-.1845-.002-.0656-.0563-.212-.1959-.212-.1959l-.2779-.2687-.2697-.2732-.2614-.2779-.253-.2827-.2445-.2876-.2358-.2927-.2269-.2978-.218-.3031-.2089-.3086-.1997-.3141-.1904-.3197-.1809-.3255-.1713-.3314-.1616-.3374-.1518-.3435-.0965-.2367-.0909-.239-.1702-.4826-.1635-.4848-.1669-.4823c-.0034-.0077-.0058-.0157-.0087-.0236-.0397-.1051.0333-.1836.1298-.2398l1.6348-.9916.0199-.0124.0195-.0126.0191-.0129.0187-.0131.0183-.0133.0179-.0136.0175-.0137.017-.014.0166-.0142.0163-.0144.0158-.0146.0154-.0148.015-.015.0145-.0151.0141-.0153.0137-.0154.0132-.0157.0128-.0158.0123-.016.012-.0161.0114-.0162.011-.0163.0105-.0165.01-.0166.0097-.0167.0092-.0169.0087-.017.0083-.017.0077-.0172.0073-.0173.0068-.0174.0064-.0174.0059-.0176.0053-.0176.0049-.0177.0044-.0177.004-.0178.0034-.0179.003-.0179.0024-.0179.002-.018.0015-.018.0009-.018.0004-.0181v-.0181l-.0007-.0181-.0011-.0181-.0016-.0181-.0022-.0181-.0027-.0181-.0032-.0181-.0037-.0181-.0043-.018-.0048-.018-.0053-.018-.0059-.018-.0064-.0179-.007-.0179-.0075-.0178-.0081-.0177-.0086-.0177-.0092-.0176-.0097-.0176-.3768-.6188-.3697-.5974-.373-.5934-.3848-.6024-.0087-.0128-.0089-.0125-.0091-.0123-.0092-.012-.0094-.0117-.0096-.0114-.0097-.0111-.0099-.0109-.01-.0106-.0102-.0103-.0103-.01-.0105-.0098-.0107-.0095-.0107-.0092-.0109-.009-.011-.0087-.0112-.0084-.0113-.0082-.0114-.0079-.0116-.0077-.0117-.0073-.0118-.0071-.012-.0068-.0121-.0066-.0122-.0063-.0123-.006-.0124-.0057-.0125-.0055-.0126-.0052-.0127-.0049-.0129-.0047-.0129-.0044-.013-.0041-.0131-.0038-.0132-.0036-.0134-.0033-.0134-.003-.0135-.0028-.0137-.0025-.0137-.0022-.0138-.0019-.0139-.0017-.0139-.0014-.014-.0012-.014-.0009-.0142-.0006-.0142-.0003h-.0287l-.0144.0006-.0145.0007-.0145.001-.0146.0013-.0147.0015-.0147.0018-.0296.0045-.0297.0055-.0299.0067-.0301.0077-.0179.0051-.0179.0055-.0179.0059-.018.0062-.018.0066-.018.007-.0181.0074-.0181.0077-.0363.0167-.0363.0182-.0363.0197-2.9348,1.7906-.0582.0373-.0564.0389-.0544.0404-.0524.0418-.0505.0432-.0245.0221-.024.0224-.0235.0227-.023.023-.0225.0234-.022.0237-.0214.024-.021.0242-.0204.0245-.0199.0247-.0194.025-.0188.0253-.0182.0255-.0177.0257-.0172.026-.0166.0262-.0161.0264-.0155.0266-.015.0268-.0144.027-.0139.0272-.0133.0274-.0127.0276-.0121.0278-.0116.028-.011.0281-.0105.0282-.0099.0283-.0092.0285-.0087.0286-.0081.0287-.0074.0288-.0069.029-.0063.029-.0057.0291-.005.0292-.0045.0293-.0039.0294-.0032.0294-.0026.0295-.002.0296-.0013.0296-.0007.0296v.0296l.0003.0296.0012.0296.0018.0297.0025.0296.0031.0296.0037.0296.0044.0296.005.0296.0057.0296.0064.0295.1063.4403.1173.4368.128.4333.1385.4299.1485.4266.1584.4235.1681.4204.1774.4174.1652.3693.171.3664.1769.3635.1829.3606.1888.3576.1947.3547.2006.3517.2066.3488.2126.3458.2186.3428.2246.3398.2306.3367.2366.3338.2426.3307.2487.3277.2548.3245.3735.4563.1912.2247.1943.2223.1976.2197.2009.2171.2044.2143.2079.2114.2116.2085.2155.2054.2193.2022.2234.1989.2274.1955.2317.192.236.1883.2405.1846.0648.0474.0645.0444.0642.0413.0641.0383.032.018.0319.0173.0319.0164.0319.0157.0319.015.0318.0142.0318.0134.0318.0127.0318.0119.0319.0111.0319.0104.0319.0096.032.0089.032.0081.032.0073.0321.0066.0321.0058.0322.005.0323.0043.0324.0036.0324.0028.0324.002.0326.0013.0327.0006.0327-.0003.0329-.001.033-.0017.0331-.0025.0333-.0033.0334-.004.0335-.0048.0337-.0055.0338-.0063.034-.007.0341-.0078.0343-.0086.0345-.0093.0347-.01.0349-.0108.035-.0116.0706-.0254.0714-.0284.0723-.0315.0732-.0345.0743-.0375.0753-.0405.0763-.0435,2.5428-1.5669.0424-.0271.0407-.0278.0389-.0286.0188-.0146.0183-.0147.0179-.0149.0174-.0151.017-.0153.0165-.0154.016-.0156.0156-.0157.0151-.0158.0147-.016.0142-.0161.0137-.0163.0132-.0164.0127-.0166.0123-.0167.0118-.0168.0113-.0169.0108-.017.0103-.0172.0098-.0173.0093-.0174.0088-.0175.0083-.0176.0078-.0177.0073-.0178.0068-.0179.0062-.018.0057-.0181.0052-.0182.0047-.0182.0041-.0183.0037-.0184.0031-.0185.0026-.0185.002-.0186.0015-.0187.001-.0187.0003-.0188v-.0188l-.0009-.0188.0003.0002v.0003h0l.0004-.0004Z"/>
  <path d="M42.744,45.1676c-.8997-.494-1.9031-.8271-2.9177-.9812-.1012-.0135-.2058-.0025-.3023.0304-.274.0863-.4849.3846-.4075.673.0266.0992.0917.1867.1766.2439.124.0888.4096.1242.5549.1509,2.671.4885,4.9261,2.511,5.5205,5.1864.1993.9081.2019,1.8668.0213,2.7782-.009.1021-.2345.9436-.1974,1.0288.0143.175.1198.3397.2756.4221.3004.1699.7019-.022.8098-.3373,1.2038-3.5188-.2737-7.3944-3.5339-9.1954h0v.0002Z"/>
  <path d="M39.2525,46.6165h-.0004c-.3718-.0741-.6622-.0047-.8348.3097-.0905.1756-.0895.4103.0616.5524.0753.0749.1742.1224.2757.1502.398.0733.818.1851,1.1901.3456.9055.3678,1.7277.9909,2.2271,1.8411.4873.8397.7368,1.8447.6574,2.8148-.0217.2245-.0637.4653-.1152.685-.0709.2919-.2467.6889.0591.908.2658.1895.6798.1222.8674-.1468,1.2446-3.4158-.8497-6.8094-4.3878-7.4599h-.0002Z"/>
  <path d="M38.8074,49.1c-.3504-.1005-.7897-.1952-1.0576.1242-.1916.224-.2136.5997.0727.7553.0487.0289.1028.0512.1569.0677.9905.1416,1.8302.8146,2.1023,1.7897.326.8437-.4434,1.8367.2869,2.0375.2154.0667.4641.0125.6161-.1586.2095-.2298.2515-.5607.3043-.8555.1512-.9993-.1742-2.0569-.8708-2.7908-.4328-.4635-1.0007-.7994-1.6107-.9695h0Z"/>
  <path d="M54.105,39.1791c0-.0074-.0003-.0148-.0006-.0222l-.002-.0528c-.0003-.0075-.0007-.015-.0012-.0225l-.0034-.0522c-.0005-.0082-.0012-.0164-.002-.0247l-.0049-.0516c-.0007-.0072-.0015-.0145-.0023-.0217l-.0062-.051c-.0009-.0074-.0018-.0148-.003-.0223l-.0074-.0503c-.0013-.0082-.0025-.0163-.004-.0245l-.0102-.0578c-.0015-.0089-.0033-.0176-.005-.0264l-.012-.0567c-.0018-.0085-.0037-.017-.0058-.0254l-.0135-.0556c-.002-.0079-.004-.0157-.006-.0235l-.0148-.0544c-.0023-.0084-.0048-.0169-.0073-.0253l-.0163-.0534c-.0023-.0076-.0048-.0151-.0073-.0227l-.0176-.0522c-.0027-.0078-.0053-.0156-.0082-.0233l-.0188-.051c-.003-.0079-.006-.0158-.0092-.0236l-.0201-.0497c-.0027-.0066-.0053-.0131-.0082-.0197l-.0211-.0487c-.0034-.0079-.007-.0157-.0105-.0234l-.0223-.0474c-.0032-.0068-.0065-.0135-.0099-.0202l-.0233-.0463c-.0033-.0067-.0068-.0133-.0104-.02l-.0241-.045c-.0035-.0066-.0071-.0131-.0108-.0197l-.025-.0438c-.0037-.0063-.0073-.0126-.0111-.0189l-.0258-.0426c-.0037-.0062-.0075-.0123-.0114-.0183l-.0265-.0414c-.0035-.0055-.0071-.0111-.0108-.0166l-.0271-.0401c-.0046-.0068-.0093-.0136-.0142-.0203l-.0333-.0464c-.0045-.0063-.0092-.0126-.0139-.0188l-.0343-.0451c-.005-.0067-.0102-.0132-.0154-.0197l-.0354-.0438c-.005-.0061-.01-.0123-.0151-.0182l-.0364-.0426c-.005-.0059-.0102-.0118-.0154-.0176l-.0373-.0413c-.0055-.0062-.0111-.0121-.0168-.0182l-.0383-.04c-.0048-.005-.0097-.0099-.0146-.0148l-.0389-.0387c-.0058-.0057-.0115-.0113-.0174-.0169l-.0398-.0374c-.0053-.005-.0107-.0099-.0162-.0148l-.0404-.0361c-.0056-.005-.0113-.01-.0171-.0149l-.0411-.0348c-.0056-.0047-.0111-.0093-.0168-.0139l-.0418-.0336c-.0057-.0045-.0113-.0089-.0171-.0133l-.0424-.0323c-.0056-.0043-.0112-.0084-.0169-.0125l-.0429-.031c-.0058-.0042-.0117-.0084-.0176-.0124l-.0435-.0298c-.0055-.0037-.011-.0074-.0164-.011l-.0438-.0285c-.0064-.0041-.0127-.0082-.0191-.0121l-.0444-.0273c-.0056-.0034-.0112-.0068-.0169-.0102l-.0494-.0288c-.0068-.004-.0136-.0077-.0204-.0115l-.0503-.0274c-.0063-.0034-.0126-.0068-.019-.01l-.0508-.0261c-.0066-.0034-.0131-.0067-.0197-.0099l-.0514-.0247c-.0064-.003-.0126-.006-.019-.0089l-.052-.0235c-.0068-.003-.0135-.006-.0203-.0089l-.0526-.0222c-.0067-.0028-.0133-.0055-.02-.0081l-.0531-.0208c-.0066-.0025-.0131-.005-.0197-.0074l-.0537-.0195c-.0066-.0024-.0132-.0047-.0197-.0069l-.0541-.0182c-.0067-.0022-.0133-.0044-.02-.0065l-.0546-.0169c-.0064-.0019-.0126-.0038-.019-.0056l-.0551-.0156c-.0068-.0018-.0134-.0037-.0201-.0054l-.0556-.0143c-.0065-.0017-.013-.0032-.0195-.0047l-.0558-.0129c-.0066-.0015-.0132-.003-.0198-.0044l-.0562-.0117c-.0064-.0013-.0126-.0025-.019-.0037l-.0565-.0103c-.0065-.0012-.0128-.0023-.0192-.0033l-.0568-.0091c-.0024-.0003-.0048-.0004-.0072-.0008-.0023-.0003-.0045-.001-.0068-.0013-.0007,0-.0015-.0003-.0025-.0003l-18.1383-2.6802-.486-.0699c-.0096-.0014-.0192-.0027-.029-.0037l-.1236-.0135c-.008-.0009-.0161-.0017-.0243-.0023l-.1243-.01c-.0073-.0006-.0147-.0011-.022-.0015l-.0623-.0033c-.0055-.0003-.011-.0005-.0166-.0007l-.0623-.0022c-.0063-.0002-.0124-.0003-.0187-.0004l-.0625-.0008c-.0065,0-.0131,0-.0192,0l-.0625.0006c-.006,0-.0121.0002-.0182.0003l-.0497.0015c-.0053,0-.0108.0003-.0163.0006l-.0501.0025c-.0053.0003-.0108.0006-.0162.001l-.0503.0035c-.005.0003-.0102.0008-.0153.0012l-.0505.0044c-.0055.0005-.011.001-.0164.0016l-.0509.0055c-.0053.0005-.0105.0012-.0158.0018l-.051.0065c-.0053.0006-.0107.0013-.016.0022l-.0513.0074c-.0053.0008-.0105.0016-.0158.0025l-.0515.0085c-.0053.0008-.0107.0018-.016.0027l-.0516.0096c-.0053.001-.0105.002-.0158.0031l-.0519.0106c-.0053.0011-.0108.0022-.0161.0034l-.052.0117c-.005.0012-.0102.0023-.0151.0036l-.0521.0127c-.0058.0013-.0114.0028-.0171.0044l-.0522.0139c-.005.0013-.01.0027-.0148.0041l-.0524.015c-.0053.0015-.0107.0031-.0161.0047l-.0524.0161c-.0055.0017-.011.0034-.0165.0053l-.0524.0173c-.0046.0015-.0093.0031-.014.0047l-.0468.0163c-.0048.0017-.0097.0034-.0145.0052l-.0471.0174c-.0047.0017-.0094.0035-.014.0053l-.0472.0184c-.0047.0018-.0095.0037-.0142.0057l-.0473.0194c-.0045.0018-.0089.0037-.0133.0056l-.0475.0204c-.005.0021-.0099.0043-.0148.0065l-.0475.0215c-.0046.0021-.0092.0042-.0138.0063l-.0476.0225c-.0047.0022-.0094.0045-.014.0068l-.0476.0237c-.0048.0024-.0095.0048-.0143.0073l-.0476.0247c-.0046.0024-.0093.0049-.0139.0074l-.0475.0259c-.0047.0025-.0094.0052-.014.0077l-.0475.027c-.0047.0027-.0096.0055-.0143.0083l-.0474.0282c-.0047.0028-.0093.0056-.014.0085l-.0472.0293c-.0045.0028-.0089.0057-.0134.0086l-.0471.0305c-.0047.0031-.0095.0062-.0142.0094l-.0469.0317c-.0047.0031-.0094.0063-.014.0096l-.0466.0329c-.0063.0044-.0124.0089-.0186.0134l-.0789.0589c-.0058.0044-.0115.0088-.0173.0133l-.0393.0309c-.0041.0032-.0081.0065-.0123.0098l-.039.032c-.004.0031-.0077.0063-.0115.0096l-.039.0331-.0108.0094-.0388.034c-.0044.0039-.0087.0077-.013.0117l-.0384.0351c-.0035.0033-.007.0065-.0105.0098l-.0383.0361c-.0041.0039-.0081.0077-.0121.0117l-.0378.0372c-.0038.0037-.0077.0075-.0113.0113l-.0374.0383c-.004.0041-.008.0083-.012.0126l-.037.0393c-.0035.0037-.007.0075-.0105.0113l-.0365.0404c-.0041.0046-.0082.0091-.0123.0138l-.036.0414c-.0035.004-.007.0081-.0105.0123l-.0355.0425c-.0038.0046-.0075.0092-.0112.0139l-.0349.0436c-.0038.0047-.0077.0096-.0112.0144l-.0342.0447c-.0034.0044-.0068.0089-.01.0134l-.0294.0401c-.0032.0043-.0063.0086-.0093.0129l-.0287.0407c-.0032.0046-.0065.0091-.0096.0137l-.028.0413c-.003.0045-.006.0089-.0089.0135l-.0273.0419c-.0027.0043-.0055.0085-.0081.0127l-.0266.0425c-.0032.005-.0063.0102-.0094.0153l-.0257.0431-.0085.0146-.0249.0437c-.003.0052-.0058.0103-.0086.0156l-.0241.0444c-.0025.0046-.005.0093-.0075.014l-.0233.0448c-.0025.0049-.005.0098-.0074.0148l-.0225.0455c-.0027.0055-.0055.0112-.0081.0169l-.0215.046c-.0027.0056-.0052.0113-.0077.017l-.0205.0466c-.0022.0049-.0043.0097-.0063.0146l-.0197.0472c-.0027.0062-.005.0123-.0075.0185l-.0187.0477c-.002.0052-.004.0105-.006.0158l-.0178.0482c-.0034.0092-.0067.0184-.0097.0277l-.6662,2.0182s0,.0006-.0003.0009c0,.0003-.0002.0004-.0003.0007l-9.6952,29.5528c-.0012.0037-.0023.0073-.0035.011l-.0281.0896c-.0022.0068-.0041.0135-.006.0203l-.0256.0892c-.0018.0063-.0035.0126-.0052.019l-.0233.0888c-.0018.0068-.0035.0137-.0052.0206l-.0208.0884c-.0015.0064-.003.0128-.0043.0191l-.0186.0879c-.0015.0068-.0027.0137-.004.0205l-.0162.0873c-.0013.007-.0025.014-.0037.0211l-.0139.0868c-.0011.0068-.002.0136-.003.0204l-.0117.0861c-.0009.0068-.0017.0135-.0025.0203l-.0095.0856c-.0008.0071-.0015.0143-.0022.0214l-.0072.0849c-.0005.0067-.001.0133-.0015.02l-.0052.0842c-.0004.007-.0008.0142-.001.0214l-.003.0834c-.0003.007-.0005.0139-.0005.0208l-.001.0828c0,.0074,0,.0148,0,.0222l.0012.0821c0,.007.0003.0138.0005.0206l.0031.0814c.0003.007.0007.014.0011.021l.005.0804c.0005.0075.0011.0151.0017.0225l.0083.0925c.0008.0083.0015.0166.0027.025l.0108.0907c.0009.008.0019.016.0031.0238l.0132.0889c.0013.0081.0025.0162.004.0243l.0156.0873c.0013.0078.0028.0156.0044.0233l.0178.0855c.0015.008.0034.016.0053.024l.0198.0836c.0017.0075.0037.0151.0057.0225l.0218.0819c.002.0077.0042.0154.0065.023l.0238.0801c.0022.0077.0046.0153.007.0228l.0256.0783c.0025.0075.005.015.0077.0223l.0274.0764c.0025.007.005.0138.0077.0206l.029.0747c.0028.0072.0058.0145.0088.0217l.0304.0727c.003.007.006.0139.0091.0207l.032.0709c.003.0068.0063.0136.0095.0203l.0333.069c.003.0064.0062.0126.0094.0188l.0345.0671c.0035.0068.0071.0137.0108.0204l.0358.0651c.0037.0068.0077.0137.0117.0205l.0443.0757c.0042.0071.0085.0143.0129.0214l.046.0736c.0045.0071.0091.0142.0138.0213l.0477.0714c.0046.007.0094.0139.0143.0207l.0494.0694c.0049.007.0099.0138.0151.0205l.0509.0673c.005.0068.0103.0134.0155.02l.0525.0651c.0049.006.0099.012.015.018l.0537.0631c.0053.0063.0107.0124.0161.0185l.0551.0611c.0055.0062.0112.0123.0169.0182l.0564.0589c.0053.0055.0107.0111.0162.0165l.0576.057c.0058.0057.0115.0112.0174.0167l.0587.0549c.0055.005.011.0102.0165.0151l.0597.053c.0059.0052.0118.0104.0178.0154l.0607.0509c.0058.0048.0115.0096.0174.0143l.0614.0488c.006.0047.012.0093.018.0139l.0623.0469c.0062.0046.0124.0092.0187.0137l.0631.0448c.0062.0043.0124.0086.0187.0128l.0708.0475c.0063.0043.0128.0085.0192.0126l.0719.0454c.007.0044.014.0088.0213.013l.0729.0432c.0067.004.0134.0078.0203.0115l.074.0411c.0068.0038.0136.0075.0204.011l.0751.0391c.0068.0035.0136.007.0204.0104l.0761.037c.007.0033.0139.0066.0208.0098l.0768.0349c.0067.003.0134.006.0201.0088l.0778.033c.0072.003.0144.006.0217.0088l.0787.0308c.0066.0027.0132.005.0198.0075l.0794.0288c.0071.0025.0143.005.0214.0074l.0801.0267c.0065.0022.0128.0042.0192.0062l.0809.0248c.007.0022.0139.0042.021.0062l.0815.0228c.007.0018.0139.0037.0207.0055l.0822.0207c.0067.0017.0133.0032.02.0048l.0828.0188c.0099.0022.0198.0043.0298.0062l17.5324,3.3112c.0107.002.0216.0038.0324.0055l.1252.0184c.0079.0012.016.0022.024.0031l.1268.015c.008.001.016.0017.0241.0025l.1282.0114c.0086.0008.0173.0013.026.0018l.1291.0075c.0095.0006.019.001.0284.0012l.1298.0032c.007.0002.014.0003.0213.0003h.0663c.005,0,.0102-.0003.0154-.0003l.0651-.0013c.005,0,.0102-.0002.0154-.0004l.065-.0025c.006-.0002.0118-.0005.0178-.0009l.0651-.0038c.005-.0003.01-.0006.0151-.001l.0743-.0057c.0053-.0004.0107-.0009.0161-.0013l.0747-.0071c.005-.0005.01-.0011.0148-.0015l.0751-.0085c.0055-.0007.0112-.0013.0168-.002l.0754-.01c.0049-.0007.0098-.0013.0147-.0022l.0757-.0114c.005-.0008.01-.0015.0151-.0025l.0761-.0129c.0055-.0009.011-.0018.0164-.003l.0762-.0145c.0053-.001.0105-.002.0157-.0031l.0765-.016c.0057-.0012.0113-.0025.017-.0037l.0766-.0177c.0048-.0012.0097-.0022.0145-.0035l.0768-.0191c.0055-.0013.011-.0027.0164-.0042l.0769-.0208c.0053-.0015.0105-.003.0158-.0045l.0771-.0225c.0053-.0015.0107-.0032.0161-.0049l.0771-.0241c.0055-.0017.011-.0034.0163-.0053l.0772-.0259c.0052-.0017.0104-.0035.0156-.0053l.0772-.0275c.0055-.002.0112-.0041.0168-.0063l.0772-.0294c.0049-.0018.0098-.0037.0147-.0057l.0685-.0275c.0044-.0017.0088-.0037.0132-.0055l.0688-.029c.0052-.0022.0102-.0044.0154-.0067l.0689-.0307c.0044-.002.0088-.004.0132-.006l.069-.0321c.005-.0023.01-.0048.0151-.0072l.0692-.0339c.0045-.0022.0089-.0044.0134-.0067l.0691-.0354c.0049-.0025.0098-.005.0146-.0077l.0692-.0371c.0048-.0025.0095-.0052.0143-.0078l.0691-.0388c.0049-.0027.0097-.0056.0146-.0084l.069-.0406c.0046-.0027.0093-.0055.0138-.0083l.0688-.0422c.0048-.003.0095-.0059.0142-.0089l.0686-.044c.0049-.0031.0097-.0063.0145-.0095l.0684-.0458c.0044-.003.0087-.0059.0131-.0089l.0681-.0475c.0049-.0034.0098-.007.0146-.0105l.0678-.0494c.0047-.0033.0093-.0068.0138-.0102l.0674-.0512c.0044-.0033.0088-.0067.0131-.01l.0671-.0531c.0046-.0037.0091-.0073.0136-.011l.0571-.0472c.0037-.003.0073-.006.011-.0092l.057-.0487c.0041-.0035.0082-.007.0123-.0107l.0567-.0503c.0037-.0034.0074-.0068.0111-.0102l.0563-.0518c.0037-.0033.0072-.0068.0108-.01l.0559-.0533.012-.0117.0554-.0549c.0037-.0037.0074-.0074.011-.0111l.0549-.0566c.0038-.0038.0075-.0077.0112-.0117l.0543-.0581c.0037-.004.0074-.0081.0111-.0123l.0537-.0597c.0038-.0042.0077-.0085.0113-.0128l.053-.0613c.0033-.004.0067-.0077.0099-.0117l.0524-.0628c.0037-.0045.0073-.0089.011-.0134l.0515-.0644c.0035-.0044.007-.0088.0104-.0133l.0507-.0661c.0037-.0048.0073-.0096.0108-.0145l.0497-.0678c.0032-.0044.0065-.0089.0096-.0133l.0488-.0693c.0035-.005.007-.0099.0102-.0148l.0479-.0711c.0028-.0043.0058-.0086.0085-.0129l.0416-.0641c.0031-.0047.006-.0095.0091-.0143l.0404-.0651c.0028-.0046.0055-.0092.0084-.0138l.0392-.066.0077-.0132.0381-.0669c.0023-.0042.0048-.0084.0071-.0127l.037-.0676c.0027-.005.0053-.01.0079-.015l.0358-.0685c.0025-.0047.0049-.0094.0072-.014l.0346-.0694c.0025-.005.005-.01.0073-.0151l.0333-.0703c.0022-.0045.0042-.009.0063-.0135l.0321-.0709c.0022-.005.0045-.01.0067-.0151l.0309-.0718c.0022-.0049.0042-.0098.0062-.0148l.0296-.0726c.0022-.0052.0042-.0105.0063-.0158l.0282-.0734c.0017-.0045.0034-.009.005-.0135l.0271-.0741c.002-.0057.0041-.0113.006-.017l.0256-.075c.0015-.0048.0032-.0097.0048-.0145l.0243-.0757c.0025-.0079.0049-.0158.0072-.0237l9.4503-32.6334c.0033-.0115.0065-.0231.0093-.0348l.014-.0574c.0018-.0077.0037-.0154.0053-.0232l.0123-.057c.0017-.0079.0032-.0158.0047-.0238l.0105-.0567c.0015-.0077.0027-.0153.004-.0229l.0088-.0562c.0013-.0079.0023-.0158.0034-.0237l.0071-.0558c.001-.0081.002-.0161.0027-.0243l.0055-.0554c.0007-.0072.0013-.0145.0018-.0217l.004-.0549c.0006-.0084.0011-.0169.0015-.0253l.0023-.0544c.0003-.0076.0006-.0151.0007-.0228l.0009-.0539c0-.0083,0-.0165,0-.0247l-.0007-.0534v-.0007h.0003l-.0007.0003ZM52.4017,39.3024l-.028.1953-9.4483,32.6311-.0183.0566-.1121.291-.1372.2753-.165.2653-.1595.2124-.17.1925-.2225.2126-.2514.1984-.2181.143-.2744.1475-.28.1182-.2443.0793-.3032.0698-.2993.0398-.2517.0102-.1044-.0027-.2052-.0151-.1995-.0263-17.4967-3.3045-.1807-.0457-.2376-.0826-.1687-.0768-.1604-.0891-.148-.0991-.1735-.1419-.1607-.1636-.1111-.1382-.1011-.1515-.0811-.147-.0888-.2048-.0708-.2273-.0384-.1858-.0238-.1999-.0068-.1801.0123-.2515.039-.2629.0685-.2752,10.3782-31.6255.0764-.1774.1397-.2293.1929-.2264.2469-.2095.0967-.0652.2344-.128.2718-.1028.253-.057.2848-.022.3293.0231,18.6017,2.7467.1558.03.208.067.1896.0946.179.1296.1343.1371.1035.1473.086.1843.0468.1827.0136.1734-.0017.0605h.0001Z"/>
  <g>
    <path class="cls-3" d="M26.5325,35.8704v4.0674h4.0674c-.4623-2.0166-2.0507-3.605-4.0674-4.0674Z"/>
    <path class="cls-3" d="M24.1135,46.424v-4.0673h-4.0672c.4623,2.0167,2.0507,3.6049,4.0672,4.0673Z"/>
    <path class="cls-3" d="M20.0462,39.9377h4.0672v-4.0674c-2.0166.4623-3.6049,2.0507-4.0672,4.0674Z"/>
    <path class="cls-3" d="M30.5999,42.3567h-4.0674v4.0672c2.0166-.4623,3.605-2.0507,4.0674-4.0672Z"/>
    <path class="cls-2" d="M26.5325,42.3567h4.0674c.0893-.3895.141-.7933.141-1.2095s-.0517-.82-.141-1.2096h-4.0674v-4.0674c-.3896-.0893-.7933-.141-1.2095-.141s-.82.0516-1.2095.1409v4.0674h-4.0672c-.0893.3896-.1409.7933-.1409,1.2096s.0516.8199.1409,1.2095h4.0673v4.0673c.3895.0893.7933.1409,1.2095.1409s.82-.0516,1.2095-.1409v-4.0673h-.0001Z"/>
  </g>
  <path d="M25.323,34.9365c-3.4245,0-6.2105,2.7863-6.2105,6.2107s2.7861,6.2105,6.2105,6.2105,6.2107-2.7858,6.2107-6.2105-2.7863-6.2107-6.2107-6.2107ZM25.323,46.5649c-.4163,0-.82-.0517-1.2095-.1409h0c-2.0166-.4623-3.6049-2.0505-4.0672-4.0673-.0893-.3895-.1409-.7933-.1409-1.2095s.0516-.82.1409-1.2096c.4623-2.0167,2.0506-3.6051,4.0672-4.0674h0c.3895-.0893.7933-.1409,1.2095-.1409s.82.0517,1.2095.141c2.0167.4623,3.605,2.0507,4.0674,4.0674.0893.3896.141.7933.141,1.2096s-.0517.8199-.141,1.2095c-.4623,2.0165-2.0507,3.6049-4.0674,4.0672h0c-.3896.0893-.7933.1409-1.2095.1409h0Z"/>
  <g>
    <path d="M198.0352,65.1876h4.0063v-3.6973h1.4287v9.3428h-1.4287v-4.3008h-4.0063v4.3008h-1.4287v-9.3428h1.4287v3.6973Z"/>
    <path d="M210.1182,64.9357h1.373v5.8975h-1.373v-.6162c-.6021.7002-1.3447.7979-1.7646.7979-1.8213,0-2.8579-1.5127-2.8579-3.1377,0-1.9189,1.3169-3.0947,2.8716-3.0947.4346,0,1.1909.1113,1.751.8398v-.6865ZM207.1768,61.9943c.4902,0,.8687.3779.8687.8682s-.3784.8691-.8687.8691-.8687-.3789-.8687-.8691.3784-.8682.8687-.8682ZM206.8965,67.9054c0,1.0225.6445,1.877,1.6392,1.877.8682,0,1.667-.6299,1.667-1.8633,0-1.2881-.7988-1.9043-1.667-1.9043-.9946,0-1.6392.8398-1.6392,1.8906ZM209.6982,61.9943c.4902,0,.8682.3779.8682.8682s-.3779.8691-.8682.8691-.8687-.3789-.8687-.8691.3784-.8682.8687-.8682Z"/>
    <path d="M213.5742,64.9357h1.3726v.5469c.4624-.5605,1.0088-.7002,1.457-.7002.6162,0,1.1904.2939,1.5264.8682.4902-.7002,1.2329-.8682,1.751-.8682.7144,0,1.3447.3359,1.6812.9238.1118.1963.3081.6309.3081,1.4854v3.6416h-1.3726v-3.25c0-.6582-.0703-.9238-.1265-1.0508-.084-.2236-.2939-.5176-.7842-.5176-.3364,0-.6304.1816-.8125.4336-.2383.3369-.2661.8408-.2661,1.3447v3.04h-1.3726v-3.25c0-.6582-.0703-.9238-.1265-1.0508-.084-.2236-.2939-.5176-.7842-.5176-.3364,0-.6304.1816-.8125.4336-.2383.3369-.2661.8408-.2661,1.3447v3.04h-1.3726v-5.8975Z"/>
    <path d="M225.167,66.1964v4.6367h-1.3726v-4.6367h-.5742v-1.2607h.5742v-2.1572h1.3726v2.1572h1.0508v1.2607h-1.0508Z"/>
    <path d="M231.8042,64.9357h1.373v5.8975h-1.373v-.6162c-.6021.7002-1.3447.7979-1.7646.7979-1.8213,0-2.8574-1.5127-2.8574-3.1377,0-1.9189,1.3164-3.0947,2.8711-3.0947.4346,0,1.1909.1113,1.751.8398v-.6865ZM228.5825,67.9054c0,1.0225.6445,1.877,1.6392,1.877.8682,0,1.6665-.6299,1.6665-1.8633,0-1.2881-.7983-1.9043-1.6665-1.9043-.9946,0-1.6392.8398-1.6392,1.8906Z"/>
    <path d="M240.2446,60.6212v10.2119h-1.3726v-10.2119h1.3726Z"/>
    <path d="M248.3247,67.8917c0,1.8066-1.373,3.123-3.1519,3.123s-3.1519-1.3164-3.1519-3.123c0-1.8213,1.373-3.1094,3.1519-3.1094s3.1519,1.2881,3.1519,3.1094ZM246.9238,67.9054c0-1.3447-.8823-1.8906-1.751-1.8906-.8682,0-1.751.5459-1.751,1.8906,0,1.1348.6724,1.877,1.751,1.877s1.751-.7422,1.751-1.877Z"/>
    <path d="M254.4136,64.9357h1.373v5.4209c0,1.3867-.1543,2.3818-.9668,3.0684-.3779.3076-.9941.6299-1.9609.6299-.6865,0-1.3726-.168-1.9331-.7285-.4341-.4336-.7705-1.1201-.8682-1.835h1.3306c.0562.3223.2241.7002.4341.9248.168.1816.5044.4062,1.0645.4062.5747,0,.9106-.2246,1.0786-.3926.4482-.4336.4482-1.0508.4482-1.4844v-.7705c-.6304.7979-1.4004.8398-1.793.8398-.7563,0-1.3867-.21-1.9468-.7979-.5322-.5605-.8823-1.3584-.8823-2.3398,0-1.0781.4058-1.8203.8682-2.2832.5884-.6016,1.2886-.8115,2.0029-.8115.5884,0,1.2471.1953,1.751.7979v-.6445ZM251.7944,66.4064c-.3501.3223-.6025.8691-.6025,1.499,0,.5889.2241,1.1631.5884,1.4854.2524.2236.6304.3916,1.0508.3916.4341,0,.8125-.126,1.1484-.4756.4062-.4346.5181-.9385.5181-1.3877,0-.6582-.21-1.1484-.5601-1.4844-.3364-.3359-.7144-.4199-1.1064-.4199-.3784,0-.7285.0977-1.0366.3916Z"/>
    <path d="M258.5557,61.6163c.5044,0,.8828.3779.8828.8818,0,.5049-.3784.8828-.8828.8828-.5039,0-.8823-.3779-.8823-.8828,0-.5039.3784-.8818.8823-.8818ZM259.2422,64.9357v5.8975h-1.3726v-5.8975h1.3726Z"/>
    <path d="M261.3135,64.9357h1.3726v.5469c.5884-.6582,1.2607-.7002,1.5972-.7002,1.0923,0,1.5547.5459,1.7368.7979.2241.3223.3643.7285.3643,1.6387v3.6143h-1.373v-3.2773c0-1.499-.5601-1.541-1.0781-1.541-.6167,0-1.2471.084-1.2471,1.9893v2.8291h-1.3726v-5.8975Z"/>
    <path d="M269.8398,64.9357v3.376c0,.3506.0142.7568.252,1.0645.1821.2383.5044.4062.8965.4062.3926,0,.7144-.168.8965-.4062.2383-.3076.2524-.7139.2524-1.0645v-3.376h1.3726v3.418c0,.7568-.084,1.3867-.6304,1.9336-.5322.5322-1.2607.7275-1.9189.7275-.6025,0-1.3306-.1816-1.8628-.7275-.5464-.5469-.6304-1.1768-.6304-1.9336v-3.418h1.3726Z"/>
    <path d="M276.9663,74.0411h-1.373v-9.1055h1.373v.6445c.5039-.6025,1.1621-.7979,1.75-.7979,1.5557,0,2.8721,1.1904,2.8721,3.0674,0,1.9893-1.457,3.165-2.8574,3.165-.3223,0-1.1484-.1113-1.7646-.8682v3.8945ZM276.8813,67.9191c0,1.2334.7988,1.8633,1.667,1.8633.9951,0,1.6396-.8545,1.6396-1.877,0-1.0508-.6445-1.8906-1.6396-1.8906-.8682,0-1.667.6162-1.667,1.9043Z"/>
    <path d="M284.7358,74.0411h-1.373v-9.1055h1.373v.6445c.5039-.6025,1.1631-.7979,1.751-.7979,1.5547,0,2.8711,1.1904,2.8711,3.0674,0,1.9893-1.4561,3.165-2.8574,3.165-.3223,0-1.1484-.1113-1.7646-.8682v3.8945ZM284.6519,67.9191c0,1.2334.7988,1.8633,1.667,1.8633.9941,0,1.6387-.8545,1.6387-1.877,0-1.0508-.6445-1.8906-1.6387-1.8906-.8682,0-1.667.6162-1.667,1.9043Z"/>
    <path d="M295.4468,64.9357h1.373v5.4209c0,1.3867-.1543,2.3818-.9668,3.0684-.3779.3076-.9941.6299-1.9609.6299-.6865,0-1.373-.168-1.9326-.7285-.4346-.4336-.7705-1.1201-.8691-1.835h1.3311c.0557.3223.2236.7002.4346.9248.168.1816.5039.4062,1.0645.4062.5742,0,.9102-.2246,1.0781-.3926.4482-.4336.4482-1.0508.4482-1.4844v-.7705c-.6299.7979-1.4004.8398-1.793.8398-.7559,0-1.3867-.21-1.9473-.7979-.5322-.5605-.8818-1.3584-.8818-2.3398,0-1.0781.4062-1.8203.8682-2.2832.5879-.6016,1.2891-.8115,2.0029-.8115.5889,0,1.2471.1953,1.751.7979v-.6445ZM292.8276,66.4064c-.3506.3223-.6025.8691-.6025,1.499,0,.5889.2246,1.1631.5889,1.4854.252.2236.6299.3916,1.0498.3916.4346,0,.8125-.126,1.1494-.4756.4062-.4346.5176-.9385.5176-1.3877,0-.6582-.21-1.1484-.5605-1.4844-.3359-.3359-.7139-.4199-1.1064-.4199-.3779,0-.7285.0977-1.0361.3916Z"/>
    <path d="M299.5894,61.6163c.5049,0,.8828.3779.8828.8818,0,.5049-.3779.8828-.8828.8828-.5039,0-.8828-.3779-.8828-.8828,0-.5039.3789-.8818.8828-.8818ZM300.2759,64.9357v5.8975h-1.373v-5.8975h1.373Z"/>
    <path d="M303.8735,66.1964v4.6367h-1.3721v-4.6367h-.5889v-1.2607h.5889v-2.0449c0-.9102.2383-1.4844.5742-1.8486.252-.2666.6865-.5742,1.4004-.5742.2939,0,.5889.042.8828.168v1.3584c-.2803-.168-.4619-.21-.6582-.21-.168,0-.4209.0283-.6025.2236-.0703.0703-.2246.2803-.2246.7012v2.2266h1.4854v1.2607h-1.4854Z"/>
    <path d="M308.3394,66.1964v4.6367h-1.373v-4.6367h-.5742v-1.2607h.5742v-2.1572h1.373v2.1572h1.0508v1.2607h-1.0508Z"/>
    <path d="M315.9429,69.4884c-.252.4482-.6162.8408-.9941,1.0781-.4766.3086-1.1074.4482-1.7373.4482-.7842,0-1.4287-.1953-1.9893-.7559s-.8682-1.373-.8682-2.2549c0-.9111.3223-1.793.9385-2.4238.4902-.4902,1.1348-.7979,1.9746-.7979.9385,0,1.541.4053,1.8916.7695.7559.7852.8262,1.877.8262,2.4941v.168h-4.2305c.0283.4199.21.8965.5049,1.1904.3213.3223.7139.3779,1.0498.3779.3789,0,.6582-.084.9385-.2939.2383-.1816.4209-.4199.5469-.6445l1.1484.6445ZM314.5845,67.0929c-.0566-.3223-.2109-.6025-.4209-.7979-.1816-.1689-.4756-.3369-.9238-.3369-.4766,0-.7852.1963-.9668.3789-.1963.1816-.3506.4619-.4199.7559h2.7314Z"/>
    <path d="M317.7603,64.9357h1.373v.5322c.1543-.1816.3779-.3779.5742-.4902.2666-.1533.5322-.1953.8408-.1953.3359,0,.7002.0557,1.0781.2793l-.5605,1.2471c-.3076-.1963-.5596-.21-.7002-.21-.2939,0-.5879.042-.8545.3223-.3779.4062-.3779.9658-.3779,1.3584v3.0537h-1.373v-5.8975Z"/>
  </g>
</svg>