<?xml version="1.0" encoding="UTF-8"?>
<svg id="Lager_1" xmlns="http://www.w3.org/2000/svg" width="200mm" height="30mm" viewBox="0 0 566.9291 85.0394">
  <defs>
    <style>
      .cls-1 {
        fill: #0083ba;
      }

      .cls-2 {
        fill: #f5cd50;
      }
    </style>
  </defs>
  <path d="M12.0434,34.628c2.303,0,6.7824,0,10.1431,2.6137,2.4259,1.8666,3.8578,5.1035,3.8578,8.5874,0,5.3521-3.5478,7.5302-4.6665,8.1519,2.7375.4363,4.3549,1.6174,5.4129,2.6129,2.4898,2.3652,2.9869,5.6013,2.9869,7.7797,0,2.4259-.684,5.849-3.5463,8.3996-3.1115,2.7391-6.907,3.3607-10.5171,3.3607H1.7755v-41.5059s10.2678,0,10.2677,0h.0003ZM9.8652,51.8652h2.303c1.245,0,6.2838-.1246,6.2838-5.4129,0-3.7971-2.9246-5.2282-6.2214-5.2282h-2.3652v10.6409h-.0001,0ZM9.8652,69.5386h3.4856c1.4925,0,3.7331-.0624,5.5374-1.1202,1.9911-1.1826,2.5521-3.1739,2.5521-4.7911,0-1.3072-.4363-3.5478-3.0491-4.7302-1.7436-.8086-3.7971-.8086-5.5391-.8086h-2.9869v11.4505-.0003h0ZM53.9195,34.628c5.7244,0,8.649,1.4933,10.5795,3.1115,3.1723,2.6759,4.1055,6.223,4.1055,9.3345,0,4.0449-1.6174,7.591-4.8535,9.7692-1.058.7463-2.5505,1.4319-4.5419,1.8043l12.9431,17.4865h-10.0809l-11.0765-16.6762h-.9956v16.6762h-8.0896v-41.5059h12.0099,0ZM49.9993,53.7317h2.303c1.555,0,7.965-.187,7.965-6.2838,0-6.1615-6.3476-6.2238-7.8404-6.2238h-2.4275s0,12.5076,0,12.5076ZM105.3162,41.5973h-14.9343v9.2722h14.3126v6.9694h-14.3126v11.3257h14.9343v6.9694h-23.0239v-41.5058h23.0239v6.9694h0ZM122.0533,34.628l11.0765,27.8789,11.0765-27.8789h8.8359l-17.5487,41.5059h-4.8535l-17.4225-41.5059h8.8359-.0002ZM185.5843,41.5973h-14.9343v9.2722h14.3126v6.9694h-14.3126v11.3257h14.9343v6.9694h-23.0239v-41.5058h23.0239v6.9694h0ZM212.4646,41.5973v34.5367h-8.0896v-34.5367h-9.3329v-6.9694h26.757v6.9694s-9.3345,0-9.3345,0ZM239.6547,52.1767l15.246-17.5487h10.2056l-17.5487,19.1661,18.4821,22.34h-10.7041l-14.7474-18.6067-.9334.9348v17.672h-8.0896v-41.5059h8.0896v17.5487h-.0001ZM300.3861,67.4227h-16.7401l-3.6709,8.7113h-8.7735l17.8589-41.5059h6.3476l17.3603,41.5059h-8.7113l-3.6709-8.7113h0ZM298.0211,60.8257l-5.9115-14.9343-5.9115,14.9343h11.823ZM330.3763,34.628v34.5367h12.8185v6.9694h-20.9081v-41.5059h8.0896ZM376.4849,41.5973h-14.9343v9.2722h14.3126v6.9694h-14.3126v11.3257h14.9343v6.9694h-23.0239v-41.5058h23.0239v6.9694h0ZM388.9902,76.1339v-41.5059h5.6013l25.2629,27.6919v-27.6919h8.0896v41.5059h-5.5998l-25.2645-27.7527v27.7527h-8.0896.0002ZM452.8936,34.628c5.7882,0,10.8272.6224,15.433,4.0449,5.0404,3.7971,7.965,9.8332,7.965,16.7402s-2.8622,12.8807-8.3389,16.7385c-4.8535,3.4231-9.3953,3.9824-15.1821,3.9824h-10.7041v-41.5059h10.8272-.0001ZM450.1561,69.1647h2.4898c2.0535,0,6.5331-.1246,10.1416-2.7375,3.2985-2.3652,5.165-6.5971,5.165-11.0141,0-4.3565-1.8043-8.5882-5.1027-11.0765-3.3594-2.4898-7.4664-2.7391-10.204-2.7391h-2.4898s0,27.5673,0,27.5672ZM511.4466,41.5973h-14.9343v9.2722h14.3126v6.9694h-14.3126v11.3257h14.9343v6.9694h-23.0239v-41.5058h23.0239v6.9694h0ZM535.9617,34.628c5.7244,0,8.649,1.4933,10.5795,3.1115,3.1722,2.6759,4.1055,6.223,4.1055,9.3345,0,4.0449-1.6174,7.591-4.8535,9.7692-1.058.7463-2.5505,1.4319-4.5419,1.8043l12.943,17.4865h-10.0809l-11.0765-16.6762h-.9955v16.6762h-8.0896v-41.5059h12.0099-.0001ZM532.0415,53.7317h2.303c1.555,0,7.965-.187,7.965-6.2838,0-6.1615-6.3476-6.2238-7.8404-6.2238h-2.4276v12.5076h0Z"/>
  <g>
    <path class="cls-1" d="M554.6919,36.1299v-6.2374h-6.2374c.709,3.0928,3.1448,5.5284,6.2374,6.2374Z"/>
    <path class="cls-1" d="M548.4547,26.1828h6.2374v-6.2375c-3.0926.709-5.5284,3.1448-6.2374,6.2375Z"/>
    <g>
      <path class="cls-1" d="M558.4018,19.9452v6.2375h6.2375c-.709-3.0927-3.1448-5.5284-6.2375-6.2375Z"/>
      <path class="cls-1" d="M564.6394,29.8925h-6.2375v6.2374c3.0926-.709,5.5284-3.1448,6.2375-6.2374Z"/>
      <path class="cls-2" d="M558.4018,29.8925h6.2375c.137-.5974.2161-1.2165.2161-1.8549s-.0792-1.2576-.2161-1.855h-6.2375v-6.2375c-.5974-.137-1.2164-.2161-1.8549-.2161s-1.2575.0792-1.8549.2161v6.2375h-6.2374c-.137.5974-.2161,1.2165-.2161,1.855s.0792,1.2575.2161,1.8549h6.2374v6.2374c.5974.137,1.2164.2161,1.8549.2161s1.2575-.0792,1.8549-.2161v-6.2374h0Z"/>
      <path d="M556.5468,18.5132c-5.2517,0-9.5243,4.273-9.5243,9.5246s4.2726,9.5243,9.5243,9.5243,9.5246-4.2723,9.5246-9.5243-4.273-9.5246-9.5246-9.5246ZM556.5468,36.346c-.6384,0-1.2575-.0792-1.8549-.2161h0c-3.0926-.709-5.5284-3.1447-6.2374-6.2374-.137-.5974-.2161-1.2165-.2161-1.8549s.0792-1.2576.2161-1.855c.709-3.0928,3.1447-5.5287,6.2374-6.2375h0c.5974-.137,1.2164-.2161,1.8549-.2161s1.2575.0792,1.8549.2161c3.0928.709,5.5284,3.145,6.2375,6.2375.137.5974.2161,1.2165.2161,1.855s-.0792,1.2575-.2161,1.8549c-.709,3.0926-3.145,5.5284-6.2375,6.2374h0c-.5974.137-1.2164.2161-1.8549.2161h0Z"/>
    </g>
  </g>
</svg>