<?xml version="1.0" encoding="UTF-8"?>
<svg id="Lager_1" data-name="Lager 1" xmlns="http://www.w3.org/2000/svg" width="230mm" height="30mm" viewBox="0 0 651.9685 85.0394">
  <defs>
    <style>
      .cls-1 {
        fill: #f8e39a;
      }

      .cls-2 {
        fill: #f8d047;
      }

      .cls-3 {
        fill: #fdf5e1;
      }

      .cls-4 {
        fill: #0082ba;
      }
    </style>
  </defs>
  <rect class="cls-1" x=".0003" y="0" width="651.9685" height="85.0394"/>
  <g>
    <path class="cls-3" d="M41.1599,75.2504c-15.3203,0-27.7854-12.4642-27.7854-27.785s12.4651-27.7844,27.7854-27.7844,27.7844,12.4641,27.7844,27.7844-12.4641,27.785-27.7844,27.785Z"/>
    <path class="cls-4" d="M41.16,19.1193c-15.6307,0-28.3463,12.716-28.3463,28.3462s12.7156,28.3467,28.3463,28.3467,28.3452-12.7165,28.3452-28.3467-12.7155-28.3462-28.3452-28.3462ZM41.16,75.2504c-15.3203,0-27.7854-12.4642-27.7854-27.785s12.4651-27.7844,27.7854-27.7844,27.7844,12.4641,27.7844,27.7844-12.4641,27.785-27.7844,27.785Z"/>
    <g>
      <path class="cls-4" d="M22.3198,35.6949c.1157.187.187.4048.1982.5957.0166.2422-.061.5073-.1919.7437-.1621.2939-.3691.4951-.6948.5889-.3262.0942-.6943.0415-1.0249-.1411-.3413-.1885-.605-.4922-.7139-.8535-.082-.2852-.0645-.5903.1094-.9053.1943-.3516.4712-.4932.6802-.5493.4507-.1211.8745.0791,1.1055.2065l.063.0347-.8755,1.5854c.1631.0762.3794.1064.5503.0571.1875-.0537.29-.1895.3594-.3154.0781-.1416.105-.2637.084-.4121-.019-.127-.0703-.2446-.1284-.3384l.4795-.2969ZM21.1406,35.7081c-.1323-.0454-.269-.0459-.3857-.0078-.1011.0337-.2246.1089-.3174.2769-.0986.1787-.0889.3345-.0586.4404.0278.1113.1006.2271.1968.314l.5649-1.0234Z"/>
      <path class="cls-4" d="M20.8086,31.9108c.3213-.4043.5752-.6167.9321-.6704.2944-.042.5601.0391.8184.2446.1226.0972.2344.2168.2969.3892.0659.168.0522.3105.0293.4072.0586-.0454.2637-.1968.5469-.2251.313-.0269.5591.1074.752.2607.2256.1792.3594.3779.3994.6553.0649.4585-.2026.8823-.3936,1.1221l-.6245.7847-3.1343-2.4937.3774-.4746ZM22.1611,32.9791l.1157-.146c.0938-.1172.2065-.2881.188-.4868-.0171-.1904-.1519-.3203-.2598-.4067-.0938-.0747-.2178-.1504-.3906-.1265-.1895.0259-.3115.1514-.4199.2876l-.1309.1646.8975.7139ZM23.4956,34.0406l.2319-.2915c.1084-.1362.2568-.3711.2554-.5718-.0005-.1538-.0835-.3193-.2241-.4316-.127-.1011-.2866-.1509-.4302-.1348-.2314.0308-.3989.2124-.5337.3813l-.2393.3008.9399.7476Z"/>
      <path class="cls-4" d="M23.8555,28.5836c.3633-.3228.6367-.4849.9448-.5259.5229-.0713.8643.2593.98.3896.3823.4307.396.9795.0767,1.4238l2.0679.4502-.5518.4897-1.9438-.4639-.0811.0713,1.0874,1.2251-.4575.4062-2.6562-2.9927.5337-.4736ZM24.998,30.024l.1436-.1274c.1255-.1113.625-.5791.2026-1.0547-.374-.4214-.8091-.1074-1.0337.0918l-.1567.1392.8442.9512Z"/>
      <path class="cls-4" d="M28.9502,25.567l-1.3555.8442.5366.8613,1.3149-.8188.3047.4893-1.3149.8188.6665,1.0703,1.3555-.8442.3047.4893-1.8755,1.168-2.1167-3.3994,1.875-1.168.3047.4893Z"/>
      <path class="cls-4" d="M30.7051,24.0411l2.0674,2.1851.0098-3.0083.6143-.2432-.082,4.6196-3.2241-3.3101.6147-.2432Z"/>
      <path class="cls-4" d="M37.3984,22.671l-1.5669.3125.1987.9956,1.5195-.3032.1128.5654-1.5195.3032.2466,1.2368,1.5669-.3125.1128.5654-2.1675.4326-.7837-3.9287,2.1675-.4326.1128.5654Z"/>
      <path class="cls-4" d="M40.4126,22.4298l.1396,3.4238-.6118.0254-.1396-3.4243-.9175.0371-.0234-.5757,2.4468-.0996.0234.5757-.9175.0376Z"/>
      <path class="cls-4" d="M45.9443,22.2853c.5054.1064.8091.2378,1.0166.5332.1694.2441.2163.5176.1484.8408-.0322.1528-.0894.3066-.2153.4395-.1201.1343-.2539.1855-.3506.2085.0669.0322.2939.1475.4458.3882.1646.2676.1548.5479.104.7886-.0591.2822-.1768.4902-.4067.6509-.3804.2632-.8794.2134-1.1787.1504l-.9814-.2061.8247-3.9185.5933.1245ZM45.2446,25.6412l.3643.0767c.1704.0356.4468.063.6255-.0283.1372-.0688.248-.2173.2852-.3936.0332-.1587.0068-.3237-.0723-.4448-.1309-.1934-.3682-.2612-.5796-.3062l-.376-.0791-.2471,1.1753ZM45.5957,23.9728l.1821.0381c.1465.0312.3501.0557.5195-.0498.1621-.1011.2183-.2793.2466-.4146.0249-.1177.0366-.2622-.062-.4058-.1079-.1577-.2744-.2109-.4448-.2471l-.2056-.043-.2358,1.1221Z"/>
      <path class="cls-4" d="M50.6821,26.9669l-1.5742-.6611-.7764.7197-.6079-.2549,3.4717-3.1299.1079,4.6328-.6079-.2549-.0132-1.0518ZM50.6782,26.3414l-.0225-1.478-1.0933,1.0093,1.1157.4688Z"/>
      <path class="cls-4" d="M52.2573,28.8321l2.4878-3.4766.5918,4.167,1.6143-2.2559.498.3564-2.4736,3.457-.5918-4.167-1.6284,2.2754-.498-.3564Z"/>
      <path class="cls-4" d="M60.3877,33.6168c-.8911.769-2.1494.6885-2.9341-.2207-.7842-.9097-.6787-2.166.2129-2.9346.8911-.769,2.1494-.6885,2.9341.2207.7842.9097.6787,2.166-.2129,2.9346ZM59.9878,33.1534c.6729-.5806.7461-1.4521.1851-2.1025-.5605-.6504-1.4336-.7061-2.1064-.126-.6729.5806-.7461,1.4521-.1851,2.1025.5605.6504,1.4336.7061,2.1064.126Z"/>
      <path class="cls-4" d="M63.4214,34.8009c.2339.4263.3311.729.3022,1.0391-.0474.5254-.4458.7852-.5986.8687-.5054.2769-1.0439.168-1.4058-.2427l-.9004,1.917-.355-.6479.8867-1.7925-.0522-.0947-1.437.7871-.2939-.5371,3.5112-1.9233.3428.6265ZM61.7617,35.5939l.0923.1685c.0806.1475.4253.7388.9834.4331.4946-.271.2856-.7656.1411-1.0288l-.1006-.1841-1.1162.6113Z"/>
    </g>
    <g>
      <path class="cls-4" d="M19.2871,41.6027c-.0923.3398-.4258.5312-.7656.439-.3398-.0918-.5312-.4253-.439-.7651.0918-.3398.4253-.5312.7651-.4395.3398.0923.5312.4258.4395.7656Z"/>
      <path class="cls-4" d="M19.1885,46.3116c-.0176.4863-.0884.7959-.2715,1.0469-.3096.4277-.7847.4463-.9585.4404-.5757-.0205-.9829-.3887-1.084-.9268l-1.7534,1.1865.0264-.7383,1.6777-1.0869.0039-.1074-1.6372-.0586.022-.6113,4,.1416-.0254.7139ZM17.3569,46.1446l-.0068.1914c-.0059.168-.0122.8525.623.875.564.0205.6367-.5117.6475-.8115l.0078-.21-1.2715-.0449Z"/>
      <path class="cls-4" d="M16.5195,52.0089l-.248-1.6914-1.019-.293-.0957-.6533,4.4795,1.3564-3.916,2.4902-.0957-.6533.895-.5557ZM17.0537,51.6827l1.2554-.7842-1.4312-.415.1758,1.1992Z"/>
      <path class="cls-4" d="M16.2607,55.1749l3.9873-1.5322-1.7979,3.8018,2.5874-.9941.2192.5713-3.9648,1.5234,1.7979-3.8018-2.6094,1.0029-.2197-.5713Z"/>
      <path class="cls-4" d="M22.4854,59.1153c.3091.4639.5288.9014.5005,1.4541-.0352.6064-.3628,1.1641-.9165,1.5332s-1.186.459-1.7881.2266c-.5337-.207-.8213-.541-1.1309-1.0049l-.459-.6885,3.3281-2.2188.4658.6982ZM19.5098,60.8253l.1465.2197c.166.249.4155.5801.8232.7266.3276.1133.7964.125,1.2505-.1777.439-.293.6436-.7324.6587-1.0879.0166-.4287-.1997-.7969-.3623-1.041l-.1465-.2197-2.3701,1.5801Z"/>
      <path class="cls-4" d="M26.2983,66.4308c-.8018.8584-2.0586.9141-2.9346.0957-.876-.8174-.9062-2.0752-.105-2.9336.8018-.8584,2.0591-.9141,2.9346-.0967.876.8184.9062,2.0762.105,2.9346ZM25.8516,66.0138c.605-.6484.584-1.5205-.0425-2.1055s-1.498-.5469-2.1035.1016c-.605.6484-.5835,1.5205.0425,2.1055.6265.585,1.498.5459,2.1035-.1016Z"/>
      <path class="cls-4" d="M27.2178,69.4845l2.0425-3.7588,1.1011,4.0645,1.3252-2.4385.5386.292-2.0312,3.7383-1.1006-4.0654-1.3369,2.4609-.5386-.293Z"/>
      <path class="cls-4" d="M33.0029,72.2208l1.0542-4.1387,2.0635,3.6631.6836-2.6855.5928.1514-1.0479,4.1152-2.063-3.6631-.6899,2.709-.5933-.1514Z"/>
      <path class="cls-4" d="M41.0093,70.0665l-1.5947-.0938-.0596,1.0137,1.5474.0908-.0337.5752-1.5474-.0908-.0737,1.2598,1.5952.0938-.0337.5752-2.2065-.1289.2339-4,2.2065.1289-.0337.5762Z"/>
      <path class="cls-4" d="M42.7861,69.4191l.2695,2.3984c.0244.2148.0601.4766.2026.6719.1421.1895.4341.3682.7861.3281.3521-.0391.5972-.2783.6934-.4941.0962-.2227.0723-.4863.0483-.7002l-.27-2.3984.6084-.0693.2881,2.5596c.0356.3164.0132.7061-.2534,1.0742-.1836.25-.5088.5283-1.0518.5898-.543.0605-.9214-.1387-1.1558-.3418-.3418-.2998-.4507-.6738-.4863-.9902l-.2881-2.5596.6089-.0684Z"/>
      <path class="cls-4" d="M47.1851,68.6368c.4648-.1406.7803-.1738,1.0776-.082.5039.1533.6758.5967.7266.7627.167.5508-.0498,1.0557-.5259,1.3252l1.689,1.2725-.7056.2148-1.5708-1.2344-.103.0312.4751,1.5664-.5854.1777-1.1602-3.8271.6826-.207ZM47.6196,70.422l.1836-.0557c.1606-.0488.8096-.2646.6255-.8721-.1636-.54-.6899-.4365-.9771-.3496l-.2007.0605.3687,1.2168Z"/>
      <path class="cls-4" d="M51.7393,67.7726c-.0718-.0654-.1567-.1172-.272-.1475-.1582-.0371-.2954-.0176-.4521.0586-.335.1631-.4106.4473-.2979.6787.0527.1084.1821.2793.6016.249l.4331-.0303c.7954-.0527,1.1626.2363,1.3623.6465.333.6865.0752,1.3926-.5996,1.7207-.416.2021-.7407.166-1.0239.0498-.2993-.1211-.5015-.3174-.644-.5547l.4883-.3838c.0864.1777.2324.3135.374.3857.1655.0791.3589.0918.5752-.0127.335-.1631.4761-.5322.2998-.8936-.1782-.3672-.5327-.3818-.8174-.3643l-.4165.0225c-.3574.0205-.916-.0156-1.1782-.5557-.2363-.4863-.084-1.1348.5913-1.4629.3887-.1885.6812-.1504.8418-.1084.1392.0391.3022.1133.4517.2275l-.3174.4746Z"/>
      <path class="cls-4" d="M56.4136,64.545c-.0854-.0459-.1807-.0752-.2998-.0771-.1621.0029-.29.0566-.4233.168-.2847.2393-.2891.5332-.123.7305.0771.0918.2446.2256.6436.0938l.4121-.1348c.7578-.2451,1.1841-.0547,1.4775.2949.4902.583.4126,1.3301-.1611,1.8125-.354.2969-.6772.3418-.98.2988-.3198-.0449-.563-.1855-.7593-.3809l.3794-.4912c.1274.1514.3018.2471.4565.2822.1797.0371.3701.002.5542-.1523.2847-.2393.3315-.6309.0728-.9395-.2627-.3115-.6094-.2393-.8813-.1523l-.3979.123c-.3413.1064-.8911.208-1.2769-.251-.3477-.4141-.3579-1.0791.2158-1.5615.3311-.2783.6235-.3125.7896-.3105.144.0039.3203.0361.4927.1104l-.1914.5371Z"/>
      <path class="cls-4" d="M57.2202,62.5421l2.8491.9512-1.4072-2.6533.4263-.5039,2.1025,4.1064-4.397-1.3965.4263-.5039Z"/>
      <path class="cls-4" d="M61.147,58.0411l-.8198,1.3672.8687.5215.7954-1.3271.4937.2959-.7954,1.3271,1.0801.6475.8198-1.3682.4937.2959-1.1343,1.8926-3.4297-2.0557,1.1343-1.8926.4937.2959Z"/>
      <path class="cls-4" d="M61.3921,56.132c.1831-.4502.356-.7168.6143-.8896.437-.2949.8892-.1504,1.0503-.085.5332.2168.7891.7031.6987,1.2432l2.0527-.5117-.2778.6826-1.9473.4443-.041.1006,1.5166.6162-.2305.5664-3.7046-1.5059.2686-.6611ZM63.0532,56.9171l.0723-.1777c.0635-.1553.3042-.7949-.2847-1.0352-.522-.2119-.7729.2617-.8857.54l-.0791.1943,1.1772.4785Z"/>
      <path class="cls-4" d="M62.4087,53.1984l3.8472,1.0889-.167.5879-3.8467-1.0889.1665-.5879Z"/>
      <path class="cls-4" d="M64.9209,50.2394l.21-1.6367.0298.0039c.6782.0869,1.2056.3604,1.5312.7949.3457.4619.3906.9639.3325,1.416-.0742.5771-.2935.9668-.7148,1.2812-.4482.3359-1.0039.4697-1.5752.3965-.6187-.0791-1.1226-.3975-1.4077-.7666-.3018-.3838-.4819-.957-.4038-1.5703.0459-.3564.1709-.7158.3828-1.0029.2266-.3037.4844-.4766.6777-.5664l.2773.5254c-.1821.0977-.3833.2529-.5151.4297-.1587.2031-.231.4365-.2622.6807-.0664.5176.105.8779.2764,1.0996.228.2949.6299.5098,1.0586.5654.3984.0508.8164-.0469,1.1294-.2725.3267-.2363.4775-.5625.5264-.9434.0444-.3447-.0205-.6436-.2373-.9316-.186-.2471-.4067-.3662-.6299-.4189l-.1265.9873-.5596-.0713Z"/>
      <path class="cls-4" d="M63.6182,44.8585l.1016,1.5918,1.0107-.0645-.0981-1.5439.5742-.0361.0981,1.543,1.2563-.0801-.1016-1.5908.5742-.0371.1401,2.2012-3.9893.2549-.1406-2.2012.5742-.0371Z"/>
      <path class="cls-4" d="M63.0161,41.545c-.0928-.3394.0981-.6738.438-.7661.3398-.0928.6738.0981.7666.438.0928.3394-.0981.6738-.438.7661-.3398.0928-.6738-.0981-.7666-.438Z"/>
    </g>
    <g>
      <path class="cls-4" d="M61.0082,45.1035c-1.0793-9.1537-8.3322-16.4064-17.4861-17.4857v17.4857h17.4861Z"/>
      <path class="cls-4" d="M38.7977,27.6175c-9.1542,1.0789-16.4068,8.3318-17.4861,17.4859h17.4861v-17.4859Z"/>
      <path class="cls-4" d="M21.3116,49.8279c1.079,9.1545,8.3317,16.407,17.4861,17.486v-17.486h-17.4861Z"/>
      <path class="cls-4" d="M43.5221,67.3137c9.1541-1.0793,16.4071-8.3317,17.4861-17.4858h-17.4861v17.4858Z"/>
      <path class="cls-2" d="M61.0082,45.1035h-17.4861v-17.4857c-.7762-.0916-1.5619-.1518-2.3627-.1518s-1.5858.0602-2.3616.1516v17.4859h-17.4861c-.0915.7762-.1517,1.5618-.1517,2.3625s.0602,1.5859.1517,2.3619h17.4861v17.486c.7759.0914,1.5612.1516,2.3616.1516s1.5865-.0602,2.3627-.1518v-17.4858h17.4861c.0915-.7759.1517-1.5613.1517-2.3619s-.0602-1.5864-.1517-2.3625Z"/>
    </g>
  </g>
  <path class="cls-4" d="M651.9685,75.7201H54.3296c-1.1624.5442-2.363,1.0187-3.5977,1.4181h601.2366v-1.4181Z"/>
  <path class="cls-4" d="M31.5869,77.1382c-1.2347-.3994-2.4355-.8739-3.5979-1.418H0v1.418h31.5869Z"/>
  <path class="cls-4" d="M92.8521,47.8497c-.3872-.7744-1.0317-1.6348-1.6768-2.1504-.5591-.4297-1.5913-.9893-3.2251-.9893-2.8379,0-4.8159,1.7637-4.8159,4.4287,0,1.1182.3008,1.7637,1.0747,2.4941.8604.8604,1.9351,1.333,3.0103,1.8066l2.752,1.2031c1.6768.7314,3.2251,1.5059,4.4287,2.709,1.4619,1.4619,2.064,3.1396,2.064,5.2031,0,5.2891-3.9126,8.8154-9.0728,8.8154-1.8921,0-4.2568-.3877-6.2349-2.3223-1.4189-1.376-2.2788-3.3545-2.666-5.0742l3.0962-.8594c.2148,1.5049.9028,2.7949,1.7197,3.6543,1.2471,1.2471,2.666,1.5908,4.1279,1.5908,3.9131,0,5.7622-2.7949,5.7622-5.6758,0-1.29-.3872-2.4072-1.4194-3.3535-.8169-.7744-1.9346-1.29-3.4399-1.9785l-2.5796-1.2031c-1.1182-.5166-2.5371-1.1182-3.8271-2.3652-1.2471-1.2041-1.978-2.5371-1.978-4.6875,0-4.4287,3.397-7.395,8.041-7.395,1.7627,0,3.1821.3438,4.6011,1.29,1.1606.7739,2.1499,1.9341,2.7949,3.1812l-2.5371,1.6777Z"/>
  <path class="cls-4" d="M108.7876,55.8468v15.0068h-3.0962v-15.0068h-1.8916v-2.8379h1.8916v-6.4492h3.0962v6.4492h3.0957v2.8379h-3.0957Z"/>
  <path class="cls-4" d="M132.4927,53.0089h3.0962v17.8447h-3.0962v-2.4941c-1.0317,1.333-2.9668,3.0107-6.106,3.0107-4.5146,0-8.6855-3.1826-8.6855-9.46,0-6.1494,4.1279-9.3311,8.6855-9.3311,3.4399,0,5.2891,1.8916,6.106,2.9668v-2.5371ZM120.8828,61.9103c0,3.8271,2.1499,6.708,5.8481,6.708,3.7837,0,5.9336-3.1396,5.9336-6.665,0-4.6016-3.1816-6.6221-5.9336-6.6221-3.0532,0-5.8481,2.2363-5.8481,6.5791Z"/>
  <path class="cls-4" d="M145.2593,53.0089h3.0962v1.9355c.3008-.4736,1.6338-2.3652,4.042-2.3652.9458,0,1.9775.3438,2.752.7305l-1.4619,2.7959c-.6885-.4736-1.333-.6025-1.8062-.6025-1.2471,0-2.021.5156-2.4941,1.1182-.5161.6875-1.0317,1.8916-1.0317,4.8154v9.417h-3.0962v-17.8447Z"/>
  <path class="cls-4" d="M166.4019,55.8468v15.0068h-3.0962v-15.0068h-1.8916v-2.8379h1.8916v-6.4492h3.0962v6.4492h3.0957v2.8379h-3.0957Z"/>
  <path class="cls-4" d="M182.6437,39.5074v31.3462h-3.0962v-31.3462h3.0962Z"/>
  <path class="cls-4" d="M196.6703,44.0655c1.2041,0,2.1934.9883,2.1934,2.1924s-.9893,2.1934-2.1934,2.1934-2.1929-.9893-2.1929-2.1934.9893-2.1924,2.1929-2.1924ZM198.2186,53.0089v17.8447h-3.0962v-17.8447h3.0962Z"/>
  <path class="cls-4" d="M215.057,57.1368c-.4302-1.0312-1.333-1.8057-2.4941-1.8057-1.1177,0-2.1499.6445-2.1499,2.0205,0,1.29.8599,1.6777,2.8809,2.5371,2.5801,1.0752,3.7842,1.8926,4.4722,2.752.7739.9463.9458,1.8926.9458,2.8809,0,3.7412-2.709,5.8486-6.1489,5.8486-.731,0-4.73-.0859-6.2349-4.5586l2.666-1.1182c.3442.9463,1.376,2.9248,3.6118,2.9248,2.021,0,2.9243-1.5049,2.9243-2.8379,0-1.6777-1.2041-2.2363-2.8813-2.9678-2.1499-.9453-3.5259-1.6338-4.3428-2.623-.688-.8594-.8169-1.7197-.8169-2.6221,0-3.1396,2.1929-4.9883,5.2026-4.9883.9463,0,3.4834.1719,4.9023,3.2246l-2.5371,1.333Z"/>
  <path class="cls-4" d="M230.0252,55.8468v15.0068h-3.0962v-15.0068h-1.8916v-2.8379h1.8916v-6.4492h3.0962v6.4492h3.0957v2.8379h-3.0957Z"/>
  <path class="cls-4" d="M253.7303,53.0089h3.0962v17.8447h-3.0962v-2.4941c-1.0317,1.333-2.9668,3.0107-6.106,3.0107-4.5146,0-8.6855-3.1826-8.6855-9.46,0-6.1494,4.1279-9.3311,8.6855-9.3311,3.4399,0,5.2891,1.8916,6.106,2.9668v-2.5371ZM242.1205,61.9103c0,3.8271,2.1499,6.708,5.8481,6.708,3.7837,0,5.9336-3.1396,5.9336-6.665,0-4.6016-3.1816-6.6221-5.9336-6.6221-3.0532,0-5.8481,2.2363-5.8481,6.5791Z"/>
</svg>