<?xml version="1.0" encoding="UTF-8"?>
<svg id="Lager_1" xmlns="http://www.w3.org/2000/svg" width="242.434mm" height="40.5mm" xmlns:xlink="http://www.w3.org/1999/xlink" viewBox="0 0 687.2145 114.8031">
  <defs>
    <style>
      .cls-1 {
        fill: url(#Namnlös_övertoning_3);
      }

      .cls-2 {
        fill: url(#Namnlös_övertoning_59);
      }
    </style>
    <linearGradient id="Namnlös_övertoning_59" data-name="Namnlös övertoning 59" x1="403.515" y1="36.0521" x2="403.515" y2="90.5765" gradientUnits="userSpaceOnUse">
      <stop offset="0" stop-color="#d43742"/>
      <stop offset=".1577" stop-color="#db5c40"/>
      <stop offset=".3221" stop-color="#e27b3f"/>
      <stop offset=".4608" stop-color="#e68f3e"/>
      <stop offset=".5562" stop-color="#e8963e"/>
      <stop offset=".5848" stop-color="#df9543"/>
      <stop offset=".6315" stop-color="#c69452"/>
      <stop offset=".6904" stop-color="#9e936b"/>
      <stop offset=".7593" stop-color="#67918d"/>
      <stop offset=".8357" stop-color="#228fb7"/>
      <stop offset=".8705" stop-color="#008ecd"/>
      <stop offset=".8944" stop-color="#0486c3"/>
      <stop offset=".9344" stop-color="#1072a9"/>
      <stop offset=".9852" stop-color="#245180"/>
      <stop offset="1" stop-color="#2b4773"/>
    </linearGradient>
    <radialGradient id="Namnlös_övertoning_3" data-name="Namnlös övertoning 3" cx="57.9083" cy="56.9962" fx="57.9083" fy="56.9962" r="56.9592" gradientUnits="userSpaceOnUse">
      <stop offset=".3816" stop-color="#fca041"/>
      <stop offset=".5023" stop-color="#f8943d"/>
      <stop offset=".6639" stop-color="#f6893a"/>
      <stop offset=".7797" stop-color="#ed682f"/>
      <stop offset=".8833" stop-color="#e85227"/>
      <stop offset=".9494" stop-color="#e64a25"/>
    </radialGradient>
  </defs>
  <path class="cls-2" d="M133.3891,62.9398l8.9648,10.7617,8.9648-10.7617h4.707v27.2852h-5.2734v-19.1602h-.1562l-7.8906,9.6094h-.7422l-7.8906-9.6094h-.1562v19.1602h-5.2734v-27.2852h4.7461ZM166.6117,62.9398v27.2852h-5.2734v-27.2852h5.2734ZM183.351,62.9398c2.8389,0,5.3643.5796,7.5781,1.7383,2.2139,1.1592,3.9326,2.7866,5.1562,4.8828,1.2236,2.0967,1.8359,4.4531,1.8359,7.0703,0,2.6694-.6152,5.0361-1.8457,7.0996-1.2305,2.064-2.9785,3.6621-5.2441,4.7949s-4.8633,1.6992-7.793,1.6992h-11.1133v-27.2852h11.4258ZM182.8041,86.1039c2.917,0,5.2568-.8755,7.0215-2.627,1.7646-1.751,2.6465-4.0459,2.6465-6.8848,0-2.9424-.8887-5.2666-2.666-6.9727-1.7773-1.7056-4.1699-2.5586-7.1777-2.5586h-5.4297v19.043h5.6055ZM206.4633,62.9398l16.2109,19.043v-19.043h5.1562v27.2852h-4.5312l-16.3086-19.3555v19.3555h-5.1562v-27.2852h4.6289ZM238.4213,62.9398v27.2852h-5.2734v-27.2852h5.2734ZM257.7787,62.5882c3.3594,0,6.6924.749,10,2.2461v4.8242c-3.3076-1.6797-6.5625-2.5195-9.7656-2.5195-1.9922,0-3.7627.3975-5.3125,1.1914-1.5498.7944-2.751,1.937-3.6035,3.4277-.8525,1.4912-1.2793,3.1543-1.2793,4.9902,0,2.7866.9277,5.0293,2.7832,6.7285s4.2998,2.5488,7.334,2.5488c.833,0,1.6309-.0713,2.3926-.2148.7617-.1431,1.6699-.4165,2.7246-.8203v-4.5312h-4.5117v-4.1211h9.7852v11.25c-1.3408.9375-2.9521,1.6699-4.834,2.1973s-3.8379.791-5.8691.791c-2.8779,0-5.4854-.5923-7.8223-1.7773-2.3369-1.1846-4.1602-2.8447-5.4688-4.9805-1.3086-2.1353-1.9629-4.5181-1.9629-7.1484,0-2.6689.6611-5.0845,1.9824-7.2461,1.3213-2.1611,3.1641-3.8408,5.5273-5.0391,2.3633-1.1978,4.9971-1.7969,7.9004-1.7969ZM278.5043,62.9398v11.4844h14.1602v-11.4844h5.2734v27.2852h-5.2734v-11.5234h-14.1602v11.5234h-5.2734v-27.2852h5.2734ZM325.1381,62.9398v4.1211h-9.6875v23.1641h-5.2734v-23.1641h-9.6875v-4.1211h24.6484ZM346.1654,62.5882c2.6562,0,5.2148.6641,7.6758,1.9922v4.6875c-2.8252-1.7056-5.332-2.5586-7.5195-2.5586-1.3281,0-2.3662.2573-3.1152.7715-.749.5146-1.123,1.2012-1.123,2.0605,0,1.0288.6963,1.9795,2.0898,2.8516.3906.2607,1.8945.9897,4.5117,2.1875,2.2393,1.0547,3.8545,2.2266,4.8438,3.5156s1.4844,2.8389,1.4844,4.6484c0,2.3438-.8428,4.2354-2.5293,5.6738-1.6865,1.439-3.8701,2.1582-6.5527,2.1582-1.7451,0-3.2451-.1924-4.502-.5762s-2.666-1.0449-4.2285-1.9824v-5.1953c2.917,2.4219,5.6641,3.6328,8.2422,3.6328,1.2891,0,2.3311-.2798,3.125-.8398.7939-.5596,1.1914-1.3018,1.1914-2.2266,0-1.2627-.6904-2.2915-2.0703-3.0859-1.1455-.625-2.624-1.3735-4.4336-2.2461-2.1484-.9766-3.7529-2.1157-4.8145-3.418-1.0615-1.3018-1.5918-2.8125-1.5918-4.5312,0-2.2915.8525-4.1177,2.5586-5.4785,1.7061-1.3604,3.958-2.041,6.7578-2.041ZM363.7123,62.9398v15.8789c0,1.6279.2441,2.9233.7324,3.8867.4883.9639,1.2861,1.7578,2.3926,2.3828s2.3955.9375,3.8672.9375c1.6143,0,2.9854-.2959,4.1113-.8887,1.126-.5923,1.9502-1.3994,2.4707-2.4219.5205-1.022.7812-2.438.7812-4.248v-15.5273h5.2734v16.2109c0,3.6719-1.1006,6.4941-3.3008,8.4668s-5.3125,2.959-9.3359,2.959c-2.5264,0-4.7168-.4492-6.5723-1.3477s-3.2715-2.1973-4.248-3.8965-1.4648-3.6943-1.4648-5.9863v-16.4062h5.293ZM393.0307,62.9398l16.2109,19.043v-19.043h5.1562v27.2852h-4.5312l-16.3086-19.3555v19.3555h-5.1562v-27.2852h4.6289ZM439.3314,62.9398c2.5654,0,4.6553.71,6.2695,2.1289,1.6143,1.4194,2.4219,3.2686,2.4219,5.5469,0,1.5498-.4004,2.9004-1.2012,4.0527s-1.9893,2.0605-3.5645,2.7246c.8721.4688,1.6475,1.1069,2.3242,1.9141.6768.8076,1.5166,2.168,2.5195,4.082,1.667,3.3076,2.9033,5.5859,3.7109,6.8359h-5.8789c-.4033-.5986-.9502-1.5557-1.6406-2.8711-1.5107-2.9033-2.6172-4.8599-3.3203-5.8691-.7031-1.0088-1.3799-1.7251-2.0312-2.1484-.6514-.4229-1.3994-.6348-2.2461-.6348h-1.9141v11.5234h-5.2734v-27.2852h9.8242ZM438.14,74.5804c1.3799,0,2.4639-.3447,3.252-1.0352.7881-.6899,1.1816-1.6338,1.1816-2.832,0-1.25-.3906-2.1841-1.1719-2.8027-.7812-.6182-1.8945-.9277-3.3398-.9277h-3.2812v7.5977h3.3594ZM469.4047,62.9398l12.0508,27.2852h-5.5664l-2.832-6.6406h-12.1289l-2.6367,6.6406h-5.5273l11.25-27.2852h5.3906ZM462.5297,79.5804h8.8086l-4.6094-10.8008-4.1992,10.8008ZM488.2563,62.9398l16.2109,19.043v-19.043h5.1562v27.2852h-4.5312l-16.3086-19.3555v19.3555h-5.1562v-27.2852h4.6289ZM526.3129,62.9398c2.8389,0,5.3643.5796,7.5781,1.7383,2.2139,1.1592,3.9326,2.7866,5.1562,4.8828,1.2236,2.0967,1.8359,4.4531,1.8359,7.0703,0,2.6694-.6152,5.0361-1.8457,7.0996-1.2305,2.064-2.9785,3.6621-5.2441,4.7949s-4.8633,1.6992-7.793,1.6992h-11.1133v-27.2852h11.4258ZM525.766,86.1039c2.917,0,5.2568-.8755,7.0215-2.627,1.7646-1.751,2.6465-4.0459,2.6465-6.8848,0-2.9424-.8887-5.2666-2.666-6.9727-1.7773-1.7056-4.1699-2.5586-7.1777-2.5586h-5.4297v19.043h5.6055ZM558.4457,62.5882c2.8252,0,5.3682.583,7.627,1.748,2.2588,1.1655,4.0596,2.8452,5.4004,5.0391,1.3408,2.1943,2.0117,4.5996,2.0117,7.2168,0,2.5522-.6543,4.9189-1.9629,7.0996-1.3086,2.1812-3.1055,3.874-5.3906,5.0781-2.2852,1.2046-4.8604,1.8066-7.7246,1.8066-2.8252,0-5.3936-.6118-7.7051-1.8359-2.3115-1.2236-4.1113-2.9067-5.4004-5.0488-1.2891-2.1416-1.9336-4.5083-1.9336-7.0996,0-2.5.6445-4.8501,1.9336-7.0508,1.2891-2.2002,3.0664-3.9092,5.332-5.127,2.2656-1.2173,4.8701-1.8262,7.8125-1.8262ZM548.8168,76.5921c0,1.8101.4102,3.4375,1.2305,4.8828s1.9629,2.5654,3.4277,3.3594c1.4648.7944,3.1221,1.1914,4.9707,1.1914,2.7998,0,5.1006-.8789,6.9043-2.6367s2.7051-4.0234,2.7051-6.7969c0-1.8096-.4072-3.4404-1.2207-4.8926-.8135-1.4517-1.96-2.5747-3.4375-3.3691-1.4775-.7939-3.1416-1.1914-4.9902-1.1914s-3.5127.4004-4.9902,1.2012-2.6143,1.9209-3.4082,3.3594c-.7939,1.439-1.1914,3.0698-1.1914,4.8926ZM582.0229,62.9398l16.2109,19.043v-19.043h5.1562v27.2852h-4.5312l-16.3086-19.3555v19.3555h-5.1562v-27.2852h4.6289ZM613.2836,62.9398l16.2109,19.043v-19.043h5.1562v27.2852h-4.5312l-16.3086-19.3555v19.3555h-5.1562v-27.2852h4.6289ZM657.5512,62.9398v4.1211h-12.3633v7.168h11.8359v4.1211h-11.8359v7.7539h12.6367v4.1211h-17.9102v-27.2852h17.6367ZM655.1098,54.3461l-7.3633,6.7188h-2.9688l3.7305-6.7188h6.6016ZM679.6596,62.9398v4.1211h-12.3633v7.168h11.8359v4.1211h-11.8359v7.7539h12.6367v4.1211h-17.9102v-27.2852h17.6367ZM127.0971,36.2894h2.6367v18.4175h-2.6367v-18.4175ZM137.5629,36.2894h8.1738v2.3467h-5.7734v4.6538c.1836-.0176.373-.0264.5664-.0264,1.7842,0,3.252.543,4.4033,1.6279,1.1514,1.0859,1.7275,2.4678,1.7275,4.1465,0,1.7314-.5693,3.1401-1.708,4.2256-1.1377,1.0854-2.6123,1.6279-4.4229,1.6279-1.4941,0-2.9443-.3604-4.3506-1.0811v-2.7158c1.3271.8613,2.624,1.292,3.8896,1.292,1.1074,0,2.0361-.3232,2.7881-.9688.751-.6465,1.127-1.4395,1.127-2.3799,0-.9756-.4092-1.7905-1.2256-2.4453-.8184-.6548-1.8379-.9824-3.0586-.9824-1.0469,0-1.7588.0879-2.1367.2637v-9.5845ZM156.2416,47.4427h6.5654v2.5708h-6.5654v-2.5708ZM176.1723,36.2894h2.6367v18.4175h-2.6367v-18.4175ZM188.7904,54.9178l-1.6211-1.9116c1.3623-.8613,2.5527-1.9048,3.5723-3.1313,1.0195-1.2256,1.7012-2.4849,2.0439-3.7769-.835.5186-1.8154.7778-2.9404.7778-1.4062,0-2.6123-.5229-3.6182-1.5688-1.0068-1.0459-1.5098-2.3027-1.5098-3.7705,0-1.5293.5361-2.8257,1.6084-3.8892s2.3818-1.5952,3.9287-1.5952c1.7402,0,3.1641.6284,4.2715,1.8853s1.6611,2.8696,1.6611,4.8384c0,2.2324-.6943,4.4888-2.083,6.77-1.3887,2.2803-3.1602,4.0713-5.3135,5.3721ZM193.3002,43.4745c.1055-.7031.1582-1.1602.1582-1.3711,0-1.0635-.2969-1.9336-.8906-2.6104-.5928-.6768-1.3555-1.0151-2.2871-1.0151-.8525,0-1.5576.2881-2.1162.8638-.5576.5757-.8369,1.2983-.8369,2.1685,0,.7998.3027,1.4897.9102,2.0698.6055.5801,1.3311.8701,2.1748.8701.9844,0,1.9463-.3252,2.8877-.9756ZM209.5004,36.2894h2.6367v18.1802c0,1.6963-.1738,2.9507-.5205,3.7637-.3477.813-.9082,1.4639-1.6807,1.9512-.7744.4883-1.7061.7319-2.7949.7319-.167,0-.4531-.0264-.8574-.0791l-.4883-2.4521h.6729c.7559,0,1.334-.0923,1.7334-.2769.4004-.1846.7168-.5098.9492-.9756.2334-.4658.3496-1.4546.3496-2.9663v-17.877ZM230.6957,36.2894h2.6494v10.4546c0,1.415-.1025,2.4829-.3096,3.2036-.2061.7207-.4609,1.3208-.7646,1.7993-.3027.4795-.6748.9077-1.1133,1.2856-1.46,1.2568-3.3672,1.8853-5.7227,1.8853-2.3984,0-4.3242-.624-5.7734-1.8721-.4404-.3867-.8115-.8193-1.1143-1.2988-.3037-.4785-.5537-1.0654-.752-1.7598-.1973-.6943-.2959-1.7842-.2959-3.2695v-10.4282h2.6494v10.4546c0,1.7314.1982,2.9355.5928,3.6123.3965.6768.998,1.2197,1.8066,1.6279.8086.4092,1.7617.6133,2.8613.6133,1.5635,0,2.8379-.4087,3.8223-1.2261.5186-.4395.8926-.958,1.1211-1.5557s.3428-1.6216.3428-3.0718v-10.4546ZM253.2758,36.2894h2.5049v18.4175h-2.2676l-12.3135-14.1841v14.1841h-2.4785v-18.4175h2.1357l12.4189,14.3047v-14.3047ZM261.307,36.2894h10.4414v2.3467h-7.8047v5.6162h7.541v2.3599h-7.541v5.7217h8.0557v2.3467h-10.6924v-18.3911ZM288.5453,52.1625h7.0107v2.5444h-11.6543v-.1846l1.1074-1.3052c1.7314-2.1445,3.1094-3.9639,4.1328-5.458,1.0244-1.4941,1.6924-2.6235,2.0039-3.3882.3125-.7646.4678-1.5205.4678-2.2676,0-1.0371-.2939-1.8696-.8828-2.498s-1.3711-.9429-2.3467-.9429c-.7383,0-1.4658.2173-2.1816.6528-.7168.4346-1.3604,1.0479-1.9316,1.8389v-3.3486c1.4326-1.1689,2.9092-1.7534,4.4297-1.7534,1.6084,0,2.9336.5361,3.9746,1.6084,1.042,1.0728,1.5625,2.4351,1.5625,4.0874,0,.7388-.1299,1.5273-.3887,2.3672-.2588.8394-.7188,1.8062-1.377,2.9004-.6592,1.0942-1.7793,2.5864-3.3604,4.4761l-.5664.6709ZM304.6332,36.0521c1.6875,0,3.083.8857,4.1855,2.6567,1.1035,1.771,1.6543,4.0186,1.6543,6.7432,0,2.7949-.5508,5.0669-1.6543,6.8159-1.1025,1.749-2.5332,2.6235-4.291,2.6235-1.7842,0-3.2168-.8569-4.2979-2.5708s-1.6221-3.9858-1.6221-6.8159c0-2.7949.5586-5.0693,1.6748-6.8223,1.1162-1.7539,2.5664-2.6304,4.3506-2.6304ZM304.6596,38.557h-.1318c-1.0107,0-1.8125.6221-2.4062,1.8657-.5928,1.2437-.8896,2.9287-.8896,5.0557,0,2.1797.29,3.8892.8701,5.1284s1.3799,1.8589,2.3994,1.8589,1.8232-.6196,2.4131-1.8589c.5879-1.2393.8828-2.9224.8828-5.0493,0-2.1357-.2832-3.8364-.8506-5.1021-.5664-1.2656-1.3291-1.8984-2.2871-1.8984ZM317.9809,52.1625h7.0107v2.5444h-11.6543v-.1846l1.1074-1.3052c1.7314-2.1445,3.1094-3.9639,4.1328-5.458,1.0244-1.4941,1.6924-2.6235,2.0039-3.3882.3125-.7646.4678-1.5205.4678-2.2676,0-1.0371-.2939-1.8696-.8828-2.498s-1.3711-.9429-2.3467-.9429c-.7383,0-1.4658.2173-2.1816.6528-.7168.4346-1.3604,1.0479-1.9316,1.8389v-3.3486c1.4326-1.1689,2.9092-1.7534,4.4297-1.7534,1.6084,0,2.9336.5361,3.9746,1.6084,1.042,1.0728,1.5625,2.4351,1.5625,4.0874,0,.7388-.1299,1.5273-.3887,2.3672-.2588.8394-.7188,1.8062-1.377,2.9004-.6592,1.0942-1.7793,2.5864-3.3604,4.4761l-.5664.6709ZM329.933,36.2894h8.1738v2.3467h-5.7734v4.6538c.1836-.0176.373-.0264.5664-.0264,1.7842,0,3.252.543,4.4033,1.6279,1.1514,1.0859,1.7275,2.4678,1.7275,4.1465,0,1.7314-.5693,3.1401-1.708,4.2256-1.1377,1.0854-2.6123,1.6279-4.4229,1.6279-1.4941,0-2.9443-.3604-4.3506-1.0811v-2.7158c1.3271.8613,2.624,1.292,3.8896,1.292,1.1074,0,2.0361-.3232,2.7881-.9688.751-.6465,1.127-1.4395,1.127-2.3799,0-.9756-.4092-1.7905-1.2256-2.4453-.8184-.6548-1.8379-.9824-3.0586-.9824-1.0469,0-1.7588.0879-2.1367.2637v-9.5845Z"/>
  <path class="cls-1" d="M84.8922,52.8406c-5.2619-3.0937-10.7946-5.6188-16.4958-7.7816-.5718-.2169-.6646-.4555-.512-1.035.548-2.081,1.0548-4.1741,1.5147-6.2763.1461-.6679.3645-.8134,1.0316-.6268,5.6478,1.5795,11.3732,2.7758,17.2133,3.3917.7248.0765.7196.1253.6927,1.0983-.4087,3.5684-1.3325,7.2838-2.5396,10.9385-.2041.6178-.4582.5539-.9049.2913ZM87.8123,54.6268c2.4913,1.5709,4.86,3.3131,7.3133,5.3951.022-6.46-.9622-12.5197-2.7431-18.4667-.2182-.7288-.5947-.8978-1.3012-.9214-.8656-.0289-.8513.5255-.9202,1.0757-.5012,4.0068-1.4634,7.9067-2.8143,11.7053-.2386.6706-.0237.9036.4655,1.2121ZM83.9152,54.2689c-4.9972-2.8989-10.2152-5.3222-15.5822-7.4454-.7536-.2981-1.081-.3299-1.3234.6152-2.3386,9.1159-4.9636,18.151-7.8734,27.1015-.2288.7038-.0951.9693.5557,1.2619,2.3099,1.0386,4.5337,2.2475,6.65,3.6424.6201.4087,1.3149.4629,1.6608.5119,1.0589.181,1.3194-.4297,1.6764-.8124,6.363-6.821,11.3159-14.544,14.8735-23.1698.3751-.9094.1506-1.2483-.6373-1.7053ZM52.5089,96.3668c1.918.1138,3.8316.3013,5.7572.3095,5.7264.0014,11.2781-.9752,16.6738-2.901.8547-.305,1.0417-.6306.7402-1.5099-1.2029-3.5069-3.6421-6.0528-6.3173-8.4511-.7004-.6279-1.1073-.7658-1.9049-.0019-4.3796,4.1943-9.2813,7.6744-14.7413,10.3466-.3734.1828-.732.3459-.953.7714-.4584.8824-.5683,1.3586.7455,1.4365ZM92.2842,27.38c-1.0998-1.7375-2.676-3.022-4.2822-4.4401.1301,2.8506,2.368,3.4829,4.2822,4.4401ZM67.6326,20.1136c-1.6068,3.7385-3.0394,7.5424-4.4359,11.362-.1971.5389-.1999.829.4315,1.0113,1.1676.337,2.3205.7286,3.4672,1.1324.5018.1766.7535.1327.8836-.4584.9045-4.1123,1.7739-8.2307,2.4993-12.9094.0158-.6259-1.0264-.3432-1.5803-.6596-.6096-.3482-.9668-.1727-1.2653.5217ZM50.9245,90.8548c.7779-2.7813,1.9544-5.4505,2.9383-8.1754.365-1.0107,1.179-2.2375.878-3.0128-.3593-.9253-1.9368-.8218-2.9781-1.1791-2.0711-.7109-2.103-.6829-2.5741,1.4476-1.0582,4.7864-2.1051,9.5757-2.777,14.5423,2.4119-.2665,3.8582-1.2819,4.5128-3.6225ZM69.3092,17.7461c1.2232.6072,1.4795.487,1.6175-.8612.0842-.8227.235-1.6472.0283-2.7731-1.0349.9699-1.4048,2.0714-1.9564,3.0543-.2074.3696.0332.4422.3106.5799ZM71.306,34.877c4.711,1.259,9.4602,2.3227,14.2919,3.0046q3.1261.4413,3.0191-3.2282c.2386-1.6591-.431-3.5559-1.6581-5.3059-.5906-.8422-1.1427-1.7145-1.6634-2.6018-.4716-.8034-1.1316-1.3109-1.9826-1.6852-3.0437-1.339-6.1258-2.5762-9.237-3.7503-1.0225-.3858-1.4186-.3151-1.5771.8802-.4982,3.759-1.2447,7.4797-2.1291,11.1658-.2381.9922.0475,1.2834.9363,1.5209ZM73.4287,19.0982c2.5672.9382,5.1268,1.8971,7.6889,2.8491-2.1591-2.7324-4.7409-4.8988-7.8446-6.7581-.0846,1.1873-.1552,2.1563-.2219,3.1256-.0226.3292-.0448.6291.3775.7834ZM84.084,21.469c-.2045-1.4722-1.2621-2.4804-2.5079-2.486,1.0058.6214,1.6202,1.6066,2.5079,2.486ZM43.2144,26.7927c-3.47,3.1648-6.6167,6.6159-9.6186,10.6287,8.2365.4157,16.0087,1.8438,23.652,3.9867.7709.2161.8734-.1663,1.0417-.6878.6322-1.9599,1.2397-3.9293,1.9388-5.8655.2547-.7053.1184-.9674-.5695-1.2196-5.2432-1.922-10.3587-4.1333-15.2153-6.9063-.4635-.2647-.7836-.3425-1.2291.0637ZM55.9274,76.6117c.1995-.414.0134-.6191-.3407-.7434-1.5017-.527-3.0079-1.0408-4.5096-1.5679-.42-.1474-.5843.0243-.6844.4208-.0859.3401-.2002.6595.2399.8039,1.5565.5105,3.1177,1.0066,4.6771,1.5082.3716.0889.4841-.1445.6177-.4216ZM64.8474,46.0648c.1457-.5533-.3033-.6147-.637-.7273-1.3754-.4643-2.7686-.8783-4.1334-1.371-.7328-.2645-1.0522-.0972-1.2878.6646-2.7656,8.9429-5.309,17.9476-7.6455,27.0117-.1962.7611.1149.9749.7411,1.1663,1.2083.3693,2.4323.7232,3.583,1.2337.9219.4091,1.2473.1973,1.5313-.7324,2.0507-6.7129,4.1064-13.4239,5.9359-20.2016.634-2.3488,1.2765-4.6953,1.9124-7.0439ZM53.0702,91.8683c4.0776-1.8377,10.8857-6.7532,13.3823-9.6271-2.8881-.6728-5.7393-1.3319-8.5873-2.004-.7284-.1719-.7124.4023-.8611.8126-.923,2.5465-1.8402,5.095-2.7633,7.6415-.3663,1.0104-.7428,2.0171-1.1705,3.177ZM48.7864,74.3122c.0655-.3406.1292-.6729-.3368-.7575-1.7023-.3091-3.3511-.9674-5.1663-.6941,1.553.5833,3.1052,1.1686,4.6595,1.7483.3556.1327.7294.2972.8436-.2967ZM65.5454,43.281c.5148-2.1375,1.056-4.2686,1.6618-6.7011.068-.2147-.1117-.4453-.6433-.5942-1.2166-.3406-2.4314-.7112-3.603-1.1794-.6729-.2689-.9251-.0696-1.1198.5296-.6504,2.001-1.3032,4.0017-1.991,5.9901-.2042.5903-.0432.8225.5382.9941,1.4364.4239,2.865.8813,4.2725,1.3921.5336.1936.7517.1206.8846-.431ZM92.9111,36.1137c.9245,2.5145.9907,2.4906,3.616,1.8078.1355-.0353.2672-.0852.4005-.1289,1.9201-.629,2.2304-1.4368,1.0123-3.0756-2.1061-2.8333-5.1159-4.5196-8.3601-6.5019.7925,3.1135,2.398,5.3603,3.3313,7.8986ZM39.2827,23.3452c-.598-.6271-.9337-.4172-1.3777.2059-2.1624,3.0342-3.9128,6.2835-5.2326,9.7639-.1881.4959-.5509.9593-.462,1.5457.4732.003.5801-.3675.7726-.6101,2.0466-2.5784,4.2506-5.0132,6.6113-7.3078.6319-.6142,1.778-1.2971,1.7302-1.8685-.0667-.7974-1.4023-1.0586-2.0418-1.7292ZM65.1918,18.4652c-1.911-.461-3.8106-.9707-5.7068-1.4902-.625-.1712-1.1725-.0916-1.7597.1707-4.3052,1.9232-8.2273,4.4496-12.0445,7.5519,4.8877,2.7581,9.8958,4.8218,14.9658,6.7526.8105.3087.8159-.3135.9874-.7645,1.3955-3.6706,2.7555-7.3552,4.2077-11.0033.3344-.8398.1001-1.0364-.6499-1.2173ZM32.0166,39.5841c-.9383,1.4906-2.1188,2.8244-2.3543,4.7048-.4025,3.2141-.7219,6.4287-.7234,9.6692-.0024,3.8548.3853,7.675,1.0552,11.4677.0791.4477.0643,1.0057.5413,1.2395,2.6283,1.2882,4.9517,3.324,8.0087,3.5756,3.2829.2702,6.5309.7204,9.7066,1.5713.9599.2572,1.1802-.0774,1.3766-.864,2.2356-8.9519,4.7756-17.8187,7.5436-26.6197.2669-.8486.1881-1.1756-.7468-1.4259-7.592-2.0324-15.2837-3.4094-23.1511-3.7077-.4595-.0174-.9397-.1141-1.2565.3893ZM64.5592,16.3335q2.4916.6781,3.7079-2.0327c-2.1295.2873-4.1114.496-6.2473,1.3374,1.0256.2809,1.7822.4893,2.5394.6953ZM47.0505,76.8705c-3.3129-1.1867-6.6216-2.4146-9.7386-4.0383-1.8385-.9578-3.6171-1.1113-5.6515-.6258,2.5706,8.2006,6.5226,15.564,12.7535,21.6603.1364-.1939.2183-.2594.2316-.3365.8989-5.2221,1.9736-10.4079,3.2619-15.5476.211-.8417-.3225-.9205-.857-1.112ZM50.3314,98.1506c2.9685,2.4824,8.9226,4.6035,13.7934,4.5723,3.0579-.0196,5.9943-.4216,8.5782-2.2135,1.7391-1.206,3.0529-2.6993,3.3185-5.1166-8.4285,3.074-16.9462,3.911-25.6901,2.7578ZM52.4757,101.9251c-.8697-.461-1.7342-.9322-2.5959-1.408-.9928-.5482-.8937.501-1.1772.8651-.5145.6609.2204.6199.5463.703.9896.2523,1.9918.4559,3.0408.6901.1989-.0781.5699.1621.6996-.1622.1677-.4193-.222-.5334-.5136-.6879ZM45.9521,98.0211v3.2625c1.7764-2.3937,1.7751-2.4513,0-3.2625ZM37.0975,98.0704c1.2715.5196,2.5333,1.0648,3.8165,1.5537,3.0396,1.1583,3.0447,1.1475,3.1433-2.1595.0023-.0775-.0873-.1576-.1535-.2695-2.2109.4762-4.4663.6592-6.8062.8752ZM77.9342,95.258c.0403,1.2305-.3928,2.3533-.7373,3.5593,3.7485-2.1319,6.6816-5.0759,9.0644-8.6017-2.4848,1.5257-5.0071,2.9344-7.6604,4.0984-.4424.1941-.6827.4543-.6667.944ZM97.3615,65.1612c-.0414.3214-.0744.5413-.0976.7624-.4418,4.1993-1.1897,8.3369-2.4967,12.3615-.0905.2786-.5237.5862-.1041.8251.3224.1835.5664-.1747.771-.4474,1.1258-1.5009,2.1293-3.0784,3.0356-4.7205,2.3653-4.2857,2.3219-4.7843-.8044-8.6051-.0271-.0331-.078-.0468-.3038-.1759ZM99.9683,38.5671c-1.4604,1.272-3.0567,1.6378-4.6853,1.887-.5968.0913-.7513.2336-.5533.8823,2.0142,6.5954,2.8993,13.3505,2.7638,20.242-.0064.3243-.0472.6538.2119.926,1.3453,1.4136,2.5263,2.9616,3.6994,4.7994,3.1519-9.8847,2.6081-19.3057-1.4365-28.7367ZM94.3484,61.7924c-2.1722-1.9489-4.5132-3.6678-6.9063-5.3318-.8616-.5991-1.0782-.3628-1.4249.4853-2.1903,5.3573-4.9904,10.3849-8.3271,15.117-2.0254,2.8724-4.2549,5.5796-6.7892,8.3852,1.5743.1903,2.8689.3698,4.1686.4998,4.9696.4974,9.9382.6271,14.8939-.1536.7989-.1259,1.5957-.1167,1.9659-1.205,1.7795-5.2304,2.8576-10.5817,3.1379-16.1.0372-.7314-.1804-1.2138-.7188-1.6968ZM58.1809,14.5024c1.7494-.7329,3.5807-1.2207,5.3931-1.857-4.3122-.3897-8.6248-1.0339-12.8258.6793,2.065.3907,4.1303.7793,6.1945,1.1739.4145.0793.8198.1791,1.2383.0038ZM71.3929,82.9698c.0661.2297.0636.3356.1151.3834,2.6389,2.4533,4.9402,5.1492,6.0372,8.6636.2644.847.6743.3942,1.0402.2247,3.7236-1.725,7.1454-3.922,10.2838-6.5672.7921-.6676,1.181-1.5258,1.5049-2.6003-6.3746,1.0138-12.6562.6518-18.9811-.1041ZM18.4797,61.1491c-2.2518-1.9803-4.3021-4.1441-6.0971-6.9574.0356,6.9375,2.5662,16.1977,5.1773,19.1385.1197-3.712.5419-7.3338,1.4225-10.8867.1586-.6401-.094-.935-.5026-1.2944ZM38.0648,19.2078c.3468.4777.6096.3713.9638-.0294,1.3251-1.4994,2.8027-2.8437,4.565-4.2476-2.2833-.3801-3.9055.7989-5.6917,1.3787-1.3417.4355-1.2066,1.1314-.5367,2.0264.2232.2982.481.5708.6996.872ZM29.752,36.1775c1.3283-4.5142,3.2713-8.7627,5.9104-12.677q1.2529-1.8583-.0345-3.7457c-.2098-.3087-.4612-.6223-.5541-.9707-.2371-.8896-.6476-.759-1.2905-.3873-3.7615,2.1747-7.1759,4.791-10.1658,7.9416-3.9413,4.1531-6.9338,8.898-8.9871,14.5608,4.3419-2.5103,8.8279-3.1621,13.3992-3.4067.9726-.052,1.4233-.2988,1.7224-1.3151ZM43.0415,23.1527c.3593.1681.5737.1675.8674-.0745,3.2537-2.6808,6.7535-4.9967,10.5786-6.9643-.7135-.4954-1.4493-.4181-2.1172-.5342-5.4425-.9463-6.2007-.6999-10.2086,3.1344-2.4305,2.3252-2.2976,2.9524.8798,4.4387ZM21.9453,60.3038c-.0948.4545-.0093.692.3237.9428,1.8245,1.3744,3.6797,2.7015,5.9186,4.0127-.5822-3.167-.84-6.0499-.9819-8.9433-.1406-2.8665.0315-5.7334.2176-8.8824-1.6187,2.2918-4.9462,10.3199-5.478,12.8702ZM27.2646,85.4839c4.1432,3.5041,8.7518,6.2072,14.2052,8.2221-1.2947-1.6461-2.3794-2.9359-3.3665-4.2964-3.5232-4.8554-6.0804-10.1954-7.9126-15.8968-.1343-.4179-.0361-1.2353-.8105-1.0663-3.3418.7293-6.5271,1.7678-8.6525,4.7476-.447.6267-.2959,1.0453.1331,1.5913,1.9188,2.4418,4.0329,4.6932,6.4038,6.6984ZM29.2257,70.3569c-.0234-.6867-.0091-1.6104-.7156-2.0399-2.4705-1.5018-4.8691-3.1115-7.3231-4.8813-.9811,3.8407-1.3165,7.574-1.296,11.6939,2.4029-2.3732,5.1307-3.5002,8.071-4.2134.4528-.1098,1.2835.023,1.2637-.5593ZM41.1058,95.6149c-7.9644-2.914-14.4398-7.3513-20.0115-13.1648,3.1473,10.9434,12.2418,14.2117,20.0115,13.1648ZM28.2585,40.8956c.2763-.4366.7065-.9429.4599-1.3993-.2834-.5245-.9291-.1207-1.4118-.1443-.4173-.0204-.841.0539-1.2598.1032-3.5074.4123-6.9604,1.0363-10.0197,2.9448-2.9444,1.8368-4.0712,5.3381-2.7567,8.5461,1.3503,3.2953,3.7781,5.7567,6.503,8.2513.5505-1.5964,1.0043-3.0127,1.525-4.404,1.8258-4.8783,4.1756-9.4976,6.9602-13.8978ZM3.9554,76.8163l5.8231-1.7436-.337-1.1254-4.0891,1.2243-.01-.0333,1.5466-2.2981-.0474-.1584-2.555-1.0699-.01-.0334,4.0891-1.2244-.337-1.1254-5.8231,1.7436.3008,1.0045,2.8696,1.2256-1.7238,2.6009.3032,1.0129ZM1.4645,66.9494l6.0054-.9401-.1817-1.1607-6.0054.9401.1817,1.1607ZM.7769,61.7739l6.0764-.1608-.0655-2.4749c-.0173-.6525-.1587-1.2276-.4244-1.7255-.2656-.4979-.6318-.8778-1.0987-1.1396-.4668-.2618-.9975-.3849-1.592-.3692-.5829.0155-1.1041.1657-1.5638.4506-.4596.2849-.8119.6773-1.057,1.1771-.245.4998-.3592,1.0657-.3424,1.6979l.0673,2.5445ZM5.9045,60.463l-4.2409.1122-.032-1.2091c-.0178-.6699.1581-1.2077.5274-1.6136.3695-.4059.8818-.6175,1.5371-.6348.6322-.0167,1.1484.1662,1.5488.5487.4004.3826.6092.8987.6264,1.5482l.0331,1.2483ZM.8683,51.9953l6.0147.8785.166-1.1367-4.2667-.6232,4.7918-2.9718.1459-.9989-6.0147-.8785-.166,1.1366,4.1978.6132-4.7197,2.9604-.149,1.0204ZM2.7079,42.3188l5.8457,1.6661.322-1.1298-5.8457-1.6661-.322,1.1298ZM5.0948,36.2078c.0374.5891.219,1.114.5452,1.5746.3261.4607.7624.8084,1.3087,1.0432.5384.2314,1.0836.307,1.6358.227s1.0523-.3071,1.5004-.6813c.4481-.3741.7987-.8557,1.0519-1.4447.1786-.4158.2968-.8393.3543-1.2708.0576-.4315.0494-.8257-.0245-1.1827l-2.3026-.9896-.8607,2.0028.8435.3624.3968-.9234.9274.3986c-.0101.2514-.034.4613-.0717.6298-.0377.1686-.0932.3381-.1665.5086-.2668.621-.6558,1.0466-1.1668,1.2769s-1.0516.2229-1.6219-.0222c-.3758-.1615-.6787-.395-.9089-.7007-.2301-.3057-.3583-.652-.3846-1.0391-.0262-.387.0482-.7844.2235-1.1922.2817-.6556.7399-1.248,1.3747-1.7772l-.9874-.4243c-.5974.5453-1.0438,1.1616-1.3393,1.8492-.2554.5943-.3644,1.186-.3271,1.775ZM8.4153,28.5931l5.0944,3.316.6409-.9846-2.1515-1.4005,1.7209-2.6438,2.1515,1.4004.6409-.9846-5.0944-3.3159-.6409.9846,2.1442,1.3957-1.7209,2.6438-2.1442-1.3957-.6409.9846ZM13.6199,21.1225l.6807.616,1.448-1.6003,3.8265,3.4623.7882-.8711-3.8265-3.4623,1.448-1.6003-.6808-.616-3.6841,4.0718ZM24.2886,11.5991c-.139.4659-.0627.9083.2288,1.3274.2186.3144.5077.5233.8674.6264.3597.1032.7982.1074,1.3153.0128.442-.0706.8075-.1216,1.0966-.153.3534-.0303.6105.0701.7711.3011.1176.1692.1393.3554.0653.5588-.0741.2035-.2289.3871-.4647.551-.4716.3279-1.1281.4559-1.9696.3839l.6608.9502c.405-.0272.7469-.0856,1.0255-.1752s.5775-.2453.8967-.4672c.4906-.3412.7986-.7505.924-1.2282.1254-.4776.0391-.9308-.259-1.3595-.2302-.331-.5179-.5515-.8627-.6614-.345-.1099-.7894-.1189-1.3331-.027-.631.1138-.9988.1717-1.1034.1737-.3658.0177-.6141-.0676-.7449-.2557-.1093-.1572-.1282-.3304-.0567-.5197.0715-.1893.2288-.3684.4716-.5373.4001-.2782.967-.441,1.7008-.4884l-.5962-.8574c-.619.0701-1.1715.2741-1.6573.6119-.5121.3561-.8375.7671-.9764,1.2328ZM30.1257,7.353l1.6168,3.2779c.2258.4579.52.8084.8826,1.0517s.7735.3632,1.2327.3598c.4593-.0033.9412-.1294,1.4459-.3784.8039-.3965,1.3284-.9003,1.5737-1.5112s.187-1.2833-.1749-2.0169l-1.5976-3.2389-1.0536.5197,1.5302,3.1023c.1783.3617.2658.6702.2625.9257-.0033.2556-.0884.4981-.255.7274-.1666.2294-.4113.4237-.7339.5827-.294.145-.5823.2096-.865.1938-.2827-.0158-.5203-.0958-.7129-.2403-.1925-.1444-.3689-.3791-.5293-.7044l-1.5649-3.1725-1.0575.5216ZM39.0814,3.3386l1.7013,5.8356,1.1028-.3215-1.2069-4.1396,4.6949,3.1227.9691-.2826-1.7014-5.8356-1.1027.3215,1.1874,4.0728-4.6545-3.062-.99.2886ZM53.753.3542l.2037,6.0751,1.1741-.0394-.086-2.5657.4261-.0143c.1885-.0063.3567.0352.5049.1246.1481.0894.3042.2438.4683.4631.1641.2195.425.6468.7831,1.282.1635.2877.2924.4967.3867.627l1.309-.0439c-.1891-.2723-.4815-.7703-.8773-1.4943-.2375-.4187-.4347-.7154-.5914-.8901-.1568-.1747-.3341-.3109-.5317-.4089.3458-.1596.6036-.3707.7733-.6332.1697-.2625.2487-.5663.2372-.9113-.017-.5073-.2106-.913-.5806-1.217-.3701-.3039-.8408-.4463-1.4118-.4272l-2.1874.0733ZM55.014,2.9066l-.0567-1.6916.7305-.0245c.3218-.0107.572.0498.7506.1817.1786.1319.2725.337.2818.6153.009.2667-.0717.4799-.2419.6394-.1703.1596-.4091.2445-.7163.2548l-.748.0251ZM64.4832.6193l-3.2519,5.7144,1.2216.1551.7691-1.3936,2.6805.3403.4395,1.5471,1.2302.1562-1.8976-6.3682-1.1913-.1513ZM64.9193,1.9861l.7156,2.5164-1.9467-.2472,1.2311-2.2692ZM71.8503,1.8871l-1.7741,5.8139,1.0987.3353,1.2585-4.1242,2.2165,5.1846.9655.2946,1.7741-5.8139-1.0987-.3353-1.2382,4.0576-2.216-5.1117-.9863-.3009ZM81.3931,5.207l-2.7618,5.4148,2.2055,1.1249c.5814.2966,1.1542.4471,1.7186.4516.5643.0045,1.073-.1357,1.526-.4207.4531-.285.8147-.6924,1.0849-1.2221.265-.5194.382-1.0491.3513-1.589-.0308-.5399-.2071-1.0369-.5291-1.4909s-.7646-.8247-1.3279-1.112l-2.2675-1.1566ZM80.095,10.3378l1.9275-3.7791,1.0776.5496c.5969.3045.9854.7159,1.1655,1.2343.18.5185.1211,1.0696-.1767,1.6536-.2873.5634-.6947.9295-1.2221,1.0984-.5275.1689-1.0805.1059-1.6594-.1894l-1.1125-.5674ZM90.7961,11.0162c-.5662-.0881-1.1117-.0232-1.6364.1945s-.955.5488-1.291.993c-.3482.4605-.5517.9676-.6104,1.5214-.0588.5538.0349,1.0947.2812,1.6228.2462.528.6204.9819,1.1225,1.3616.509.3849,1.0475.6239,1.6154.7169.5678.0931,1.1146.0337,1.6402-.178.5256-.2117.9598-.5443,1.3028-.9978.3516-.4651.5556-.9826.6122-1.5527.0565-.5701-.0377-1.1104-.2825-1.6211-.2449-.5106-.6184-.9558-1.1204-1.3354-.5229-.3954-1.0674-.6372-1.6336-.7253ZM89.7061,12.2267c.3344-.1489.6868-.1953,1.057-.139.3701.0563.7196.2087,1.0481.4571.3285.2484.5708.5425.7267.8822.1558.3397.2086.6932.1581,1.0606-.0505.3673-.1973.7118-.4405,1.0333-.3726.4929-.8374.7743-1.394.8443s-1.0837-.083-1.5811-.4592c-.3285-.2485-.5696-.5416-.7231-.8796-.1536-.3379-.2061-.6904-.1577-1.0575.0485-.3671.1942-.7114.4375-1.033.2449-.3239.5346-.5603.8691-.7093ZM98.0173,16.5682l-4.4696,4.1196.7785.8446,3.1706-2.9223-.7083,5.5939.6841.7423,4.4696-4.1196-.7785-.8446-3.1194,2.8752.6719-5.5307-.6989-.7583ZM104.5838,24.2534l-5.1222,3.273.6186.968,3.6335-2.3218-1.6772,5.3834.5435.8506,5.1221-3.2729-.6185-.968-3.5748,2.2843,1.6302-5.3275-.5552-.869ZM109.6128,32.8853l-5.5714,2.4307,1.5955,3.6571.8415-.3671-1.1257-2.5803,1.5832-.6907,1.0544,2.4168.8415-.3671-1.0544-2.4168,1.4637-.6386,1.1013,2.5245.8415-.3671-1.5712-3.6013ZM112.1332,33.8745l-1.7043-.1632.2645.6062,2.0279.905-.5881-1.348ZM112.4865,40.1775l-5.8526,1.6418,1.0777,3.8417.8839-.248-.7603-2.7105,1.6632-.4665.7122,2.5388.884-.248-.7122-2.5388,1.5375-.4313.7439,2.6519.8839-.248-1.0612-3.783ZM115.0023,53.8218l-6.0699.3231.0592,1.1123,6.0699-.323-.0592-1.1123ZM114.6229,59.051l-1.19-.0721c.4913.5237.7232,1.0144.6955,1.4719-.0155.2547-.1234.4654-.3238.632-.2005.1666-.4397.2415-.7176.2246-.223-.0135-.4364-.0642-.6403-.1521-.2039-.088-.4488-.2306-.7347-.4281-.286-.1975-.644-.4742-1.0744-.8301-.4303-.356-.9139-.7798-1.4508-1.2714l-.1259-.0076-.2382,3.9305,1.051.0637.1261-2.0803c.7634.6855,1.3808,1.1698,1.8518,1.4526.4711.2828.9151.4369,1.332.4621.5473.0332.9954-.1104,1.3447-.4307.3492-.3203.5413-.7686.5763-1.3447.0326-.5385-.1279-1.0787-.4816-1.6203ZM113.6327,66.6272c-.4808-.4607-1.1942-.7809-2.1403-.961-.9489-.1806-1.7303-.144-2.344.1098-.6138.2537-.9792.6884-1.0964,1.304-.1155.607.0684,1.138.5516,1.5932.4832.4551,1.2008.7733,2.1525.9544.9432.1795,1.7207.1436,2.3325-.1075.6118-.2513.9752-.6789,1.0902-1.283.1166-.6127-.0655-1.1493-.5462-1.6099ZM113.2017,68.0423c-.1096.5755-.8354.7357-2.1776.4802-1.4362-.2733-2.1001-.6949-1.9916-1.2648.1112-.5842.8492-.7464,2.2142-.4866,1.4134.269,2.0651.6927,1.955,1.2712ZM111.9478,73.8805c-.4156-.5202-1.0803-.9321-1.9942-1.2357-.9167-.3046-1.6961-.3718-2.338-.2015-.6419.1703-1.0617.5528-1.2592,1.1474-.1948.5863-.0829,1.1371.3359,1.6522.4187.5151,1.0879.9254,2.0073,1.2309.9111.3028,1.6865.3701,2.3262.2021.6397-.168,1.0565-.5439,1.2504-1.1274.1967-.5919.0872-1.1479-.3284-1.668ZM111.3334,75.2261c-.1848.556-.9254.6187-2.222.1879-1.3874-.461-1.9896-.9668-1.8067-1.5174.1876-.5643.9405-.6274,2.2591-.1893,1.3653.4536,1.9553.9598,1.7696,1.5187ZM10.7816,80.6954c-.3171-.0995-.6226-.0736-.9166.0776-.2992.154-.4983.3884-.5971.7035-.0989.3151-.0727.6196.0786.9137.1552.3018.3897.5024.7035.602.3137.0995.619.073.9157-.0795.2992-.154.4995-.3875.6011-.7006.1014-.3132.0746-.6207-.0806-.9225-.1526-.2967-.3874-.4947-.7044-.5942ZM16.3251,86.5281c-.4701-.124-.9098-.0336-1.3195.2711-.3072.2285-.5068.5242-.5983.887-.0917.3628-.082.8012.0291,1.3151.0847.4395.1473.8032.188,1.0912.0415.3523-.0506.6124-.2764.7803-.1652.123-.3507.1506-.5564.0831-.2057-.0676-.3942-.2165-.5656-.4469-.3428-.4608-.4917-1.113-.4465-1.9563l-.9286.6907c.0402.4039.1094.7438.2078,1.0195.0985.2756.2636.5694.4956.8813.3566.4794.7756.7742,1.257.8843.4813.1102.9316.0094,1.3505-.3022.3235-.2406.5347-.5351.6336-.8834.0988-.3483.0936-.7928-.0156-1.3333-.1339-.6271-.2035-.9928-.2089-1.0973-.0294-.3651.048-.6159.2318-.7527.1536-.1143.3261-.1387.5177-.0732.1914.0655.3755.2169.5521.4543.2909.391.4716.9524.5424,1.6843l.8379-.6232c-.0898-.6165-.3113-1.1621-.6645-1.637-.3722-.5004-.7933-.8125-1.2633-.9366ZM19.4736,90.3146l-2.4759,6.1691.2754.2661,4.5153-1.9053-1.7555,4.572.2847.2752,6.0774-2.6891-.8636-.8345-3.7011,1.6575,1.4638-3.8193-.7134-.6893-3.7514,1.5907,1.5173-3.7494-.873-.8435ZM27.9024,97.9188l-3.4408,5.0109,3.2892,2.2586.5197-.7569-2.3207-1.5935.9778-1.424,2.1737,1.4925.5197-.7568-2.1736-1.4926.9039-1.3164,2.2705,1.5591.5197-.7569-3.239-2.2241ZM33.0879,101.3454l-2.7002,5.4458,2.2181,1.0998c.5847.29,1.1592.434,1.7235.4321s1.0714-.1479,1.5212-.4381c.4498-.2901.8068-.7015,1.071-1.2343.259-.5224.37-1.0533.3332-1.5929-.0368-.5395-.2188-1.0344-.5459-1.4848-.3272-.4503-.774-.816-1.3405-1.0969l-2.2805-1.1307ZM31.848,106.4906l1.8845-3.8008,1.0837.5373c.6004.2977.9935.7047,1.1794,1.221s.1333,1.0682-.1579,1.6555c-.281.5666-.6841.9373-1.2096,1.1123-.5255.1749-1.0793.118-1.6614-.1706l-1.1188-.5547ZM40.3069,104.6655l-1.9087,5.7711,3.7882,1.2528.2883-.8716-2.6728-.8839.5424-1.6401,2.5035.828.2883-.8716-2.5034-.828.5014-1.5161,2.6149.8648.2883-.8716-3.7303-1.2338ZM46.2372,106.5163l-1.0574,5.9858,1.1312.1998.7501-4.2462,2.8277,4.8782.994.1756,1.0574-5.9858-1.1312-.1998-.7379,4.1776-2.8185-4.8059-1.0155-.1794ZM56.4902,111.32l-.0128,1.0267,2.2537.0281.0129-1.0268-2.2538-.0281ZM62.1512,107.6947l.8523,6.0185,1.1373-.1611-.6045-4.2693,4.2018,3.76.9995-.1415-.8522-6.0185-1.1373.1611.5948,4.2004-4.1706-3.6941-1.021.1446ZM71.6069,106.2713c-.3988.4115-.6607.8943-.7859,1.4484-.1251.5543-.1033,1.0967.0655,1.6275.1749.5501.4716,1.0091.8898,1.3767.4183.3677.914.6035,1.4874.7073.5733.1039,1.1598.0604,1.7598-.1304.6081-.1934,1.1141-.495,1.518-.9051.4039-.4099.6711-.8906.8017-1.442.1305-.5513.1097-1.098-.0626-1.6398-.1766-.5556-.4815-1.021-.9143-1.3963-.4329-.3752-.9285-.6103-1.4867-.7052-.5583-.0949-1.1374-.047-1.7373.1438-.6247.1987-1.1365.5037-1.5354.9151ZM71.9661,107.8601c.0715-.359.2371-.6735.4967-.9433s.5858-.4671.9784-.5919c.3925-.1248.7724-.1528,1.1399-.084.3673.0689.6864.23.9572.4832.2707.2533.4673.5721.5894.9563.1873.5888.1487,1.1306-.1154,1.6256-.2642.4949-.6935.8369-1.2878,1.0259-.3926.1248-.7711.1524-1.1357.0826-.3646-.0697-.6828-.2303-.9546-.4818-.2717-.2514-.4687-.5693-.5908-.9535-.1231-.387-.1489-.7601-.0773-1.1192ZM78.319,103.5255l2.7079,5.442,1.0518-.5234-1.1436-2.2984.3817-.1899c.1688-.084.3391-.116.511-.0963.1719.0198.378.0955.6183.2269.2405.1315.6553.4119,1.2448.8411.2682.1939.4722.3304.6122.4098l1.1725-.5835c-.2851-.1692-.758-.5008-1.4185-.9951-.39-.2822-.6925-.4702-.9077-.5641-.2152-.0938-.4331-.1442-.6536-.1511.2483-.2888.3952-.5879.4405-.8972.0454-.3093-.0088-.6184-.1626-.9276-.2261-.4544-.5707-.743-1.0335-.8659-.4629-.1228-.9502-.057-1.4617.1976l-1.9595.975ZM80.5261,105.3239l-.7541-1.5153.6545-.3257c.2883-.1435.541-.1922.7582-.1464.2172.0459.3879.1934.5119.4427.1189.2389.134.4664.0454.6821-.0886.2159-.2706.3922-.5459.5292l-.67.3334ZM83.5165,101.0552l5.6435,3.5127.31-.2248-1.0896-4.7782,4.1963,2.5252.3205-.2325-1.5893-6.4529-.9721.7051.9874,3.9332-3.5059-2.1067-.8031.5825.9128,3.9712-3.4277-2.1473-.9827.7128ZM93.3948,93.1435l2.593,6.042.861-.8803-.6469-1.4543,1.8894-1.9317,1.4987.5834.8671-.8865-6.2227-2.3311-.8397.8585ZM94.7477,93.6209l2.4382.9484-1.3721,1.4029-1.066-2.3513ZM96.2727,90.1502l3.8333.0073,2.4061,1.8246.7099-.936-2.3992-1.8194-1.056-3.6841-.8439,1.1129.7199,2.4135-2.5078-.0559-.8623,1.1371ZM103.9381,82.7598c.0997.317.2956.5529.5879.7076.2974.1575.6036.1867.9186.0876.3151-.099.5499-.2947.7047-.5869.1588-.3.1893-.607.0915-.9215-.0977-.3143-.294-.5495-.5888-.7057-.2974-.1575-.6036-.1883-.9185-.0925-.3149.0959-.5518.2937-.7106.5936-.1561.2949-.1843.6008-.0847.9177Z"/>
</svg>