<?xml version="1.0" encoding="UTF-8"?><svg id="Lager_1" xmlns="http://www.w3.org/2000/svg" width="687.2145" height="114.8031" xmlns:xlink="http://www.w3.org/1999/xlink" viewBox="0 0 687.2145 114.8031"><defs><style>.cls-1{fill:url(#Namnlös_övertoning);}.cls-1,.cls-2,.cls-3{stroke-width:0px;}.cls-2{fill:#d43742;}.cls-3{fill:url(#Namnlös_övertoning_46);}</style><radialGradient id="Namnlös_övertoning" cx="54.7441" cy="70.0246" fx="54.7441" fy="70.0246" r="44.6726" gradientTransform="translate(0 124.534) scale(1 -1.0203)" gradientUnits="userSpaceOnUse"><stop offset=".3816" stop-color="#fca041"/><stop offset=".5023" stop-color="#f8943d"/><stop offset=".6639" stop-color="#f6893a"/><stop offset=".7844" stop-color="#ee6c30"/><stop offset=".9145" stop-color="#e85328"/><stop offset=".9935" stop-color="#e64a25"/></radialGradient><linearGradient id="Namnlös_övertoning_46" x1="127.097" y1="63.3146" x2="679.934" y2="63.3146" gradientUnits="userSpaceOnUse"><stop offset="0" stop-color="#d43742"/><stop offset=".1116" stop-color="#db5c40"/><stop offset=".2279" stop-color="#e27b3f"/><stop offset=".326" stop-color="#e68f3e"/><stop offset=".3935" stop-color="#e8963e"/><stop offset=".4343" stop-color="#df9543"/><stop offset=".5009" stop-color="#c69452"/><stop offset=".585" stop-color="#9e936b"/><stop offset=".6833" stop-color="#67918d"/><stop offset=".7923" stop-color="#228fb7"/><stop offset=".8419" stop-color="#008ecd"/><stop offset=".8711" stop-color="#0486c3"/><stop offset=".92" stop-color="#1072a9"/><stop offset=".982" stop-color="#245180"/><stop offset="1" stop-color="#2b4773"/></linearGradient></defs><path class="cls-1" d="m50.4266,90.2573c.7675-2.7716,1.9614-5.4153,2.9422-8.1443.3838-1.0234,1.1939-2.2173.8954-2.9848-.3411-.9381-1.9188-.8102-2.9848-1.1939-2.0468-.7249-2.0894-.6822-2.5584,1.4498-1.066,4.7757-2.0894,9.5514-2.7716,14.4977,2.3452-.2559,3.795-1.2792,4.4772-3.6244h0Zm36.7559-36.1163c2.4732,1.5777,4.861,3.2833,7.2915,5.3727.0426-6.4387-.9381-12.4936-2.729-18.4206-.2132-.7249-.597-.8954-1.2792-.9381-.8528-.0426-.8528.5117-.9381,1.066-.5117,4.0082-1.4498,7.8884-2.8142,11.6834-.2133.7249,0,.9381.469,1.2365h0Zm-35.1782,41.6169c1.9188.1279,3.8376.2985,5.7564.2985,5.7138,0,11.257-.9807,16.6297-2.8996.8528-.2985,1.0234-.6396.7249-1.4924-1.1939-3.4965-3.6244-6.0549-6.3108-8.4428-.6822-.6396-1.1086-.7675-1.9188,0-4.3493,4.1788-9.2529,7.6326-14.7109,10.3189-.3838.1706-.7249.3411-.9381.7675-.469.8955-.5543,1.3646.7675,1.4498h0Zm31.2979-41.958c-4.9889-2.8996-10.191-5.2874-15.5211-7.4194-.7675-.2985-1.066-.3411-1.3218.597-2.3452,9.0824-4.9463,18.0795-7.8458,27.0339-.2132.6822-.0853.9807.5543,1.2792,2.3026,1.0234,4.5199,2.26,6.6092,3.6244.597.4264,1.3218.469,1.663.5117,1.066.1706,1.3218-.4264,1.663-.8102,6.3534-6.7798,11.2997-14.4977,14.8388-23.111.3837-.8955.1279-1.2366-.6397-1.7056h0Zm8.3575-26.8207c-1.1086-1.7482-2.6864-3.0274-4.264-4.4346.1279,2.8569,2.3452,3.4965,4.264,4.4346Zm-6.4813,25.1151c1.1939-3.6244,2.132-7.3341,2.5158-10.9159.0426-.9807.0426-1.0234-.6822-1.1086-5.8417-.597-11.5129-1.7909-17.1414-3.3686-.6822-.1706-.8954-.0426-1.0234.6396-.469,2.0894-.9807,4.1788-1.4924,6.2681-.1706.597-.0426.8102.5117,1.0234,5.6712,2.1746,11.2144,4.6904,16.4591,7.7605.3838.2558.6396.2985.8528-.2985Zm-16.4591-34.7092c1.2366.597,1.4924.469,1.6204-.8528.0853-.8102.2132-1.663.0426-2.7716-1.0234.9807-1.4071,2.0468-1.9614,3.0274-.2132.3838.0426.469.2985.597h0Zm4.1361,1.3645c2.5584.9381,5.1168,1.8762,7.6752,2.8569-2.132-2.729-4.7331-4.9036-7.8032-6.7372-.0853,1.1939-.1706,2.132-.2132,3.1128-.0853.2985-.0853.597.3411.7675h0Zm-5.7991.9807c-1.6204,3.7097-3.0274,7.5047-4.4346,11.3423-.2132.5543-.2132.8102.4264,1.0234,1.1513.3411,2.3026.7249,3.4539,1.1086.5117.1706.7675.1279.8954-.469.8954-4.0935,1.7482-8.1869,2.4732-12.8773,0-.6396-1.0234-.3411-1.5777-.6396-.5543-.3411-.9381-.1706-1.2366.5117h0Zm-3.0701-3.7523c1.6488.4548,2.8854-.2275,3.7097-2.0468-2.132.2985-4.0935.5117-6.2255,1.3218,1.0234.2985,1.7909.5117,2.5158.7249h0Zm6.7371,18.5059c4.6904,1.2366,9.4235,2.3026,14.2419,2.9848,3.1128.4264,3.1128.469,3.0274-3.198.2558-1.663-.4264-3.5392-1.663-5.2874-.597-.8528-1.1513-1.7056-1.663-2.601-.469-.8102-1.1086-1.3218-1.9614-1.663-3.0274-1.3218-6.0976-2.5584-9.2103-3.7524-1.0234-.3838-1.4071-.2985-1.5777.8954-.5117,3.7524-1.2366,7.462-2.132,11.1291-.2132.9381.0426,1.2366.9381,1.4925h0Zm-6.4386,11.1291c.1279-.5543-.2985-.597-.6396-.7249-1.3645-.469-2.7716-.8954-4.1361-1.3645-.7249-.2558-1.066-.0853-1.2792.6822-2.7716,8.9118-5.2874,17.9089-7.6326,26.9486-.2132.7675.1279.9807.7249,1.1513,1.1939.3838,2.4305.7249,3.5818,1.2366.9381.4264,1.2366.2132,1.535-.7249,2.0468-6.6945,4.0935-13.3891,5.927-20.1262.6396-2.3879,1.2792-4.7331,1.9188-7.0783h0Zm.6822-2.7717c.5117-2.132,1.066-4.264,1.663-6.6945.0853-.2132-.1279-.4264-.6396-.597-1.1939-.3411-2.4305-.7249-3.5818-1.1939-.6822-.2558-.9381-.0853-1.1086.5117-.6396,2.0041-1.2792,4.0082-2.0041,5.9696-.2132.597-.0426.8102.5543.9807,1.4498.4264,2.8569.8954,4.264,1.4071.5117.2558.7249.1706.8528-.3838h0Zm-9.5514,33.2168c.2132-.4264,0-.597-.3411-.7249-1.4924-.5117-2.9848-1.0234-4.4772-1.5777-.4264-.1279-.597.0426-.6822.4264-.0853.3411-.2132.6396.2558.8102,1.535.5117,3.1128,1.0234,4.6478,1.4924.3411.0852.4264-.128.597-.4265h0Zm36.8412-40.3803c.9381,2.5158.9807,2.4732,3.6244,1.7909.1279-.0426.2558-.0853.3838-.1279,1.9188-.6396,2.2173-1.4498,1.0234-3.0701-2.0894-2.8142-5.1168-4.5199-8.3148-6.4813.7675,3.1553,2.3452,5.3727,3.2833,7.8884h0Zm-39.6981,55.6029c4.0508-1.8336,10.8733-6.7372,13.3464-9.5941-2.8996-.6822-5.7138-1.3218-8.5707-2.0041-.7249-.1706-.7249.3838-.8528.8102-.9381,2.5584-1.8336,5.0742-2.7716,7.6326-.3411.9807-.7249,2.0041-1.1513,3.1553h0Zm-9.8499-64.8559c-3.4539,3.1554-6.6092,6.6092-9.5941,10.6174,8.2296.4264,15.9475,1.8336,23.5801,3.9656.7675.2132.8528-.1706,1.0234-.6822.6396-1.9614,1.2366-3.9229,1.9188-5.8417.2558-.6822.1279-.9807-.5543-1.2366-5.2448-1.9188-10.3189-4.1361-15.1799-6.8651-.4264-.2985-.7249-.3838-1.1939.0426h0Zm-3.9229-3.4538c-.597-.6396-.9381-.4264-1.3645.2132-2.1746,3.0274-3.8803,6.2681-5.2021,9.722-.1706.5117-.5543.9381-.469,1.535.469,0,.597-.3838.7675-.597,2.0468-2.5584,4.2214-4.9889,6.6092-7.2915.6396-.597,1.7909-1.2792,1.7056-1.8762-.0427-.7675-1.4072-1.0234-2.0468-1.7056h0Zm-7.2488,16.2033c-.9381,1.4924-2.132,2.8142-2.3452,4.6904-.3838,3.198-.7249,6.396-.7249,9.6367,0,3.8376.3838,7.6326,1.066,11.4276.0853.4264.0853,1.0234.5543,1.2366,2.601,1.2792,4.9463,3.326,7.9737,3.5818,3.2833.2558,6.524.7249,9.6793,1.5777.9381.2558,1.1939-.0853,1.3645-.8528,2.2173-8.9118,4.7757-17.781,7.5047-26.5222.2558-.8528.1706-1.1513-.7249-1.4071-7.59-2.0468-15.2226-3.4112-23.0684-3.7097-.4691-.0853-.9381-.1706-1.2792.3411h0Zm33.0888-21.0643c-1.9188-.469-3.795-.9807-5.6712-1.4924-.6396-.1706-1.1513-.0853-1.7482.1706-4.3067,1.9188-8.1869,4.4346-12.0245,7.5473,4.861,2.729,9.8499,4.8184,14.9241,6.7372.8102.2985.8102-.2985.9807-.7675,1.4071-3.6671,2.729-7.3341,4.1788-10.9585.341-.8528.1278-1.066-.6397-1.2366h0Zm-16.3312,55.6882c.0853-.3411.1279-.6822-.3411-.7675-1.7056-.2985-3.326-.9807-5.1595-.6822,1.535.597,3.1128,1.1513,4.6478,1.7482.3411.1279.7249.2559.8528-.2985Zm35.1782-52.7034c-.2132-1.4498-1.2792-2.4732-2.5158-2.4732,1.0234.597,1.6204,1.5777,2.5158,2.4732Zm-31.5112,80.2063c-.8528-.469-1.7482-.9381-2.601-1.4071-.9807-.5543-.8954.5117-1.1939.8528-.5117.6396.2132.597.5543.6822.9807.2558,2.0041.469,3.0274.6822.2132-.0853.5543.1706.6822-.1706.2133-.3837-.1705-.469-.469-.6396h0Zm-15.3505-3.8376c1.2792.5117,2.5158,1.066,3.795,1.535,2.0183.7675,3.0559.0569,3.1128-2.132,0-.0853-.0853-.1706-.1706-.2558-2.132.4691-4.392.6396-6.7372.8528Zm9.9352-21.1496c-3.2833-1.1939-6.6092-2.3878-9.722-4.0082-1.8336-.9381-3.6244-1.1086-5.6285-.6396,2.5584,8.1869,6.524,15.5211,12.7068,21.576.1279-.2132.2132-.2558.2132-.3411.8954-5.2021,1.9614-10.3616,3.2406-15.5211.2558-.7674-.2985-.8528-.8102-1.066h0Zm-1.1086,21.107v3.2406c1.7909-2.3878,1.7909-2.4305,0-3.2406Zm31.8949-2.7716c.0426,1.2366-.3838,2.3452-.7249,3.5392,3.7524-2.132,6.6519-5.0742,9.0397-8.5707-2.4732,1.535-4.9889,2.9422-7.6326,4.0935-.469.2132-.6822.469-.6822.9381h0Zm-27.503,2.8995c2.9422,2.4732,8.9118,4.6052,13.7728,4.5625,3.0274,0,5.9696-.4264,8.5707-2.2173,1.7482-1.1939,3.0274-2.6864,3.326-5.1168-8.4854,3.0701-16.9708,3.9229-25.6695,2.7716Zm20.9791-15.1373c.0853.2132.0426.3411.1279.3838,2.6437,2.4305,4.9463,5.1168,6.0123,8.656.2558.8528.6822.3838,1.0234.2132,3.7097-1.7056,7.1209-3.9229,10.2337-6.5666.8102-.6822,1.1939-1.535,1.4924-2.601-6.3108,1.0233-12.5789.6822-18.8897-.0853h0Zm28.4836-44.2606c-1.4498,1.2792-3.0274,1.6204-4.6904,1.8762-.597.0853-.7675.2132-.5543.8954,2.0041,6.5666,2.8996,13.3037,2.7716,20.1689,0,.3411-.0426.6396.2132.9381,1.3218,1.4071,2.5158,2.9422,3.6671,4.7757,3.1981-9.8499,2.6437-19.2734-1.4071-28.6542h-.0001Zm-2.601,26.5223c-.0426.3411-.0853.5543-.0853.7675-.4264,4.1788-1.1939,8.3148-2.4732,12.323-.0853.2985-.5117.597-.0853.8102.3411.1706.5543-.1706.7675-.4264,1.1086-1.4924,2.132-3.0701,3.0274-4.6904,2.3452-4.264,2.3026-4.7757-.8102-8.5707-.0426-.0854-.0853-.0854-.3411-.2133h.0002Zm-2.9849-3.3686c-2.1746-1.9614-4.5199-3.6671-6.8651-5.33-.8528-.597-1.066-.3411-1.4071.469-2.1746,5.33-4.9889,10.3616-8.3148,15.052-2.0041,2.8569-4.2214,5.5432-6.7798,8.3575,1.5777.1706,2.8569.3838,4.1361.5117,4.9463.5117,9.8925.6396,14.8388-.1706.8102-.1279,1.5777-.1279,1.9614-1.1939,1.7909-5.2021,2.8569-10.5321,3.1128-16.0327.0853-.7249-.1705-1.1939-.6822-1.6629h-.0001ZM29.3197,35.7631c1.3218-4.5199,3.2406-8.7413,5.8844-12.6215.8244-1.2224.8102-2.4732-.0426-3.7524-.2132-.2985-.469-.6396-.5543-.9807-.2558-.8954-.6396-.7675-1.2792-.3838-3.7524,2.1746-7.1636,4.7757-10.1484,7.9311-3.9229,4.1361-6.9077,8.8692-8.9545,14.4977,4.3493-2.5158,8.7839-3.1554,13.3464-3.4112.9807-.0426,1.4498-.2558,1.7482-1.2792Zm-11.2571,24.9019c-2.26-1.9614-4.3067-4.1361-6.0976-6.9504.0426,6.9077,2.5584,16.1607,5.1595,19.0602.1279-3.7097.5543-7.2915,1.4071-10.8733.1706-.5969-.0426-.8954-.469-1.2365ZM57.6328,14.1445c1.7482-.7249,3.5818-1.2366,5.3727-1.8336-4.3067-.3838-8.6133-1.0234-12.7921.6822,2.0468.3838,4.1361.7675,6.1828,1.1513.4264.0853.8102.1706,1.2366,0h0Zm-20.0409,4.6904c.3411.469.597.3838.9807-.0426,1.3218-1.4924,2.8142-2.8142,4.5625-4.2214-2.26-.3838-3.8803.8102-5.6712,1.3645-1.3218.4264-1.1939,1.1086-.5543,2.0041.2133.3411.4691.597.6823.8955h0Zm4.9462,3.9229c.3411.1706.5543.1706.8528-.0853,3.2406-2.6864,6.7372-4.9889,10.5321-6.9504-.7249-.5117-1.4498-.4264-2.132-.5117-5.4153-.9381-6.1828-.6822-10.191,3.1128-2.3452,2.3452-2.2173,2.9848.9381,4.4345h0Zm-21.0216,37.0544c-.0853.469,0,.6822.3411.9381,1.8336,1.3645,3.6671,2.6864,5.8844,4.0082-.597-3.1554-.8528-6.0123-.9807-8.9118-.1279-2.8569.0426-5.7138.2132-8.8692-1.6204,2.3026-4.9463,10.2763-5.458,12.8348h0Zm5.2874,25.1151c4.1361,3.4965,8.7413,6.1828,14.1565,8.1869-1.2792-1.6204-2.3878-2.9422-3.3686-4.264-3.4965-4.861-6.0549-10.1484-7.8884-15.8622-.1279-.4264-.0426-1.2366-.8102-1.066-3.326.7249-6.524,1.7482-8.6133,4.7331-.4264.6396-.2985,1.0234.1279,1.5777,1.9188,2.4305,4.0508,4.6904,6.396,6.6946h.0001Zm1.0234-44.4738c.2558-.4264.7249-.9381.469-1.4071-.2985-.5117-.9381-.1279-1.4071-.1279-.4264,0-.8528.0426-1.2366.0853-3.4965.4264-6.9504,1.0234-9.9778,2.9422-2.9422,1.8336-4.0508,5.33-2.729,8.5281,1.3645,3.2833,3.7524,5.7564,6.4813,8.2296.5543-1.5777.9807-2.9848,1.535-4.392,1.7483-4.8609,4.0509-9.4661,6.8652-13.858,0,0,0-.0002,0-.0002Zm.9381,29.3791c-.0426-.6822,0-1.6204-.7249-2.0468-2.4732-1.4924-4.861-3.1128-7.2915-4.861-.9807,3.8376-1.3218,7.5473-1.2792,11.6408,2.3878-2.3452,5.1168-3.4965,8.059-4.2214.4264-.0426,1.2792.0853,1.2365-.5117h0Zm11.8539,25.2004c-7.9311-2.8996-14.4124-7.3341-19.9557-13.1332,3.1554,10.9159,12.1952,14.1566,19.9557,13.1332Z"/><path class="cls-2" d="m3.4591,74.539l1.8758-2.751-3.0467-1.3459-.3075-1.0763,6.2376-1.7835.343,1.2064-4.3784,1.2513.0095.0355,2.7131,1.1756.0473.1703-1.6794,2.4316.0095.0355,4.3784-1.2513.3454,1.204-6.2376,1.7835-.3099-1.0857h-.0001Z"/><path class="cls-2" d="m1.1788,64.3299l6.4221-.9154.1774,1.2418-6.4221.913-.1774-1.2395h0Z"/><path class="cls-2" d="m.7081,57.8132c-.0047-.6741.1277-1.2773.3998-1.8048s.6552-.9391,1.152-1.2347c.4967-.2933,1.055-.4423,1.6771-.4471.6363-.0047,1.1993.1372,1.6913.4258.492.2909.8752.7025,1.1496,1.2395.272.5369.4116,1.152.4163,1.8498l.0189,2.6422-6.486.0449-.0189-2.7155h0Zm5.5067.0899c-.0047-.6931-.2176-1.2466-.6363-1.6629s-.9651-.6221-1.6416-.6174c-.6978.0047-1.2489.22-1.6534.6434-.4021.4258-.6008.9958-.5961,1.7126l.0095,1.2891,4.5274-.0308-.0095-1.3341h0Z"/><path class="cls-2" d="m1.1078,49.7968l5.0809-3.0869-4.4706-.7191.1963-1.2087,6.4032,1.029-.1703,1.0644-5.159,3.0963,4.5416.7309-.194,1.2111-6.4032-1.0313.175-1.0857h0Z"/><path class="cls-2" d="m3.2911,39.9118l6.2092,1.8734-.3619,1.1993-6.2092-1.8734s.3619-1.1993.3619-1.1993Z"/><path class="cls-2" d="m5.7961,33.1751c.3288-.7285.8161-1.3767,1.4642-1.9491l1.0455.4731c-.6883.5511-1.1874,1.1756-1.4997,1.8687-.194.4329-.2815.8563-.2602,1.2679.0213.4139.1514.7853.3903,1.1165.2413.3312.5606.5843.958.764.6032.272,1.1803.2909,1.7291.0544.5511-.2365.9722-.6836,1.2679-1.3412.0828-.1798.1443-.3595.1892-.5393.0426-.1798.071-.4021.0875-.6718l-.9816-.4423-.4423.9793-.8918-.4021.9533-2.1218,2.4387,1.0976c.0733.3832.0757.8042.0047,1.2631-.0686.4589-.2034.9083-.3998,1.3483-.2815.6245-.6647,1.133-1.1496,1.5233s-1.0219.6245-1.6132.6978c-.5914.0757-1.1709-.0142-1.7409-.272-.5795-.2602-1.0384-.6387-1.3767-1.1354-.3406-.4991-.5251-1.0621-.5535-1.6913s.0993-1.2584.3808-1.8876h0Z"/><path class="cls-2" d="m9.3939,26.6844l2.2637,1.5257,1.8805-2.7936-2.2661-1.5233.7025-1.0408,5.3789,3.6238-.7002,1.0384-2.2732-1.5304-1.8805,2.7936,2.2732,1.5304-.7002,1.0384-5.3789-3.6214.7002-1.0408h0Z"/><path class="cls-2" d="m17.9401,16.0968l.7144.6694-1.5706,1.6818,4.0236,3.7586-.8539.9154-4.0259-3.7563-1.5706,1.6818-.7167-.667,3.9999-4.2838h-.0002Z"/><path class="cls-2" d="m25.2634,10.1005c.5204-.3572,1.1094-.5724,1.7717-.6434l.6316.9178c-.783.0449-1.3885.2176-1.8166.5109-.2602.1798-.4281.3714-.5062.5724s-.0568.3856.0591.5535c.1372.2034.4021.2957.7924.2768.1112,0,.5038-.0615,1.178-.1798.5819-.0946,1.055-.0828,1.4216.0355.369.1183.6741.3548.9178.7096.317.4589.4069.9438.2697,1.4524-.1348.5086-.466.9438-.9911,1.3057-.3406.2342-.6599.3998-.958.4944s-.6623.1561-1.0952.1821l-.7002-1.0171c.8965.0804,1.5967-.052,2.1029-.3998.2531-.175.4187-.369.4991-.5866.0781-.2153.0568-.4163-.0686-.5961-.1703-.2484-.4447-.3548-.8208-.3241-.3075.0308-.6978.0828-1.1709.1561-.5511.0993-1.0195.0923-1.4027-.0189s-.6907-.3359-.9225-.6718c-.3099-.4494-.3903-.9225-.2389-1.4169.1514-.4967.4991-.9343,1.0479-1.3128h0Z"/><path class="cls-2" d="m31.035,6.6801l1.6534,3.3944c.1703.3477.3572.5984.5606.7522.2058.1561.4589.2436.7593.2602.3028.0189.6103-.0497.9249-.2011.3454-.1679.6079-.3761.7853-.6197.1798-.2436.272-.5015.2768-.7735.0047-.2744-.0875-.6032-.2768-.9887l-1.6156-3.3187,1.1259-.5488,1.6889,3.463c.3832.7853.44,1.502.1774,2.1525-.2649.6505-.8279,1.1874-1.6865,1.6061-.5417.2626-1.055.395-1.547.395-.4896.0024-.9272-.1277-1.3128-.3879-.3856-.2626-.6978-.6387-.9367-1.1283l-1.7078-3.5055,1.1307-.5511h0Z"/><path class="cls-2" d="m39.78,2.9782l4.9555,3.2856-1.2513-4.35,1.178-.3406,1.7906,6.2352-1.0337.298-4.9981-3.3518,1.2726,4.421-1.178.3383-1.793-6.2329,1.0573-.3028h0Z"/><path class="cls-2" d="m54.9919.2817c.6079-.0237,1.1117.123,1.5091.4447.3974.3217.6079.7522.6292,1.2939.0166.369-.0662.6931-.246.9745-.1774.2815-.4518.5086-.8184.6812.2105.1041.4021.2484.5701.4329s.3808.4991.6387.9438c.4281.7711.7427,1.2986.9485,1.5872l-1.398.0591c-.1017-.1396-.2413-.3619-.4163-.667-.3879-.6741-.6694-1.1283-.8468-1.3601-.1774-.2342-.3454-.3974-.5038-.492s-.3383-.1372-.5393-.1277l-.4542.0189.1135,2.7368-1.2537.052-.2673-6.4812s2.3347-.097,2.3347-.097Zm-.1703,2.777c.3288-.0142.5819-.1064.7617-.2768.1821-.1727.2649-.3998.2531-.686-.0118-.2957-.1135-.5133-.3051-.6529s-.4589-.2034-.8019-.1892l-.7806.0331.0757,1.8048.7971-.0331h0Z"/><path class="cls-2" d="m64.5955.6838l2.0887,6.7769-1.3128-.1538-.4849-1.6463-2.8645-.3383-.8066,1.4949-1.3057-.1538,3.4133-6.1288,1.2726.149v.0002Zm-2.0839,3.7374l2.0792.246-.7877-2.6776-1.2915,2.4316Z"/><path class="cls-2" d="m71.4836,1.9682l2.4198,5.431,1.2773-4.3429,1.1756.3454-1.8308,6.2234-1.0337-.3051-2.4198-5.509-1.2986,4.4162-1.1756-.3477,1.8308-6.221,1.055.3099v-.0002Z"/><path class="cls-2" d="m82.3385,6.013c.6055.3004,1.081.6907,1.4311,1.1709.3477.4825.5417,1.01.5795,1.5848.0402.5772-.0804,1.1425-.3572,1.7007-.2815.5677-.6623,1.0053-1.1425,1.3152s-1.0219.466-1.625.466c-.6008.0024-1.2135-.1514-1.8379-.4613l-2.3654-1.1756,2.8858-5.8095,2.4316,1.2087h0Zm-2.5665,4.8727c.6221.3099,1.2111.369,1.7717.1845.563-.1869.9935-.5819,1.2939-1.1851.3099-.6268.3666-1.2158.1679-1.767-.1963-.5511-.615-.9864-1.256-1.3033l-1.1567-.5748-2.013,4.052,1.1922.5937Z"/><path class="cls-2" d="m91.0621,11.2193c.5393.3998.9438.8705,1.2111,1.4122s.3737,1.1165.3217,1.7268c-.0544.6079-.2649,1.1638-.6363,1.6629-.3595.4896-.8184.8492-1.3767,1.081s-1.1425.3028-1.748.2105c-.6079-.0923-1.1851-.3406-1.7315-.7451-.5417-.3998-.9462-.8799-1.2158-1.4405s-.3761-1.1354-.3193-1.7268c.0568-.5937.2673-1.1354.6339-1.6321.3524-.4778.8066-.835,1.3648-1.0739.5559-.2389,1.1378-.3146,1.7433-.2271.6055.0852,1.1898.3383,1.7528.7522h0Zm-3.8201,1.3199c-.2555.3454-.4069.7144-.4542,1.107s.0142.7664.1821,1.1259.4281.6694.7806.9296c.5369.395,1.0999.5511,1.6936.4707s1.0857-.3879,1.476-.9178c.2555-.3454.4092-.7144.4589-1.107s-.0118-.7688-.1821-1.1307c-.1703-.3595-.4329-.6718-.7853-.932-.3548-.2626-.7285-.4187-1.1236-.4754-.3974-.0544-.7711-.0024-1.1259.1608-.3572.1632-.6623.4187-.9201.7688h0Z"/><path class="cls-2" d="m97.2074,16.5439l-.6434,5.9088,3.2903-3.1082.8421.8894-4.7143,4.4564-.7404-.783.6812-5.9798-3.3423,3.1602-.8421-.8894,4.7143-4.4564.7546.8019h0Z"/><path class="cls-2" d="m103.6485,24.1226l-1.6605,5.7077,3.7799-2.4884.6741,1.0242-5.4168,3.567-.5937-.9012,1.7126-5.7669-3.8438,2.5286-.6741-1.0242,5.4192-3.5647.6032.9178h0Z"/><path class="cls-2" d="m109.9405,35.5807l-.8918.4021-1.2111-2.6776-1.5517.7025,1.1591,2.5641-.8941.4045-1.1591-2.5641-1.6794.7593,1.2371,2.7368-.8918.4045-1.7528-3.8816,5.9088-2.6706s1.7268,3.8201,1.7268,3.8201Zm1.6227-1.3696l-2.1762-.9391-.2909-.641,1.8214.149.6458,1.4311h0Z"/><path class="cls-2" d="m112.3674,42.9892l-.9391.2768-.8303-2.8196-1.6345.4825.7948,2.6989-.9414.2768-.7924-2.6989-1.7693.5204.8492,2.8811-.9414.2768-1.2016-4.0851,6.2234-1.8308,1.1827,4.0212h0Z"/><path class="cls-2" d="m113.9238,53.1344l-6.467.492-.0923-1.1851,6.4694-.492s.0899,1.1851.0899,1.1851Z"/><path class="cls-2" d="m114.0918,58.9368c-.026.6174-.2223,1.0976-.5866,1.4476-.3666.3477-.8421.5109-1.4263.4873-.4447-.0189-.9225-.175-1.4311-.466-.5086-.2933-1.178-.7971-2.0059-1.5115l-.0923,2.2211-1.1212-.0449.1727-4.1986.1348.0047c.5819.5133,1.107.9556,1.573,1.327.4684.3714.8563.6576,1.1638.8634.3099.2058.5748.3524.7924.4423.22.0899.4494.1396.686.149.298.0118.5511-.0733.7617-.2555s.3217-.4092.3335-.6812c.0189-.4873-.2389-1.0053-.7735-1.5541l1.2726.052c.3879.5701.5701,1.1425.5464,1.7173h0Z"/><path class="cls-2" d="m113.3041,66.5983c-.1112.6458-.492,1.1094-1.1401,1.3885-.6458.2815-1.476.3335-2.486.1608-1.0171-.175-1.7906-.4991-2.3134-.9769-.5251-.4754-.7333-1.0384-.6197-1.6889.1112-.6576.492-1.1283,1.1425-1.4122.6505-.2815,1.4831-.3359,2.5002-.1632,1.0124.175,1.7788.5015,2.3015.984.5204.4825.7262,1.0502.615,1.7078h0Zm-3.1578-1.5068c-1.4618-.2507-2.2448-.0639-2.3536.5606-.1041.6103.6126,1.0479,2.1502,1.3104,1.4358.2484,2.2069.0615,2.3134-.5535.1064-.6197-.5961-1.0597-2.1099-1.3175h0Z"/><path class="cls-2" d="m111.5537,73.8436c-.194.6268-.6316,1.0361-1.3104,1.2276s-1.5091.1348-2.486-.1703c-.9864-.3075-1.7078-.7333-2.1667-1.275-.4565-.5417-.5866-1.1259-.3903-1.7551.2011-.6387.641-1.055,1.3223-1.2489s1.5139-.1372,2.4979.1679c.9816.3075,1.6984.7333,2.1525,1.2821.4518.5464.5795,1.1378.3808,1.7717h0Zm-2.9284-1.9113c-1.4145-.4423-2.2164-.3595-2.4056.246-.1845.5914.466,1.1188,1.9562,1.5825,1.3909.4352,2.1809.3548,2.3678-.2436s-.4518-1.1283-1.9183-1.5848h0Z"/><path class="cls-2" d="m12.2247,81.4821c.1501.3023.1721.6091.0684.9202-.1059.3089-.3067.5406-.6068.6885-.2979.1478-.6024.1721-.9136.0684s-.5406-.3067-.6929-.6091c-.1456-.2935-.1677-.598-.0662-.9092.1015-.3134.3045-.5428.6024-.6929.2957-.1478.6002-.1699.9136-.0662.3156.1037.5473.3045.6951.6002h0Z"/><path class="cls-2" d="m19.573,89.4329c.2118.2714.3884.5605.5296.8672.1434.3067.2582.6686.3442,1.0835l-.865.6797c-.0618-.4259-.1523-.7922-.2736-1.0989-.1192-.3067-.2847-.5958-.4965-.8672-.267-.3376-.5759-.5892-.929-.7525-.3553-.1633-.7172-.2207-1.0901-.1721s-.715.1964-1.0261.4391c-.3178.2516-.5451.5495-.6797.8959-.1346.3487-.1633.7128-.0861,1.0945.075.3796.2472.7392.5142,1.0813.2052.2604.4391.4811.6995.6598.2626.1787.6311.3707,1.11.5782l-.865.6797c-.4038-.1809-.7415-.3751-1.0129-.5804-.2714-.2074-.5428-.4811-.8143-.8275-.3928-.5009-.6444-1.0283-.7547-1.58-.1103-.5539-.0662-1.0901.1324-1.6109s.5208-.9577.9687-1.3086c.4789-.3751,1.0018-.598,1.5668-.6642.5627-.0662,1.1078.0243,1.6352.2692s.9908.6245,1.3924,1.1342Z"/><path class="cls-2" d="m23.1368,93.5307l-.3134,2.4759,2.4627-.4656,1.0173.9511-3.7558.6664-2.0478,2.1913-.854-.7988,2.0522-2.1957.3994-3.7955,1.0394.9709Z"/><path class="cls-2" d="m28.9118,98.4274l-1.5822,2.3016.0221.0154,3.4094-1.046,1.0967.7525-3.4711,1.0725.5914,4.292-1.2335-.8496-.5759-4.0008-1.6837,2.4472-.9643-.662,3.4292-4.9849.9621.662h-.0002Z"/><path class="cls-2" d="m37.7518,103.5359l-.406.8209-2.4583-1.2137-.7039,1.4255,2.3546,1.1607-.4038.8209-2.3546-1.1607-.7591,1.5425,2.5134,1.238-.406.8209-3.5616-1.7565,2.6767-5.4285,3.5087,1.7301h-.0001Z"/><path class="cls-2" d="m41.3311,104.9063l-1.633,4.8702,2.7827.9334-.2891.8672-3.8926-1.3064,1.9242-5.7374,1.1078.3729h0Z"/><path class="cls-2" d="m47.6004,106.6363l-1.2821,5.914-1.1431-.2472,1.2821-5.914,1.1431.2472Z"/><path class="cls-2" d="m51.451,107.2917l3.2328,4.5061.3487-4.2082,1.1409.0927-.5009,6.0309-1.0018-.0839-3.2483-4.5767-.3553,4.2788-1.1409-.0949.5009-6.0309,1.0239.0861Z"/><path class="cls-2" d="m63.7623,107.2741l.0662.9114-2.1427.1589.3818,5.124-1.1651.0861-.3818-5.1218-2.1427.1589-.0684-.9114,5.4528-.406h0Z"/><path class="cls-2" d="m68.1073,106.4245c.5539-.1236,1.0416-.0728,1.4586.1545.4193.2295.6841.5892.7944,1.0835.0772.3354.0552.6466-.0618.9334-.117.2891-.3288.5428-.6377.7635.2118.0596.4104.1589.5958.3023.1854.1412.4347.395.7437.7591.523.6333.9025,1.0658,1.1365,1.2975l-1.2711.2869c-.117-.1103-.2803-.2891-.4943-.5406-.47-.5539-.8032-.9246-1.0063-1.1078-.2008-.1832-.3818-.3067-.5428-.3663s-.3332-.0684-.5164-.0265l-.4149.0927.5627,2.4936-1.1409.256-1.3328-5.9007,2.1273-.4811h0Zm.3089,2.5774c.2979-.0684.5164-.1942.6532-.384.1368-.1876.1765-.4104.117-.6686-.0596-.2714-.1898-.4546-.3906-.5495-.1986-.0949-.4546-.1081-.7679-.0375l-.7084.1589.3707,1.644s.726-.1633.726-.1633Z"/><path class="cls-2" d="m76.5258,103.7389l.3244.854-2.5642.9732.5649,1.4873,2.4539-.9312.3244.854-2.4539.9312.6091,1.6087,2.6216-.9952.3222.854-3.7117,1.4101-2.1471-5.658,3.6565-1.388h0Z"/><path class="cls-2" d="m80.4516,101.7044c.5164-.2803,1.0857-.4215,1.7058-.4215l.4943.9158c-.7304-.0353-1.3086.0618-1.7367.2935-.2582.139-.4347.3001-.5252.4789-.0927.1787-.0927.3531-.0022.5208.1081.2008.3442.3111.7084.3354.1037.0088.4744-.0066,1.11-.0485.5495-.0309.9886.0265,1.3174.1743s.5892.3972.779.7503c.2472.4568.2825.9158.1059,1.3748-.1787.4568-.5296.8275-1.0526,1.1122-.3398.1832-.6532.3045-.9378.3619-.2869.0574-.6311.0772-1.0349.0596l-.5473-1.0151c.8253.1655,1.4873.1125,1.9904-.1589.2516-.1368.4259-.3023.5208-.4943.0971-.192.0949-.3796-.0022-.5605-.1324-.2449-.3751-.3729-.7282-.384-.2891,0-.6576.0088-1.1011.0309-.523.0353-.9555-.0177-1.2997-.1611-.3465-.1412-.6091-.3796-.79-.715-.2405-.448-.267-.8937-.0772-1.3395.1876-.4435.5561-.8143,1.1034-1.11h-.0003Z"/><path class="cls-2" d="m85.7807,98.3524c.4766-.3442,1.0239-.5583,1.6374-.6377l.6091.843c-.7282.0596-1.2909.2317-1.6837.5164-.2383.1721-.3928.3531-.4612.5428-.0662.1898-.0441.3619.0662.5164.1346.1832.3818.2648.7459.2405.1037-.0044.47-.0684,1.0967-.192.5384-.1015.982-.1015,1.3262.0022s.6355.3178.8694.6444c.3045.4215.3994.8694.2825,1.3483-.117.4766-.4149.8893-.8981,1.238-.3134.2273-.6091.3862-.8849.4811s-.6135.1589-1.0173.192l-.673-.9334c.8385.0574,1.4895-.0816,1.9529-.4171.2317-.1677.3818-.3531.4524-.5561.0706-.2052.0463-.3884-.075-.5561-.1633-.2273-.4215-.3222-.7723-.2847-.2869.0353-.651.0927-1.0879.1699-.5142.1037-.9511.1081-1.3108.011-.3597-.0949-.651-.2979-.8739-.6068-.2979-.4127-.3818-.8518-.2516-1.3174s.448-.8805.9511-1.2446h-.0001Z"/><path class="cls-2" d="m92.2001,92.968l.6267.6642-1.9927,1.8823,1.0901,1.1563,1.9088-1.8029.6267.6664-1.9088,1.8007,1.1806,1.2512,2.039-1.9242.6267.6642-2.8886,2.7275-4.153-4.4024,2.8444-2.6834h0Z"/><path class="cls-2" d="m97.1166,87.1136l.715.5693-1.3373,1.6815,4.0184,3.1975-.726.9158-4.0206-3.1997-1.3373,1.6815-.715-.5693,3.4027-4.2766h0Z"/><path class="cls-2" d="m102.2317,82.0625c.1545-.3001.3884-.5009.7017-.6002.3111-.0993.6179-.0706.9136.0816s.4943.384.5958.6951.075.6179-.0816.918c-.1501.2935-.3818.4899-.6929.5936-.3134.1015-.6179.0772-.9158-.0772-.2935-.1501-.4899-.3818-.5936-.6973-.1037-.3134-.0794-.6179.0728-.9136Z"/><path class="cls-3" d="m133.39,62.9398l8.9648,10.7617,8.9648-10.7617h4.707v27.2852h-5.2734v-19.1602h-.1562l-7.8906,9.6094h-.7422l-7.8906-9.6094h-.1562v19.1602h-5.2734v-27.2852h4.7461Zm33.2227,0v27.2852h-5.2734v-27.2852h5.2734Zm16.7393,0c2.8389,0,5.3643.5801,7.5781,1.7383,2.2139,1.1592,3.9326,2.7871,5.1562,4.8828,1.2236,2.0967,1.8359,4.4531,1.8359,7.0703,0,2.6699-.6152,5.0361-1.8457,7.0996-1.2305,2.0645-2.9785,3.6621-5.2441,4.7949s-4.8633,1.6992-7.793,1.6992h-11.1133v-27.2852h11.4258Zm-.5469,23.1641c2.917,0,5.2568-.875,7.0215-2.627,1.7646-1.751,2.6465-4.0459,2.6465-6.8848,0-2.9424-.8887-5.2666-2.666-6.9727-1.7773-1.7051-4.1699-2.5586-7.1777-2.5586h-5.4297v19.043h5.6055Zm23.6592-23.1641l16.2109,19.043v-19.043h5.1562v27.2852h-4.5312l-16.3086-19.3555v19.3555h-5.1562v-27.2852h4.6289Zm31.958,0v27.2852h-5.2734v-27.2852h5.2734Zm19.3574-.3516c3.3594,0,6.6924.749,10,2.2461v4.8242c-3.3076-1.6797-6.5625-2.5195-9.7656-2.5195-1.9922,0-3.7627.3975-5.3125,1.1914-1.5498.7949-2.751,1.9375-3.6035,3.4277-.8525,1.4912-1.2793,3.1543-1.2793,4.9902,0,2.7871.9277,5.0293,2.7832,6.7285s4.2998,2.5488,7.334,2.5488c.833,0,1.6309-.0713,2.3926-.2148.7617-.1426,1.6699-.416,2.7246-.8203v-4.5312h-4.5117v-4.1211h9.7852v11.25c-1.3408.9375-2.9521,1.6699-4.834,2.1973s-3.8379.791-5.8691.791c-2.8779,0-5.4854-.5918-7.8223-1.7773-2.3369-1.1846-4.1602-2.8447-5.4688-4.9805-1.3086-2.1348-1.9629-4.5176-1.9629-7.1484,0-2.6689.6611-5.084,1.9824-7.2461,1.3213-2.1611,3.1641-3.8408,5.5273-5.0391,2.3633-1.1973,4.9971-1.7969,7.9004-1.7969Zm20.7256.3516v11.4844h14.1602v-11.4844h5.2734v27.2852h-5.2734v-11.5234h-14.1602v11.5234h-5.2734v-27.2852h5.2734Zm46.6338,0v4.1211h-9.6875v23.1641h-5.2734v-23.1641h-9.6875v-4.1211h24.6484Zm21.0273-.3516c2.6562,0,5.2148.6641,7.6758,1.9922v4.6875c-2.8252-1.7051-5.332-2.5586-7.5195-2.5586-1.3281,0-2.3662.2578-3.1152.7715-.749.5146-1.123,1.2012-1.123,2.0605,0,1.0293.6963,1.9795,2.0898,2.8516.3906.2607,1.8945.9902,4.5117,2.1875,2.2393,1.0547,3.8545,2.2266,4.8438,3.5156s1.4844,2.8389,1.4844,4.6484c0,2.3438-.8428,4.2354-2.5293,5.6738-1.6865,1.4395-3.8701,2.1582-6.5527,2.1582-1.7451,0-3.2451-.1924-4.502-.5762-1.2568-.3838-2.666-1.0449-4.2285-1.9824v-5.1953c2.917,2.4219,5.6641,3.6328,8.2422,3.6328,1.2891,0,2.3311-.2793,3.125-.8398.7939-.5596,1.1914-1.3018,1.1914-2.2266,0-1.2627-.6904-2.291-2.0703-3.0859-1.1455-.625-2.624-1.373-4.4336-2.2461-2.1484-.9766-3.7529-2.1152-4.8145-3.418-1.0615-1.3018-1.5918-2.8125-1.5918-4.5312,0-2.291.8525-4.1172,2.5586-5.4785,1.7061-1.3604,3.958-2.041,6.7578-2.041Zm17.5469.3516v15.8789c0,1.6279.2441,2.9238.7324,3.8867.4883.9639,1.2861,1.7578,2.3926,2.3828s2.3955.9375,3.8672.9375c1.6143,0,2.9854-.2959,4.1113-.8887,1.126-.5918,1.9502-1.3994,2.4707-2.4219.5205-1.0215.7812-2.4375.7812-4.248v-15.5273h5.2734v16.2109c0,3.6719-1.1006,6.4941-3.3008,8.4668s-5.3125,2.959-9.3359,2.959c-2.5264,0-4.7168-.4492-6.5723-1.3477s-3.2715-2.1973-4.248-3.8965-1.4648-3.6943-1.4648-5.9863v-16.4062h5.293Zm29.3184,0l16.2109,19.043v-19.043h5.1562v27.2852h-4.5312l-16.3086-19.3555v19.3555h-5.1562v-27.2852h4.6289Zm46.3008,0c2.5654,0,4.6553.71,6.2695,2.1289,1.6143,1.4199,2.4219,3.2686,2.4219,5.5469,0,1.5498-.4004,2.9004-1.2012,4.0527s-1.9893,2.0605-3.5645,2.7246c.8721.4688,1.6475,1.1074,2.3242,1.9141.6768.8076,1.5166,2.168,2.5195,4.082,1.667,3.3076,2.9033,5.5859,3.7109,6.8359h-5.8789c-.4033-.5986-.9502-1.5557-1.6406-2.8711-1.5107-2.9033-2.6172-4.8594-3.3203-5.8691-.7031-1.0088-1.3799-1.7246-2.0312-2.1484-.6514-.4229-1.3994-.6348-2.2461-.6348h-1.9141v11.5234h-5.2734v-27.2852h9.8242Zm-1.1914,11.6406c1.3799,0,2.4639-.3447,3.252-1.0352.7881-.6895,1.1816-1.6338,1.1816-2.832,0-1.25-.3906-2.1836-1.1719-2.8027-.7812-.6182-1.8945-.9277-3.3398-.9277h-3.2812v7.5977h3.3594Zm31.2646-11.6406l12.0508,27.2852h-5.5664l-2.832-6.6406h-12.1289l-2.6367,6.6406h-5.5273l11.25-27.2852h5.3906Zm-6.875,16.6406h8.8086l-4.6094-10.8008-4.1992,10.8008Zm25.7266-16.6406l16.2109,19.043v-19.043h5.1562v27.2852h-4.5312l-16.3086-19.3555v19.3555h-5.1562v-27.2852h4.6289Zm38.0566,0c2.8389,0,5.3643.5801,7.5781,1.7383,2.2139,1.1592,3.9326,2.7871,5.1562,4.8828,1.2236,2.0967,1.8359,4.4531,1.8359,7.0703,0,2.6699-.6152,5.0361-1.8457,7.0996-1.2305,2.0645-2.9785,3.6621-5.2441,4.7949s-4.8633,1.6992-7.793,1.6992h-11.1133v-27.2852h11.4258Zm-.5469,23.1641c2.917,0,5.2568-.875,7.0215-2.627,1.7646-1.751,2.6465-4.0459,2.6465-6.8848,0-2.9424-.8887-5.2666-2.666-6.9727-1.7773-1.7051-4.1699-2.5586-7.1777-2.5586h-5.4297v19.043h5.6055Zm32.6797-23.5156c2.8252,0,5.3682.583,7.627,1.748,2.2588,1.166,4.0596,2.8457,5.4004,5.0391,1.3408,2.1943,2.0117,4.5996,2.0117,7.2168,0,2.5527-.6543,4.9189-1.9629,7.0996-1.3086,2.1816-3.1055,3.874-5.3906,5.0781-2.2852,1.2051-4.8604,1.8066-7.7246,1.8066-2.8252,0-5.3936-.6113-7.7051-1.8359-2.3115-1.2236-4.1113-2.9062-5.4004-5.0488-1.2891-2.1416-1.9336-4.5078-1.9336-7.0996,0-2.5.6445-4.8496,1.9336-7.0508,1.2891-2.2002,3.0664-3.9092,5.332-5.127,2.2656-1.2168,4.8701-1.8262,7.8125-1.8262Zm-9.6289,14.0039c0,1.8105.4102,3.4375,1.2305,4.8828s1.9629,2.5654,3.4277,3.3594c1.4648.7949,3.1221,1.1914,4.9707,1.1914,2.7998,0,5.1006-.8789,6.9043-2.6367s2.7051-4.0234,2.7051-6.7969c0-1.8096-.4072-3.4404-1.2207-4.8926-.8135-1.4512-1.96-2.5742-3.4375-3.3691-1.4775-.7939-3.1416-1.1914-4.9902-1.1914s-3.5127.4004-4.9902,1.2012-2.6143,1.9209-3.4082,3.3594c-.7939,1.4395-1.1914,3.0703-1.1914,4.8926Zm33.2061-13.6523l16.2109,19.043v-19.043h5.1562v27.2852h-4.5312l-16.3086-19.3555v19.3555h-5.1562v-27.2852h4.6289Zm31.2607,0l16.2109,19.043v-19.043h5.1562v27.2852h-4.5312l-16.3086-19.3555v19.3555h-5.1562v-27.2852h4.6289Zm44.2676,0v4.1211h-12.3633v7.168h11.8359v4.1211h-11.8359v7.7539h12.6367v4.1211h-17.9102v-27.2852h17.6367Zm-2.4414-8.5938l-7.3633,6.7188h-2.9688l3.7305-6.7188h6.6016Zm24.5498,8.5938v4.1211h-12.3633v7.168h11.8359v4.1211h-11.8359v7.7539h12.6367v4.1211h-17.9102v-27.2852h17.6367ZM127.097,36.2899h2.6367v18.4175h-2.6367v-18.4175Zm15.9951-.0527l.2637-.1846,1.5947,2.0039c-1.4062.9072-2.5732,1.8979-3.5,2.9722-.9277,1.0742-1.6416,2.3379-2.1426,3.791.9756-.501,1.9463-.7515,2.9131-.7515,1.4512,0,2.6719.5142,3.666,1.5425.9922,1.0283,1.4893,2.2896,1.4893,3.7837,0,1.5381-.54,2.8433-1.6221,3.9155-1.0801,1.0723-2.3945,1.6084-3.9414,1.6084-1.7314,0-3.1309-.6084-4.1992-1.8262-1.0674-1.2168-1.6016-2.8101-1.6016-4.7788,0-1.4766.2744-2.9468.8242-4.4097.5488-1.4639,1.3398-2.835,2.373-4.1133,1.0322-1.2793,2.3262-2.4634,3.8828-3.5532Zm-4.3516,11.3115c-.0703.4131-.1055.8745-.1055,1.3843,0,1.0371.3018,1.8896.9033,2.5576.6025.668,1.373,1.002,2.3135,1.002.8438,0,1.541-.2856,2.0898-.8569.5498-.5713.8242-1.292.8242-2.1621,0-.8877-.292-1.606-.877-2.1558-.584-.5488-1.3555-.8237-2.3135-.8237-.4922,0-.9385.0747-1.3379.2241-.4004.1494-.8994.4263-1.4971.8306Zm16.5889-.1055h6.5654v2.5708h-6.5654v-2.5708Zm19.1621,4.7197h7.0107v2.5444h-11.6543v-.1846l1.1074-1.3052c1.7314-2.1445,3.1094-3.9639,4.1328-5.458,1.0244-1.4941,1.6924-2.6235,2.0039-3.3882.3125-.7646.4678-1.5205.4678-2.2676,0-1.0371-.2939-1.8696-.8828-2.498s-1.3711-.9429-2.3467-.9429c-.7383,0-1.4658.2173-2.1816.6528-.7168.4346-1.3604,1.0479-1.9316,1.8389v-3.3486c1.4326-1.1689,2.9092-1.7534,4.4297-1.7534,1.6084,0,2.9336.5361,3.9746,1.6084,1.042,1.0728,1.5625,2.4351,1.5625,4.0874,0,.7388-.1299,1.5273-.3887,2.3672-.2588.8394-.7188,1.8062-1.377,2.9004-.6592,1.0942-1.7793,2.5864-3.3604,4.4761l-.5664.6709Zm16.0879-16.1104c1.6875,0,3.083.8857,4.1855,2.6567,1.1035,1.771,1.6543,4.0186,1.6543,6.7432,0,2.7949-.5508,5.0669-1.6543,6.8159-1.1025,1.749-2.5332,2.6235-4.291,2.6235-1.7842,0-3.2168-.8569-4.2979-2.5708s-1.6221-3.9858-1.6221-6.8159c0-2.7949.5586-5.0693,1.6748-6.8223,1.1162-1.7539,2.5664-2.6304,4.3506-2.6304Zm.0264,2.5049h-.1318c-1.0107,0-1.8125.6221-2.4062,1.8657-.5928,1.2437-.8896,2.9287-.8896,5.0557,0,2.1797.29,3.8892.8701,5.1284s1.3799,1.8589,2.3994,1.8589,1.8232-.6196,2.4131-1.8589c.5879-1.2393.8828-2.9224.8828-5.0493,0-2.1357-.2832-3.8364-.8506-5.1021-.5664-1.2656-1.3291-1.8984-2.2871-1.8984Zm18.876-2.2676h2.6367v18.1802c0,1.6963-.1738,2.9507-.5205,3.7637-.3477.8125-.9082,1.4639-1.6807,1.9512-.7744.4883-1.7061.7314-2.7949.7314-.167,0-.4531-.0264-.8574-.0791l-.4883-2.4517h.6729c.7559,0,1.334-.0923,1.7334-.2769.4004-.1846.7168-.5098.9492-.9756.2334-.4658.3496-1.4546.3496-2.9663v-17.877Zm21.1963,0h2.6494v10.4546c0,1.415-.1025,2.4829-.3096,3.2036-.2061.7207-.4609,1.3208-.7646,1.7993-.3027.4795-.6748.9077-1.1133,1.2856-1.46,1.2568-3.3672,1.8853-5.7227,1.8853-2.3984,0-4.3242-.624-5.7734-1.8721-.4404-.3867-.8115-.8193-1.1143-1.2988-.3037-.4785-.5537-1.0654-.752-1.7598-.1973-.6943-.2959-1.7842-.2959-3.2695v-10.4282h2.6494v10.4546c0,1.7314.1982,2.9355.5928,3.6123.3965.6768.998,1.2197,1.8066,1.6279.8086.4092,1.7617.6133,2.8613.6133,1.5635,0,2.8379-.4087,3.8223-1.2261.5186-.4395.8926-.958,1.1211-1.5557s.3428-1.6216.3428-3.0718v-10.4546Zm22.5801,0h2.5049v18.4175h-2.2676l-12.3135-14.1841v14.1841h-2.4785v-18.4175h2.1357l12.4189,14.3047v-14.3047Zm8.0312,0h10.4414v2.3467h-7.8047v5.6162h7.541v2.3599h-7.541v5.7217h8.0557v2.3467h-10.6924v-18.3911Zm27.2383,15.873h7.0107v2.5444h-11.6543v-.1846l1.1074-1.3052c1.7314-2.1445,3.1094-3.9639,4.1328-5.458,1.0244-1.4941,1.6924-2.6235,2.0039-3.3882.3125-.7646.4678-1.5205.4678-2.2676,0-1.0371-.2939-1.8696-.8828-2.498s-1.3711-.9429-2.3467-.9429c-.7383,0-1.4658.2173-2.1816.6528-.7168.4346-1.3604,1.0479-1.9316,1.8389v-3.3486c1.4326-1.1689,2.9092-1.7534,4.4297-1.7534,1.6084,0,2.9336.5361,3.9746,1.6084,1.042,1.0728,1.5625,2.4351,1.5625,4.0874,0,.7388-.1299,1.5273-.3887,2.3672-.2588.8394-.7188,1.8062-1.377,2.9004-.6592,1.0942-1.7793,2.5864-3.3604,4.4761l-.5664.6709Zm16.0869-16.1104c1.6875,0,3.083.8857,4.1855,2.6567,1.1035,1.771,1.6543,4.0186,1.6543,6.7432,0,2.7949-.5508,5.0669-1.6543,6.8159-1.1025,1.749-2.5332,2.6235-4.291,2.6235-1.7842,0-3.2168-.8569-4.2979-2.5708s-1.6221-3.9858-1.6221-6.8159c0-2.7949.5586-5.0693,1.6748-6.8223,1.1162-1.7539,2.5664-2.6304,4.3506-2.6304Zm.0264,2.5049h-.1318c-1.0107,0-1.8125.6221-2.4062,1.8657-.5928,1.2437-.8896,2.9287-.8896,5.0557,0,2.1797.29,3.8892.8701,5.1284s1.3799,1.8589,2.3994,1.8589,1.8232-.6196,2.4131-1.8589c.5879-1.2393.8828-2.9224.8828-5.0493,0-2.1357-.2832-3.8364-.8506-5.1021-.5664-1.2656-1.3291-1.8984-2.2871-1.8984Zm13.3213,13.6055h7.0107v2.5444h-11.6543v-.1846l1.1074-1.3052c1.7314-2.1445,3.1094-3.9639,4.1328-5.458,1.0244-1.4941,1.6924-2.6235,2.0039-3.3882.3125-.7646.4678-1.5205.4678-2.2676,0-1.0371-.2939-1.8696-.8828-2.498s-1.3711-.9429-2.3467-.9429c-.7383,0-1.4658.2173-2.1816.6528-.7168.4346-1.3604,1.0479-1.9316,1.8389v-3.3486c1.4326-1.1689,2.9092-1.7534,4.4297-1.7534,1.6084,0,2.9336.5361,3.9746,1.6084,1.042,1.0728,1.5625,2.4351,1.5625,4.0874,0,.7388-.1299,1.5273-.3887,2.3672-.2588.8394-.7188,1.8062-1.377,2.9004-.6592,1.0942-1.7793,2.5864-3.3604,4.4761l-.5664.6709Zm17.8418-16.1104h1.082v10.3359h2.0566v2.2412h-2.0566v6.0776h-2.5713v-6.0776h-7.792v-1.1338l9.2812-11.4434Zm-1.4893,10.3359v-5.3384l-4.2617,5.3384h4.2617Z"/></svg>