<?xml version="1.0" encoding="UTF-8"?><svg id="Lager_1" xmlns="http://www.w3.org/2000/svg" width="242.434mm" height="40.5mm" xmlns:xlink="http://www.w3.org/1999/xlink" viewBox="0 0 687.2145 114.8031"><defs><style>.cls-1{fill:#dd6c48;}.cls-2{fill:url(#Namnlös_övertoning_5);}.cls-3{fill:url(#Namnlös_övertoning_59);}</style><radialGradient id="Namnlös_övertoning_5" cx="54.7441" cy="53.0869" fx="54.7441" fy="53.0869" r="44.6726" gradientTransform="translate(0 -1.0775) scale(1 1.0203)" gradientUnits="userSpaceOnUse"><stop offset=".3816" stop-color="#fca041"/><stop offset=".5023" stop-color="#f8943d"/><stop offset=".6639" stop-color="#f6893a"/><stop offset=".7844" stop-color="#ee6c30"/><stop offset=".9145" stop-color="#e85328"/><stop offset=".9935" stop-color="#e64a25"/></radialGradient><linearGradient id="Namnlös_övertoning_59" x1="403.5155" y1="36.0526" x2="403.5155" y2="90.5765" gradientUnits="userSpaceOnUse"><stop offset="0" stop-color="#d43742"/><stop offset=".1577" stop-color="#db5c40"/><stop offset=".3221" stop-color="#e27b3f"/><stop offset=".4608" stop-color="#e68f3e"/><stop offset=".5562" stop-color="#e8963e"/><stop offset=".5848" stop-color="#df9543"/><stop offset=".6315" stop-color="#c69452"/><stop offset=".6904" stop-color="#9e936b"/><stop offset=".7593" stop-color="#67918d"/><stop offset=".8357" stop-color="#228fb7"/><stop offset=".8705" stop-color="#008ecd"/><stop offset=".8944" stop-color="#0486c3"/><stop offset=".9344" stop-color="#1072a9"/><stop offset=".9852" stop-color="#245180"/><stop offset="1" stop-color="#2b4773"/></linearGradient></defs><path class="cls-2" d="m50.4266,90.2564c.7675-2.7716,1.9614-5.4153,2.9422-8.1443.3838-1.0234,1.1939-2.2173.8954-2.9848-.3411-.9381-1.9188-.8102-2.9848-1.1939-2.0468-.7249-2.0894-.6822-2.5584,1.4498-1.066,4.7757-2.0894,9.5514-2.7716,14.4977,2.3452-.2559,3.795-1.2792,4.4772-3.6244h0Zm36.7559-36.1163c2.4732,1.5777,4.861,3.2833,7.2915,5.3727.0426-6.4387-.9381-12.4936-2.729-18.4206-.2132-.7249-.597-.8954-1.2792-.9381-.8528-.0426-.8528.5117-.9381,1.066-.5117,4.0082-1.4498,7.8884-2.8142,11.6834-.2133.7249,0,.9381.469,1.2365h0Zm-35.1782,41.6169c1.9188.1279,3.8376.2985,5.7564.2985,5.7138,0,11.257-.9807,16.6297-2.8996.8528-.2985,1.0234-.6396.7249-1.4924-1.1939-3.4965-3.6244-6.0549-6.3108-8.4428-.6822-.6396-1.1086-.7675-1.9188,0-4.3493,4.1788-9.2529,7.6326-14.7109,10.3189-.3838.1706-.7249.3411-.9381.7675-.469.8955-.5543,1.3646.7675,1.4498h0Zm31.2979-41.958c-4.9889-2.8996-10.191-5.2874-15.5211-7.4194-.7675-.2985-1.066-.3411-1.3218.597-2.3452,9.0824-4.9463,18.0795-7.8458,27.0339-.2132.6822-.0853.9807.5543,1.2792,2.3026,1.0234,4.5199,2.26,6.6092,3.6244.597.4264,1.3218.469,1.663.5117,1.066.1706,1.3218-.4264,1.663-.8102,6.3534-6.7798,11.2997-14.4977,14.8388-23.111.3837-.8955.1279-1.2366-.6397-1.7056h0Zm8.3575-26.8207c-1.1086-1.7482-2.6864-3.0274-4.264-4.4346.1279,2.8569,2.3452,3.4965,4.264,4.4346Zm-6.4813,25.1151c1.1939-3.6244,2.132-7.3341,2.5158-10.9159.0426-.9807.0426-1.0234-.6822-1.1086-5.8417-.597-11.5129-1.7909-17.1414-3.3686-.6822-.1706-.8954-.0426-1.0234.6396-.469,2.0894-.9807,4.1788-1.4924,6.2681-.1706.597-.0426.8102.5117,1.0234,5.6712,2.1746,11.2144,4.6904,16.4591,7.7605.3838.2558.6396.2985.8528-.2985Zm-16.4591-34.7092c1.2366.597,1.4924.469,1.6204-.8528.0853-.8102.2132-1.663.0426-2.7716-1.0234.9807-1.4071,2.0468-1.9614,3.0274-.2132.3838.0426.469.2985.597h0Zm4.1361,1.3645c2.5584.9381,5.1168,1.8762,7.6752,2.8569-2.132-2.729-4.7331-4.9036-7.8032-6.7372-.0853,1.1939-.1706,2.132-.2132,3.1128-.0853.2985-.0853.597.3411.7675h0Zm-5.7991.9807c-1.6204,3.7097-3.0274,7.5047-4.4346,11.3423-.2132.5543-.2132.8102.4264,1.0234,1.1513.3411,2.3026.7249,3.4539,1.1086.5117.1706.7675.1279.8954-.469.8954-4.0935,1.7482-8.1869,2.4732-12.8773,0-.6396-1.0234-.3411-1.5777-.6396-.5543-.3411-.9381-.1706-1.2366.5117h0Zm-3.0701-3.7523c1.6488.4548,2.8854-.2275,3.7097-2.0468-2.132.2985-4.0935.5117-6.2255,1.3218,1.0234.2985,1.7909.5117,2.5158.7249h0Zm6.7371,18.5059c4.6904,1.2366,9.4235,2.3026,14.2419,2.9848,3.1128.4264,3.1128.469,3.0274-3.198.2558-1.663-.4264-3.5392-1.663-5.2874-.597-.8528-1.1513-1.7056-1.663-2.601-.469-.8102-1.1086-1.3218-1.9614-1.663-3.0274-1.3218-6.0976-2.5584-9.2103-3.7524-1.0234-.3838-1.4071-.2985-1.5777.8954-.5117,3.7524-1.2366,7.462-2.132,11.1291-.2132.9381.0426,1.2366.9381,1.4925h0Zm-6.4386,11.1291c.1279-.5543-.2985-.597-.6396-.7249-1.3645-.469-2.7716-.8954-4.1361-1.3645-.7249-.2558-1.066-.0853-1.2792.6822-2.7716,8.9118-5.2874,17.9089-7.6326,26.9486-.2132.7675.1279.9807.7249,1.1513,1.1939.3838,2.4305.7249,3.5818,1.2366.9381.4264,1.2366.2132,1.535-.7249,2.0468-6.6945,4.0935-13.3891,5.927-20.1262.6396-2.3879,1.2792-4.7331,1.9188-7.0783h0Zm.6822-2.7717c.5117-2.132,1.066-4.264,1.663-6.6945.0853-.2132-.1279-.4264-.6396-.597-1.1939-.3411-2.4305-.7249-3.5818-1.1939-.6822-.2558-.9381-.0853-1.1086.5117-.6396,2.0041-1.2792,4.0082-2.0041,5.9696-.2132.597-.0426.8102.5543.9807,1.4498.4264,2.8569.8954,4.264,1.4071.5117.2558.7249.1706.8528-.3838h0Zm-9.5514,33.2168c.2132-.4264,0-.597-.3411-.7249-1.4924-.5117-2.9848-1.0234-4.4772-1.5777-.4264-.1279-.597.0426-.6822.4264-.0853.3411-.2132.6396.2558.8102,1.535.5117,3.1128,1.0234,4.6478,1.4924.3411.0852.4264-.128.597-.4265h0Zm36.8412-40.3803c.9381,2.5158.9807,2.4732,3.6244,1.7909.1279-.0426.2558-.0853.3838-.1279,1.9188-.6396,2.2173-1.4498,1.0234-3.0701-2.0894-2.8142-5.1168-4.5199-8.3148-6.4813.7675,3.1553,2.3452,5.3727,3.2833,7.8884h0Zm-39.6981,55.6029c4.0508-1.8336,10.8733-6.7372,13.3464-9.5941-2.8996-.6822-5.7138-1.3218-8.5707-2.0041-.7249-.1706-.7249.3838-.8528.8102-.9381,2.5584-1.8336,5.0742-2.7716,7.6326-.3411.9807-.7249,2.0041-1.1513,3.1553h0Zm-9.8499-64.8559c-3.4539,3.1554-6.6092,6.6092-9.5941,10.6174,8.2296.4264,15.9475,1.8336,23.5801,3.9656.7675.2132.8528-.1706,1.0234-.6822.6396-1.9614,1.2366-3.9229,1.9188-5.8417.2558-.6822.1279-.9807-.5543-1.2366-5.2448-1.9188-10.3189-4.1361-15.1799-6.8651-.4264-.2985-.7249-.3838-1.1939.0426h0Zm-3.9229-3.4538c-.597-.6396-.9381-.4264-1.3645.2132-2.1746,3.0274-3.8803,6.2681-5.2021,9.722-.1706.5117-.5543.9381-.469,1.535.469,0,.597-.3838.7675-.597,2.0468-2.5584,4.2214-4.9889,6.6092-7.2915.6396-.597,1.7909-1.2792,1.7056-1.8762-.0427-.7675-1.4072-1.0234-2.0468-1.7056h0Zm-7.2488,16.2033c-.9381,1.4924-2.132,2.8142-2.3452,4.6904-.3838,3.198-.7249,6.396-.7249,9.6367,0,3.8376.3838,7.6326,1.066,11.4276.0853.4264.0853,1.0234.5543,1.2366,2.601,1.2792,4.9463,3.326,7.9737,3.5818,3.2833.2558,6.524.7249,9.6793,1.5777.9381.2558,1.1939-.0853,1.3645-.8528,2.2173-8.9118,4.7757-17.781,7.5047-26.5222.2558-.8528.1706-1.1513-.7249-1.4071-7.59-2.0468-15.2226-3.4112-23.0684-3.7097-.4691-.0853-.9381-.1706-1.2792.3411h0Zm33.0888-21.0643c-1.9188-.469-3.795-.9807-5.6712-1.4924-.6396-.1706-1.1513-.0853-1.7482.1706-4.3067,1.9188-8.1869,4.4346-12.0245,7.5473,4.861,2.729,9.8499,4.8184,14.9241,6.7372.8102.2985.8102-.2985.9807-.7675,1.4071-3.6671,2.729-7.3341,4.1788-10.9585.341-.8528.1278-1.066-.6397-1.2366h0Zm-16.3312,55.6882c.0853-.3411.1279-.6822-.3411-.7675-1.7056-.2985-3.326-.9807-5.1595-.6822,1.535.597,3.1128,1.1513,4.6478,1.7482.3411.1279.7249.2559.8528-.2985Zm35.1782-52.7034c-.2132-1.4498-1.2792-2.4732-2.5158-2.4732,1.0234.597,1.6204,1.5777,2.5158,2.4732Zm-31.5112,80.2063c-.8528-.469-1.7482-.9381-2.601-1.4071-.9807-.5543-.8954.5117-1.1939.8528-.5117.6396.2132.597.5543.6822.9807.2558,2.0041.469,3.0274.6822.2132-.0853.5543.1706.6822-.1706.2133-.3837-.1705-.469-.469-.6396h0Zm-15.3505-3.8376c1.2792.5117,2.5158,1.066,3.795,1.535,2.0183.7675,3.0559.0569,3.1128-2.132,0-.0853-.0853-.1706-.1706-.2558-2.132.4691-4.392.6396-6.7372.8528Zm9.9352-21.1496c-3.2833-1.1939-6.6092-2.3878-9.722-4.0082-1.8336-.9381-3.6244-1.1086-5.6285-.6396,2.5584,8.1869,6.524,15.5211,12.7068,21.576.1279-.2132.2132-.2558.2132-.3411.8954-5.2021,1.9614-10.3616,3.2406-15.5211.2558-.7674-.2985-.8528-.8102-1.066h0Zm-1.1086,21.107v3.2406c1.7909-2.3878,1.7909-2.4305,0-3.2406Zm31.8949-2.7716c.0426,1.2366-.3838,2.3452-.7249,3.5392,3.7524-2.132,6.6519-5.0742,9.0397-8.5707-2.4732,1.535-4.9889,2.9422-7.6326,4.0935-.469.2132-.6822.469-.6822.9381h0Zm-27.503,2.8995c2.9422,2.4732,8.9118,4.6052,13.7728,4.5625,3.0274,0,5.9696-.4264,8.5707-2.2173,1.7482-1.1939,3.0274-2.6864,3.326-5.1168-8.4854,3.0701-16.9708,3.9229-25.6695,2.7716Zm20.9791-15.1373c.0853.2132.0426.3411.1279.3838,2.6437,2.4305,4.9463,5.1168,6.0123,8.656.2558.8528.6822.3838,1.0234.2132,3.7097-1.7056,7.1209-3.9229,10.2337-6.5666.8102-.6822,1.1939-1.535,1.4924-2.601-6.3108,1.0233-12.5789.6822-18.8897-.0853h0Zm28.4836-44.2606c-1.4498,1.2792-3.0274,1.6204-4.6904,1.8762-.597.0853-.7675.2132-.5543.8954,2.0041,6.5666,2.8996,13.3037,2.7716,20.1689,0,.3411-.0426.6396.2132.9381,1.3218,1.4071,2.5158,2.9422,3.6671,4.7757,3.1981-9.8499,2.6437-19.2734-1.4071-28.6542h-.0001Zm-2.601,26.5223c-.0426.3411-.0853.5543-.0853.7675-.4264,4.1788-1.1939,8.3148-2.4732,12.323-.0853.2985-.5117.597-.0853.8102.3411.1706.5543-.1706.7675-.4264,1.1086-1.4924,2.132-3.0701,3.0274-4.6904,2.3452-4.264,2.3026-4.7757-.8102-8.5707-.0426-.0854-.0853-.0854-.3411-.2133h.0002Zm-2.9849-3.3686c-2.1746-1.9614-4.5199-3.6671-6.8651-5.33-.8528-.597-1.066-.3411-1.4071.469-2.1746,5.33-4.9889,10.3616-8.3148,15.052-2.0041,2.8569-4.2214,5.5432-6.7798,8.3575,1.5777.1706,2.8569.3838,4.1361.5117,4.9463.5117,9.8925.6396,14.8388-.1706.8102-.1279,1.5777-.1279,1.9614-1.1939,1.7909-5.2021,2.8569-10.5321,3.1128-16.0327.0853-.7249-.1705-1.1939-.6822-1.6629h-.0001ZM29.3197,35.7622c1.3218-4.5199,3.2406-8.7413,5.8844-12.6215.8244-1.2224.8102-2.4732-.0426-3.7524-.2132-.2985-.469-.6396-.5543-.9807-.2558-.8954-.6396-.7675-1.2792-.3838-3.7524,2.1746-7.1636,4.7757-10.1484,7.9311-3.9229,4.1361-6.9077,8.8692-8.9545,14.4977,4.3493-2.5158,8.7839-3.1554,13.3464-3.4112.9807-.0426,1.4498-.2558,1.7482-1.2792Zm-11.2571,24.9019c-2.26-1.9614-4.3067-4.1361-6.0976-6.9504.0426,6.9077,2.5584,16.1607,5.1595,19.0602.1279-3.7097.5543-7.2915,1.4071-10.8733.1706-.5969-.0426-.8954-.469-1.2365ZM57.6328,14.1436c1.7482-.7249,3.5818-1.2366,5.3727-1.8336-4.3067-.3838-8.6133-1.0234-12.7921.6822,2.0468.3838,4.1361.7675,6.1828,1.1513.4264.0853.8102.1706,1.2366,0h0Zm-20.0409,4.6904c.3411.469.597.3838.9807-.0426,1.3218-1.4924,2.8142-2.8142,4.5625-4.2214-2.26-.3838-3.8803.8102-5.6712,1.3645-1.3218.4264-1.1939,1.1086-.5543,2.0041.2133.3411.4691.597.6823.8955h0Zm4.9462,3.9229c.3411.1706.5543.1706.8528-.0853,3.2406-2.6864,6.7372-4.9889,10.5321-6.9504-.7249-.5117-1.4498-.4264-2.132-.5117-5.4153-.9381-6.1828-.6822-10.191,3.1128-2.3452,2.3452-2.2173,2.9848.9381,4.4345h0Zm-21.0216,37.0544c-.0853.469,0,.6822.3411.9381,1.8336,1.3645,3.6671,2.6864,5.8844,4.0082-.597-3.1554-.8528-6.0123-.9807-8.9118-.1279-2.8569.0426-5.7138.2132-8.8692-1.6204,2.3026-4.9463,10.2763-5.458,12.8348h0Zm5.2874,25.1151c4.1361,3.4965,8.7413,6.1828,14.1565,8.1869-1.2792-1.6204-2.3878-2.9422-3.3686-4.264-3.4965-4.861-6.0549-10.1484-7.8884-15.8622-.1279-.4264-.0426-1.2366-.8102-1.066-3.326.7249-6.524,1.7482-8.6133,4.7331-.4264.6396-.2985,1.0234.1279,1.5777,1.9188,2.4305,4.0508,4.6904,6.396,6.6946h.0001Zm1.0234-44.4738c.2558-.4264.7249-.9381.469-1.4071-.2985-.5117-.9381-.1279-1.4071-.1279-.4264,0-.8528.0426-1.2366.0853-3.4965.4264-6.9504,1.0234-9.9778,2.9422-2.9422,1.8336-4.0508,5.33-2.729,8.5281,1.3645,3.2833,3.7524,5.7564,6.4813,8.2296.5543-1.5777.9807-2.9848,1.535-4.392,1.7483-4.8609,4.0509-9.4661,6.8652-13.858v-.0002Zm.9381,29.3791c-.0426-.6822,0-1.6204-.7249-2.0468-2.4732-1.4924-4.861-3.1128-7.2915-4.861-.9807,3.8376-1.3218,7.5473-1.2792,11.6408,2.3878-2.3452,5.1168-3.4965,8.059-4.2214.4264-.0426,1.2792.0853,1.2365-.5117h0Zm11.8539,25.2004c-7.9311-2.8996-14.4124-7.3341-19.9557-13.1332,3.1554,10.9159,12.1952,14.1566,19.9557,13.1332Z"/><path class="cls-1" d="m2.9253,72.9871l2.0041-2.7716-3.1128-1.4924-.2985-1.1086,6.4813-1.6204.2985,1.2366-4.5625,1.1513v.0426l2.7716,1.2792.0426.1706-1.7909,2.4305v.0426l4.5625-1.1513.2985,1.2366-6.4813,1.6204-.2131-1.066h0Z"/><path class="cls-1" d="m1.0065,62.8814l6.6519-.7675.1279,1.2792-6.6519.7675-.1279-1.2792Z"/><path class="cls-1" d="m.7081,56.6133c0-.6822.1706-1.3218.469-1.8336.2985-.5543.6822-.9381,1.2366-1.2366.5117-.2985,1.1086-.4264,1.7482-.4264s1.2366.1706,1.7482.469.8954.7249,1.1513,1.3218c.2558.5543.3838,1.1939.3838,1.9188l-.0426,2.729-6.6945-.1279v-2.8142h0Zm5.6712.2132c0-.7249-.2132-1.2792-.597-1.7482-.4264-.4264-.9807-.6822-1.663-.6822-.7249,0-1.2792.2132-1.7056.6396s-.6396,1.0234-.6396,1.7482l-.0426,1.3218,4.6478.0853v-1.3645Z"/><path class="cls-1" d="m1.2624,48.7675l5.2874-3.0701-4.6052-.8528.2132-1.2366,6.5666,1.1939-.2132,1.1086-5.3727,3.0701,4.6478.8528-.2132,1.2366-6.5666-1.1939.2558-1.1086h0Z"/><path class="cls-1" d="m3.5649,39.0881l6.3534,2.0468-.3838,1.2366-6.3534-2.0468.3838-1.2366Z"/><path class="cls-1" d="m6.0807,32.6494c.3411-.7675.8528-1.4071,1.535-2.0041l1.066.5117c-.7249.5543-1.2366,1.1939-1.5777,1.9188-.2132.4264-.2985.8954-.2985,1.3218s.1279.8102.3838,1.1513c.2558.3411.5543.597.9807.8102.6396.2985,1.1939.2985,1.7909.0853.5543-.2558,1.0234-.6822,1.3218-1.3645.0853-.1706.1706-.3838.2132-.5543s.0853-.4264.0853-.6822l-1.0234-.469-.469,1.0234-.8954-.4264,1.0234-2.1746,2.5158,1.1513c.0853.3838.0853.8102,0,1.3218-.0853.469-.2132.9381-.4264,1.4071-.2985.6396-.6822,1.1513-1.1939,1.535-.5117.3838-1.066.6396-1.663.6822-.597.0853-1.1939-.0426-1.7909-.2985-.597-.2558-1.066-.6822-1.4071-1.1939-.3411-.5117-.5117-1.1086-.5543-1.7482s.0853-1.3645.3838-2.0041h-.0001Z"/><path class="cls-1" d="m9.7051,26.2961l2.3026,1.5777,1.9614-2.8569-2.3026-1.5777.7249-1.066,5.5006,3.795-.7249,1.066-2.3452-1.6204-1.9614,2.8569,2.3452,1.6204-.7249,1.066-5.5006-3.795.7249-1.066Z"/><path class="cls-1" d="m18.3611,15.7639l.7249.6822-1.6204,1.7056,4.1361,3.9229-.8954.9381-4.1361-3.9229-1.6204,1.7056-.7249-.6822,4.1361-4.3493h0Z"/><path class="cls-1" d="m25.5674,9.9648c.5543-.3838,1.1513-.597,1.8336-.6396l.6396.9381c-.8102.0426-1.4498.2132-1.8762.5117-.2558.1706-.4264.3838-.5117.597s-.0426.3838.0426.5543c.1279.2132.4264.2985.8102.2985.1279,0,.5117-.0426,1.2366-.1706.597-.0853,1.1086-.0853,1.4498.0426.3838.1279.6822.3838.9381.7249.3411.469.4264.9807.2558,1.4924-.1279.5117-.469.9807-1.0234,1.3218-.3411.2558-.6822.4264-.9807.5117s-.6822.1706-1.1513.1706l-.7249-1.066c.9381.0853,1.663-.0426,2.1746-.3838.2558-.1706.4264-.3838.5117-.597s.0426-.4264-.0853-.597c-.1706-.2558-.469-.3838-.8528-.3411-.2985.0426-.7249.0853-1.1939.1706-.5543.0853-1.066.0853-1.4498-.0426s-.7249-.3411-.9381-.6822c-.2985-.469-.3838-.9381-.2558-1.4498s.5969-.9806,1.1513-1.3644h0Z"/><path class="cls-1" d="m31.1532,6.6815l1.7056,3.4965c.1706.3411.3838.6396.597.7675.2132.1706.469.2558.7675.2558s.6396-.0426.9381-.2132c.3411-.1706.6396-.3838.8102-.6396s.2985-.5117.2985-.8102-.0853-.6396-.2985-1.0234l-1.663-3.4112,1.1513-.5543,1.7482,3.5818c.3838.8102.469,1.535.1706,2.2173-.2558.6822-.8528,1.2366-1.7482,1.663-.5543.2558-1.1086.3838-1.5777.3838-.5117,0-.9381-.1279-1.3645-.4264s-.7249-.6396-.9807-1.1513l-1.7482-3.6244,1.1939-.5117h0Z"/><path class="cls-1" d="m39.8518,3.0144l5.1168,3.4112-1.2792-4.4772,1.2366-.3411,1.8336,6.4387-1.066.2985-5.1595-3.4539,1.2792,4.5625-1.2366.3411-1.8336-6.4387,1.1086-.3411h0Z"/><path class="cls-1" d="m55.0744.3708c.6396-.0426,1.1513.1279,1.5777.469.4264.3411.6396.7675.6396,1.3218,0,.3838-.0853.7249-.2558,1.0234-.1706.2985-.469.5117-.8528.6822.2132.0853.4264.2558.597.4264s.3838.5117.6396.9807c.4264.8102.7675,1.3218.9807,1.6204l-1.4498.0426c-.0853-.1279-.2558-.3838-.4264-.6822-.3838-.6822-.6822-1.1513-.8528-1.4071-.1706-.2558-.3411-.4264-.5117-.5117s-.3411-.1279-.5543-.1279h-.469l.1279,2.8142-1.2792.0426-.2558-6.6945h2.3452-.0001Zm-.1706,2.8569c.3411,0,.597-.1279.7675-.2985.1706-.1706.2558-.4264.2558-.7249s-.1279-.5117-.2985-.6822c-.2132-.1279-.469-.2132-.8102-.2132l-.8102.0426.0853,1.8762h.8103Z"/><path class="cls-1" d="m64.6258.7972l2.132,6.993-1.3645-.1706-.5117-1.7056-2.9422-.3411-.8528,1.535-1.3645-.1706,3.5392-6.3108,1.3644.1706h0Zm-2.132,3.8376l2.132.2558-.8102-2.7716-1.3218,2.5158Z"/><path class="cls-1" d="m71.4056,2.0337l2.5158,5.5859,1.3218-4.4772,1.1939.3411-1.8762,6.4387-1.066-.2985-2.5158-5.6712-1.3218,4.5625-1.1939-.3411,1.8762-6.4387,1.066.2985Z"/><path class="cls-1" d="m82.2362,6.0419c.6396.2985,1.1086.7249,1.4924,1.1939.3411.5117.5543,1.0234.597,1.6204s-.0853,1.1939-.3838,1.7482c-.2985.597-.6822,1.0234-1.1939,1.3645s-1.066.469-1.663.469c-.6396,0-1.2366-.1706-1.8762-.469l-2.4305-1.1939,2.9848-6.0123s2.4732,1.2792,2.4732,1.2792Zm-2.6437,5.0315c.6396.2985,1.2366.3838,1.8336.1706s1.0234-.597,1.3218-1.2366c.3411-.6396.3838-1.2366.1706-1.8336-.2132-.5543-.6396-1.0234-1.2792-1.3218l-1.1939-.597-2.0894,4.1788,1.2366.6396h-.0001Z"/><path class="cls-1" d="m90.9348,11.2014c.5543.4264.9807.8954,1.2366,1.4498s.3838,1.1513.3411,1.7909-.2558,1.1939-.6396,1.7056-.8528.8954-1.4071,1.1086-1.1939.2985-1.7909.2132-1.2366-.3411-1.7909-.7675-.9807-.8954-1.2366-1.4924-.3838-1.1513-.3411-1.7909.2558-1.1513.6396-1.663c.3838-.5117.8528-.8528,1.4071-1.1086s1.1939-.3411,1.7909-.2558c.597.1279,1.1939.3838,1.7909.8102h0Zm-3.9655,1.3645c-.2558.3411-.4264.7249-.469,1.1513s0,.8102.1706,1.1513c.1706.3838.4264.6822.8102.9381.5543.4264,1.1513.5543,1.7482.469.597-.0853,1.1086-.3838,1.535-.9381.2558-.3411.4264-.7249.469-1.1513s0-.8102-.1706-1.1513c-.1706-.3838-.469-.6822-.8102-.9807-.3838-.2558-.7675-.4264-1.1513-.469s-.8102,0-1.1513.1706c-.3838.2132-.6823.4691-.9807.8102h0Z"/><path class="cls-1" d="m97.0324,16.4461l-.6396,6.0976,3.3686-3.198.8528.8954-4.861,4.6052-.7675-.8102.6822-6.1828-3.4539,3.2833-.8528-.8954,4.861-4.6052.8102.8102h0Z"/><path class="cls-1" d="m103.4711,23.9935l-1.7056,5.8844,3.8803-2.601.6822,1.066-5.5859,3.7097-.597-.9381,1.7482-5.9696-3.9656,2.6437-.6822-1.066,5.5859-3.7097.6397.9807h0Z"/><path class="cls-1" d="m109.8245,35.3784l-.9381.4264-1.2792-2.7716-1.5777.7249,1.1939,2.6437-.9381.4264-1.1939-2.6437-1.7056.8102,1.2792,2.8142-.9381.4264-1.8336-4.0082,6.0976-2.8142,1.8334,3.9656h.0002Zm1.663-1.4498l-2.26-.9381-.2985-.6822,1.8762.1279.6822,1.4924h.0001Z"/><path class="cls-1" d="m112.2123,42.542l-.9807.2985-.8954-2.8996-1.663.5117.8528,2.7716-.9807.2985-.8528-2.7716-1.8336.5543.8954,2.9422-.9807.2985-1.2792-4.1788,6.396-1.9614,1.3219,4.1362h0Z"/><path class="cls-1" d="m113.8327,52.4771l-6.6519.597-.1279-1.2366,6.6519-.597.1279,1.2366Z"/><path class="cls-1" d="m114.0885,57.8925c0,.6396-.2132,1.1513-.597,1.4924s-.8528.5543-1.4498.5117c-.469,0-.9381-.1706-1.4924-.469-.5117-.2985-1.2366-.8102-2.0894-1.535l-.0426,2.3026-1.1513-.0426.0853-4.3493h.1279c.597.5117,1.1513.9807,1.663,1.3218.469.3838.8954.6822,1.2366.8528.3411.2132.597.3411.8102.4264s.469.1279.7249.1279c.2985,0,.5543-.0853.7675-.2985.2132-.1706.3411-.4264.3411-.7249,0-.5117-.2558-1.0234-.8102-1.5777l1.3218.0426c.3837.7248.5969,1.3217.5543,1.9187h0Z"/><path class="cls-1" d="m113.4915,65.2692c-.0853.6822-.469,1.1513-1.1513,1.4498s-1.535.3838-2.5584.2132c-1.066-.1706-1.8762-.469-2.4305-.9381s-.7675-1.066-.6822-1.7056c.0853-.6822.469-1.1939,1.1513-1.4924s1.535-.3838,2.5584-.2132c1.066.1706,1.8336.469,2.3878.9381.5969.469.8528,1.066.7249,1.7482Zm-3.2833-1.4924c-1.4924-.2132-2.3026,0-2.4305.6396-.0853.6396.6396,1.066,2.26,1.2792,1.4924.2132,2.26,0,2.3878-.6396.0852-.5969-.6397-1.066-2.2173-1.2792Z"/><path class="cls-1" d="m111.9991,72.3902c-.1706.6396-.6396,1.066-1.3218,1.3218s-1.535.1706-2.5584-.0853c-1.0234-.2985-1.7909-.7249-2.26-1.2366-.469-.5543-.6396-1.1513-.469-1.7909.1706-.6822.6396-1.1086,1.3218-1.3218s1.5777-.1706,2.601.0853c1.0234.2985,1.7909.7249,2.26,1.2366.469.5117.597,1.1086.4264,1.7909Zm-3.0701-1.9188c-1.4924-.4264-2.3026-.2985-2.4732.3411-.1706.597.5117,1.1513,2.0468,1.5777,1.4498.4264,2.26.2985,2.4305-.3411.1706-.597-.469-1.1513-2.0041-1.5777Z"/><path class="cls-1" d="m11.2402,80.108c.1706.3411.2132.6822.0853,1.0234s-.3411.597-.6822.7675c-.3411.1706-.6822.1706-1.0234.0853-.3411-.1279-.597-.3411-.7675-.6822-.1706-.3411-.1706-.6396-.0853-1.0234.1279-.3411.3411-.597.6822-.7675.3411-.1706.6822-.1706,1.0234-.0853.3411.1279.597.3411.7675.6822Z"/><path class="cls-1" d="m17.8068,86.8452l-5.3727,3.9656-.7249-.9807,5.3727-3.9656.7249.9807Z"/><path class="cls-1" d="m22.4546,92.0899c-.469-.0426-1.066-.0426-1.7909.0426s-1.3218.2132-1.7482.3838c.2558.1279.469.2558.6396.469.2558.2558.3838.5543.469.8528.0853.3411.0426.6396-.0853.9807-.1279.3411-.2985.597-.597.8954-.2985.2558-.6396.469-.9807.5543-.3838.0853-.7249.0853-1.1086,0s-.6822-.2985-.9381-.597c-.4264-.469-.6396-1.0234-.597-1.6204s.3411-1.1513.8528-1.6204c.5117-.469,1.1939-.8528,2.0468-1.066.8528-.2558,1.7909-.3411,2.8142-.2985l1.0233,1.0234v.0003Zm-5.1595,1.3218c-.2132.2132-.3411.469-.3838.7249s.0426.5117.2558.6822c.1706.2132.3838.2985.6396.2985s.5117-.1279.7249-.3411.3411-.4264.3411-.6822c.0426-.2558-.0426-.469-.2558-.6822-.1706-.1706-.3838-.2985-.6396-.2985-.2558.0427-.469.128-.6822.2985h0Z"/><path class="cls-1" d="m26.0364,100.3195l-.6822.8954-1.9614-1.4924.6822-.8954,1.9614,1.4924Z"/><path class="cls-1" d="m34.1807,100.7033c.5543.2985.9381.6822,1.1086,1.1939.1706.5117.0853,1.0234-.1706,1.535-.2132.4264-.5543.7675-1.066,1.1086-.5117.3411-1.2792.7675-2.3026,1.1939l2.0468,1.066-.5543,1.0234-3.8376-2.0041.0853-.1279c.7249-.2985,1.3645-.597,1.9188-.8954.5543-.2558.9807-.5117,1.3218-.7249.3411-.2132.597-.3838.7675-.5543s.3411-.3411.4264-.5543c.1279-.2558.1706-.5543.0853-.8102-.0853-.2558-.2558-.469-.469-.597-.4264-.2132-1.0234-.2132-1.7909.0426l.597-1.1513c.6823-.1279,1.2792-.0427,1.8336.2558v.0002Z"/><path class="cls-1" d="m40.4061,103.4749c.6396.2132,1.0234.6822,1.1939,1.4071s.0853,1.5777-.2985,2.5584c-.3838.9807-.8528,1.7056-1.4071,2.1746-.597.4264-1.1939.5543-1.8336.2985-.6396-.2558-1.066-.7249-1.2366-1.4071s-.0853-1.5777.2985-2.5584c.3838-.9807.8528-1.7056,1.4071-2.1746.597-.4264,1.2366-.5543,1.8762-.2985h0Zm-2.132,2.8995c-.5117,1.4498-.469,2.26.1279,2.4732s1.1939-.4264,1.7482-1.9188c.5117-1.4071.469-2.2173-.1279-2.4305-.6396-.2133-1.1939.3837-1.7482,1.8761Z"/><path class="cls-1" d="m50.2987,106.0333l-.9807,6.3534c-.1279.7249-.3838,1.2366-.8528,1.6204-.4264.3838-.9807.5117-1.6204.3838h-.1279c-.0427,0-.0853,0-.1279-.0426l.0853-1.1086c.7675.1279,1.1939-.2558,1.3218-1.1513l.9807-6.2681,1.3219.2131h0Z"/><path class="cls-1" d="m54.4348,106.5024l-.0853,3.8803c0,.3838.0426.7249.1706.9381.1279.2558.2985.4264.5543.597s.597.2558.9381.2558c.3838,0,.7249-.0426,1.0234-.2132.2985-.1279.469-.3411.6396-.597.1279-.2558.2132-.597.2132-1.0234l.0853-3.795,1.2792.0426-.0853,3.9656c0,.8954-.2985,1.5777-.8528,2.0468-.5543.469-1.3218.6822-2.3026.6822-.6396,0-1.1513-.1279-1.6204-.3838-.469-.2132-.8102-.5543-1.0234-.9807s-.3411-.8954-.3411-1.4924l.0853-4.0082,1.3219.0854h0Z"/><path class="cls-1" d="m63.0055,106.2465l4.6478,4.0082-.7249-4.6052,1.2366-.2132,1.0234,6.6092-1.1086.1706-4.6904-4.0935.7249,4.6904-1.2366.2132-1.0234-6.6092,1.1513-.1706h-.0001Z"/><path class="cls-1" d="m74.9021,103.3896l.2985.9807-2.8996.9381.5543,1.663,2.7716-.8954.2985.9807-2.7716.8954.597,1.7909,2.9422-.9807.2985.9807-4.1788,1.3645-2.0894-6.3534,4.1788-1.3645Z"/><path class="cls-1" d="m82.3641,99.6799c.5543-.3411,1.066-.4264,1.5777-.2985s.8954.4264,1.2366.9381c.2558.3838.3838.8954.3838,1.4924.0426.597-.0426,1.4498-.1706,2.601l1.9614-1.1939.597.9807-3.7097,2.2173-.0853-.1279c.1279-.8102.2132-1.4924.2558-2.0894s.0853-1.1086.0853-1.4924,0-.6822-.0853-.9381c-.0426-.2558-.1279-.469-.2558-.6822-.1706-.2558-.3838-.4264-.6396-.5117s-.5543-.0426-.7675.0853c-.4264.2558-.7249.7675-.8954,1.535l-.6822-1.1086c.2558-.5969.6822-1.1086,1.1939-1.4071h0Z"/><path class="cls-1" d="m87.9926,95.8423c.5117-.4264,1.1513-.5117,1.8336-.2985.6822.2132,1.3645.7675,2.0041,1.5777.6396.8528,1.0234,1.6204,1.1086,2.3452s-.1706,1.3218-.6822,1.7056c-.5543.4264-1.1513.5117-1.8336.2985-.6822-.2132-1.3645-.7675-2.0468-1.6204-.6396-.8528-1.0234-1.6204-1.066-2.3452s.128-1.2365.6823-1.6629Zm1.3645,3.3259c.9381,1.1939,1.663,1.5777,2.1746,1.1939.5117-.3838.2558-1.2366-.7249-2.4732-.9381-1.1939-1.663-1.5777-2.1746-1.1513-.4691.3838-.2559,1.1939.7249,2.4305h0Z"/><path class="cls-1" d="m92.5126,91.7915c.4264-.469.9381-.6822,1.4498-.7249.5117,0,.9807.1706,1.4498.597.3411.3411.597.7675.7675,1.3645.1706.5543.3411,1.4071.5117,2.5584l1.6204-1.6204.8102.8102-3.0274,3.1128-.0853-.0853c-.0853-.8102-.1706-1.4924-.2985-2.0894s-.2132-1.1086-.2985-1.4498-.2132-.6822-.2985-.8954-.2558-.4264-.4264-.597c-.2132-.2132-.469-.3411-.7675-.3411s-.5117.0853-.7249.2985c-.3411.3411-.5117.9381-.469,1.7056l-.9381-.9381c.0424-.7249.2983-1.2792.7247-1.7056Z"/><path class="cls-1" d="m97.7999,85.5233l3.1128,2.3452.3411-.469.7675.597-.3411.469,1.4924,1.1513-.7249.9807-1.4924-1.1513-1.663,2.1746-.6396-.469-1.3218-5.0742s.469-.5543.469-.5543Zm.8528,2.26l.597,2.3026.8954-1.1939-1.4924-1.1086h0Z"/><path class="cls-1" d="m103.2152,80.6624c.1706-.3411.4264-.5543.7675-.6396s.6822-.0853,1.0234.0853c.3411.1706.5543.4264.6396.7675s.0853.6822-.0853,1.0234c-.1706.3411-.4264.5543-.7675.6396-.3411.1279-.6822.0853-1.0234-.0853-.3411-.1706-.5543-.4264-.6396-.7675-.1279-.3838-.0853-.7249.0853-1.0234Z"/><path class="cls-3" d="m133.39,62.9398l8.9648,10.7617,8.9648-10.7617h4.707v27.2852h-5.2734v-19.1602h-.1562l-7.8906,9.6094h-.7422l-7.8906-9.6094h-.1562v19.1602h-5.2734v-27.2852h4.7461Zm33.2227,0v27.2852h-5.2734v-27.2852h5.2734Zm16.7393,0c2.8389,0,5.3643.5801,7.5781,1.7383,2.2139,1.1592,3.9326,2.7871,5.1562,4.8828,1.2236,2.0967,1.8359,4.4531,1.8359,7.0703,0,2.6699-.6152,5.0361-1.8457,7.0996-1.2305,2.0645-2.9785,3.6621-5.2441,4.7949s-4.8633,1.6992-7.793,1.6992h-11.1133v-27.2852h11.4258Zm-.5469,23.1641c2.917,0,5.2568-.875,7.0215-2.627,1.7646-1.751,2.6465-4.0459,2.6465-6.8848,0-2.9424-.8887-5.2666-2.666-6.9727-1.7773-1.7051-4.1699-2.5586-7.1777-2.5586h-5.4297v19.043h5.6055Zm23.6592-23.1641l16.2109,19.043v-19.043h5.1562v27.2852h-4.5312l-16.3086-19.3555v19.3555h-5.1562v-27.2852h4.6289Zm31.958,0v27.2852h-5.2734v-27.2852h5.2734Zm19.3574-.3516c3.3594,0,6.6924.749,10,2.2461v4.8242c-3.3076-1.6797-6.5625-2.5195-9.7656-2.5195-1.9922,0-3.7627.3975-5.3125,1.1914-1.5498.7949-2.751,1.9375-3.6035,3.4277-.8525,1.4912-1.2793,3.1543-1.2793,4.9902,0,2.7871.9277,5.0293,2.7832,6.7285s4.2998,2.5488,7.334,2.5488c.833,0,1.6309-.0713,2.3926-.2148.7617-.1426,1.6699-.416,2.7246-.8203v-4.5312h-4.5117v-4.1211h9.7852v11.25c-1.3408.9375-2.9521,1.6699-4.834,2.1973s-3.8379.791-5.8691.791c-2.8779,0-5.4854-.5918-7.8223-1.7773-2.3369-1.1846-4.1602-2.8447-5.4688-4.9805-1.3086-2.1348-1.9629-4.5176-1.9629-7.1484,0-2.6689.6611-5.084,1.9824-7.2461,1.3213-2.1611,3.1641-3.8408,5.5273-5.0391,2.3633-1.1973,4.9971-1.7969,7.9004-1.7969Zm20.7256.3516v11.4844h14.1602v-11.4844h5.2734v27.2852h-5.2734v-11.5234h-14.1602v11.5234h-5.2734v-27.2852h5.2734Zm46.6338,0v4.1211h-9.6875v23.1641h-5.2734v-23.1641h-9.6875v-4.1211h24.6484Zm21.0273-.3516c2.6562,0,5.2148.6641,7.6758,1.9922v4.6875c-2.8252-1.7051-5.332-2.5586-7.5195-2.5586-1.3281,0-2.3662.2578-3.1152.7715-.749.5146-1.123,1.2012-1.123,2.0605,0,1.0293.6963,1.9795,2.0898,2.8516.3906.2607,1.8945.9902,4.5117,2.1875,2.2393,1.0547,3.8545,2.2266,4.8438,3.5156s1.4844,2.8389,1.4844,4.6484c0,2.3438-.8428,4.2354-2.5293,5.6738-1.6865,1.4395-3.8701,2.1582-6.5527,2.1582-1.7451,0-3.2451-.1924-4.502-.5762s-2.666-1.0449-4.2285-1.9824v-5.1953c2.917,2.4219,5.6641,3.6328,8.2422,3.6328,1.2891,0,2.3311-.2793,3.125-.8398.7939-.5596,1.1914-1.3018,1.1914-2.2266,0-1.2627-.6904-2.291-2.0703-3.0859-1.1455-.625-2.624-1.373-4.4336-2.2461-2.1484-.9766-3.7529-2.1152-4.8145-3.418-1.0615-1.3018-1.5918-2.8125-1.5918-4.5312,0-2.291.8525-4.1172,2.5586-5.4785,1.7061-1.3604,3.958-2.041,6.7578-2.041Zm17.5469.3516v15.8789c0,1.6279.2441,2.9238.7324,3.8867.4883.9639,1.2861,1.7578,2.3926,2.3828s2.3955.9375,3.8672.9375c1.6143,0,2.9854-.2959,4.1113-.8887,1.126-.5918,1.9502-1.3994,2.4707-2.4219.5205-1.0215.7812-2.4375.7812-4.248v-15.5273h5.2734v16.2109c0,3.6719-1.1006,6.4941-3.3008,8.4668s-5.3125,2.959-9.3359,2.959c-2.5264,0-4.7168-.4492-6.5723-1.3477s-3.2715-2.1973-4.248-3.8965-1.4648-3.6943-1.4648-5.9863v-16.4062h5.293Zm29.3184,0l16.2109,19.043v-19.043h5.1562v27.2852h-4.5312l-16.3086-19.3555v19.3555h-5.1562v-27.2852h4.6289Zm46.3008,0c2.5654,0,4.6553.71,6.2695,2.1289,1.6143,1.4199,2.4219,3.2686,2.4219,5.5469,0,1.5498-.4004,2.9004-1.2012,4.0527s-1.9893,2.0605-3.5645,2.7246c.8721.4688,1.6475,1.1074,2.3242,1.9141.6768.8076,1.5166,2.168,2.5195,4.082,1.667,3.3076,2.9033,5.5859,3.7109,6.8359h-5.8789c-.4033-.5986-.9502-1.5557-1.6406-2.8711-1.5107-2.9033-2.6172-4.8594-3.3203-5.8691-.7031-1.0088-1.3799-1.7246-2.0312-2.1484-.6514-.4229-1.3994-.6348-2.2461-.6348h-1.9141v11.5234h-5.2734v-27.2852h9.8242Zm-1.1914,11.6406c1.3799,0,2.4639-.3447,3.252-1.0352.7881-.6895,1.1816-1.6338,1.1816-2.832,0-1.25-.3906-2.1836-1.1719-2.8027-.7812-.6182-1.8945-.9277-3.3398-.9277h-3.2812v7.5977h3.3594Zm31.2646-11.6406l12.0508,27.2852h-5.5664l-2.832-6.6406h-12.1289l-2.6367,6.6406h-5.5273l11.25-27.2852h5.3906Zm-6.875,16.6406h8.8086l-4.6094-10.8008-4.1992,10.8008Zm25.7266-16.6406l16.2109,19.043v-19.043h5.1562v27.2852h-4.5312l-16.3086-19.3555v19.3555h-5.1562v-27.2852h4.6289Zm38.0566,0c2.8389,0,5.3643.5801,7.5781,1.7383,2.2139,1.1592,3.9326,2.7871,5.1562,4.8828,1.2236,2.0967,1.8359,4.4531,1.8359,7.0703,0,2.6699-.6152,5.0361-1.8457,7.0996-1.2305,2.0645-2.9785,3.6621-5.2441,4.7949s-4.8633,1.6992-7.793,1.6992h-11.1133v-27.2852h11.4258Zm-.5469,23.1641c2.917,0,5.2568-.875,7.0215-2.627,1.7646-1.751,2.6465-4.0459,2.6465-6.8848,0-2.9424-.8887-5.2666-2.666-6.9727-1.7773-1.7051-4.1699-2.5586-7.1777-2.5586h-5.4297v19.043h5.6055Zm32.6797-23.5156c2.8252,0,5.3682.583,7.627,1.748,2.2588,1.166,4.0596,2.8457,5.4004,5.0391,1.3408,2.1943,2.0117,4.5996,2.0117,7.2168,0,2.5527-.6543,4.9189-1.9629,7.0996-1.3086,2.1816-3.1055,3.874-5.3906,5.0781-2.2852,1.2051-4.8604,1.8066-7.7246,1.8066-2.8252,0-5.3936-.6113-7.7051-1.8359-2.3115-1.2236-4.1113-2.9062-5.4004-5.0488-1.2891-2.1416-1.9336-4.5078-1.9336-7.0996,0-2.5.6445-4.8496,1.9336-7.0508,1.2891-2.2002,3.0664-3.9092,5.332-5.127,2.2656-1.2168,4.8701-1.8262,7.8125-1.8262Zm-9.6289,14.0039c0,1.8105.4102,3.4375,1.2305,4.8828s1.9629,2.5654,3.4277,3.3594c1.4648.7949,3.1221,1.1914,4.9707,1.1914,2.7998,0,5.1006-.8789,6.9043-2.6367s2.7051-4.0234,2.7051-6.7969c0-1.8096-.4072-3.4404-1.2207-4.8926-.8135-1.4512-1.96-2.5742-3.4375-3.3691-1.4775-.7939-3.1416-1.1914-4.9902-1.1914s-3.5127.4004-4.9902,1.2012-2.6143,1.9209-3.4082,3.3594c-.7939,1.4395-1.1914,3.0703-1.1914,4.8926Zm33.2061-13.6523l16.2109,19.043v-19.043h5.1562v27.2852h-4.5312l-16.3086-19.3555v19.3555h-5.1562v-27.2852h4.6289Zm31.2607,0l16.2109,19.043v-19.043h5.1562v27.2852h-4.5312l-16.3086-19.3555v19.3555h-5.1562v-27.2852h4.6289Zm44.2676,0v4.1211h-12.3633v7.168h11.8359v4.1211h-11.8359v7.7539h12.6367v4.1211h-17.9102v-27.2852h17.6367Zm-2.4414-8.5938l-7.3633,6.7188h-2.9688l3.7305-6.7188h6.6016Zm24.5498,8.5938v4.1211h-12.3633v7.168h11.8359v4.1211h-11.8359v7.7539h12.6367v4.1211h-17.9102v-27.2852h17.6367ZM127.0971,36.2899h2.6367v18.4175h-2.6367v-18.4175Zm15.9951-.0527l.2637-.1846,1.5947,2.0039c-1.4062.9072-2.5732,1.8979-3.5,2.9722-.9277,1.0742-1.6416,2.3379-2.1426,3.791.9756-.501,1.9463-.7515,2.9131-.7515,1.4512,0,2.6719.5142,3.666,1.5425.9922,1.0283,1.4893,2.2896,1.4893,3.7837,0,1.5381-.54,2.8433-1.6221,3.9155-1.0801,1.0723-2.3945,1.6084-3.9414,1.6084-1.7314,0-3.1309-.6084-4.1992-1.8262-1.0674-1.2168-1.6016-2.8101-1.6016-4.7788,0-1.4766.2744-2.9468.8242-4.4097.5488-1.4639,1.3398-2.835,2.373-4.1133,1.0322-1.2793,2.3262-2.4634,3.8828-3.5532Zm-4.3516,11.3115c-.0703.4131-.1055.8745-.1055,1.3843,0,1.0371.3018,1.8896.9033,2.5576.6025.668,1.373,1.002,2.3135,1.002.8438,0,1.541-.2856,2.0898-.8569.5498-.5713.8242-1.292.8242-2.1621,0-.8877-.292-1.606-.877-2.1558-.584-.5488-1.3555-.8237-2.3135-.8237-.4922,0-.9385.0747-1.3379.2241-.4004.1494-.8994.4263-1.4971.8306Zm16.5889-.1055h6.5654v2.5708h-6.5654v-2.5708Zm19.1621,4.7197h7.0107v2.5444h-11.6543v-.1846l1.1074-1.3052c1.7314-2.1445,3.1094-3.9639,4.1328-5.458,1.0244-1.4941,1.6924-2.6235,2.0039-3.3882.3125-.7646.4678-1.5205.4678-2.2676,0-1.0371-.2939-1.8696-.8828-2.498s-1.3711-.9429-2.3467-.9429c-.7383,0-1.4658.2173-2.1816.6528-.7168.4346-1.3604,1.0479-1.9316,1.8389v-3.3486c1.4326-1.1689,2.9092-1.7534,4.4297-1.7534,1.6084,0,2.9336.5361,3.9746,1.6084,1.042,1.0728,1.5625,2.4351,1.5625,4.0874,0,.7388-.1299,1.5273-.3887,2.3672-.2588.8394-.7188,1.8062-1.377,2.9004-.6592,1.0942-1.7793,2.5864-3.3604,4.4761l-.5664.6709Zm16.0879-16.1104c1.6875,0,3.083.8857,4.1855,2.6567,1.1035,1.771,1.6543,4.0186,1.6543,6.7432,0,2.7949-.5508,5.0669-1.6543,6.8159-1.1025,1.749-2.5332,2.6235-4.291,2.6235-1.7842,0-3.2168-.8569-4.2979-2.5708s-1.6221-3.9858-1.6221-6.8159c0-2.7949.5586-5.0693,1.6748-6.8223,1.1162-1.7539,2.5664-2.6304,4.3506-2.6304Zm.0264,2.5049h-.1318c-1.0107,0-1.8125.6221-2.4062,1.8657-.5928,1.2437-.8896,2.9287-.8896,5.0557,0,2.1797.29,3.8892.8701,5.1284s1.3799,1.8589,2.3994,1.8589,1.8232-.6196,2.4131-1.8589c.5879-1.2393.8828-2.9224.8828-5.0493,0-2.1357-.2832-3.8364-.8506-5.1021-.5664-1.2656-1.3291-1.8984-2.2871-1.8984Zm18.876-2.2676h2.6367v18.1802c0,1.6963-.1738,2.9507-.5205,3.7637-.3477.8125-.9082,1.4639-1.6807,1.9512-.7744.4883-1.7061.7314-2.7949.7314-.167,0-.4531-.0264-.8574-.0791l-.4883-2.4517h.6729c.7559,0,1.334-.0923,1.7334-.2769.4004-.1846.7168-.5098.9492-.9756.2334-.4658.3496-1.4546.3496-2.9663v-17.877Zm21.1963,0h2.6494v10.4546c0,1.415-.1025,2.4829-.3096,3.2036-.2061.7207-.4609,1.3208-.7646,1.7993-.3027.4795-.6748.9077-1.1133,1.2856-1.46,1.2568-3.3672,1.8853-5.7227,1.8853-2.3984,0-4.3242-.624-5.7734-1.8721-.4404-.3867-.8115-.8193-1.1143-1.2988-.3037-.4785-.5537-1.0654-.752-1.7598-.1973-.6943-.2959-1.7842-.2959-3.2695v-10.4282h2.6494v10.4546c0,1.7314.1982,2.9355.5928,3.6123.3965.6768.998,1.2197,1.8066,1.6279.8086.4092,1.7617.6133,2.8613.6133,1.5635,0,2.8379-.4087,3.8223-1.2261.5186-.4395.8926-.958,1.1211-1.5557s.3428-1.6216.3428-3.0718v-10.4546Zm22.5801,0h2.5049v18.4175h-2.2676l-12.3135-14.1841v14.1841h-2.4785v-18.4175h2.1357l12.4189,14.3047v-14.3047Zm8.0312,0h10.4414v2.3467h-7.8047v5.6162h7.541v2.3599h-7.541v5.7217h8.0557v2.3467h-10.6924v-18.3911Zm27.2383,15.873h7.0107v2.5444h-11.6543v-.1846l1.1074-1.3052c1.7314-2.1445,3.1094-3.9639,4.1328-5.458,1.0244-1.4941,1.6924-2.6235,2.0039-3.3882.3125-.7646.4678-1.5205.4678-2.2676,0-1.0371-.2939-1.8696-.8828-2.498s-1.3711-.9429-2.3467-.9429c-.7383,0-1.4658.2173-2.1816.6528-.7168.4346-1.3604,1.0479-1.9316,1.8389v-3.3486c1.4326-1.1689,2.9092-1.7534,4.4297-1.7534,1.6084,0,2.9336.5361,3.9746,1.6084,1.042,1.0728,1.5625,2.4351,1.5625,4.0874,0,.7388-.1299,1.5273-.3887,2.3672-.2588.8394-.7188,1.8062-1.377,2.9004-.6592,1.0942-1.7793,2.5864-3.3604,4.4761l-.5664.6709Zm16.0869-16.1104c1.6875,0,3.083.8857,4.1855,2.6567,1.1035,1.771,1.6543,4.0186,1.6543,6.7432,0,2.7949-.5508,5.0669-1.6543,6.8159-1.1025,1.749-2.5332,2.6235-4.291,2.6235-1.7842,0-3.2168-.8569-4.2979-2.5708s-1.6221-3.9858-1.6221-6.8159c0-2.7949.5586-5.0693,1.6748-6.8223,1.1162-1.7539,2.5664-2.6304,4.3506-2.6304Zm.0264,2.5049h-.1318c-1.0107,0-1.8125.6221-2.4062,1.8657-.5928,1.2437-.8896,2.9287-.8896,5.0557,0,2.1797.29,3.8892.8701,5.1284s1.3799,1.8589,2.3994,1.8589,1.8232-.6196,2.4131-1.8589c.5879-1.2393.8828-2.9224.8828-5.0493,0-2.1357-.2832-3.8364-.8506-5.1021-.5664-1.2656-1.3291-1.8984-2.2871-1.8984Zm13.3213,13.6055h7.0107v2.5444h-11.6543v-.1846l1.1074-1.3052c1.7314-2.1445,3.1094-3.9639,4.1328-5.458,1.0244-1.4941,1.6924-2.6235,2.0039-3.3882.3125-.7646.4678-1.5205.4678-2.2676,0-1.0371-.2939-1.8696-.8828-2.498s-1.3711-.9429-2.3467-.9429c-.7383,0-1.4658.2173-2.1816.6528-.7168.4346-1.3604,1.0479-1.9316,1.8389v-3.3486c1.4326-1.1689,2.9092-1.7534,4.4297-1.7534,1.6084,0,2.9336.5361,3.9746,1.6084,1.042,1.0728,1.5625,2.4351,1.5625,4.0874,0,.7388-.1299,1.5273-.3887,2.3672-.2588.8394-.7188,1.8062-1.377,2.9004-.6592,1.0942-1.7793,2.5864-3.3604,4.4761l-.5664.6709Zm17.8418-16.1104h1.082v10.3359h2.0566v2.2412h-2.0566v6.0776h-2.5713v-6.0776h-7.792v-1.1338l9.2812-11.4434Zm-1.4893,10.3359v-5.3384l-4.2617,5.3384h4.2617Z"/></svg>